<svg version="1.1" xmlns="http://www.w3.org/2000/svg" xmlns:xlink="http://www.w3.org/1999/xlink" width="980.48048" height="630.63063" viewBox="0,0,980.48048,630.63063"><g transform="translate(145.24024,130.31528)"><g data-paper-data="{&quot;isPaintingLayer&quot;:true}" stroke-miterlimit="10" stroke-dasharray="" stroke-dashoffset="0" style="mix-blend-mode: normal"><path d="M-145.24024,500.31535v-630.63063h980.48048v630.63063z" fill="#000000" fill-rule="nonzero" stroke="#ff3838" stroke-width="0" stroke-linecap="butt" stroke-linejoin="miter"/><text transform="translate(304.71471,259.28905) scale(0.5,0.5)" font-size="40" xml:space="preserve" fill="#ffffff" fill-rule="nonzero" stroke="none" stroke-width="1" stroke-linecap="butt" stroke-linejoin="miter" stroke-miterlimit="10" stroke-dasharray="" stroke-dashoffset="0" font-family="Marker" font-weight="normal" text-anchor="start" style="mix-blend-mode: normal"><tspan x="0" dy="0">Loading</tspan></text><g><path d="M342.31475,172.20014c-0.51627,-0.03195 -2.23912,-3.39955 -3.84063,-4.06577c-1.15117,-0.43791 -2.59521,-0.88416 -4.20648,-0.60249c-3.65416,0.58551 -3.1195,-0.26601 -4.1596,-2.18331c-1.08242,-1.94438 -0.94112,-3.64224 5.3054,-2.0335c2.15665,0.54411 3.76509,1.57255 5.05019,2.45386c0.33861,0.21652 3.06975,2.38024 3.16542,4.46893c0.09568,2.08868 -0.86745,2.00953 -1.31434,1.96233z" fill="#000000" fill-rule="evenodd" stroke="#001026" stroke-width="1.2" stroke-linecap="round" stroke-linejoin="round"/><path d="M347.82508,169.1491c0.39479,0.96803 0.34476,2.725 -1.74045,3.00178c-2.43217,0.35309 -3.37784,-2.45795 -3.81843,-3.63416c-0.44059,-1.17621 -0.62029,-1.82778 -1.84495,-3.92275c-0.47599,-0.84104 -1.19068,-1.77507 -1.59037,-2.26916c-0.18456,-0.17764 -0.39621,-0.31298 -0.66198,-0.36363c-0.48919,-0.07426 2.89671,3.66385 2.4714,2.55706c-0.35356,-1.2309 -1.41475,-0.6952 0.49225,-1.24211c0.21907,-0.06285 -0.39883,0.04695 -0.17522,-0.04428c2.10391,-0.85841 0.36457,-1.44333 1.24244,-0.38299c1.86791,2.20809 3.20053,1.29966 1.83143,1.85543c-0.19291,0.1152 -0.50583,0.79111 -0.36359,0.94169l0.63322,-2.42479c0.38826,0.46524 -0.26325,-0.86604 0.07344,-0.39513c0.37372,0.5227 1.10609,2.01507 1.4182,2.5216c1.3385,2.17225 1.72975,3.11199 2.03261,3.80148z" fill="#000000" fill-rule="evenodd" stroke="#001026" stroke-width="1.2" stroke-linecap="round" stroke-linejoin="round"/><path d="M348.38448,182.19925c-1.12554,0.17481 -2.37522,-1.04166 -1.65976,-2.25387c0.70368,-1.1005 2.32328,-1.67501 3.26422,-2.02747c0.94096,-0.35247 4.90809,-1.3342 6.98969,1.84538c0.82153,1.41979 2.18419,5.63049 -0.2327,6.05297c-2.4169,0.4225 -2.70407,-2.20607 -3.15161,-3.74446c-0.35939,-1.30318 -4.88999,0.09348 -5.20989,0.12748z" fill="#000000" fill-rule="evenodd" stroke="#001026" stroke-width="1.2" stroke-linecap="round" stroke-linejoin="round"/><g fill-rule="evenodd"><path d="M349.47874,173.35773c0.26434,0.70573 0.36632,1.66542 0.42108,3.07195c0.03602,1.15605 -0.37276,3.10107 -0.37276,3.10107c-0.29566,1.30176 -1.34079,3.49586 -2.71051,2.56042c-0.90415,-0.63773 -1.83189,-1.05204 -3.40633,-1.76059c-2.86442,-1.11592 -3.54652,-1.075 -3.49509,-3.48705c0.15623,-2.76244 -1.8171,-6.11134 4.02706,-7.32404c0,0 3.1025,-0.28229 7.16952,-1.1405c2.74861,-0.56819 6.93084,-1.23349 8.37624,-1.4423c0.31989,-0.03398 0.62798,0.04374 0.90901,0.1638c4.34934,2.24429 7.12628,4.61619 5.9625,6.43626c-1.94862,3.04758 -7.32484,-1.8808 -7.32484,-1.8808c0,0 -3.00258,0.40582 -4.40567,0.64168z" fill="#000000" stroke="#001026" stroke-width="1.2" stroke-linecap="round" stroke-linejoin="round"/><path d="M349.52779,177.38449c0,0 0.12761,1.57242 -2.42321,1.55148c-2.68959,0.00961 -2.54311,-1.80497 -2.65546,-3.30798c-0.00754,-1.85344 1.24495,-1.94706 2.57865,-2.16769c1.0832,-0.20186 2.04287,-0.30386 2.04287,-0.30386c0,0 0.74381,1.72786 0.45712,4.22799z" fill="#a00000" stroke="none" stroke-width="1" stroke-linecap="butt" stroke-linejoin="miter"/></g><g fill-rule="evenodd"><path d="M334.1806,203.94721c-1.08178,-0.45316 -2.15178,-1.01804 -3.28282,-1.8605c-1.93527,-1.35666 -3.37992,-3.29413 -3.37992,-3.29413l-7.25968,0.0691c-0.22343,-0.02359 -0.35389,-0.28592 -0.2033,-0.42814l5.73339,-7.00827c0.03745,0.50099 -1.02249,-8.28672 5.0681,-11.1905c6.09057,-2.90377 13.86229,-0.97575 20.81848,5.67843c6.95618,6.65419 5.89565,12.41639 3.84507,14.50427c-2.05058,2.0879 -5.62419,1.05521 -5.62419,1.05521c0,0 -1.26022,1.87767 -4.10322,3.33963c-1.69733,0.88258 -5.67832,1.13986 -5.67832,1.13986l-3.9964,3.82537c-0.1506,0.14224 -0.3893,0.04925 -0.46214,-0.11662z" fill="#000000" stroke="#001026" stroke-width="1.2" stroke-linecap="butt" stroke-linejoin="miter"/><path d="M349.877,201.22218c-4.11203,-1.49622 -2.74564,-4.37938 -5.65787,-6.53964c-3.39312,-2.52737 -10.72362,-1.78794 -10.66367,-8.1303c0.03287,-6.30002 8.79779,-9.28279 17.68779,-0.61685c6.8986,6.55774 6.14269,12.21653 4.0921,14.30444c-2.05058,2.08789 -5.45833,0.98235 -5.45833,0.98235z" fill="#000000" stroke="none" stroke-width="1" stroke-linecap="butt" stroke-linejoin="miter"/><path d="M339.4397,188.1679c1.19916,-2.15524 3.31223,-4.62061 7.43465,-2.58106c4.60673,2.58778 4.18537,6.79078 3.8356,8.17721c-0.05066,0.26576 -0.35531,0.36915 -0.53987,0.19149c-0.55372,-0.53294 -1.82699,-1.52599 -4.19388,-2.86048c-2.6479,-1.45452 -5.36662,-2.23876 -6.36029,-2.4567c-0.19637,-0.06591 -0.28448,-0.30117 -0.17622,-0.47047z" fill="#000000" stroke="#001026" stroke-width="1.2" stroke-linecap="round" stroke-linejoin="round"/><path d="M353.98148,200.86496c0,0 3.02052,1.99095 3.98146,4.87142" fill="none" stroke="#001026" stroke-width="1.2" stroke-linecap="round" stroke-linejoin="round"/><path d="M355.74758,198.47591c0,0 2.16499,0.25127 4.69631,2.16796" fill="none" stroke="#001026" stroke-width="1.2" stroke-linecap="round" stroke-linejoin="round"/><path d="M341.75091,193.87958c0.43303,-0.67725 2.88739,-0.59871 3.59515,-0.0269c0.65017,0.47536 0.52728,2.06648 0.10608,2.632c-0.23179,0.26922 -1.21712,-0.24152 -2.10601,-0.80989c-0.84654,-0.54129 -1.96232,-1.31434 -1.59522,-1.79521z" fill="#001026" stroke="#000000" stroke-width="1.2" stroke-linecap="round" stroke-linejoin="round"/><path d="M330.61123,184.90824c-2.32045,0.36489 -6.71841,-0.77746 -6.71841,-0.77746" fill="none" stroke="#001026" stroke-width="1.2" stroke-linecap="round" stroke-linejoin="round"/><path d="M326.89551,180.08749c0,0 3.42994,1.53715 4.78993,3.42048" fill="none" stroke="#001026" stroke-width="1.2" stroke-linecap="round" stroke-linejoin="round"/><g fill="#a00000"><path d="M339.47312,203.03771c-0.69802,-1.5197 0.7246,-3.65132 3.16998,-4.77119c2.48771,-1.09279 5.00312,-0.73673 5.70114,0.78295c0.69802,1.5197 -0.7246,3.65132 -3.16998,4.77119c-2.44542,1.11987 -5.03019,0.77906 -5.70114,-0.78295z" stroke="#001026" stroke-width="1.2" stroke-linecap="round" stroke-linejoin="round"/><path d="M346.54761,201.29975c-0.29769,0.46559 -0.8799,0.63004 -1.30318,0.35939c-0.42329,-0.27065 -0.51831,-0.86811 -0.2206,-1.33372c0.29769,-0.46559 0.8799,-0.63004 1.30318,-0.35939c0.42329,0.27065 0.51831,0.86811 0.2206,1.33372" stroke="none" stroke-width="1" stroke-linecap="butt" stroke-linejoin="miter"/></g><g><path d="M335.43486,195.92356c-2.46066,1.0505 -5.09957,0.79433 -5.78924,-1.0182c-0.71674,-1.7702 0.91058,-4.12872 3.41355,-5.15215c2.46066,-1.0505 4.70195,-0.45224 5.58453,1.24509c0.62862,1.53496 -0.74817,3.87478 -3.20883,4.92525z" fill="#ffffff" stroke="#001026" stroke-width="1.2" stroke-linecap="round" stroke-linejoin="round"/><path d="M336.75059,193.30619c-0.29769,0.46559 -0.85284,0.5877 -1.30318,0.35939c-0.42329,-0.27065 -0.51831,-0.86811 -0.2206,-1.33372c0.29769,-0.46559 0.8799,-0.63004 1.30318,-0.35939c0.42329,0.27065 0.51831,0.86811 0.2206,1.33372" fill="#001026" stroke="none" stroke-width="1" stroke-linecap="butt" stroke-linejoin="miter"/></g></g><path d="M338.0678,192.39365c0,0 0.15169,0.01601 0.29768,0.10702c0.10715,-0.14326 0.2092,-0.32174 0.31508,-0.57616c0.42274,-0.66514 0.84729,-1.32909 1.27185,-1.99309l0.16922,-0.46795c0,0 0.22798,-0.58517 0.81313,-0.3572c0.58516,0.22798 0.3572,0.81313 0.3572,0.81313l-0.28136,0.68861c-0.40595,0.63488 -0.81169,1.26988 -1.21963,1.9035c-0.63891,1.46267 -2.24319,2.95554 -3.37348,3.88203c-0.91297,0.74837 -2.18214,0.47707 -3.14869,1.30942c-0.35776,0.30808 -0.33052,0.90966 -0.64716,1.25987c-0.16225,0.17946 -0.48959,0.14487 -0.64739,0.3283c-0.83406,0.96957 -0.67723,1.31091 -2.00143,1.77182c0,0 -0.5947,0.2018 -0.79649,-0.39288c-0.2018,-0.5947 0.39288,-0.79649 0.39288,-0.79649c1.61055,-0.52888 1.74215,-2.06182 2.86038,-3.10513c0.76686,-0.71546 1.84083,-1.00431 2.79791,-1.13949c0.03806,-0.00539 0.07246,-0.01216 0.10363,-0.02022c-0.07122,-0.1141 -0.09452,-0.21998 -0.09452,-0.21998c-0.0493,-0.22417 -0.09859,-0.44829 -0.1479,-0.67242l0.1498,-0.57575c0,0 0.3383,-0.52909 0.86738,-0.19079c0.35369,0.22614 0.31974,0.53754 0.25841,0.71918c0.00149,0.0068 0.003,0.01359 0.00449,0.02035c0.13311,-0.02406 0.26698,-0.04699 0.37316,-0.12309c0.29424,-0.21101 0.37889,-0.60957 0.55513,-0.93338c-0.19215,-0.00933 -0.34301,-0.10581 -0.34301,-0.10581l0.30174,-1.21918c0.27065,0.02858 0.54129,0.05719 0.81194,0.08577z" fill="#a00000" fill-rule="nonzero" stroke="none" stroke-width="0.5" stroke-linecap="butt" stroke-linejoin="miter"/><path d="M342.97722,189.97884c0.58516,0.22798 0.3572,0.81313 0.3572,0.81313l-0.20152,0.50394c-0.0674,0.26451 -0.1348,0.52904 -0.20219,0.79356c-0.28115,0.65381 -0.34585,1.64026 -0.80557,2.19254c-0.39872,0.47901 -1.20867,0.84907 -1.69925,1.24639c-1.36013,1.1016 -2.86285,2.3978 -4.05321,3.6678c-1.05711,1.12783 -1.85785,3.15256 -2.70882,4.48346c0,0 -0.3383,0.52909 -0.86738,0.19079c-0.52909,-0.3383 -0.19079,-0.86738 -0.19079,-0.86738c0.90789,-1.4199 1.73012,-3.45291 2.85586,-4.67136c1.21679,-1.31698 2.78028,-2.65332 4.17754,-3.78231c0.04521,-0.03652 1.41897,-0.95583 1.49823,-1.04308c0.32806,-0.36111 0.41213,-1.36805 0.60333,-1.81839c0.05814,-0.23307 0.11629,-0.46615 0.17442,-0.69923l0.24905,-0.6526c0,0 0.22798,-0.58517 0.81313,-0.3572z" fill="#a00000" fill-rule="nonzero" stroke="none" stroke-width="0.5" stroke-linecap="butt" stroke-linejoin="miter"/><path d="M355.75029,190.25983c0.13491,0.61335 -0.47844,0.74827 -0.47844,0.74827l-0.49168,0.07748c-1.38223,1.67019 -2.81011,3.38468 -4.27401,4.99105c-1.15093,1.26298 -1.22459,3.19881 -3.33599,2.91804c0,0 -0.6169,-0.11762 -0.4993,-0.73451c0.1176,-0.61689 0.7345,-0.49929 0.7345,-0.49929c0.84104,0.27143 1.30743,-1.20319 1.71024,-1.826c1.36795,-2.11512 3.29053,-4.1179 5.03327,-5.93513l0.85318,-0.21834c0,0 0.61333,-0.1349 0.74827,0.47844z" fill="#a00000" fill-rule="nonzero" stroke="none" stroke-width="0.5" stroke-linecap="butt" stroke-linejoin="miter"/><path d="M356.72254,191.52995c0.52909,0.3383 0.19079,0.86738 0.19079,0.86738l-0.32507,0.49254c-1.54016,1.70705 -2.79413,3.57641 -4.46893,5.15806c-1.04461,0.98653 -2.48158,1.59698 -3.41723,2.65685c0,0 -0.42068,0.46628 -0.88696,0.04559c-0.46628,-0.42068 -0.04559,-0.88696 -0.04559,-0.88696c1.00275,-1.09292 2.4168,-1.71683 3.50222,-2.74242c1.64375,-1.55314 2.86991,-3.39437 4.38395,-5.07251l0.19945,-0.32778c0,0 0.3383,-0.52909 0.86738,-0.19079z" fill="#a00000" fill-rule="nonzero" stroke="none" stroke-width="0.5" stroke-linecap="butt" stroke-linejoin="miter"/><path d="M332.45042,193.35807c0.58107,0.2382 0.34289,0.81928 0.34289,0.81928l-0.03973,0.09693c-0.91419,1.75226 -1.01574,1.75032 -2.7314,1.02229c0,0 -0.57751,-0.2467 -0.33079,-0.82423c0.2467,-0.57751 0.82423,-0.33079 0.82423,-0.33079c0.31397,0.13515 0.69882,0.77413 0.89757,0.49601c0.16636,-0.23278 0.11883,-0.5598 0.17823,-0.83969l0.03973,-0.09693c0,0 0.2382,-0.58107 0.81928,-0.34289z" fill="#a00000" fill-rule="nonzero" stroke="none" stroke-width="0.5" stroke-linecap="butt" stroke-linejoin="miter"/><path d="M334.08121,191.95598c-0.3383,0.52909 -0.86738,0.19079 -0.86738,0.19079l-0.10255,-0.06559c-0.41017,-0.26227 -0.82035,-0.52453 -1.23051,-0.7868c0,0 -0.52909,-0.3383 -0.19079,-0.86738c0.3383,-0.52909 0.86738,-0.19079 0.86738,-0.19079c0.41017,0.26225 0.92289,0.5901 1.33304,0.85233c0,0 0.52909,0.3383 0.19079,0.86738z" fill="#a00000" fill-rule="nonzero" stroke="none" stroke-width="0.5" stroke-linecap="butt" stroke-linejoin="miter"/><path d="M336.44228,191.53685c-0.61335,0.1349 -0.74827,-0.47844 -0.74827,-0.47844l0.18139,-0.79128c0.1995,-0.16138 0.39899,-0.32277 0.59847,-0.48411c0,0 0.48827,-0.39495 0.88322,0.09332c0.39496,0.48825 -0.0933,0.88321 -0.0933,0.88321c-0.11237,0.09093 -0.22477,0.18182 -0.33715,0.27275c-0.02462,0.18714 -0.12864,0.42631 -0.48439,0.50459z" fill="#a00000" fill-rule="nonzero" stroke="none" stroke-width="0.5" stroke-linecap="butt" stroke-linejoin="miter"/><path d="M338.1345,161.15782c0.62626,-0.04679 0.67306,0.57944 0.67306,0.57944l-0.1602,0.18739c0.2779,0.25229 0.56987,0.47366 0.86297,0.69331c0.11625,-0.00548 0.20302,0.01641 0.20302,0.01641c0.22634,0.05839 0.46308,0.0857 0.67902,0.17517c0.08224,0.03408 0.15093,0.26474 0.1919,0.18574c0.1219,-0.23518 -0.13518,-0.71146 0.1191,-0.78572c0.46566,-0.13601 0.95865,0.17478 1.41564,0.33751c0.25669,0.09142 0.50555,0.80177 0.60609,0.54852c0.0806,-0.20306 -0.08442,-0.57447 0.12275,-0.64384c0.8761,-0.29344 2.29634,0.23246 1.87939,1.5487c-0.1216,0.38383 -0.73597,0.32675 -1.10399,0.49014l-0.57577,-0.14981c0,0 -0.10272,-0.06569 -0.1887,-0.18442c-0.18462,0.00685 -0.40381,-0.01663 -0.65659,-0.08058c-0.26,-0.06578 -0.48956,-0.23949 -0.68306,-0.42516c-0.09727,-0.09339 -0.1146,-0.50515 -0.15107,-0.37532c-0.05747,0.20473 0.25473,0.51375 0.07869,0.63309c-0.24386,0.16531 -0.53048,0.21051 -0.82486,0.19607c-0.02694,0.05172 -0.06355,0.1046 -0.11178,0.15805c-0.42068,0.46628 -0.88696,0.04559 -0.88696,0.04559c-0.58361,-0.52986 -1.22926,-0.92329 -1.81716,-1.45084l-0.25093,-1.02635c0,0 -0.04679,-0.62626 0.57944,-0.67306z" fill="#a00000" fill-rule="nonzero" stroke="none" stroke-width="0.5" stroke-linecap="butt" stroke-linejoin="miter"/><path d="M341.06735,158.47952c0.61335,-0.1349 0.74827,0.47844 0.74827,0.47844l0.12536,0.65711c-0.00673,0.23646 -0.01347,0.47292 -0.0202,0.70941c0,0 -0.01788,0.62776 -0.64562,0.60987c-0.62776,-0.01788 -0.60987,-0.64562 -0.60987,-0.64562c0.00674,-0.23648 0.01348,-0.47295 0.0202,-0.70941l-0.09652,-0.35153c0,0 -0.1349,-0.61335 0.47844,-0.74827z" fill="#a00000" fill-rule="nonzero" stroke="none" stroke-width="0.5" stroke-linecap="butt" stroke-linejoin="miter"/><path d="M343.93999,157.54261l-0.29085,0.68083c0,0 -0.2467,0.57751 -0.82423,0.33079c-0.57751,-0.2467 -0.33079,-0.82423 -0.33079,-0.82423l0.29085,-0.68083c0,0 0.2467,-0.57751 0.82423,-0.33079c0.57751,0.2467 0.33079,0.82423 0.33079,0.82423z" fill="#a00000" fill-rule="nonzero" stroke="none" stroke-width="0.5" stroke-linecap="butt" stroke-linejoin="miter"/><path d="M337.47126,155.07373c0.53919,-0.32195 0.86116,0.21725 0.86116,0.21725l0.22806,0.5735c-0.00674,0.23648 -0.01348,0.47295 -0.0202,0.70941c0,0 -0.00543,0.19051 -0.11525,0.35864c0.12428,0.19918 0.13129,0.46022 -0.00358,0.6712c-0.18686,0.29222 -0.57518,0.37764 -0.86738,0.19079c-0.29222,-0.18686 -0.37764,-0.57518 -0.19079,-0.86738c0.00527,-0.00824 0.01071,-0.01632 0.01629,-0.02422c-0.10016,-0.17416 -0.09474,-0.36478 -0.09474,-0.36478c0.00674,-0.23648 0.01348,-0.47295 0.0202,-0.70941l-0.05098,0.10615c0,0 -0.32193,-0.5392 0.21725,-0.86116z" fill="#a00000" fill-rule="nonzero" stroke="none" stroke-width="0.5" stroke-linecap="butt" stroke-linejoin="miter"/><path d="M342.78538,163.76751c0.1349,0.61335 -0.47844,0.74827 -0.47844,0.74827l-0.42063,0.0405c-0.00987,-0.00188 -0.01973,-0.00376 -0.02961,-0.00566c-0.0271,0.17841 -0.13984,0.5288 -0.60737,0.53775c-0.62788,0.012 -0.6399,-0.61589 -0.6399,-0.61589l0.00615,-0.31585c-0.09689,-0.45373 -0.23787,-0.80895 -0.17096,-1.08483c-0.06195,-0.07661 -0.10415,-0.16596 -0.12486,-0.26002l-0.14789,-0.67244v0c-0.03453,-0.15698 -0.00918,-0.32709 0.08424,-0.47323c0.13248,-0.20719 0.36626,-0.31041 0.59526,-0.28634l0.07018,-0.42404c0.01227,-0.08623 0.04276,-0.17128 0.09274,-0.24947c0.18686,-0.29222 0.57518,-0.37764 0.86738,-0.19079c0.08888,0.05682 0.15859,0.13229 0.20735,0.21801l0.41209,0.69017l-0.00636,0.0038l0.01831,0.01713c0.22987,0.46833 0.4109,0.96517 0.5261,1.47398c0,0 0.10757,0.48904 -0.30608,0.68979c0.02128,0.04644 0.03902,0.09922 0.0522,0.15912zM341.82629,163.23588c-0.00056,0.00999 -0.0011,0.01998 -0.00165,0.02997c0.0044,0.00084 0.00881,0.00168 0.01322,0.00252c-0.00453,-0.01188 -0.00837,-0.0228 -0.01157,-0.0325z" fill="#ffffff" fill-rule="nonzero" stroke="none" stroke-width="0.5" stroke-linecap="butt" stroke-linejoin="miter"/><path d="M340.83635,189.06585c-0.5881,0.22029 -0.80839,-0.36779 -0.80839,-0.36779l0.21124,-0.46498c-0.16218,0.10412 -0.3174,0.19369 -0.4345,0.25387c0,0 -0.56229,0.27964 -0.84195,-0.28266c-0.27963,-0.56229 0.28266,-0.84195 0.28266,-0.84195c1.19205,-0.56542 2.07369,-2.39825 2.71708,-0.0715c0.06139,0.22195 -0.00953,0.45996 -0.01953,0.69058l0.13533,0.61528l-0.24665,0.05424l-0.11124,0.65435c-0.19196,-0.11495 -0.38447,-0.23075 -0.57962,-0.34161l-0.18648,0.13351l-0.04482,-0.06262c-0.0229,0.01107 -0.04727,0.02148 -0.0732,0.03121z" fill="#8da900" fill-rule="nonzero" stroke="none" stroke-width="0.5" stroke-linecap="butt" stroke-linejoin="miter"/><path d="M348.2769,192.45858c0,0 -0.60792,0.13371 -0.74644,-0.47033c-0.18995,0.09201 -0.42182,0.08616 -0.61267,-0.03589c-0.14609,-0.09342 -0.24051,-0.2372 -0.27504,-0.39419v0l-0.07469,-0.33959c-0.11638,-0.09284 -0.24349,-0.16717 -0.38501,-0.21239l-0.5855,-0.00424c0,0 -0.52795,-0.01504 -0.60174,-0.50169c-0.17103,-0.01798 -0.45217,-0.1013 -0.53597,-0.44684c-0.46587,0.00922 -1.08924,-0.0134 -1.27794,-0.01817l-0.42297,-0.16423c0,0 -0.14324,-0.0916 -0.233,-0.254c-0.04674,0.04366 -0.09488,0.0848 -0.14566,0.12115c0,0 -0.51061,0.3656 -0.87619,-0.145c-0.36562,-0.5106 0.145,-0.87619 0.145,-0.87619c0.08039,-0.05755 0.28106,-0.20369 0.50216,-0.35989c-0.02075,-0.14387 0.0081,-0.29558 0.09253,-0.42764c0.07054,-0.11032 0.16977,-0.19115 0.28172,-0.239c0.11999,-0.20978 0.34366,-0.26932 0.47044,-0.28608c-0.00139,-0.00353 -0.00276,-0.00707 -0.00409,-0.01067c-0.18595,-0.20475 -0.21996,-0.51612 -0.06382,-0.76034c0.18686,-0.29222 0.57518,-0.37764 0.86738,-0.19079c0.12645,0.08085 0.21419,0.19943 0.25788,0.33166c0.09267,0.092 0.18061,0.1904 0.26277,0.29405c0.02165,0.0113 0.04365,0.02402 0.066,0.03832c0.24801,0.15857 0.30542,0.35907 0.29646,0.52736c0.09812,0.19424 0.17597,0.39754 0.22903,0.60485l0.06537,0.04664c0,0 0.11542,0.19329 0.09229,0.41752c0.10131,0.15262 0.16571,0.32227 0.17822,0.50667c0.63452,-0.21227 0.99714,-1.10423 1.72866,-0.9645c1.01977,0.1948 1.05275,1.57467 1.03627,2.38852c0.22745,-0.0399 0.45393,-0.08339 0.67336,-0.15382c0.34511,-0.1108 0.68549,-0.54859 1.0134,-0.39421c0.39687,0.18684 0.60271,1.43523 0.69603,1.87222l-0.02222,0.07613l0.02474,0.0007l-0.0199,0.69911c-0.00127,0.11352 -0.0333,0.22808 -0.09895,0.33075c-0.18686,0.29222 -0.57518,0.37764 -0.86738,0.19079c-0.02852,-0.01824 -0.05507,-0.0384 -0.07961,-0.06022l-0.64404,-0.55445l0.0097,-0.01126c-0.18747,-0.10472 -0.37239,-0.21375 -0.55354,-0.32898l0.13698,0.15819zM346.72121,189.88977c0.01213,0.0044 0.02426,0.00876 0.03645,0.01307c0.00016,-0.0212 0.0003,-0.04203 0.00046,-0.06243c-0.01137,0.01641 -0.02373,0.03287 -0.03694,0.04932z" fill="#8da900" fill-rule="nonzero" stroke="none" stroke-width="0.5" stroke-linecap="butt" stroke-linejoin="miter"/><path d="M347.61879,188.15326c-1.35352,-0.03194 -1.58679,-0.20022 -1.99031,-0.98491c-0.42336,0.02948 -0.86167,-0.48998 -1.15943,-1.0223l-0.30377,0.13562c-0.5402,-0.25704 -1.02392,-0.70011 -1.31242,-1.22415c0,0 -0.27963,-0.56229 0.28267,-0.84197c0.56231,-0.27964 0.84197,0.28267 0.84197,0.28267c0.01083,0.02684 0.02302,0.05327 0.03648,0.07925c0.19887,-0.13476 0.46606,-0.14835 0.68262,-0.01452c0.2407,-0.02598 0.39772,0.07123 0.49759,0.18609l0.54459,0.20141c0.11565,0.14962 0.30671,0.28409 0.46948,0.42424c0.57349,-0.20025 0.78891,0.37486 0.78891,0.37486l-0.03632,0.26107c0.42357,0.27272 0.83854,0.58352 1.2067,0.93741l0.17173,-0.19035l0.54202,0.48901c0.23083,0.20094 0.28588,0.54592 0.11606,0.81151c-0.15217,0.23802 -0.43806,0.33882 -0.69675,0.26707l-0.68186,-0.17202z" fill="#8da900" fill-rule="nonzero" stroke="none" stroke-width="0.5" stroke-linecap="butt" stroke-linejoin="miter"/><path d="M340.95057,185.91454c0.5947,-0.2018 0.79649,0.39288 0.79649,0.39288l0.14626,1.33195c-0.45614,0.04887 -0.9123,0.09773 -1.36844,0.1466c0,0 -0.62455,-0.06598 -0.55855,-0.69048c0.04672,-0.44218 0.37345,-0.53821 0.56025,-0.55661c-0.01329,-0.19178 0.0347,-0.49222 0.42398,-0.62435z" fill="#a00000" fill-rule="nonzero" stroke="none" stroke-width="0.5" stroke-linecap="butt" stroke-linejoin="miter"/><path d="M342.41528,186.30552c0.3383,-0.52909 0.86738,-0.19079 0.86738,-0.19079l0.20508,0.13114c0.25708,0.16926 0.46748,0.39939 0.6431,0.66031l0.14445,-0.10342l0.37307,0.52102c0.15298,0.20351 0.17223,0.48871 0.027,0.71579c-0.14521,0.22713 -0.41214,0.3293 -0.66106,0.27584l-0.62948,-0.12002l0.00841,-0.04409l-0.12294,0.01072c-0.24045,-0.14927 -0.48095,-0.29854 -0.7214,-0.44782c0,0 -0.51688,-0.3305 -0.20224,-0.84904c-0.06229,-0.1446 -0.07508,-0.33493 0.06862,-0.55965z" fill="#a00000" fill-rule="nonzero" stroke="none" stroke-width="0.5" stroke-linecap="butt" stroke-linejoin="miter"/><path d="M345.73164,186.60116c0.48827,-0.39495 0.88322,0.09332 0.88322,0.09332l0.22443,0.27841c0.10769,0.13201 0.25853,0.24671 0.39331,0.36784c0.28369,-0.10807 0.56534,0.072 0.56534,0.072l0.82033,0.52452c0.08939,0.05715 0.15945,0.13317 0.20823,0.21953c0.01754,0.00751 0.03511,0.0151 0.05266,0.02279l0.24402,0.095c0,0 0.58516,0.22798 0.3572,0.81314c-0.05397,0.13849 -0.12792,0.23146 -0.20941,0.29264c-0.2031,0.17097 -0.44859,0.13047 -0.57997,0.08957c0.00268,0.12033 -0.02913,0.24273 -0.09883,0.35176c-0.14521,0.22713 -0.41214,0.3293 -0.66106,0.27584l-0.62948,-0.12002l0.00445,-0.02344l-0.07009,0.00719c-0.57634,-0.24502 -1.12791,-0.55072 -1.65623,-0.88697c0,0 -0.52909,-0.3383 -0.19079,-0.86738c0.02165,-0.03386 0.04407,-0.06414 0.06707,-0.09121c-0.01085,-0.07838 -0.00546,-0.1676 0.02416,-0.26855c-0.01021,-0.13137 0.02064,-0.26702 0.09708,-0.38662c0.00713,-0.01118 0.01458,-0.02205 0.02231,-0.03262c-0.08603,-0.13965 -0.25621,-0.51269 0.13203,-0.82675z" fill="#a00000" fill-rule="nonzero" stroke="none" stroke-width="0.5" stroke-linecap="butt" stroke-linejoin="miter"/><path d="M349.97651,190.10582c0.29222,0.18686 0.37764,0.57518 0.19079,0.86738c-0.18686,0.29222 -0.57518,0.37764 -0.86738,0.19079c-0.29222,-0.18686 -0.37764,-0.57518 -0.19079,-0.86738c0.18686,-0.29222 0.57518,-0.37764 0.86738,-0.19079z" fill="#a00000" fill-rule="nonzero" stroke="none" stroke-width="0.5" stroke-linecap="butt" stroke-linejoin="miter"/><path d="M344.73743,187.64626c0.16892,-0.26419 0.38542,-0.31212 0.55985,-0.29387c0.01043,-0.00847 0.02109,-0.01661 0.03196,-0.02436c-0.08536,-0.0484 -0.16867,-0.10589 -0.24893,-0.17528c-0.17304,-0.1496 -0.29827,-0.35147 -0.43365,-0.5406c-0.57833,-0.3644 -1.14443,-0.74426 -1.70094,-1.10006l-0.7178,-0.45896c-0.29222,-0.18686 -0.37764,-0.57518 -0.19079,-0.86738c0.1698,-0.26556 0.50604,-0.36034 0.7853,-0.23514l0.51903,0.22172c0.23396,-0.27951 0.62908,-0.17983 0.62908,-0.17983c2.28205,0.57572 3.5507,1.64991 5.25462,3.18724l0.54202,0.48901c0.23083,0.20094 0.28588,0.54592 0.11606,0.81151c-0.05076,0.07938 -0.11637,0.14349 -0.19089,0.19103c0.13304,0.1369 0.30423,0.40851 0.07414,0.76842c-0.21292,0.33298 -0.50134,0.32241 -0.68597,0.26883c-0.0069,0.00322 -0.01394,0.00637 -0.02116,0.00944c-0.05648,0.17862 -0.21828,0.48022 -0.66193,0.43334c-0.62453,-0.06599 -0.55856,-0.6905 -0.55856,-0.6905c0.04072,-0.1322 0.05416,-0.28464 0.07049,-0.43493c-0.13734,0.04414 -0.30961,0.03987 -0.50903,-0.08762c-0.48125,-0.30772 -0.24488,-0.7733 -0.19818,-0.85497c-0.07184,-0.09059 -0.15294,-0.16172 -0.24122,-0.21904c-0.05325,-0.02237 -0.10638,-0.04521 -0.15939,-0.06854c-0.07637,0.05501 -0.16362,0.09164 -0.25465,0.10825c-0.16697,0.19096 -0.31969,0.39484 -0.45448,0.60879l-1.16431,0.00094c0,0 -0.52909,-0.3383 -0.19079,-0.86738zM347.37309,188.38112c-0.03554,-0.08665 -0.07597,-0.16247 -0.12071,-0.22909z" fill="#000000" fill-rule="nonzero" stroke="none" stroke-width="0.5" stroke-linecap="butt" stroke-linejoin="miter"/><path d="M347.29237,188.6106l-0.66978,-0.26092" fill="none" fill-rule="nonzero" stroke="#001026" stroke-width="1.2" stroke-linecap="round" stroke-linejoin="miter"/><path d="M348.29702,189.00199l-2.24199,-0.68059" fill="none" fill-rule="nonzero" stroke="#a00000" stroke-width="1.2" stroke-linecap="round" stroke-linejoin="miter"/><path d="M347.21355,187.55627l-1.77575,1.2071" fill="none" fill-rule="nonzero" stroke="#000000" stroke-width="1.2" stroke-linecap="round" stroke-linejoin="miter"/><path d="M348.04006,187.83376l-0.00596,2.75702" fill="none" fill-rule="nonzero" stroke="#000000" stroke-width="1.2" stroke-linecap="round" stroke-linejoin="miter"/><path d="M342.1202,179.27856c-0.39465,0.48848 -0.88317,0.09382 -0.88317,0.09382l-0.54575,-0.4454c0.0007,-0.02894 0.00141,-0.05787 0.0021,-0.08679l-0.04643,0.03756l-0.41144,-0.50862c-0.13108,-0.1545 -0.17942,-0.36426 -0.12986,-0.56019c-0.39557,-0.69553 -0.42648,-1.96135 0.73901,-2.20151c1.17235,-0.24155 2.63812,1.61122 1.89831,2.70128c-0.13356,0.1968 -0.3088,0.32005 -0.50547,0.38402c0.05888,0.15579 0.06442,0.36084 -0.11732,0.58579z" fill="#a00000" fill-rule="nonzero" stroke="none" stroke-width="0.5" stroke-linecap="butt" stroke-linejoin="miter"/><path d="M341.43756,177.09406c0.29222,0.18686 0.37764,0.57518 0.19079,0.86738c-0.18686,0.29222 -0.57518,0.37764 -0.86738,0.19079c-0.29222,-0.18686 -0.37764,-0.57518 -0.19079,-0.86738c0.18686,-0.29222 0.57518,-0.37764 0.86738,-0.19079z" fill="#ffffff" fill-rule="nonzero" stroke="none" stroke-width="0.5" stroke-linecap="butt" stroke-linejoin="miter"/><path d="M346.47754,187.92228l1.92853,0.64746l-0.19183,1.21594" fill="none" fill-rule="nonzero" stroke="#000000" stroke-width="1.2" stroke-linecap="round" stroke-linejoin="miter"/><path d="M345.12829,174.34308c0.18686,-0.29222 0.57518,-0.37764 0.86738,-0.19079c0.03331,0.02129 0.06391,0.04522 0.09173,0.07129c-0.03267,-0.15536 -0.0068,-0.32315 0.08547,-0.46751c0.18686,-0.29222 0.57518,-0.37764 0.86738,-0.19079c0.09756,0.06237 0.17209,0.1472 0.22109,0.24346c0.20465,-0.17084 0.5042,-0.19801 0.74073,-0.04676c0.04591,0.02935 0.08671,0.06369 0.12215,0.10181c0.20275,-0.21708 0.53763,-0.26557 0.79685,-0.09983c0.29222,0.18686 0.37764,0.57518 0.19079,0.86738c-0.01453,0.02271 -0.03026,0.04417 -0.0471,0.06435c0.25281,0.19702 0.31856,0.55779 0.14245,0.83323c-0.18686,0.29222 -0.57518,0.37764 -0.86738,0.19079c-0.02271,-0.01453 -0.04417,-0.03027 -0.06438,-0.04708c-0.19702,0.25281 -0.55779,0.31856 -0.83323,0.14245c-0.05078,-0.03245 -0.09529,-0.07103 -0.13326,-0.1141c-0.20476,0.17616 -0.5085,0.20572 -0.74778,0.05272c-0.07097,-0.04538 -0.12973,-0.10261 -0.17536,-0.1675c-0.20467,0.18975 -0.51897,0.22553 -0.76508,0.06815c-0.05784,-0.03699 -0.10756,-0.08187 -0.14871,-0.13233c-0.20175,0.13868 -0.4751,0.15175 -0.69437,0.01158c-0.29222,-0.18686 -0.37764,-0.57518 -0.19079,-0.86738c0.11823,-0.18488 0.31712,-0.28699 0.52131,-0.28972c0.00628,-0.01129 0.01294,-0.02242 0.01999,-0.03346zM346.36371,174.62343c-0.03331,-0.02129 -0.06391,-0.04522 -0.09173,-0.07129c0.00223,0.01061 0.00419,0.02127 0.00585,0.03195c0.00659,0.0039 0.01314,0.00792 0.01961,0.01206c0.07097,0.04538 0.12973,0.10261 0.17536,0.1675c0.0239,-0.02218 0.04932,-0.04223 0.07594,-0.06015c-0.06397,-0.0161 -0.12645,-0.04261 -0.18508,-0.08009zM347.14629,174.64699c-0.01554,-0.02258 -0.02946,-0.0461 -0.04182,-0.07029c-0.01661,0.01387 -0.03385,0.0268 -0.05164,0.03876c0.0316,0.00798 0.06282,0.01844 0.09343,0.03156zM348.19623,174.78794c-0.02672,-0.02083 -0.05135,-0.04346 -0.07382,-0.06765c-0.00775,0.00828 -0.01569,0.01634 -0.02379,0.02414c0.00682,0.00403 0.01359,0.00816 0.02032,0.01245c0.02271,0.01453 0.04417,0.03026 0.06435,0.0471c0.00423,-0.00544 0.00855,-0.01079 0.01292,-0.01603z" fill="#e93e3e" fill-rule="nonzero" stroke="none" stroke-width="0.5" stroke-linecap="butt" stroke-linejoin="miter"/><path d="M337.62943,169.71558c0.18686,-0.29222 0.57518,-0.37764 0.86738,-0.19079c0.07733,0.04944 0.14018,0.11298 0.18734,0.18515c0.13091,-0.00988 0.266,0.02102 0.3851,0.09721c0.12205,0.07802 0.20799,0.1912 0.25313,0.31784c0.16356,-0.04281 0.34381,-0.01983 0.49744,0.0784c0.14409,0.09212 0.23786,0.23321 0.27354,0.38761c0.19368,-0.10301 0.43576,-0.10139 0.63375,0.0252c0.15564,0.09953 0.25264,0.25622 0.28102,0.42513c0.18516,-0.08014 0.40553,-0.06979 0.58831,0.04708c0.23103,0.14771 0.33279,0.42137 0.27296,0.6739c0.13752,-0.01514 0.28092,0.01489 0.40654,0.09521c0.15545,0.0994 0.25238,0.25582 0.28092,0.42445c0.20399,-0.1585 0.49367,-0.18017 0.72373,-0.03305c0.12205,0.07802 0.20799,0.1912 0.25313,0.31784c0.16356,-0.04279 0.34381,-0.01983 0.49744,0.0784c0.06252,0.03996 0.11555,0.08916 0.15848,0.14464c0.06838,0.0157 0.1353,0.04318 0.19781,0.08316c0.04819,0.03081 0.09074,0.06709 0.12738,0.10752c0.11205,0.00204 0.22492,0.03408 0.32626,0.0989c0.17103,0.10937 0.27124,0.28776 0.28744,0.47553c0.11951,-0.00219 0.24093,0.02966 0.34922,0.09889c0.29222,0.18686 0.37764,0.57518 0.19079,0.86738c-0.18686,0.29222 -0.57518,0.37764 -0.86738,0.19079c-0.17103,-0.10937 -0.27124,-0.28776 -0.28744,-0.47553c-0.11951,0.00219 -0.24093,-0.02966 -0.34922,-0.09889c-0.04819,-0.03081 -0.09074,-0.06709 -0.12738,-0.10752c-0.11205,-0.00205 -0.22492,-0.03408 -0.32626,-0.0989c-0.06252,-0.03996 -0.11557,-0.08915 -0.15849,-0.14464c-0.06838,-0.0157 -0.13529,-0.0432 -0.19781,-0.08319c-0.12205,-0.07802 -0.20799,-0.1912 -0.25313,-0.31784c-0.16356,0.04278 -0.34378,0.01982 -0.49742,-0.0784c-0.15545,-0.0994 -0.25238,-0.25582 -0.28092,-0.42445c-0.204,0.15849 -0.49367,0.18017 -0.72373,0.03305c-0.23101,-0.14772 -0.33279,-0.42137 -0.27296,-0.6739c-0.13752,0.01514 -0.28092,-0.01489 -0.40654,-0.09521c-0.15564,-0.09953 -0.25264,-0.25622 -0.28102,-0.42513c-0.18516,0.08014 -0.40553,0.06979 -0.58831,-0.04708c-0.14409,-0.09212 -0.23785,-0.23322 -0.27354,-0.38761c-0.19366,0.103 -0.43576,0.10139 -0.63375,-0.0252c-0.12205,-0.07802 -0.20799,-0.1912 -0.25313,-0.31784c-0.16356,0.04278 -0.34381,0.01983 -0.49744,-0.0784c-0.07733,-0.04944 -0.14018,-0.11298 -0.18734,-0.18515c-0.13091,0.00988 -0.266,-0.02102 -0.3851,-0.09721c-0.29222,-0.18686 -0.37764,-0.57518 -0.19079,-0.86738z" fill="#e93e3e" fill-rule="nonzero" stroke="none" stroke-width="0.5" stroke-linecap="butt" stroke-linejoin="miter"/><path d="M349.05737,175.77524c0.29222,0.18686 0.37764,0.57518 0.19079,0.86738c-0.17609,0.27544 -0.53118,0.36713 -0.81609,0.22033c-0.01128,0.02374 -0.02413,0.04704 -0.03865,0.06975c-0.18686,0.29222 -0.57518,0.37764 -0.86738,0.19079c-0.11309,-0.07233 -0.19522,-0.17484 -0.24256,-0.29027c-0.00775,0.01452 -0.01613,0.02886 -0.02517,0.04298c-0.18686,0.29222 -0.57518,0.37764 -0.86738,0.19079c-0.1051,-0.0672 -0.18345,-0.16048 -0.232,-0.26595c-0.20152,0.1371 -0.47353,0.14949 -0.69186,0.00988c-0.07735,-0.04945 -0.14018,-0.11301 -0.18734,-0.18521c-0.20347,0.15247 -0.48826,0.17153 -0.7151,0.02648c-0.29222,-0.18686 -0.37764,-0.57518 -0.19079,-0.86738c0.18686,-0.29222 0.57518,-0.37764 0.86738,-0.19079c0.07735,0.04945 0.14018,0.11301 0.18734,0.18521c0.20347,-0.15247 0.48826,-0.17153 0.7151,-0.02648c0.10509,0.0672 0.18344,0.16047 0.232,0.26595c0.20152,-0.1371 0.47354,-0.14947 0.69186,-0.00988c0.11309,0.07233 0.19522,0.17484 0.24256,0.29027c0.00775,-0.01452 0.01613,-0.02886 0.02517,-0.04298c0.17609,-0.27544 0.53119,-0.36711 0.8161,-0.22032c0.01128,-0.02375 0.02414,-0.04704 0.03867,-0.06975c0.18686,-0.29222 0.57518,-0.37764 0.86738,-0.19079z" fill="#e93e3e" fill-rule="nonzero" stroke="none" stroke-width="0.5" stroke-linecap="butt" stroke-linejoin="miter"/><path d="M335.79146,168.3913c0.05844,0.03734 0.07552,0.11502 0.03817,0.17348c-0.03734,0.05844 -0.11502,0.07552 -0.17348,0.03817c-0.05844,-0.03734 -0.07552,-0.11502 -0.03817,-0.17348c0.03734,-0.05844 0.11502,-0.07552 0.17348,-0.03817z" fill="#a00000" fill-rule="nonzero" stroke="none" stroke-width="0.5" stroke-linecap="butt" stroke-linejoin="miter"/><path d="M335.09285,170.85548c0.00241,0.12557 -0.12317,0.12797 -0.12317,0.12797l-0.00588,0.00012c-0.16743,0.0032 -0.33487,0.0064 -0.50229,0.00961c0,0 -0.12557,0.00241 -0.12797,-0.12317c-0.00241,-0.12557 0.12317,-0.12797 0.12317,-0.12797c0.16744,-0.00319 0.34073,-0.00651 0.50819,-0.00972c0,0 0.12557,-0.00241 0.12797,0.12317z" fill="#a00000" fill-rule="nonzero" stroke="none" stroke-width="0.5" stroke-linecap="butt" stroke-linejoin="miter"/><path d="M334.13877,169.49148c0.06405,-0.10017 0.16757,-0.15984 0.27722,-0.17168c-0.06217,-0.09072 -0.10471,-0.22899 0.00512,-0.40072c0.203,-0.31747 0.52044,-0.11448 0.52044,-0.11448l0.06383,0.04689c0.0396,0.01726 0.07877,0.03327 0.11762,0.04828c0.03389,-0.0285 0.07216,-0.05042 0.11284,-0.06529c-0.02982,-0.02402 -0.06294,-0.0689 -0.03501,-0.14061c0.0091,-0.02335 0.02102,-0.04023 0.03434,-0.05228c0.00355,-0.00935 0.00839,-0.01909 0.01486,-0.02914c0.06767,-0.10583 0.17348,-0.03817 0.17348,-0.03817l0.05939,0.03797c0.05148,0.03566 0.09911,0.07965 0.14034,0.12927c0.07293,0.03606 0.1492,0.0746 0.22593,0.11165c0.00372,-0.00576 0.00745,-0.01169 0.01123,-0.01779l0.1762,-0.07642c0,0 0.01941,-0.00426 0.04449,-0.00171c0.00306,-0.00828 0.00707,-0.01635 0.01202,-0.0241c0.03734,-0.05844 0.11502,-0.07552 0.17348,-0.03817c0.02861,0.01831 0.04731,0.04627 0.05456,0.0769c0.00323,-0.00364 0.00664,-0.00708 0.01023,-0.01027c0.005,-0.02226 0.01634,-0.04638 0.04035,-0.06456c0.00321,-0.0097 0.00767,-0.01915 0.01344,-0.02816c0.03734,-0.05844 0.11502,-0.07552 0.17348,-0.03817c0.04468,0.02857 0.06518,0.08066 0.05568,0.12972c0.00187,0.00263 0.00366,0.0053 0.00532,0.00803c0.02417,0.03969 0.02529,0.09129 -0.00142,0.13309c-0.00178,0.00279 -0.00364,0.00548 -0.0056,0.00806c0.01664,0.05505 0.03511,0.109 0.05371,0.16289c0.06632,0.00701 0.13267,0.01402 0.19902,0.02103c0,0 0.12491,0.01319 0.1117,0.1381c-0.00875,0.08265 -0.06639,0.10482 -0.1044,0.11039c-0.00299,0.02315 -0.00675,0.04579 -0.01122,0.06793c0.05232,0.03344 0.10468,0.06692 0.15696,0.10036l0.04623,-0.07231c0,0 0.02761,-0.04318 0.07515,-0.05675c-0.02686,-0.02505 -0.07011,-0.08201 -0.02063,-0.15939c0.06767,-0.10583 0.17348,-0.03817 0.17348,-0.03817l0.05939,0.03797c0.05939,0.03797 0.11874,0.07592 0.17816,0.11391c0,0 0.10583,0.06767 0.03817,0.17348c-0.06767,0.10583 -0.17348,0.03817 -0.17348,0.03817c-0.02509,-0.01606 -0.06082,-0.03887 -0.09817,-0.06276c0.00602,0.0475 -0.02043,0.08884 -0.02043,0.08884l-0.03398,0.05313l0.03651,0.04912c-0.00004,0.00038 -0.00008,0.0008 -0.00013,0.00117c0.04748,0.03036 0.09493,0.06072 0.14245,0.09108c0,0 0.10583,0.06767 0.03817,0.17348c-0.06767,0.10583 -0.17348,0.03817 -0.17348,0.03817c-0.0262,-0.01676 -0.05303,-0.0339 -0.08035,-0.05137c-0.01967,0.01239 -0.04604,0.01966 -0.08131,0.01595c-0.05481,-0.00578 -0.08304,-0.03309 -0.09744,-0.06191c-0.02683,0.08695 -0.06855,0.14622 -0.11622,0.18616c0.04059,0.10751 0.03171,0.23216 -0.03497,0.3364c-0.11211,0.17534 -0.34512,0.22659 -0.52044,0.11448c-0.08796,-0.05626 -0.1447,-0.14293 -0.16524,-0.23752c-0.00438,-0.00214 -0.0087,-0.00454 -0.01293,-0.00724c-0.05844,-0.03734 -0.07552,-0.11502 -0.03817,-0.17348c0.01016,-0.01589 0.0233,-0.02871 0.03823,-0.03824c-0.13217,0.0071 -0.24244,-0.06342 -0.24244,-0.06342c-0.13788,-0.09254 -0.27949,-0.15399 -0.42429,-0.20315c0.00905,0.01185 0.0205,0.0212 0.03487,0.0271c0,0 0.072,0.04604 0.05924,0.12155c0.02699,0.01724 0.05395,0.03449 0.08094,0.05175l0.00271,-0.03826c0,0 0.12269,-0.02698 0.14965,0.09569c0.02698,0.12269 -0.09569,0.14965 -0.09569,0.14965l-0.192,0.00457c-0.09898,-0.06329 -0.19794,-0.12658 -0.29692,-0.18983c0,0 -0.10583,-0.06767 -0.03817,-0.17348c0.0143,-0.02237 0.03032,-0.03699 0.04665,-0.04612c-0.00804,-0.02728 -0.01449,-0.05515 -0.01959,-0.08305c-0.13919,-0.03856 -0.28091,-0.07637 -0.42463,-0.1289c0.03014,0.10128 0.01774,0.21461 -0.04365,0.31061c-0.11211,0.17534 -0.34512,0.22659 -0.52044,0.11448c-0.17534,-0.11211 -0.22659,-0.34512 -0.11448,-0.52044zM336.34735,168.96122c-0.02861,-0.01831 -0.04731,-0.04627 -0.05456,-0.0769c-0.01248,0.01408 -0.0277,0.02483 -0.04427,0.03195c0.00019,0.00642 -0.00014,0.01287 -0.00095,0.01928l-0.00821,0.0777c0.05465,0.01587 0.10654,0.02671 0.15432,0.0306c-0.00783,-0.02347 -0.01552,-0.04709 -0.0229,-0.07086c-0.00806,-0.00305 -0.0159,-0.00694 -0.02347,-0.01178z" fill="#a00000" fill-rule="nonzero" stroke="none" stroke-width="0.5" stroke-linecap="butt" stroke-linejoin="miter"/><path d="M333.16038,169.45156l0.01245,-0.01245c0.0688,-0.15121 0.13758,-0.30245 0.2064,-0.45367c0,0 0.01398,-0.03073 0.04277,-0.06962c0.00616,-0.01246 0.01305,-0.02472 0.02073,-0.03673c0.11211,-0.17534 0.34512,-0.22659 0.52044,-0.11448c0.17534,0.11211 0.22659,0.34512 0.11448,0.52044c-0.00607,0.00948 -0.01249,0.01864 -0.01925,0.0274c-0.06654,0.14624 -0.13305,0.29246 -0.19961,0.43872l-0.06348,0.10632c0,0 -0.203,0.31747 -0.52044,0.11448c-0.31747,-0.203 -0.11448,-0.52044 -0.11448,-0.52044z" fill="#a00000" fill-rule="nonzero" stroke="none" stroke-width="0.5" stroke-linecap="butt" stroke-linejoin="miter"/><path d="M328.85338,164.16337c0.66754,0.64231 0.77698,2.64036 1.74701,3.03585c0.10712,-0.04037 0.26994,-0.05594 0.41252,0.1203c0.15709,0.19419 0.08131,0.36378 0.01238,0.45607c-0.05206,0.12663 -0.14342,0.18142 -0.22909,0.20318l-0.03016,0.02427c-1.53201,1.09594 -2.94225,2.35261 -4.55705,3.30978c-0.41442,0.24566 -1.35657,1.3958 -1.90188,0.56394c-0.21652,-0.33028 0.86823,-1.71272 1.04078,-1.98258c0.59478,-0.93022 1.18164,-1.86604 1.78458,-2.791c0.0953,-0.14622 0.41731,-0.69696 0.32279,-0.89773c-0.04607,-0.09783 -0.88557,-0.18916 -1.00751,-0.2124c-1.11484,-0.21255 -1.95481,-1.00636 -3.07337,-1.21216c-0.76309,-0.15048 -2.57482,-1.31621 -0.94058,-1.85913c0.39104,-0.12991 1.30377,0.18171 1.76305,0.1226c1.78252,-0.22938 3.05882,-0.28991 4.81831,0.15332c0,0 0.36535,0.09218 0.27317,0.45751c-0.09218,0.36535 -0.45751,0.27317 -0.45751,0.27317c-0.03804,-0.00959 -0.07585,-0.01907 -0.11343,-0.02834c0.09065,0.06849 0.13291,0.16467 0.13291,0.16467z" fill="#ffffff" fill-rule="nonzero" stroke="none" stroke-width="0.5" stroke-linecap="butt" stroke-linejoin="miter"/><path d="M321.74791,164.09998c-0.00365,-0.00935 -0.00717,-0.01873 -0.01054,-0.02811l0.16472,-0.04064c0.00303,-0.00507 0.00617,-0.01019 0.00944,-0.01529c0.04511,-0.07049 0.09579,-0.11534 0.14743,-0.14243c-0.10521,-0.05761 -0.21179,-0.12118 -0.32304,-0.19192c0,0 -0.31747,-0.203 -0.11448,-0.52044c0.203,-0.31747 0.52044,-0.11448 0.52044,-0.11448c0.02098,0.01351 0.0417,0.02668 0.06214,0.0395l0.51074,0.10531c0.05024,-0.00366 0.10506,0.0017 0.16362,0.01539c-0.03365,-0.07997 -0.06982,-0.16871 -0.1098,-0.26752l0.87097,0.0625c0.06583,0.08469 0.13165,0.16934 0.19749,0.25402c0.25574,-0.10833 0.49701,-0.12715 0.70586,0.07127c0.23612,0.22434 0.25828,0.59804 0.3874,0.89708l-0.37194,-0.01867c0.04376,0.08865 0.08747,0.17729 0.13121,0.2659l-0.40919,-0.01456c0.046,0.05946 0.09013,0.11985 0.13227,0.18083l-0.83706,0.12415c-0.1232,-0.06259 -0.23461,-0.15187 -0.33034,-0.2569c-0.26081,0.09721 -0.53712,0.15752 -0.81171,0.17115l0.00021,0.09797c-0.07725,-0.0203 -0.15142,-0.05378 -0.22102,-0.09728c-0.08696,-0.00391 -0.17322,-0.0128 -0.25831,-0.02701l-0.20647,-0.54984z" fill="#a00000" fill-rule="nonzero" stroke="none" stroke-width="0.5" stroke-linecap="butt" stroke-linejoin="miter"/><path d="M325.11514,169.9964c0.203,-0.31747 0.52044,-0.11448 0.52044,-0.11448l0.04694,0.03233c0.10505,-0.03619 0.22503,-0.02575 0.32592,0.03874c0.06977,0.0446 0.1199,0.10838 0.14788,0.18003l0.6512,0.18544c0.03738,0.00972 0.0739,0.02538 0.10822,0.04734c0.17534,0.11211 0.22659,0.34512 0.11448,0.52044c-0.08712,0.13628 -0.24727,0.19758 -0.39665,0.16551l-0.22643,-0.04315l0.06036,0.10348c-0.14855,0.01935 -0.28457,0.03079 -0.4074,0.03471c-0.00516,0.05855 -0.0241,0.11675 -0.05795,0.16973c-0.08712,0.13628 -0.24727,0.19758 -0.39665,0.16551l-0.17679,-0.03371c0.02997,0.10116 0.01751,0.21429 -0.04379,0.31014c-0.02607,0.04074 -0.05868,0.07482 -0.09555,0.10166c-0.04495,0.12781 -0.12009,0.20599 -0.23683,0.15459c-0.0044,0.00816 -0.00913,0.01618 -0.01418,0.0241c-0.11211,0.17534 -0.34512,0.22659 -0.52044,0.11448c-0.01983,-0.0127 -0.0381,-0.0269 -0.05471,-0.04246l-0.22032,-0.1988l-0.05915,0.02423c-0.0002,-0.02633 -0.00016,-0.05214 0.00013,-0.07745l-0.0291,-0.02627c-0.13847,-0.12057 -0.17152,-0.32755 -0.06965,-0.4869c0.04529,-0.07082 0.11025,-0.12137 0.18319,-0.14912c0.07158,-0.22707 0.18319,-0.33845 0.31376,-0.3455c0.1329,-0.1973 0.38534,-0.26553 0.61291,-0.36059c-0.07633,-0.06455 -0.23988,-0.24371 -0.07982,-0.49405z" fill="#a00000" fill-rule="nonzero" stroke="none" stroke-width="0.5" stroke-linecap="butt" stroke-linejoin="miter"/><path d="M323.94988,159.434c0.17534,0.11211 0.22659,0.34512 0.11448,0.52044c-0.11211,0.17534 -0.34512,0.22659 -0.52044,0.11448c-0.17534,-0.11211 -0.22659,-0.34512 -0.11448,-0.52044c0.11211,-0.17534 0.34512,-0.22659 0.52044,-0.11448z" fill="#a00000" fill-rule="nonzero" stroke="none" stroke-width="0.5" stroke-linecap="butt" stroke-linejoin="miter"/><path d="M324.65916,156.20266l-0.03108,0.26751c0.00594,0.44598 -0.05664,0.89249 -0.13907,1.33083c0,0 -0.07056,0.37015 -0.44068,0.29958c-0.37015,-0.07056 -0.29958,-0.44068 -0.29958,-0.44068c0.07498,-0.38738 0.13413,-0.78248 0.12584,-1.17697l0.03514,-0.35942c0,0 0.0396,-0.37471 0.41431,-0.33513c0.37471,0.0396 0.33513,0.41431 0.33513,0.41431z" fill="#a00000" fill-rule="nonzero" stroke="none" stroke-width="0.5" stroke-linecap="butt" stroke-linejoin="miter"/><path d="M324.82429,155.05707c0.17534,0.11211 0.22659,0.34512 0.11448,0.52044c-0.11211,0.17534 -0.34512,0.22659 -0.52044,0.11448c-0.17534,-0.11211 -0.22659,-0.34512 -0.11448,-0.52044c0.11211,-0.17534 0.34512,-0.22659 0.52044,-0.11448z" fill="#a00000" fill-rule="nonzero" stroke="none" stroke-width="0.5" stroke-linecap="butt" stroke-linejoin="miter"/><path d="M325.56226,153.77205c0.17534,0.11211 0.22659,0.34512 0.11448,0.52044c-0.11211,0.17534 -0.34512,0.22659 -0.52044,0.11448c-0.17534,-0.11211 -0.22659,-0.34512 -0.11448,-0.52044c0.11211,-0.17534 0.34512,-0.22659 0.52044,-0.11448z" fill="#a00000" fill-rule="nonzero" stroke="none" stroke-width="0.5" stroke-linecap="butt" stroke-linejoin="miter"/><path d="M324.11435,160.87776c0.17534,0.11211 0.22659,0.34512 0.11448,0.52044c-0.11211,0.17534 -0.34512,0.22659 -0.52044,0.11448c-0.17534,-0.11211 -0.22659,-0.34512 -0.11448,-0.52044c0.11211,-0.17534 0.34512,-0.22659 0.52044,-0.11448z" fill="#a00000" fill-rule="nonzero" stroke="none" stroke-width="0.5" stroke-linecap="butt" stroke-linejoin="miter"/><path d="M324.336,168.38169c0.17534,0.11211 0.22659,0.34512 0.11448,0.52044c-0.11211,0.17534 -0.34512,0.22659 -0.52044,0.11448c-0.17534,-0.11211 -0.22659,-0.34512 -0.11448,-0.52044c0.11211,-0.17534 0.34512,-0.22659 0.52044,-0.11448z" fill="#a00000" fill-rule="nonzero" stroke="none" stroke-width="0.5" stroke-linecap="butt" stroke-linejoin="miter"/><path d="M323.91746,166.94278c0.17534,0.11211 0.22659,0.34512 0.11448,0.52044c-0.11211,0.17534 -0.34512,0.22659 -0.52044,0.11448c-0.17534,-0.11211 -0.22659,-0.34512 -0.11448,-0.52044c0.11211,-0.17534 0.34512,-0.22659 0.52044,-0.11448z" fill="#a00000" fill-rule="nonzero" stroke="none" stroke-width="0.5" stroke-linecap="butt" stroke-linejoin="miter"/><path d="M323.79094,165.43965c0.17534,0.11211 0.22659,0.34512 0.11448,0.52044c-0.11211,0.17534 -0.34512,0.22659 -0.52044,0.11448c-0.17534,-0.11211 -0.22659,-0.34512 -0.11448,-0.52044c0.11211,-0.17534 0.34512,-0.22659 0.52044,-0.11448z" fill="#a00000" fill-rule="nonzero" stroke="none" stroke-width="0.5" stroke-linecap="butt" stroke-linejoin="miter"/><path d="M324.39855,199.20206c-0.18741,0.29312 -0.47621,0.48218 -0.79125,0.55072c-0.04227,0.27258 -0.19504,0.5631 -0.56704,0.80878c-0.59334,0.39187 -1.07261,0.22598 -1.37681,0.00828c-0.37979,0.33457 -0.93541,0.41308 -1.3992,0.17661l-1.21989,-0.60171l0.08235,-0.16697l-0.43435,-0.09126c-1.01413,-2.15343 -2.6471,-6.43981 1.89711,-4.95989c0.15635,0.05091 0.29998,0.11267 0.43252,0.18384c0.32118,-0.07789 0.67237,-0.02967 0.97281,0.1624c0.53823,0.34415 0.72567,1.03013 0.46003,1.59292c0.08652,0.18943 0.16838,0.38272 0.25033,0.57582c0.39422,-0.23062 0.9006,-0.23726 1.31183,0.02565c0.58442,0.37369 0.75527,1.15037 0.38159,1.73481z" fill="#ffffff" fill-rule="nonzero" stroke="none" stroke-width="0.5" stroke-linecap="butt" stroke-linejoin="miter"/><path d="M321.53336,193.17506c0.55012,0.35175 0.73378,1.06058 0.44179,1.62999c0.1359,0.03149 0.26883,0.08632 0.39308,0.16575c0.4441,0.28396 0.64939,0.80061 0.55839,1.28876c0.19087,0.18544 0.31345,0.42311 0.3594,0.67527c0.2607,-0.01895 0.52951,0.04304 0.76666,0.19467c0.58442,0.37369 0.75527,1.15037 0.38159,1.73481c-0.37369,0.58442 -1.15037,0.75527 -1.73481,0.38159c-0.3061,-0.19573 -0.49875,-0.50201 -0.55912,-0.83332c-0.2607,0.01895 -0.52951,-0.04304 -0.76666,-0.19467c-0.4441,-0.28396 -0.64939,-0.80061 -0.55839,-1.28876c-0.39083,-0.37969 -0.49524,-0.97822 -0.24208,-1.47195c-0.1359,-0.03149 -0.26883,-0.08632 -0.39308,-0.16575c-0.58442,-0.37369 -0.75527,-1.15037 -0.38159,-1.73481c0.37369,-0.58442 1.15037,-0.75527 1.73481,-0.38159z" fill="#a00000" fill-rule="nonzero" stroke="none" stroke-width="0.5" stroke-linecap="butt" stroke-linejoin="miter"/></g></g></g></svg>