<svg version="1.1" xmlns="http://www.w3.org/2000/svg" xmlns:xlink="http://www.w3.org/1999/xlink" width="5493.87806" height="4523.14318" viewBox="0,0,5493.87806,4523.14318"><g transform="translate(248.45918,694.80346)"><g data-paper-data="{&quot;isPaintingLayer&quot;:true}" fill="none" fill-rule="nonzero" stroke="#000000" stroke-linecap="butt" stroke-linejoin="miter" stroke-dasharray="" stroke-dashoffset="0" style="mix-blend-mode: normal"><g><path d="M1967.4694,322.82465c-13.4948,-0.20255 -26.6362,-1.66906 -40.1256,-2.51215c-5.6955,-0.35596 -11.501,0.47388 -17.1875,0c-10.6618,-0.88848 -21.2638,-0.78125 -32.0313,-0.78125c-10.6771,0 -21.3856,-0.81889 -32.0312,0c-14.7783,1.13679 -29.6944,1.85327 -44.5313,3.125c-17.4427,1.49509 -7.3237,1.79875 -24.2187,2.34375c-17.7938,0.57399 -35.3643,-0.98957 -53.125,-1.5625c-38.6051,-1.24532 -76.9303,-5.87374 -115.625,-5.46875" stroke-width="1" stroke-miterlimit="10"/><path d="M3755.6668,-679.10985l6.3528,1.3465c167.1393,165.1859 326.0148,338.9225 491.359,506.0485c21.0853,48.0578 2.4166,109.9481 8.7257,163.0962c269.4924,0 538.9849,0 808.4772,0c51.4379,6.0741 115.9756,-12.1592 159.3753,9.1151c-1.2216,570.3563 2.4385,1141.50715 -1.8299,1711.36765c-158.5871,8.5507 -320.9348,1.1713 -480.9569,3.6424c-60.7492,-7.544 -110.3311,-5.3577 -79.1698,67.2753c-46.2467,57.615 -106.4862,106.4584 -158.0805,160.7218c44.177,48.3408 88.3568,96.679 132.5405,145.0136c53.4979,19.548 124.2772,-4.7483 180.047,12.6007c25.638,64.0885 68.1866,125.7873 83.779,191.2952c-83.5004,88.301 -168.7316,174.9412 -253.4432,262.075c-62.5787,-14.8959 -120.847,-58.3394 -181.7658,-84.2279c-12.533,-54.4308 -2.308,-115.4828 -6.4981,-172.3404c-30.8851,-50.3737 -84.205,-92.9807 -128.1733,-136.3111c-27.2591,-38.3157 -48.6516,25.5503 -71.5353,38.9361c-31.3252,47.9838 -105.5782,80.9285 -91.339,145.2672c-8.8925,41.8407 29.9541,110.2897 -16.3769,132.8627c-45.4231,31.8501 -118.6589,41.4218 -144.2639,95.6144c9.8861,62.3791 71.6078,100.3486 108.2362,147.2444c24.2885,31.516 58.9265,56.4389 100.633,41.5304c1.19,-53.4235 -2.6141,-107.6502 1.5882,-160.5837c143.9349,-7.3205 292.4513,-3.5808 437.3152,-1.7954c7.9052,142.0549 -0.1301,287.7952 1.6856,431.2564c-24.1562,79.0309 31.486,67.5006 81.4719,79.8251c-1.2461,177.0424 2.4846,354.902 -1.8644,531.4348c-214.8118,7.1501 -433.245,-1.5066 -649.4472,-0.4488c0.8601,56.0179 7.2844,112.7742 4.6956,168.3349c-117.474,7.3291 -239.5098,3.5844 -357.921,1.8128c-8.7045,-53.5955 -1.0345,-111.0562 -3.6425,-166.0908c-53.1876,-1.1897 -107.1785,2.6156 -159.8759,-1.5882c-7.3454,-121.8253 -3.5555,-248.2276 -1.8127,-370.9894c79.4775,-8.5154 162.6932,-1.1955 243.6032,-3.6426c-0.6546,-44.6996 2.152,-90.0368 -7.1126,-134.1016c-31.5325,-64.6178 -98.0191,-107.402 -145.0467,-161.4469c-137.3151,-1.2312 -275.4272,2.4341 -412.2487,-1.8299c-7.3464,-121.7386 -3.5537,-248.0553 -1.8127,-370.7305c59.8664,-8.6612 123.5694,-1.0705 184.8733,-3.6425c40.0124,20.4502 3.4499,98.5721 12.1849,141.7744c-4.0435,54.7838 91.4193,12.3377 131.7249,23.7938c53.6552,-0.0987 111.8321,9.7142 139.0759,-48.2797c32.152,-49.6573 112.1832,-89.3661 96.0484,-157.9092c-35.6877,-41.1706 -93.926,-59.2289 -142.6298,-82.536c-35.1408,-17.7298 -7.3175,-72.3381 -12.5677,-102.8551c12.1118,-101.8356 -92.1153,-160.3603 -145.2884,-231.0871c-46.3221,47.0206 -92.6386,94.0467 -138.9485,141.0792c-14.9928,54.6445 -2.8721,120.5402 -7.7554,179.3803c-52.8012,38.4527 -120.095,63.7131 -178.9606,93.7805c-91.9313,-78.4301 -172.7292,-177.8002 -260.3917,-264.3252c15.2286,-65.2427 57.6719,-126.7002 83.0195,-190.5356c52.1832,-12.4946 111.0941,-2.1481 165.8145,-6.0316c52.7749,-35.3046 93.0271,-98.8035 141.0375,-144.8483c-7.3699,-35.7236 -66.04,-69.9681 -94.2193,-105.2391c-37.4215,-30.9372 -69.28,-73.7851 -54.8112,-125.2111c-132.3984,-1.9808 -264.7968,-3.9602 -397.1951,-5.9386c-92.3147,-99.2475 -186.2202,-200.1426 -283.2029,-296.4087c-36.3861,-62.2551 -112.385,-29.9873 -171.5828,-37.8097c-1.2402,82.6521 2.4371,166.1047 -1.8299,248.2642c-63.1359,7.4611 -130.9601,3.465 -195.024,1.7781c-8.3912,-50.7541 -0.3855,-105.2683 -2.677,-157.4246c-33.4446,-21.4821 -105.675,-5.2445 -154.0354,-12.2274c-79.5089,-26.4181 -46.9134,61.7669 -53.0201,110.3869c24.4753,76.8155 -46.0866,63.5805 -97.2979,57.9578c-73.7893,-26.7866 -63.2114,30.6834 -63.631,83.4982c-64.2694,7.4257 -133.163,3.488 -198.3732,1.8126c-5.7318,-51.1654 9.8685,-111.4085 -64.8167,-85.3408c-49.925,4.4333 -121.5438,19.3757 -97.9249,-56.2187c-9.367,-42.8258 29.2125,-133.5981 -43.6417,-112.9368c0,132.4904 0,264.9809 0,397.4714c-2.9247,56.1581 -93.8664,13.5783 -133.4112,26.7927c-39.1582,11.0086 -136.1455,-30.5158 -110.4682,39.3777c79.9752,2.7746 160.7719,0.958 240.2368,6.5946c8.5568,127.126 1.1831,258.0127 3.6426,386.5782c9.7956,43.0532 -29.8359,135.5335 43.6417,114.9048c1.2821,-138.6672 -2.5541,-278.1868 1.9163,-416.3229c130.0862,-7.4138 263.646,5.8845 395.0199,-1.968c51.7149,-41.5757 58.5948,-121.724 101.1115,-169.4916c114.2218,1.2355 229.2416,-2.4316 342.9709,1.8299c7.2499,149.769 3.7057,304.0754 1.7781,454.7684c-115.0903,7.5955 -233.8092,-0.825 -350.2733,0.6906c-36.9294,-47.841 -56.5018,-111.3413 -86.921,-165.0549c-95.2419,0 -190.4838,0 -285.7257,0c0,86.8289 0,173.6578 0,260.4866c-6.0741,51.4379 12.1592,115.9756 -9.115,159.3753c-197.6512,-1.2422 -396.0983,2.4145 -593.255,-1.8472c-8.5839,-133.6682 -1.121,-271.1245 -3.6426,-406.2239c-16.2623,-38.9768 -103.9845,-4.6958 -149.2169,-13.9779c-44.3045,0.0524 -121.2204,20.5527 -95.5874,-51.2052c7.2911,-55.7013 -89.0725,-16.0809 -126.1678,-30.9737c1.5808,415.782 3.1515,831.5639 4.7129,1247.346c-53.4197,62.3697 -116.8988,118.0035 -174.0836,177.8643c-85.3595,6.3071 -173.0602,0.779 -259.2955,2.6586c-57.6469,-56.7856 -111.6275,-120.4978 -170.0786,-177.847c-4.7562,-147.7775 -3.2628,-298.5124 -0.7423,-446.6202c131.7432,-8.5235 267.2307,-1.1861 400.4062,-3.6425c1.4131,-251.7229 2.8265,-503.4458 4.2402,-755.1687c20.7498,-67.0639 -54.8433,-38.9655 -96.1158,-43.9518c-51.0787,-9.1353 -18.0565,55.4702 -27.7249,80.1537c-118.0228,6.3997 -240.4094,1.4574 -359.3366,-1.053c-8.5218,-120.7391 -6.0711,-246.1966 -5.4207,-367.9338c81.7216,-8.5401 167.1916,-1.2015 250.3531,-3.6425c40.9536,8.8449 134.4383,-28.548 115.181,44.8502c-20.6561,75.7472 75.2243,30.5226 118.91,39.4467c1.2892,-83.8959 2.5782,-167.7918 3.8754,-251.6877c21.4287,-67.2628 -54.9965,-38.8495 -96.2861,-43.9472c-49.2446,-7.8172 -19.3358,55.0964 -27.466,80.0847c-145.6026,7.3233 -295.7657,3.5815 -442.3043,1.8127c-8.4867,-97.9388 -1.2237,-199.5956 -3.6426,-298.9667c6.0742,-51.4379 -12.1591,-115.9756 9.1151,-159.3752c144.1878,1.5208 289.4761,-3.006 432.982,2.2615c6.5226,53.0757 -12.7921,110.2233 1.9681,163.6565c36.0125,14.7519 82.4953,-1.3713 121.6203,2.3478c0,-70.6359 0,-141.2717 0,-211.9076c-78.3777,-1.3277 -157.6437,2.6223 -235.4721,-1.968c-6.3324,-79.6998 3.3807,-162.7156 3.0729,-243.65485c-105.3869,-28.13869 -218.0536,1.82407 -325.2415,-14.65664c-25.8186,-9.03806 -3.315,-34.16758 4.6265,-44.98826c10.9311,-24.62552 -37.0483,-45.93701 -7.5613,-67.30976c105.4116,-18.01248 215.0891,-2.89542 321.9269,-8.04475c1.2236,-81.18169 -2.4448,-163.15969 1.8299,-243.84479c77.2245,-8.6256 158.2631,-1.0942 236.9222,-3.6426c1.5212,-127.9789 3.0346,-255.9578 4.5403,-383.9369c-53.2621,-1.253 -107.3299,2.4442 -160.1003,-1.8299c-7.2728,-149.7485 -3.6597,-304.0145 -1.8126,-454.6993c54.8151,-8.827 113.5755,-0.9417 169.8368,-3.6426c59.3694,0.7849 -3.1667,118.5953 83.0775,86.2246c72.0412,22.655 73.0153,-24.3787 69.7031,-82.582c62.7779,-7.4996 130.2339,-3.4004 193.9537,-1.8127c8.4973,147.8216 1.2146,299.3683 3.6426,448.6227c-45.008,22.7562 -107.6294,5.7196 -159.099,13.8624c0,126.598 0,253.1958 0,379.7937c75.0438,0 150.0876,0 225.1313,0c40.5016,18.4869 7.0546,95.91507 17.9366,137.19181c11.1446,39.17761 -30.6763,136.65016 39.2396,111.12422c1.3169,-53.82055 -2.0763,-108.40168 2.1407,-161.75753c90.6285,-8.3364 185.9459,-6.058 277.5946,-5.1791c7.2729,149.74854 3.6598,304.01458 1.8127,454.69945c-59.6421,8.4653 -122.9885,1.2397 -184.0618,3.6426c-54.6927,4.8259 -122.0014,9.8563 -97.5034,-66.56756c-9.0136,-35.5726 26.1153,-118.74205 -34.8029,-98.6946c-8.5396,83.01433 -0.9418,167.27246 -6.2321,250.00786c-78.6855,8.555 -161.1364,1.1596 -241.2553,3.6426c0,55.7952 0,111.5903 0,167.3854c-20.042,75.8372 78.3168,33.2736 123.1913,44.1942c1.2442,-54.6618 -2.4437,-110.1265 1.8299,-164.2953c178.9544,-8.5158 361.6458,-1.2024 542.0346,-3.6425c42.4796,12.6424 132.2778,-27.5812 141.6976,24.583c-29.461,66.9903 65.2526,86.425 43.6417,11.0485c9.2965,-42.5568 -29.4507,-136.9028 44.4704,-119.6005c43.1199,-9.7059 135.4041,29.7523 114.6286,-43.8489c-48.8579,-6.7401 -102.3172,6.1614 -149.2589,-5.1789c-22.465,-55.07275 -3.0521,-120.92816 -9.8401,-179.43542c-2.0489,-59.17617 107.6652,11.54502 79.9121,-73.21383c-53.3171,0.92242 -107.3712,7.48676 -160.2384,4.92005c-8.5592,-148.53777 -1.1367,-300.84835 -3.6426,-450.81515c37.1587,-20.8159 95.4004,0.1764 140.8344,-4.1431c14.0781,-6.1933 59.7953,14.1769 57.7977,-11.4629c-43.469,-12.1781 -94.9769,-1.4131 -140.9035,-5.2481c-21.2086,-39.6806 -2.1814,-99.3568 -10.9795,-147.0319c-6.9186,-26.3388 -6.4319,43.006 -6.4219,53.9652c-1.3577,29.5575 11.6048,93.0534 -38.1865,84.7976c-21.6941,24.875 -73.9853,24.6585 -97.1064,-1.0185c-76.9672,-19.491 -162.6255,-0.8647 -241.6869,-10.2199c-10.7572,-57.2636 3.4474,-119.214 -8.649,-177.3464c-27.3054,-19.4421 -34.2037,-77.7507 -1.8471,-95.1384c16.2426,-30.3415 0.0727,-76.9028 8.6835,-111.5039c51.4663,-8.8082 106.6408,-0.6768 159.5651,-4.3849c23.2582,5.8357 24.8773,-8.005 28.5017,-24.186c21.9417,-15.6469 70.8023,-19.6829 84.3315,8.2864c22.266,18.5173 68.4576,1.6169 97.279,7.8031c22.2274,39.1638 0.694,99.0834 12.2225,146.1687c6.768,-7.1107 4.1092,-45.0313 5.1331,-62.2517c6.7066,-32.995 -16.069,-98.1068 29.4799,-108.8626c32.528,16.0075 70.7017,17.6696 108.0513,14.0524c46.3981,-2.0121 44.6864,-7.4543 0.5004,-6.1688c-27.8282,-6.2517 -88.8228,15.8138 -93.7915,-26.5798c-20.129,-25.9335 -25.1686,-70.8244 -8.4246,-102.6306c17.9594,-97.6109 2.0167,-208.1986 10.2545,-309.7045c64.9637,-10.0762 134.013,2.3367 200.0994,-7.734c21.662,-22.8976 60.8041,-31.5028 90.4772,-15.0881c8.2555,26.5068 38.3596,18.2546 61.4231,19.1796c55.212,3.2355 14.4326,92.3222 26.7927,132.1682c-14.0665,38.4819 22.7419,43.8317 51.4447,41.5183c22.5184,-25.6945 84.8801,-39.6428 98.85,-0.7251c32.0024,7.1242 78.6448,-4.4992 61.8373,48.2166c6.2757,22.8297 -11.2036,66.2799 10.0301,80.24c32.7713,28.4478 8.1108,84.5452 16.4864,122.1555c-5.1157,18.5948 -94.2069,8.8384 -59.2133,16.6246c77.4358,-1.1525 162.5824,10.1655 235.8002,-6.2321c15.928,-29.0477 63.8931,-20.9776 90.3218,-11.014c5.4989,31.1403 43.3496,13.8582 65.3245,20.8196c8.7407,52.7053 0.8293,109.0808 4.264,163.2595c-7.8762,46.3196 27.6382,81.5867 15.468,128.0768c-21.3868,42.571 -16.3529,92.0788 -16.0895,140.2129c-29.2518,21.1387 -78.2039,2.6312 -115.7335,11.1694c151.2667,9.7671 326.6818,1.7479 486.488,2.1908c51.4745,5.6119 115.9771,-13.3247 159.4548,7.6493c1.4927,389.17927 2.9943,778.35855 4.5057,1167.53765c73.421,0 146.8421,0 220.2631,0c51.4057,11.3766 69.1156,-4.914 62.7005,-53.1884c30.7158,-72.1556 103.3742,-116.9235 149.6904,-178.9519c-36.1564,-51.9097 -97.4084,-98.5307 -142.7856,-147.5833c-50.6116,-16.2288 -114.9793,11.0082 -168.1617,-7.5969c-23.3894,-63.9674 -66.6175,-124.4903 -82.7433,-189.13732c85.974,-87.82779 168.4945,-179.14339 255.325,-266.04548c60.7406,16.44739 113.1264,67.2188 176.2759,82.32888c24.4,52.40368 4.6638,117.07938 11.8422,173.46222c34.6591,57.57025 95.3084,104.8256 139.8855,158.4603c46.6308,-46.4528 93.2657,-92.90133 139.9058,-139.3449c18.4413,-57.28237 -5.5705,-128.14428 13.8761,-188.38262c44.9166,-23.86653 96.2498,-43.72793 140.679,-72.60961c-48.5762,-50.02631 -97.149,-100.05612 -145.7199,-150.08752c-4.7581,-120.9175 -3.3473,-244.9058 -0.6388,-366.1211c72.8702,-3.8911 150.346,-4.6161 223.5259,8.459c-141.7348,-149.4381 -285.3092,-297.239 -430.7033,-443.1157c-3.9441,155.9913 3.9039,312.7171 0.6733,468.2166c-91.3306,8.5446 -186.4164,1.1814 -279.1829,3.6426c-161.2363,-4.2482 -324.1277,8.7276 -484.4269,-8.9079c-26.3087,-23.8939 -45.5514,-58.7345 -77.9958,-78.4274c-6.7858,-93.6 -5.1916,-190.9806 -3.8152,-285.2251c117.3237,-7.3451 239.2114,-3.602 357.4722,-1.8299c8.6656,81.6057 1.0501,167.0548 3.6426,250.0941c58.7413,0 117.4828,0 176.2242,0c42.0526,0.6212 141.0887,13.2114 97.5864,-43.468c-48.4819,-5.6794 -110.1324,13.3772 -150.6194,-7.6833c1.2585,-205.5712 -2.5064,-411.9722 1.8817,-617.0266c169.4564,-6.8996 342.4982,2.0611 513.3281,1.2391c70.1619,20.4196 95.6768,-60.4709 149.2737,-87.4005zM3753.9231,-465.35505c-44.4982,47.0611 -88.9915,94.1268 -133.4802,141.1969c97.5696,103.02 197.4349,203.9331 292.7001,309.1003c46.9486,-46.1297 93.8992,-92.2573 140.8517,-138.383c-70.0753,-78.4817 -145.6003,-151.7965 -218.4505,-227.6345c-27.207,-28.0933 -54.4141,-56.1865 -81.6211,-84.2797zM3452.1943,-387.06575c-10.6493,17.5435 4.8229,15.0755 13.8107,-1.0704c-4.6092,0.0405 -9.3257,-0.1691 -13.8107,1.0704zM1778.3918,-176.28025c23.6699,74.137 -44.8983,64.6749 -95.8807,62.3379c31.5448,1.8265 106.5298,7.293 153.7992,5.6279c11.0709,-9.4895 -36.8209,-4.861 -40.5171,-5.8178c-22.119,-48.9795 -0.2417,-117.7817 -13.0338,-174.4979c-7.5795,33.9326 -2.8884,75.829 -4.3676,112.3499zM403.2279,-136.22935c-66.725,8.8486 -14.9015,75.7106 40.2409,48.0612c77.9059,26.4763 61.6304,-78.3034 -8.8561,-48.0612c-10.4616,0 -20.9232,0 -31.3848,0zM2803.6966,-30.56035c-10.1411,29.0738 21.592,21.7011 37.7549,21.3375c11.6942,-9.2725 12.8158,-55.2533 -15.934,-43.0375c-19.7741,-4.3459 -24.5818,3.7346 -21.8209,21.7zM4176.1501,200.26785c-12.3667,105.9624 3.4213,215.4539 1.9853,322.6002c-46.0919,55.6914 -102.8215,104.39421 -152.936,157.4418c46.1752,23.30924 91.9464,49.71376 141.0416,65.6698c25.2655,53.96719 4.8732,120.50991 11.8944,178.58936c36.3546,56.6542 99.7105,102.07819 146.4278,154.42069c42.5685,-45.565 85.1352,-91.1318 127.6974,-136.70271c29.6871,-54.0234 -0.5837,-128.17018 19.1101,-189.03952c26.8221,-21.2909 68.3234,-25.11732 97.8314,-46.26573c32.8193,-7.07222 52.9262,-49.173 87.6978,-41.65646c74.5597,93.7362 169.4337,176.00684 249.2482,267.65097c-16.0834,64.36135 -58.6804,122.81645 -80.9478,186.32335c-48.1963,16.4786 -103.3789,0.1969 -153.5849,2.4424c-59.0386,36.5017 -106.8206,102.4896 -161.6784,149.9584c43.7746,50.2149 94.9875,95.6409 132.2545,150.83c47.1765,0.9658 4.6872,59.2031 23.2192,80.2572c119.4587,18.183 243.8737,1.7598 365.1889,6.1803c-1.4848,-436.4577 -2.9694,-872.91551 -4.4539,-1309.37325c-191.7268,-0.8513 -383.4517,-2.2142 -575.1803,-2.5895c-91.4621,1.1659 -183.6903,-2.305 -274.8153,3.2627zM1990.075,327.99935c11.4747,121.5687 1.5347,251.1815 4.8682,375.80589c11.3059,60.94642 -2.291,110.85057 -74.2146,85.84373c-46.8382,-12.95181 -125.9776,-0.74644 -74.509,44.95052c73.9213,-26.0446 69.7501,40.52597 64.7547,94.6306c-6.4109,44.90738 26.4373,137.75251 -51.3548,113.58731c-44.9212,4.8798 -123.9284,-28.2662 -108.0204,44.5795c51.8053,1.2585 104.4182,-2.4448 155.7326,1.8299c8.7046,53.6011 1.0346,111.0677 3.6426,166.108c206.2165,0 412.4329,0 618.6494,0c40.5217,7.6916 140.5046,-27.1556 109.277,46.8009c-15.3738,33.3378 17.3004,49.8902 44.9192,38.0657c0,-268.2724 0,-536.54491 0,-804.81745c-95.5699,-1.5168 -191.1398,-3.0359 -286.7097,-4.5575c-1.2312,169.66096 2.4343,340.11886 -1.8299,509.28615c-62.7985,7.4723 -130.2945,3.4493 -194.0228,1.7954c-8.3754,-218.07209 6.3301,-439.75325 -3.8152,-659.13195c7.4893,-31.1157 -23.5083,-41.6819 -48.4755,-38.0829c-37.5194,-18.6594 -80.7229,-17.2702 -123.3984,-16.8836c-11.8305,0.1008 -23.6644,-0.0359 -35.4934,0.1898zM1945.3974,329.60495c-27.642,2.2504 -10.4461,7.805 5.9041,2.5549c35.8497,-4.5115 15.3362,-4.3847 -5.9041,-2.5549zM297.6971,703.32184c-1.5151,72.13205 -3.0286,144.26411 -4.5403,216.39616c95.7426,-1.51012 191.4851,-3.0235 287.2276,-4.54025c0.6361,-60.98062 5.1584,-123.85744 1.1049,-183.73383c5.1824,-44.65167 -53.8979,-25.60168 -79.6014,-30.95324c-68.0711,0.11738 -136.1283,1.89416 -204.1908,2.83116zM532.1161,1547.5688c0.9808,97.8365 -2.679,195.8884 4.3158,293.5632c35.4421,11.8593 83.8874,0.6678 123.433,2.3133c1.0188,-66.2203 2.0335,-132.4406 3.057,-198.6609c4.2035,-57.7425 14.876,-121.8549 -64.5836,-97.2156c-22.0741,0 -44.1482,0 -66.2222,0zM3901.3176,2831.8238c-31.052,23.7446 -40.9755,52.8439 -5.2653,77.9095c14.6686,29.1826 35.9127,2.3593 49.4249,-11.5664c45.9096,-23.444 -3.6753,-58.3859 -28.3982,-76.9773c-6.0498,1.4636 -10.9722,6.9391 -15.7614,10.6342zM4066.5624,3077.9474c-62.8873,44.4985 -48.1806,126.7243 -50.6162,192.9525c68.6104,-1.5098 137.2207,-3.0232 205.831,-4.5403c0,-59.0809 0,-118.1619 0,-177.2428c-11.9584,-35.7954 26.8817,-118.0702 -25.2218,-117.2182c-54.2227,12.2928 -89.1726,70.9606 -129.993,106.0488z" stroke-width="30.8829" stroke-miterlimit="4"/></g></g></g></svg>