<svg version="1.1" xmlns="http://www.w3.org/2000/svg" xmlns:xlink="http://www.w3.org/1999/xlink" width="980.48048" height="630.63063" viewBox="0,0,980.48048,630.63063"><g transform="translate(150.24024,135.31532)"><g data-paper-data="{&quot;isPaintingLayer&quot;:true}" stroke-miterlimit="10" stroke-dasharray="" stroke-dashoffset="0" style="mix-blend-mode: normal"><path d="M-150.24024,495.31532v-630.63063h980.48048v630.63063z" fill="#000000" fill-rule="nonzero" stroke="#ff3838" stroke-width="0" stroke-linecap="butt" stroke-linejoin="miter"/><path d="M344.26099,190.09299c0.41638,-0.30689 3.89906,1.1696 5.55474,0.6525c1.16382,-0.40312 2.55754,-0.9878 3.61229,-2.23802c2.42623,-2.79448 2.56282,-1.79832 4.59105,-0.99571c2.07806,0.7962 3.05951,2.18884 -2.763,4.9647c-2.003,0.96706 -3.89649,1.21085 -5.44761,1.35991c-0.39863,0.05132 -3.88174,0.14519 -5.29576,-1.39502c-1.41403,-1.54021 -0.62467,-2.09774 -0.25171,-2.34838z" fill="#000000" fill-rule="evenodd" stroke="#001026" stroke-width="1.2" stroke-linecap="round" stroke-linejoin="round"/><path d="M341.99397,195.96948c-0.92408,-0.48888 -2.01347,-1.86827 -0.59216,-3.41895c1.63838,-1.8319 4.16788,-0.28335 5.26069,0.33577c1.09282,0.61912 1.64885,1.00342 3.93263,1.82379c0.90484,0.33939 2.05239,0.59688 2.67601,0.71921c0.25556,0.01776 0.50471,-0.01432 0.74102,-0.14606c0.4228,-0.25705 -4.57296,-0.95016 -3.53639,-0.37445c1.06119,0.71691 1.53106,-0.375 0.41982,1.26843c-0.12766,0.1888 0.27568,-0.29199 0.16279,-0.07852c-1.06232,2.00867 0.64687,1.34078 -0.70689,1.09116c-2.84966,-0.49423 -3.28842,1.05773 -2.5953,-0.24723c0.074,-0.21215 -0.11991,-0.93132 -0.32564,-0.95548l1.07084,2.2658c-0.59634,-0.10755 0.75776,0.49512 0.19731,0.35013c-0.62208,-0.16094 -2.14158,-0.83521 -2.70603,-1.02328c-2.42069,-0.80655 -3.32389,-1.27604 -3.99869,-1.61034z" fill="#000000" fill-rule="evenodd" stroke="#001026" stroke-width="1.2" stroke-linecap="round" stroke-linejoin="round"/><path d="M333.18851,186.32153c0.75086,-0.8565 2.48995,-0.72583 2.71942,0.66297c0.1668,1.29555 -0.70638,2.77566 -1.20168,3.64991c-0.49529,0.87425 -2.9072,4.17344 -6.54428,3.07141c-1.54127,-0.56139 -5.28892,-2.91555 -3.70679,-4.79086c1.58213,-1.87532 3.48953,-0.04404 4.82015,0.84839c1.11206,0.7686 3.6897,-3.21043 3.91319,-3.44182z" fill="#000000" fill-rule="evenodd" stroke="#001026" stroke-width="1.2" stroke-linecap="round" stroke-linejoin="round"/><g fill-rule="evenodd"><path d="M338.02454,193.80369c-0.65568,-0.37148 -1.34987,-1.04193 -2.29469,-2.08534c-0.76967,-0.86335 -1.70465,-2.6172 -1.70465,-2.6172c-0.60884,-1.18798 -1.21577,-3.54128 0.435,-3.70316c1.10265,-0.09132 2.07999,-0.36911 3.74209,-0.83638c2.91275,-0.98288 3.40954,-1.45209 4.91831,0.43051c1.65333,2.21857 5.31607,3.5199 1.6131,8.20103c0,0 -2.19783,2.20787 -4.76563,5.47646c-1.74296,2.19995 -4.52291,5.39455 -5.49725,6.48245c-0.22348,0.23139 -0.50962,0.36954 -0.80218,0.45787c-4.77567,1.07077 -8.42751,1.0344 -8.70338,-1.10825c-0.46192,-3.58769 6.82401,-3.25939 6.82401,-3.25939c0,0 2.04193,-2.23845 2.96644,-3.31992z" fill="#000000" stroke="#001026" stroke-width="1.2" stroke-linecap="round" stroke-linejoin="round"/><path d="M335.40224,190.74742c0,0 -1.10714,-1.12383 0.86228,-2.74508c2.05625,-1.73374 3.10864,-0.24828 4.15954,0.83213c1.19546,1.41639 0.29512,2.29213 -0.58598,3.31737c-0.70103,0.85008 -1.37148,1.54426 -1.37148,1.54426c0,0 -1.67942,-0.84752 -3.06436,-2.94868z" fill="#a00000" stroke="none" stroke-width="1" stroke-linecap="butt" stroke-linejoin="miter"/></g><g fill-rule="evenodd"><path d="M330.12082,160.52787c1.1204,-0.34687 2.30346,-0.60051 3.71151,-0.68048c2.35479,-0.20187 4.70616,0.35652 4.70616,0.35652l5.52247,-4.71277c0.18648,-0.12531 0.45487,-0.00791 0.43071,0.19782l0.10198,9.05411c-0.3503,-0.36013 6.10307,5.69806 3.29658,11.83406c-2.80648,6.13601 -10.00347,9.64603 -19.60869,9.00849c-9.60522,-0.63754 -12.49058,-5.73678 -12.25832,-8.65402c0.23226,-2.91724 3.63539,-4.41915 3.63539,-4.41915c0,0 -0.23887,-2.24872 1.0028,-5.19461c0.73504,-1.76625 3.62256,-4.51881 3.62256,-4.51881l0.60909,-5.4985c0.02417,-0.20573 0.2669,-0.28764 0.42922,-0.20723z" fill="#000000" stroke="#001026" stroke-width="1.2" stroke-linecap="butt" stroke-linejoin="miter"/><path d="M319.83376,172.69251c4.11356,-1.49207 4.91638,1.59582 8.53614,1.38305c4.22413,-0.23993 9.37064,-5.51216 13.39565,-0.6103c4.01859,4.85203 -0.78789,12.76519 -13.16728,11.82631c-9.49914,-0.60055 -12.55174,-5.42497 -12.31948,-8.34221c0.23226,-2.91723 3.55498,-4.25683 3.55498,-4.25683z" fill="#000000" stroke="none" stroke-width="1" stroke-linecap="butt" stroke-linejoin="miter"/><path d="M336.21636,176.00331c0.46385,2.42237 0.42598,5.66917 -4.04429,6.75127c-5.19354,0.9726 -7.56821,-2.52078 -8.1899,-3.80842c-0.13174,-0.23632 0.0355,-0.51112 0.29106,-0.49337c0.76668,0.05326 2.38045,-0.00256 5.05197,-0.49849c2.96407,-0.58425 5.55219,-1.72795 6.45403,-2.19865c0.1929,-0.07549 0.41146,0.04834 0.43712,0.24765z" fill="#000000" stroke="#001026" stroke-width="1.2" stroke-linecap="round" stroke-linejoin="round"/><path d="M316.91567,175.60098c0,0 -3.5941,0.41209 -6.17986,-1.17988" fill="none" stroke="#001026" stroke-width="1.2" stroke-linecap="round" stroke-linejoin="round"/><path d="M317.09487,178.56655c0,0 -1.82143,1.19696 -4.99273,1.35199" fill="none" stroke="#001026" stroke-width="1.2" stroke-linecap="round" stroke-linejoin="round"/><path d="M330.77795,173.10701c0.10265,0.79726 -1.82978,2.31244 -2.73954,2.32826c-0.80368,0.05282 -1.73074,-1.24616 -1.77074,-1.95018c0.00493,-0.35522 1.08833,-0.59602 2.13474,-0.73075c0.99658,-0.12831 2.34837,-0.2517 2.37553,0.35266z" fill="#001026" stroke="#000000" stroke-width="1.2" stroke-linecap="round" stroke-linejoin="round"/><path d="M345.07844,172.8361c1.54512,-1.76924 5.65078,-3.71619 5.65078,-3.71619" fill="none" stroke="#001026" stroke-width="1.2" stroke-linecap="round" stroke-linejoin="round"/><path d="M351.02197,174.14771c0,0 -3.61677,1.02287 -5.86848,0.45165" fill="none" stroke="#001026" stroke-width="1.2" stroke-linecap="round" stroke-linejoin="round"/><g fill="#a00000"><path d="M326.64625,164.62239c1.51069,0.71728 1.78805,3.26498 0.63171,5.69333c-1.20617,2.43477 -3.36357,3.7763 -4.87426,3.05901c-1.51069,-0.71728 -1.78805,-3.26498 -0.63171,-5.69333c1.15634,-2.42836 3.35715,-3.82613 4.87426,-3.05901z" stroke="#001026" stroke-width="1.2" stroke-linecap="round" stroke-linejoin="round"/><path d="M322.33698,170.49599c-0.07057,-0.54811 0.27033,-1.0479 0.76861,-1.11206c0.4983,-0.06416 0.95467,0.33298 1.02524,0.8811c0.07057,0.54811 -0.27033,1.0479 -0.76861,1.11206c-0.4983,0.06416 -0.95467,-0.33298 -1.02524,-0.8811" stroke="none" stroke-width="1" stroke-linecap="butt" stroke-linejoin="miter"/></g><g><path d="M334.3092,167.48555c1.21258,-2.38495 3.40056,-3.88237 5.09282,-2.93519c1.68584,0.89736 1.95187,3.75043 0.68945,6.14179c-1.21258,2.38495 -3.31524,3.36483 -5.08149,2.6298c-1.46728,-0.77353 -1.91338,-3.45146 -0.7008,-5.8364z" fill="#ffffff" stroke="#001026" stroke-width="1.2" stroke-linecap="round" stroke-linejoin="round"/><path d="M334.98028,170.33713c-0.07057,-0.54811 0.27674,-0.99808 0.76861,-1.11206c0.4983,-0.06416 0.95467,0.33298 1.02524,0.8811c0.07057,0.54811 -0.27033,1.0479 -0.76861,1.11206c-0.4983,0.06416 -0.95467,-0.33298 -1.02524,-0.8811" fill="#001026" stroke="none" stroke-width="1" stroke-linecap="butt" stroke-linejoin="miter"/></g></g><path d="M334.55597,171.88235c0,0 -0.12661,0.08509 -0.29696,0.10899c0.00978,0.17864 0.04611,0.381 0.12819,0.64405c0.10278,0.78139 0.2034,1.56303 0.30404,2.34469l0.1706,0.46744c0,0 0.20079,0.59503 -0.39425,0.79583c-0.59504,0.20079 -0.79583,-0.39425 -0.79583,-0.39425l-0.22625,-0.70863c-0.09623,-0.74741 -0.19269,-1.49477 -0.28657,-2.24248c-0.44892,-1.53168 -0.17696,-3.70619 0.09506,-5.14213c0.21972,-1.15986 1.36706,-1.76649 1.57397,-3.02513c0.07658,-0.46586 -0.33044,-0.90969 -0.31244,-1.38146c0.00923,-0.24177 0.28243,-0.42534 0.28569,-0.66727c0.01723,-1.27883 -0.32212,-1.43992 0.39744,-2.64331c0,0 0.32648,-0.53647 0.86295,-0.20999c0.53647,0.32648 0.20999,0.86295 0.20999,0.86295c-0.89553,1.43934 -0.01248,2.69929 -0.20029,4.21704c-0.12879,1.04085 -0.76693,1.9517 -1.41407,2.66967c-0.02573,0.02856 -0.04776,0.05583 -0.06647,0.08202c0.12785,0.04178 0.21366,0.10802 0.21366,0.10802c0.18168,0.14023 0.36335,0.28046 0.54502,0.42069l0.25469,0.53765c0,0 0.0802,0.62286 -0.54267,0.70306c-0.41636,0.05361 -0.59023,-0.20695 -0.65976,-0.38561c-0.0055,-0.00425 -0.01101,-0.00849 -0.0165,-0.01274c-0.08662,0.10389 -0.17458,0.2074 -0.20713,0.33392c-0.09018,0.35066 0.10073,0.71062 0.17343,1.07206c0.15332,-0.11616 0.33094,-0.13903 0.33094,-0.13903l0.55118,1.12856c-0.22589,0.1518 -0.45178,0.3036 -0.67766,0.4554z" fill="#a00000" fill-rule="nonzero" stroke="none" stroke-width="0.5" stroke-linecap="butt" stroke-linejoin="miter"/><path d="M332.34137,176.88528c-0.59504,0.20079 -0.79583,-0.39425 -0.79583,-0.39425l-0.16893,-0.51577c-0.1181,-0.24609 -0.23621,-0.49219 -0.35431,-0.73828c-0.20406,-0.6818 -0.78763,-1.47976 -0.78961,-2.19835c-0.00172,-0.62323 0.38183,-1.42689 0.50298,-2.04644c0.33589,-1.71775 0.65618,-3.67625 0.7538,-5.41416c0.08669,-1.54336 -0.59892,-3.60991 -0.80065,-5.17669c0,0 -0.0802,-0.62286 0.54267,-0.70306c0.62286,-0.0802 0.70306,0.54267 0.70306,0.54267c0.21521,1.67154 0.88965,3.75825 0.80851,5.41515c-0.08771,1.7909 -0.42884,3.81918 -0.77564,5.58177c-0.01122,0.05702 -0.47455,1.64374 -0.47933,1.76151c-0.01979,0.48747 0.56209,1.31358 0.70454,1.78163c0.10502,0.21605 0.21004,0.43209 0.31506,0.64813l0.22792,0.66029c0,0 0.20079,0.59503 -0.39425,0.79583z" fill="#a00000" fill-rule="nonzero" stroke="none" stroke-width="0.5" stroke-linecap="butt" stroke-linejoin="miter"/><path d="M322.36645,184.86849c-0.49714,-0.38373 -0.11341,-0.88086 -0.11341,-0.88086l0.3273,-0.37501c-0.01213,-2.16794 -0.01769,-4.39916 0.07375,-6.57057c0.07189,-1.70722 -1.11419,-3.23891 0.68508,-4.37888c0,0 0.54853,-0.30578 0.85432,0.24274c0.30578,0.54852 -0.24275,0.85431 -0.24275,0.85431c-0.81916,0.33171 -0.23026,1.76183 -0.13937,2.49795c0.30867,2.49995 0.11994,5.26975 -0.04998,7.78185l-0.51408,0.71505c0,0 -0.38372,0.49713 -0.88086,0.11341z" fill="#a00000" fill-rule="nonzero" stroke="none" stroke-width="0.5" stroke-linecap="butt" stroke-linejoin="miter"/><path d="M320.80567,184.51859c-0.62286,0.0802 -0.70306,-0.54267 -0.70306,-0.54267l-0.06688,-0.58634c0.08528,-2.29757 -0.15302,-4.53591 0.11602,-6.82375c0.1678,-1.42699 0.87783,-2.81745 0.91502,-4.23073c0,0 0.02329,-0.62757 0.65086,-0.60428c0.62757,0.02329 0.60428,0.65086 0.60428,0.65086c-0.06742,1.48171 -0.75124,2.86776 -0.92527,4.3509c-0.26355,2.24605 -0.02193,4.44495 -0.10577,6.70359l0.05746,0.37937c0,0 0.0802,0.62286 -0.54267,0.70306z" fill="#a00000" fill-rule="nonzero" stroke="none" stroke-width="0.5" stroke-linecap="butt" stroke-linejoin="miter"/><path d="M338.24442,167.53718c-0.59847,0.19032 -0.78879,-0.40815 -0.78879,-0.40815l-0.03175,-0.09984c-0.42371,-1.93045 -0.34459,-1.99413 1.43828,-2.53712c0,0 0.6012,-0.1815 0.7827,0.4197c0.1815,0.6012 -0.4197,0.7827 -0.4197,0.7827c-0.32752,0.09789 -1.03275,-0.14505 -1.00664,0.19578c0.02186,0.28529 0.2682,0.50552 0.4023,0.75828l0.03175,0.09984c0,0 0.19032,0.59847 -0.40815,0.78879z" fill="#a00000" fill-rule="nonzero" stroke="none" stroke-width="0.5" stroke-linecap="butt" stroke-linejoin="miter"/><path d="M337.89386,169.6591c-0.0802,-0.62286 0.54267,-0.70306 0.54267,-0.70306l0.12072,-0.01554c0.48287,-0.06217 0.96573,-0.12434 1.44859,-0.18651c0,0 0.62286,-0.0802 0.70306,0.54267c0.0802,0.62286 -0.54267,0.70306 -0.54267,0.70306c-0.48286,0.06217 -1.08644,0.13988 -1.56929,0.20205c0,0 -0.62286,0.0802 -0.70306,-0.54267z" fill="#a00000" fill-rule="nonzero" stroke="none" stroke-width="0.5" stroke-linecap="butt" stroke-linejoin="miter"/><path d="M336.35239,171.496c0.38373,-0.49713 0.88086,-0.11341 0.88086,-0.11341l0.36879,0.72319c-0.0494,0.25179 -0.09878,0.50359 -0.14818,0.75537c0,0 -0.12089,0.61626 -0.73715,0.49537c-0.61626,-0.12088 -0.49537,-0.73714 -0.49537,-0.73714c0.02782,-0.14185 0.05565,-0.2837 0.08347,-0.42554c-0.10123,-0.1593 -0.175,-0.40949 0.04757,-0.69784z" fill="#a00000" fill-rule="nonzero" stroke="none" stroke-width="0.5" stroke-linecap="butt" stroke-linejoin="miter"/><path d="M354.5542,195.87718c-0.45017,0.43787 -0.88804,-0.0123 -0.88804,-0.0123l0.00256,-0.24654c-0.37504,-0.01509 -0.74101,0.00256 -1.10675,0.02227c-0.08564,0.07884 -0.16621,0.11774 -0.16621,0.11774c-0.21105,0.1005 -0.4101,0.23153 -0.63313,0.30151c-0.08493,0.02666 -0.28567,-0.10614 -0.26636,-0.01924c0.05749,0.25859 0.56033,0.4588 0.41301,0.67896c-0.26978,0.40317 -0.84728,0.48132 -1.30218,0.64984c-0.25551,0.09465 -0.9023,-0.29031 -0.81684,-0.03157c0.06853,0.20745 0.43347,0.38631 0.31914,0.57249c-0.48345,0.78735 -1.91007,1.29571 -2.43519,0.01876c-0.15313,-0.37238 0.35463,-0.72297 0.53195,-1.08445l0.53766,-0.25469c0,0 0.12094,-0.01556 0.26308,0.0203c0.13718,-0.12376 0.32031,-0.24643 0.55521,-0.35966c0.24159,-0.11645 0.52911,-0.1306 0.79668,-0.11241c0.13454,0.00915 0.41212,0.31379 0.35674,0.19083c-0.08734,-0.19389 -0.52508,-0.23046 -0.4667,-0.43493c0.08089,-0.2833 0.27166,-0.5019 0.50667,-0.6798c-0.01253,-0.05695 -0.01841,-0.12098 -0.01574,-0.19295c0.02329,-0.62757 0.65086,-0.60428 0.65086,-0.60428c0.78761,0.03169 1.53525,-0.08103 2.32467,-0.05387l0.8512,0.62593c0,0 0.43787,0.45017 -0.0123,0.88804z" fill="#a00000" fill-rule="nonzero" stroke="none" stroke-width="0.5" stroke-linecap="butt" stroke-linejoin="miter"/><path d="M354.02438,199.81346c-0.38373,0.49713 -0.88086,0.11341 -0.88086,0.11341l-0.51789,-0.42343c-0.14662,-0.18565 -0.29324,-0.3713 -0.43986,-0.55695c0,0 -0.38923,-0.49284 0.10361,-0.88207c0.49284,-0.38923 0.88207,0.10361 0.88207,0.10361c0.14662,0.18566 0.29324,0.37131 0.43986,0.55695l0.29965,0.20761c0,0 0.49713,0.38373 0.11341,0.88086z" fill="#a00000" fill-rule="nonzero" stroke="none" stroke-width="0.5" stroke-linecap="butt" stroke-linejoin="miter"/><path d="M352.42298,202.37576l-0.21397,-0.70875c0,0 -0.1815,-0.6012 0.4197,-0.7827c0.6012,-0.1815 0.7827,0.4197 0.7827,0.4197l0.21397,0.70875c0,0 0.1815,0.6012 -0.4197,0.7827c-0.6012,0.1815 -0.7827,-0.4197 -0.7827,-0.4197z" fill="#a00000" fill-rule="nonzero" stroke="none" stroke-width="0.5" stroke-linecap="butt" stroke-linejoin="miter"/><path d="M358.96799,200.11684c-0.20682,0.59297 -0.79979,0.38615 -0.79979,0.38615l-0.54299,-0.29338c-0.14662,-0.18566 -0.29324,-0.37131 -0.43986,-0.55695c0,0 -0.11812,-0.14957 -0.14183,-0.34899c-0.22314,-0.07296 -0.39608,-0.26864 -0.42806,-0.51699c-0.04429,-0.344 0.19867,-0.65877 0.54267,-0.70306c0.344,-0.04429 0.65877,0.19867 0.70306,0.54267c0.00125,0.0097 0.00226,0.01938 0.00306,0.02903c0.18859,0.06925 0.30677,0.2189 0.30677,0.2189c0.14662,0.18566 0.29324,0.37131 0.43986,0.55695l-0.02904,-0.11411c0,0 0.59296,0.20683 0.38615,0.79979z" fill="#a00000" fill-rule="nonzero" stroke="none" stroke-width="0.5" stroke-linecap="butt" stroke-linejoin="miter"/><path d="M349.31276,196.86132c-0.49713,-0.38373 -0.11341,-0.88086 -0.11341,-0.88086l0.29653,-0.30106c0.00877,-0.0049 0.01755,-0.00978 0.02632,-0.01467c-0.09374,-0.1542 -0.23218,-0.49526 0.12058,-0.8022c0.47377,-0.41223 0.886,0.06154 0.886,0.06154l0.19802,0.24615c0.36552,0.28574 0.70166,0.46763 0.82741,0.72213c0.09668,0.01897 0.18639,0.0604 0.26264,0.11926l0.54503,0.42069v0c0.12723,0.09821 0.21699,0.24494 0.23914,0.41695c0.0314,0.24391 -0.08162,0.47313 -0.27266,0.60165l0.21837,0.3702c0.04595,0.074 0.07716,0.15879 0.08901,0.25083c0.04429,0.344 -0.19867,0.65877 -0.54267,0.70306c-0.10461,0.01347 -0.20652,0.00037 -0.29894,-0.03406l-0.75899,-0.26473l0.00244,-0.00698l-0.02504,-0.00139c-0.47686,-0.21158 -0.9346,-0.47636 -1.34953,-0.79258c0,0 -0.39638,-0.30595 -0.20806,-0.72541c-0.04613,-0.02196 -0.09361,-0.05103 -0.14216,-0.08851zM350.38944,196.65336c-0.00599,-0.00801 -0.01199,-0.01602 -0.01798,-0.02405c-0.00392,0.00219 -0.00784,0.00436 -0.01176,0.00655c0.0111,0.00621 0.02106,0.01212 0.02974,0.01749z" fill="#ffffff" fill-rule="nonzero" stroke="none" stroke-width="0.5" stroke-linecap="butt" stroke-linejoin="miter"/><path d="M334.56903,176.21122c0.30956,-0.54641 0.85596,-0.23685 0.85596,-0.23685l0.13647,0.49214c0.05752,-0.18393 0.11907,-0.35225 0.17022,-0.47356c0,0 0.25168,-0.57536 0.82705,-0.32367c0.57536,0.25169 0.32367,0.82705 0.32367,0.82705c-0.55116,1.1987 -0.05075,3.17005 -2.03759,1.79884c-0.18953,-0.13081 -0.28794,-0.35881 -0.42829,-0.54208l-0.49872,-0.38495l0.1543,-0.19991l-0.33471,-0.57316c0.22097,-0.03507 0.44293,-0.06985 0.66372,-0.11009l0.05729,-0.22208l0.07456,0.01924c0.01045,-0.02318 0.02245,-0.04682 0.0361,-0.07093z" fill="#8da900" fill-rule="nonzero" stroke="none" stroke-width="0.5" stroke-linecap="butt" stroke-linejoin="miter"/><path d="M326.68583,178.3855c0,0 0.38034,-0.49274 0.87426,-0.11845c0.08659,-0.19248 0.26816,-0.3368 0.49285,-0.36573c0.17199,-0.02214 0.33669,0.02753 0.46392,0.12573v0l0.27524,0.21245c0.14883,-0.00351 0.294,-0.02811 0.43156,-0.08427l0.45169,-0.37256c0,0 0.41449,-0.32735 0.78343,-0.00154c0.1427,-0.09599 0.41177,-0.21256 0.69781,-0.00138c0.35132,-0.30608 0.84384,-0.68888 0.99162,-0.80633l0.42975,-0.14556c0,0 0.16863,-0.02171 0.34171,0.04521c0.00782,-0.06347 0.01833,-0.12593 0.03393,-0.18641c0,0 0.15687,-0.6081 0.76496,-0.45123c0.6081,0.15686 0.45123,0.76496 0.45123,0.76496c-0.0247,0.09575 -0.08478,0.33659 -0.15407,0.5983c0.10825,0.09701 0.18353,0.23185 0.20354,0.38733c0.01672,0.12986 -0.00749,0.25556 -0.06262,0.3641c0.04263,0.23789 -0.09065,0.4271 -0.17711,0.52132c0.00333,0.00182 0.00667,0.00366 0.00999,0.00555c0.27402,0.03765 0.49995,0.25458 0.53697,0.54207c0.04429,0.344 -0.19867,0.65877 -0.54267,0.70306c-0.14886,0.01917 -0.29226,-0.01546 -0.41063,-0.08879c-0.13011,-0.01106 -0.2607,-0.03007 -0.39025,-0.05682c-0.02385,0.00523 -0.0489,0.00959 -0.07521,0.01298c-0.29196,0.03759 -0.46468,-0.07928 -0.56581,-0.21408c-0.19991,-0.08597 -0.3901,-0.19188 -0.56386,-0.3168l-0.08007,0.0062c0,0 -0.21256,-0.07414 -0.33876,-0.26092c-0.17566,-0.05199 -0.33391,-0.14075 -0.46187,-0.27413c-0.35031,0.57005 -0.05584,1.48679 -0.70647,1.84918c-0.90701,0.50518 -1.81799,-0.53176 -2.32775,-1.1664c-0.1488,0.17661 -0.29456,0.3553 -0.4176,0.55015c-0.19353,0.30647 -0.1735,0.86066 -0.52406,0.95275c-0.42426,0.11145 -1.38339,-0.71367 -1.73544,-0.98888l-0.03183,-0.07263l-0.01942,0.01534l-0.43346,-0.54885c-0.0719,-0.08785 -0.12086,-0.19626 -0.13642,-0.31713c-0.04429,-0.344 0.19867,-0.65877 0.54267,-0.70306c0.03358,-0.00432 0.06688,-0.00591 0.09969,-0.00493l0.84975,0.01177l-0.00021,0.01486c0.21096,-0.04003 0.42274,-0.07512 0.6356,-0.10303l-0.20659,-0.03337zM329.52761,179.35673c-0.01212,0.0044 -0.02423,0.00886 -0.03635,0.01337c0.01349,0.01635 0.02675,0.03242 0.03971,0.04816c-0.0018,-0.01987 -0.00291,-0.04043 -0.00335,-0.06152z" fill="#8da900" fill-rule="nonzero" stroke="none" stroke-width="0.5" stroke-linecap="butt" stroke-linejoin="miter"/><path d="M329.95394,181.26445c1.05839,-0.84428 1.34528,-0.86498 2.15839,-0.52228c0.30571,-0.29434 0.97524,-0.17734 1.54525,0.0397l0.14588,-0.29898c0.57923,-0.14964 1.23453,-0.12039 1.79214,0.09631c0,0 0.57536,0.25169 0.32367,0.82706c-0.2517,0.57535 -0.82706,0.32367 -0.82706,0.32367c-0.02551,-0.01364 -0.05185,-0.02608 -0.07885,-0.03735c-0.06599,0.23099 -0.26217,0.41289 -0.51413,0.44928c-0.16791,0.17443 -0.3507,0.20066 -0.50101,0.17671l-0.54687,0.1951c-0.18471,-0.0405 -0.41755,-0.02097 -0.63232,-0.02397c-0.31123,0.52166 -0.84556,0.21894 -0.84556,0.21894l-0.13973,-0.22352c-0.49984,0.06275 -1.01753,0.09078 -1.52702,0.05573l-0.0095,0.2562l-0.72952,-0.02707c-0.30597,-0.00594 -0.56963,-0.23512 -0.60988,-0.54776c-0.03608,-0.28019 0.11842,-0.54099 0.36286,-0.65203l0.63327,-0.30575z" fill="#8da900" fill-rule="nonzero" stroke="none" stroke-width="0.5" stroke-linecap="butt" stroke-linejoin="miter"/><path d="M336.50418,178.701c-0.32648,0.53647 -0.86295,0.20999 -0.86295,0.20999l-0.96711,-0.92749c0.31841,-0.33026 0.63683,-0.66051 0.95523,-0.99077c0,0 0.52125,-0.35029 0.87152,0.17095c0.24802,0.36906 0.0591,0.65242 -0.07234,0.78642c0.13329,0.13853 0.28935,0.39972 0.07564,0.75089z" fill="#a00000" fill-rule="nonzero" stroke="none" stroke-width="0.5" stroke-linecap="butt" stroke-linejoin="miter"/><path d="M335.13007,179.34135c0.0802,0.62286 -0.54267,0.70306 -0.54267,0.70306l-0.24143,0.03108c-0.30577,0.03523 -0.61481,-0.00621 -0.91697,-0.09355l-0.04438,0.17204l-0.6205,-0.16006c-0.24793,-0.05787 -0.44573,-0.2642 -0.48015,-0.53155c-0.03442,-0.26736 0.10466,-0.51706 0.32985,-0.63584l0.55972,-0.31201l0.02185,0.0392l0.0874,-0.08713c0.28021,-0.03989 0.56042,-0.07978 0.84063,-0.11966c0,0 0.60848,-0.07834 0.70004,0.52125c0.14057,0.0709 0.27254,0.20863 0.30661,0.4732z" fill="#a00000" fill-rule="nonzero" stroke="none" stroke-width="0.5" stroke-linecap="butt" stroke-linejoin="miter"/><path d="M332.39728,181.24332c-0.12089,0.61626 -0.73715,0.49537 -0.73715,0.49537l-0.3508,-0.06942c-0.16731,-0.0321 -0.35659,-0.02323 -0.5377,-0.02959c-0.14817,0.26497 -0.47972,0.30766 -0.47972,0.30766l-0.96572,0.12434c-0.10523,0.01355 -0.20774,0.00022 -0.30059,-0.03467c-0.01827,0.00551 -0.03661,0.01095 -0.05501,0.01633l-0.24809,0.08378c0,0 -0.59504,0.20079 -0.79584,-0.39425c-0.04752,-0.14084 -0.05047,-0.25959 -0.02726,-0.35881c0.046,-0.26146 0.26024,-0.38797 0.38725,-0.44096c-0.07929,-0.09054 -0.13347,-0.20482 -0.14999,-0.33317c-0.03442,-0.26736 0.10466,-0.51706 0.32985,-0.63584l0.55972,-0.31201l0.01162,0.02083l0.04911,-0.05051c0.59922,-0.18204 1.21838,-0.30169 1.83933,-0.38295c0,0 0.62286,-0.0802 0.70306,0.54267c0.00513,0.03985 0.00738,0.07747 0.00711,0.11299c0.05864,0.05314 0.11176,0.12502 0.15386,0.22144c0.09217,0.09417 0.15558,0.21801 0.17371,0.35878c0.00169,0.01315 0.00297,0.02627 0.00383,0.03932c0.1556,0.05188 0.52555,0.22869 0.42942,0.71871z" fill="#a00000" fill-rule="nonzero" stroke="none" stroke-width="0.5" stroke-linecap="butt" stroke-linejoin="miter"/><path d="M326.89272,181.28056c-0.344,0.04429 -0.65877,-0.19867 -0.70306,-0.54267c-0.04429,-0.344 0.19867,-0.65877 0.54267,-0.70306c0.344,-0.04429 0.65877,0.19867 0.70306,0.54267c0.04429,0.344 -0.19867,0.65877 -0.54267,0.70306z" fill="#a00000" fill-rule="nonzero" stroke="none" stroke-width="0.5" stroke-linecap="butt" stroke-linejoin="miter"/><path d="M332.48884,179.80377c0.04005,0.31102 -0.0952,0.48673 -0.24068,0.58471c-0.00255,0.01319 -0.0055,0.02627 -0.00887,0.0392c0.09651,-0.01769 0.19731,-0.02706 0.30338,-0.02537c0.22869,0.00365 0.45433,0.07807 0.67953,0.1362c0.67737,-0.0918 1.35529,-0.16387 2.01041,-0.24822l0.84501,-0.1088c0.344,-0.04429 0.65877,0.19867 0.70306,0.54267c0.04025,0.31263 -0.15675,0.60112 -0.45124,0.68438l-0.54032,0.16312c0,0.36451 -0.36697,0.54169 -0.36697,0.54169c-2.11947,1.02329 -3.78176,1.01391 -6.07512,0.92878l-0.72952,-0.02707c-0.30597,-0.00594 -0.56963,-0.23512 -0.60988,-0.54776c-0.01203,-0.09344 -0.00287,-0.18472 0.02376,-0.26901c-0.18989,-0.01959 -0.49551,-0.11798 -0.55006,-0.54165c-0.05047,-0.39198 0.1775,-0.56903 0.35345,-0.64644c0.00323,-0.0069 0.00662,-0.01383 0.01015,-0.02081c-0.07133,-0.17323 -0.14086,-0.50834 0.22942,-0.75717c0.52124,-0.35028 0.87152,0.17096 0.87152,0.17096c0.05364,0.12751 0.14117,0.25303 0.22511,0.37876c0.07695,-0.122 0.21182,-0.22932 0.44659,-0.25954c0.56656,-0.07295 0.68413,0.4358 0.70075,0.52838c0.11325,0.02334 0.2211,0.02584 0.32557,0.01312c0.05518,-0.01703 0.11059,-0.03361 0.16621,-0.04974c0.02325,-0.0912 0.06665,-0.17528 0.12578,-0.24646c0.00546,-0.2536 -0.0083,-0.50796 -0.04226,-0.75854l0.8922,-0.74806c0,0 0.62286,-0.0802 0.70306,0.54267zM329.99609,180.93202c0.08287,0.04363 0.16254,0.07583 0.23961,0.09821z" fill="#000000" fill-rule="nonzero" stroke="none" stroke-width="0.5" stroke-linecap="butt" stroke-linejoin="miter"/><path d="M330.59177,180.4744l-0.68107,0.22982" fill="none" fill-rule="nonzero" stroke="#001026" stroke-width="1.2" stroke-linecap="round" stroke-linejoin="miter"/><path d="M331.04512,180.13177l-2.15604,0.91719" fill="none" fill-rule="nonzero" stroke="#a00000" stroke-width="1.2" stroke-linecap="round" stroke-linejoin="miter"/><path d="M331.23474,179.39669l-0.58687,2.06543" fill="none" fill-rule="nonzero" stroke="#000000" stroke-width="1.2" stroke-linecap="round" stroke-linejoin="miter"/><path d="M329.83599,181.77985l-1.76509,-2.11794" fill="none" fill-rule="nonzero" stroke="#000000" stroke-width="1.2" stroke-linecap="round" stroke-linejoin="miter"/><path d="M339.86673,184.5403c-0.01092,-0.62791 0.61699,-0.63883 0.61699,-0.63883l0.70438,-0.00876c0.01803,0.02264 0.03607,0.04528 0.0541,0.06791l0.0115,-0.0586l0.64196,0.12594c0.19968,0.03434 0.37139,0.16415 0.45915,0.34621c0.74977,0.27944 1.58597,1.23023 0.8464,2.16249c-0.7439,0.93772 -3.05714,0.45782 -3.18953,-0.85291c-0.02389,-0.23664 0.03136,-0.44364 0.14111,-0.61893c-0.14514,-0.08166 -0.28101,-0.23534 -0.28604,-0.5245z" fill="#a00000" fill-rule="nonzero" stroke="none" stroke-width="0.5" stroke-linecap="butt" stroke-linejoin="miter"/><path d="M341.79237,185.77723c-0.344,0.04429 -0.65877,-0.19867 -0.70306,-0.54267c-0.04429,-0.344 0.19867,-0.65877 0.54267,-0.70306c0.344,-0.04429 0.65877,0.19867 0.70306,0.54267c0.04429,0.344 -0.19867,0.65877 -0.54267,0.70306z" fill="#ffffff" fill-rule="nonzero" stroke="none" stroke-width="0.5" stroke-linecap="butt" stroke-linejoin="miter"/><path d="M330.97732,180.70903l-1.89441,0.74138l-0.63337,-1.05552" fill="none" fill-rule="nonzero" stroke="#000000" stroke-width="1.2" stroke-linecap="round" stroke-linejoin="miter"/><path d="M340.72804,190.2557c0.04429,0.344 -0.19867,0.65877 -0.54267,0.70306c-0.0392,0.00505 -0.07802,0.00636 -0.1161,0.00423c0.12478,0.09817 0.21264,0.24343 0.23452,0.41334c0.04429,0.344 -0.19867,0.65877 -0.54267,0.70306c-0.11485,0.01479 -0.22645,-0.00244 -0.3258,-0.04477c-0.04727,0.26237 -0.25953,0.47547 -0.53799,0.51132c-0.05404,0.00696 -0.10736,0.00683 -0.15902,0.00033c-0.01613,0.29659 -0.24179,0.54874 -0.54696,0.58803c-0.344,0.04429 -0.65877,-0.19867 -0.70306,-0.54267c-0.00344,-0.02674 -0.00515,-0.0533 -0.00521,-0.07957c-0.3203,0.01119 -0.60231,-0.22327 -0.64406,-0.54749c-0.04429,-0.344 0.19867,-0.65877 0.54267,-0.70306c0.02674,-0.00344 0.05331,-0.00515 0.07958,-0.00521c-0.01119,-0.3203 0.22327,-0.60231 0.54749,-0.64406c0.05977,-0.0077 0.11867,-0.00671 0.17542,0.00196c0.04394,-0.26652 0.25789,-0.48415 0.53956,-0.52041c0.08354,-0.01076 0.16535,-0.00457 0.24198,0.01588c0.03515,-0.27688 0.2532,-0.50604 0.54291,-0.54334c0.06809,-0.00877 0.13504,-0.00627 0.19897,0.00602c0.06569,-0.23585 0.26691,-0.42134 0.52501,-0.45457c0.344,-0.04429 0.65877,0.19867 0.70306,0.54267c0.02802,0.21767 -0.05896,0.42363 -0.21378,0.55677c0.00243,0.01268 0.00448,0.0255 0.00616,0.03849zM339.60075,190.83369c0.0392,-0.00505 0.07802,-0.00636 0.1161,-0.00423c-0.00852,-0.0067 -0.01686,-0.01361 -0.02502,-0.02074c-0.00755,0.00125 -0.01515,0.00236 -0.0228,0.00335c-0.08354,0.01076 -0.16535,0.00457 -0.24198,-0.01588c-0.00411,0.03235 -0.01071,0.06405 -0.01963,0.09486c0.05938,-0.02871 0.12431,-0.04848 0.19333,-0.05737zM338.98555,191.31794c0.02641,0.00735 0.05218,0.01642 0.07718,0.02707c0.00384,-0.0213 0.00876,-0.04227 0.01472,-0.06285c-0.02934,0.01418 -0.06002,0.02618 -0.09189,0.03577zM338.08995,191.88377c0.03385,-0.00118 0.06727,0.00037 0.10003,0.00449c0.00062,-0.01133 0.00154,-0.02259 0.00276,-0.03377c-0.00781,0.0013 -0.01567,0.00247 -0.02359,0.00349c-0.02674,0.00344 -0.0533,0.00515 -0.07957,0.00521c0.00024,0.00688 0.00037,0.01374 0.00038,0.02058z" fill="#e93e3e" fill-rule="nonzero" stroke="none" stroke-width="0.5" stroke-linecap="butt" stroke-linejoin="miter"/><path d="M349.44852,188.99081c0.04429,0.344 -0.19867,0.65877 -0.54267,0.70306c-0.09103,0.01172 -0.18001,0.00333 -0.26248,-0.02173c-0.09403,0.0916 -0.21746,0.1546 -0.35769,0.17265c-0.14366,0.0185 -0.28222,-0.01311 -0.39812,-0.08124c-0.09795,0.1378 -0.2509,0.23587 -0.43178,0.25916c-0.1696,0.02184 -0.33209,-0.02614 -0.45856,-0.12163c-0.08239,0.2033 -0.26907,0.35746 -0.50214,0.38746c-0.18324,0.02359 -0.35819,-0.03432 -0.48837,-0.14559c-0.09054,0.1803 -0.26617,0.31381 -0.48133,0.34151c-0.27197,0.03502 -0.52565,-0.10951 -0.64186,-0.34155c-0.09574,0.09986 -0.22496,0.16889 -0.37285,0.18793c-0.18299,0.02356 -0.35773,-0.03417 -0.48786,-0.14516c-0.05468,0.25247 -0.2629,0.45502 -0.53375,0.48989c-0.14366,0.0185 -0.28222,-0.01311 -0.39812,-0.08124c-0.09795,0.13779 -0.2509,0.23587 -0.43178,0.25916c-0.07358,0.00948 -0.14583,0.0058 -0.21438,-0.00919c-0.06251,0.03186 -0.13148,0.05372 -0.20506,0.0632c-0.05672,0.0073 -0.11264,0.0068 -0.16669,-0.00068c-0.08723,0.07034 -0.19436,0.11824 -0.31366,0.1336c-0.20136,0.02592 -0.39269,-0.04657 -0.52564,-0.18013c-0.09024,0.07838 -0.20381,0.13191 -0.33126,0.14832c-0.344,0.04429 -0.65877,-0.19867 -0.70306,-0.54267c-0.04429,-0.344 0.19867,-0.65877 0.54267,-0.70306c0.20136,-0.02592 0.39269,0.04657 0.52564,0.18013c0.09024,-0.07838 0.20381,-0.13191 0.33126,-0.14832c0.05672,-0.0073 0.11264,-0.0068 0.16669,0.00068c0.08723,-0.07035 0.19436,-0.11824 0.31366,-0.1336c0.07358,-0.00948 0.14583,-0.00581 0.21438,0.00918c0.06251,-0.03186 0.13148,-0.05371 0.20507,-0.06319c0.14366,-0.0185 0.28222,0.01311 0.39812,0.08124c0.09794,-0.13779 0.25089,-0.23587 0.43177,-0.25916c0.18299,-0.02356 0.35773,0.03417 0.48786,0.14516c0.05469,-0.25248 0.2629,-0.45502 0.53375,-0.48989c0.27196,-0.03501 0.52565,0.10951 0.64186,0.34155c0.09574,-0.09986 0.22496,-0.16889 0.37285,-0.18793c0.18324,-0.02359 0.35819,0.03432 0.48837,0.14559c0.09054,-0.1803 0.26617,-0.31381 0.48133,-0.34151c0.1696,-0.02184 0.33209,0.02615 0.45856,0.12164c0.08239,-0.20329 0.26907,-0.35746 0.50214,-0.38746c0.14366,-0.0185 0.28222,0.01311 0.39812,0.08124c0.09794,-0.13779 0.2509,-0.23587 0.43178,-0.25916c0.09103,-0.01172 0.18001,-0.00333 0.26248,0.02173c0.09403,-0.0916 0.21746,-0.1546 0.35769,-0.17265c0.344,-0.04429 0.65877,0.19867 0.70306,0.54267z" fill="#e93e3e" fill-rule="nonzero" stroke="none" stroke-width="0.5" stroke-linecap="butt" stroke-linejoin="miter"/><path d="M336.7959,191.67946c-0.344,0.04429 -0.65877,-0.19867 -0.70306,-0.54267c-0.04174,-0.32423 0.17167,-0.62248 0.48437,-0.69279c-0.0066,-0.02543 -0.01168,-0.05156 -0.01512,-0.0783c-0.04429,-0.344 0.19867,-0.65877 0.54267,-0.70306c0.13315,-0.01714 0.26192,0.00875 0.37232,0.06688c-0.00337,-0.01611 -0.00614,-0.03248 -0.00828,-0.04909c-0.04429,-0.344 0.19867,-0.65877 0.54267,-0.70306c0.12373,-0.01593 0.24368,0.0053 0.34861,0.05502c0.06653,-0.23448 0.26715,-0.41857 0.52419,-0.45167c0.09105,-0.01172 0.18005,-0.00332 0.26253,0.02175c0.05815,-0.24753 0.26431,-0.44492 0.53135,-0.4793c0.344,-0.04429 0.65877,0.19867 0.70306,0.54267c0.04429,0.344 -0.19867,0.65877 -0.54267,0.70306c-0.09105,0.01172 -0.18005,0.00332 -0.26253,-0.02175c-0.05815,0.24753 -0.26431,0.44492 -0.53135,0.4793c-0.12372,0.01593 -0.24367,-0.0053 -0.34861,-0.05502c-0.06653,0.23448 -0.26716,0.41857 -0.52419,0.45167c-0.13315,0.01714 -0.26192,-0.00875 -0.37232,-0.06688c0.00337,0.01611 0.00614,0.03248 0.00828,0.04909c0.04174,0.32423 -0.17168,0.62247 -0.48437,0.69278c0.0066,0.02544 0.01168,0.05157 0.01512,0.07831c0.04429,0.344 -0.19867,0.65877 -0.54267,0.70306z" fill="#e93e3e" fill-rule="nonzero" stroke="none" stroke-width="0.5" stroke-linecap="butt" stroke-linejoin="miter"/><path d="M351.7079,188.82656c-0.0688,0.00886 -0.13175,-0.03974 -0.14061,-0.10853c-0.00886,-0.0688 0.03974,-0.13175 0.10853,-0.14061c0.0688,-0.00886 0.13175,0.03974 0.14061,0.10853c0.00886,0.0688 -0.03974,0.13175 -0.10853,0.14061z" fill="#a00000" fill-rule="nonzero" stroke="none" stroke-width="0.5" stroke-linecap="butt" stroke-linejoin="miter"/><path d="M350.66192,186.48856c-0.08244,-0.09476 0.01231,-0.1772 0.01231,-0.1772l0.00443,-0.00385c0.12634,-0.10992 0.25268,-0.21986 0.37901,-0.32978c0,0 0.09476,-0.08244 0.1772,0.01231c0.08244,0.09476 -0.01231,0.1772 -0.01231,0.1772c-0.12634,0.10993 -0.2571,0.22371 -0.38344,0.33364c0,0 -0.09476,0.08244 -0.1772,-0.01231z" fill="#a00000" fill-rule="nonzero" stroke="none" stroke-width="0.5" stroke-linecap="butt" stroke-linejoin="miter"/><path d="M352.26904,186.92211c0.01518,0.11791 -0.02589,0.23011 -0.10238,0.30959c0.1059,0.02966 0.22726,0.10837 0.2533,0.31058c0.04812,0.37372 -0.3256,0.42183 -0.3256,0.42183l-0.07903,0.00501c-0.04143,0.01218 -0.08176,0.02505 -0.12118,0.03846c-0.00769,0.04362 -0.02297,0.08499 -0.04461,0.12249c0.03829,-0.00073 0.09249,0.01244 0.11709,0.08534c0.00801,0.02375 0.00968,0.04436 0.00724,0.06214c0.00328,0.00944 0.0058,0.02002 0.00732,0.03188c0.01604,0.12457 -0.10853,0.14061 -0.10853,0.14061l-0.06991,0.009c-0.06235,0.0057 -0.12711,0.00253 -0.1906,-0.00905c-0.07906,0.01916 -0.16228,0.03857 -0.24492,0.05941c0.00085,0.00681 0.00179,0.01375 0.0028,0.02085l-0.08606,0.17169c0,0 -0.01215,0.01572 -0.03302,0.02984c0.00296,0.00831 0.00508,0.01707 0.00626,0.02619c0.00886,0.0688 -0.03974,0.13175 -0.10853,0.14061c-0.03369,0.00434 -0.06598,-0.00511 -0.0912,-0.02394c-0.00014,0.00488 -0.00055,0.00969 -0.00125,0.01444c0.01046,0.02028 0.01724,0.04605 0.0105,0.0754c0.00376,0.0095 0.0064,0.01961 0.00777,0.03021c0.00886,0.0688 -0.03974,0.13175 -0.10853,0.14061c-0.05259,0.00677 -0.10174,-0.02002 -0.12596,-0.06373c-0.00312,-0.0008 -0.0062,-0.00172 -0.00923,-0.00274c-0.04401,-0.01492 -0.07799,-0.05378 -0.08433,-0.10297c-0.00042,-0.00327 -0.00072,-0.00653 -0.00088,-0.00978c-0.0481,-0.03153 -0.09688,-0.06105 -0.14574,-0.09044c-0.05537,0.03721 -0.11074,0.07442 -0.16611,0.11163c0,0 -0.10425,0.07006 -0.1743,-0.03419c-0.04636,-0.069 -0.01638,-0.12301 0.0092,-0.15166c-0.01257,-0.01967 -0.02423,-0.03944 -0.03499,-0.05929c-0.06159,0.00793 -0.1232,0.01586 -0.18479,0.02379l0.01096,0.08515c0,0 0.00655,0.05085 -0.02121,0.09175c0.03666,0.00197 0.1064,0.01789 0.11812,0.10897c0.01604,0.12457 -0.10853,0.14061 -0.10853,0.14061l-0.06991,0.009c-0.06991,0.009 -0.13981,0.018 -0.20972,0.027c0,0 -0.12457,0.01604 -0.14061,-0.10853c-0.01604,-0.12457 0.10853,-0.14061 0.10853,-0.14061c0.02955,-0.0038 0.07159,-0.00922 0.11556,-0.01488c-0.03511,-0.03257 -0.04137,-0.08123 -0.04137,-0.08123l-0.00805,-0.06255l-0.05953,-0.01425c-0.00022,-0.00032 -0.00044,-0.00066 -0.00066,-0.00098c-0.0559,0.0072 -0.11179,0.01439 -0.16769,0.02159c0,0 -0.12457,0.01604 -0.14061,-0.10853c-0.01604,-0.12457 0.10853,-0.14061 0.10853,-0.14061c0.03085,-0.00397 0.06243,-0.00804 0.09459,-0.01218c0.00714,-0.02212 0.02268,-0.04463 0.05212,-0.06441c0.04575,-0.03074 0.08491,-0.02792 0.11446,-0.01507c-0.03525,-0.0839 -0.04131,-0.15612 -0.03038,-0.21734c-0.10013,-0.05637 -0.17332,-0.15766 -0.18912,-0.2804c-0.02657,-0.2064 0.1192,-0.39526 0.3256,-0.42183c0.10357,-0.01333 0.20271,0.01672 0.27916,0.07606c0.00474,-0.00118 0.00959,-0.0021 0.01455,-0.00274c0.0688,-0.00886 0.13175,0.03974 0.14061,0.10853c0.00241,0.01871 0.00057,0.03698 -0.00476,0.05385c0.09677,-0.09028 0.22662,-0.10699 0.22662,-0.10699c0.16511,-0.01755 0.31315,-0.06132 0.45573,-0.11656c-0.01455,-0.00327 -0.02933,-0.00311 -0.04413,0.00159c0,0 -0.08475,0.01091 -0.12344,-0.05518c-0.03176,0.00409 -0.06352,0.00818 -0.09528,0.01227l0.02248,0.03108c0,0 -0.07675,0.09943 -0.17617,0.02268c-0.09943,-0.07675 -0.02268,-0.17617 -0.02268,-0.17617l0.14429,-0.12674c0.11652,-0.015 0.23303,-0.03 0.34954,-0.04501c0,0 0.12457,-0.01604 0.14061,0.10853c0.00339,0.02633 0.00049,0.04782 -0.00617,0.06532c0.02368,0.01576 0.04652,0.03299 0.06833,0.05111c0.1315,-0.05978 0.26442,-0.12174 0.40834,-0.17371c-0.08812,-0.05832 -0.15135,-0.15317 -0.1659,-0.2662c-0.02657,-0.2064 0.1192,-0.39526 0.3256,-0.42183c0.2064,-0.02657 0.39526,0.1192 0.42183,0.3256zM350.91583,188.74634c0.03369,-0.00434 0.06598,0.00511 0.0912,0.02394c0.00054,-0.01881 0.00529,-0.0368 0.01344,-0.05291c-0.00426,-0.00481 -0.00815,-0.00995 -0.01164,-0.01539l-0.04357,-0.06485c-0.05209,0.02291 -0.09884,0.04792 -0.13799,0.07558c0.02108,0.01297 0.04211,0.02614 0.06304,0.03965c0.00812,-0.00284 0.01666,-0.00488 0.02554,-0.00602z" fill="#a00000" fill-rule="nonzero" stroke="none" stroke-width="0.5" stroke-linecap="butt" stroke-linejoin="miter"/><path d="M353.04489,186.32471l-0.00156,0.01754c0.04431,0.16012 0.08861,0.32024 0.13292,0.48036c0,0 0.009,0.03253 0.01188,0.08082c0.00329,0.01351 0.00586,0.02734 0.00768,0.04146c0.02657,0.2064 -0.1192,0.39526 -0.3256,0.42183c-0.2064,0.02657 -0.39526,-0.1192 -0.42183,-0.3256c-0.00144,-0.01118 -0.00237,-0.02231 -0.00282,-0.03336c-0.04284,-0.15484 -0.08569,-0.30968 -0.12854,-0.46453l-0.01956,-0.12228c0,0 -0.04812,-0.37372 0.3256,-0.42183c0.37372,-0.04812 0.42183,0.3256 0.42183,0.3256z" fill="#a00000" fill-rule="nonzero" stroke="none" stroke-width="0.5" stroke-linecap="butt" stroke-linejoin="miter"/><path d="M359.74191,187.61522c-0.92416,-0.06404 -2.29056,-1.52593 -3.28825,-1.20657c-0.05622,0.0997 -0.17109,0.21617 -0.39355,0.17253c-0.24509,-0.04808 -0.29585,-0.22676 -0.30223,-0.34177c-0.04137,-0.13051 -0.00646,-0.23118 0.04525,-0.30284l0.00755,-0.03798c0.47132,-1.82374 0.74608,-3.69256 1.36995,-5.46304c0.16011,-0.45436 0.14432,-1.94105 1.09641,-1.65321c0.37804,0.11429 0.43358,1.87064 0.47448,2.18831c0.14099,1.09508 0.29166,2.18937 0.42304,3.28566c0.02077,0.1733 0.12736,0.8023 0.32871,0.89559c0.09812,0.04546 0.80049,-0.42339 0.9089,-0.48382c0.9913,-0.55261 2.14493,-0.48304 3.13475,-1.04321c0.68173,-0.37441 2.81924,-0.64342 1.91457,0.82187c-0.21646,0.35061 -1.11638,0.69751 -1.43063,1.03764c-1.21963,1.32004 -2.15946,2.18569 -3.79317,2.97517c0,0 -0.33932,0.16383 -0.50315,-0.1755c-0.16383,-0.33932 0.1755,-0.50315 0.1755,-0.50315c0.03535,-0.01706 0.07041,-0.03407 0.10517,-0.05107c-0.11348,0.00568 -0.20762,-0.04095 -0.20762,-0.04095l-0.06568,-0.07369z" fill="#ffffff" fill-rule="nonzero" stroke="none" stroke-width="0.5" stroke-linecap="butt" stroke-linejoin="miter"/><path d="M365.23116,183.10303c0.0088,0.00484 0.01752,0.00976 0.02612,0.01478l-0.10023,0.1369c0.00094,0.00583 0.00181,0.01176 0.00258,0.0178c0.01068,0.08299 0.00057,0.14993 -0.02164,0.20384c0.11765,-0.02335 0.24019,-0.04303 0.37089,-0.06019c0,0 0.37372,-0.04812 0.42183,0.3256c0.04812,0.37372 -0.3256,0.42183 -0.3256,0.42183c-0.02475,0.00312 -0.04908,0.00631 -0.07299,0.0096l-0.45923,0.24706c-0.03617,0.03506 -0.08165,0.06613 -0.13535,0.09322c0.07714,0.03972 0.16182,0.08455 0.25592,0.13466l-0.708,0.51112c-0.10483,-0.02268 -0.20965,-0.04535 -0.31447,-0.06802c-0.12657,0.24722 -0.29952,0.41651 -0.58703,0.39842c-0.32507,-0.02045 -0.58191,-0.29281 -0.87286,-0.43922l0.29719,-0.22443c-0.09044,-0.0399 -0.18087,-0.07979 -0.2713,-0.11969l0.32313,-0.25148c-0.07344,-0.01606 -0.14604,-0.03407 -0.21749,-0.05377l0.56217,-0.63249c0.13464,-0.03108 0.2774,-0.03412 0.4182,-0.01504c0.13758,-0.24196 0.31076,-0.46554 0.51257,-0.65225l-0.06303,-0.07499c0.07227,-0.03404 0.15063,-0.05595 0.23192,-0.06727c0.06916,-0.05282 0.14105,-0.10139 0.21543,-0.14509l0.51124,0.28909z" fill="#a00000" fill-rule="nonzero" stroke="none" stroke-width="0.5" stroke-linecap="butt" stroke-linejoin="miter"/><path d="M358.86437,180.74291c0.04812,0.37372 -0.3256,0.42183 -0.3256,0.42183l-0.05675,0.00533c-0.05733,0.09517 -0.15602,0.16419 -0.27478,0.17948c-0.08214,0.01058 -0.1615,-0.00615 -0.22896,-0.04312l-0.61839,0.27579c-0.03491,0.01654 -0.07297,0.02796 -0.11336,0.03316c-0.2064,0.02657 -0.39526,-0.1192 -0.42183,-0.3256c-0.02066,-0.16042 0.0628,-0.31023 0.19791,-0.38151l0.20133,-0.11224l-0.11271,-0.04061c0.10149,-0.11021 0.19844,-0.20628 0.29012,-0.28812c-0.03364,-0.0482 -0.05647,-0.105 -0.0645,-0.16734c-0.02066,-0.16042 0.0628,-0.31023 0.19791,-0.38151l0.1572,-0.08764c-0.08791,-0.05834 -0.15097,-0.15308 -0.1655,-0.26594c-0.00618,-0.04799 -0.00303,-0.09503 0.00801,-0.13929c-0.04757,-0.12687 -0.04012,-0.23504 0.08239,-0.27055c-0.00185,-0.00907 -0.00338,-0.01827 -0.00458,-0.0276c-0.02657,-0.2064 0.1192,-0.39526 0.3256,-0.42183c0.02336,-0.00301 0.04649,-0.00381 0.06919,-0.00256l0.29656,0.01101l0.02981,-0.05653c0.01704,0.02007 0.03358,0.03989 0.04962,0.05948l0.03917,0.00145c0.18358,0.00357 0.34178,0.14108 0.36593,0.32866c0.01073,0.08335 -0.00664,0.16383 -0.04476,0.23193c0.09086,0.22006 0.07678,0.3771 -0.01882,0.46634c0.02473,0.2366 -0.12505,0.45095 -0.23854,0.66992c0.09996,0.00052 0.34038,0.0329 0.37833,0.32761z" fill="#a00000" fill-rule="nonzero" stroke="none" stroke-width="0.5" stroke-linecap="butt" stroke-linejoin="miter"/><path d="M366.53762,188.09434c-0.2064,0.02657 -0.39526,-0.1192 -0.42183,-0.3256c-0.02657,-0.2064 0.1192,-0.39526 0.3256,-0.42183c0.2064,-0.02657 0.39526,0.1192 0.42183,0.3256c0.02657,0.2064 -0.1192,0.39526 -0.3256,0.42183z" fill="#a00000" fill-rule="nonzero" stroke="none" stroke-width="0.5" stroke-linecap="butt" stroke-linejoin="miter"/><path d="M368.06785,191.02744l-0.14788,-0.22509c-0.29081,-0.33818 -0.52942,-0.72072 -0.74758,-1.10975c0,0 -0.18348,-0.32912 0.14564,-0.51259c0.32912,-0.18348 0.51259,0.14564 0.51259,0.14564c0.19116,0.34516 0.3994,0.68613 0.65896,0.98328l0.20375,0.29817c0,0 0.21017,0.31275 -0.10258,0.52291c-0.31275,0.21017 -0.52291,-0.10258 -0.52291,-0.10258z" fill="#a00000" fill-rule="nonzero" stroke="none" stroke-width="0.5" stroke-linecap="butt" stroke-linejoin="miter"/><path d="M368.67654,192.01188c-0.2064,0.02657 -0.39526,-0.1192 -0.42183,-0.3256c-0.02657,-0.2064 0.1192,-0.39526 0.3256,-0.42183c0.2064,-0.02657 0.39526,0.1192 0.42183,0.3256c0.02657,0.2064 -0.1192,0.39526 -0.3256,0.42183z" fill="#a00000" fill-rule="nonzero" stroke="none" stroke-width="0.5" stroke-linecap="butt" stroke-linejoin="miter"/><path d="M368.93547,193.47094c-0.2064,0.02657 -0.39526,-0.1192 -0.42183,-0.3256c-0.02657,-0.2064 0.1192,-0.39526 0.3256,-0.42183c0.2064,-0.02657 0.39526,0.1192 0.42183,0.3256c0.02657,0.2064 -0.1192,0.39526 -0.3256,0.42183z" fill="#a00000" fill-rule="nonzero" stroke="none" stroke-width="0.5" stroke-linecap="butt" stroke-linejoin="miter"/><path d="M365.4848,187.09282c-0.2064,0.02657 -0.39526,-0.1192 -0.42183,-0.3256c-0.02657,-0.2064 0.1192,-0.39526 0.3256,-0.42183c0.2064,-0.02657 0.39526,0.1192 0.42183,0.3256c0.02657,0.2064 -0.1192,0.39526 -0.3256,0.42183z" fill="#a00000" fill-rule="nonzero" stroke="none" stroke-width="0.5" stroke-linecap="butt" stroke-linejoin="miter"/><path d="M360.49827,181.48099c-0.2064,0.02657 -0.39526,-0.1192 -0.42183,-0.3256c-0.02657,-0.2064 0.1192,-0.39526 0.3256,-0.42183c0.2064,-0.02657 0.39526,0.1192 0.42183,0.3256c0.02657,0.2064 -0.1192,0.39526 -0.3256,0.42183z" fill="#a00000" fill-rule="nonzero" stroke="none" stroke-width="0.5" stroke-linecap="butt" stroke-linejoin="miter"/><path d="M361.74281,182.31569c-0.2064,0.02657 -0.39526,-0.1192 -0.42183,-0.3256c-0.02657,-0.2064 0.1192,-0.39526 0.3256,-0.42183c0.2064,-0.02657 0.39526,0.1192 0.42183,0.3256c0.02657,0.2064 -0.1192,0.39526 -0.3256,0.42183z" fill="#a00000" fill-rule="nonzero" stroke="none" stroke-width="0.5" stroke-linecap="butt" stroke-linejoin="miter"/><path d="M362.80462,183.38711c-0.2064,0.02657 -0.39526,-0.1192 -0.42183,-0.3256c-0.02657,-0.2064 0.1192,-0.39526 0.3256,-0.42183c0.2064,-0.02657 0.39526,0.1192 0.42183,0.3256c0.02657,0.2064 -0.1192,0.39526 -0.3256,0.42183z" fill="#a00000" fill-rule="nonzero" stroke="none" stroke-width="0.5" stroke-linecap="butt" stroke-linejoin="miter"/><path d="M340.66761,157.88771c-0.04443,-0.34506 0.05566,-0.67541 0.25326,-0.93018c-0.14253,-0.23615 -0.21187,-0.55698 -0.08432,-0.98414c0.20345,-0.68133 0.67744,-0.86177 1.05044,-0.89008c0.07647,-0.50034 0.45215,-0.91716 0.95956,-1.03354l1.32165,-0.32162l0.04402,0.18089l0.39162,-0.20883c2.15987,1.00033 6.16335,3.23902 1.72888,5.02101c-0.15257,0.06132 -0.30234,0.10615 -0.44967,0.13664c-0.19628,0.26587 -0.49654,0.45434 -0.85019,0.49987c-0.63362,0.08158 -1.21766,-0.32413 -1.37522,-0.92619c-0.18793,-0.08971 -0.37476,-0.18539 -0.56155,-0.28086c-0.15426,0.42989 -0.53831,0.76002 -1.02239,0.82235c-0.688,0.08858 -1.31753,-0.39734 -1.40612,-1.08534z" fill="#ffffff" fill-rule="nonzero" stroke="none" stroke-width="0.5" stroke-linecap="butt" stroke-linejoin="miter"/><path d="M346.73321,160.67018c-0.64761,0.08338 -1.24343,-0.34227 -1.38502,-0.96634c-0.12441,0.06309 -0.26155,0.10637 -0.4078,0.1252c-0.52279,0.06731 -1.01183,-0.1971 -1.25541,-0.62984c-0.26541,-0.01968 -0.51194,-0.12325 -0.70902,-0.28711c-0.18774,0.18185 -0.43365,0.30688 -0.71283,0.34282c-0.688,0.08858 -1.31753,-0.39734 -1.40612,-1.08534c-0.08858,-0.688 0.39734,-1.31753 1.08534,-1.40612c0.36036,-0.0464 0.70467,0.06482 0.96362,0.28012c0.18774,-0.18185 0.43365,-0.30688 0.71283,-0.34282c0.52279,-0.06731 1.01183,0.1971 1.25541,0.62984c0.54341,0.04029 1.00765,0.43223 1.13043,0.97333c0.12441,-0.06309 0.26155,-0.10637 0.4078,-0.1252c0.688,-0.08858 1.31753,0.39734 1.40612,1.08534c0.08858,0.688 -0.39734,1.31753 -1.08534,1.40612z" fill="#a00000" fill-rule="nonzero" stroke="none" stroke-width="0.5" stroke-linecap="butt" stroke-linejoin="miter"/><text transform="translate(304.71471,259.28904) scale(0.5,0.5)" font-size="40" xml:space="preserve" fill="#ffffff" fill-rule="nonzero" stroke="none" stroke-width="1" stroke-linecap="butt" stroke-linejoin="miter" stroke-miterlimit="10" stroke-dasharray="" stroke-dashoffset="0" font-family="Marker" font-weight="normal" text-anchor="start" style="mix-blend-mode: normal"><tspan x="0" dy="0">Loading</tspan></text></g></g></svg>