<svg version="1.1" xmlns="http://www.w3.org/2000/svg" xmlns:xlink="http://www.w3.org/1999/xlink" width="980.48048" height="630.63063" viewBox="0,0,980.48048,630.63063"><g transform="translate(145.24024,130.3153)"><g data-paper-data="{&quot;isPaintingLayer&quot;:true}" stroke-miterlimit="10" stroke-dasharray="" stroke-dashoffset="0" style="mix-blend-mode: normal"><path d="M-145.24024,500.31534v-630.63063h980.48048v630.63063z" fill="#000000" fill-rule="nonzero" stroke="#ff3838" stroke-width="0" stroke-linecap="butt" stroke-linejoin="miter"/><text transform="translate(304.71471,259.28905) scale(0.5,0.5)" font-size="40" xml:space="preserve" fill="#ffffff" fill-rule="nonzero" stroke="none" stroke-width="1" stroke-linecap="butt" stroke-linejoin="miter" stroke-miterlimit="10" stroke-dasharray="" stroke-dashoffset="0" font-family="Marker" font-weight="normal" text-anchor="start" style="mix-blend-mode: normal"><tspan x="0" dy="0">Loading</tspan></text><g><path d="M349.58396,182.80958c-0.07147,-0.51229 2.88576,-2.87106 3.21983,-4.57314c0.19997,-1.21531 0.34983,-2.71927 -0.24698,-4.24222c-1.30124,-3.46446 -0.36031,-3.11001 1.31156,-4.51098c1.68998,-1.44783 3.38199,-1.64735 3.04896,4.79439c-0.1039,2.2218 -0.79154,4.00278 -1.39939,5.4376c-0.14477,0.37494 -1.7215,3.48216 -3.74932,3.99171c-2.02783,0.50956 -2.142,-0.45006 -2.18471,-0.89739z" fill="#000000" fill-rule="evenodd" stroke="#001026" stroke-width="1.2" stroke-linecap="round" stroke-linejoin="round"/><path d="M353.67088,187.60224c-0.87005,0.5796 -2.60182,0.88034 -3.28818,-1.10804c-0.83021,-2.3132 1.73633,-3.79955 2.80127,-4.46548c1.06496,-0.66592 1.66771,-0.97173 3.47696,-2.58894c0.72945,-0.63389 1.50251,-1.52021 1.90713,-2.01025c0.13735,-0.21624 0.22783,-0.45059 0.22458,-0.72112c-0.0246,-0.49419 -3.01385,3.56811 -2.01388,2.93097c1.13587,-0.59152 0.39964,-1.52482 1.31525,0.23513c0.10519,0.20217 -0.1254,-0.38149 0.00852,-0.18053c1.26005,1.89091 1.48702,0.06995 0.62265,1.14133c-1.79205,2.2701 -0.63651,3.3952 -1.4537,2.16413c-0.15128,-0.16612 -0.87598,-0.33822 -0.99523,-0.16885l2.50231,0.13783c-0.37864,0.47309 0.79631,-0.43039 0.40183,-0.0067c-0.43785,0.47029 -1.75454,1.4851 -2.1888,1.8918c-1.86231,1.74416 -2.70535,2.31464 -3.32075,2.74871z" fill="#000000" fill-rule="evenodd" stroke="#001026" stroke-width="1.2" stroke-linecap="round" stroke-linejoin="round"/><path d="M340.99331,190.74837c-0.39537,-1.06821 0.54796,-2.53504 1.87836,-2.07522c1.21856,0.47051 2.10398,1.94333 2.63671,2.79528c0.53274,0.85195 2.28456,4.54424 -0.41699,7.21715c-1.22782,1.08772 -5.08298,3.26136 -5.97814,0.97694c-0.89519,-2.28442 1.6236,-3.08912 3.04212,-3.83394c1.20555,-0.61163 -1.06508,-4.77351 -1.16207,-5.08023z" fill="#000000" fill-rule="evenodd" stroke="#001026" stroke-width="1.2" stroke-linecap="round" stroke-linejoin="round"/><g fill-rule="evenodd"><path d="M349.8757,190.06063c-0.63898,0.39955 -1.55916,0.69053 -2.92664,1.0242c-1.12574,0.26544 -3.1132,0.25204 -3.1132,0.25204c-1.33455,-0.0306 -3.6928,-0.61801 -3.04877,-2.14655c0.44497,-1.013 0.66631,-2.00466 1.04725,-3.68863c0.52335,-3.02923 0.34747,-3.68955 2.72146,-4.11931c2.73825,-0.39682 5.62728,-2.99734 7.97913,2.48844c0,0 0.89427,2.9842 2.54493,6.79898c1.10399,2.58049 2.58854,6.54656 3.08092,7.92147c0.09698,0.30672 0.08215,0.62412 0.02044,0.92342c-1.33353,4.70906 -3.10514,7.9026 -5.12046,7.12445c-3.3745,-1.30293 0.38496,-7.55265 0.38496,-7.55265c0,0 -0.99543,-2.86169 -1.50589,-4.18975z" fill="#000000" stroke="#001026" stroke-width="1.2" stroke-linecap="round" stroke-linejoin="round"/><path d="M345.9393,190.91033c0,0 -1.51554,0.43808 -2.00283,-2.06584c-0.54484,-2.63385 1.26257,-2.85153 2.71314,-3.26084c1.81484,-0.37637 2.15592,0.83243 2.63764,2.09552c0.41347,1.02133 0.70445,1.9415 0.70445,1.9415c0,0 -1.54521,1.07289 -4.05238,1.28965z" fill="#a00000" stroke="none" stroke-width="1" stroke-linecap="butt" stroke-linejoin="miter"/></g><g fill-rule="evenodd"><path d="M316.85302,181.15824c0.22873,-1.15035 0.5693,-2.31137 1.16974,-3.58749c0.94425,-2.1666 2.55535,-3.96804 2.55535,-3.96804l-1.51292,-7.10062c-0.02135,-0.22366 0.20974,-0.40371 0.3791,-0.28446l8.00935,4.22347c-0.48351,0.13644 7.91731,-2.65169 11.97543,2.73892c4.05812,5.3906 3.71583,13.39059 -1.42037,21.53221c-5.13621,8.14162 -10.9942,8.24942 -13.44851,6.65552c-2.45432,-1.5939 -2.15371,-5.30155 -2.15371,-5.30155c0,0 -2.09097,-0.8612 -4.08962,-3.35626c-1.20281,-1.48766 -2.24745,-5.33775 -2.24745,-5.33775l-4.54437,-3.15488c-0.16937,-0.11926 -0.12576,-0.3717 0.02227,-0.4761z" fill="#000000" stroke="#001026" stroke-width="1.2" stroke-linecap="butt" stroke-linejoin="miter"/><path d="M322.64825,195.99797c0.64769,-4.32759 3.74515,-3.56249 5.28241,-6.8465c1.8013,-3.82833 -0.38264,-10.86492 5.84471,-12.06877c6.18047,-1.22195 10.84839,6.77374 4.12568,17.21097c-5.05316,8.06599 -10.74917,8.45173 -13.20349,6.85783c-2.45431,-1.59389 -2.0493,-5.15353 -2.0493,-5.15353z" fill="#000000" stroke="none" stroke-width="1" stroke-linecap="butt" stroke-linejoin="miter"/><path d="M333.36346,183.17084c2.35082,0.74611 5.1875,2.32609 4.00943,6.77203c-1.61891,5.0297 -5.82166,5.45347 -7.24997,5.38669c-0.27053,0.00326 -0.4325,-0.27471 -0.29513,-0.49095c0.41204,-0.64873 1.13173,-2.09421 1.96833,-4.67938c0.8983,-2.88446 1.12561,-5.70488 1.14137,-6.72205c0.02551,-0.20556 0.23851,-0.33875 0.42597,-0.26636z" fill="#000000" stroke="#001026" stroke-width="1.2" stroke-linecap="round" stroke-linejoin="round"/><path d="M323.81541,199.9492c0,0 -1.3498,3.3564 -3.98132,4.87154" fill="none" stroke="#001026" stroke-width="1.2" stroke-linecap="round" stroke-linejoin="round"/><path d="M326.50823,201.20435c0,0 0.18475,2.17167 -1.18966,5.03389" fill="none" stroke="#001026" stroke-width="1.2" stroke-linecap="round" stroke-linejoin="round"/><path d="M328.22621,186.57282c0.74989,0.28954 1.16153,2.71041 0.74207,3.51784c-0.33642,0.73179 -1.92015,0.92811 -2.55821,0.6279c-0.30998,-0.17355 -0.0056,-1.24084 0.37442,-2.22507c0.36193,-0.93736 0.89739,-2.1847 1.4417,-1.92067z" fill="#001026" stroke="#000000" stroke-width="1.2" stroke-linecap="round" stroke-linejoin="round"/><path d="M334.80036,173.87015c-0.81953,-2.20135 -0.57556,-6.7387 -0.57556,-6.7387" fill="none" stroke="#001026" stroke-width="1.2" stroke-linecap="round" stroke-linejoin="round"/><path d="M338.78492,169.26913c0,0 -0.82357,3.66728 -2.39847,5.37498" fill="none" stroke="#001026" stroke-width="1.2" stroke-linecap="round" stroke-linejoin="round"/><g fill="#a00000"><path d="M318.79792,186.16376c1.35032,-0.98658 3.72249,-0.01678 5.30675,2.15672c1.56617,2.22037 1.71797,4.75632 0.36766,5.74289c-1.35032,0.98658 -3.72249,0.01678 -5.30675,-2.15672c-1.58427,-2.17352 -1.76484,-4.77442 -0.36766,-5.74289z" stroke="#001026" stroke-width="1.2" stroke-linecap="round" stroke-linejoin="round"/><path d="M321.90943,192.75068c-0.51553,-0.19905 -0.79259,-0.73687 -0.61163,-1.20555c0.18096,-0.46869 0.74755,-0.68076 1.2631,-0.4817c0.51553,0.19905 0.79259,0.73687 0.61163,1.20555c-0.18096,0.46869 -0.74755,0.68076 -1.2631,0.4817" stroke="none" stroke-width="1" stroke-linecap="butt" stroke-linejoin="miter"/></g><g><path d="M324.96576,180.79008c-1.51933,-2.20228 -1.79362,-4.83938 -0.15467,-5.87606c1.59208,-1.05479 4.22736,0.07043 5.72857,2.31958c1.51933,2.20228 1.37922,4.51782 -0.10844,5.72063c-1.3791,0.92161 -3.94616,0.03815 -5.46546,-2.16412z" fill="#ffffff" stroke="#001026" stroke-width="1.2" stroke-linecap="round" stroke-linejoin="round"/><path d="M327.79267,181.55844c-0.51553,-0.19905 -0.74572,-0.71878 -0.61163,-1.20555c0.18096,-0.46869 0.74755,-0.68076 1.2631,-0.4817c0.51553,0.19905 0.79259,0.73687 0.61163,1.20555c-0.18096,0.46869 -0.74755,0.68076 -1.2631,0.4817" fill="#001026" stroke="none" stroke-width="1" stroke-linecap="butt" stroke-linejoin="miter"/></g></g><path d="M328.94917,182.66762c0,0 0.0145,0.15185 -0.04562,0.31302c0.16173,0.07649 0.35696,0.14096 0.62735,0.19409c0.73599,0.28187 1.47117,0.56574 2.20639,0.84963l0.49227,0.07268c0,0 0.61883,0.10691 0.51192,0.72575c-0.10692,0.61883 -0.72575,0.51192 -0.72575,0.51192l-0.73084,-0.13865c-0.703,-0.27144 -1.40606,-0.54265 -2.10819,-0.81629c-1.56058,-0.33494 -3.34295,-1.60993 -4.4759,-2.53315c-0.91513,-0.74571 -0.90194,-2.04349 -1.91003,-2.82499c-0.37313,-0.28926 -0.95725,-0.14282 -1.36348,-0.38338c-0.20817,-0.12328 -0.23944,-0.45094 -0.4506,-0.56907c-1.1162,-0.62434 -1.41949,-0.40271 -2.13479,-1.60865c0,0 -0.31615,-0.54262 0.22646,-0.85877c0.54262,-0.31615 0.85877,0.22646 0.85877,0.22646c0.83892,1.47304 2.36738,1.29683 3.6124,2.18498c0.85381,0.60908 1.35067,1.60405 1.67366,2.51507c0.01285,0.03623 0.02633,0.06859 0.04045,0.09752c0.09763,-0.09251 0.19676,-0.1364 0.19676,-0.1364c0.20985,-0.09294 0.41969,-0.18587 0.62952,-0.2788l0.59405,0.03219c0,0 0.58584,0.2262 0.35965,0.81206c-0.1512,0.39163 -0.46313,0.42036 -0.65333,0.3964c-0.00636,0.00281 -0.01271,0.00564 -0.01906,0.00844c0.05008,0.12565 0.09919,0.25229 0.19492,0.34118c0.26536,0.24634 0.6728,0.24996 1.02521,0.35821c-0.0291,-0.19015 0.03541,-0.3572 0.03541,-0.3572l1.25485,0.05299c0.02587,0.27092 0.05172,0.54185 0.07758,0.81277z" fill="#a00000" fill-rule="nonzero" stroke="none" stroke-width="0.5" stroke-linecap="butt" stroke-linejoin="miter"/><path d="M332.29299,186.99805c-0.10692,0.61883 -0.72575,0.51192 -0.72575,0.51192l-0.53396,-0.09717c-0.27263,-0.01339 -0.54528,-0.02678 -0.81791,-0.04017c-0.69668,-0.14537 -1.67628,-0.0124 -2.30903,-0.35297c-0.5488,-0.29537 -1.07269,-1.01545 -1.55971,-1.41711c-1.35031,-1.11362 -2.91973,-2.32821 -4.40127,-3.24192c-1.31569,-0.81144 -3.4593,-1.19307 -4.93298,-1.76206c0,0 -0.58584,-0.2262 -0.35965,-0.81206c0.2262,-0.58584 0.81206,-0.35965 0.81206,-0.35965c1.57221,0.60705 3.72823,1.00811 5.14639,1.86876c1.53285,0.93026 3.1537,2.19641 4.53824,3.34098c0.04479,0.03703 1.21918,1.20028 1.32046,1.26059c0.41918,0.24961 1.42272,0.13154 1.9021,0.22926c0.23999,0.01058 0.47997,0.02117 0.71995,0.03173l0.68912,0.11415c0,0 0.61883,0.10691 0.51192,0.72575z" fill="#a00000" fill-rule="nonzero" stroke="none" stroke-width="0.5" stroke-linecap="butt" stroke-linejoin="miter"/><path d="M334.5604,199.57141c-0.57422,0.25431 -0.82853,-0.3199 -0.82853,-0.3199l-0.1738,-0.46641c-1.91192,-1.02208 -3.87636,-2.08007 -5.74199,-3.19488c-1.46682,-0.87648 -3.37856,-0.56328 -3.52375,-2.68832c0,0 -0.00755,-0.62796 0.6204,-0.63552c0.62796,-0.00756 0.63551,0.62041 0.63551,0.62041c-0.09857,0.87825 1.43938,1.04174 2.12992,1.3125c2.34511,0.91951 4.69053,2.40491 6.81834,3.751l0.38382,0.79263c0,0 0.25431,0.5742 -0.3199,0.82853z" fill="#a00000" fill-rule="nonzero" stroke="none" stroke-width="0.5" stroke-linecap="butt" stroke-linejoin="miter"/><path d="M333.50924,200.77705c-0.2262,0.58584 -0.81206,0.35965 -0.81206,0.35965l-0.5474,-0.22051c-1.9795,-1.16949 -4.06106,-2.02624 -5.94447,-3.35265c-1.17473,-0.82731 -2.05905,-2.11399 -3.28395,-2.81992c0,0 -0.54069,-0.31944 -0.22126,-0.86014c0.31944,-0.54069 0.86014,-0.22126 0.86014,-0.22126c1.27067,0.76512 2.16359,2.02665 3.38473,2.88618c1.84928,1.30167 3.89775,2.13674 5.84371,3.2864l0.36093,0.13021c0,0 0.58584,0.2262 0.35965,0.81206z" fill="#a00000" fill-rule="nonzero" stroke="none" stroke-width="0.5" stroke-linecap="butt" stroke-linejoin="miter"/><path d="M326.88578,177.35466c-0.11776,0.61686 -0.73462,0.49912 -0.73462,0.49912l-0.1029,-0.01964c-1.89918,-0.54707 -1.91749,-0.64697 -1.54559,-2.47322c0,0 0.1268,-0.61506 0.74188,-0.48826c0.61506,0.1268 0.48826,0.74188 0.48826,0.74188c-0.06995,0.33459 -0.61951,0.83894 -0.3074,0.97835c0.26124,0.11669 0.57224,0.005 0.85836,0.0075l0.1029,0.01964c0,0 0.61686,0.11776 0.49912,0.73462z" fill="#a00000" fill-rule="nonzero" stroke="none" stroke-width="0.5" stroke-linecap="butt" stroke-linejoin="miter"/><path d="M328.58446,178.67371c-0.58584,-0.2262 -0.35965,-0.81206 -0.35965,-0.81206l0.04385,-0.11355c0.17537,-0.45417 0.35073,-0.90834 0.52609,-1.36251c0,0 0.2262,-0.58584 0.81206,-0.35965c0.58584,0.2262 0.35965,0.81206 0.35965,0.81206c-0.17536,0.45417 -0.39456,1.02188 -0.5699,1.47604c0,0 -0.2262,0.58584 -0.81206,0.35965z" fill="#a00000" fill-rule="nonzero" stroke="none" stroke-width="0.5" stroke-linecap="butt" stroke-linejoin="miter"/><path d="M329.46524,180.90408c-0.2543,-0.57422 0.3199,-0.82853 0.3199,-0.82853l0.81155,0.02025c0.19786,0.16338 0.39573,0.32674 0.59356,0.49011c0,0 0.48425,0.39987 0.08439,0.88411c-0.39985,0.48425 -0.88411,0.0844 -0.88411,0.0844c-0.11147,-0.09203 -0.22293,-0.18408 -0.3344,-0.2761c-0.18829,0.01312 -0.4434,-0.0412 -0.59092,-0.37425z" fill="#a00000" fill-rule="nonzero" stroke="none" stroke-width="0.5" stroke-linecap="butt" stroke-linejoin="miter"/><path d="M359.57308,176.51477c0.17053,0.6044 -0.43386,0.77495 -0.43386,0.77495l-0.21554,-0.11969c-0.19192,0.32257 -0.35074,0.65275 -0.50764,0.98372c0.02852,0.11284 0.02434,0.20223 0.02434,0.20223c-0.01217,0.23343 0.00821,0.47088 -0.0365,0.70031c-0.01702,0.08738 -0.2294,0.20061 -0.14381,0.22503c0.25474,0.07263 0.67031,-0.2741 0.79371,-0.0397c0.22598,0.42926 0.01957,0.97425 -0.04895,1.4545c-0.0385,0.26975 -0.68508,0.65505 -0.41689,0.70316c0.21504,0.03856 0.54616,-0.19709 0.65539,-0.00788c0.46197,0.80015 0.22933,2.29666 -1.14357,2.15007c-0.40036,-0.04275 -0.46673,-0.6562 -0.7001,-0.98432l0.03219,-0.59407c0,0 0.04393,-0.11375 0.14317,-0.22164c-0.04347,-0.17956 -0.06408,-0.39902 -0.05174,-0.65949c0.0127,-0.26788 0.13722,-0.52743 0.28068,-0.75402c0.07215,-0.11393 0.47223,-0.21287 0.33773,-0.22276c-0.21207,-0.01556 -0.45276,0.35189 -0.60474,0.20315c-0.21055,-0.20608 -0.31189,-0.47795 -0.35635,-0.76932c-0.05605,-0.01611 -0.11515,-0.04145 -0.17714,-0.07808c-0.54069,-0.31944 -0.22126,-0.86014 -0.22126,-0.86014c0.40306,-0.6774 0.6601,-1.38846 1.06005,-2.06962l0.95584,-0.45024c0,0 0.6044,-0.17053 0.77495,0.43386z" fill="#a00000" fill-rule="nonzero" stroke="none" stroke-width="0.5" stroke-linecap="butt" stroke-linejoin="miter"/><path d="M362.78164,178.85573c0.2543,0.57422 -0.3199,0.82853 -0.3199,0.82853l-0.619,0.25365c-0.23308,0.04048 -0.46614,0.08095 -0.69924,0.12142c0,0 -0.61875,0.10745 -0.7262,-0.51129c-0.10745,-0.61875 0.51129,-0.7262 0.51129,-0.7262c0.23308,-0.04047 0.46617,-0.08095 0.69924,-0.12142l0.32528,-0.16457c0,0 0.57422,-0.2543 0.82853,0.3199z" fill="#a00000" fill-rule="nonzero" stroke="none" stroke-width="0.5" stroke-linecap="butt" stroke-linejoin="miter"/><path d="M364.27166,181.48437l-0.7251,-0.1495c0,0 -0.61506,-0.1268 -0.48826,-0.74188c0.1268,-0.61506 0.74188,-0.48826 0.74188,-0.48826l0.7251,0.1495c0,0 0.61506,0.1268 0.48826,0.74188c-0.1268,0.61506 -0.74188,0.48826 -0.74188,0.48826z" fill="#a00000" fill-rule="nonzero" stroke="none" stroke-width="0.5" stroke-linecap="butt" stroke-linejoin="miter"/><path d="M365.40337,174.65363c0.42284,0.46431 -0.04148,0.88717 -0.04148,0.88717l-0.51661,0.33766c-0.23308,0.04047 -0.46617,0.08095 -0.69924,0.12142c0,0 -0.18778,0.0326 -0.37441,-0.04155c-0.17045,0.16144 -0.42488,0.22028 -0.65848,0.1301c-0.32356,-0.12493 -0.48458,-0.4885 -0.35965,-0.81206c0.12493,-0.32356 0.4885,-0.48458 0.81206,-0.35965c0.00913,0.00353 0.01812,0.00724 0.02699,0.01114c0.15073,-0.13283 0.33861,-0.16545 0.33861,-0.16545c0.23308,-0.04047 0.46617,-0.08095 0.69924,-0.12142l-0.11417,-0.02882c0,0 0.46433,-0.42282 0.88717,0.04148z" fill="#a00000" fill-rule="nonzero" stroke="none" stroke-width="0.5" stroke-linecap="butt" stroke-linejoin="miter"/><path d="M357.94149,181.59208c-0.57422,0.2543 -0.82853,-0.3199 -0.82853,-0.3199l-0.12344,-0.40414c-0.00013,-0.01004 -0.00023,-0.02009 -0.00036,-0.03014c-0.18024,0.00896 -0.54606,-0.03178 -0.64789,-0.48816c-0.13676,-0.61293 0.47618,-0.7497 0.47618,-0.7497l0.31076,-0.05685c0.42535,-0.18527 0.74541,-0.39416 1.02908,-0.38349c0.06274,-0.07596 0.1419,-0.1351 0.22997,-0.17412l0.62953,-0.2788v0c0.14696,-0.06508 0.31872,-0.07411 0.48053,-0.01165c0.22941,0.08858 0.37711,0.29714 0.39912,0.52634l0.42952,-0.01565c0.08695,-0.00514 0.17638,0.0078 0.26294,0.04122c0.32356,0.12493 0.48458,0.4885 0.35965,0.81206c-0.03799,0.09841 -0.09806,0.18175 -0.17236,0.24661l-0.59432,0.54123l-0.00498,-0.00547l-0.01314,0.02136c-0.4132,0.31849 -0.86405,0.59482 -1.33975,0.809c0,0 -0.45783,0.20277 -0.73692,-0.16263c-0.04128,0.0301 -0.08946,0.05799 -0.14554,0.08283zM358.27155,180.54636c-0.00989,0.00145 -0.0198,0.0029 -0.02971,0.00435c0.00006,0.00449 0.0001,0.00897 0.00016,0.01346c0.01074,-0.0068 0.02068,-0.01274 0.02954,-0.01782z" fill="#ffffff" fill-rule="nonzero" stroke="none" stroke-width="0.5" stroke-linecap="butt" stroke-linejoin="miter"/><path d="M332.76152,184.71829c-0.33296,-0.53247 0.1995,-0.86543 0.1995,-0.86543l0.49773,0.11445c-0.13431,-0.1382 -0.253,-0.27249 -0.33529,-0.37526c0,0 -0.38598,-0.49537 0.10939,-0.88136c0.49538,-0.38598 0.88136,0.10939 0.88136,0.10939c0.7914,1.05563 2.76307,1.55475 0.61097,2.64846c-0.2053,0.10433 -0.45265,0.08224 -0.68064,0.11834l-0.57603,0.25511l-0.10226,-0.23091l-0.6634,0.02126c0.07443,-0.211 0.14958,-0.42271 0.21939,-0.63602l-0.16796,-0.15617l0.05243,-0.05639c-0.0154,-0.02023 -0.03047,-0.04205 -0.04517,-0.06553z" fill="#8da900" fill-rule="nonzero" stroke="none" stroke-width="0.5" stroke-linecap="butt" stroke-linejoin="miter"/><path d="M330.9179,192.68531c0,0 -0.25206,-0.56914 0.31232,-0.82511c-0.12799,-0.16783 -0.1684,-0.39622 -0.08679,-0.60756c0.06246,-0.16177 0.18459,-0.28291 0.33155,-0.348v0l0.31792,-0.1408c0.06782,-0.13253 0.11534,-0.27189 0.13149,-0.41959l-0.1124,-0.57462c0,0 -0.09037,-0.52038 0.37185,-0.68956c-0.01642,-0.17119 0.00926,-0.4633 0.3312,-0.6142c-0.10177,-0.4547 -0.20371,-1.07011 -0.23659,-1.25599l0.07673,-0.4472c0,0 0.06125,-0.15861 0.20253,-0.2789c-0.05208,-0.03711 -0.10199,-0.0761 -0.14773,-0.11863c0,0 -0.45993,-0.42761 -0.03233,-0.88753c0.4276,-0.45994 0.88753,-0.03233 0.88753,-0.03233c0.07241,0.06733 0.25556,0.23488 0.45266,0.42047c0.13686,-0.04897 0.29128,-0.05091 0.43751,0.00555c0.12215,0.04716 0.22113,0.12833 0.2903,0.22851c0.22947,0.07583 0.33234,0.28316 0.374,0.40407c0.00319,-0.00206 0.00639,-0.00412 0.00964,-0.00614c0.16364,-0.22299 0.462,-0.3183 0.73242,-0.2139c0.32356,0.12493 0.48458,0.4885 0.35965,0.81206c-0.05406,0.14001 -0.15281,0.24961 -0.27368,0.31875c-0.07171,0.10913 -0.15063,0.2149 -0.23586,0.31605c-0.00676,0.02347 -0.01486,0.04756 -0.02441,0.07231c-0.10603,0.27461 -0.29107,0.37079 -0.45778,0.39551c-0.17082,0.13482 -0.35455,0.25159 -0.54715,0.34486l-0.03269,0.07336c0,0 -0.16644,0.15158 -0.39079,0.17356c-0.12939,0.12968 -0.28283,0.22654 -0.46105,0.27551c0.33433,0.57956 1.28064,0.75736 1.28933,1.50205c0.0121,1.03814 -1.33358,1.34514 -2.13442,1.49102c0.08439,0.21496 0.17208,0.42824 0.28479,0.62925c0.17728,0.31615 0.67407,0.56255 0.58806,0.91464c-0.1041,0.42612 -1.28651,0.87636 -1.69618,1.0548l-0.07903,-0.00662l0.00424,0.02438l-0.68907,0.11966c-0.1115,0.02136 -0.23014,0.01277 -0.34382,-0.03113c-0.32356,-0.12493 -0.48458,-0.4885 -0.35965,-0.81206c0.0122,-0.03158 0.02667,-0.06162 0.04316,-0.09l0.41514,-0.74153l0.01296,0.00727c0.0653,-0.20456 0.13534,-0.40748 0.2122,-0.60794l-0.12776,0.16574zM333.1256,190.64937c-0.00191,0.01276 -0.00375,0.02552 -0.00556,0.03833c0.0208,-0.00406 0.04125,-0.00807 0.06127,-0.01197c-0.01834,-0.00788 -0.03693,-0.0167 -0.05568,-0.02637z" fill="#8da900" fill-rule="nonzero" stroke="none" stroke-width="0.5" stroke-linecap="butt" stroke-linejoin="miter"/><path d="M335.00604,191.1833c-0.23815,-1.33278 -0.11967,-1.59489 0.56898,-2.14654c-0.11317,-0.40901 0.30865,-0.94196 0.77102,-1.33974l-0.19338,-0.27069c0.14435,-0.58056 0.48225,-1.14281 0.93839,-1.52984c0,0 0.49538,-0.38598 0.88138,0.1094c0.38598,0.49539 -0.1094,0.88138 -0.1094,0.88138c-0.02415,0.01595 -0.04762,0.03317 -0.0704,0.05154c0.17166,0.16806 0.23815,0.42719 0.15011,0.66606c0.07338,0.23071 0.00937,0.40394 -0.0833,0.52468l-0.08897,0.57378c-0.1236,0.14312 -0.21735,0.35713 -0.32229,0.54455c0.31041,0.52214 -0.2103,0.84775 -0.2103,0.84775l-0.26309,0.01638c-0.18293,0.46938 -0.4049,0.93791 -0.67843,1.36916l0.22073,0.1304l-0.37133,0.62853c-0.15098,0.2662 -0.47808,0.38884 -0.77215,0.2753c-0.26355,-0.10175 -0.41925,-0.36183 -0.40043,-0.62964l0.03284,-0.70245z" fill="#8da900" fill-rule="nonzero" stroke="none" stroke-width="0.5" stroke-linecap="butt" stroke-linejoin="miter"/><path d="M335.87249,184.20288c0.31615,0.54262 -0.22646,0.85877 -0.22646,0.85877l-1.27619,0.40849c-0.1387,-0.43728 -0.27738,-0.87458 -0.41608,-1.31186c0,0 -0.05968,-0.62518 0.56547,-0.68483c0.44263,-0.04226 0.60178,0.25883 0.657,0.43823c0.1853,-0.0512 0.48928,-0.06399 0.69625,0.29119z" fill="#a00000" fill-rule="nonzero" stroke="none" stroke-width="0.5" stroke-linecap="butt" stroke-linejoin="miter"/><path d="M335.78092,185.7161c0.58584,0.2262 0.35965,0.81206 0.35965,0.81206l-0.08769,0.22709c-0.11468,0.28563 -0.29834,0.53762 -0.51907,0.76168l0.13012,0.12097l-0.43632,0.46933c-0.16899,0.19043 -0.44463,0.26606 -0.69609,0.16895c-0.25148,-0.09709 -0.40476,-0.33833 -0.40193,-0.59292l-0.0077,-0.64077l0.04488,-0.00054l-0.03498,-0.11834c0.09842,-0.26537 0.19682,-0.53076 0.29525,-0.79612c0,0 0.22098,-0.57233 0.79178,-0.3672c0.1293,-0.08982 0.31328,-0.14025 0.56212,-0.04416z" fill="#a00000" fill-rule="nonzero" stroke="none" stroke-width="0.5" stroke-linecap="butt" stroke-linejoin="miter"/><path d="M336.1514,189.02494c0.48425,0.39987 0.08439,0.88411 0.08439,0.88411l-0.22816,0.27537c-0.10793,0.13182 -0.19029,0.30247 -0.28218,0.45867c0.16238,0.25651 0.04198,0.56835 0.04198,0.56835l-0.35072,0.90834c-0.03821,0.09898 -0.09877,0.18276 -0.17368,0.24777c-0.00386,0.01869 -0.00781,0.03741 -0.01186,0.05615l-0.04452,0.25804c0,0 -0.10692,0.61883 -0.72576,0.51193c-0.14647,-0.02531 -0.25229,-0.07929 -0.32847,-0.14696c-0.20798,-0.16499 -0.21715,-0.41363 -0.20324,-0.55055c-0.11738,0.02659 -0.24367,0.01978 -0.36439,-0.02683c-0.25148,-0.09709 -0.40476,-0.33833 -0.40193,-0.59292l-0.0077,-0.64077l0.02385,-0.00029l-0.02101,-0.06725c0.12539,-0.61358 0.31515,-1.21497 0.5395,-1.79965c0,0 0.2262,-0.58584 0.81206,-0.35965c0.03748,0.01447 0.07163,0.03041 0.10274,0.04757c0.07466,-0.02624 0.16316,-0.03871 0.26799,-0.02979c0.12671,-0.03617 0.26578,-0.03294 0.39821,0.01817c0.01237,0.00477 0.02452,0.0099 0.0364,0.01536c0.11973,-0.1121 0.45143,-0.35314 0.83648,-0.0352z" fill="#a00000" fill-rule="nonzero" stroke="none" stroke-width="0.5" stroke-linecap="butt" stroke-linejoin="miter"/><path d="M333.56193,193.88253c-0.12493,0.32356 -0.4885,0.48458 -0.81206,0.35965c-0.32356,-0.12493 -0.48458,-0.4885 -0.35965,-0.81206c0.12493,-0.32356 0.4885,-0.48458 0.81206,-0.35965c0.32356,0.12493 0.48458,0.4885 0.35965,0.81206z" fill="#a00000" fill-rule="nonzero" stroke="none" stroke-width="0.5" stroke-linecap="butt" stroke-linejoin="miter"/><path d="M334.9293,188.25868c0.29254,0.11294 0.3826,0.31557 0.39945,0.49015c0.01039,0.00853 0.02047,0.01735 0.03023,0.02647c0.03043,-0.09328 0.0702,-0.18638 0.12221,-0.27883c0.11215,-0.19935 0.28507,-0.36228 0.44346,-0.53258c0.24197,-0.63929 0.50154,-1.26969 0.73944,-1.88589l0.30688,-0.7948c0.12493,-0.32356 0.4885,-0.48458 0.81206,-0.35965c0.29406,0.11354 0.45386,0.42418 0.38678,0.72277l-0.11397,0.55278c0.32049,0.17364 0.30146,0.5807 0.30146,0.5807c-0.10992,2.35099 -0.91005,3.80808 -2.0774,5.78395l-0.37133,0.62853c-0.15098,0.2662 -0.47808,0.38884 -0.77215,0.2753c-0.08789,-0.03394 -0.16379,-0.08547 -0.22521,-0.14904c-0.10767,0.15763 -0.33978,0.37947 -0.73828,0.22562c-0.3687,-0.14236 -0.41576,-0.42713 -0.40001,-0.61872c-0.00453,-0.00612 -0.00901,-0.0124 -0.01346,-0.01885c-0.18629,-0.0198 -0.51406,-0.11831 -0.55644,-0.56241c-0.05967,-0.62517 0.56549,-0.68485 0.56549,-0.68485c0.13766,0.01357 0.28973,-0.00359 0.44026,-0.01751c-0.0706,-0.12578 -0.10072,-0.29549 -0.01547,-0.5163c0.20575,-0.53289 0.70907,-0.39391 0.7984,-0.36441c0.07447,-0.08845 0.12804,-0.18208 0.16663,-0.28c0.01132,-0.05664 0.02313,-0.11325 0.03544,-0.16984c-0.06911,-0.06388 -0.12237,-0.14211 -0.15678,-0.22801c-0.22037,-0.1256 -0.45058,-0.23469 -0.68707,-0.32419l-0.23271,-1.14081c0,0 0.2262,-0.58584 0.81206,-0.35965zM334.73383,190.98788c0.07784,-0.05208 0.1441,-0.10679 0.20049,-0.16389z" fill="#000000" fill-rule="nonzero" stroke="none" stroke-width="0.5" stroke-linecap="butt" stroke-linejoin="miter"/><path d="M334.61523,190.24613l-0.12237,0.70831" fill="none" fill-rule="nonzero" stroke="#001026" stroke-width="1.2" stroke-linecap="round" stroke-linejoin="miter"/><path d="M334.52995,189.68431l-0.22064,2.3326" fill="none" fill-rule="nonzero" stroke="#a00000" stroke-width="1.2" stroke-linecap="round" stroke-linejoin="miter"/><path d="M333.97395,189.16741l1.53645,1.49991" fill="none" fill-rule="nonzero" stroke="#000000" stroke-width="1.2" stroke-linecap="round" stroke-linejoin="miter"/><path d="M332.69999,192.07554l2.70303,-0.54301" fill="none" fill-rule="nonzero" stroke="#000000" stroke-width="1.2" stroke-linecap="round" stroke-linejoin="miter"/><path d="M342.60848,184.02806c-0.55728,-0.28952 -0.26776,-0.84681 -0.26776,-0.84681l0.32784,-0.62349c0.0285,-0.00507 0.05699,-0.01014 0.08548,-0.01522l-0.04605,-0.03803l0.41653,-0.50445c0.12532,-0.15921 0.32125,-0.24834 0.52312,-0.23878c0.60286,-0.52612 1.83719,-0.8084 2.30456,0.28595c0.47011,1.10078 -1.0538,2.90607 -2.26932,2.39807c-0.21945,-0.09172 -0.37514,-0.23891 -0.47697,-0.41891c-0.14095,0.08871 -0.34078,0.13496 -0.59742,0.00164z" fill="#a00000" fill-rule="nonzero" stroke="none" stroke-width="0.5" stroke-linecap="butt" stroke-linejoin="miter"/><path d="M344.61338,182.92419c-0.12493,0.32356 -0.4885,0.48458 -0.81206,0.35965c-0.32356,-0.12493 -0.48458,-0.4885 -0.35965,-0.81206c0.12493,-0.32356 0.4885,-0.48458 0.81206,-0.35965c0.32356,0.12493 0.48458,0.4885 0.35965,0.81206z" fill="#ffffff" fill-rule="nonzero" stroke="none" stroke-width="0.5" stroke-linecap="butt" stroke-linejoin="miter"/><path d="M335.00521,190.01891l-0.25059,2.01882l-1.22978,0.05407" fill="none" fill-rule="nonzero" stroke="#000000" stroke-width="1.2" stroke-linecap="round" stroke-linejoin="miter"/><path d="M348.04403,185.99341c0.32356,0.12493 0.48458,0.4885 0.35965,0.81206c-0.01423,0.03687 -0.03158,0.07163 -0.05159,0.10409c0.14575,-0.06295 0.31533,-0.071 0.47516,-0.0093c0.32356,0.12493 0.48458,0.4885 0.35965,0.81206c-0.0417,0.10802 -0.11001,0.19795 -0.19457,0.26513c0.20817,0.16655 0.29442,0.45468 0.19329,0.7166c-0.01962,0.05083 -0.04515,0.09766 -0.07546,0.13998c0.25309,0.15547 0.36729,0.474 0.25647,0.76103c-0.12493,0.32356 -0.4885,0.48458 -0.81206,0.35965c-0.02515,-0.00971 -0.04931,-0.02087 -0.07244,-0.03333c-0.14275,0.28696 -0.48322,0.42322 -0.78819,0.30548c-0.32356,-0.12493 -0.48458,-0.4885 -0.35965,-0.81206c0.00971,-0.02515 0.02087,-0.04932 0.03332,-0.07245c-0.28696,-0.14275 -0.42322,-0.48322 -0.30548,-0.78819c0.0217,-0.05622 0.05064,-0.10753 0.08529,-0.15331c-0.2134,-0.1656 -0.30283,-0.45738 -0.20054,-0.72231c0.03034,-0.07858 0.07474,-0.14756 0.12924,-0.2052c-0.2267,-0.1628 -0.32432,-0.46368 -0.2191,-0.73619c0.02473,-0.06405 0.05882,-0.12171 0.10008,-0.17208c-0.17607,-0.17011 -0.2433,-0.43539 -0.14957,-0.67816c0.12493,-0.32356 0.4885,-0.48458 0.81206,-0.35965c0.20472,0.07905 0.34438,0.25364 0.3877,0.45319c0.01231,0.00391 0.02456,0.00821 0.03677,0.01292zM348.01521,187.25992c0.01423,-0.03687 0.03158,-0.07163 0.05159,-0.10409c-0.00995,0.0043 -0.02,0.00834 -0.03015,0.01211c-0.0025,0.00723 -0.00515,0.01445 -0.00791,0.02164c-0.03034,0.07858 -0.07474,0.14756 -0.12924,0.2052c0.0265,0.01902 0.05121,0.03993 0.07406,0.06245c0.00305,-0.06589 0.01658,-0.13239 0.04165,-0.19731zM348.14792,188.03151c0.01905,-0.01973 0.0393,-0.03805 0.06056,-0.05496c-0.0169,-0.01352 -0.033,-0.02784 -0.04825,-0.04289c-0.00151,0.03256 -0.00557,0.06524 -0.01233,0.09784zM348.21879,189.08851c0.01509,-0.03033 0.03236,-0.05897 0.05159,-0.08581c-0.00966,-0.00594 -0.01913,-0.01212 -0.02839,-0.01852c-0.00258,0.00748 -0.00529,0.01495 -0.00817,0.0224c-0.00971,0.02515 -0.02087,0.04931 -0.03333,0.07244c0.00617,0.00307 0.01227,0.00622 0.01828,0.00947z" fill="#e93e3e" fill-rule="nonzero" stroke="none" stroke-width="0.5" stroke-linecap="butt" stroke-linejoin="miter"/><path d="M351.08606,177.72343c0.32356,0.12493 0.48458,0.4885 0.35965,0.81206c-0.03306,0.08562 -0.08282,0.15986 -0.14415,0.22044c0.03574,0.12631 0.03234,0.26486 -0.0186,0.39674c-0.05217,0.13513 -0.14597,0.24189 -0.26108,0.31135c0.0745,0.15177 0.08787,0.33297 0.02219,0.5031c-0.06159,0.15953 -0.18119,0.27953 -0.32538,0.34523c0.13951,0.16929 0.18612,0.40686 0.10147,0.62608c-0.06655,0.17234 -0.20081,0.29859 -0.36066,0.36004c0.11539,0.1655 0.14912,0.38352 0.07098,0.5859c-0.09876,0.25581 -0.34669,0.41002 -0.60607,0.40165c0.0422,0.13175 0.04133,0.27825 -0.01237,0.41735c-0.06646,0.17212 -0.20046,0.29825 -0.36004,0.3598c0.19593,0.16835 0.27484,0.44792 0.17647,0.70267c-0.05217,0.13513 -0.14597,0.24189 -0.26108,0.31135c0.07449,0.15177 0.08787,0.33297 0.02219,0.5031c-0.02671,0.06921 -0.06437,0.13098 -0.1102,0.18411c-0.00177,0.07014 -0.0154,0.14118 -0.04212,0.2104c-0.02061,0.05335 -0.04769,0.10228 -0.08001,0.14623c0.0203,0.11021 0.01138,0.22721 -0.03196,0.33943c-0.07313,0.18939 -0.22802,0.32309 -0.40879,0.37635c0.02593,0.11668 0.01889,0.24202 -0.02739,0.36191c-0.12493,0.32356 -0.4885,0.48458 -0.81206,0.35965c-0.32356,-0.12493 -0.48458,-0.4885 -0.35965,-0.81206c0.07313,-0.18939 0.22802,-0.32309 0.40879,-0.37635c-0.02593,-0.11668 -0.01889,-0.24202 0.02739,-0.36191c0.02061,-0.05335 0.04769,-0.10228 0.08001,-0.14623c-0.0203,-0.11022 -0.01138,-0.22721 0.03196,-0.33943c0.02671,-0.06921 0.06436,-0.13099 0.1102,-0.18412c0.00177,-0.07014 0.01541,-0.14119 0.04214,-0.21041c0.05217,-0.13513 0.14597,-0.24189 0.26108,-0.31135c-0.07449,-0.15176 -0.08786,-0.33295 -0.02219,-0.50308c0.06646,-0.17212 0.20046,-0.29825 0.36004,-0.3598c-0.19593,-0.16836 -0.27484,-0.44792 -0.17647,-0.70267c0.09877,-0.2558 0.34669,-0.41002 0.60607,-0.40165c-0.0422,-0.13175 -0.04133,-0.27825 0.01237,-0.41735c0.06655,-0.17234 0.20081,-0.29859 0.36066,-0.36004c-0.11539,-0.1655 -0.14912,-0.38352 -0.07098,-0.5859c0.06159,-0.15953 0.18119,-0.27952 0.32539,-0.34524c-0.1395,-0.16928 -0.18612,-0.40686 -0.10147,-0.62608c0.05217,-0.13513 0.14597,-0.24189 0.26108,-0.31135c-0.07449,-0.15176 -0.08787,-0.33297 -0.02219,-0.5031c0.03306,-0.08562 0.08282,-0.15986 0.14415,-0.22044c-0.03574,-0.12631 -0.03234,-0.26486 0.0186,-0.39674c0.12493,-0.32356 0.4885,-0.48458 0.81206,-0.35965z" fill="#e93e3e" fill-rule="nonzero" stroke="none" stroke-width="0.5" stroke-linecap="butt" stroke-linejoin="miter"/><path d="M347.42269,190.12897c-0.12493,0.32356 -0.4885,0.48458 -0.81206,0.35965c-0.30497,-0.11775 -0.46553,-0.44747 -0.37839,-0.7559c-0.02551,-0.00632 -0.0509,-0.01429 -0.07605,-0.024c-0.32356,-0.12493 -0.48458,-0.4885 -0.35965,-0.81206c0.04836,-0.12523 0.13247,-0.22612 0.23617,-0.2955c-0.01576,-0.00471 -0.03148,-0.01007 -0.04712,-0.01611c-0.32356,-0.12493 -0.48458,-0.4885 -0.35965,-0.81206c0.04494,-0.11638 0.12074,-0.21173 0.21444,-0.28029c-0.17447,-0.17019 -0.24076,-0.43429 -0.14742,-0.67606c0.03307,-0.08564 0.08284,-0.15989 0.14419,-0.22046c-0.18993,-0.16904 -0.26529,-0.44434 -0.1683,-0.69551c0.12493,-0.32356 0.4885,-0.48458 0.81206,-0.35965c0.32356,0.12493 0.48458,0.4885 0.35965,0.81206c-0.03307,0.08564 -0.08284,0.15989 -0.14419,0.22046c0.18993,0.16904 0.26529,0.44434 0.1683,0.69551c-0.04493,0.11637 -0.12074,0.21172 -0.21444,0.28029c0.17447,0.17019 0.24075,0.4343 0.14742,0.67606c-0.04836,0.12523 -0.13247,0.22612 -0.23617,0.2955c0.01576,0.00471 0.03148,0.01007 0.04712,0.01611c0.30497,0.11775 0.46551,0.44748 0.37838,0.7559c0.02552,0.00632 0.05091,0.0143 0.07605,0.02401c0.32356,0.12493 0.48458,0.4885 0.35965,0.81206z" fill="#e93e3e" fill-rule="nonzero" stroke="none" stroke-width="0.5" stroke-linecap="butt" stroke-linejoin="miter"/><path d="M352.01795,175.65863c-0.02497,0.06471 -0.0977,0.0969 -0.16241,0.07193c-0.06471,-0.02497 -0.0969,-0.0977 -0.07193,-0.16241c0.02497,-0.06471 0.0977,-0.0969 0.16241,-0.07193c0.06471,0.02497 0.0969,0.0977 0.07193,0.16241z" fill="#a00000" fill-rule="nonzero" stroke="none" stroke-width="0.5" stroke-linecap="butt" stroke-linejoin="miter"/><path d="M349.46401,175.46455c-0.12259,0.02735 -0.14993,-0.09523 -0.14993,-0.09523l-0.00128,-0.00573c-0.03646,-0.16344 -0.07294,-0.32689 -0.1094,-0.49033c0,0 -0.02735,-0.12259 0.09523,-0.14993c0.12259,-0.02735 0.14993,0.09523 0.14993,0.09523c0.03646,0.16345 0.07422,0.33262 0.11069,0.49608c0,0 0.02735,0.12259 -0.09523,0.14993z" fill="#a00000" fill-rule="nonzero" stroke="none" stroke-width="0.5" stroke-linecap="butt" stroke-linejoin="miter"/><path d="M350.61079,174.25803c0.11091,0.04282 0.18999,0.13239 0.22344,0.2375c0.07653,-0.07899 0.20355,-0.1482 0.39373,-0.07476c0.35152,0.13573 0.21578,0.48723 0.21578,0.48723l-0.03325,0.07188c-0.00903,0.04224 -0.01692,0.08383 -0.0239,0.12487c0.03468,0.02754 0.06378,0.06068 0.08645,0.09758c0.01759,-0.03401 0.055,-0.07539 0.13082,-0.0623c0.0247,0.00427 0.04361,0.01261 0.05808,0.02324c0.00987,0.00162 0.02037,0.00443 0.03151,0.00876c0.11718,0.04524 0.07193,0.16241 0.07193,0.16241l-0.02539,0.06576c-0.02469,0.05755 -0.05833,0.11297 -0.09875,0.16327c-0.02082,0.07865 -0.0434,0.16106 -0.06444,0.24365c0.00639,0.0025 0.01294,0.00498 0.01967,0.00746l0.10996,0.15745c0,0 0.00804,0.01817 0.01052,0.04324c0.00872,0.00135 0.01743,0.00367 0.02601,0.00698c0.06471,0.02497 0.0969,0.0977 0.07193,0.16241c-0.01224,0.03169 -0.03592,0.05557 -0.0645,0.06878c0.00422,0.00245 0.00826,0.0051 0.0121,0.00798c0.02281,0.00046 0.0487,0.00678 0.0713,0.02669c0.01015,0.00122 0.02029,0.00372 0.03027,0.00756c0.06471,0.02497 0.0969,0.0977 0.07193,0.16241c-0.0191,0.04947 -0.06607,0.07992 -0.11604,0.08038c-0.0022,0.00235 -0.00447,0.00463 -0.00681,0.00681c-0.03409,0.03159 -0.08443,0.04295 -0.1307,0.0251c-0.00308,-0.00119 -0.00609,-0.00248 -0.00901,-0.00388c-0.05063,0.02727 -0.09984,0.0561 -0.14895,0.08506c0.00633,0.0664 0.01268,0.13282 0.01902,0.19922c0,0 0.01194,0.12504 -0.1131,0.13696c-0.08275,0.00788 -0.11595,-0.0442 -0.12896,-0.08034c-0.02329,0.00168 -0.04622,0.00252 -0.0688,0.00252c-0.02236,0.05793 -0.04474,0.11589 -0.06711,0.1738l0.08008,0.03092c0,0 0.04782,0.01846 0.07058,0.06235c0.0192,-0.0313 0.06641,-0.08503 0.15208,-0.05195c0.11718,0.04524 0.07193,0.16241 0.07193,0.16241l-0.02539,0.06576c-0.02539,0.06576 -0.05077,0.13149 -0.07617,0.19726c0,0 -0.04524,0.11718 -0.16241,0.07193c-0.11718,-0.04524 -0.07193,-0.16241 -0.07193,-0.16241c0.01074,-0.0278 0.02599,-0.06734 0.04196,-0.1087c-0.04536,0.01535 -0.09113,-0.00233 -0.09113,-0.00233l-0.05883,-0.02272l-0.04088,0.04555c-0.00038,0.00004 -0.00079,0.00008 -0.00118,0.00011c-0.0203,0.05257 -0.0406,0.10513 -0.0609,0.15773c0,0 -0.04524,0.11718 -0.16241,0.07193c-0.11718,-0.04524 -0.07193,-0.16241 -0.07193,-0.16241c0.01121,-0.02902 0.02267,-0.05872 0.03434,-0.08897c-0.01605,-0.01681 -0.02843,-0.0412 -0.03181,-0.07651c-0.00523,-0.05487 0.0159,-0.08796 0.04127,-0.10782c-0.09055,-0.00897 -0.15694,-0.03806 -0.20556,-0.07683c-0.09727,0.06118 -0.22119,0.07728 -0.33663,0.0327c-0.19414,-0.07496 -0.29075,-0.2931 -0.21578,-0.48723c0.03763,-0.09741 0.11127,-0.17026 0.19986,-0.20922c0.00122,-0.00472 0.00272,-0.00943 0.00452,-0.0141c0.02497,-0.06471 0.0977,-0.0969 0.16241,-0.07193c0.01759,0.00679 0.03279,0.01712 0.04508,0.02984c-0.03327,-0.1281 0.01389,-0.25022 0.01389,-0.25022c0.06323,-0.15354 0.09526,-0.30455 0.11462,-0.45623c-0.00981,0.01123 -0.0167,0.02431 -0.01962,0.03956c0,0 -0.03078,0.07972 -0.10732,0.08225c-0.01153,0.02987 -0.02306,0.05974 -0.03459,0.08962l0.03803,-0.00496c0,0 0.05086,0.11485 -0.06398,0.1657c-0.11485,0.05086 -0.1657,-0.06398 -0.1657,-0.06398l-0.0427,-0.18725c0.04232,-0.10959 0.08464,-0.21918 0.12693,-0.32877c0,0 0.04524,-0.11718 0.16241,-0.07193c0.02476,0.00956 0.04228,0.02235 0.05449,0.03654c0.02514,-0.01331 0.05117,-0.02519 0.07749,-0.03573c0.01008,-0.14409 0.01892,-0.29048 0.04178,-0.44179c-0.09326,0.0497 -0.20678,0.06011 -0.31309,0.01906c-0.19414,-0.07496 -0.29075,-0.2931 -0.21578,-0.48723c0.07496,-0.19414 0.2931,-0.29075 0.48723,-0.21578zM351.57011,176.31684c0.01224,-0.03169 0.03592,-0.05557 0.0645,-0.06878c-0.01628,-0.00944 -0.02984,-0.02219 -0.04012,-0.03702c-0.00625,0.00146 -0.01264,0.00242 -0.01908,0.0029l-0.07778,0.00742c-0.00468,0.05672 -0.00496,0.10973 0.00073,0.15733c0.02144,-0.01235 0.04305,-0.02458 0.06489,-0.03653c0.00137,-0.0085 0.00364,-0.01697 0.00688,-0.02533z" fill="#a00000" fill-rule="nonzero" stroke="none" stroke-width="0.5" stroke-linecap="butt" stroke-linejoin="miter"/><path d="M350.45513,173.29128l0.01468,0.00972c0.16189,0.03732 0.32378,0.07463 0.48567,0.11196c0,0 0.0329,0.00758 0.07673,0.02806c0.01344,0.00355 0.02682,0.00787 0.04011,0.013c0.19414,0.07496 0.29075,0.2931 0.21578,0.48723c-0.07496,0.19414 -0.2931,0.29075 -0.48723,0.21578c-0.01051,-0.00406 -0.02075,-0.00854 -0.03068,-0.01341c-0.15655,-0.03609 -0.3131,-0.07217 -0.46967,-0.10828l-0.11683,-0.04105c0,0 -0.35152,-0.13573 -0.21578,-0.48723c0.13573,-0.35152 0.48723,-0.21578 0.48723,-0.21578z" fill="#a00000" fill-rule="nonzero" stroke="none" stroke-width="0.5" stroke-linecap="butt" stroke-linejoin="miter"/><path d="M354.78007,168.01774c-0.49656,0.78205 -2.43283,1.28706 -2.6273,2.3164c0.06088,0.09693 0.10856,0.25341 -0.03578,0.42822c-0.15903,0.19259 -0.34032,0.1521 -0.44448,0.10292c-0.13446,-0.0258 -0.20634,-0.10444 -0.24471,-0.18406l-0.0298,-0.02473c-1.37898,-1.28318 -2.89125,-2.41502 -4.15073,-3.80695c-0.32324,-0.35722 -1.63791,-1.05155 -0.93127,-1.75155c0.28057,-0.27794 1.85129,0.50989 2.15009,0.62526c1.03001,0.39769 2.06392,0.78651 3.09041,1.19324c0.16227,0.06429 0.76608,0.27021 0.94403,0.13762c0.0867,-0.06462 0.00907,-0.90552 0.00758,-1.02963c-0.01365,-1.13485 0.59707,-2.11602 0.57607,-3.25316c-0.00444,-0.77777 0.77729,-2.7853 1.63467,-1.29186c0.20516,0.35735 0.08146,1.31385 0.23082,1.75218c0.57963,1.70118 0.89305,2.93989 0.80894,4.7524c0,0 -0.0176,0.37639 -0.39398,0.35879c-0.37639,-0.0176 -0.35879,-0.39398 -0.35879,-0.39398c0.00183,-0.0392 0.00359,-0.07814 0.00519,-0.1168c-0.04907,0.10248 -0.13491,0.16304 -0.13491,0.16304l-0.09607,0.02264z" fill="#ffffff" fill-rule="nonzero" stroke="none" stroke-width="0.5" stroke-linecap="butt" stroke-linejoin="miter"/><path d="M353.42768,161.04186c0.00844,-0.00543 0.01693,-0.01075 0.02544,-0.01593l0.07262,0.15334c0.00557,0.00195 0.01121,0.00401 0.01687,0.00621c0.07806,0.03015 0.1321,0.07091 0.16892,0.11613c0.03551,-0.11456 0.07658,-0.23168 0.12376,-0.35478c0,0 0.13573,-0.35152 0.48723,-0.21578c0.35152,0.13573 0.21578,0.48723 0.21578,0.48723c-0.00905,0.02324 -0.01784,0.04616 -0.02633,0.06875l-0.00153,0.52147c0.01359,0.0485 0.01924,0.10329 0.01748,0.16341c0.07167,-0.0489 0.15143,-0.10201 0.24031,-0.16086l0.11213,0.86599c-0.06988,0.08137 -0.13975,0.16273 -0.20961,0.2441c0.15707,0.22905 0.22354,0.46176 0.07067,0.70593c-0.17284,0.27607 -0.53465,0.37215 -0.80199,0.55823l-0.05575,-0.36822c-0.07817,0.06052 -0.15633,0.12101 -0.23447,0.18152l-0.06719,-0.4039c-0.04911,0.05692 -0.09952,0.11218 -0.15088,0.16562l-0.28831,-0.79559c0.03682,-0.13319 0.10214,-0.26015 0.186,-0.37487c-0.14719,-0.23623 -0.26129,-0.495 -0.32931,-0.76139l-0.09597,0.0197c0.00451,-0.07975 0.02256,-0.1591 0.05134,-0.23596c-0.01349,-0.08598 -0.02195,-0.17231 -0.02495,-0.25852l0.49773,-0.31179z" fill="#a00000" fill-rule="nonzero" stroke="none" stroke-width="0.5" stroke-linecap="butt" stroke-linejoin="miter"/><path d="M348.31959,165.51553c0.35152,0.13573 0.21578,0.48723 0.21578,0.48723l-0.02235,0.05244c0.05638,0.09574 0.07003,0.2154 0.02691,0.3271c-0.02983,0.07726 -0.08235,0.13907 -0.14698,0.18077l-0.05209,0.67509c-0.00209,0.03857 -0.01017,0.07747 -0.02485,0.11547c-0.07496,0.19414 -0.2931,0.29075 -0.48723,0.21578c-0.15089,-0.05825 -0.24285,-0.203 -0.24116,-0.35575l-0.00279,-0.23049l-0.08939,0.07975c-0.04854,-0.14173 -0.08683,-0.27274 -0.11512,-0.39235c-0.05841,0.0066 -0.11922,-0.00038 -0.17786,-0.023c-0.15089,-0.05825 -0.24285,-0.203 -0.24116,-0.35575l-0.00216,-0.17996c-0.09317,0.0495 -0.20651,0.05982 -0.31265,0.01883c-0.04514,-0.01743 -0.085,-0.04261 -0.11865,-0.0734c-0.13421,-0.0186 -0.22577,-0.07669 -0.19865,-0.20132c-0.00886,-0.00269 -0.01767,-0.00573 -0.02644,-0.00911c-0.19414,-0.07496 -0.29075,-0.2931 -0.21578,-0.48723c0.00848,-0.02197 0.0188,-0.04269 0.03071,-0.06206l0.15096,-0.2555l-0.03551,-0.05314c0.02576,-0.00543 0.05107,-0.01053 0.07593,-0.01529l0.01994,-0.03375c0.09059,-0.15971 0.28685,-0.2333 0.46329,-0.16518c0.0784,0.03028 0.14088,0.08388 0.1826,0.14984c0.23677,0.02494 0.36814,0.11214 0.40106,0.2387c0.21981,0.09096 0.33692,0.32478 0.47539,0.52887c0.04807,-0.08764 0.19108,-0.28361 0.46827,-0.17658z" fill="#a00000" fill-rule="nonzero" stroke="none" stroke-width="0.5" stroke-linecap="butt" stroke-linejoin="miter"/><path d="M358.43862,162.27089c-0.07496,0.19414 -0.2931,0.29075 -0.48723,0.21578c-0.19414,-0.07496 -0.29075,-0.2931 -0.21578,-0.48723c0.07496,-0.19414 0.2931,-0.29075 0.48723,-0.21578c0.19414,0.07496 0.29075,0.2931 0.21578,0.48723z" fill="#a00000" fill-rule="nonzero" stroke="none" stroke-width="0.5" stroke-linecap="butt" stroke-linejoin="miter"/><path d="M361.74649,162.32269l-0.26835,0.02279c-0.43587,0.09459 -0.8859,0.12216 -1.33187,0.12864c0,0 -0.37677,0.00454 -0.38132,-0.37223c-0.00454,-0.37677 0.37223,-0.38132 0.37223,-0.38132c0.39454,-0.00364 0.79353,-0.02432 1.17846,-0.11098l0.35923,-0.03711c0,0 0.3751,-0.0358 0.4109,0.3393c0.0358,0.3751 -0.3393,0.4109 -0.3393,0.4109z" fill="#a00000" fill-rule="nonzero" stroke="none" stroke-width="0.5" stroke-linecap="butt" stroke-linejoin="miter"/><path d="M362.90201,162.25647c-0.07496,0.19414 -0.2931,0.29075 -0.48723,0.21578c-0.19414,-0.07496 -0.29075,-0.2931 -0.21578,-0.48723c0.07496,-0.19414 0.2931,-0.29075 0.48723,-0.21578c0.19414,0.07496 0.29075,0.2931 0.21578,0.48723z" fill="#a00000" fill-rule="nonzero" stroke="none" stroke-width="0.5" stroke-linecap="butt" stroke-linejoin="miter"/><path d="M364.30823,162.72386c-0.07496,0.19414 -0.2931,0.29075 -0.48723,0.21578c-0.19414,-0.07496 -0.29075,-0.2931 -0.21578,-0.48723c0.07496,-0.19414 0.2931,-0.29075 0.48723,-0.21578c0.19414,0.07496 0.29075,0.2931 0.21578,0.48723z" fill="#a00000" fill-rule="nonzero" stroke="none" stroke-width="0.5" stroke-linecap="butt" stroke-linejoin="miter"/><path d="M357.0565,162.71949c-0.07496,0.19414 -0.2931,0.29075 -0.48723,0.21578c-0.19414,-0.07496 -0.29075,-0.2931 -0.21578,-0.48723c0.07496,-0.19414 0.2931,-0.29075 0.48723,-0.21578c0.19414,0.07496 0.29075,0.2931 0.21578,0.48723z" fill="#a00000" fill-rule="nonzero" stroke="none" stroke-width="0.5" stroke-linecap="butt" stroke-linejoin="miter"/><path d="M349.74689,164.43053c-0.07496,0.19414 -0.2931,0.29075 -0.48723,0.21578c-0.19414,-0.07496 -0.29075,-0.2931 -0.21578,-0.48723c0.07496,-0.19414 0.2931,-0.29075 0.48723,-0.21578c0.19414,0.07496 0.29075,0.2931 0.21578,0.48723z" fill="#a00000" fill-rule="nonzero" stroke="none" stroke-width="0.5" stroke-linecap="butt" stroke-linejoin="miter"/><path d="M351.07367,163.73392c-0.07496,0.19414 -0.2931,0.29075 -0.48723,0.21578c-0.19414,-0.07496 -0.29075,-0.2931 -0.21578,-0.48723c0.07496,-0.19414 0.2931,-0.29075 0.48723,-0.21578c0.19414,0.07496 0.29075,0.2931 0.21578,0.48723z" fill="#a00000" fill-rule="nonzero" stroke="none" stroke-width="0.5" stroke-linecap="butt" stroke-linejoin="miter"/><path d="M352.52153,163.31071c-0.07496,0.19414 -0.2931,0.29075 -0.48723,0.21578c-0.19414,-0.07496 -0.29075,-0.2931 -0.21578,-0.48723c0.07496,-0.19414 0.2931,-0.29075 0.48723,-0.21578c0.19414,0.07496 0.29075,0.2931 0.21578,0.48723z" fill="#a00000" fill-rule="nonzero" stroke="none" stroke-width="0.5" stroke-linecap="butt" stroke-linejoin="miter"/><path d="M319.55587,170.62735c-0.32456,-0.12531 -0.56733,-0.37069 -0.69721,-0.66579c-0.27554,0.01283 -0.59065,-0.07904 -0.90547,-0.39468c-0.50214,-0.50345 -0.43498,-1.00616 -0.2822,-1.34761c-0.40349,-0.30559 -0.59102,-0.83446 -0.45162,-1.33604l0.34682,-1.31527l0.18002,0.04747l0.00296,-0.44381c1.90844,-1.42252 5.78394,-3.87611 5.23828,0.87176c-0.01876,0.16335 -0.0507,0.3164 -0.09406,0.46046c0.14026,0.29924 0.16293,0.65301 0.0345,0.98566c-0.23011,0.59597 -0.86505,0.91622 -1.46946,0.76794c-0.16841,0.1225 -0.34154,0.2412 -0.51446,0.35995c0.30449,0.34042 0.4118,0.83535 0.23601,1.29068c-0.24986,0.64711 -0.97699,0.96915 -1.62412,0.7193z" fill="#ffffff" fill-rule="nonzero" stroke="none" stroke-width="0.5" stroke-linecap="butt" stroke-linejoin="miter"/><path d="M324.89183,166.61969c-0.23519,0.60913 -0.89327,0.93022 -1.50943,0.75743c-0.0038,0.13945 -0.03107,0.28064 -0.08418,0.4182c-0.18986,0.49174 -0.65531,0.79576 -1.15182,0.80377c-0.14373,0.22398 -0.35224,0.39141 -0.5902,0.48663c0.07046,0.2517 0.06324,0.52748 -0.03815,0.79006c-0.24986,0.64711 -0.97699,0.96915 -1.62412,0.7193c-0.64711,-0.24986 -0.96915,-0.97699 -0.7193,-1.62412c0.13087,-0.33894 0.39268,-0.5887 0.70534,-0.71382c-0.07046,-0.2517 -0.06324,-0.52748 0.03815,-0.79006c0.18986,-0.49174 0.65531,-0.79576 1.15182,-0.80377c0.29429,-0.4586 0.86006,-0.68007 1.39429,-0.53026c0.0038,-0.13945 0.03107,-0.28064 0.08418,-0.4182c0.24986,-0.64711 0.97699,-0.96915 1.62412,-0.7193c0.64711,0.24986 0.96915,0.97699 0.7193,1.62412z" fill="#a00000" fill-rule="nonzero" stroke="none" stroke-width="0.5" stroke-linecap="butt" stroke-linejoin="miter"/></g></g></g></svg>