<svg version="1.1" xmlns="http://www.w3.org/2000/svg" xmlns:xlink="http://www.w3.org/1999/xlink" width="980.48048" height="630.63063" viewBox="0,0,980.48048,630.63063"><g transform="translate(145.24024,130.31528)"><g data-paper-data="{&quot;isPaintingLayer&quot;:true}" stroke-miterlimit="10" stroke-dasharray="" stroke-dashoffset="0" style="mix-blend-mode: normal"><path d="M-145.24024,500.31535v-630.63063h980.48048v630.63063z" fill="#000000" fill-rule="nonzero" stroke="#ff3838" stroke-width="0" stroke-linecap="butt" stroke-linejoin="miter"/><text transform="translate(304.71471,259.28905) scale(0.5,0.5)" font-size="40" xml:space="preserve" fill="#ffffff" fill-rule="nonzero" stroke="none" stroke-width="1" stroke-linecap="butt" stroke-linejoin="miter" stroke-miterlimit="10" stroke-dasharray="" stroke-dashoffset="0" font-family="Marker" font-weight="normal" text-anchor="start" style="mix-blend-mode: normal"><tspan x="0" dy="0">Loading</tspan></text><g><path d="M334.30316,191.06989c0.46497,0.22663 0.77158,3.99691 1.99741,5.22411c0.89676,0.84424 2.06105,1.80803 3.6578,2.16287c3.60089,0.85398 2.78162,1.43688 3.01093,3.60603c0.25807,2.21035 -0.52077,3.72565 -5.67989,-0.1461c-1.78551,-1.32627 -2.87947,-2.89092 -3.73075,-4.1961c-0.23028,-0.3294 -1.92846,-3.37194 -1.21941,-5.33893c0.70902,-1.967 1.56897,-1.52612 1.96398,-1.31187z" fill="#000000" fill-rule="evenodd" stroke="#001026" stroke-width="1.2" stroke-linecap="round" stroke-linejoin="round"/><path d="M328.04537,191.786c0.00471,-1.04543 0.72173,-2.65021 2.75469,-2.10989c2.38274,0.60226 2.18354,3.5614 2.14167,4.81673c-0.04184,1.25533 -0.12453,1.92615 0.20751,4.32997c0.11883,0.95907 0.42277,2.09519 0.60355,2.70446c0.10276,0.23463 0.2467,0.44054 0.473,0.58882c0.42378,0.25542 -1.27844,-4.49224 -1.30791,-3.30692c-0.14316,1.27263 1.04215,1.18268 -0.92919,0.96007c-0.22648,-0.02556 0.38656,0.10888 0.14503,0.10782c-2.27229,-0.00988 -0.888,1.19481 -1.29455,-0.12036c-0.88337,-2.75397 -2.4619,-2.42313 -0.98431,-2.41411c0.22227,-0.03284 0.76956,-0.53807 0.69557,-0.73153l-1.51101,1.99934c-0.18123,-0.57822 -0.08734,0.90093 -0.21873,0.33717c-0.14586,-0.62578 -0.25295,-2.28472 -0.34803,-2.87204c-0.40776,-2.51873 -0.41057,-3.53666 -0.42725,-4.28955z" fill="#000000" fill-rule="evenodd" stroke="#001026" stroke-width="1.2" stroke-linecap="round" stroke-linejoin="round"/><path d="M332.51084,179.51086c1.10702,0.26816 1.7976,1.86959 0.67351,2.71683c-1.07054,0.74847 -2.78678,0.66111 -3.79102,0.62761c-1.00424,-0.03347 -5.04568,-0.64074 -5.75565,-4.3742c-0.21725,-1.6259 0.13096,-6.03787 2.52605,-5.50558c2.39512,0.53226 1.65697,3.07134 1.48327,4.66406c-0.16537,1.34167 4.55523,1.78057 4.8639,1.87129z" fill="#000000" fill-rule="evenodd" stroke="#001026" stroke-width="1.2" stroke-linecap="round" stroke-linejoin="round"/><g fill-rule="evenodd"><path d="M328.12382,187.26484c0.02513,-0.75319 0.29727,-1.67911 0.78367,-3c0.4081,-1.08224 1.52849,-2.72384 1.52849,-2.72384c0.77026,-1.09025 2.57391,-2.71914 3.48273,-1.3316c0.59218,0.93461 1.29146,1.67174 2.47612,2.92775c2.22139,2.12501 2.86743,2.34761 1.899,4.55731c-1.19907,2.49352 -0.65382,6.34215 -6.51828,5.23171c0,0 -2.97526,-0.92363 -7.06183,-1.68318c-2.75732,-0.52426 -6.87675,-1.50611 -8.29236,-1.86495c-0.30865,-0.09073 -0.56372,-0.28018 -0.77762,-0.49844c-3.163,-3.73483 -4.824,-6.98729 -3.05351,-8.22516c2.96456,-2.07274 6.05188,4.5349 6.05188,4.5349c0,0 2.93008,0.77129 4.31692,1.08898z" fill="#000000" stroke="#001026" stroke-width="1.2" stroke-linecap="round" stroke-linejoin="round"/><path d="M329.61587,183.52438c0,0 0.48239,-1.50202 2.83199,-0.50879c2.48952,1.01798 1.66134,2.63917 1.19133,4.07122c-0.70067,1.71592 -1.89401,1.32425 -3.21092,1.01896c-1.07821,-0.22698 -2.00414,-0.4991 -2.00414,-0.4991c0,0 -0.02778,-1.88095 1.19173,-4.08224z" fill="#a00000" stroke="none" stroke-width="1" stroke-linecap="butt" stroke-linejoin="miter"/></g><g fill-rule="evenodd"><path d="M353.94196,164.8333c0.82682,0.83185 1.6001,1.76245 2.32381,2.97291c1.27071,1.99278 1.8662,4.33502 1.8662,4.33502l6.73611,2.70784c0.19749,0.1071 0.21792,0.39937 0.02445,0.47333l-7.97476,4.2884c0.15665,-0.47733 -2.21877,8.04938 -8.95664,8.40784c-6.73784,0.35847 -13.18472,-4.39069 -17.07345,-13.19663c-3.88871,-8.80593 -0.70855,-13.72674 1.98385,-14.87357c2.69239,-1.14685 5.60101,1.17202 5.60101,1.17202c0,0 1.88163,-1.25429 5.06743,-1.52006c1.90572,-0.16769 5.68336,1.11443 5.68336,1.11443l5.15416,-2.0098c0.19349,-0.07397 0.37861,0.1031 0.38261,0.28423z" fill="#000000" stroke="#001026" stroke-width="1.2" stroke-linecap="butt" stroke-linejoin="miter"/><path d="M338.39419,161.35913c3.22928,2.95282 0.86564,5.0959 2.73248,8.20438c2.17114,3.63138 9.22865,5.74672 6.75177,11.58573c-2.43569,5.81025 -11.67544,5.22067 -16.58342,-6.18296c-3.87231,-8.69482 -1.01317,-13.63633 1.67923,-14.78319c2.69238,-1.14685 5.4199,1.17603 5.4199,1.17603z" fill="#000000" stroke="none" stroke-width="1" stroke-linecap="butt" stroke-linejoin="miter"/><path d="M343.05681,177.4094c-1.93118,1.53415 -4.82544,3.006 -7.85688,-0.45297c-3.26975,-4.15057 -1.27565,-7.8743 -0.42305,-9.02217c0.14829,-0.22627 0.46935,-0.20553 0.57209,0.02914c0.30831,0.70398 1.10599,2.10792 2.78406,4.24498c1.89201,2.35527 4.10534,4.11812 4.94054,4.69892c0.15633,0.13589 0.14795,0.38695 -0.01675,0.5021z" fill="#000000" stroke="#001026" stroke-width="1.2" stroke-linecap="round" stroke-linejoin="round"/><path d="M334.46424,160.12224c0,0 -2.03157,-2.99333 -1.81997,-6.02249" fill="none" stroke="#001026" stroke-width="1.2" stroke-linecap="round" stroke-linejoin="round"/><path d="M331.91981,161.65601c0,0 -1.90504,-1.05883 -3.51284,-3.79675" fill="none" stroke="#001026" stroke-width="1.2" stroke-linecap="round" stroke-linejoin="round"/><path d="M343.10134,171.248c-0.6588,0.46061 -2.89724,-0.54902 -3.33308,-1.34772c-0.41944,-0.6876 0.30162,-2.11124 0.90684,-2.47313c0.31701,-0.16034 1.03269,0.68792 1.63728,1.5526c0.57575,0.82349 1.31187,1.96398 0.78898,2.26825z" fill="#001026" stroke="#000000" stroke-width="1.2" stroke-linecap="round" stroke-linejoin="round"/><path d="M349.97196,183.79279c2.28399,0.54868 5.91264,3.28361 5.91264,3.28361" fill="none" stroke="#001026" stroke-width="1.2" stroke-linecap="round" stroke-linejoin="round"/><path d="M351.56569,189.667c0,0 -2.58324,-2.73024 -3.12116,-4.99013" fill="none" stroke="#001026" stroke-width="1.2" stroke-linecap="round" stroke-linejoin="round"/><g fill="#a00000"><path d="M348.70311,163.65328c0.06493,1.6711 -2.06377,3.09809 -4.75145,3.19948c-2.71648,0.06022 -4.9054,-1.22923 -4.97034,-2.90029c-0.06493,-1.6711 2.06377,-3.09809 4.75145,-3.19948c2.68774,-0.10139 4.94659,1.20046 4.97034,2.90029z" stroke="#001026" stroke-width="1.2" stroke-linecap="round" stroke-linejoin="round"/><path d="M341.50097,162.55859c0.4529,-0.31665 1.05379,-0.24637 1.34167,0.16537c0.2879,0.41177 0.14761,1.00025 -0.3053,1.31691c-0.4529,0.31665 -1.05379,0.24637 -1.34167,-0.16537c-0.2879,-0.41177 -0.14761,-1.00025 0.3053,-1.31691" stroke="none" stroke-width="1" stroke-linecap="butt" stroke-linejoin="miter"/></g><g><path d="M349.71931,171.77028c2.67534,-0.03146 5.01654,1.21283 4.96195,3.15137c-0.0134,1.90975 -2.41792,3.46829 -5.12203,3.4586c-2.67534,0.03146 -4.51844,-1.3772 -4.68612,-3.28291c0.00503,-1.65868 2.17086,-3.29562 4.84619,-3.32704z" fill="#ffffff" stroke="#001026" stroke-width="1.2" stroke-linecap="round" stroke-linejoin="round"/><path d="M347.50396,173.68704c0.4529,-0.31665 1.01262,-0.21757 1.34167,0.16537c0.2879,0.41177 0.14761,1.00025 -0.3053,1.31691c-0.4529,0.31665 -1.05379,0.24637 -1.34167,-0.16537c-0.2879,-0.41177 -0.14761,-1.00025 0.3053,-1.31691" fill="#001026" stroke="none" stroke-width="1" stroke-linecap="butt" stroke-linejoin="miter"/></g></g><path d="M345.93815,174.02757c0,0 -0.13408,-0.07271 -0.23426,-0.21256c-0.15374,0.09149 -0.31618,0.2175 -0.51118,0.41222c-0.64465,0.45336 -1.29056,0.90492 -1.93645,1.35653l-0.33507,0.36788c0,0 -0.43412,0.45381 -0.88792,0.01969c-0.45379,-0.43413 -0.01969,-0.88792 -0.01969,-0.88792l0.52296,-0.52903c0.61759,-0.43179 1.23505,-0.86378 1.85397,-1.29365c1.14895,-1.10794 3.20167,-1.87521 4.60007,-2.29999c1.12953,-0.34313 2.19897,0.39219 3.4101,-0.00807c0.4483,-0.14814 0.65279,-0.71455 1.07914,-0.91733c0.21848,-0.10392 0.50782,0.05303 0.72368,-0.05629c1.14105,-0.57767 1.12641,-0.95305 2.52628,-0.87346c0,0 0.62669,0.04053 0.58617,0.66723c-0.04053,0.62669 -0.66723,0.58617 -0.66723,0.58617c-1.69046,-0.12608 -2.39737,1.24048 -3.82923,1.77784c-0.98194,0.36849 -2.08483,0.2254 -3.02101,-0.01507c-0.03723,-0.00955 -0.07161,-0.01643 -0.10348,-0.02087c0.02225,0.13265 0.00337,0.23942 0.00337,0.23942c-0.04001,0.22601 -0.08005,0.45196 -0.12003,0.67795l-0.35827,0.47493c0,0 -0.51467,0.35985 -0.87453,-0.15481c-0.24056,-0.34404 -0.09029,-0.61889 0.03575,-0.76334c0.00122,-0.00685 0.00242,-0.01371 0.00363,-0.02052c-0.13221,-0.02859 -0.26471,-0.05849 -0.39188,-0.02872c-0.3525,0.08267 -0.5829,0.41874 -0.86943,0.65073c0.17402,0.08199 0.27662,0.22874 0.27662,0.22874l-0.74436,1.01162c-0.23923,-0.12975 -0.47845,-0.2595 -0.71769,-0.38928z" fill="#a00000" fill-rule="nonzero" stroke="none" stroke-width="0.5" stroke-linecap="butt" stroke-linejoin="miter"/><path d="M340.47867,174.38505c-0.45379,-0.43413 -0.01969,-0.88792 -0.01969,-0.88792l0.37866,-0.38882c0.16328,-0.21875 0.32657,-0.43748 0.48985,-0.65625c0.50947,-0.49693 0.9459,-1.38397 1.58164,-1.71888c0.55139,-0.2905 1.44127,-0.32329 2.04639,-0.5032c1.67768,-0.49887 3.56144,-1.12314 5.1465,-1.84247c1.40763,-0.63879 2.92074,-2.20443 4.21537,-3.10961c0,0 0.51467,-0.35985 0.87453,0.15481c0.35985,0.51467 -0.15481,0.87453 -0.15481,0.87453c-1.38122,0.96571 -2.91736,2.53079 -4.42301,3.22714c-1.62741,0.75266 -3.58268,1.39084 -5.30517,1.90082c-0.05573,0.01649 -1.67641,0.34166 -1.78299,0.39204c-0.44107,0.20851 -0.90321,1.10707 -1.25187,1.45031c-0.14271,0.19322 -0.28545,0.38641 -0.42817,0.57966l-0.47935,0.50808c0,0 -0.43412,0.45381 -0.88792,0.01969z" fill="#a00000" fill-rule="nonzero" stroke="none" stroke-width="0.5" stroke-linecap="butt" stroke-linejoin="miter"/><path d="M328.78047,169.24867c0.10949,-0.61841 0.72787,-0.50892 0.72787,-0.50892l0.48402,0.11611c1.9152,-1.01593 3.88948,-2.0554 5.85579,-2.98119c1.54595,-0.72789 2.35311,-2.48894 4.19734,-1.42334c0,0 0.52527,0.34424 0.18103,0.86949c-0.34421,0.52527 -0.86948,0.18103 -0.86948,0.18103c-0.67369,-0.57197 -1.66778,0.61289 -2.27785,1.03472c-2.07186,1.43263 -4.61346,2.54965 -6.91799,3.56386l-0.8719,-0.12393c0,0 -0.61837,-0.10948 -0.50892,-0.72787z" fill="#a00000" fill-rule="nonzero" stroke="none" stroke-width="0.5" stroke-linecap="butt" stroke-linejoin="miter"/><path d="M328.36679,167.70357c-0.35985,-0.51467 0.15481,-0.87453 0.15481,-0.87453l0.48848,-0.33112c2.07523,-0.98971 3.94792,-2.2387 6.09971,-3.0611c1.34214,-0.51298 2.90333,-0.52854 4.17274,-1.15092c0,0 0.56684,-0.27035 0.83718,0.29651c0.27035,0.56684 -0.29651,0.83718 -0.29651,0.83718c-1.34404,0.6273 -2.88922,0.66405 -4.28395,1.19756c-2.11222,0.80792 -3.94846,2.04153 -5.98849,3.01449l-0.30947,0.2268c0,0 -0.51467,0.35985 -0.87453,-0.15481z" fill="#a00000" fill-rule="nonzero" stroke="none" stroke-width="0.5" stroke-linecap="butt" stroke-linejoin="miter"/><path d="M351.4982,175.28087c-0.4461,-0.442 -0.00412,-0.88812 -0.00412,-0.88812l0.07372,-0.07441c1.51394,-1.27049 1.60705,-1.22992 2.91481,0.09798c0,0 0.43959,0.4485 -0.00897,0.8881c-0.4485,0.43959 -0.8881,-0.00897 -0.8881,-0.00897c-0.23859,-0.24479 -0.35034,-0.98231 -0.64021,-0.80111c-0.24263,0.15163 -0.32356,0.47202 -0.4853,0.70803l-0.07372,0.07441c0,0 -0.442,0.4461 -0.88812,0.00412z" fill="#a00000" fill-rule="nonzero" stroke="none" stroke-width="0.5" stroke-linecap="butt" stroke-linejoin="miter"/><path d="M349.45564,175.95412c0.51467,-0.35985 0.87453,0.15481 0.87453,0.15481l0.06974,0.09979c0.27895,0.39902 0.55794,0.798 0.8369,1.19701c0,0 0.35985,0.51467 -0.15481,0.87453c-0.51467,0.35985 -0.87453,-0.15481 -0.87453,-0.15481c-0.27895,-0.39896 -0.62769,-0.89775 -0.90665,-1.29672c0,0 -0.35985,-0.51467 0.15481,-0.87453z" fill="#a00000" fill-rule="nonzero" stroke="none" stroke-width="0.5" stroke-linecap="butt" stroke-linejoin="miter"/><path d="M347.11341,175.44008c0.61838,0.10951 0.50892,0.72787 0.50892,0.72787l-0.46976,0.66208c-0.246,0.07299 -0.49199,0.14598 -0.73796,0.21895c0,0 -0.60207,0.17861 -0.78069,-0.42347c-0.17865,-0.60207 0.42343,-0.78067 0.42343,-0.78067c0.13856,-0.04114 0.27718,-0.08224 0.41573,-0.12335c0.0942,-0.16357 0.28164,-0.34491 0.64036,-0.28141z" fill="#a00000" fill-rule="nonzero" stroke="none" stroke-width="0.5" stroke-linecap="butt" stroke-linejoin="miter"/><path d="M333.95085,202.87172c-0.59667,-0.19586 -0.40084,-0.79252 -0.40084,-0.79252l0.21961,-0.11203c-0.16053,-0.33928 -0.34585,-0.65535 -0.5329,-0.97027c-0.10954,-0.03932 -0.18136,-0.09268 -0.18136,-0.09268c-0.1869,-0.14038 -0.39527,-0.25602 -0.56071,-0.42112c-0.06299,-0.06288 -0.03842,-0.30231 -0.10645,-0.24494c-0.20247,0.17081 -0.14668,0.70918 -0.41005,0.68073c-0.48232,-0.05208 -0.81931,-0.52754 -1.17954,-0.85243c-0.20235,-0.1825 -0.16114,-0.93404 -0.35076,-0.73837c-0.15202,0.15691 -0.1413,0.56318 -0.35927,0.5482c-0.92177,-0.06329 -2.03365,-1.09159 -1.14574,-2.14892c0.25893,-0.30832 0.80497,-0.02102 1.20749,-0.03152l0.47495,0.35829c0,0 0.06988,0.09993 0.10399,0.2425c0.17325,0.06416 0.36686,0.16953 0.57609,0.32517c0.21518,0.16006 0.36106,0.40825 0.46898,0.65374c0.05424,0.12346 -0.08695,0.51063 -0.00369,0.40456c0.13128,-0.16729 -0.03929,-0.57209 0.16899,-0.61518c0.28849,-0.05968 0.57067,0.00798 0.83723,0.13371c0.04465,-0.0375 0.09869,-0.07242 0.16365,-0.10339c0.56684,-0.27035 0.83718,0.29651 0.83718,0.29651c0.33712,0.71253 0.78364,1.32267 1.12558,2.03472l-0.15993,1.04441c0,0 -0.19586,0.59667 -0.79252,0.40084z" fill="#a00000" fill-rule="nonzero" stroke="none" stroke-width="0.5" stroke-linecap="butt" stroke-linejoin="miter"/><path d="M330.21762,204.22742c-0.61838,-0.10951 -0.50892,-0.72787 -0.50892,-0.72787l0.13501,-0.65519c0.0965,-0.21596 0.19302,-0.43196 0.28952,-0.64796c0,0 0.25622,-0.57338 0.82956,-0.31718c0.57338,0.25622 0.31718,0.82956 0.31718,0.82956c-0.09651,0.21598 -0.19303,0.43199 -0.28952,0.64796l-0.045,0.36174c0,0 -0.10951,0.61838 -0.72787,0.50892z" fill="#a00000" fill-rule="nonzero" stroke="none" stroke-width="0.5" stroke-linecap="butt" stroke-linejoin="miter"/><path d="M327.20487,203.9966l0.52875,-0.51821c0,0 0.4485,-0.43959 0.8881,0.00897c0.43959,0.4485 -0.00897,0.8881 -0.00897,0.8881l-0.52875,0.51821c0,0 -0.4485,0.43959 -0.8881,-0.00897c-0.43959,-0.4485 0.00897,-0.8881 0.00897,-0.8881z" fill="#a00000" fill-rule="nonzero" stroke="none" stroke-width="0.5" stroke-linecap="butt" stroke-linejoin="miter"/><path d="M332.241,208.74818c-0.62128,0.09172 -0.71298,-0.52959 -0.71298,-0.52959l0.00818,-0.61712c0.09651,-0.21598 0.19303,-0.43199 0.28952,-0.64796c0,0 0.07777,-0.174 0.24345,-0.28745c-0.03881,-0.23154 0.05436,-0.47548 0.25957,-0.61898c0.28428,-0.19873 0.6758,-0.12943 0.87453,0.15481c0.19873,0.28428 0.12943,0.6758 -0.15481,0.87453c-0.00801,0.0056 -0.01613,0.011 -0.0243,0.01615c0.02607,0.19919 -0.05171,0.37333 -0.05171,0.37333c-0.09651,0.21598 -0.19303,0.43199 -0.28952,0.64796l0.08764,-0.07864c0,0 0.09167,0.62127 -0.52959,0.71298z" fill="#a00000" fill-rule="nonzero" stroke="none" stroke-width="0.5" stroke-linecap="butt" stroke-linejoin="miter"/><path d="M330.64866,198.68405c0.10951,-0.61838 0.72787,-0.50892 0.72787,-0.50892l0.40422,0.12315c0.00841,0.00552 0.01681,0.01103 0.02522,0.01655c0.09316,-0.15455 0.33114,-0.43535 0.76666,-0.26513c0.58489,0.22862 0.35628,0.81355 0.35628,0.81355l-0.12627,0.28958c-0.08369,0.45636 -0.089,0.83847 -0.25617,1.06791c0.02801,0.09445 0.03289,0.19315 0.01614,0.288l-0.12005,0.67797v0c-0.02802,0.15826 -0.11639,0.30584 -0.25854,0.40523c-0.20154,0.14092 -0.45704,0.14705 -0.65948,0.03738l-0.22676,0.36513c-0.04426,0.075 -0.10491,0.14198 -0.18097,0.19517c-0.28428,0.19873 -0.6758,0.12943 -0.87453,-0.15481c-0.06046,-0.08644 -0.09606,-0.18283 -0.10841,-0.28067l-0.11736,-0.79522l0.00733,-0.00109l-0.01039,-0.02282c-0.03366,-0.52061 -0.01128,-1.04893 0.07651,-1.56318c0,0 0.08729,-0.49307 0.54627,-0.52069c-0.00195,-0.05105 0.00181,-0.1066 0.01251,-0.16701zM331.33212,199.5416c0.00434,-0.00902 0.00863,-0.01804 0.01296,-0.02707c-0.00375,-0.00246 -0.00751,-0.00491 -0.01127,-0.00738c-0.00034,0.0127 -0.00098,0.02426 -0.00173,0.03447z" fill="#ffffff" fill-rule="nonzero" stroke="none" stroke-width="0.5" stroke-linecap="butt" stroke-linejoin="miter"/><path d="M342.10877,176.04625c0.62766,0.02093 0.60673,0.64855 0.60673,0.64855l-0.37278,0.34911c0.18965,-0.03432 0.36731,-0.05782 0.49851,-0.06876c0,0 0.62645,-0.04378 0.67025,0.5827c0.04376,0.62645 -0.5827,0.67025 -0.5827,0.67025c-1.31762,0.06748 -2.83223,1.42486 -2.53855,-0.97127c0.02799,-0.22858 0.18442,-0.42147 0.28171,-0.63082l0.10984,-0.62033l0.2487,0.04404l0.35265,-0.56231c0.13353,0.17953 0.26725,0.36007 0.40529,0.53702l0.22331,-0.0522l0.01752,0.07499c0.0254,-0.00148 0.05189,-0.00182 0.07958,-0.00089z" fill="#8da900" fill-rule="nonzero" stroke="none" stroke-width="0.5" stroke-linecap="butt" stroke-linejoin="miter"/><path d="M336.52717,170.06977c0,0 0.61291,0.10852 0.51032,0.71969c0.21068,-0.01253 0.42277,0.08141 0.55257,0.26707c0.09935,0.14213 0.13173,0.31108 0.10371,0.46933v0l-0.06061,0.34238c0.07212,0.13024 0.16122,0.24746 0.27476,0.34331l0.53952,0.22747c0,0 0.4822,0.21548 0.3646,0.69342c0.15121,0.08191 0.37925,0.26625 0.32477,0.61761c0.43409,0.16935 1.00162,0.42824 1.17417,0.5047l0.32823,0.31329c0,0 0.09741,0.13936 0.11836,0.3237c0.05986,-0.02251 0.12009,-0.04215 0.18087,-0.05635c0,0 0.61151,-0.14296 0.75447,0.46854c0.14297,0.61151 -0.46854,0.75447 -0.46854,0.75447c-0.09627,0.02249 -0.33753,0.08095 -0.60152,0.1409c-0.03575,0.1409 -0.12033,0.27009 -0.24879,0.35991c-0.1073,0.07501 -0.22988,0.11186 -0.35163,0.11333c-0.19098,0.14809 -0.42045,0.11771 -0.54402,0.08478c-0.00007,0.00382 -0.00014,0.0076 -0.00028,0.01142c0.09368,0.26022 0.00625,0.56101 -0.23131,0.72711c-0.28428,0.19873 -0.6758,0.12943 -0.87453,-0.15481c-0.086,-0.12301 -0.12183,-0.2661 -0.11173,-0.405c-0.05051,-0.12041 -0.09423,-0.24493 -0.13058,-0.3721c-0.01568,-0.01871 -0.03117,-0.03886 -0.04635,-0.06061c-0.16867,-0.24124 -0.14521,-0.44848 -0.07266,-0.60059c-0.01653,-0.21698 -0.01086,-0.43462 0.01925,-0.64647l-0.04261,-0.06808c0,0 -0.0329,-0.22272 0.0741,-0.42113c-0.03538,-0.17974 -0.03011,-0.36113 0.02872,-0.53633c-0.66751,-0.04606 -1.3432,0.63988 -1.96595,0.23144c-0.86815,-0.56938 -0.37181,-1.85731 -0.04585,-2.60323c-0.22545,-0.04995 -0.45138,-0.09624 -0.68109,-0.11491c-0.36127,-0.02935 -0.84302,0.24531 -1.08714,-0.02256c-0.29549,-0.3242 -0.00908,-1.55663 0.0715,-1.99614l0.0496,-0.06188l-0.02262,-0.01008l0.28532,-0.63854c0.04452,-0.10444 0.11786,-0.1981 0.21774,-0.26792c0.28428,-0.19873 0.6758,-0.12943 0.87453,0.15481c0.01939,0.02774 0.03625,0.05653 0.05058,0.08606l0.38356,0.75834l-0.01326,0.0067c0.13328,0.16836 0.26258,0.33973 0.38601,0.51541l-0.06621,-0.19852zM336.98428,173.03794c-0.00953,-0.00871 -0.01908,-0.01734 -0.02869,-0.026c-0.00824,0.01952 -0.01633,0.03874 -0.02428,0.0575c0.01677,-0.01082 0.03448,-0.02132 0.05298,-0.03149z" fill="#8da900" fill-rule="nonzero" stroke="none" stroke-width="0.5" stroke-linecap="butt" stroke-linejoin="miter"/><path d="M335.49171,174.30022c1.2388,0.54629 1.39016,0.79087 1.46349,1.67017c0.40253,0.13439 0.60931,0.78185 0.68131,1.38751l0.33255,-0.00936c0.40114,0.44382 0.67907,1.03801 0.74563,1.6325c0,0 0.04376,0.62645 -0.58271,0.67028c-0.62649,0.04378 -0.67028,-0.58271 -0.67028,-0.58271c0.00024,-0.02892 -0.00094,-0.058 -0.00346,-0.08718c-0.23524,0.04863 -0.4874,-0.04084 -0.63646,-0.24719c-0.23238,-0.06788 -0.3404,-0.21766 -0.38885,-0.36196l-0.42644,-0.39408c-0.04977,-0.18246 -0.17502,-0.37966 -0.27193,-0.57134c-0.60652,-0.03388 -0.58602,-0.64767 -0.58602,-0.64767l0.13324,-0.22742c-0.28736,-0.41379 -0.55223,-0.85946 -0.7574,-1.3271l-0.2314,0.11037l-0.31427,-0.65889c-0.13662,-0.27383 -0.05581,-0.61371 0.20255,-0.79434c0.23152,-0.16189 0.53423,-0.1459 0.74594,0.01918l0.56454,0.41933z" fill="#8da900" fill-rule="nonzero" stroke="none" stroke-width="0.5" stroke-linecap="butt" stroke-linejoin="miter"/><path d="M340.80006,178.91522c-0.62669,-0.04053 -0.58617,-0.66723 -0.58617,-0.66723l0.37335,-1.28689c0.44024,0.12897 0.88052,0.25799 1.32075,0.38696c0,0 0.55204,0.29942 0.25261,0.85143c-0.21201,0.39085 -0.55065,0.35486 -0.73032,0.30055c-0.06093,0.18232 -0.22,0.44169 -0.63024,0.41518z" fill="#a00000" fill-rule="nonzero" stroke="none" stroke-width="0.5" stroke-linecap="butt" stroke-linejoin="miter"/><path d="M339.59558,177.99466c-0.51467,0.35985 -0.87453,-0.15481 -0.87453,-0.15481l-0.13948,-0.1995c-0.17297,-0.25458 -0.27957,-0.54762 -0.3423,-0.85582l-0.173,0.04045l-0.1459,-0.62399c-0.06369,-0.24651 0.0274,-0.51743 0.24835,-0.67188c0.22092,-0.15449 0.50664,-0.147 0.71629,-0.00255l0.53598,0.35126l-0.0246,0.03755l0.11773,0.03703c0.16524,0.22977 0.33053,0.45955 0.49577,0.68931c0,0 0.35154,0.50281 -0.13723,0.86193c0.00236,0.15744 -0.05847,0.33822 -0.27709,0.49106z" fill="#a00000" fill-rule="nonzero" stroke="none" stroke-width="0.5" stroke-linecap="butt" stroke-linejoin="miter"/><path d="M336.64332,176.45525c-0.60207,0.17861 -0.78069,-0.42347 -0.78069,-0.42347l-0.10113,-0.34301c-0.04912,-0.16313 -0.14476,-0.32673 -0.22309,-0.49015c-0.30346,-0.00844 -0.49503,-0.28238 -0.49503,-0.28238l-0.55794,-0.79797c-0.0608,-0.08694 -0.09654,-0.18397 -0.10864,-0.28239c-0.01334,-0.01363 -0.02668,-0.02738 -0.03998,-0.04116l-0.18925,-0.18097c0,0 -0.45379,-0.43413 -0.01968,-0.88792c0.10274,-0.10739 0.20659,-0.16509 0.30529,-0.19052c0.253,-0.08048 0.46442,0.05069 0.57022,0.13865c0.04347,-0.11224 0.11959,-0.21322 0.22565,-0.28739c0.22092,-0.15449 0.50664,-0.147 0.71629,-0.00255l0.53598,0.35126l-0.01307,0.01996l0.06753,0.0201c0.43913,0.4465 0.83223,0.93963 1.19212,1.45211c0,0 0.35985,0.51467 -0.15481,0.87453c-0.03295,0.02302 -0.06522,0.04245 -0.09681,0.05869c-0.0199,0.07659 -0.05895,0.15698 -0.12486,0.23897c-0.04073,0.12531 -0.12102,0.23892 -0.23734,0.32027c-0.01087,0.00761 -0.02189,0.01482 -0.03307,0.02164c0.0262,0.16191 0.04105,0.57167 -0.43768,0.71372z" fill="#a00000" fill-rule="nonzero" stroke="none" stroke-width="0.5" stroke-linecap="butt" stroke-linejoin="miter"/><path d="M334.05805,171.59541c-0.19873,-0.28428 -0.12943,-0.6758 0.15481,-0.87453c0.28428,-0.19873 0.6758,-0.12943 0.87453,0.15481c0.19873,0.28428 0.12943,0.6758 -0.15481,0.87453c-0.28428,0.19873 -0.6758,0.12943 -0.87453,-0.15481z" fill="#a00000" fill-rule="nonzero" stroke="none" stroke-width="0.5" stroke-linecap="butt" stroke-linejoin="miter"/><path d="M337.96123,175.8689c-0.25699,0.17968 -0.47538,0.14133 -0.62964,0.05785c-0.0129,0.00383 -0.02583,0.00729 -0.03884,0.0103c0.06041,0.07732 0.11547,0.16226 0.16316,0.25705c0.10279,0.20434 0.1415,0.43874 0.1944,0.66522c0.3954,0.55759 0.77358,1.12484 1.15209,1.66613l0.4882,0.69826c0.19873,0.28428 0.12943,0.6758 -0.15481,0.87453c-0.25831,0.18062 -0.60528,0.13984 -0.81559,-0.08249l-0.39506,-0.40307c-0.32295,0.16902 -0.65008,-0.07398 -0.65008,-0.07398c-1.88938,-1.40338 -2.65181,-2.88055 -3.63971,-4.95199l-0.31427,-0.65889c-0.13662,-0.27383 -0.05581,-0.61371 0.20255,-0.79434c0.07721,-0.05399 0.16234,-0.08818 0.24937,-0.10368c-0.07069,-0.17733 -0.12521,-0.4937 0.22484,-0.73852c0.32392,-0.22646 0.58645,-0.10657 0.73664,0.01344c0.00762,-0.00032 0.01531,-0.00057 0.02315,-0.00063c0.12039,-0.14353 0.38508,-0.3605 0.77722,-0.1478c0.55203,0.29944 0.25261,0.85145 0.25261,0.85145c-0.08811,0.10665 -0.15873,0.24239 -0.2312,0.37507c0.14381,0.01164 0.30138,0.08137 0.43702,0.27533c0.32731,0.46815 -0.06891,0.80822 -0.14325,0.86586c0.03182,0.11114 0.0796,0.20786 0.13932,0.29456c0.04065,0.04102 0.08107,0.08241 0.12113,0.1242c0.09159,-0.02169 0.18621,-0.02223 0.27668,-0.00281c0.22724,-0.11276 0.44623,-0.24286 0.65248,-0.38917l1.07647,0.44366c0,0 0.35985,0.51467 -0.15481,0.87453zM335.80579,174.18342c-0.00024,0.09365 0.00819,0.17917 0.02409,0.25782z" fill="#000000" fill-rule="nonzero" stroke="none" stroke-width="0.5" stroke-linecap="butt" stroke-linejoin="miter"/><path d="M335.96802,174.00215l0.51943,0.49687" fill="none" fill-rule="nonzero" stroke="#001026" stroke-width="1.2" stroke-linecap="round" stroke-linejoin="miter"/><path d="M335.1889,173.25684l1.81231,1.48501" fill="none" fill-rule="nonzero" stroke="#a00000" stroke-width="1.2" stroke-linecap="round" stroke-linejoin="miter"/><path d="M337.74041,174.56902l-2.1021,0.43769" fill="none" fill-rule="nonzero" stroke="#000000" stroke-width="1.2" stroke-linecap="round" stroke-linejoin="miter"/><path d="M334.98037,174.43468l1.05813,-2.5459" fill="none" fill-rule="nonzero" stroke="#000000" stroke-width="1.2" stroke-linecap="round" stroke-linejoin="miter"/><path d="M337.18547,184.60197c0.55125,-0.3008 0.8521,0.25047 0.8521,0.25047l0.33436,0.62002c-0.01169,0.02649 -0.02338,0.05296 -0.03506,0.0794l0.05724,-0.01698l0.18608,0.62717c0.06217,0.19284 0.02676,0.40517 -0.09386,0.56733c0.10007,0.79386 -0.35464,1.97562 -1.52355,1.75259c-1.17577,-0.22434 -1.82312,-2.49637 -0.72317,-3.22141c0.19859,-0.1309 0.4076,-0.17791 0.61381,-0.16195c0.00506,-0.16647 0.07822,-0.3581 0.33208,-0.49662z" fill="#a00000" fill-rule="nonzero" stroke="none" stroke-width="0.5" stroke-linecap="butt" stroke-linejoin="miter"/><path d="M336.98236,186.88161c-0.19873,-0.28428 -0.12943,-0.6758 0.15481,-0.87453c0.28428,-0.19873 0.6758,-0.12943 0.87453,0.15481c0.19873,0.28428 0.12943,0.6758 -0.15481,0.87453c-0.28428,0.19873 -0.6758,0.12943 -0.87453,-0.15481z" fill="#ffffff" fill-rule="nonzero" stroke="none" stroke-width="0.5" stroke-linecap="butt" stroke-linejoin="miter"/><path d="M336.45833,174.94941l-1.53526,-1.33472l0.64153,-1.05058" fill="none" fill-rule="nonzero" stroke="#000000" stroke-width="1.2" stroke-linecap="round" stroke-linejoin="miter"/><path d="M332.52092,188.01509c-0.28428,0.19873 -0.6758,0.12943 -0.87453,-0.15481c-0.02266,-0.03239 -0.04181,-0.0662 -0.05755,-0.10091c-0.02912,0.15606 -0.11709,0.30127 -0.25748,0.39948c-0.28428,0.19873 -0.6758,0.12943 -0.87453,-0.15481c-0.06635,-0.09489 -0.10286,-0.20176 -0.1114,-0.30943c-0.25438,0.07977 -0.54161,-0.00949 -0.70246,-0.2396c-0.03122,-0.04466 -0.05583,-0.09199 -0.07404,-0.14072c-0.27026,0.12322 -0.59828,0.04019 -0.77459,-0.21197c-0.19873,-0.28428 -0.12943,-0.6758 0.15481,-0.87453c0.0221,-0.01545 0.04484,-0.02927 0.06811,-0.0415c-0.15844,-0.27863 -0.08146,-0.63717 0.18647,-0.82449c0.28428,-0.19873 0.6758,-0.12943 0.87453,0.15481c0.01545,0.0221 0.02928,0.04485 0.04152,0.0681c0.27863,-0.15844 0.63717,-0.08146 0.82449,0.18647c0.03455,0.04937 0.06095,0.10203 0.07961,0.15634c0.25652,-0.08463 0.54852,0.004 0.71127,0.23675c0.04827,0.06904 0.08073,0.14438 0.09811,0.22176c0.2616,-0.09724 0.56576,-0.0103 0.73316,0.22912c0.03934,0.05627 0.06817,0.11673 0.08693,0.17909c0.23942,-0.05116 0.49704,0.04115 0.6462,0.25442c0.19873,0.28428 0.12943,0.6758 -0.15481,0.87453c-0.17987,0.12574 -0.40265,0.14418 -0.59244,0.06874c-0.0101,0.00803 -0.02052,0.01578 -0.03125,0.02331zM331.48611,187.28433c0.02266,0.03239 0.04181,0.0662 0.05755,0.10091c0.00198,-0.01066 0.00425,-0.02124 0.00679,-0.03177c-0.00459,-0.00611 -0.00911,-0.01233 -0.01352,-0.01863c-0.04827,-0.06904 -0.08073,-0.14438 -0.09811,-0.22176c-0.03056,0.01137 -0.06171,0.0202 -0.09314,0.02661c0.05299,0.03931 0.10061,0.08765 0.14048,0.14468zM330.77181,186.96377c0.00574,0.0268 0.00963,0.05385 0.01182,0.08092c0.02064,-0.00646 0.04151,-0.01185 0.06253,-0.01613c-0.02617,-0.01944 -0.05102,-0.04102 -0.0743,-0.06483zM329.85523,186.43262c0.01673,0.02945 0.03088,0.05979 0.0424,0.09069c0.01032,-0.0047 0.02074,-0.00911 0.0312,-0.01322c-0.00475,-0.00633 -0.00946,-0.01273 -0.01404,-0.01926c-0.01545,-0.0221 -0.02927,-0.04484 -0.0415,-0.06811c-0.00599,0.00342 -0.01202,0.00671 -0.01806,0.00987z" fill="#e93e3e" fill-rule="nonzero" stroke="none" stroke-width="0.5" stroke-linecap="butt" stroke-linejoin="miter"/><path d="M337.68497,195.15508c-0.28428,0.19873 -0.6758,0.12943 -0.87453,-0.15481c-0.0526,-0.07521 -0.08643,-0.15793 -0.10245,-0.24264c-0.12477,-0.04084 -0.23784,-0.12099 -0.31882,-0.23687c-0.08302,-0.1187 -0.11924,-0.25612 -0.1126,-0.39041c-0.16752,-0.02287 -0.32535,-0.11293 -0.42983,-0.26238c-0.09802,-0.14016 -0.13079,-0.30636 -0.10483,-0.46269c-0.21833,0.02127 -0.44146,-0.07266 -0.57612,-0.26525c-0.10586,-0.15142 -0.13569,-0.33326 -0.09743,-0.50022c-0.20174,0.00338 -0.40146,-0.09031 -0.52577,-0.26813c-0.15713,-0.22471 -0.1467,-0.51653 0.00501,-0.72705c-0.13289,-0.0385 -0.25396,-0.12101 -0.3394,-0.24321c-0.10573,-0.15123 -0.13558,-0.3328 -0.09759,-0.49955c-0.24906,0.06861 -0.52506,-0.02196 -0.68152,-0.24576c-0.08302,-0.1187 -0.11924,-0.25612 -0.1126,-0.39041c-0.16751,-0.0229 -0.32535,-0.11293 -0.42983,-0.26238c-0.04251,-0.06082 -0.07276,-0.12653 -0.09124,-0.1942c-0.05722,-0.04062 -0.10856,-0.09157 -0.15108,-0.15237c-0.03277,-0.04688 -0.05824,-0.09666 -0.07667,-0.14801c-0.10277,-0.04465 -0.19487,-0.11737 -0.2638,-0.21598c-0.11632,-0.16638 -0.14083,-0.36953 -0.0841,-0.54926c-0.1113,-0.04361 -0.21136,-0.11939 -0.28503,-0.22473c-0.19873,-0.28428 -0.12943,-0.6758 0.15481,-0.87453c0.28428,-0.19873 0.6758,-0.12943 0.87453,0.15481c0.11632,0.16638 0.14083,0.36953 0.0841,0.54926c0.1113,0.04361 0.21136,0.11939 0.28503,0.22473c0.03277,0.04688 0.05824,0.09666 0.07667,0.14801c0.10279,0.04467 0.19487,0.11737 0.2638,0.21598c0.04251,0.06082 0.07279,0.12653 0.09126,0.19419c0.05722,0.04062 0.10853,0.09157 0.15105,0.15241c0.08302,0.1187 0.11924,0.25612 0.1126,0.39041c0.1675,0.0229 0.3253,0.11294 0.42982,0.26237c0.10573,0.15123 0.13558,0.3328 0.09759,0.49955c0.24908,-0.06861 0.52506,0.02196 0.68152,0.24576c0.15711,0.22474 0.1467,0.51653 -0.00501,0.72705c0.13289,0.0385 0.25396,0.12101 0.3394,0.24321c0.10586,0.15142 0.13569,0.33326 0.09743,0.50022c0.20174,-0.00338 0.40146,0.09031 0.52577,0.26813c0.09802,0.14016 0.13078,0.30636 0.10483,0.46269c0.21831,-0.02125 0.44146,0.07266 0.57612,0.26525c0.08302,0.1187 0.11924,0.25612 0.1126,0.39041c0.1675,0.0229 0.32535,0.11293 0.42983,0.26238c0.0526,0.07521 0.08643,0.15793 0.10245,0.24264c0.12477,0.04084 0.23784,0.12099 0.31882,0.23687c0.19873,0.28428 0.12943,0.6758 -0.15481,0.87453z" fill="#e93e3e" fill-rule="nonzero" stroke="none" stroke-width="0.5" stroke-linecap="butt" stroke-linejoin="miter"/><path d="M329.43626,185.19133c-0.19873,-0.28428 -0.12943,-0.6758 0.15481,-0.87453c0.26791,-0.18734 0.63111,-0.13653 0.8384,0.10795c0.01949,-0.01764 0.04027,-0.03426 0.06236,-0.04971c0.28428,-0.19873 0.6758,-0.12943 0.87453,0.15481c0.07691,0.11003 0.11369,0.23613 0.11336,0.3609c0.0127,-0.01046 0.02593,-0.02052 0.03967,-0.03011c0.28428,-0.19873 0.6758,-0.12943 0.87453,0.15481c0.07149,0.10224 0.10828,0.21836 0.11289,0.33438c0.2386,-0.04976 0.49473,0.04262 0.64323,0.25502c0.0526,0.07524 0.08642,0.15798 0.10243,0.2427c0.24627,-0.06324 0.51678,0.02787 0.67104,0.24856c0.19873,0.28428 0.12943,0.6758 -0.15481,0.87453c-0.28428,0.19873 -0.6758,0.12943 -0.87453,-0.15481c-0.0526,-0.07524 -0.08642,-0.15798 -0.10243,-0.2427c-0.24627,0.06324 -0.51678,-0.02787 -0.67104,-0.24856c-0.07148,-0.10223 -0.10828,-0.21836 -0.11289,-0.33438c-0.2386,0.04976 -0.49473,-0.04264 -0.64323,-0.25502c-0.07691,-0.11003 -0.11369,-0.23613 -0.11336,-0.3609c-0.0127,0.01046 -0.02593,0.02052 -0.03967,0.03011c-0.26791,0.18734 -0.63111,0.13648 -0.83838,-0.10796c-0.0195,0.01765 -0.04026,0.03426 -0.06237,0.04971c-0.28428,0.19873 -0.6758,0.12943 -0.87453,-0.15481z" fill="#e93e3e" fill-rule="nonzero" stroke="none" stroke-width="0.5" stroke-linecap="butt" stroke-linejoin="miter"/><path d="M338.8781,197.08076c-0.03975,-0.05682 -0.02588,-0.13513 0.03096,-0.1749c0.05682,-0.03975 0.13513,-0.02588 0.1749,0.03096c0.03975,0.05682 0.02588,0.13513 -0.03096,0.1749c-0.05682,0.03975 -0.13513,0.02588 -0.1749,-0.03096z" fill="#a00000" fill-rule="nonzero" stroke="none" stroke-width="0.5" stroke-linecap="butt" stroke-linejoin="miter"/><path d="M340.4646,195.06997c0.04574,-0.11698 0.16269,-0.07125 0.16269,-0.07125l0.00548,0.00213c0.15598,0.06097 0.31195,0.12194 0.4679,0.18289c0,0 0.11698,0.04574 0.07125,0.16269c-0.04574,0.11698 -0.16269,0.07125 -0.16269,0.07125c-0.15596,-0.06097 -0.31741,-0.12406 -0.4734,-0.18504c0,0 -0.11698,-0.04574 -0.07125,-0.16269z" fill="#a00000" fill-rule="nonzero" stroke="none" stroke-width="0.5" stroke-linecap="butt" stroke-linejoin="miter"/><path d="M340.82564,196.69492c-0.09745,0.06813 -0.21589,0.08377 -0.32177,0.05284c0.02283,0.10758 0.00937,0.25163 -0.15771,0.36841c-0.30884,0.21592 -0.52473,-0.09289 -0.52473,-0.09289l-0.04109,-0.0677c-0.03001,-0.03109 -0.06011,-0.06085 -0.09027,-0.08954c-0.0422,0.0134 -0.08595,0.01905 -0.12922,0.01727c0.01838,0.0336 0.03186,0.08771 -0.02132,0.14333c-0.01734,0.01811 -0.03479,0.02916 -0.0517,0.0352c-0.00685,0.00727 -0.01506,0.01444 -0.02487,0.02125c-0.10296,0.07197 -0.1749,-0.03096 -0.1749,-0.03096l-0.04039,-0.05776c-0.03397,-0.05263 -0.0612,-0.11145 -0.08035,-0.17307c-0.05364,-0.06118 -0.10943,-0.12592 -0.16618,-0.18945c-0.00564,0.0039 -0.01136,0.00798 -0.01717,0.01217l-0.19203,0.00336c0,0 -0.01957,-0.00347 -0.04176,-0.0154c-0.00598,0.00649 -0.01278,0.01241 -0.02031,0.0177c-0.05682,0.03975 -0.13513,0.02588 -0.1749,-0.03096c-0.01945,-0.02785 -0.02607,-0.06084 -0.02106,-0.09191c-0.00438,0.00213 -0.00883,0.00401 -0.01337,0.00559c-0.01312,0.01869 -0.03281,0.03663 -0.06194,0.04427c-0.00665,0.00774 -0.0144,0.01477 -0.02316,0.0209c-0.05682,0.03975 -0.13513,0.02588 -0.1749,-0.03096c-0.03039,-0.04346 -0.02943,-0.09943 -0.00193,-0.14115c-0.00073,-0.00315 -0.00136,-0.00632 -0.00184,-0.00946c-0.0072,-0.04591 0.01148,-0.09402 0.05214,-0.12247c0.00271,-0.0019 0.00545,-0.00368 0.00824,-0.00532c0.00564,-0.05723 0.00918,-0.11415 0.01254,-0.17106c-0.05861,-0.0318 -0.11728,-0.06361 -0.17593,-0.09541c0,0 -0.11041,-0.05988 -0.05051,-0.17029c0.03965,-0.07305 0.10139,-0.07152 0.13862,-0.06217c0.01161,-0.02024 0.02371,-0.03975 0.03631,-0.0585c-0.03559,-0.05088 -0.07121,-0.10182 -0.10676,-0.15268l-0.07034,0.04919c0,0 -0.04203,0.02937 -0.09112,0.02376c0.01526,0.0334 0.03349,0.10256 -0.04178,0.1552c-0.10296,0.07197 -0.1749,-0.03096 -0.1749,-0.03096l-0.04039,-0.05776c-0.04039,-0.05776 -0.08076,-0.1155 -0.12116,-0.17329c0,0 -0.07197,-0.10296 0.03096,-0.1749c0.10296,-0.07197 0.1749,0.03096 0.1749,0.03096c0.01705,0.02441 0.04136,0.05915 0.06678,0.09549c0.01257,-0.04619 0.05279,-0.07432 0.05279,-0.07432l0.05169,-0.03613l-0.01498,-0.05934c0.00018,-0.00033 0.0004,-0.00072 0.00056,-0.00103c-0.03229,-0.04619 -0.06454,-0.09235 -0.09688,-0.13857c0,0 -0.07197,-0.10296 0.03096,-0.1749c0.10296,-0.07197 0.1749,0.03096 0.1749,0.03096c0.01781,0.0255 0.03607,0.05158 0.05465,0.07817c0.02289,-0.00393 0.05006,-0.0006 0.08126,0.01631c0.04846,0.02627 0.06411,0.06228 0.06642,0.09441c0.058,-0.07011 0.11919,-0.10899 0.1785,-0.12768c0.00354,-0.11487 0.05933,-0.22669 0.16075,-0.29757c0.17056,-0.11926 0.40549,-0.07766 0.52473,0.09289c0.05981,0.08557 0.07916,0.18735 0.06205,0.28262c0.00324,0.00366 0.00631,0.00753 0.00918,0.01162c0.03975,0.05682 0.02588,0.13513 -0.03096,0.1749c-0.01547,0.01081 -0.03249,0.01762 -0.04994,0.02076c0.12487,0.0439 0.19985,0.15117 0.19985,0.15117c0.0921,0.13817 0.19951,0.24903 0.31459,0.34975c-0.00385,-0.01441 -0.01085,-0.02742 -0.02189,-0.03835c0,0 -0.04899,-0.07004 -0.00834,-0.13495c-0.01836,-0.02623 -0.03671,-0.05247 -0.05505,-0.07873l-0.01712,0.03432c0,0 -0.12369,-0.0219 -0.10177,-0.14558c0.0219,-0.12369 0.14558,-0.10177 0.14558,-0.10177l0.17921,0.06909c0.06732,0.09628 0.13462,0.19256 0.20195,0.28881c0,0 0.07197,0.10296 -0.03096,0.1749c-0.02175,0.01522 -0.04216,0.02261 -0.06074,0.02482c-0.00297,0.02827 -0.00766,0.05648 -0.0136,0.08424c0.11391,0.08879 0.23046,0.17785 0.34325,0.28127c0.01081,-0.10512 0.06553,-0.20513 0.15894,-0.27041c0.17056,-0.11926 0.40549,-0.07766 0.52473,0.09289c0.11926,0.17056 0.07766,0.40549 -0.09289,0.52473zM338.58192,196.34178c0.01945,0.02785 0.02607,0.06084 0.02106,0.09191c0.0169,-0.00825 0.03507,-0.01236 0.05312,-0.01263c0.00228,-0.006 0.00503,-0.01185 0.00824,-0.01746l0.03725,-0.06868c-0.04445,-0.03553 -0.08826,-0.06537 -0.13095,-0.08721c-0.00172,0.02468 -0.00364,0.04945 -0.0059,0.07424c0.00628,0.00588 0.01206,0.01248 0.0172,0.01986z" fill="#a00000" fill-rule="nonzero" stroke="none" stroke-width="0.5" stroke-linecap="butt" stroke-linejoin="miter"/><path d="M341.71468,197.10534l-0.01626,0.00676c-0.12133,0.11349 -0.24262,0.22702 -0.36397,0.34049c0,0 -0.02464,0.02308 -0.06612,0.04801c-0.01047,0.00917 -0.02151,0.01788 -0.03319,0.02602c-0.17056,0.11926 -0.40549,0.07766 -0.52473,-0.09289c-0.11926,-0.17056 -0.07766,-0.40549 0.09289,-0.52473c0.00922,-0.00643 0.01866,-0.01247 0.02826,-0.01796c0.11732,-0.10975 0.23465,-0.21951 0.35199,-0.32928l0.09927,-0.07402c0,0 0.30884,-0.21592 0.52473,0.09289c0.21592,0.30884 -0.09289,0.52473 -0.09289,0.52473z" fill="#a00000" fill-rule="nonzero" stroke="none" stroke-width="0.5" stroke-linecap="butt" stroke-linejoin="miter"/><path d="M343.67642,203.63733c-0.37173,-0.84852 0.28996,-2.73701 -0.45562,-3.47288c-0.11442,-0.00358 -0.27085,-0.05135 -0.33535,-0.26869c-0.07106,-0.23946 0.06375,-0.36724 0.1627,-0.42625c0.09646,-0.09716 0.20183,-0.11291 0.28931,-0.10033l0.03714,-0.01092c1.83437,-0.428 3.61757,-1.05106 5.4755,-1.31921c0.47682,-0.06881 1.78672,-0.77214 1.97311,0.20489c0.07401,0.38794 -1.45637,1.2515 -1.71888,1.43503c-0.90488,0.63266 -1.80458,1.27354 -2.71499,1.89823c-0.14391,0.09875 -0.6518,0.48483 -0.64108,0.70648c0.00524,0.10802 0.74627,0.51293 0.85011,0.58097c0.94922,0.62209 1.42251,1.67646 2.37777,2.29373c0.64783,0.4304 1.87726,2.19955 0.15953,2.07741c-0.41102,-0.02923 -1.13564,-0.66572 -1.58268,-0.78643c-1.73506,-0.46856 -2.93781,-0.89988 -4.39479,-1.9813c0,0 -0.30249,-0.22468 -0.0778,-0.52715c0.22468,-0.30249 0.52715,-0.0778 0.52715,-0.0778c0.03149,0.02337 0.06283,0.04658 0.09404,0.0695c-0.05764,-0.09792 -0.05997,-0.20293 -0.05997,-0.20293z" fill="#ffffff" fill-rule="nonzero" stroke="none" stroke-width="0.5" stroke-linecap="butt" stroke-linejoin="miter"/><path d="M350.21943,206.40874c-0.0002,0.01004 -0.00052,0.02003 -0.00101,0.03003l-0.16777,-0.02532c-0.00472,0.00352 -0.00959,0.00706 -0.01456,0.01051c-0.0686,0.04792 -0.13256,0.07002 -0.19064,0.07536c0.07524,0.09339 0.14947,0.19285 0.22531,0.30071c0,0 0.21592,0.30884 -0.09289,0.52473c-0.30884,0.21592 -0.52473,-0.09289 -0.52473,-0.09289c-0.01424,-0.0205 -0.02836,-0.04059 -0.04235,-0.06023l-0.43183,-0.29232c-0.04781,-0.01581 -0.09645,-0.04168 -0.14534,-0.07668c0.00056,0.08675 0.00011,0.18259 -0.00065,0.28918l-0.78114,-0.3903c-0.02852,-0.10342 -0.05703,-0.20679 -0.08554,-0.31018c-0.27773,0.00249 -0.5079,-0.07224 -0.62518,-0.33535c-0.13258,-0.2975 -0.01038,-0.65135 -0.01555,-0.97702l0.33663,0.15925c-0.00661,-0.09864 -0.01315,-0.19726 -0.01974,-0.29586l0.37264,0.16968c-0.01982,-0.07253 -0.03754,-0.14518 -0.05321,-0.21763l0.82105,0.20483c0.08998,0.10488 0.15886,0.22995 0.20722,0.36357c0.27817,0.00972 0.55656,0.0595 0.81556,0.15173l0.03721,-0.09063c0.06366,0.04824 0.11941,0.10752 0.16714,0.17429c0.07887,0.03682 0.15521,0.07796 0.22844,0.12357l-0.01909,0.58702z" fill="#a00000" fill-rule="nonzero" stroke="none" stroke-width="0.5" stroke-linecap="butt" stroke-linejoin="miter"/><path d="M349.35849,199.6734c-0.30884,0.21592 -0.52473,-0.09289 -0.52473,-0.09289l-0.03103,-0.04781c-0.1109,-0.00665 -0.21781,-0.06212 -0.28644,-0.16024c-0.04747,-0.06786 -0.06944,-0.14593 -0.06796,-0.22286l-0.53108,-0.42002c-0.03084,-0.02326 -0.05862,-0.05169 -0.08197,-0.08508c-0.11926,-0.17056 -0.07766,-0.40549 0.09289,-0.52473c0.13255,-0.0927 0.30397,-0.08822 0.42978,-0.00154l0.19279,0.12634l-0.01628,-0.11869c0.14467,0.03884 0.27478,0.08018 0.38979,0.12347c0.02714,-0.05214 0.06684,-0.09871 0.11836,-0.13477c0.13255,-0.0927 0.30397,-0.08822 0.42978,-0.00154l0.15054,0.09866c0.01093,-0.10494 0.06563,-0.20475 0.15887,-0.26993c0.03965,-0.02771 0.0828,-0.04676 0.12713,-0.05747c0.09034,-0.10096 0.18965,-0.14454 0.27791,-0.05246c0.00719,-0.00587 0.01459,-0.01146 0.0223,-0.01686c0.17056,-0.11926 0.40549,-0.07766 0.52473,0.09289c0.01347,0.0193 0.02496,0.03942 0.03436,0.06012l0.12772,0.26785l0.06392,0.00019c-0.00987,0.02441 -0.01976,0.04824 -0.02969,0.07153l0.01686,0.03539c0.08196,0.1643 0.03347,0.36821 -0.12151,0.47661c-0.06889,0.04817 -0.14822,0.07008 -0.22626,0.06787c-0.15286,0.18254 -0.29855,0.24287 -0.42191,0.19954c-0.19817,0.13161 -0.45754,0.09828 -0.70415,0.09928c0.04592,0.08879 0.12866,0.31684 -0.11485,0.48709z" fill="#a00000" fill-rule="nonzero" stroke="none" stroke-width="0.5" stroke-linecap="butt" stroke-linejoin="miter"/><path d="M346.40281,209.88055c-0.11926,-0.17056 -0.07766,-0.40549 0.09289,-0.52473c0.17056,-0.11926 0.40549,-0.07766 0.52473,0.09289c0.11926,0.17056 0.07766,0.40549 -0.09289,0.52473c-0.17056,0.11926 -0.40549,0.07766 -0.52473,-0.09289z" fill="#a00000" fill-rule="nonzero" stroke="none" stroke-width="0.5" stroke-linecap="butt" stroke-linejoin="miter"/><path d="M344.51356,212.59632l0.13085,-0.23539c0.16478,-0.41447 0.39312,-0.80327 0.63664,-1.17692c0,0 0.20653,-0.31517 0.52169,-0.10865c0.31517,0.20653 0.10865,0.52169 0.10865,0.52169c-0.2172,0.3294 -0.42272,0.672 -0.56566,1.03978l-0.16969,0.31877c0,0 -0.17965,0.33121 -0.51087,0.15156c-0.33121,-0.17965 -0.15156,-0.51087 -0.15156,-0.51087z" fill="#a00000" fill-rule="nonzero" stroke="none" stroke-width="0.5" stroke-linecap="butt" stroke-linejoin="miter"/><path d="M343.92355,213.59211c-0.11926,-0.17056 -0.07766,-0.40549 0.09289,-0.52473c0.17056,-0.11926 0.40549,-0.07766 0.52473,0.09289c0.11926,0.17056 0.07766,0.40549 -0.09289,0.52473c-0.17056,0.11926 -0.40549,0.07766 -0.52473,-0.09289z" fill="#a00000" fill-rule="nonzero" stroke="none" stroke-width="0.5" stroke-linecap="butt" stroke-linejoin="miter"/><path d="M342.75089,214.49803c-0.11926,-0.17056 -0.07766,-0.40549 0.09289,-0.52473c0.17056,-0.11926 0.40549,-0.07766 0.52473,0.09289c0.11926,0.17056 0.07766,0.40549 -0.09289,0.52473c-0.17056,0.11926 -0.40549,0.07766 -0.52473,-0.09289z" fill="#a00000" fill-rule="nonzero" stroke="none" stroke-width="0.5" stroke-linecap="butt" stroke-linejoin="miter"/><path d="M346.80204,208.48337c-0.11926,-0.17056 -0.07766,-0.40549 0.09289,-0.52473c0.17056,-0.11926 0.40549,-0.07766 0.52473,0.09289c0.11926,0.17056 0.07766,0.40549 -0.09289,0.52473c-0.17056,0.11926 -0.40549,0.07766 -0.52473,-0.09289z" fill="#a00000" fill-rule="nonzero" stroke="none" stroke-width="0.5" stroke-linecap="butt" stroke-linejoin="miter"/><path d="M349.46213,201.46326c-0.11926,-0.17056 -0.07766,-0.40549 0.09289,-0.52473c0.17056,-0.11926 0.40549,-0.07766 0.52473,0.09289c0.11926,0.17056 0.07766,0.40549 -0.09289,0.52473c-0.17056,0.11926 -0.40549,0.07766 -0.52473,-0.09289z" fill="#a00000" fill-rule="nonzero" stroke="none" stroke-width="0.5" stroke-linecap="butt" stroke-linejoin="miter"/><path d="M349.29958,202.95296c-0.11926,-0.17056 -0.07766,-0.40549 0.09289,-0.52473c0.17056,-0.11926 0.40549,-0.07766 0.52473,0.09289c0.11926,0.17056 0.07766,0.40549 -0.09289,0.52473c-0.17056,0.11926 -0.40549,0.07766 -0.52473,-0.09289z" fill="#a00000" fill-rule="nonzero" stroke="none" stroke-width="0.5" stroke-linecap="butt" stroke-linejoin="miter"/><path d="M348.84264,204.39056c-0.11926,-0.17056 -0.07766,-0.40549 0.09289,-0.52473c0.17056,-0.11926 0.40549,-0.07766 0.52473,0.09289c0.11926,0.17056 0.07766,0.40549 -0.09289,0.52473c-0.17056,0.11926 -0.40549,0.07766 -0.52473,-0.09289z" fill="#a00000" fill-rule="nonzero" stroke="none" stroke-width="0.5" stroke-linecap="butt" stroke-linejoin="miter"/><path d="M361.1713,172.95372c0.28512,-0.19936 0.62423,-0.26383 0.94159,-0.2069c0.14315,-0.23577 0.39524,-0.44597 0.83286,-0.53104c0.69801,-0.13565 1.07763,0.20065 1.27568,0.51802c0.47876,-0.16422 1.02226,-0.02466 1.36064,0.37097l0.89776,1.02189l-0.13986,0.12289l0.36659,0.25017c0.11514,2.3775 -0.01211,6.96263 -3.64706,3.85987c-0.12507,-0.10673 -0.23425,-0.21868 -0.32955,-0.33504c-0.3266,-0.05063 -0.63277,-0.2293 -0.83711,-0.52152c-0.36607,-0.52358 -0.27741,-1.22915 0.18298,-1.64788c-0.00765,-0.20811 -0.00951,-0.41803 -0.01154,-0.62778c-0.4524,0.06264 -0.92295,-0.12454 -1.20265,-0.52455c-0.39748,-0.56852 -0.25886,-1.35157 0.30966,-1.74907z" fill="#ffffff" fill-rule="nonzero" stroke="none" stroke-width="0.5" stroke-linecap="butt" stroke-linejoin="miter"/><path d="M361.5184,179.61808c-0.37415,-0.53513 -0.27329,-1.26039 0.21399,-1.67519c-0.11358,-0.08098 -0.21552,-0.18241 -0.30004,-0.30327c-0.30204,-0.43201 -0.29454,-0.98789 -0.02406,-1.40431c-0.1056,-0.24426 -0.12817,-0.51074 -0.07437,-0.76134c-0.24818,-0.08204 -0.47296,-0.24196 -0.63427,-0.47264c-0.39748,-0.56852 -0.25886,-1.35157 0.30966,-1.74907c0.56852,-0.39748 1.35157,-0.25886 1.74907,0.30966c0.20819,0.29777 0.2693,0.65438 0.19862,0.98366c0.24818,0.08204 0.47296,0.24196 0.63427,0.47264c0.30204,0.43201 0.29454,0.98789 0.02406,1.40431c0.21626,0.50014 0.08425,1.09321 -0.33822,1.45288c0.11358,0.08098 0.21552,0.18241 0.30004,0.30327c0.39748,0.56852 0.25886,1.35157 -0.30966,1.74907c-0.56852,0.39748 -1.35157,0.25886 -1.74907,-0.30966z" fill="#a00000" fill-rule="nonzero" stroke="none" stroke-width="0.5" stroke-linecap="butt" stroke-linejoin="miter"/></g></g></g></svg>