<svg version="1.1" xmlns="http://www.w3.org/2000/svg" xmlns:xlink="http://www.w3.org/1999/xlink" width="980.48048" height="630.63063" viewBox="0,0,980.48048,630.63063"><g transform="translate(145.24024,130.31528)"><g data-paper-data="{&quot;isPaintingLayer&quot;:true}" stroke-miterlimit="10" stroke-dasharray="" stroke-dashoffset="0" style="mix-blend-mode: normal"><path d="M-145.24024,500.31535v-630.63063h980.48048v630.63063z" fill="#000000" fill-rule="nonzero" stroke="#ff3838" stroke-width="0" stroke-linecap="butt" stroke-linejoin="miter"/><text transform="translate(304.71471,259.28905) scale(0.5,0.5)" font-size="40" xml:space="preserve" fill="#ffffff" fill-rule="nonzero" stroke="none" stroke-width="1" stroke-linecap="butt" stroke-linejoin="miter" stroke-miterlimit="10" stroke-dasharray="" stroke-dashoffset="0" font-family="Marker" font-weight="normal" text-anchor="start" style="mix-blend-mode: normal"><tspan x="0" dy="0">Loading</tspan></text><g><path d="M342.21649,191.23809c0.4679,-0.22055 3.59915,1.90178 5.32359,1.71475c1.21979,-0.17034 2.70035,-0.47438 3.97702,-1.49692c2.921,-2.27233 2.8623,-1.26856 4.69694,-0.08878c1.88477,1.18318 2.57828,2.73937 -3.67124,4.33641c-2.15221,0.5613 -4.05712,0.43418 -5.60778,0.28038c-0.40101,-0.02679 -3.8365,-0.60848 -4.92584,-2.39316c-1.08937,-1.78468 -0.20708,-2.17894 0.20734,-2.35271z" fill="#000000" fill-rule="evenodd" stroke="#001026" stroke-width="1.2" stroke-linecap="round" stroke-linejoin="round"/><path d="M338.85548,196.56503c-0.81205,-0.65843 -1.61402,-2.22248 0.08044,-3.46893c1.96182,-1.48033 4.14395,0.52828 5.09636,1.34714c0.95242,0.81884 1.4236,1.30344 3.50552,2.55012c0.82209,0.50804 1.89815,0.98264 2.48634,1.2233c0.24728,0.06684 0.49794,0.08359 0.75528,0.00003c0.46453,-0.17041 -4.30275,-1.81686 -3.39715,-1.05152c0.90246,0.90866 1.5747,-0.07172 0.16649,1.32568c-0.16177,0.16055 0.32698,-0.23316 0.17489,-0.04553c-1.43085,1.76524 0.3753,1.44058 -0.90461,0.93381c-2.7002,-1.03617 -3.43092,0.40164 -2.49846,-0.74462c0.11361,-0.19384 0.0625,-0.93692 -0.13464,-1.0004l0.6123,2.43014c-0.56428,-0.22085 0.64764,0.63234 0.12585,0.38168c-0.5792,-0.27822 -1.93954,-1.23373 -2.45695,-1.52746c-2.21893,-1.25961 -3.01425,-1.89496 -3.61163,-2.35349z" fill="#000000" fill-rule="evenodd" stroke="#001026" stroke-width="1.2" stroke-linecap="round" stroke-linejoin="round"/><path d="M332.08279,185.39586c0.90238,-0.69507 2.58334,-0.23043 2.5398,1.1765c-0.087,1.30334 -1.22998,2.58657 -1.88506,3.34847c-0.65505,0.76192 -3.65964,3.53221 -7.01482,1.7474c-1.40358,-0.84894 -4.62497,-3.88364 -2.70996,-5.41742c1.91503,-1.53383 3.43212,0.63186 4.56498,1.76481c0.94237,0.96922 4.24106,-2.43598 4.50511,-2.61979z" fill="#000000" fill-rule="evenodd" stroke="#001026" stroke-width="1.2" stroke-linecap="round" stroke-linejoin="round"/><g fill-rule="evenodd"><path d="M335.38001,193.67226c-0.57143,-0.49132 -1.12281,-1.28338 -1.84793,-2.48985c-0.5881,-0.99595 -1.16615,-2.89754 -1.16615,-2.89754c-0.36752,-1.28331 -0.50774,-3.70958 1.14316,-3.54904c1.09949,0.1237 2.1121,0.04023 3.83321,-0.09666c3.04788,-0.40085 3.62603,-0.76507 4.74214,1.37383c1.19291,2.49647 4.53471,4.48182 -0.00389,8.35815c0,0 -2.58345,1.74098 -5.73502,4.45107c-2.13562,1.8212 -5.48107,4.41769 -6.64742,5.29652c-0.26404,0.1838 -0.57148,0.26398 -0.87561,0.29404c-4.8926,0.12667 -8.46844,-0.61549 -8.32458,-2.77102c0.24085,-3.60928 7.32563,-1.87769 7.32563,-1.87769c0,0 2.43641,-1.80117 3.55265,-2.68335z" fill="#000000" stroke="#001026" stroke-width="1.2" stroke-linecap="round" stroke-linejoin="round"/><path d="M333.39851,190.16641c0,0 -0.86882,-1.31678 1.37705,-2.52642c2.3528,-1.3032 3.09794,0.35778 3.91997,1.62108c0.89886,1.62091 -0.15387,2.30592 -1.21665,3.14133c-0.85224,0.69838 -1.64429,1.2498 -1.64429,1.2498c0,0 -1.48375,-1.15639 -2.43604,-3.48578z" fill="#a00000" stroke="none" stroke-width="1" stroke-linecap="butt" stroke-linejoin="miter"/></g><g fill-rule="evenodd"><path d="M334.06289,159.496c1.16633,-0.12358 2.37611,-0.14358 3.77302,0.05035c2.34938,0.25748 4.54829,1.26019 4.54829,1.26019l6.32983,-3.55539c0.20718,-0.08688 0.44782,0.08024 0.38431,0.27739l-1.65148,8.90279c-0.27399,-0.42107 4.8855,6.77108 0.94499,12.24826c-3.94048,5.47719 -11.68054,7.5286 -20.981,5.04499c-9.30043,-2.48363 -11.14484,-8.04475 -10.35262,-10.86194c0.79219,-2.81721 4.42162,-3.63238 4.42162,-3.63238c0,0 0.20065,-2.25245 1.98875,-4.90248c1.06284,-1.59068 4.42829,-3.73265 4.42829,-3.73265l1.66127,-5.27681c0.06351,-0.19716 0.3175,-0.23058 0.46122,-0.12026z" fill="#000000" stroke="#001026" stroke-width="1.2" stroke-linecap="butt" stroke-linejoin="miter"/><path d="M321.61686,169.44082c4.32447,-0.66811 4.51481,2.51675 8.10733,3.00826c4.19073,0.58178 10.25996,-3.59525 13.26066,1.99267c3.00406,5.53779 -3.24245,12.37165 -15.20637,9.05566c-9.20353,-2.42683 -11.26514,-7.75066 -10.47295,-10.56788c0.79219,-2.8172 4.31131,-3.48869 4.31131,-3.48869z" fill="#000000" stroke="none" stroke-width="1" stroke-linecap="butt" stroke-linejoin="miter"/><path d="M337.04952,175.8583c-0.01352,2.46635 -0.67878,5.64449 -5.27394,5.84136c-5.28356,-0.05049 -6.93758,-3.93724 -7.29845,-5.32083c-0.08352,-0.25732 0.13372,-0.49462 0.38101,-0.42774c0.7419,0.20055 2.33597,0.45799 5.05297,0.48826c3.02109,0.00014 5.78158,-0.62124 6.75746,-0.90858c0.20384,-0.03676 0.39433,0.12701 0.38094,0.32753z" fill="#000000" stroke="#001026" stroke-width="1.2" stroke-linecap="round" stroke-linejoin="round"/><path d="M318.19126,171.72985c0,0 -3.60592,-0.29098 -5.83486,-2.35311" fill="none" stroke="#001026" stroke-width="1.2" stroke-linecap="round" stroke-linejoin="round"/><path d="M317.79337,174.67405c0,0 -2.01858,0.82197 -5.15997,0.36061" fill="none" stroke="#001026" stroke-width="1.2" stroke-linecap="round" stroke-linejoin="round"/><path d="M332.27411,171.96468c-0.05352,0.80207 -2.24255,1.91476 -3.13818,1.75431c-0.79874,-0.10366 -1.45698,-1.55742 -1.36004,-2.25589c0.07355,-0.34754 1.18306,-0.37423 2.23581,-0.30398c1.00257,0.06692 2.35271,0.20734 2.26242,0.80555z" fill="#001026" stroke="#000000" stroke-width="1.2" stroke-linecap="round" stroke-linejoin="round"/><path d="M346.35687,174.46535c1.85821,-1.43692 6.26294,-2.55281 6.26294,-2.55281" fill="none" stroke="#001026" stroke-width="1.2" stroke-linecap="round" stroke-linejoin="round"/><path d="M351.93444,176.90196c0,0 -3.74633,0.30388 -5.84499,-0.69216" fill="none" stroke="#001026" stroke-width="1.2" stroke-linecap="round" stroke-linejoin="round"/><g fill="#a00000"><path d="M329.86185,162.84105c1.34342,0.99599 1.12265,3.54922 -0.48161,5.70798c-1.6544,2.15543 -4.03056,3.05427 -5.37395,2.05831c-1.34342,-0.99599 -1.12265,-3.54922 0.48161,-5.70798c1.6043,-2.15881 4.03393,-3.10439 5.37395,-2.05831z" stroke="#001026" stroke-width="1.2" stroke-linecap="round" stroke-linejoin="round"/><path d="M324.49771,167.77007c0.03679,-0.55139 0.46793,-0.97582 0.96922,-0.94237c0.50132,0.03345 0.87222,0.5114 0.83542,1.06279c-0.03679,0.55139 -0.46793,0.97582 -0.96922,0.94237c-0.50132,-0.03345 -0.87222,-0.5114 -0.83542,-1.06279" stroke="none" stroke-width="1" stroke-linecap="butt" stroke-linejoin="miter"/></g><g><path d="M336.82614,167.13256c1.65105,-2.10534 4.08738,-3.15119 5.56444,-1.89451c1.48041,1.20653 1.18945,4.05717 -0.5117,6.15916c-1.65105,2.10534 -3.90355,2.65993 -5.49423,1.59709c-1.28992,-1.04277 -1.20958,-3.75642 0.4415,-5.86173z" fill="#ffffff" stroke="#001026" stroke-width="1.2" stroke-linecap="round" stroke-linejoin="round"/><path d="M336.93293,170.06007c0.03679,-0.55139 0.4646,-0.92569 0.96922,-0.94237c0.50132,0.03345 0.87222,0.5114 0.83542,1.06279c-0.03679,0.55139 -0.46793,0.97582 -0.96922,0.94237c-0.50132,-0.03345 -0.87222,-0.5114 -0.83542,-1.06279" fill="#001026" stroke="none" stroke-width="1" stroke-linecap="butt" stroke-linejoin="miter"/></g></g><path d="M336.21772,171.49401c0,0 -0.14066,0.05899 -0.31242,0.0495c-0.02496,0.17716 -0.02846,0.38271 0.0012,0.65668c-0.05032,0.78649 -0.10283,1.57286 -0.15528,2.35921l0.07693,0.49162c0,0 0.08189,0.62266 -0.54076,0.70454c-0.62265,0.08187 -0.70454,-0.54076 -0.70454,-0.54076l-0.08489,-0.73903c0.05019,-0.75189 0.10013,-1.50381 0.15265,-2.25554c-0.14413,-1.5896 0.54334,-3.67041 1.08802,-5.02662c0.43994,-1.09547 1.68296,-1.46864 2.12948,-2.6635c0.16528,-0.44227 -0.14821,-0.95643 -0.03926,-1.4158c0.05582,-0.23541 0.3594,-0.36267 0.40935,-0.59943c0.2643,-1.25134 -0.0375,-1.47502 0.90129,-2.51648c0,0 0.42409,-0.46316 0.88728,-0.03906c0.46316,0.42409 0.03906,0.88728 0.03906,0.88728c-1.15703,1.23888 -0.53443,2.64586 -1.0123,4.09864c-0.32772,0.99629 -1.13003,1.76647 -1.90382,2.34568c-0.03077,0.02304 -0.05765,0.04553 -0.08108,0.06759c0.11736,0.06575 0.18876,0.14733 0.18876,0.14733c0.15114,0.17274 0.3022,0.34547 0.45333,0.51817l0.14586,0.57675c0,0 -0.04181,0.6266 -0.6684,0.5848c-0.41887,-0.02794 -0.53901,-0.31722 -0.57268,-0.50597c-0.00457,-0.00524 -0.00918,-0.01048 -0.01372,-0.01568c-0.10509,0.08516 -0.21138,0.16973 -0.26783,0.28752c-0.15633,0.32657 -0.03863,0.71667 -0.03724,1.08535c0.17291,-0.08431 0.35157,-0.07238 0.35157,-0.07238l0.32245,1.21386c-0.25099,0.10523 -0.50196,0.21047 -0.75297,0.31568z" fill="#a00000" fill-rule="nonzero" stroke="none" stroke-width="0.5" stroke-linecap="butt" stroke-linejoin="miter"/><path d="M333.07711,175.974c-0.62265,0.08187 -0.70454,-0.54076 -0.70454,-0.54076l-0.06596,-0.53871c-0.06827,-0.2643 -0.13653,-0.52857 -0.2048,-0.7929c-0.06831,-0.7084 -0.48649,-1.6042 -0.34942,-2.30955c0.11887,-0.61179 0.65064,-1.32607 0.88938,-1.91048c0.66183,-1.62032 1.35497,-3.47985 1.78692,-5.16605c0.38361,-1.49744 0.11074,-3.6576 0.21592,-5.23378c0,0 0.04181,-0.6266 0.6684,-0.5848c0.6266,0.04181 0.5848,0.6684 0.5848,0.6684c-0.11221,1.6816 0.14579,3.85936 -0.25435,5.46925c-0.4325,1.74008 -1.15957,3.66407 -1.84081,5.32629c-0.02205,0.05378 -0.78359,1.52087 -0.81107,1.63552c-0.11369,0.47443 0.29736,1.39748 0.34658,1.88426c0.06125,0.23226 0.12245,0.46454 0.18372,0.69683l0.09587,0.6919c0,0 0.08189,0.62266 -0.54076,0.70454z" fill="#a00000" fill-rule="nonzero" stroke="none" stroke-width="0.5" stroke-linecap="butt" stroke-linejoin="miter"/><path d="M321.74625,181.87673c-0.41353,-0.47267 0.05912,-0.88617 0.05912,-0.88617l0.39366,-0.30461c0.4075,-2.12933 0.83366,-4.31947 1.34343,-6.43218c0.40079,-1.66106 -0.46656,-3.39327 1.51921,-4.1636c0,0 0.59734,-0.19388 0.79122,0.40344c0.19391,0.59731 -0.40343,0.79121 -0.40343,0.79121c-0.86783,0.16697 -0.56674,1.68403 -0.61997,2.42381c-0.18076,2.51244 -0.90177,5.19341 -1.55445,7.62518l-0.6427,0.6021c0,0 -0.47264,0.4135 -0.88617,-0.05912z" fill="#a00000" fill-rule="nonzero" stroke="none" stroke-width="0.5" stroke-linecap="butt" stroke-linejoin="miter"/><path d="M320.28264,181.23152c-0.6266,-0.04181 -0.5848,-0.6684 -0.5848,-0.6684l0.04781,-0.58819c0.52817,-2.23767 0.72736,-4.47982 1.43391,-6.67238c0.44068,-1.36758 1.40633,-2.5944 1.71617,-3.9738c0,0 0.14425,-0.61122 0.75548,-0.46695c0.61122,0.14425 0.46695,0.75548 0.46695,0.75548c-0.35276,1.44066 -1.29185,2.66828 -1.74947,4.08972c-0.69306,2.15264 -0.88141,4.35676 -1.40059,6.55648l-0.01701,0.38329c0,0 -0.04181,0.6266 -0.6684,0.5848z" fill="#a00000" fill-rule="nonzero" stroke="none" stroke-width="0.5" stroke-linecap="butt" stroke-linejoin="miter"/><path d="M340.67705,167.94447c-0.62397,0.07094 -0.69495,-0.55302 -0.69495,-0.55302l-0.01183,-0.10408c-0.04225,-1.97594 0.04769,-2.02314 1.90195,-2.21095c0,0 0.62495,-0.0618 0.68672,0.56321c0.0618,0.62495 -0.56321,0.68672 -0.56321,0.68672c-0.34026,0.03268 -0.98521,-0.3421 -1.02549,-0.00265c-0.03375,0.28411 0.16532,0.54787 0.24803,0.82177l0.01183,0.10408c0,0 0.07094,0.62397 -0.55302,0.69495z" fill="#a00000" fill-rule="nonzero" stroke="none" stroke-width="0.5" stroke-linecap="butt" stroke-linejoin="miter"/><path d="M339.92264,169.95846c0.04181,-0.6266 0.6684,-0.5848 0.6684,-0.5848l0.12147,0.00812c0.48577,0.03245 0.97155,0.06484 1.45732,0.09726c0,0 0.6266,0.04181 0.5848,0.6684c-0.04181,0.6266 -0.6684,0.5848 -0.6684,0.5848c-0.48573,-0.0324 -1.09299,-0.07293 -1.57874,-0.10534c0,0 -0.6266,-0.04181 -0.5848,-0.6684z" fill="#a00000" fill-rule="nonzero" stroke="none" stroke-width="0.5" stroke-linecap="butt" stroke-linejoin="miter"/><path d="M338.05496,171.46247c0.47266,-0.41349 0.88617,0.05912 0.88617,0.05912l0.22193,0.78089c-0.09716,0.23749 -0.19433,0.47497 -0.2915,0.71242c0,0 -0.23783,0.58122 -0.81907,0.34338c-0.58125,-0.2378 -0.3434,-0.81904 -0.3434,-0.81904c0.0547,-0.13379 0.1095,-0.26759 0.16421,-0.40134c-0.06852,-0.17588 -0.0925,-0.43558 0.18168,-0.67546z" fill="#a00000" fill-rule="nonzero" stroke="none" stroke-width="0.5" stroke-linecap="butt" stroke-linejoin="miter"/><path d="M351.1963,198.9043c-0.52639,0.34248 -0.86888,-0.18387 -0.86888,-0.18387l0.05021,-0.24136c-0.36504,-0.08734 -0.72751,-0.14083 -1.09015,-0.19225c-0.09926,0.06076 -0.18584,0.08334 -0.18584,0.08334c-0.22649,0.05779 -0.44715,0.1478 -0.67947,0.17337c-0.08847,0.00972 -0.25974,-0.15939 -0.25762,-0.07042c0.00635,0.26481 0.461,0.55851 0.27388,0.74601c-0.34268,0.34339 -0.92439,0.30832 -1.40328,0.38566c-0.26901,0.04345 -0.82908,-0.45937 -0.79529,-0.189c0.02711,0.21678 0.35054,0.46288 0.20235,0.62342c-0.62665,0.67896 -2.12466,0.90171 -2.39283,-0.45269c-0.0782,-0.39497 0.48777,-0.6407 0.73168,-0.96107l0.57678,-0.14587c0,0 0.12166,0.00812 0.25418,0.07081c0.15852,-0.09487 0.36192,-0.17982 0.61431,-0.24545c0.25955,-0.0675 0.54439,-0.02578 0.80336,0.04383c0.13021,0.03504 0.34362,0.3876 0.31308,0.25625c-0.04819,-0.20712 -0.4706,-0.32767 -0.37374,-0.51703c0.13416,-0.26228 0.36364,-0.43989 0.62859,-0.56894c-0.00128,-0.0583 0.00536,-0.12229 0.02189,-0.19233c0.14425,-0.61122 0.75548,-0.46695 0.75548,-0.46695c0.76661,0.18345 1.52193,0.21749 2.29118,0.39687l0.71404,0.77879c0,0 0.34248,0.52639 -0.18387,0.86888z" fill="#a00000" fill-rule="nonzero" stroke="none" stroke-width="0.5" stroke-linecap="butt" stroke-linejoin="miter"/><path d="M349.91503,202.6637c-0.47266,0.41349 -0.88617,-0.05912 -0.88617,-0.05912l-0.42622,-0.51559c-0.10792,-0.21049 -0.21586,-0.42102 -0.32381,-0.63153c0,0 -0.28652,-0.55885 0.2723,-0.84536c0.55885,-0.28652 0.84536,0.2723 0.84536,0.2723c0.10793,0.21051 0.21587,0.42103 0.32381,0.63153l0.25381,0.26164c0,0 0.41349,0.47266 -0.05912,0.88617z" fill="#a00000" fill-rule="nonzero" stroke="none" stroke-width="0.5" stroke-linecap="butt" stroke-linejoin="miter"/><path d="M347.84818,204.86782l-0.07282,-0.73676c0,0 -0.0618,-0.62495 0.56321,-0.68672c0.62495,-0.0618 0.68672,0.56321 0.68672,0.56321l0.07282,0.73676c0,0 0.0618,0.62495 -0.56321,0.68672c-0.62495,0.0618 -0.68672,-0.56321 -0.68672,-0.56321z" fill="#a00000" fill-rule="nonzero" stroke="none" stroke-width="0.5" stroke-linecap="butt" stroke-linejoin="miter"/><path d="M354.70656,203.9177c-0.3176,0.54177 -0.8594,0.22414 -0.8594,0.22414l-0.47597,-0.39288c-0.10793,-0.21051 -0.21587,-0.42103 -0.32381,-0.63153c0,0 -0.08693,-0.1696 -0.07161,-0.36981c-0.20481,-0.11475 -0.33663,-0.34017 -0.31996,-0.59003c0.02311,-0.34607 0.32236,-0.6079 0.6684,-0.5848c0.34607,0.02311 0.6079,0.32236 0.5848,0.6684c-0.00065,0.00975 -0.00152,0.01946 -0.00263,0.02905c0.17162,0.10444 0.25866,0.27414 0.25866,0.27414c0.10793,0.21051 0.21587,0.42103 0.32381,0.63153l-0.0064,-0.11757c0,0 0.54175,0.31764 0.22414,0.8594z" fill="#a00000" fill-rule="nonzero" stroke="none" stroke-width="0.5" stroke-linecap="butt" stroke-linejoin="miter"/><path d="M345.86349,198.85583c-0.41349,-0.47266 0.05912,-0.88617 0.05912,-0.88617l0.34917,-0.23799c0.00957,-0.0031 0.01913,-0.0062 0.02869,-0.0093c-0.06213,-0.16942 -0.13199,-0.5308 0.27347,-0.76373c0.54455,-0.31279 0.85737,0.23177 0.85737,0.23177l0.14667,0.27981c0.30335,0.35107 0.59791,0.59452 0.67208,0.86854c0.09117,0.03732 0.17118,0.09534 0.23462,0.1678l0.45334,0.5182v0c0.10582,0.12096 0.16553,0.28228 0.15398,0.45535c-0.01636,0.24538 -0.17161,0.44839 -0.38389,0.53752l0.14263,0.40546c0.03074,0.08148 0.04498,0.1707 0.0388,0.26332c-0.02311,0.34607 -0.32236,0.6079 -0.6684,0.5848c-0.10526,-0.007 -0.20269,-0.03962 -0.2867,-0.09128l-0.69344,-0.40656l0.00374,-0.0064l-0.02429,-0.00619c-0.42694,-0.29982 -0.82478,-0.64816 -1.1707,-1.03867c0,0 -0.32973,-0.37687 -0.06379,-0.75196c-0.04102,-0.03046 -0.08197,-0.06817 -0.12237,-0.11435zM346.96008,198.86011c-0.00431,-0.00903 -0.00866,-0.01802 -0.01298,-0.02706c-0.00426,0.00138 -0.00853,0.00278 -0.0128,0.00416c0.00969,0.00821 0.01829,0.01596 0.02578,0.02293z" fill="#ffffff" fill-rule="nonzero" stroke="none" stroke-width="0.5" stroke-linecap="butt" stroke-linejoin="miter"/><path d="M335.39308,175.74363c0.40942,-0.4762 0.88559,-0.0668 0.88559,-0.0668l0.03868,0.50926c0.09203,-0.16934 0.18497,-0.32256 0.25862,-0.4317c0,0 0.35822,-0.51579 0.87404,-0.15756c0.51577,0.35823 0.15756,0.87404 0.15756,0.87404c-0.77262,1.06945 -0.66304,3.10034 -2.34709,1.37069c-0.16067,-0.16497 -0.21306,-0.40773 -0.31534,-0.6147l-0.4148,-0.47414l0.1901,-0.16629l-0.21749,-0.62709c0.22359,0.00834 0.44808,0.01716 0.67249,0.02038l0.09917,-0.20678l0.06944,0.0333c0.01475,-0.02073 0.03107,-0.04159 0.04915,-0.0626z" fill="#8da900" fill-rule="nonzero" stroke="none" stroke-width="0.5" stroke-linecap="butt" stroke-linejoin="miter"/><path d="M327.23816,176.35183c0,0 0.46847,-0.40985 0.88066,0.05291c0.12218,-0.17209 0.32825,-0.2786 0.55428,-0.2635c0.17302,0.01157 0.32501,0.09213 0.43083,0.2131v0l0.22895,0.26169c0.14671,0.02534 0.29389,0.0293 0.43972,0.00082l0.51524,-0.27814c0,0 0.46999,-0.24095 0.76892,0.15006c0.15856,-0.06658 0.44509,-0.1289 0.68488,0.13363c0.4039,-0.23234 0.96116,-0.51263 1.12884,-0.59926l0.44981,-0.05967c0,0 0.16965,0.01135 0.32648,0.11047c0.01994,-0.06076 0.04235,-0.12002 0.06934,-0.1763c0,0 0.27153,-0.56625 0.83779,-0.29472c0.56626,0.27153 0.29472,0.83779 0.29472,0.83779c-0.04276,0.08913 -0.14829,0.31383 -0.2669,0.55718c0.08745,0.11612 0.13519,0.26296 0.12476,0.41936c-0.00874,0.13063 -0.05677,0.24926 -0.13188,0.3451c-0.00417,0.24164 -0.17158,0.40149 -0.27462,0.4772c0.00293,0.00245 0.00583,0.00488 0.00873,0.00737c0.26154,0.08994 0.44127,0.34649 0.42196,0.63572c-0.02311,0.34607 -0.32236,0.6079 -0.6684,0.5848c-0.14975,-0.01 -0.28375,-0.07168 -0.3857,-0.16655c-0.12551,-0.03604 -0.24996,-0.07994 -0.37186,-0.13124c-0.0244,0.00051 -0.04982,-0.00004 -0.07627,-0.00182c-0.2937,-0.01959 -0.44056,-0.16768 -0.51371,-0.31951c-0.1795,-0.12301 -0.34563,-0.26375 -0.49193,-0.4199l-0.07976,-0.00941c0,0 -0.19423,-0.11385 -0.2819,-0.32152c-0.16227,-0.08499 -0.30039,-0.2027 -0.40013,-0.35831c-0.45397,0.49153 -0.34242,1.44789 -1.05085,1.67756c-0.98761,0.32019 -1.68078,-0.87338 -2.05814,-1.59467c-0.18014,0.14447 -0.35773,0.29162 -0.51615,0.459c-0.24915,0.26326 -0.33676,0.81084 -0.69847,0.83338c-0.43781,0.0273 -1.2192,-0.96785 -1.51136,-1.30593l-0.01718,-0.07742l-0.02202,0.01132l-0.31909,-0.62235c-0.05353,-0.10012 -0.08062,-0.21596 -0.07248,-0.33754c0.02311,-0.34607 0.32236,-0.6079 0.6684,-0.5848c0.03376,0.00226 0.06678,0.00714 0.09877,0.01446l0.8314,0.17593l-0.00308,0.01453c0.21472,0.00154 0.42931,0.00808 0.64356,0.02188l-0.19623,-0.07272zM329.83837,177.85445c-0.01276,0.00198 -0.02547,0.00402 -0.03824,0.00609c0.01006,0.01864 0.01997,0.03698 0.02962,0.05495c0.00206,-0.01985 0.00498,-0.04023 0.00863,-0.06102z" fill="#8da900" fill-rule="nonzero" stroke="none" stroke-width="0.5" stroke-linecap="butt" stroke-linejoin="miter"/><path d="M329.88762,179.80859c1.20174,-0.6236 1.48721,-0.58842 2.21862,-0.09488c0.35686,-0.22963 0.99113,0.01467 1.50837,0.33787l0.20098,-0.2651c0.59722,-0.03475 1.23452,0.12073 1.73966,0.44116c0,0 0.51577,0.35823 0.15757,0.87407c-0.35825,0.51581 -0.87407,0.15757 -0.87407,0.15757c-0.0224,-0.0183 -0.0458,-0.03559 -0.07013,-0.05191c-0.10942,0.21384 -0.33709,0.35439 -0.59132,0.34136c-0.19846,0.13865 -0.38287,0.12904 -0.52572,0.07645l-0.57429,0.08563c-0.17341,-0.07548 -0.40559,-0.10135 -0.61571,-0.14584c-0.40629,0.45161 -0.87193,0.0512 -0.87193,0.0512l-0.09384,-0.2463c-0.50256,-0.03513 -1.01588,-0.10778 -1.50893,-0.24071l-0.05888,0.24951l-0.71049,-0.16767c-0.29904,-0.06499 -0.51339,-0.34086 -0.49239,-0.65539c0.0188,-0.28189 0.22085,-0.50784 0.48214,-0.56951l0.68048,-0.17747z" fill="#8da900" fill-rule="nonzero" stroke="none" stroke-width="0.5" stroke-linecap="butt" stroke-linejoin="miter"/><path d="M336.81001,178.56071c-0.42409,0.46316 -0.88728,0.03906 -0.88728,0.03906l-0.76941,-1.09704c0.37627,-0.26242 0.75259,-0.52486 1.12886,-0.78728c0,0 0.57916,-0.24283 0.82197,0.33632c0.17191,0.41006 -0.06824,0.65152 -0.2231,0.75757c0.10398,0.16169 0.20654,0.44814 -0.07105,0.75136z" fill="#a00000" fill-rule="nonzero" stroke="none" stroke-width="0.5" stroke-linecap="butt" stroke-linejoin="miter"/><path d="M335.33799,178.92316c-0.04181,0.6266 -0.6684,0.5848 -0.6684,0.5848l-0.24288,-0.01621c-0.3068,-0.0246 -0.60201,-0.12503 -0.88157,-0.26915l-0.07682,0.16021l-0.57783,-0.27707c-0.23206,-0.10473 -0.38621,-0.34543 -0.36824,-0.6144c0.01793,-0.26898 0.20272,-0.48703 0.44663,-0.56001l0.60953,-0.19784l0.01387,0.0427l0.1026,-0.06859c0.28262,0.01509 0.56527,0.03014 0.84788,0.04522c0,0 0.61215,0.04086 0.58599,0.64681c0.12421,0.09677 0.22705,0.25741 0.20929,0.52357z" fill="#a00000" fill-rule="nonzero" stroke="none" stroke-width="0.5" stroke-linecap="butt" stroke-linejoin="miter"/><path d="M332.28889,180.26053c-0.23783,0.58122 -0.81907,0.34338 -0.81907,0.34338l-0.33075,-0.13599c-0.15793,-0.06388 -0.34538,-0.09178 -0.52184,-0.13306c-0.19664,0.23128 -0.53018,0.20905 -0.53018,0.20905l-0.97152,-0.06482c-0.10586,-0.00706 -0.20388,-0.03996 -0.2882,-0.09217c-0.01899,0.00186 -0.03805,0.00365 -0.05713,0.00538l-0.2596,0.0342c0,0 -0.62265,0.08187 -0.70453,-0.54076c-0.01937,-0.14735 0.00068,-0.26446 0.04269,-0.35733c0.09572,-0.24764 0.33039,-0.33031 0.46521,-0.35769c-0.06028,-0.10418 -0.09131,-0.22677 -0.08272,-0.3559c0.01793,-0.26898 0.20272,-0.48703 0.44663,-0.56001l0.60953,-0.19784l0.00737,0.02268l0.05796,-0.04005c0.6231,-0.0627 1.25374,-0.06029 1.87866,-0.01989c0,0 0.6266,0.04181 0.5848,0.6684c-0.00269,0.04011 -0.00775,0.07744 -0.01488,0.11222c0.04725,0.06348 0.08546,0.14427 0.1081,0.24701c0.07218,0.11023 0.11046,0.24399 0.10102,0.38562c-0.00088,0.01324 -0.00216,0.02636 -0.00384,0.03934c0.14264,0.08098 0.47137,0.32604 0.28228,0.78821z" fill="#a00000" fill-rule="nonzero" stroke="none" stroke-width="0.5" stroke-linecap="butt" stroke-linejoin="miter"/><path d="M326.88109,179.23222c-0.34607,-0.02311 -0.6079,-0.32236 -0.5848,-0.6684c0.02311,-0.34607 0.32236,-0.6079 0.6684,-0.5848c0.34607,0.02311 0.6079,0.32236 0.5848,0.6684c-0.02311,0.34607 -0.32236,0.6079 -0.6684,0.5848z" fill="#a00000" fill-rule="nonzero" stroke="none" stroke-width="0.5" stroke-linecap="butt" stroke-linejoin="miter"/><path d="M332.6572,178.86588c-0.02088,0.31288 -0.18755,0.45911 -0.34924,0.52708c-0.0051,0.01245 -0.0105,0.02471 -0.0163,0.03673c0.09812,0.00133 0.19881,0.01161 0.30258,0.03379c0.22368,0.04785 0.43065,0.16448 0.64034,0.26508c0.68232,0.04098 1.36139,0.10143 2.02044,0.14537l0.85011,0.05673c0.34607,0.02311 0.6079,0.32236 0.5848,0.6684c-0.02097,0.3145 -0.27007,0.55944 -0.57512,0.58415l-0.56165,0.05554c-0.0705,0.35763 -0.46482,0.46046 -0.46482,0.46046c-2.27738,0.59397 -3.90646,0.2632 -6.14003,-0.26401l-0.71049,-0.16767c-0.29904,-0.06499 -0.51339,-0.34086 -0.49239,-0.65539c0.00627,-0.094 0.03293,-0.18178 0.07536,-0.25934c-0.18252,-0.05596 -0.4633,-0.21159 -0.43492,-0.63782c0.02633,-0.39436 0.28421,-0.52393 0.47184,-0.56585c0.00451,-0.00614 0.00915,-0.01229 0.014,-0.01844c-0.03649,-0.18375 -0.03986,-0.52598 0.37156,-0.69847c0.57918,-0.24281 0.82198,0.33633 0.82198,0.33633c0.02796,0.13548 0.08955,0.27556 0.14759,0.41515c0.09914,-0.10482 0.2522,-0.18398 0.48835,-0.16825c0.56995,0.03804 0.58692,0.55991 0.58529,0.65397c0.10657,0.0448 0.2119,0.06814 0.3169,0.07587c0.05744,-0.00599 0.11502,-0.01159 0.17269,-0.01664c0.04046,-0.08498 0.09929,-0.15909 0.1711,-0.21746c0.05442,-0.24777 0.09015,-0.49998 0.10527,-0.7524l1.02007,-0.56132c0,0 0.6266,0.04181 0.5848,0.6684zM329.99326,179.4906c0.07287,0.05884 0.14481,0.10582 0.21609,0.14269z" fill="#000000" fill-rule="nonzero" stroke="none" stroke-width="0.5" stroke-linecap="butt" stroke-linejoin="miter"/><path d="M330.66624,179.15684l-0.71268,0.09375" fill="none" fill-rule="nonzero" stroke="#001026" stroke-width="1.2" stroke-linecap="round" stroke-linejoin="miter"/><path d="M328.88456,179.39119l2.29273,-0.48277" fill="none" fill-rule="nonzero" stroke="#a00000" stroke-width="1.2" stroke-linecap="round" stroke-linejoin="miter"/><path d="M330.5302,180.13679l0.97534,-1.91288" fill="none" fill-rule="nonzero" stroke="#000000" stroke-width="1.2" stroke-linecap="round" stroke-linejoin="miter"/><path d="M328.35018,177.87203l1.32201,2.4194" fill="none" fill-rule="nonzero" stroke="#000000" stroke-width="1.2" stroke-linecap="round" stroke-linejoin="miter"/><path d="M338.97946,184.94021c0.11075,-0.61815 0.72894,-0.50741 0.72894,-0.50741l0.69277,0.12766c0.01333,0.0257 0.02664,0.05139 0.03994,0.07706l0.0226,-0.05525l0.60547,0.24774c0.18928,0.0723 0.33262,0.23289 0.38349,0.4285c0.68155,0.4192 1.31804,1.51381 0.41207,2.28538c-0.91128,0.77609 -3.08795,-0.14223 -2.96428,-1.45381c0.02232,-0.2368 0.11658,-0.42918 0.25817,-0.57994c-0.1266,-0.10821 -0.23018,-0.28526 -0.17916,-0.56991z" fill="#a00000" fill-rule="nonzero" stroke="none" stroke-width="0.5" stroke-linecap="butt" stroke-linejoin="miter"/><path d="M340.62939,186.5263c-0.34607,-0.02311 -0.6079,-0.32236 -0.5848,-0.6684c0.02311,-0.34607 0.32236,-0.6079 0.6684,-0.5848c0.34607,0.02311 0.6079,0.32236 0.5848,0.6684c-0.02311,0.34607 -0.32236,0.6079 -0.6684,0.5848z" fill="#ffffff" fill-rule="nonzero" stroke="none" stroke-width="0.5" stroke-linecap="butt" stroke-linejoin="miter"/><path d="M330.99911,179.46163l-2.00206,0.36091l-0.41722,-1.15811" fill="none" fill-rule="nonzero" stroke="#000000" stroke-width="1.2" stroke-linecap="round" stroke-linejoin="miter"/><path d="M338.71881,190.71426c-0.02311,0.34607 -0.32236,0.6079 -0.6684,0.5848c-0.03944,-0.00262 -0.07779,-0.00886 -0.11471,-0.01834c0.10343,0.12044 0.16152,0.27997 0.15017,0.45092c-0.02311,0.34607 -0.32236,0.6079 -0.6684,0.5848c-0.11553,-0.00772 -0.22171,-0.04618 -0.311,-0.10696c-0.09714,0.24827 -0.3466,0.41628 -0.62674,0.39757c-0.05436,-0.00363 -0.10668,-0.01409 -0.15607,-0.03042c-0.07321,0.28787 -0.34337,0.49157 -0.65037,0.47109c-0.34607,-0.02311 -0.6079,-0.32236 -0.5848,-0.6684c0.0018,-0.0269 0.00527,-0.05328 0.01031,-0.07908c-0.31644,-0.05099 -0.54774,-0.33555 -0.52597,-0.66176c0.02311,-0.34607 0.32236,-0.6079 0.6684,-0.5848c0.0269,0.0018 0.05331,0.00527 0.0791,0.01028c0.05099,-0.31644 0.33555,-0.54774 0.66176,-0.52597c0.06012,0.00399 0.11771,0.01639 0.17173,0.03586c0.09468,-0.25299 0.34666,-0.42511 0.63005,-0.40621c0.08405,0.00561 0.16311,0.0275 0.23432,0.06241c0.08803,-0.26484 0.34631,-0.4475 0.63779,-0.42806c0.06851,0.00458 0.1337,0.01997 0.19406,0.04439c0.11006,-0.21868 0.34339,-0.36171 0.60306,-0.34441c0.34607,0.02311 0.6079,0.32236 0.5848,0.6684c-0.01463,0.21898 -0.13977,0.4042 -0.31747,0.50491c-0.00006,0.0129 -0.00055,0.02588 -0.0014,0.03896zM337.50103,191.06329c0.03944,0.00262 0.07779,0.00886 0.11471,0.01834c-0.00707,-0.00823 -0.01391,-0.01662 -0.02052,-0.02519c-0.00765,-0.00025 -0.01533,-0.00062 -0.023,-0.00112c-0.08405,-0.00561 -0.16311,-0.0275 -0.23432,-0.06241c-0.01027,0.03095 -0.02291,0.06077 -0.03759,0.08927c0.06384,-0.01668 0.13134,-0.02355 0.20077,-0.0189zM336.80376,191.41937c0.02449,0.0123 0.04801,0.02622 0.07048,0.04147c0.00789,-0.02014 0.01676,-0.03979 0.02659,-0.05885c-0.03155,0.00822 -0.06392,0.01408 -0.09708,0.01731zM335.81562,191.80126c0.03344,0.0054 0.06595,0.01337 0.09725,0.02375c0.0028,-0.01099 0.00589,-0.02187 0.00924,-0.0326c-0.00792,-0.00027 -0.01585,-0.0006 -0.02382,-0.00112c-0.0269,-0.0018 -0.05328,-0.00527 -0.07908,-0.01031c-0.00109,0.0068 -0.0023,0.01357 -0.00362,0.02026z" fill="#e93e3e" fill-rule="nonzero" stroke="none" stroke-width="0.5" stroke-linecap="butt" stroke-linejoin="miter"/><path d="M347.51927,191.16028c-0.02311,0.34607 -0.32236,0.6079 -0.6684,0.5848c-0.09158,-0.00609 -0.17725,-0.03154 -0.25333,-0.0721c-0.10998,0.07169 -0.24329,0.10964 -0.38433,0.1002c-0.14454,-0.00961 -0.27434,-0.06745 -0.37487,-0.15673c-0.12275,0.11627 -0.2918,0.18292 -0.47375,0.17075c-0.17064,-0.01137 -0.32076,-0.08992 -0.42636,-0.20807c-0.12016,0.18353 -0.33314,0.29865 -0.5676,0.283c-0.18435,-0.01231 -0.34478,-0.10295 -0.45099,-0.23734c-0.12372,0.1594 -0.32184,0.25641 -0.53832,0.24195c-0.27359,-0.01825 -0.49455,-0.20914 -0.56366,-0.45927c-0.11324,0.07949 -0.25339,0.1222 -0.40217,0.11226c-0.18412,-0.01228 -0.34437,-0.10274 -0.45056,-0.23679c-0.1025,0.23713 -0.34597,0.39558 -0.61844,0.37738c-0.14454,-0.00961 -0.27434,-0.06745 -0.37487,-0.15673c-0.12277,0.11624 -0.2918,0.18292 -0.47375,0.17075c-0.07403,-0.00494 -0.14422,-0.02253 -0.20854,-0.05049c-0.06751,0.01917 -0.13938,0.02728 -0.21341,0.02236c-0.05707,-0.00382 -0.11183,-0.01515 -0.1634,-0.03292c-0.09918,0.05215 -0.21356,0.07841 -0.33359,0.07039c-0.20255,-0.01352 -0.37628,-0.12165 -0.48087,-0.27844c-0.10371,0.05946 -0.22545,0.08999 -0.3537,0.08146c-0.34607,-0.02311 -0.6079,-0.32236 -0.5848,-0.6684c0.02311,-0.34607 0.32236,-0.6079 0.6684,-0.5848c0.20255,0.01352 0.37628,0.12165 0.48087,0.27844c0.10371,-0.05946 0.22545,-0.08999 0.3537,-0.08146c0.05707,0.00382 0.11183,0.01515 0.1634,0.03292c0.09921,-0.05216 0.21356,-0.07841 0.33359,-0.07039c0.07403,0.00494 0.14424,0.0225 0.20854,0.05047c0.06751,-0.01917 0.13935,-0.02726 0.21342,-0.0223c0.14454,0.00961 0.27434,0.06745 0.37487,0.15673c0.12276,-0.11623 0.29178,-0.18286 0.47374,-0.17076c0.18412,0.01228 0.34437,0.10274 0.45056,0.23679c0.10252,-0.23715 0.34597,-0.39558 0.61844,-0.37738c0.2736,0.01828 0.49455,0.20914 0.56366,0.45927c0.11324,-0.07949 0.25339,-0.1222 0.40217,-0.11226c0.18435,0.01231 0.34478,0.10295 0.45099,0.23734c0.12372,-0.1594 0.32184,-0.25641 0.53832,-0.24195c0.17064,0.01137 0.32075,0.08992 0.42636,0.20807c0.12016,-0.18349 0.33314,-0.29865 0.5676,-0.283c0.14454,0.00961 0.27434,0.06745 0.37487,0.15673c0.12276,-0.11623 0.2918,-0.18292 0.47375,-0.17075c0.09158,0.00609 0.17725,0.03154 0.25333,0.0721c0.10998,-0.07169 0.24329,-0.10964 0.38433,-0.1002c0.34607,0.02311 0.6079,0.32236 0.5848,0.6684z" fill="#e93e3e" fill-rule="nonzero" stroke="none" stroke-width="0.5" stroke-linecap="butt" stroke-linejoin="miter"/><path d="M334.58554,191.35045c-0.34607,-0.02311 -0.6079,-0.32236 -0.5848,-0.6684c0.02174,-0.32618 0.28884,-0.5775 0.60924,-0.58599c-0.00154,-0.02623 -0.00149,-0.05284 0.00031,-0.07975c0.02311,-0.34607 0.32236,-0.6079 0.6684,-0.5848c0.13395,0.00896 0.25528,0.05926 0.35235,0.13766c-0.00021,-0.01645 0.00024,-0.03306 0.00138,-0.04978c0.02311,-0.34607 0.32236,-0.6079 0.6684,-0.5848c0.12448,0.0083 0.23804,0.05234 0.33138,0.12142c0.11065,-0.21718 0.34308,-0.35899 0.60168,-0.34172c0.09159,0.00612 0.17728,0.03158 0.25335,0.07215c0.10494,-0.23159 0.34539,-0.38541 0.61405,-0.36746c0.34607,0.02311 0.6079,0.32236 0.5848,0.6684c-0.02311,0.34607 -0.32236,0.6079 -0.6684,0.5848c-0.09159,-0.00612 -0.17728,-0.03158 -0.25335,-0.07215c-0.10494,0.23159 -0.34539,0.38541 -0.61405,0.36746c-0.12448,-0.00831 -0.23804,-0.05234 -0.33138,-0.12142c-0.11065,0.21718 -0.34309,0.35897 -0.60168,0.34172c-0.13395,-0.00896 -0.25528,-0.05926 -0.35235,-0.13766c0.00021,0.01645 -0.00024,0.03306 -0.00138,0.04978c-0.02174,0.32618 -0.28886,0.57748 -0.60925,0.58598c0.00155,0.02626 0.0015,0.05284 -0.00032,0.07975c-0.02311,0.34607 -0.32236,0.6079 -0.6684,0.5848z" fill="#e93e3e" fill-rule="nonzero" stroke="none" stroke-width="0.5" stroke-linecap="butt" stroke-linejoin="miter"/><path d="M349.76775,191.4362c-0.06919,-0.00459 -0.12154,-0.06446 -0.11696,-0.13368c0.00459,-0.06919 0.06446,-0.12154 0.13368,-0.11696c0.06919,0.00459 0.12154,0.06446 0.11696,0.13368c-0.00459,0.06919 -0.06446,0.12154 -0.13368,0.11696z" fill="#a00000" fill-rule="nonzero" stroke="none" stroke-width="0.5" stroke-linecap="butt" stroke-linejoin="miter"/><path d="M349.19382,188.94003c-0.06254,-0.10892 0.04634,-0.17146 0.04634,-0.17146l0.00509,-0.00293c0.14522,-0.08342 0.29044,-0.16682 0.43562,-0.25022c0,0 0.10892,-0.06254 0.17146,0.04634c0.06254,0.10892 -0.04634,0.17146 -0.04634,0.17146c-0.1452,0.0834 -0.2955,0.16975 -0.44074,0.25317c0,0 -0.10892,0.06254 -0.17146,-0.04634z" fill="#a00000" fill-rule="nonzero" stroke="none" stroke-width="0.5" stroke-linecap="butt" stroke-linejoin="miter"/><path d="M350.68671,189.67629c-0.00793,0.11865 -0.06991,0.22077 -0.16033,0.28395c0.09816,0.04957 0.20203,0.15029 0.18843,0.35369c-0.02509,0.37599 -0.40106,0.35089 -0.40106,0.35089l-0.07851,-0.01037c-0.04304,0.00391 -0.08509,0.00875 -0.12634,0.01429c-0.01598,0.04129 -0.03898,0.07894 -0.06747,0.11156c0.03771,0.00671 0.08833,0.03009 0.09838,0.10639c0.00326,0.02487 0.00095,0.04538 -0.00495,0.06235c0.00138,0.00989 0.00183,0.02078 0.00099,0.0327c-0.00838,0.12534 -0.13368,0.11696 -0.13368,0.11696l-0.07033,-0.00468c-0.06231,-0.00648 -0.12523,-0.02209 -0.18525,-0.04576c-0.08129,0.0035 -0.1667,0.00645 -0.25177,0.0109c-0.00049,0.00684 -0.00089,0.01385 -0.00127,0.02101l-0.11765,0.1518c0,0 -0.01496,0.01309 -0.03816,0.02292c0.0013,0.00872 0.00167,0.01774 0.00109,0.02692c-0.00459,0.06919 -0.06446,0.12154 -0.13368,0.11696c-0.0339,-0.00228 -0.06376,-0.01778 -0.08484,-0.04114c-0.00108,0.00475 -0.00241,0.00939 -0.00401,0.01392c0.00635,0.02193 0.00801,0.04851 -0.00428,0.07602c0.00187,0.01003 0.0025,0.02048 0.00178,0.03115c-0.00459,0.06919 -0.06446,0.12154 -0.13368,0.11696c-0.05292,-0.00353 -0.09594,-0.03933 -0.11125,-0.0869c-0.00292,-0.0014 -0.00577,-0.00289 -0.00852,-0.00449c-0.0403,-0.02314 -0.06611,-0.06783 -0.06282,-0.11735c0.00022,-0.0033 0.00054,-0.00656 0.00102,-0.00975c-0.04108,-0.04024 -0.08324,-0.07866 -0.1255,-0.11691c-0.0615,0.02578 -0.12304,0.05158 -0.18456,0.0774c0,0 -0.11583,0.04856 -0.1644,-0.06728c-0.03212,-0.07666 0.00775,-0.12383 0.03835,-0.147c-0.00851,-0.02172 -0.01613,-0.04338 -0.02286,-0.06494c-0.06196,-0.00411 -0.12397,-0.00826 -0.18589,-0.01239l-0.00571,0.08565c0,0 -0.00342,0.05116 -0.03855,0.08592c0.03559,0.00903 0.10093,0.03813 0.09483,0.12978c-0.00838,0.12534 -0.13368,0.11696 -0.13368,0.11696l-0.07033,-0.00468c-0.07033,-0.00468 -0.14062,-0.00938 -0.21098,-0.01408c0,0 -0.12534,-0.00838 -0.11696,-0.13368c0.00838,-0.12534 0.13368,-0.11696 0.13368,-0.11696c0.02971,0.00199 0.07201,0.00481 0.11626,0.00775c-0.02815,-0.03873 -0.02488,-0.08771 -0.02488,-0.08771l0.00421,-0.06292l-0.05565,-0.02548c-0.00015,-0.00034 -0.00031,-0.00076 -0.00046,-0.00107c-0.05623,-0.00376 -0.11242,-0.00752 -0.16871,-0.01126c0,0 -0.12534,-0.00838 -0.11696,-0.13368c0.00838,-0.12534 0.13368,-0.11696 0.13368,-0.11696c0.03103,0.00208 0.0628,0.00418 0.09517,0.00635c0.01127,-0.0203 0.03089,-0.0394 0.06361,-0.05314c0.05083,-0.02133 0.0887,-0.01097 0.1152,0.00734c-0.01833,-0.08912 -0.01032,-0.16119 0.01226,-0.21912c-0.08733,-0.0747 -0.13958,-0.18823 -0.1313,-0.31169c0.01385,-0.20766 0.19342,-0.36476 0.40106,-0.35089c0.10416,0.00697 0.19562,0.05562 0.25918,0.12863c0.00488,-0.00024 0.00982,-0.00021 0.01481,0.00012c0.06919,0.00459 0.12154,0.06446 0.11696,0.13368c-0.00126,0.01882 -0.00661,0.03636 -0.0151,0.05193c0.11244,-0.06985 0.24302,-0.06112 0.24302,-0.06112c0.1654,0.01474 0.3191,0.00044 0.46969,-0.02619c-0.01365,-0.00603 -0.02817,-0.00872 -0.0436,-0.00695c0,0 -0.08529,-0.00568 -0.11042,-0.07802c-0.03195,-0.00211 -0.0639,-0.00425 -0.09585,-0.0064l0.01604,0.03484c0,0 -0.09454,0.08271 -0.17723,-0.01184c-0.08271,-0.09454 0.01184,-0.17723 0.01184,-0.17723l0.1661,-0.09644c0.11722,0.00782 0.23442,0.01565 0.35164,0.02345c0,0 0.12534,0.00838 0.11696,0.13368c-0.00176,0.02648 -0.00878,0.04703 -0.01869,0.06291c0.02017,0.02003 0.03924,0.04134 0.05715,0.06336c0.14057,-0.03319 0.28298,-0.06827 0.43425,-0.09143c-0.07518,-0.07427 -0.11887,-0.17955 -0.11127,-0.29327c0.01385,-0.20766 0.19342,-0.36476 0.40106,-0.35089c0.20766,0.01385 0.36476,0.19342 0.35089,0.40106zM349.00615,191.20426c0.0339,0.00228 0.06376,0.01778 0.08484,0.04114c0.00415,-0.01834 0.01234,-0.03509 0.02343,-0.04932c-0.00325,-0.00553 -0.00608,-0.01134 -0.00845,-0.01736l-0.0302,-0.07206c-0.05554,0.0124 -0.10625,0.02787 -0.15001,0.04746c0.01816,0.0168 0.03627,0.03381 0.05418,0.05109c0.00851,-0.00121 0.01728,-0.00158 0.02625,-0.00097z" fill="#a00000" fill-rule="nonzero" stroke="none" stroke-width="0.5" stroke-linecap="butt" stroke-linejoin="miter"/><path d="M351.56347,189.24026l-0.00491,0.0169c0.01248,0.16566 0.02503,0.33132 0.03748,0.49699c0,0 0.00255,0.03367 -0.00399,0.08162c0.0006,0.0139 0.00047,0.02797 -0.0005,0.04218c-0.01385,0.20766 -0.19342,0.36476 -0.40106,0.35089c-0.20766,-0.01385 -0.36476,-0.19342 -0.35089,-0.40106c0.00076,-0.01121 0.00196,-0.02236 0.00369,-0.03327c-0.01208,-0.1602 -0.02416,-0.3204 -0.03625,-0.48063l0.00446,-0.12375c0,0 0.02509,-0.37599 0.40106,-0.35089c0.37599,0.02509 0.35089,0.40106 0.35089,0.40106z" fill="#a00000" fill-rule="nonzero" stroke="none" stroke-width="0.5" stroke-linecap="butt" stroke-linejoin="miter"/><path d="M357.88433,191.80194c-0.89431,-0.24164 -1.95211,-1.94025 -2.99274,-1.81989c-0.07444,0.08696 -0.20967,0.17899 -0.4195,0.09315c-0.23119,-0.09458 -0.24636,-0.2797 -0.2304,-0.3938c-0.01533,-0.13605 0.03839,-0.22806 0.10298,-0.28838l0.01475,-0.03579c0.81522,-1.69809 1.44631,-3.47847 2.4009,-5.09481c0.24498,-0.41481 0.51709,-1.8765 1.3955,-1.40987c0.34878,0.18527 0.06351,1.91918 0.04218,2.23877c-0.07353,1.10167 -0.13739,2.20444 -0.22059,3.30541c-0.01315,0.17403 -0.03026,0.81178 0.14924,0.94223c0.0875,0.06356 0.86726,-0.26053 0.98535,-0.29887c1.07947,-0.35038 2.19786,-0.05899 3.27736,-0.41709c0.74127,-0.23547 2.89046,-0.08588 1.71942,1.17672c-0.28021,0.30211 -1.23022,0.46838 -1.60432,0.74128c-1.45195,1.05916 -2.54149,1.72665 -4.29706,2.18519c0,0 -0.3646,0.09509 -0.45969,-0.26949c-0.09509,-0.3646 0.26949,-0.45969 0.26949,-0.45969c0.03795,-0.00992 0.07566,-0.0198 0.11308,-0.02979c-0.11244,-0.0164 -0.19575,-0.08036 -0.19575,-0.08036z" fill="#ffffff" fill-rule="nonzero" stroke="none" stroke-width="0.5" stroke-linecap="butt" stroke-linejoin="miter"/><path d="M364.14276,188.43689c0.0077,0.00645 0.01528,0.01295 0.02278,0.01959l-0.12481,0.11492c-0.00021,0.00588 -0.00051,0.0119 -0.00093,0.01793c-0.00561,0.08349 -0.02844,0.1472 -0.06065,0.19581c0.11993,-0.00016 0.24395,0.00426 0.37554,0.0127c0,0 0.37599,0.02509 0.35089,0.40106c-0.02509,0.37599 -0.40106,0.35089 -0.40106,0.35089c-0.0249,-0.00174 -0.04941,-0.00331 -0.07348,-0.0047l-0.49833,0.15357c-0.04226,0.02737 -0.09291,0.04908 -0.15081,0.06528c0.06799,0.0539 0.14241,0.11427 0.22503,0.18162l-0.79351,0.36451c-0.09848,-0.04254 -0.19693,-0.08506 -0.29539,-0.12757c-0.172,0.21808 -0.37442,0.3507 -0.65298,0.27734c-0.31496,-0.08297 -0.51429,-0.39985 -0.77141,-0.59979l0.33498,-0.16268c-0.08104,-0.05663 -0.16202,-0.11329 -0.24301,-0.16991l0.36566,-0.18424c-0.06896,-0.02997 -0.13668,-0.06165 -0.20299,-0.09483l0.67391,-0.51178c0.13811,-0.00446 0.27876,0.02018 0.41322,0.06617c0.18179,-0.21078 0.39497,-0.39661 0.62907,-0.54076l-0.04735,-0.08578c0.07748,-0.01942 0.15861,-0.02575 0.24055,-0.02114c0.0781,-0.03843 0.15797,-0.07217 0.23941,-0.1007l0.44568,0.38254z" fill="#a00000" fill-rule="nonzero" stroke="none" stroke-width="0.5" stroke-linecap="butt" stroke-linejoin="miter"/><path d="M358.35283,184.88969c-0.02509,0.37599 -0.40106,0.35089 -0.40106,0.35089l-0.0567,-0.00575c-0.07465,0.08229 -0.18484,0.13088 -0.30433,0.12295c-0.08264,-0.00549 -0.15725,-0.03726 -0.2163,-0.0866l-0.66005,0.15097c-0.03745,0.00948 -0.07701,0.01332 -0.11767,0.01061c-0.20766,-0.01385 -0.36476,-0.19342 -0.35089,-0.40106c0.01075,-0.16139 0.12161,-0.29222 0.26798,-0.33602l0.21924,-0.07117l-0.10273,-0.06164c0.12089,-0.08846 0.23461,-0.16399 0.34038,-0.22654c-0.02365,-0.05381 -0.0351,-0.11393 -0.03093,-0.17668c0.01075,-0.16139 0.12161,-0.29222 0.26798,-0.33602l0.1712,-0.05556c-0.07497,-0.07425 -0.11852,-0.17941 -0.11093,-0.29291c0.00323,-0.04826 0.01541,-0.09384 0.03481,-0.13509c-0.02212,-0.13366 0.0061,-0.23838 0.13316,-0.2495c-0.00007,-0.00928 0.0002,-0.01855 0.00082,-0.02793c0.01385,-0.20766 0.19342,-0.36476 0.40106,-0.35089c0.02348,0.00158 0.04636,0.00523 0.06838,0.01087l0.28881,0.06819l0.04019,-0.04971c0.01285,0.02298 0.02522,0.04562 0.03716,0.06795l0.03816,0.00902c0.17941,0.03901 0.30801,0.20452 0.29546,0.39323c-0.00559,0.08387 -0.0382,0.15943 -0.0888,0.21889c0.04656,0.23349 0.00235,0.38486 -0.10869,0.45388c-0.02151,0.23692 -0.20995,0.41824 -0.36362,0.61112c0.09798,0.01981 0.32758,0.09814 0.30779,0.3946z" fill="#a00000" fill-rule="nonzero" stroke="none" stroke-width="0.5" stroke-linecap="butt" stroke-linejoin="miter"/><path d="M364.45894,193.58667c-0.20766,-0.01385 -0.36476,-0.19342 -0.35089,-0.40106c0.01385,-0.20766 0.19342,-0.36476 0.40106,-0.35089c0.20766,0.01385 0.36476,0.19342 0.35089,0.40106c-0.01385,0.20766 -0.19342,0.36476 -0.40106,0.35089z" fill="#a00000" fill-rule="nonzero" stroke="none" stroke-width="0.5" stroke-linecap="butt" stroke-linejoin="miter"/><path d="M365.39285,196.76038l-0.10155,-0.24943c-0.2199,-0.38804 -0.38,-0.80956 -0.51877,-1.23342c0,0 -0.11635,-0.3584 0.24204,-0.47475c0.3584,-0.11635 0.47475,0.24204 0.47475,0.24204c0.12077,0.37564 0.25912,0.75042 0.45632,1.0922l0.14222,0.33193c0,0 0.14568,0.34749 -0.2018,0.49319c-0.34749,0.14568 -0.49319,-0.2018 -0.49319,-0.2018z" fill="#a00000" fill-rule="nonzero" stroke="none" stroke-width="0.5" stroke-linecap="butt" stroke-linejoin="miter"/><path d="M365.79963,197.84402c-0.20766,-0.01385 -0.36476,-0.19342 -0.35089,-0.40106c0.01385,-0.20766 0.19342,-0.36476 0.40106,-0.35089c0.20766,0.01385 0.36476,0.19342 0.35089,0.40106c-0.01385,0.20766 -0.19342,0.36476 -0.40106,0.35089z" fill="#a00000" fill-rule="nonzero" stroke="none" stroke-width="0.5" stroke-linecap="butt" stroke-linejoin="miter"/><path d="M365.77142,199.32558c-0.20766,-0.01385 -0.36476,-0.19342 -0.35089,-0.40106c0.01385,-0.20766 0.19342,-0.36476 0.40106,-0.35089c0.20766,0.01385 0.36476,0.19342 0.35089,0.40106c-0.01385,0.20766 -0.19342,0.36476 -0.40106,0.35089z" fill="#a00000" fill-rule="nonzero" stroke="none" stroke-width="0.5" stroke-linecap="butt" stroke-linejoin="miter"/><path d="M363.61977,192.40037c-0.20766,-0.01385 -0.36476,-0.19342 -0.35089,-0.40106c0.01385,-0.20766 0.19342,-0.36476 0.40106,-0.35089c0.20766,0.01385 0.36476,0.19342 0.35089,0.40106c-0.01385,0.20766 -0.19342,0.36476 -0.40106,0.35089z" fill="#a00000" fill-rule="nonzero" stroke="none" stroke-width="0.5" stroke-linecap="butt" stroke-linejoin="miter"/><path d="M359.81307,185.92989c-0.20766,-0.01385 -0.36476,-0.19342 -0.35089,-0.40106c0.01385,-0.20766 0.19342,-0.36476 0.40106,-0.35089c0.20766,0.01385 0.36476,0.19342 0.35089,0.40106c-0.01385,0.20766 -0.19342,0.36476 -0.40106,0.35089z" fill="#a00000" fill-rule="nonzero" stroke="none" stroke-width="0.5" stroke-linecap="butt" stroke-linejoin="miter"/><path d="M360.87262,186.98963c-0.20766,-0.01385 -0.36476,-0.19342 -0.35089,-0.40106c0.01385,-0.20766 0.19342,-0.36476 0.40106,-0.35089c0.20766,0.01385 0.36476,0.19342 0.35089,0.40106c-0.01385,0.20766 -0.19342,0.36476 -0.40106,0.35089z" fill="#a00000" fill-rule="nonzero" stroke="none" stroke-width="0.5" stroke-linecap="butt" stroke-linejoin="miter"/><path d="M361.70716,188.24622c-0.20766,-0.01385 -0.36476,-0.19342 -0.35089,-0.40106c0.01385,-0.20766 0.19342,-0.36476 0.40106,-0.35089c0.20766,0.01385 0.36476,0.19342 0.35089,0.40106c-0.01385,0.20766 -0.19342,0.36476 -0.40106,0.35089z" fill="#a00000" fill-rule="nonzero" stroke="none" stroke-width="0.5" stroke-linecap="butt" stroke-linejoin="miter"/><path d="M344.92116,158.94603c0.02316,-0.34714 0.18528,-0.65187 0.42842,-0.86362c-0.09415,-0.25926 -0.10013,-0.58745 0.10764,-0.98187c0.33142,-0.62911 0.83134,-0.71443 1.2028,-0.67006c0.17184,-0.47608 0.62103,-0.81237 1.14138,-0.82838l1.35891,-0.05986l0.00821,0.186l0.42462,-0.12911c1.92555,1.39928 5.42034,4.37017 0.7249,5.26063c-0.16154,0.03066 -0.31718,0.04565 -0.46759,0.04707c-0.24402,0.22291 -0.57507,0.34968 -0.93085,0.32596c-0.63744,-0.04254 -1.13196,-0.55356 -1.17005,-1.17472c-0.16703,-0.12437 -0.33185,-0.25441 -0.49663,-0.38418c-0.23451,0.39192 -0.67514,0.64152 -1.16216,0.60903c-0.69216,-0.0462 -1.21577,-0.6447 -1.1696,-1.33686z" fill="#ffffff" fill-rule="nonzero" stroke="none" stroke-width="0.5" stroke-linecap="butt" stroke-linejoin="miter"/><path d="M350.33394,162.84935c-0.6515,-0.04348 -1.15374,-0.57634 -1.17191,-1.21599c-0.13426,0.03783 -0.27719,0.05378 -0.42433,0.04396c-0.52596,-0.03511 -0.95461,-0.3891 -1.10983,-0.86078c-0.25655,-0.07066 -0.47844,-0.21996 -0.6401,-0.41885c-0.2194,0.1421 -0.48485,0.21716 -0.76571,0.19845c-0.69216,-0.0462 -1.21577,-0.6447 -1.1696,-1.33686c0.0462,-0.69216 0.6447,-1.21577 1.33686,-1.1696c0.36252,0.0242 0.67881,0.1999 0.89123,0.46124c0.2194,-0.1421 0.48485,-0.21716 0.76571,-0.19845c0.52596,0.03511 0.95461,0.3891 1.10983,0.86078c0.52534,0.14465 0.90501,0.619 0.9208,1.17362c0.13426,-0.03783 0.27719,-0.05378 0.42433,-0.04396c0.69216,0.0462 1.21577,0.6447 1.1696,1.33686c-0.0462,0.69216 -0.6447,1.21577 -1.33686,1.1696z" fill="#a00000" fill-rule="nonzero" stroke="none" stroke-width="0.5" stroke-linecap="butt" stroke-linejoin="miter"/></g></g></g></svg>