<svg version="1.1" xmlns="http://www.w3.org/2000/svg" xmlns:xlink="http://www.w3.org/1999/xlink" width="124.55391" height="134.31345" viewBox="0,0,124.55391,134.31345"><g transform="translate(-288.77566,-103.87805)"><g data-paper-data="{&quot;isPaintingLayer&quot;:true}" stroke-miterlimit="10" stroke-dasharray="" stroke-dashoffset="0" style="mix-blend-mode: normal"><path d="M295.30339,162.25758c5.00544,-0.34551 9.57986,6.86017 10.21726,16.09433c0.1479,2.14266 0.07083,4.20627 -0.1973,6.11646c-0.55441,0.33583 -1.01824,0.80158 -1.35216,1.35212c-0.97459,0.79304 -1.56146,2.03173 -1.46835,3.38052c0.05296,0.76724 0.31896,1.46897 0.73623,2.05139c-1.41258,2.62592 -3.37124,4.28929 -5.62745,4.44503c-5.00544,0.34551 -6.91933,-3.5246 -8.64224,-17.90289c-0.89522,-7.4709 1.32857,-15.19145 6.33401,-15.53696z" fill="#de6697" fill-rule="nonzero" stroke="none" stroke-width="NaN" stroke-linecap="butt" stroke-linejoin="miter"/><g fill-rule="evenodd"><path d="M348.35501,194.83766c0.34396,-0.82565 1.12476,-2.58359 4.68196,-0.42342c3.5572,2.16017 4.73069,8.99559 4.78578,9.79369c0.27687,2.72749 0.51346,6.00596 -0.20011,9.69054c-0.68861,-0.95293 -1.63393,-1.74089 -2.85952,-2.25147c-1.14049,-0.47513 -2.59241,-1.0047 -4.14001,-1.40955c0.6642,-1.6576 0.9659,-3.33097 1.16921,-4.81135c0.36444,-3.43325 -3.87414,-9.65614 -3.43731,-10.58843z" fill="#ffab19" stroke="#001026" stroke-width="1.2" stroke-linecap="round" stroke-linejoin="round"/><path d="" fill="#ffffff" stroke="none" stroke-width="1" stroke-linecap="butt" stroke-linejoin="miter"/></g><path d="M361.77771,185.49954c1.3211,1.71309 6.13761,7.59538 9.17569,15.30447l0.12731,0.39216c0.12731,0.39216 0.63989,0.55726 1.02517,0.33019c2.27724,-1.86123 6.85237,-5.28442 8.92708,0.08546c2.06094,5.17035 -11.32385,16.01781 -15.30429,12.08257c-1.52752,-1.79908 -0.94624,-3.54325 -0.60917,-4.46866c0.16509,-0.51259 0.13066,-1.0114 -0.00353,-1.50333c-0.48169,-1.16961 -1.43128,-3.30929 -2.44621,-4.94328c-2.49089,-4.13829 -3.45761,-5.07394 -5.09178,-6.9659c-1.13255,-1.31121 -3.40527,-3.79548 -3.71595,-6.49915c1.32436,-1.25428 2.16881,-2.99729 2.25963,-4.91478c2.19185,-1.58429 4.55573,-0.2505 5.65605,1.10024z" fill="#ffab19" fill-rule="evenodd" stroke="#001026" stroke-width="1.2" stroke-linecap="round" stroke-linejoin="round"/><path d="M340.6739,171.26126c0.36462,-0.52636 7.12747,-7.10769 5.19401,-8.97899c-2.26028,-2.24969 -6.5778,-5.25952 -3.53354,-9.07822c3.04426,-3.8187 9.09923,2.57953 10.79537,5.36935c3.56779,6.67015 -1.93257,12.66314 -3.44614,13.97047c-1.51357,1.30733 -4.06255,3.58828 -6.65637,3.76732c-2.80024,0.09305 -3.73271,-3.25067 -2.35334,-5.04993z" fill="#ffab19" fill-rule="evenodd" stroke="#001026" stroke-width="1.2" stroke-linecap="round" stroke-linejoin="round"/><g><path d="M363.9117,169.557c1.75088,-2.22585 5.32485,-7.0835 5.32485,-7.0835c0,0 -3.4788,-14.0939 3.70411,-14.58971c4.28979,-0.29611 5.78323,6.81794 5.55333,16.55689c-0.05845,0.60546 -0.21665,1.21781 -0.58127,1.74417c-1.74399,2.32562 -6.89686,8.99629 -10.51216,13.25536c-5.37994,6.2854 -8.8335,11.43544 -8.8335,11.43544c-7.69497,9.05138 -11.66181,2.40878 -16.63634,0.04573c-4.26242,-2.21173 -3.54007,-3.36421 -2.7561,-9.4326c0.26468,-3.42636 0.42624,-5.44227 0.17498,-7.63016c-0.32701,-3.28528 4.50291,-3.01724 7.05896,-2.29154c0,0 3.78762,1.14189 5.77264,2.30796c2.40472,1.43782 3.98379,2.53168 4.96429,3.66685zM356.11231,183.54794c-0.27573,-3.99456 -3.73749,-7.00927 -7.73204,-6.73354c-3.99456,0.27573 -7.00927,3.73749 -6.73354,7.73204c0.27573,3.99456 3.73749,7.00927 7.73204,6.73354c3.99456,-0.27573 7.00927,-3.73749 6.73354,-7.73204z" fill="#ffab19" fill-rule="evenodd" stroke="#001026" stroke-width="1.2" stroke-linecap="round" stroke-linejoin="round"/><path d="M349.38221,191.32986c-3.99456,0.27573 -7.50964,-2.78541 -7.78537,-6.77997c-0.27573,-3.99456 2.78542,-7.50964 6.77997,-7.78537c3.99456,-0.27573 7.50964,2.78542 7.78537,6.77997c0.27573,3.99456 -2.78541,7.50964 -6.77997,7.78537z" data-paper-data="{&quot;noHover&quot;:false,&quot;origItem&quot;:[&quot;Path&quot;,{&quot;applyMatrix&quot;:true,&quot;segments&quot;:[[[464.55872,410.51134],[-8.00813,0],[8.00813,0]],[[479.05872,396.01134],[0,8.00813],[0,-8.00813]],[[464.55872,381.51134],[8.00813,0],[-8.00813,0]],[[450.05872,396.01134],[0,-8.00813],[0,8.00813]]],&quot;closed&quot;:true,&quot;fillColor&quot;:[1,1,1]}]}" fill="#a00000" fill-rule="nonzero" stroke="none" stroke-width="0.5" stroke-linecap="butt" stroke-linejoin="miter"/><path d="M357.10771,178.44664c0,0 -0.72549,1.04732 -1.74358,2.35406c-1.27117,-2.53646 -3.97652,-4.19388 -6.98386,-3.9863c-1.54703,0.10679 -2.94709,0.69144 -4.06597,1.59984c0.1371,-0.60731 0.40141,-1.28518 0.82173,-2.04813c2.39748,-4.47572 5.02239,-2.75239 5.02239,-2.75239c4.64082,1.8849 6.9493,4.83293 6.9493,4.83293z" fill="#ffffff" fill-rule="evenodd" stroke="none" stroke-width="1" stroke-linecap="butt" stroke-linejoin="miter"/></g><path d="M302.01036,154.63885c5.26658,-3.57115 9.74902,-3.98079 9.74902,-3.98079c0,0 1.60609,-7.22776 7.20993,-8.81742c5.60383,-1.58967 16.68119,2.05617 21.66702,20.55675c1.72689,6.40787 2.37003,12.44564 2.02074,17.92786c-0.73579,1.22767 -1.11636,2.68503 -1.01033,4.22118c0.03496,0.50642 0.12112,0.99711 0.25309,1.46734c-1.60565,7.72824 -5.45076,14.00449 -11.20974,18.16773c-10.29929,7.44548 -23.6923,-1.32105 -24.39033,-1.82395l-8.20701,1.54182c-0.69111,-2.50157 -1.76899,-5.33027 -2.25222,-6.08512c-0.65506,-1.02328 -1.66044,-1.57599 -2.78122,-1.87861l2.02841,-3.63067c0,0 -0.12891,-0.28099 -0.3299,-0.77668c2.47585,0.28119 4.95252,-0.97982 6.35646,-3.43704c0.9009,-1.57678 0.72109,-3.31103 -0.0883,-4.88144c2.10084,-2.16509 3.75263,-5.27534 3.76845,-7.28999c0.03869,-4.92562 -5.24308,-4.99409 -7.06717,-7.39741c-0.47653,-0.62785 -0.30933,-2.56885 -0.64281,-3.37858c-0.42718,-1.03725 -1.10719,-1.86292 -1.91097,-2.54629c1.26471,-1.88666 4.37922,-6.30841 6.83689,-7.95867zM303.97119,186.05341c-0.97459,0.79304 -1.56146,2.03173 -1.46835,3.38052c0.04175,0.60478 0.21586,1.16886 0.4921,1.66588c0.42606,0.7666 1.09506,1.37367 1.896,1.72457c0.75432,1.22823 2.14883,2.00575 3.68641,1.89961c1.22247,-0.08438 2.2786,-0.7096 2.95085,-1.62583c0.15941,-0.09751 0.31128,-0.20577 0.45464,-0.32374c0.11394,0.00184 0.2289,-0.00115 0.34468,-0.00914c1.42935,-0.09866 2.63131,-0.93671 3.25811,-2.1148c0.27659,0.01519 0.59193,-0.01842 0.95873,-0.11895c5.43515,-1.48966 5.65887,-11.1815 -0.55945,-11.62295c-1.63058,-0.11576 -5.96803,1.688 -8.17192,3.19361c-0.2207,0.13387 -0.42701,0.28832 -0.61648,0.46053c-0.20594,0.17147 -0.37332,0.33519 -0.4936,0.48727c-0.33119,0.41873 -0.54949,0.86213 -0.67058,1.3126c-0.87004,0.31424 -1.59317,0.91928 -2.06114,1.69083zM306.29974,202.35755l0.00676,-0.00127c-0.0451,-0.02919 -0.04639,-0.02728 -0.00676,0.00127z" fill="#ffab19" fill-rule="nonzero" stroke="#001026" stroke-width="1.2" stroke-linecap="butt" stroke-linejoin="miter"/><path d="M336.52414,160.01193c0.39544,-0.06026 0.75227,0.28997 0.71368,0.70047c-0.40575,1.98378 -1.17391,7.5632 -0.66536,13.55498c0.517,5.38356 1.2957,8.50184 1.81828,9.93951c0.17419,0.47922 -0.25984,0.94999 -0.78426,0.82761c-2.80477,-0.48293 -10.79168,-3.10959 -11.7805,-13.58013c-0.38245,-9.14679 5.8089,-11.00076 10.69816,-11.44243z" fill="#ffffff" fill-rule="evenodd" stroke="#001026" stroke-width="1.2" stroke-linecap="round" stroke-linejoin="round"/><path d="M312.0094,132.49774c4.11463,4.42717 4.71021,11.60319 4.71021,11.60319" fill="#000000" fill-rule="evenodd" stroke="#001026" stroke-width="1.2" stroke-linecap="round" stroke-linejoin="round"/><path d="M323.27233,133.02338c0.93265,6.25061 -0.69428,10.27219 -0.69428,10.27219" fill="#000000" fill-rule="evenodd" stroke="#001026" stroke-width="1.2" stroke-linecap="round" stroke-linejoin="round"/><path d="M315.6374,167.6313c-0.14461,-2.09501 -0.09658,-4.30356 0.59487,-4.45153c1.38979,-0.19617 4.28644,1.10745 4.49638,2.69677c0.32348,1.78195 -1.88137,6.14414 -3.47757,6.25432c-1.19027,0.1824 -1.47596,-2.50431 -1.61368,-4.49956z" fill="#000000" fill-rule="evenodd" stroke="#001026" stroke-width="1.2" stroke-linecap="round" stroke-linejoin="round"/><path d="M317.23977,212.62777c0,0 2.20114,-8.7724 5.05276,-12.47757" fill="#000000" fill-rule="evenodd" stroke="#001026" stroke-width="1.2" stroke-linecap="round" stroke-linejoin="round"/><path d="M325.76356,199.6099c1.99207,4.17273 1.40427,11.63091 1.40427,11.63091" fill="#000000" fill-rule="evenodd" stroke="#001026" stroke-width="1.2" stroke-linecap="round" stroke-linejoin="round"/><g stroke-linecap="butt" stroke-linejoin="miter"><path d="M307.65374,181.21332c4.18297,-3.29587 9.58392,-3.46821 11.66534,-0.90545c0.22192,0.33049 0.40868,0.67546 0.56043,1.03204c-0.73847,-1.33021 -2.02553,-2.29863 -3.8946,-2.43132c-1.63058,-0.11576 -5.96803,1.688 -8.17192,3.19361c-0.2207,0.13387 -0.42701,0.28832 -0.61648,0.46053c-0.20594,0.17147 -0.37332,0.33519 -0.4936,0.48727c-0.33119,0.41873 -0.54949,0.86213 -0.67058,1.3126c-0.87004,0.31424 -1.59317,0.91928 -2.06114,1.69083c-0.22987,0.18705 -0.43818,0.3989 -0.62108,0.63114c0.75733,-1.92602 2.28436,-3.88019 4.30364,-5.47123z" fill="#ffffff" fill-rule="nonzero" stroke="#001026" stroke-width="1.2"/><path d="M316.16516,191.25103c-1.68648,1.3713 -3.61704,2.28537 -5.47812,2.69415c0.32148,-0.23922 0.60499,-0.52516 0.84115,-0.84702c0.15941,-0.09751 0.31128,-0.20577 0.45464,-0.32374c0.11394,0.00184 0.2289,-0.00115 0.34468,-0.00914c1.42935,-0.09866 2.63131,-0.93671 3.25811,-2.1148c0.27659,0.01519 0.59193,-0.01842 0.95873,-0.11895c0.26266,-0.07199 0.51314,-0.16313 0.75132,-0.27146c-0.34766,0.34 -0.72453,0.6711 -1.13051,0.99096z" fill="#ffffff" fill-rule="nonzero" stroke="#001026" stroke-width="1.2"/><path d="M305.41942,193.50694c-0.58445,-0.30072 -1.09633,-0.7026 -1.51129,-1.20938c-0.0868,-0.10154 -0.1681,-0.20539 -0.24403,-0.31139c0.3516,0.3515 0.76753,0.63697 1.22683,0.83821c0.15164,0.24691 0.32914,0.4756 0.52849,0.68257z" fill="#ffffff" fill-rule="nonzero" stroke="#001026" stroke-width="1.2"/><path d="" fill="#000000" fill-rule="evenodd" stroke="none" stroke-width="1"/><path d="" fill="#000000" fill-rule="evenodd" stroke="none" stroke-width="1"/></g><path d="M345.6339,191.55628c-2.06891,0.14281 -3.85066,-1.2563 -3.97965,-3.12499c-0.04524,-0.65535 0.11881,-1.28144 0.44016,-1.82433c0.85146,2.25961 2.79057,3.95705 5.14099,4.50332c-0.47666,0.24787 -1.01943,0.40581 -1.6015,0.44599z" fill="#a00000" fill-rule="nonzero" stroke="#001026" stroke-width="1.2" stroke-linecap="butt" stroke-linejoin="miter"/><path d="" fill="#ffffff" fill-rule="nonzero" stroke="none" stroke-width="0.5" stroke-linecap="butt" stroke-linejoin="miter"/><path d="M343.58161,198.53991c-0.74822,0.05165 -0.79987,-0.69657 -0.79987,-0.69657c-0.02224,-0.32224 -0.1279,-1.85291 -0.15014,-2.17515c0,0 -0.00311,-0.045 0.00324,-0.11369c-0.01014,-0.04133 -0.01689,-0.08409 -0.01992,-0.12799c-0.02852,-0.41323 0.28335,-0.77134 0.69657,-0.79987c0.41323,-0.02852 0.77134,0.28335 0.79987,0.69657c0.00303,0.04391 0.00222,0.08718 -0.00215,0.12952c0.01572,0.06717 0.01883,0.11217 0.01883,0.11217c0.02224,0.32224 0.04449,0.64449 0.06673,0.96673l0.08341,1.20841c0,0 0.05165,0.74822 -0.69657,0.79987z" fill="#326717" fill-rule="nonzero" stroke="none" stroke-width="0.5" stroke-linecap="butt" stroke-linejoin="miter"/><path d="M342.97334,200.28175c-0.41323,0.02852 -0.77134,-0.28335 -0.79987,-0.69657c-0.02852,-0.41323 0.28335,-0.77134 0.69657,-0.79987c0.41323,-0.02852 0.77134,0.28335 0.79987,0.69657c0.02852,0.41323 -0.28335,0.77134 -0.69657,0.79987z" fill="#326717" fill-rule="nonzero" stroke="none" stroke-width="0.5" stroke-linecap="butt" stroke-linejoin="miter"/><path d="M341.874,212.49939c-0.74822,0.05165 -0.79987,-0.69657 -0.79987,-0.69657l-0.06353,-0.9204c-0.09531,-1.42902 0.05696,-2.74772 -0.04512,-4.17165c0,0 -0.02422,-0.35086 0.20077,-0.58863c-0.10978,-0.37202 0.17349,-0.6973 0.17349,-0.6973l0.05218,0.10282c0.17404,-0.97827 0.34807,-1.95653 0.52211,-2.9348c0.015,-0.09647 0.04854,-0.18732 0.09708,-0.26849c0.10685,-0.1957 0.32455,-0.42327 0.74908,-0.35835c0.0189,0.00265 0.03758,0.00602 0.05603,0.01006c0.41804,0.08633 0.54334,0.37396 0.57607,0.59389c0.00532,0.02848 0.00907,0.05756 0.01111,0.08717c0.00472,0.06845 0.00011,0.13539 -0.01276,0.19957c-0.17397,0.9779 -0.34795,1.95579 -0.52192,2.93369l-0.39782,0.61956c0,0 -0.01386,0.01591 -0.03958,0.04006c0.02602,0.09146 0.03058,0.15747 0.03058,0.15747c0.09514,1.42803 -0.05693,2.74643 0.04512,4.17165l0.06353,0.9204c0,0 0.05165,0.74822 -0.69657,0.79987z" fill="#326717" fill-rule="nonzero" stroke="none" stroke-width="0.5" stroke-linecap="butt" stroke-linejoin="miter"/><path d="M345.89878,203.96518c-0.74822,0.05165 -0.79987,-0.69657 -0.79987,-0.69657l-0.06743,-1.05854c0.00131,-0.00736 0.00261,-0.01472 0.0039,-0.02209c-0.01012,-0.04126 -0.01685,-0.08395 -0.01988,-0.12778c-0.01047,-0.15171 0.02494,-0.29598 0.09438,-0.41924c0.05049,-0.50822 0.05146,-1.0229 0.01383,-1.53091c0,0 -0.05165,-0.74822 0.69657,-0.79987c0.74822,-0.05165 0.79987,0.69657 0.79987,0.69657c0.04918,0.76023 0.0426,1.53361 -0.09084,2.28365l0.06603,0.87493c0,0 0.05165,0.74822 -0.69657,0.79987z" fill="#326717" fill-rule="nonzero" stroke="none" stroke-width="0.5" stroke-linecap="butt" stroke-linejoin="miter"/><path d="M345.99845,198.37309c-0.41323,0.02852 -0.77134,-0.28335 -0.79987,-0.69657c-0.02852,-0.41323 0.28335,-0.77134 0.69657,-0.79987c0.41323,-0.02852 0.77134,0.28335 0.79987,0.69657c0.02852,0.41323 -0.28335,0.77134 -0.69657,0.79987z" fill="#326717" fill-rule="nonzero" stroke="none" stroke-width="0.5" stroke-linecap="butt" stroke-linejoin="miter"/><path d="M345.51594,212.49084c-0.74822,0.05165 -0.79987,-0.69657 -0.79987,-0.69657l-0.08341,-1.20841c-0.12188,-1.78165 -0.00132,-3.55121 -0.12533,-5.33372c0,0 -0.05165,-0.74822 0.69657,-0.79987c0.74822,-0.05165 0.79987,0.69657 0.79987,0.69657c0.12214,1.78292 0.00123,3.55289 0.12533,5.33372l0.08341,1.20841c0,0 0.05165,0.74822 -0.69657,0.79987z" fill="#326717" fill-rule="nonzero" stroke="none" stroke-width="0.5" stroke-linecap="butt" stroke-linejoin="miter"/><path d="M328.11814,165.70765c-0.9305,0.68829 -1.06263,1.60646 -1.07318,2.60062c1.26638,-0.03472 2.51534,0.03613 3.76676,0.1028c0.21549,-1.46935 0.71976,-2.96775 1.42301,-4.34148c-0.88615,-0.04695 -1.77435,-0.09719 -2.70627,-0.03287c0,0 -0.21903,0.01512 -0.42826,-0.08951c-0.13469,0.5921 -0.23389,1.13884 -0.98207,1.76045zM327.03423,169.86266c-0.10304,1.72053 -0.1789,3.20703 -0.07896,4.59963c0.18146,-0.10796 0.37046,-0.12101 0.37046,-0.12101c1.68439,-0.11627 3.84884,0.51989 5.60369,0.58553c-0.65665,-1.40424 -1.21675,-2.86139 -2.20317,-4.22165c-0.02225,-0.26595 -0.03226,-0.53593 -0.03066,-0.80887c-1.21579,-0.06485 -2.42942,-0.12777 -3.65828,-0.08822c-0.00096,0.0182 -0.00198,0.03639 -0.00307,0.05459zM336.8695,178.58049c-0.57914,-1.01316 -0.5596,-1.95836 -0.46083,-2.87699c-0.00262,0.00024 -0.00399,0.00034 -0.00399,0.00034l-0.31869,-0.10426c-0.35174,0.27125 -0.72858,0.46016 -1.12534,0.58634c0.03918,0.1992 0.06707,0.38691 0.08223,0.55999c0.10421,1.19041 -0.59925,2.4634 -0.33208,3.64217c0.79606,-0.05495 1.59211,-0.1099 2.38817,-0.16485c-0.00318,-0.55819 -0.05607,-1.11108 -0.22948,-1.64274zM336.52951,173.50919c-0.01091,0.00109 -0.022,0.00203 -0.03329,0.00281c-0.74822,0.05165 -0.79987,-0.69657 -0.79987,-0.69657l0.0044,-0.47713c0.02336,-0.09242 0.07751,-0.31531 0.14917,-0.60845c-0.29571,-0.53006 -0.57905,-1.04816 -0.61493,-1.77338c-1.05073,0.07012 -2.0847,0.05367 -3.11231,0.01072c0.00095,0.06884 0.00289,0.13734 0.00584,0.20547c0.86779,1.01798 1.84856,2.90827 2.42604,4.56696c0.22592,-0.07943 0.43239,-0.18673 0.61539,-0.32787l1.13141,-0.20436c0,0 0.11327,-0.00782 0.25472,0.0267c0.00889,-0.24168 0.00334,-0.48304 -0.0266,-0.7249zM338.94779,183.97096c0.42109,0.36178 1.02064,0.56562 0.78055,1.43755c-0.27112,0.98458 -2.40177,0.96532 -2.95182,0.94468c-1.60266,-0.06012 -4.88694,-1.26995 -6.24779,-2.09966c-1.11969,-0.68268 -0.93568,-1.36973 -1.96837,-1.91473c-3.30933,-4.1669 -3.27795,-7.54372 -3.02397,-12.55647c0.00598,-0.11801 0.01077,-0.23484 0.01482,-0.35051c-0.03355,-0.07853 -0.05651,-0.17184 -0.06416,-0.28272c-0.0127,-0.18401 0.02297,-0.3259 0.08401,-0.43524c0.04202,-1.61834 0.12522,-2.9981 1.63107,-4.19403c1.2424,-0.8365 0.49346,-2.49916 2.06636,-3.36148c0.62608,-0.34324 1.39421,-0.30996 2.09588,-0.44207c1.4058,-0.26467 4.02349,-2.49396 5.67201,-1.15237c0.48823,0.39732 0.4225,2.34954 0.63379,2.94118c0.58858,1.64809 1.33379,2.69956 0.82933,4.65206c0.37904,5.49123 0.13146,11.185 0.4483,16.81382zM335.55744,161.88168c0.28127,0.02041 0.52373,0.19761 0.633,0.44946c-0.02198,-0.31833 -0.04285,-0.6886 -0.06424,-0.99667c-0.19251,0.16934 -0.38245,0.35229 -0.56877,0.54723zM335.55675,181.83324c0.43779,0.46061 0.97294,0.8571 1.48063,1.27308c-0.03795,-0.44563 -0.02345,-0.90728 0.001,-1.37535c-0.48026,0.03315 -0.97751,0.06747 -1.48163,0.10227z" fill="#000000" fill-rule="nonzero" stroke="none" stroke-width="0.5" stroke-linecap="butt" stroke-linejoin="miter"/><path d="M330.23887,150.51508c0.38081,0.64613 -0.26532,1.02694 -0.26532,1.02694l-0.79585,0.37714c-2.14725,0.12362 -4.13062,1.73618 -6.21316,2.34938c-0.97543,0.28721 -2.42161,0.11812 -3.33112,0.46268c-1.85541,0.70293 -3.40664,2.62562 -5.11353,1.95881c0,0 -0.6512,-0.37206 -0.27914,-1.02327c0.37206,-0.65121 1.02327,-0.27914 1.02327,-0.27914c0.02896,0.04927 2.85776,-1.71592 3.83689,-2.05869c1.02464,-0.3587 2.32652,-0.16781 3.40266,-0.4878c2.24129,-0.66644 4.23765,-2.23649 6.57084,-2.41841l0.13753,-0.17296c0,0 0.64613,-0.38081 1.02694,0.26532z" fill="#a00000" fill-rule="nonzero" stroke="none" stroke-width="0.5" stroke-linecap="butt" stroke-linejoin="miter"/><path d="M332.64758,153.74852c0.38081,0.64613 -0.26532,1.02694 -0.26532,1.02694l-0.79585,0.37714c-1.88339,0.04923 -3.47352,1.38309 -5.23481,2.03121c-3.24302,1.19338 -6.74696,1.7446 -10.07865,2.65376c0,0 -0.72357,0.19739 -0.92095,-0.52618c-0.19738,-0.72356 0.52618,-0.92094 0.52618,-0.92094c3.30113,-0.90025 6.72947,-1.47088 9.95585,-2.61452c1.96871,-0.69784 3.54593,-1.91716 5.64908,-2.11977l0.13752,-0.17295c0,0 0.64613,-0.38081 1.02694,0.26532z" fill="#a00000" fill-rule="nonzero" stroke="none" stroke-width="0.5" stroke-linecap="butt" stroke-linejoin="miter"/><g fill-rule="evenodd"><path d="M297.33542,131.50348c4.18297,-3.29587 9.58392,-3.46821 11.66534,-0.90545c2.12274,3.16133 1.02905,7.64729 -3.15391,10.94316c-4.17608,3.39564 -9.84878,3.98768 -12.25703,1.04653c-2.50801,-2.93426 -0.43736,-7.78837 3.7456,-11.08424z" fill="#ffffff" stroke="#001026" stroke-width="1.2" stroke-linecap="round" stroke-linejoin="round"/><path d="M303.16297,131.70266c1.09739,-0.07575 2.05034,0.66038 2.1192,1.658c0.06886,0.99763 -0.77391,1.8577 -1.8713,1.93345c-1.09739,0.07575 -2.05034,-0.66038 -2.1192,-1.658c0.0309,-1.00451 0.77391,-1.8577 1.8713,-1.93345" fill="#000000" stroke="none" stroke-width="1" stroke-linecap="butt" stroke-linejoin="miter"/></g><path d="M316.77932,190.63908c0,0 0.2856,0.69349 -0.40789,0.97909c-0.69349,0.2856 -0.97909,-0.40789 -0.97909,-0.40789c-0.02003,-0.04863 -0.04034,-0.09693 -0.06089,-0.14495c0.09285,-0.13276 0.17778,-0.27129 0.25417,-0.41486c0.27659,0.01519 0.59193,-0.01842 0.95873,-0.11895c0.05657,-0.0155 0.11258,-0.0319 0.16801,-0.04917c0.02306,0.05218 0.04541,0.10442 0.06695,0.15672z" fill="#a00000" fill-rule="nonzero" stroke="none" stroke-width="0.5" stroke-linecap="butt" stroke-linejoin="miter"/><path d="" fill="#a00000" fill-rule="nonzero" stroke="none" stroke-width="0.5" stroke-linecap="butt" stroke-linejoin="miter"/><path d="M320.31143,181.11651c0.56559,0.49255 0.07304,1.05814 0.07304,1.05814c-0.03078,0.03522 -0.06148,0.07014 -0.0921,0.10475c-0.16106,-0.47744 -0.37935,-0.92781 -0.65603,-1.3348c0.18585,-0.05693 0.42323,-0.04743 0.67508,0.17191z" fill="#a00000" fill-rule="nonzero" stroke="none" stroke-width="0.5" stroke-linecap="butt" stroke-linejoin="miter"/><path d="" fill="#a00000" fill-rule="nonzero" stroke="none" stroke-width="0.5" stroke-linecap="butt" stroke-linejoin="miter"/><path d="M311.82552,193.40511c-0.22417,0.07277 -0.40076,0.05223 -0.53755,-0.01017c0.0847,-0.09504 0.16488,-0.19409 0.24023,-0.2968c0.15941,-0.09751 0.31128,-0.20577 0.45464,-0.32374c0.11394,0.00184 0.2289,-0.00115 0.34468,-0.00914c0.00484,-0.00033 0.00969,-0.00068 0.01452,-0.00102c-0.01132,0.22325 -0.11196,0.50953 -0.51652,0.64086z" fill="#a00000" fill-rule="nonzero" stroke="none" stroke-width="0.5" stroke-linecap="butt" stroke-linejoin="miter"/><path d="M305.88273,184.42005c-0.66513,0.27106 -1.23705,0.71468 -1.66439,1.27189c-0.30019,-0.28322 -0.18485,-0.72962 -0.18485,-0.72962c0.57847,-2.17015 1.84685,-2.56173 3.54732,-2.70803c-0.13459,0.09501 -0.2629,0.19807 -0.3843,0.30841c-0.20594,0.17147 -0.37332,0.33519 -0.4936,0.48727c-0.28948,0.36598 -0.49271,0.75082 -0.62016,1.14275c-0.07103,0.06662 -0.13778,0.142 -0.20001,0.22733z" fill="#a00000" fill-rule="nonzero" stroke="none" stroke-width="0.5" stroke-linecap="butt" stroke-linejoin="miter"/><path d="" fill="#a00000" fill-rule="nonzero" stroke="none" stroke-width="0.5" stroke-linecap="butt" stroke-linejoin="miter"/><path d="M304.1534,192.40278c-0.13813,-0.0597 -0.23198,-0.14314 -0.29502,-0.23481c0.09458,0.0828 0.19303,0.16117 0.29502,0.23481z" fill="#a00000" fill-rule="nonzero" stroke="none" stroke-width="0.5" stroke-linecap="butt" stroke-linejoin="miter"/><path d="M304.9361,135.74884c0.38081,0.64613 -0.26532,1.02695 -0.26532,1.02695l-0.09928,-0.42273c0.1277,1.97394 -0.22169,3.82416 -0.08298,5.83377c0,0 0.05165,0.74822 -0.69657,0.79987c-0.74822,0.05165 -0.79987,-0.69657 -0.79987,-0.69657c-0.13791,-1.99788 0.22731,-3.88523 0.08298,-5.83377l0.8341,-0.97283c0,0 0.64613,-0.38081 1.02694,0.26532z" fill="#a00000" fill-rule="nonzero" stroke="none" stroke-width="0.5" stroke-linecap="butt" stroke-linejoin="miter"/><path d="M305.53924,132.30752c0.28842,-0.69232 0.98074,-0.40391 0.98074,-0.40391l0.58369,0.24944c0.63427,0.49062 0.76718,0.11658 1.51748,-0.19242c0,0 0.69349,-0.2856 0.97909,0.40789c0.2856,0.69349 -0.40789,0.97909 -0.40789,0.97909c-1.27136,0.52359 -1.53283,0.74511 -2.83283,0.10786l-0.4164,-0.1672c0,0 -0.69232,-0.28842 -0.40391,-0.98074z" fill="#a00000" fill-rule="nonzero" stroke="none" stroke-width="0.5" stroke-linecap="butt" stroke-linejoin="miter"/><path d="M302.24152,134.81914c0.2856,0.69349 -0.40789,0.97909 -0.40789,0.97909l-0.70837,0.29173c-0.89223,0.36673 -1.76871,0.42191 -2.64451,0.67454c-1.60657,0.46343 -2.38261,5.46189 -2.99792,6.67359c0,0 -0.34067,0.66817 -1.00883,0.3275c-0.66817,-0.34067 -0.3275,-1.00883 -0.3275,-1.00883c1.06362,-2.077 1.29855,-6.3796 3.80174,-7.39454c0.77538,-0.31438 1.77151,-0.3149 2.6058,-0.65922l0.70837,-0.29173c0,0 0.69349,-0.28559 0.97909,0.4079z" fill="#a00000" fill-rule="nonzero" stroke="none" stroke-width="0.5" stroke-linecap="butt" stroke-linejoin="miter"/><path d="M300.96943,133.10836l-0.61861,1.24754c-1.12089,-0.64042 -2.19124,-1.21318 -3.17083,-2.06057c0,0 -0.56559,-0.49255 -0.07304,-1.05814c0.49255,-0.56559 1.05814,-0.07304 1.05814,-0.07304c0.62676,0.55005 1.30721,0.96753 2.01318,1.37086c0.57838,-0.25016 0.91571,0.32221 0.91571,0.32221l-0.07566,0.15259c0.02553,0.01453 0.05108,0.02908 0.07664,0.0437z" fill="#a00000" fill-rule="nonzero" stroke="none" stroke-width="0.5" stroke-linecap="butt" stroke-linejoin="miter"/><path d="M305.98672,184.11855c0.1211,-0.45048 0.34559,-0.90414 0.67678,-1.32288c0.12027,-0.15207 0.29136,-0.32002 0.49731,-0.4915c0.18946,-0.17221 0.40046,-0.33086 0.62115,-0.46473c2.20389,-1.50561 6.59664,-3.31387 8.22722,-3.19812c6.21832,0.44145 6.01053,10.20672 0.57537,11.69639c-0.3668,0.10054 -0.68602,0.13878 -0.96261,0.12358c-0.62679,1.17809 -1.85874,2.03137 -3.2881,2.13003c-0.11577,0.00799 -0.23361,0.01125 -0.34755,0.00942c-0.14336,0.11796 -0.29903,0.22636 -0.45845,0.32386c-0.67224,0.91623 -1.74581,1.53818 -2.96828,1.62257c-1.53759,0.10613 -2.9516,-0.68478 -3.70591,-1.91302c-0.80095,-0.35091 -1.47746,-0.96912 -1.90352,-1.73571c-0.27623,-0.49702 -0.45364,-1.06959 -0.49539,-1.67438c-0.0931,-1.34879 0.49213,-2.6064 1.46673,-3.39943c0.46797,-0.77155 1.19522,-1.39186 2.06526,-1.7061z" data-paper-data="{&quot;noHover&quot;:false,&quot;origItem&quot;:[&quot;Path&quot;,{&quot;applyMatrix&quot;:true,&quot;segments&quot;:[[[466.74081,306.13158],[1.47499,1.03998],[-1.44808,-2.05379]],[[460.19806,302.73626],[2.704,0],[-1.21245,0]],[[456.80644,303.48869],[1.02973,-0.48271],[-1.58823,0.74452]],[[453.10435,307.03418],[0.81045,-1.54975],[-2.55453,1.3359]],[[448.80644,314.12789],[0,-3.0825],[0,2.45076]],[[451.64398,320.23949],[-1.73553,-1.46748],[0.17259,0.33151]],[[452.22731,321.19119],[-0.21563,-0.30227],[-0.01937,0.22708]],[[452.19806,321.88017],[0,-0.2321],[0,2.86551]],[[455.9689,328.67218],[-2.26426,-1.41287],[-0.06841,0.54978]],[[456.0742,330.60148],[-0.15007,-0.74571],[2.2237,11.04967]],[[479.34196,331.086],[-1.73722,12.34631],[0.45554,-3.23748]],[[474.09537,314.34112],[2.70054,4.60468],[-0.23669,-0.45877]],[[473.26142,313.04767],[0.31749,0.40174],[-0.31377,-0.43453]],[[472.35718,311.9957],[0.28685,0.26093],[-0.78986,-0.71849]],[[469.83057,310.47694],[0.88213,0.30366],[-0.50715,-1.77923]]],&quot;closed&quot;:true}]}" fill="#326717" fill-rule="nonzero" stroke="none" stroke-width="0.5" stroke-linecap="butt" stroke-linejoin="miter"/><g fill="#326717" fill-rule="evenodd"><path d="M303.15259,156.44148c4.28962,-3.203 9.37062,-3.65396 11.35917,-0.98456c1.98854,2.6694 0.21029,7.40309 -4.07244,10.70585c-4.28962,3.203 -9.37062,3.65396 -11.35917,0.98456c-2.0883,-2.66251 -0.21718,-7.50285 4.07244,-10.70585z" stroke="#001026" stroke-width="1.2" stroke-linecap="round" stroke-linejoin="round"/><path d="M308.86661,156.44801c1.09739,-0.07575 2.05034,0.66038 2.1192,1.658c0.06886,0.99763 -0.77391,1.8577 -1.8713,1.93345c-1.09739,0.07575 -2.05034,-0.66038 -2.1192,-1.658c-0.06886,-0.99763 0.77391,-1.8577 1.8713,-1.93345" stroke="none" stroke-width="1" stroke-linecap="butt" stroke-linejoin="miter"/></g><path d="M307.86864,215.8012c-1.80602,2.07383 -3.87986,0.26781 -3.87986,0.26781l-0.54335,-0.66031c-3.05771,-1.2772 -5.78309,-2.66629 -8.43238,-4.66566c0,0 -0.67917,-0.51622 -0.99344,-1.3519c-0.28128,0.12288 -0.58807,0.20041 -0.91182,0.22276c-1.38795,0.0958 -2.60632,-0.85568 -2.88154,-2.1808l-0.67998,-3.01858c-0.03636,-0.14966 -0.06061,-0.30441 -0.07157,-0.46324c-0.0593,-0.85903 0.28258,-1.65309 0.86593,-2.1988c-0.21355,-0.37586 -0.42711,-0.75171 -0.64066,-1.12757c0,0 -1.22998,-2.4596 1.22961,-3.68958c1.73516,-0.86771 2.85836,0.10081 3.36948,0.74661c0.77042,0.44112 1.31335,1.24649 1.37908,2.19862c0.01276,0.1849 0.00694,0.36678 -0.01588,0.54383c0.17327,0.37531 0.34653,0.75062 0.5198,1.12593c0.39551,0.44026 0.65246,1.01091 0.69638,1.64709c0.00191,0.02769 0.00341,0.05533 0.00449,0.08289c0.00701,0.00395 0.01402,0.0079 0.02102,0.01187c0.99854,0.56644 1.22262,1.94344 1.83393,2.91516l0.27505,0.46669c0,0 0.06192,0.10508 0.13756,0.284c2.01086,1.41116 4.09498,2.412 6.41003,3.37365l2.04031,1.58969c0,0 2.07383,1.80602 0.26781,3.87986z" fill="#326717" fill-rule="nonzero" stroke="none" stroke-width="0.5" stroke-linecap="butt" stroke-linejoin="miter"/><path d="M306.99159,140.53043c0.49255,-0.56559 1.05814,-0.07304 1.05814,-0.07304l0.51404,0.73895c0.27147,4.1841 1.16589,9.2274 3.64675,12.44437c0,0 0.45802,0.59391 -0.13589,1.05193c-0.59391,0.45801 -1.05192,-0.13591 -1.05192,-0.13591c-2.67736,-3.47175 -3.63025,-8.78374 -3.95538,-13.25709l-0.0027,0.28894c0,0 -0.56559,-0.49255 -0.07304,-1.05814z" fill="#326717" fill-rule="nonzero" stroke="none" stroke-width="0.5" stroke-linecap="butt" stroke-linejoin="miter"/><path d="M356.50718,228.23902c-1.48764,-0.19218 -1.29544,-1.67982 -1.29544,-1.67982l0.14642,-1.07197c0.0141,-0.54165 0.0394,-1.05435 0.05976,-1.54905c-0.1098,0.02965 -0.23128,0.05016 -0.36564,0.05943c-0.83022,0.05731 -1.23163,-0.37778 -1.4245,-0.77655c-0.20641,0.2367 -0.52734,0.4256 -1.02571,0.46c-1.49644,0.10329 -1.59973,-1.39315 -1.59973,-1.39315l-0.04365,-0.63238c-0.0191,-0.28208 -0.0388,-0.56448 -0.06032,-0.84686c-0.98587,-0.23737 -1.06296,-1.35425 -1.06296,-1.35425c-0.08897,-1.28898 -0.26136,-3.78638 -0.35033,-5.07535c0,0 -0.10329,-1.49644 1.39315,-1.59973c0.07261,-0.00501 0.14193,-0.00626 0.20811,-0.00409c-0.01395,-0.31855 -0.03235,-0.63036 -0.05313,-0.93139c0,0 -0.05165,-0.74822 0.69657,-0.79987c0.0884,-0.0061 0.16708,-0.00104 0.23709,0.01263c0.08695,-0.03215 0.19063,-0.05029 0.31424,-0.0476c0.74982,0.0163 0.73351,0.76613 0.73351,0.76613c-0.00308,0.14156 -0.0067,0.28188 -0.01097,0.42115c0.95541,0.18459 1.11899,1.25213 1.11899,1.25213c0.1473,0.96117 0.29458,1.92235 0.44188,2.88353l-0.22201,1.34416c0,0 -0.04506,0.17439 -0.16437,0.3867c0.13046,0.16891 0.19373,0.30771 0.19373,0.30771c0.20451,0.45488 0.42741,0.9041 0.67204,1.34094c-0.08681,-0.27716 -0.19093,-0.55908 -0.31539,-0.84781c0,0 -0.57121,-1.38698 0.81577,-1.95819c1.38698,-0.57121 1.95819,0.81577 1.95819,0.81577c1.09538,2.75661 0.93085,4.91853 0.85467,7.84409l-0.17012,1.37825c0,0 -0.19219,1.48764 -1.67983,1.29544z" fill="#326717" fill-rule="nonzero" stroke="none" stroke-width="0.5" stroke-linecap="butt" stroke-linejoin="miter"/><path d="M353.25269,233.10674c-1.49644,0.10329 -1.59973,-1.39315 -1.59973,-1.39315l-0.01668,-0.24168c-0.07065,-1.06018 -0.22081,-2.11781 -0.44559,-3.1563c0,0 -0.31388,-1.46679 1.1529,-1.78068c1.46679,-0.31388 1.78068,1.1529 1.78068,1.1529c0.24956,1.17817 0.41944,2.37621 0.50488,3.57747l0.01668,0.24168c0,0 0.10329,1.49644 -1.39315,1.59973z" fill="#326717" fill-rule="nonzero" stroke="none" stroke-width="0.5" stroke-linecap="butt" stroke-linejoin="miter"/><path d="M357.88661,237.9512c-1.29226,0.76162 -2.05388,-0.53064 -2.05388,-0.53064l-0.08678,-0.21283c-0.35005,-0.38056 -0.70009,-0.76113 -1.05014,-1.14168c0,0 -1.01547,-1.10399 0.08852,-2.11948c1.10399,-1.01547 2.11948,0.08852 2.11948,0.08852c0.35005,0.38056 0.70009,0.76113 1.05014,1.14168l0.46332,0.72055c0,0 0.76162,1.29226 -0.53064,2.05388z" fill="#326717" fill-rule="nonzero" stroke="none" stroke-width="0.5" stroke-linecap="butt" stroke-linejoin="miter"/><path d="M293.11668,163.56685c0.56559,0.49255 0.07304,1.05814 0.07304,1.05814l-0.05218,-0.10282c-0.436,2.44312 -0.31661,4.90223 -0.36467,7.3584c0.24828,-2.7057 0.40411,-5.95035 2.36019,-7.57549l0.64805,-0.171c0,0 0.74822,-0.05165 0.79987,0.69657c0.05165,0.74822 -0.69657,0.79987 -0.69657,0.79987l0.16468,-0.13763c-1.06326,0.71588 -1.45206,2.50054 -1.64688,4.31984c0.57547,-0.12448 0.81597,0.45946 0.81597,0.45946c0.1909,0.512 1.03166,1.92415 0.81378,1.42304c-0.34528,-0.79409 -0.15429,-1.54388 1.20695,-1.58724c0.80572,-0.02566 2.12501,1.70987 2.78327,2.04697c0.60439,0.30951 2.06274,-0.96062 2.55094,-1.16607l-0.05498,-0.05742c0,0 0.49255,-0.56559 1.05814,-0.07304c0.56559,0.49255 0.07304,1.05814 0.07304,1.05814l-0.50499,0.45931c-2.80508,1.1227 -3.5267,1.4885 -5.95008,-0.76855c-0.37545,-0.34969 -0.04745,1.26226 -0.52632,1.44643c-0.93003,0.35767 -1.85588,-0.5971 -2.41379,-1.44627c-0.05954,0.86547 -0.11064,1.65299 -0.21373,2.23247c0.01638,0.25223 0.01869,0.50099 0.01064,0.74733c1.14895,0.46296 1.69398,1.63836 2.99589,1.86414c0.50995,0.08843 1.13642,0.33998 1.55235,0.03196c0.59173,-0.43821 0.08211,-1.73985 0.73319,-2.08374c1.05197,-0.55561 2.05361,0.38337 2.66397,0.99384c0.24819,0.24825 0.33909,1.26387 0.47469,0.94007c0.16799,-0.40111 -0.00069,-1.07268 0.39995,-1.24178c0.45515,-0.1921 0.9345,0.32089 1.40173,0.48135l0.37885,0.31061c0,0 0.56559,0.49255 0.07304,1.05814c-0.49255,0.56559 -1.05814,0.07304 -1.05814,0.07304l-0.13789,-0.13939c-0.34078,-1.14079 0.25436,0.58637 -0.51505,0.85649c-1.09172,0.38328 -1.6099,-0.76004 -2.10897,-1.30993c-0.24807,-0.27334 -0.59317,-0.9682 -0.85306,-0.70608c-0.45444,0.45834 0.05848,1.48574 -0.44999,1.8833c-0.05624,0.04398 -0.53136,0.12842 -1.07867,0.20255c0.96179,0.97159 1.46254,3.03236 1.65593,4.48423c0.00401,-0.00035 0.00802,-0.00065 0.01204,-0.00093c0.33658,-0.02323 0.6366,0.17936 0.75172,0.4786l0.28515,0.69238l0.0714,0.47564c0,0 0.05165,0.74822 -0.69657,0.79987c-0.1568,0.01082 -0.28302,-0.01348 -0.38457,-0.05868c-0.09981,0.06132 -0.21551,0.1001 -0.34048,0.10872c-0.33658,0.02323 -0.63659,-0.17936 -0.75172,-0.4786l-0.28515,-0.69238l0.04085,-0.01682l-0.07764,-0.09796c-0.05263,-0.67502 -0.71215,-5.26919 -1.98711,-5.06109c-0.83926,0.13699 -1.164,1.41635 -1.99695,1.58752c-0.1508,0.03099 -0.71332,-0.28082 -1.24903,-0.62205c-0.00651,1.60914 0.20738,3.20555 0.48727,4.78072c0.48563,-0.19334 0.83639,0.26148 0.83639,0.26148c1.38188,1.83596 3.78995,2.71253 4.78355,4.70579l0.05742,-0.05498c0,0 0.56559,0.49255 0.07304,1.05814c-0.49255,0.56559 -1.05814,0.07304 -1.05814,0.07304l-0.45931,-0.50499c-0.26688,-1.25924 -2.51631,-2.51258 -3.87505,-3.65768c0.32562,1.64615 0.65587,3.26478 0.80817,4.84581c0,0 0.05165,0.74822 -0.69657,0.79987c-0.74822,0.05165 -0.79987,-0.69657 -0.79987,-0.69657c-0.04435,-1.69709 -0.80286,-3.60227 -1.07854,-5.49767c-0.39955,2.3191 -1.3949,4.31512 0.56098,6.53933c0,0 0.49025,0.56759 -0.07734,1.05784c-0.56759,0.49025 -1.05784,-0.07734 -1.05784,-0.07734c-2.81793,-3.31084 -0.59745,-5.68009 -0.79323,-9.3345c-0.15357,-2.86666 -0.83912,-5.20198 -0.30368,-8.22164c0.68285,-3.70509 0.02289,-7.49644 0.6827,-11.21754l0.39782,-0.61956c0,0 0.49255,-0.56559 1.05814,-0.07304zM292.45482,175.73973c-0.35813,2.00684 -0.17002,3.65767 0.05042,5.40081c0.01614,-0.81674 0.04482,-1.63138 0.06981,-2.44293c-0.02472,-0.02136 -0.04512,-0.04021 -0.06063,-0.05613c0,0 -0.43363,-0.5623 0.09012,-1.01458c0.02214,-0.96352 0.02886,-1.92204 -0.00735,-2.8739c-0.03877,0.32911 -0.08565,0.65804 -0.14238,0.98673zM293.66999,177.68828c0.0211,0.02269 0.03227,0.03717 0.03227,0.03717c0.0851,0.27108 0.5728,0.0422 0.84185,0.13348c0.24653,0.08365 0.14694,0.71476 0.4032,0.66888c0.42479,-0.07605 0.65824,-0.55173 0.91775,-0.96164c-0.73186,-0.44368 -1.26523,-1.13334 -1.96623,-1.45848c-0.07659,0.52442 -0.16563,1.04768 -0.22883,1.58059z" fill="#000000" fill-rule="nonzero" stroke="none" stroke-width="0.5" stroke-linecap="butt" stroke-linejoin="miter"/><path d="M360.50181,224.34244c-0.62958,-2.03702 -1.78575,-3.90501 -2.26022,-5.98364c-0.37266,-1.63255 1.4422,-5.4227 0.721,-6.64988c-0.6889,-1.17222 -2.85242,-0.5642 -3.76317,-1.57377c-2.21708,-2.45768 -0.9864,-6.99445 -1.82413,-9.95184c-0.84256,-2.97443 -3.97007,-4.96605 -4.68003,-7.77072c-0.06884,-0.27195 -0.08396,-0.54807 -0.06773,-0.82655c-0.05788,-0.01323 -0.11708,-0.02881 -0.17762,-0.04686c-1.91657,-0.57163 -1.34495,-2.4882 -1.34495,-2.4882c0.43971,-1.4607 0.11873,-3.23355 1.02606,-4.45981c0.93521,-1.26395 1.75852,-1.98949 2.47086,-2.30858l-0.08041,-0.02398l0.57824,-1.93877c0.21782,-0.79793 0.92041,-1.40819 1.79219,-1.46837c0.76444,-0.05277 1.45814,0.3313 1.83676,0.93938l1.3368,2.05824l-0.14956,0.09713l0.36919,0.35843c0.08282,0.89041 0.16566,1.78083 0.24848,2.67124c0,0 0.00145,0.02098 0.00189,0.05879c0.20438,0.79903 -0.22723,1.55448 -0.22723,1.55448l-0.2533,0.33786c-0.24727,0.80744 -0.65837,1.54895 -1.16386,2.23856l0.35935,0.22098l-1.07768,1.75249c-0.2835,0.47415 -0.75895,0.82441 -1.32705,0.93678c0.5246,0.82294 1.57479,1.37145 2.12375,2.21231c0.65703,1.0064 1.91702,3.61705 2.25046,4.79119c0.46852,1.6498 0.51852,3.29963 0.63158,4.98957c0.07425,1.10977 -0.58487,2.6057 0.26226,3.32645c1.22471,1.042 3.45409,0.85765 4.271,2.24268c1.62495,2.75504 -0.92432,5.34903 -0.21151,7.9846c0.28085,1.03844 0.75252,2.01415 1.18377,3.00333c-0.01778,0.00076 -0.03561,0.00176 -0.05347,0.00299c-1.10195,0.07606 -1.93359,1.03103 -1.85753,2.13298c0.03941,0.571 0.31482,1.06943 0.72438,1.40659c-0.29591,0.51904 -0.30373,1.06907 -0.30373,1.06907l0.0847,1.96876c-0.22436,-1.04247 -0.78634,-2.04112 -1.44957,-2.8639z" fill="#de6697" fill-rule="nonzero" stroke="none" stroke-width="0.5" stroke-linecap="butt" stroke-linejoin="miter"/><path d="" fill="#de6697" fill-rule="nonzero" stroke="none" stroke-width="0.5" stroke-linecap="butt" stroke-linejoin="miter"/><path d="" fill="#de6697" fill-rule="nonzero" stroke="none" stroke-width="0.5" stroke-linecap="butt" stroke-linejoin="miter"/><text transform="translate(324.76934,125.32805) scale(0.5,0.5)" font-size="40" xml:space="preserve" fill="#a00000" fill-rule="nonzero" stroke="none" stroke-width="1" stroke-linecap="butt" stroke-linejoin="miter" stroke-miterlimit="10" stroke-dasharray="" stroke-dashoffset="0" font-family="Sans Serif" font-weight="normal" text-anchor="start" style="mix-blend-mode: normal"><tspan x="0" dy="0">R.I.P</tspan></text><text transform="translate(407.37957,129.44645) scale(0.5,0.5)" font-size="40" xml:space="preserve" fill="#a00000" fill-rule="nonzero" stroke="none" stroke-width="1" stroke-linecap="butt" stroke-linejoin="miter" stroke-miterlimit="10" stroke-dasharray="" stroke-dashoffset="0" font-family="Sans Serif" font-weight="normal" text-anchor="start" style="mix-blend-mode: normal"><tspan x="0" dy="0"> </tspan></text></g></g></svg>