<svg version="1.1" xmlns="http://www.w3.org/2000/svg" xmlns:xlink="http://www.w3.org/1999/xlink" width="57.79993" height="26.27583" viewBox="0,0,57.79993,26.27583"><defs><linearGradient x1="371.26339" y1="164.2618" x2="371.26339" y2="155.49671" gradientUnits="userSpaceOnUse" id="color-1"><stop offset="0" stop-color="#c08d66"/><stop offset="1" stop-color="#70481a"/></linearGradient><radialGradient cx="387.84968" cy="173.83832" r="4.44597" gradientUnits="userSpaceOnUse" id="color-2"><stop offset="0" stop-color="#fcb520"/><stop offset="1" stop-color="#927d1d"/></radialGradient><linearGradient x1="359.09121" y1="168.56767" x2="359.09121" y2="176.0242" gradientUnits="userSpaceOnUse" id="color-3"><stop offset="0" stop-color="#cbcbcb"/><stop offset="1" stop-color="#5b5b5b"/></linearGradient></defs><g transform="translate(-342.34088,-154.49671)"><g data-paper-data="{&quot;isPaintingLayer&quot;:true}" fill-rule="nonzero" stroke-width="2" stroke-linecap="butt" stroke-linejoin="miter" stroke-miterlimit="10" stroke-dasharray="" stroke-dashoffset="0" style="mix-blend-mode: normal"><path d="M399.14081,155.49671v8.7651l-6.44708,15.30176l-42.3384,0.20573l-6.59096,-15.69612l-0.3784,-8.57646z" data-paper-data="{&quot;index&quot;:null}" fill="url(#color-1)" stroke="#834423"/><path d="M392.29565,173.83832c0,1.65908 -1.99053,3.00403 -4.44597,3.00403c-2.45544,0 -4.44597,-1.34495 -4.44597,-3.00403c0,-1.65908 1.99052,-3.00403 4.44597,-3.00403c2.45544,0 4.44597,1.34495 4.44597,3.00403z" fill="url(#color-2)" stroke="#827723"/><path d="M354.38871,175.78388l-1.3381,-7.21621l12.08122,0.55858l-0.88989,6.89796z" fill="url(#color-3)" stroke="#cacaca"/></g></g></svg>