<svg version="1.1" xmlns="http://www.w3.org/2000/svg" xmlns:xlink="http://www.w3.org/1999/xlink" width="184.73613" height="162.9138" viewBox="0,0,184.73613,162.9138"><g transform="translate(-250.54479,-118.11704)"><g data-paper-data="{&quot;isPaintingLayer&quot;:true}" fill-rule="nonzero" stroke="none" stroke-linecap="butt" stroke-linejoin="miter" stroke-miterlimit="10" stroke-dasharray="" stroke-dashoffset="0" style="mix-blend-mode: normal"><g stroke-width="1"><path d="M300.17643,212.00665c4.50121,0.77103 7.62332,-1.89545 11.68394,-3.10749c3.86955,-1.14248 8.92791,-1.03085 12.44379,1.05625c3.31653,1.83577 5.77094,4.855 7.02582,8.42517c1.54054,4.59132 2.21998,10.36609 2.36902,15.51292l-13.17048,0.38139c-0.18035,-4.05148 -0.15895,-9.91156 -1.81688,-11.92341c-2.25321,-2.7039 -6.58175,-1.93431 -9.35832,-0.56636c-3.46895,1.71012 -6.59855,4.11872 -10.63056,4.10743c-3.9031,-0.01604 -6.72189,-2.3174 -9.85394,-4.41562c-7.30904,-4.93951 -11.31189,-1.7323 -17.56448,3.27777c-2.93868,2.40307 -6.49957,3.14946 -10.20243,3.44976c-2.10823,0.12607 -9.58251,0.53558 -9.61542,-2.81186c0.92608,-1.1853 4.72543,-0.32993 5.93245,-0.62298c0.75092,-0.60099 1.23851,-1.45146 1.3375,-2.42074l-0.27539,-0.70032c-2.29022,-1.73644 -5.46453,-0.8722 -7.87797,-2.476c-0.13727,-0.31816 -0.0205,-0.7077 0.22881,-0.908c1.39435,-0.49156 8.6084,1.16732 7.15418,-2.65418l-0.46084,-0.43685c-0.83812,-0.23384 -5.34406,-1.13378 -5.12916,-2.5566c0.86025,-1.24743 4.21464,-0.31513 5.43287,-0.22135c2.56625,0.24782 5.06764,0.4325 7.60966,-0.15632c4.45093,-0.96524 6.68031,-3.54085 10.39025,-5.77316c3.96495,-2.30473 8.6848,-2.82757 13.01457,-1.34327c4.20183,1.488 6.8318,6.11282 11.33301,6.88385z" fill="#000000"/><path d="M330.06514,223.31024c0.30555,3.9188 -5.19958,3.82111 -5.50144,0.03026c-0.28692,-3.27507 5.19587,-3.94905 5.50143,-0.03026z" fill="#a40000"/><path d="M299.21902,220.9201c0.12915,2.24921 -2.94514,2.14515 -3.13457,0.02574c-0.11613,-1.79939 3.00538,-2.27593 3.13457,-0.02574z" fill="#a40000"/><path d="M317.02578,212.74225c0.12915,2.24921 -2.94514,2.14515 -3.13457,0.02575c-0.11613,-1.79939 3.00538,-2.27594 3.13457,-0.02575z" fill="#aadcdc"/><path d="M265.58204,223.82594c0.12915,2.24921 -2.94514,2.14515 -3.13456,0.02575c-0.11799,-1.86337 3.00538,-2.27595 3.13456,-0.02575z" fill="#a40000"/></g><g stroke-width="1"><path d="M384.89999,221.71868c-3.92546,-2.33369 -7.79606,-0.96395 -12.02127,-1.28845c-4.0219,-0.32092 -8.7039,-2.23882 -11.23767,-5.44778c-2.43779,-2.90286 -3.64645,-6.60138 -3.53779,-10.38411c0.20813,-4.83841 1.64443,-10.47282 3.35071,-15.33088l12.43151,4.3663c-1.28432,3.84675 -3.40544,9.30952 -2.5791,11.78206c1.1339,3.33202 5.45057,4.1656 8.53301,3.88416c3.85147,-0.35261 7.63659,-1.47893 11.39646,-0.0227c3.63783,1.41444 5.44403,4.57348 7.6155,7.65519c5.05197,7.23176 9.93863,5.67303 17.57186,3.23797c3.60492,-1.18961 7.19666,-0.6096 10.76098,0.43774c2.01326,0.63823 9.1374,2.93587 7.96788,6.07254c-1.2895,0.77444 -4.52953,-1.38633 -5.76137,-1.54555c-0.91648,0.29178 -1.67658,0.91088 -2.11653,1.78021l0.00598,0.7525c1.51533,2.44214 4.78847,2.77353 6.46638,5.13604c0.01407,0.34622 -0.23461,0.668 -0.53917,0.76559c-1.47789,-0.04107 -7.61747,-4.17628 -7.63015,-0.08745l0.27357,0.57304c0.69855,0.5188 4.5822,2.97453 3.87143,4.22569c-1.25032,0.85604 -4.04739,-1.217 -5.151,-1.74134c-2.30676,-1.15148 -4.57562,-2.22076 -7.15974,-2.58254c-4.50107,-0.69484 -7.50571,0.91017 -11.76938,1.66384c-4.52768,0.72984 -9.12117,-0.4744 -12.63086,-3.41247c-3.38892,-2.89564 -4.18578,-8.15594 -8.11124,-10.48962z" fill="#000000"/><path d="M361.05155,200.44996c1.11986,-3.76779 6.22393,-1.70271 5.14649,1.94432c-0.90645,3.16018 -6.26634,1.82348 -5.14648,-1.94431z" fill="#a40000"/><path d="M388.98968,213.74117c0.68589,-2.14597 3.51848,-0.94652 2.93538,1.09988c-0.53677,1.72138 -3.6216,1.04702 -2.93538,-1.09988z" fill="#a40000"/><path d="M369.43472,214.99059c0.68589,-2.14597 3.51847,-0.94653 2.93538,1.09987c-0.53677,1.72138 -3.62159,1.04702 -2.93538,-1.09987z" fill="#aadcdc"/><path d="M421.43202,223.0892c0.68589,-2.14597 3.51847,-0.94653 2.93538,1.09987c-0.55797,1.78177 -3.6216,1.04703 -2.93538,-1.09987z" fill="#a40000"/></g><g stroke-width="1"><path d="M362.28955,209.95695c-0.4489,-4.54465 -3.8472,-6.84887 -6.09162,-10.44334c-2.12673,-3.42866 -3.35907,-8.33587 -2.27791,-12.27903c0.89162,-3.68435 3.15279,-6.85089 6.263,-9.00668c4.01921,-2.70177 9.40767,-4.8867 14.33115,-6.39384l3.85669,12.59893c-3.85896,1.24716 -9.51535,2.7789 -11.01613,4.91055c-2.01043,2.88899 -0.12166,6.85902 1.93294,9.17401c2.56798,2.892 5.71957,5.27174 6.77678,9.1627c1.01849,3.76791 -0.45395,7.09564 -1.64751,10.67163c-2.82684,8.35642 1.32616,11.36665 7.81361,16.06868c3.09569,2.1971 4.7587,5.43305 6.02919,8.92407c0.68005,1.99952 3.05492,9.09829 -0.16423,10.01678c-1.38828,-0.579 -1.56992,-4.46921 -2.17226,-5.55548c-0.77844,-0.56489 -1.72769,-0.80976 -2.68856,-0.64845l-0.60235,0.45107c-1.06771,2.66839 0.60655,5.50036 -0.30063,8.25243c-0.27043,0.21665 -0.67699,0.20724 -0.93618,0.0199c-0.84338,-1.21432 -1.1548,-8.61008 -4.45455,-6.19548l-0.29916,0.5601c-0.00346,0.87012 0.32238,5.45348 -1.10653,5.62317c-1.43074,-0.49907 -1.42035,-3.9806 -1.65264,-5.18014c-0.44084,-2.54022 -0.9254,-5.00117 -2.16658,-7.29639c-2.10983,-4.03622 -5.184,-5.50366 -8.31935,-8.48971c-3.27273,-3.21276 -5.0272,-7.62549 -4.74291,-12.19378c0.32175,-4.4459 4.08465,-8.20705 3.63575,-12.75169z" fill="#000000"/><path d="M365.27165,178.14165c3.69785,-1.33275 5.06199,4.00159 1.48653,5.29687c-3.08206,1.14425 -5.18438,-3.96412 -1.48653,-5.29687z" fill="#aadcdc"/><path d="M371.13818,208.51893c2.13464,-0.72037 2.84869,2.27166 0.85519,3.01576c-1.70434,0.58865 -2.99078,-2.2951 -0.85519,-3.01576z" fill="#aadcdc"/><path d="M358.53539,193.51469c2.13464,-0.72037 2.84869,2.27166 0.85519,3.01576c-1.70434,0.58865 -2.99078,-2.2951 -0.85519,-3.01576z" fill="#aadcdc"/><path d="M382.85083,240.18444c2.13464,-0.72037 2.84869,2.27166 0.85519,3.01576c-1.76554,0.60739 -2.99078,-2.2951 -0.85519,-3.01576z" fill="#a40000"/></g><g stroke-width="1"><path d="M302.17993,192.8968c4.9993,2.66326 9.53949,6.09738 13.50362,10.10117c2.52783,2.8498 3.70328,6.66522 3.1831,10.41434c-1.2704,8.24121 -9.37993,11.74616 -13.38035,18.39628c-2.33148,3.91006 -1.61541,7.06391 -1.15868,11.30544c0.4572,4.09843 -0.89589,7.35604 -3.85907,10.23098c-2.96362,2.87584 -6.24173,5.09146 -6.82004,9.52687c-0.23146,1.45896 1.40165,9.22971 -0.46725,9.36274c-2.09687,-1.55863 -1.89361,-4.25021 -3.76097,-5.83538c-3.85247,-0.36622 -0.03308,6.07085 -2.39075,6.74477c-3.56447,-0.3644 -0.8295,-6.79232 -3.67437,-7.58237c-2.35712,-0.18473 -1.32629,5.06177 -2.16028,6.14535c-2.09929,0.0169 -1.92269,-5.76771 -1.89241,-6.96973c0.11738,-3.37878 0.98221,-6.66749 2.47927,-9.63752c1.78513,-3.54154 4.65979,-3.66818 7.76553,-5.68401c2.90501,-1.90199 4.05689,-4.61599 4.14592,-8.08073c0.08765,-3.03542 -0.94481,-5.84817 -0.56916,-8.88176c0.37657,-3.31981 2.10213,-5.31461 4.63365,-7.3332c3.53784,-2.87309 8.51603,-8.74367 7.31191,-13.64861c-0.48715,-1.89285 -5.45895,-4.89949 -8.90715,-6.78091z" fill="#000000"/><path d="M300.5012,247.13061c2.04068,0.95694 0.4865,3.6115 -1.46779,2.76977c-1.7239,-0.7256 -0.572,-3.72627 1.46779,-2.76977z" fill="#a40000"/><path d="M305.11658,225.96362c2.04068,0.95694 0.4865,3.6115 -1.46779,2.76977c-1.63795,-0.75394 -0.57289,-3.72672 1.46779,-2.76977z" fill="#a40000"/><path d="M300.45733,228.91536c4.33966,1.97241 1.00085,7.73874 -3.19527,5.91034c-3.64939,-1.62448 -1.14439,-7.88276 3.19527,-5.91034z" fill="#a40000"/></g><g fill="#000000" stroke-width="1"><path d="M338.312,224.982c-0.58,5.756 -2.382,7.675 -5.922,8.506c-1.802,0.448 -3.539,0.512 -5.149,-0.319c-3.411,-1.791 -4.119,-6.78 -5.856,-10.042c-3.476,-0.959 -3.025,2.686 -7.981,2.686c-8.625,0 -8.56,-4.541 -10.169,-17.525c-1.609,-12.983 33.854,-8.954 33.854,-8.954c0,0 1.802,19.955 1.223,25.648z"/><path d="M344.233,222.168c-1.223,-3.262 0.257,-19.188 0.257,-19.188l25.552,2.878c0,0 0.901,8.379 1.03,11.001c0.322,11.896 -3.54,13.367 -6.179,13.431c-11.842,0.448 -8.817,-11.065 -11.971,-12.728c-5.535,-2.878 -6.372,1.408 -8.689,4.606z"/></g><g stroke-width="1"><path d="M324.74906,200.78362c4.9993,2.66326 9.53949,6.09738 13.50362,10.10117c2.52783,2.8498 3.70328,6.66522 3.1831,10.41434c-1.2704,8.24121 -9.37994,11.74616 -13.38035,18.39628c-2.33148,3.91006 -1.61541,7.06391 -1.15868,11.30545c0.4572,4.09843 -0.8959,7.35604 -3.85907,10.23098c-2.96362,2.87584 -6.24174,5.09146 -6.82004,9.52687c-0.23147,1.45896 1.40165,9.22971 -0.46725,9.36274c-2.09686,-1.55863 -1.89361,-4.25022 -3.76097,-5.83538c-3.85248,-0.36622 -0.03308,6.07085 -2.39075,6.74477c-3.56448,-0.36439 -0.8295,-6.79232 -3.67437,-7.58237c-2.35712,-0.18473 -1.32628,5.06177 -2.16028,6.14535c-2.09929,0.01691 -1.92269,-5.76771 -1.89241,-6.96973c0.11738,-3.37878 0.98221,-6.66749 2.47927,-9.63752c1.78513,-3.54153 4.65979,-3.66818 7.76553,-5.68401c2.90501,-1.90199 4.05689,-4.61599 4.14592,-8.08073c0.08765,-3.03542 -0.94481,-5.84817 -0.56916,-8.88177c0.37658,-3.31981 2.10213,-5.31462 4.63365,-7.3332c3.53784,-2.87309 8.51603,-8.74366 7.31191,-13.6486c-0.48715,-1.89285 -5.45895,-4.89948 -8.90715,-6.78091z" fill="#000000"/><path d="M323.07033,255.01743c2.04068,0.95695 0.48651,3.6115 -1.46778,2.76977c-1.72391,-0.7256 -0.572,-3.72627 1.46778,-2.76977z" fill="#a40000"/><path d="M327.68572,233.85044c2.04068,0.95694 0.4865,3.61151 -1.46779,2.76978c-1.63795,-0.75394 -0.57289,-3.72672 1.46779,-2.76978z" fill="#a40000"/><path d="M323.02646,236.80218c4.33965,1.97241 1.00086,7.73874 -3.19527,5.91035c-3.64939,-1.62448 -1.14439,-7.88276 3.19527,-5.91035z" fill="#a40000"/></g><g stroke-width="1"><path d="M355.69891,234.83582c-0.44891,-4.54465 -3.84719,-6.84886 -6.09161,-10.44334c-2.12673,-3.42866 -3.35908,-8.33587 -2.27791,-12.27903c0.89162,-3.68435 3.1528,-6.85089 6.263,-9.00669c4.0192,-2.70177 9.40767,-4.8867 14.33115,-6.39384l3.85669,12.59893c-3.85896,1.24716 -9.51535,2.7789 -11.01613,4.91055c-2.01042,2.88899 -0.12166,6.85902 1.93294,9.17402c2.56797,2.892 5.71957,5.27174 6.77678,9.1627c1.01849,3.76791 -0.45395,7.09564 -1.64751,10.67162c-2.82684,8.35642 1.32617,11.36666 7.8136,16.06868c3.09569,2.19711 4.75871,5.43306 6.02919,8.92408c0.68005,1.99952 3.05491,9.09829 -0.16423,10.01678c-1.38828,-0.579 -1.56993,-4.46921 -2.17226,-5.55548c-0.77844,-0.56489 -1.72769,-0.80976 -2.68856,-0.64845l-0.60235,0.45107c-1.06771,2.66839 0.60655,5.50036 -0.30063,8.25243c-0.27043,0.21665 -0.67699,0.20724 -0.93618,0.0199c-0.84337,-1.21432 -1.15479,-8.61009 -4.45454,-6.19548l-0.29916,0.5601c-0.00346,0.87012 0.32239,5.45348 -1.10653,5.62317c-1.43075,-0.49907 -1.42035,-3.98059 -1.65264,-5.18014c-0.44085,-2.54022 -0.9254,-5.00117 -2.16658,-7.29639c-2.10983,-4.03622 -5.184,-5.50366 -8.31935,-8.48971c-3.27273,-3.21276 -5.0272,-7.62549 -4.74291,-12.19378c0.32175,-4.4459 4.08465,-8.20705 3.63574,-12.7517z" fill="#000000"/><path d="M358.681,203.02052c3.69785,-1.33275 5.06199,4.00159 1.48653,5.29688c-3.08206,1.14425 -5.18438,-3.96412 -1.48653,-5.29687z" fill="#a40000"/><path d="M364.54754,233.3978c2.13464,-0.72037 2.8487,2.27167 0.85519,3.01577c-1.70434,0.58865 -2.99077,-2.29511 -0.85519,-3.01577z" fill="#a40000"/><path d="M351.94475,218.39356c2.13464,-0.72037 2.8487,2.27166 0.85519,3.01576c-1.70434,0.58865 -2.99077,-2.2951 -0.85519,-3.01576z" fill="#aadcdc"/><path d="M376.26019,265.06331c2.13464,-0.72037 2.8487,2.27166 0.85519,3.01576c-1.76554,0.60739 -2.99078,-2.2951 -0.85519,-3.01576z" fill="#a40000"/></g><path d="M317.652,143.242h43.508v33.131h-43.508z" fill="#006482" stroke-width="1"/><path d="M346.099,144.969c0,0 0.194,3.197 -0.514,4.669c-0.708,1.471 -2.253,1.407 -4.12,0.703c-1.866,-0.703 -1.158,-4.605 -1.158,-4.605z" fill="#ffffff" stroke-width="1"/><path d="M356.784,169.081v6.524h-33.726v-6.012c4.248,-3.71 11.392,-5.373 19.308,-4.221c6.758,1.023 11.65,1.79 14.418,3.709z" fill="#000000" stroke-width="1"/><path d="M379.62364,212.79157c-0.21519,4.605 0.07247,11.321 -2.79853,15.351c-2.86989,4.029 -8.68326,3.325 -11.91216,0c-2.6547,-2.687 -3.80311,-11.577 -11.76833,-11.001c-7.96523,0.575 -1.00457,14.966 -10.40586,18.292c-4.59249,1.599 -11.33796,-1.279 -14.1365,-4.733c-1.50742,-1.855 0,-8.315 -5.7409,-8.89c-5.7409,-0.576 -7.60621,4.477 -11.62451,5.116c-8.75573,1.407 -11.41043,-13.367 -11.76945,-21.298c-0.43037,-8.443 -1.07593,-16.438 -0.35902,-24.816c1.22087,-14.775 -0.3579,-30.829 6.74547,-44.772c6.45893,-12.664 25.69076,-20.147 41.33467,-17.333c16.21811,2.942 24.46988,11.577 29.35004,25.584c5.59707,15.99 2.29569,31.852 4.01829,48.225c0.64556,6.588 -0.5742,13.624 -0.93322,20.275zM340.51441,152.98957c-11.62451,-0.639 -18.58627,5.949 -17.58059,13.688c1.00457,7.739 8.10794,11.512 16.43218,11.512c8.32424,0 17.29516,-2.622 17.65306,-11.704c0.35902,-9.146 -5.59707,-12.92 -16.50466,-13.496z" fill="#000000" stroke-width="1"/><path d="M366.60458,205.86458c3.991,0.256 5.021,16.118 1.223,15.926c-3.282,-0.192 -4.183,-2.047 -4.376,-4.221c-0.387,-5.117 -0.837,-11.961 3.153,-11.705z" fill="#a00000" stroke-width="1"/><path d="M357.041,200.357c3.99,0.192 5.02,8.059 1.223,7.995c-3.283,-0.128 -4.184,-1.023 -4.377,-2.11c-0.386,-2.559 -0.836,-6.077 3.154,-5.885z" fill="#a00000" stroke-width="1"/><path d="M362.19,199.974c-3.926,0.319 -3.669,-10.298 0.129,-10.682c3.282,-0.319 3.797,10.362 -0.129,10.682z" fill="#a00000" stroke-width="1"/><path d="M321.964,218.07915c-3.926,0.192 -3.669,-5.309 0.129,-5.501c3.282,-0.128 3.797,5.309 -0.129,5.501z" fill="#a00000" stroke-width="1"/><path d="M368.66458,183.49847c-3.926,0.192 -3.669,-5.308 0.129,-5.5c3.282,-0.192 3.797,5.309 -0.129,5.5z" fill="#a00000" stroke-width="1"/><path d="M312.47657,134.17273c-3.347,-2.111 4.441,-11.321 7.659,-9.338c2.768,1.727 -4.312,11.449 -7.659,9.338z" fill="#a00000" stroke-width="1"/><path d="M321.32,207.01157c-2.832,0.128 -2.574,-3.838 0.129,-3.966c2.317,-0.127 2.703,3.838 -0.129,3.966z" fill="#a00000" stroke-width="1"/><path d="M337.76719,194.6825c-2.832,0.128 -2.575,-3.837 0.128,-3.965c2.317,-0.128 2.703,3.837 -0.128,3.965z" fill="#a00000" stroke-width="1"/><path d="M333.24643,225.965c-2.832,0.128 -2.575,-3.837 0.128,-3.965c2.317,-0.128 2.704,3.837 -0.128,3.965z" fill="#a00000" stroke-width="1"/><path d="M347.55019,206.76197c-2.832,0.128 -2.575,-3.837 0.128,-3.965c2.317,-0.128 2.703,3.837 -0.128,3.965z" fill="#a00000" stroke-width="1"/><path d="M311.666,195.37797c6.179,0.383 7.788,23.793 1.866,23.473c-5.084,-0.256 -6.564,-2.942 -6.822,-6.204c-0.579,-7.548 -1.223,-17.653 4.956,-17.269z" fill="#a00000" stroke-width="1"/><path d="M358.328,156.481c1.352,0.64 2.446,1.599 3.862,1.791c0.386,0.064 0.708,0.128 0.901,0.576l-0.193,0.256c-0.515,0.064 -0.966,0 -1.416,-0.256c-1.223,-0.64 -2.446,-1.216 -3.669,-1.855c-0.257,-0.128 -0.579,-0.256 -0.901,-0.384l-0.193,-0.512l4.892,-2.622l0.901,0.128l-0.065,0.448c-2.059,0.959 -3.411,1.663 -4.119,2.43z" fill="#000000" stroke-width="1"/><path d="M316.236,156.609c-0.966,-1.087 -2.06,-2.047 -3.154,-3.006c-0.193,-0.256 -0.129,-0.576 0.129,-0.767c0,0 0,0 0.064,0c0.064,0 0.193,0 0.257,0.063c0.129,0.064 0.194,0.128 0.322,0.256c0.966,1.216 2.124,2.303 3.411,3.198c0.322,0.192 0.708,0.448 0.58,1.024l-0.58,0.128c-0.193,0 -0.386,0.064 -0.579,0.127c-0.901,0.384 -1.738,0.832 -2.639,1.216l-1.029,0.447c-0.451,-0.064 -0.644,-0.191 -0.58,-0.575c1.223,-0.576 2.382,-1.151 3.54,-1.727c0.065,-0.128 0.129,-0.256 0.258,-0.384z" fill="#000000" stroke-width="1"/><path d="M338.43899,141.67177c0,5.34037 -3.63345,9.66959 -8.11555,9.66959c-4.4821,0 -8.11556,-4.32922 -8.11556,-9.66959c0,-5.34037 3.63346,-9.66959 8.11556,-9.66959c4.4821,0 8.11555,4.32922 8.11555,9.66959z" fill="#a00000" stroke-width="0"/><path d="M358.75816,164.50797c0,8.40824 -7.96268,15.22446 -17.78514,15.22446c-9.82246,0 -17.78515,-6.81622 -17.78515,-15.22446c0,-8.40824 7.96269,-15.22447 17.78515,-15.22447c9.82246,0 17.78514,6.81623 17.78514,15.22447z" fill="#a20000" stroke-width="0"/><path d="M316.98663,214.16663c0,2.19337 -0.85039,3.97144 -1.89938,3.97144c-1.049,0 -1.89938,-1.77808 -1.89938,-3.97144c0,-2.19336 0.85039,-3.97144 1.89938,-3.97144c1.049,0 1.89938,1.77808 1.89938,3.97144z" fill="#e93e3e" stroke-width="0"/><path d="M311.28848,209.84985c1.04899,0 1.89938,1.93268 1.89938,4.31678c0,2.38409 -0.85038,4.31678 -1.89938,4.31678c-1.049,0 -1.89938,-1.93268 -1.89938,-4.31678c0,-2.38409 0.85038,-4.31678 1.89938,-4.31678z" fill="#e93e3e" stroke-width="0"/><path d="M308.69095,210.01505c1.04899,0 1.89938,1.93268 1.89938,4.31678c0,2.3841 -0.85038,4.31679 -1.89938,4.31679c-1.049,0 -1.89938,-1.93269 -1.89938,-4.31679c0,-2.3841 0.85038,-4.31678 1.89938,-4.31678z" fill="#e93e3e" stroke-width="0"/><path d="M367.08797,213.26061c1.04899,0 1.89938,1.93268 1.89938,4.31678c0,2.3841 -0.85038,4.31679 -1.89938,4.31679c-1.049,0 -1.89938,-1.93269 -1.89938,-4.31679c0,-2.3841 0.85038,-4.31678 1.89938,-4.31678z" fill="#e93e3e" stroke-width="0"/><path d="M328.56948,208.73761c-2.5,0 -2.5,-2.5 -2.5,-2.5l0.0193,-0.65543c0.47821,-3.76942 -0.43195,-7.6759 -0.00714,-11.33257c0.11318,-0.97429 1.02305,-1.777 1.02602,-2.75784c0.00239,-0.79343 -0.94085,-1.36453 -1.01118,-2.15483c-0.39058,-4.38869 2.3323,-9.15521 5.19468,-12.14917c0,0 1.76777,-1.76776 3.53553,0c1.76776,1.76776 0,3.53553 0,3.53553c-1.61212,1.50398 -4.20772,5.45533 -3.78423,7.8807c0.16526,0.94645 1.05855,1.7192 1.06088,2.67997c0.00291,1.20435 -0.90355,2.26243 -1.04604,3.45833c-0.43461,3.64772 0.46039,7.66924 -0.00714,11.46005l0.01931,0.03526c0,0 0,2.5 -2.5,2.5z" fill="#a40000" stroke-width="0.5"/><path d="M347.72213,199.52426c-2.5,0 -2.5,-2.5 -2.5,-2.5l0.07464,-0.08435c-0.48215,-1.92962 -1.4261,-3.79775 -1.45601,-5.78647c-0.01185,-0.78789 0.75289,-1.47336 0.69569,-2.25926c-0.06268,-0.8613 -0.97562,-1.51419 -1.03305,-2.37586c-0.06434,-0.96542 0.73975,-1.85415 0.68674,-2.82026c-0.06186,-1.12751 -1.20807,-2.11759 -1.01874,-3.23082c0.2323,-1.36593 1.44736,-2.36306 2.17104,-3.54458c0,0 1.4531,-2.03433 3.48743,-0.58123c2.03433,1.45309 0.58123,3.48743 0.58123,3.48743c-0.42746,0.43007 -1.24372,0.68508 -1.28238,1.29022c-0.05367,0.83991 0.99309,1.4552 1.05332,2.29466c0.06662,0.92861 -0.75657,1.77629 -0.69463,2.70522c0.05921,0.88784 0.97672,1.57131 1.03901,2.45894c0.0622,0.88623 -0.66931,1.68727 -0.68568,2.57554c-0.02921,1.58533 0.92197,3.03558 1.30672,4.5738l0.07465,1.29703c0,0 0,2.5 -2.5,2.5z" fill="#a40000" stroke-width="0.5"/><path d="M311.06791,173.16732c-2.5,0 -2.5,-2.5 -2.5,-2.5l0.07464,-1.29703c0.53383,-2.12014 1.63256,-5.452 1.33373,-7.66075c-0.13318,-0.98434 -1.13236,-1.79299 -1.06303,-2.78387c0.09773,-1.39675 0.77859,-2.73083 1.53149,-3.91133c0.45616,-0.71524 1.49909,-0.89919 1.98158,-1.59693c1.37606,-1.98997 0.90506,-4.95755 1.37278,-7.08139c0.57269,-2.6005 1.33405,-3.34597 2.76019,-4.7333c0.26423,-0.72663 0.52846,-1.45327 0.79269,-2.1799c0,0 0.85436,-2.34949 3.20385,-1.49513c2.34949,0.85436 1.49513,3.20384 1.49513,3.20384c-0.07243,0.19919 -0.14487,0.39838 -0.2173,0.59757c0.3659,1.31224 -0.70976,2.3879 -0.70976,2.3879c-0.0794,0.07654 -0.15968,0.15132 -0.24034,0.22487c-0.30665,0.84327 -0.61329,1.68654 -0.91993,2.52981c0.10406,0.27908 0.16579,0.61019 0.16579,1.00303c0,1.34159 -0.71994,1.96322 -1.38713,2.25127c-0.00991,0.10827 -0.02461,0.21613 -0.0453,0.32344c-0.38254,1.98494 -0.98062,4.00034 -2.08065,5.69629c-0.70335,1.08436 -2.90418,1.5032 -2.70309,2.77995c0.11854,0.75262 0.92142,1.29408 1.00902,2.05093c0.34116,2.94761 -0.72111,6.75644 -1.42901,9.60637l0.07465,0.08435c0,0 0,2.5 -2.5,2.5z" fill="#a40000" stroke-width="0.5"/><path d="M363.92939,172.80141c-2.40381,-0.6868 -1.71701,-3.09061 -1.71701,-3.09061l0.67958,-2.37726c0.89464,-3.21013 -1.25432,-6.02587 -0.29511,-9.14359c0.40287,-1.30943 2.91817,-2.09903 2.37288,-3.35583c-1.17016,-2.69698 -5.60477,-6.42456 -7.48584,-8.77548c0,0 -1.56174,-1.95217 0.39043,-3.5139c1.95217,-1.56174 3.51391,0.39043 3.51391,0.39043c2.07456,2.59366 4.30576,5.05985 6.36855,7.66288c0.73316,0.92517 1.79437,1.74441 2.03136,2.90082c0.30498,1.48815 0.0431,3.11345 -0.50877,4.52874c-0.32042,0.82173 -1.5905,0.98104 -1.95316,1.78502c-0.22128,0.49056 0.33565,1.02474 0.44838,1.55095c0.27787,1.29705 0.7319,2.58691 0.72226,3.91335c-0.00833,1.14611 -0.51671,2.23328 -0.77506,3.34992l-0.7018,2.45755c0,0 -0.6868,2.40381 -3.09061,1.71701z" fill="#a40000" stroke-width="0.5"/><path d="M332.51819,135.64776c0.70711,-0.70711 1.41421,0 1.41421,0l-0.36176,0.05245c0.73252,0.00601 1.46523,-0.13373 2.17486,-0.31549c0,0 0.97014,-0.24254 1.21268,0.72761c0.24254,0.97014 -0.72761,1.21268 -0.72761,1.21268c-0.86973,0.21296 -1.76453,0.36941 -2.65993,0.3752l-1.05245,-0.63824c0,0 -0.70711,-0.70711 0,-1.41421z" fill="#a20000" stroke-width="0.5"/><path d="M326.93839,138.6761c0.13019,0.14698 0.4833,0.60029 0.81205,1.03114l0.49114,-0.74352c0,0 0.50696,-0.76044 1.27855,-0.34271c0.38839,-0.32547 0.82132,-0.53334 1.36074,-0.38623c0.11953,0.0326 0.23355,0.07259 0.3425,0.11913c0.14406,-0.10725 0.34174,-0.18084 0.61301,-0.18084c0.70353,0 0.9121,0.49495 0.97394,0.78843c0.56258,0.35733 1.17119,0.69781 1.79251,0.99561c0.27559,-0.14318 0.58872,-0.22408 0.92075,-0.22408c1.10457,0 2,0.89543 2,2c0,0.75495 -0.41829,1.41219 -1.03575,1.75263c-0.04612,0.1071 -0.10126,0.21727 -0.16592,0.33043c-0.11959,0.20928 -1.47202,1.12521 -2.90844,1.76466c-0.36471,0.387 -0.88203,0.6286 -1.45577,0.6286c-0.12457,0 -0.24647,-0.01139 -0.36474,-0.03318c-0.71881,0.11972 -1.30991,0.02259 -1.5762,-0.46005c-1.87731,0.10143 -3.5863,-0.35343 -4.47892,-1.48736c-3.0228,-2.11102 -4.13788,-11.80521 1.40057,-5.55265z" fill="#a20000" stroke-width="0.5"/><path d="M329.38294,136.41033c0,1 -1,1 -1,1l-1.19621,-0.01291c-1.0942,-0.39679 -2.22337,-1.45776 -3.32236,-1.07443c0,0 -0.94868,0.31623 -1.26491,-0.63246c-0.31623,-0.94868 0.63246,-1.26491 0.63246,-1.26491c0.89897,-0.28939 1.87445,-0.76385 2.86014,-0.27833c0.56975,0.28064 0.80029,1.11637 1.41504,1.27596l0.87585,-0.01291c0,0 1,0 1,1z" fill="#a20000" stroke-width="0.5"/><path d="M329.13671,135.56413c0.10704,0.04955 0.21672,0.1252 0.32641,0.23488c0.70711,0.70711 0,1.41421 0,1.41421l-2.39779,-0.01642c0,-1.11567 0.46562,-5.29565 -0.35226,-5.26748c0,0 -0.94868,-0.31623 -0.63246,-1.26491c0.31623,-0.94868 1.26491,-0.63246 1.26491,-0.63246c2.0917,0.96906 1.93608,3.29262 1.79119,5.53217z" fill="#a20000" stroke-width="0.5"/><path d="M329.95296,138.5833c0,-0.39337 0.15474,-0.632 0.34248,-0.77676c-0.00965,-2.34843 0.04565,-4.39808 2.17488,-5.92612c0,0 0.83205,-0.5547 1.38675,0.27735c0.5547,0.83205 -0.27735,1.38675 -0.27735,1.38675c-1.70084,0.9949 -1.28141,3.27848 -1.28141,5.03877l-1.34534,1c0,0 -1,0 -1,-1z" fill="#a20000" stroke-width="0.5"/><path d="M356.90735,140.55277c0,5.34037 -3.63345,9.66959 -8.11555,9.66959c-4.4821,0 -8.11556,-4.32922 -8.11556,-9.66959c0,-5.34037 3.28812,-9.66959 7.77022,-9.66959c4.4821,0 8.46089,4.32922 8.46089,9.66959z" fill="#a00000" stroke-width="0"/><path d="M356.97611,145.07521c0.04296,0.61749 -1.25681,2.86845 -2.5218,3.85365c-0.45676,1.32438 -5.28528,3.08297 -6.43707,2.82702c-1.86044,-0.41343 -3.52051,-1.40566 -4.67117,-2.61361c-0.11294,-0.11857 -0.33121,-0.48342 -0.53148,-0.94195c-0.20349,-0.29613 -0.3293,-0.64979 -0.34804,-1.0316c-0.0513,-0.22612 -0.08275,-0.45003 -0.08393,-0.65881c-0.25649,0.00491 -0.55334,-0.09316 -0.79676,-0.4583c-0.5547,-0.83205 0.27735,-1.38675 0.27735,-1.38675c1.85534,-1.18789 1.93593,-1.89466 4.35347,-1.89466l1,1.34534c0,0 0,1 -1,1c-0.52357,0 -0.77301,-0.27412 -0.89185,-0.53532c-0.25968,-0.05929 -0.50602,-0.07581 -0.70834,0.07166c-0.17602,0.12829 -0.33139,0.28074 -0.47787,0.4435c0.10593,-0.01734 0.21467,-0.02636 0.3255,-0.02636c0.73775,0 1.3822,0.39945 1.72887,0.99387c0.44549,0.24708 0.9105,0.48089 1.38055,0.65462c0.03683,-0.38906 0.06406,-0.79193 0.06054,-1.2206l0.45092,-1.1379c0,0 0.44721,-0.89443 1.34164,-0.44721c0.89443,0.44721 0.44721,1.34164 0.44721,1.34164l-0.23977,0.24347c-0.00336,0.51997 -0.06613,1.00458 -0.13227,1.47513c0.14967,-0.02611 0.29775,-0.06559 0.44372,-0.12007c0.27002,-0.10079 0.85809,-0.39319 1.43746,-0.64105c0.02173,-0.03487 0.0445,-0.06902 0.06827,-0.10241c-0.00843,-0.00276 -0.01687,-0.00551 -0.02533,-0.00825l-0.73622,-0.58692c0,0 -0.70711,-0.70711 0,-1.41421c0.70711,-0.70711 1.41421,0 1.41421,0l-0.04554,0.10377c0.36659,0.12514 0.70547,0.26832 1.02877,0.42648c1.63808,-1.48051 3.69344,-2.36474 3.88897,0.44586z" fill="#a20000" stroke-width="0.5"/><path d="M351.05202,137.24396c-1,0 -1,-1 -1,-1l0.16795,-0.90004c1.03634,-1.44408 1.65207,-1.57853 3.27856,-2.1207c0,0 0.94868,-0.31623 1.26491,0.63246c0.31623,0.94868 -0.63246,1.26491 -0.63246,1.26491c-1.16532,0.38844 -1.62447,0.26862 -2.24692,1.33273l0.16795,-0.20936c0,0 0,1 -1,1z" fill="#a20000" stroke-width="0.5"/><path d="M347.37678,139.41213c-1,0 -1,-1 -1,-1l0.05132,-0.37446c-0.61856,-1.91434 -1.08456,-3.5674 -3.22454,-2.82097c0,0 -0.94868,0.31623 -1.26491,-0.63246c-0.31623,-0.94868 0.63246,-1.26491 0.63246,-1.26491c3.41217,-1.09843 4.75666,1.16331 5.75436,4.08588l0.05132,1.00691c0,0 0,1 -1,1z" fill="#a20000" stroke-width="0.5"/><path d="M347.47066,137.57177c0.51862,-1.83072 0.74375,-3.96553 0.74375,-5.82481c0,0 0,-1 1,-1c1,0 1,1 1,1c0,2.36147 -0.37012,4.9951 -1.08734,7.22308l-1.86438,-0.63295l-0.03299,0.00049c0.00122,-0.00348 0.00243,-0.00697 0.00364,-0.01046l-0.05496,-0.01866c0,0 0,-0.44042 0.29228,-0.7367z" fill="#a20000" stroke-width="0.5"/><path d="M348.44884,136.75567c0,-0.55228 0.44772,-1 1,-1c0.55228,0 1,0.44772 1,1c0,0.55228 -0.44772,1 -1,1c-0.55228,0 -1,-0.44772 -1,-1z" fill="#a00000" stroke-width="0.5"/><path d="M330.49102,136.75567c0,-0.55228 0.44772,-1 1,-1c0.55228,0 1,0.44772 1,1c0,0.55228 -0.44772,1 -1,1c-0.55228,0 -1,-0.44772 -1,-1z" fill="#a00000" stroke-width="0.5"/><path d="M351.25141,174.35291c0.00287,0.01758 0.00546,0.03553 0.00775,0.05386c0.12403,0.99228 -0.86824,1.11631 -0.86824,1.11631l-0.88515,0.11034l-1.06238,0.10624c-0.03705,0.00416 -0.07472,0.0063 -0.11289,0.0063c-0.09412,0 -0.18521,-0.013 -0.27156,-0.03731c-0.05631,0.03422 -0.11325,0.06858 -0.1709,0.10312c-1.25036,0.74896 -2.78281,0.08107 -3.69139,1.14738c0,0 -0.43062,0.43062 -0.95581,0.28372c-0.4111,0.55336 -1.32175,0.4945 -2.01365,0.5409c-2.2034,0.14775 -5.52603,-0.63535 -7.62822,-1.33608l-1.0876,-0.83489c0,0 -0.27952,-0.23959 -0.35399,-0.59763c-0.14769,-0.00692 -0.3099,-0.05441 -0.4824,-0.16574c-2.22859,2.13167 -4.60991,-3.11558 -5.82016,-3.7737l-0.80428,-0.57215c0,0 -0.58018,-0.41441 -0.41083,-1.03328c-0.52413,-0.57301 -0.02309,-1.24107 -0.02309,-1.24107c0.89863,-1.19271 1.94142,-2.2773 2.99747,-3.33441l0.86062,-0.86062c0.18096,-0.18096 0.43096,-0.29289 0.70711,-0.29289c0.55228,0 1,0.44772 1,1v1.07577h-0.08536c0.44914,1.99206 0.71771,4.01553 1.23537,5.9834c0.08436,0.32067 0.29601,0.67523 0.47944,1.04579c1.61143,-2.07776 3.48679,-4.12834 5.32372,-5.95892l0.71791,-0.92303c0.18269,-0.23958 0.47113,-0.3942 0.79568,-0.3942c0.55228,0 1,0.44772 1,1v0.98117c0.81135,2.32424 1.66431,4.71041 2.78568,6.82932c0.10764,0.20339 0.27288,0.44566 0.43944,0.70953c-0.06142,-0.1885 -0.06142,-0.34418 -0.06142,-0.34418l0.01942,-0.30369c0.62138,-2.92976 -0.52132,-10.80827 4.46196,-9.40069c2.24771,1.39773 4.3455,3.20445 5.54512,5.52104c0.02189,0.04227 0.0474,0.08356 0.07568,0.12408c-0.06303,-1.97923 -0.42609,-4.46129 -1.19621,-6.0806c-0.34234,-0.71981 -1.44406,-2.10677 -0.72638,-2.96344c0.91366,-1.09061 5.0501,0.60104 6.15345,0.96663l0.92876,0.77946c0,0 0.66615,0.66615 0.05874,1.35188c0.01627,0.01481 0.03255,0.03034 0.04884,0.04662c0.70711,0.70711 0,1.41421 0,1.41421l-0.28942,0.2532c-1.22742,1.9588 -1.53304,3.98645 -2.95257,5.87915c0,0 -0.42313,0.56417 -1.03249,0.38964c-0.12086,0.28333 -0.35085,0.45583 -0.35085,0.45583c-0.84452,0.63339 -1.5557,0.90644 -2.3049,1.17364z" fill="#efff00" stroke-width="0.5"/><path d="M330.20715,151.47865c-0.00363,-0.01744 -0.00699,-0.03526 -0.01007,-0.05348c-0.16674,-0.986 0.81925,-1.15274 0.81925,-1.15274l0.87956,-0.14844l1.05681,-0.15199c0.03684,-0.00576 0.07438,-0.00952 0.11251,-0.01117c0.09404,-0.00406 0.1856,0.005 0.27292,0.02556c0.05478,-0.03661 0.11018,-0.0734 0.16629,-0.11039c1.21687,-0.80223 2.77672,-0.2011 3.63844,-1.30562c0,0 0.41163,-0.4488 0.94267,-0.32471c0.38683,-0.57058 1.29919,-0.55108 1.98843,-0.6273c2.19497,-0.24271 5.5483,0.39627 7.67877,1.00562l1.12262,0.78717c0,0 0.2896,0.2273 0.37945,0.5818c0.14785,0.00053 0.31196,0.04098 0.48911,0.14476c2.13451,-2.22586 4.74008,2.91373 5.9776,3.519l0.82822,0.53691c0,0 0.59752,0.38898 0.45504,1.01459c0.54838,0.54986 0.07662,1.23891 0.07662,1.23891c-0.84631,1.23038 -1.84133,2.35897 -2.85077,3.46067l-0.82267,0.89696c-0.17299,0.18861 -0.41792,0.31122 -0.69381,0.32314c-0.55177,0.02384 -1.01839,-0.40414 -1.04223,-0.95591l-0.04643,-1.07477l0.08529,-0.00368c-0.53469,-1.97083 -0.89034,-3.98081 -1.49245,-5.92451c-0.09812,-0.31673 -0.32488,-0.66182 -0.52413,-1.02412c-1.52025,2.14537 -3.30537,4.27497 -5.06159,6.18313l-0.67741,0.95315c-0.17218,0.24725 -0.45368,0.41416 -0.77793,0.42817c-0.55177,0.02384 -1.01839,-0.40414 -1.04223,-0.95591l-0.04234,-0.98025c-0.9109,-2.28706 -1.86604,-4.63419 -3.07782,-6.70274c-0.11632,-0.19856 -0.29186,-0.43346 -0.46965,-0.6899c0.0695,0.18568 0.07622,0.3412 0.07622,0.3412l-0.0063,0.30425c-0.49436,2.95385 0.98729,10.77571 -4.05209,9.5845c-2.30594,-1.29943 -4.47975,-3.01392 -5.77823,-5.27658c-0.02369,-0.04128 -0.05096,-0.08143 -0.08096,-0.12069c0.14838,1.97467 0.61823,4.43874 1.45752,6.02331c0.37308,0.70437 1.53363,2.04249 0.85359,2.92934c-0.86574,1.12903 -5.07133,-0.38253 -6.18944,-0.70017l-0.96153,-0.73865c0,0 -0.69428,-0.63678 -0.11703,-1.34809c-0.0169,-0.01409 -0.03384,-0.02891 -0.05081,-0.04447c-0.73696,-0.67593 -0.06103,-1.4129 -0.06103,-1.4129l0.27822,-0.26545c1.14174,-2.00995 1.35957,-4.04889 2.69609,-6.0011c0,0 0.39838,-0.5819 1.01471,-0.43383c0.10852,-0.28828 0.33086,-0.47054 0.33086,-0.47054c0.8164,-0.66925 1.51513,-0.97274 2.2521,-1.27202z" fill="#efff00" stroke-width="0.5"/><path d="M355.31702,139.8562c0,-1 1,-1 1,-1l0.11421,0.00886c-0.12898,-0.27212 -0.1979,-0.68473 0.21471,-1.09734c0.70711,-0.70711 1.41421,0 1.41421,0l0.58692,1.36868c-0.05281,0.12839 -0.13086,0.27249 -0.22591,0.4126c0.53379,0.27103 1.06107,0.54459 1.66551,0.73989c0,0 0.94868,0.31623 0.63246,1.26491c-0.31623,0.94868 -1.26491,0.63246 -1.26491,0.63246c-0.01142,-0.0039 -0.02282,-0.00782 -0.03418,-0.01177c-0.6633,0.56716 -1.96108,0.24533 -0.2384,0.58606c0,0 0.89443,0.44721 0.44721,1.34164c-0.44721,0.89443 -1.34164,0.44721 -1.34164,0.44721c-0.61935,-0.40081 -1.56743,-0.52436 -1.85804,-1.20243c-0.50749,-1.18411 -0.07674,-1.76388 0.37331,-1.99328l-0.7077,-0.17692c-0.44532,-0.10106 -0.77776,-0.49931 -0.77776,-0.97522c0,-0.05421 0.00431,-0.1074 0.01261,-0.15927c-0.00821,-0.05782 -0.01261,-0.11975 -0.01261,-0.18607z" fill="#a00000" stroke-width="0.5"/></g></g></svg>