<svg version="1.1" xmlns="http://www.w3.org/2000/svg" xmlns:xlink="http://www.w3.org/1999/xlink" width="980.48048" height="630.63063" viewBox="0,0,980.48048,630.63063"><g transform="translate(145.24024,130.31528)"><g data-paper-data="{&quot;isPaintingLayer&quot;:true}" stroke-miterlimit="10" stroke-dasharray="" stroke-dashoffset="0" style="mix-blend-mode: normal"><path d="M-145.24024,500.31535v-630.63063h980.48048v630.63063z" fill="#000000" fill-rule="nonzero" stroke="#ff3838" stroke-width="0" stroke-linecap="butt" stroke-linejoin="miter"/><text transform="translate(304.71471,259.28905) scale(0.5,0.5)" font-size="40" xml:space="preserve" fill="#ffffff" fill-rule="nonzero" stroke="none" stroke-width="1" stroke-linecap="butt" stroke-linejoin="miter" stroke-miterlimit="10" stroke-dasharray="" stroke-dashoffset="0" font-family="Marker" font-weight="normal" text-anchor="start" style="mix-blend-mode: normal"><tspan x="0" dy="0">Loading</tspan></text><g><path d="M337.96869,192.34914c0.51688,-0.02006 2.56914,3.15755 4.22945,3.65961c1.1893,0.32012 2.67088,0.61913 4.24572,0.17711c3.57691,-0.94945 3.13044,-0.04852 4.3578,1.75463c1.27217,1.82588 1.30205,3.52935 -5.07442,2.55592c-2.20035,-0.32482 -3.90394,-1.18658 -5.27104,-1.9344c-0.35862,-0.18144 -3.29324,-2.05999 -3.59812,-4.12852c-0.30491,-2.06854 0.6613,-2.08647 1.11067,-2.08438z" fill="#000000" fill-rule="evenodd" stroke="#001026" stroke-width="1.2" stroke-linecap="round" stroke-linejoin="round"/><path d="M332.79254,195.93804c-0.48999,-0.9235 -0.61663,-2.67661 1.43028,-3.16137c2.38443,-0.5955 3.60757,2.10638 4.16403,3.23243c0.55648,1.12603 0.80068,1.75627 2.22948,3.71768c0.55803,0.78901 1.36288,1.64654 1.81017,2.09801c0.20146,0.15819 0.42563,0.27162 0.69515,0.29532c0.49418,0.02478 -3.24993,-3.35448 -2.71565,-2.296c0.47537,1.18916 1.4774,0.54965 -0.36505,1.28525c-0.21166,0.08452 0.39211,-0.08676 0.17877,0.02647c-2.00711,1.06532 -0.2178,1.47265 -1.1977,0.50581c-2.08017,-2.00938 -3.31486,-0.97171 -2.00847,-1.66217c0.18035,-0.13399 0.42384,-0.83791 0.2672,-0.97342l-0.38655,2.4761c-0.43301,-0.42389 0.34886,0.83522 -0.03339,0.40051c-0.42432,-0.48252 -1.30281,-1.89383 -1.6642,-2.36647c-1.54984,-2.02688 -2.03346,-2.9226 -2.40403,-3.57819z" fill="#000000" fill-rule="evenodd" stroke="#001026" stroke-width="1.2" stroke-linecap="round" stroke-linejoin="round"/><path d="M330.9257,183.00999c1.1023,-0.28694 2.46781,0.79791 1.87767,2.07584c-0.58963,1.16559 -2.14335,1.89981 -3.04416,2.34495c-0.9008,0.44518 -4.74933,1.82026 -7.13965,-1.13425c-0.95995,-1.33012 -2.73847,-5.38273 -0.37622,-6.04573c2.36227,-0.66303 2.9119,1.92341 3.51165,3.40909c0.48843,1.26051 4.85588,-0.58397 5.17077,-0.64992z" fill="#000000" fill-rule="evenodd" stroke="#001026" stroke-width="1.2" stroke-linecap="round" stroke-linejoin="round"/><g fill-rule="evenodd"><path d="M330.72468,191.91672c-0.33385,-0.67562 -0.53168,-1.62021 -0.72739,-3.01415c-0.1519,-1.14661 0.05951,-3.12283 0.05951,-3.12283c0.16347,-1.32485 0.983,-3.61282 2.43973,-2.81962c0.96361,0.54372 1.92826,0.86279 3.5659,1.40969c2.962,0.82268 3.63653,0.71349 3.82756,3.1185c0.12192,2.76415 2.42153,5.89801 -3.27135,7.69136c0,0 -3.05849,0.59236 -7.01876,1.85458c-2.67767,0.84129 -6.77197,1.92314 -8.18908,2.27602c-0.31488,0.06594 -0.6292,0.01954 -0.92087,-0.0717c-4.55269,-1.79626 -7.55376,-3.87738 -6.57861,-5.80509c1.63279,-3.22783 7.47666,1.13585 7.47666,1.13585c0,0 2.94668,-0.70525 4.31898,-1.08079z" fill="#000000" stroke="#001026" stroke-width="1.2" stroke-linecap="round" stroke-linejoin="round"/><path d="M330.27157,187.91522c0,0 -0.28485,-1.55165 2.25519,-1.78695c2.67504,-0.27961 2.71148,1.5405 2.97417,3.02463c0.19359,1.84332 -1.04316,2.06222 -2.34797,2.41563c-1.05745,0.3096 -2.00204,0.50745 -2.00204,0.50745c0,0 -0.91354,-1.64444 -0.87932,-4.16074z" fill="#a00000" stroke="none" stroke-width="1" stroke-linecap="butt" stroke-linejoin="miter"/></g><g fill-rule="evenodd"><path d="M342.87419,159.94579c1.12181,0.34225 2.24312,0.79683 3.45302,1.52147c2.06172,1.15551 3.69358,2.93812 3.69358,2.93812l7.21605,-0.79764c0.22466,0.00104 0.3808,0.24894 0.24527,0.40556l-5.00073,7.5485c-0.08756,-0.49468 1.84937,8.1422 -3.9189,11.64282c-5.76824,3.50063 -13.69426,2.36266 -21.28343,-3.55945c-7.58914,-5.92211 -7.11253,-11.76169 -5.28193,-14.04492c1.83057,-2.28325 5.48982,-1.61455 5.48982,-1.61455c0,0 1.06532,-1.99471 3.74716,-3.73473c1.60014,-1.04854 5.53517,-1.70423 5.53517,-1.70423l3.59211,-4.2073c0.13554,-0.15664 0.38238,-0.0881 0.47152,0.06963z" fill="#000000" stroke="#001026" stroke-width="1.2" stroke-linecap="butt" stroke-linejoin="miter"/><path d="M327.53071,164.23306c4.24147,1.07579 3.17148,4.08157 6.28589,5.93851c3.62972,2.17391 10.84894,0.70222 11.4261,7.01854c0.59986,6.2715 -7.82128,10.11923 -17.53648,2.38968c-7.52216,-5.83195 -7.33824,-11.53804 -5.50766,-13.8213c1.83056,-2.28324 5.33211,-1.52542 5.33211,-1.52542z" fill="#000000" stroke="none" stroke-width="1" stroke-linecap="butt" stroke-linejoin="miter"/><path d="M339.22598,176.1734c-0.9767,2.26476 -2.83156,4.92983 -7.13793,3.31448c-4.84327,-2.11217 -4.84605,-6.33622 -4.63726,-7.75077c0.02373,-0.26949 0.31646,-0.40297 0.51792,-0.24473c0.60444,0.47465 1.97098,1.33483 4.45988,2.42494c2.78057,1.18128 5.56428,1.68862 6.57482,1.80568c0.20199,0.04586 0.31328,0.27107 0.22256,0.45039z" fill="#000000" stroke="#001026" stroke-width="1.2" stroke-linecap="round" stroke-linejoin="round"/><path d="M323.48283,165.0006c0,0 -3.20514,-1.67761 -4.45045,-4.44705" fill="none" stroke="#001026" stroke-width="1.2" stroke-linecap="round" stroke-linejoin="round"/><path d="M321.96553,167.55489c0,0 -2.17928,-0.03265 -4.89025,-1.68547" fill="none" stroke="#001026" stroke-width="1.2" stroke-linecap="round" stroke-linejoin="round"/><path d="M336.35295,170.72267c-0.36285,0.7173 -2.81267,0.88559 -3.57427,0.38775c-0.69463,-0.40769 -0.73211,-2.00308 -0.36981,-2.60806c0.20357,-0.29113 1.23521,0.1181 2.1767,0.59434c0.89661,0.45356 2.08438,1.11067 1.7674,1.62596z" fill="#001026" stroke="#000000" stroke-width="1.2" stroke-linecap="round" stroke-linejoin="round"/><path d="M348.3371,178.53018c2.27209,-0.59604 6.76251,0.09898 6.76251,0.09898" fill="none" stroke="#001026" stroke-width="1.2" stroke-linecap="round" stroke-linejoin="round"/><path d="M352.51809,182.9535c0,0 -3.56694,-1.185 -5.10915,-2.92226" fill="none" stroke="#001026" stroke-width="1.2" stroke-linecap="round" stroke-linejoin="round"/><g fill="#a00000"><path d="M337.69973,161.38212c0.84709,1.44195 -0.35433,3.70564 -2.67491,5.06536c-2.36542,1.33705 -4.90387,1.23535 -5.75094,-0.20656c-0.84709,-1.44195 0.35433,-3.70564 2.67491,-5.06536c2.32063,-1.35975 4.92656,-1.28017 5.75094,0.20656z" stroke="#001026" stroke-width="1.2" stroke-linecap="round" stroke-linejoin="round"/><path d="M330.83547,163.82161c0.24944,-0.49312 0.8122,-0.7152 1.26051,-0.48843c0.44834,0.22679 0.60286,0.8117 0.35341,1.30482c-0.24944,0.49312 -0.8122,0.7152 -1.26051,0.48843c-0.44834,-0.22679 -0.60286,-0.8117 -0.35341,-1.30482" stroke="none" stroke-width="1" stroke-linecap="butt" stroke-linejoin="miter"/></g><g><path d="M342.43186,168.05485c2.34275,-1.29226 4.99405,-1.30234 5.86223,0.4318c0.89086,1.68929 -0.49144,4.19927 -2.879,5.46886c-2.34275,1.29226 -4.63279,0.92205 -5.68132,-0.67809c-0.77956,-1.46408 0.35534,-3.93033 2.6981,-5.22255z" fill="#ffffff" stroke="#001026" stroke-width="1.2" stroke-linecap="round" stroke-linejoin="round"/><path d="M341.38558,170.79109c0.24944,-0.49312 0.78953,-0.67036 1.26051,-0.48843c0.44834,0.22679 0.60286,0.8117 0.35341,1.30482c-0.24944,0.49312 -0.8122,0.7152 -1.26051,0.48843c-0.44834,-0.22679 -0.60286,-0.8117 -0.35341,-1.30482" fill="#001026" stroke="none" stroke-width="1" stroke-linecap="butt" stroke-linejoin="miter"/></g></g><path d="M340.16668,171.83128c0,0 -0.15253,-0.0007 -0.30691,-0.07659c-0.09224,0.15329 -0.17582,0.34112 -0.25563,0.60488c-0.3538,0.70422 -0.70958,1.40746 -1.0653,2.11072l-0.1214,0.48257c0,0 -0.16807,0.60511 -0.77317,0.43704c-0.6051,-0.16808 -0.43704,-0.77317 -0.43704,-0.77317l0.2108,-0.71339c0.34016,-0.67242 0.6801,-1.34496 1.02234,-2.01633c0.48882,-1.51943 1.93511,-3.16583 2.96666,-4.20114c0.83321,-0.83627 2.1232,-0.69376 3.00132,-1.61894c0.32504,-0.34244 0.23752,-0.93824 0.51739,-1.31846c0.14342,-0.19485 0.47258,-0.19329 0.61113,-0.39167c0.7325,-1.0484 0.54217,-1.37228 1.81341,-1.96381c0,0 0.57142,-0.26049 0.83193,0.31094c0.26049,0.57142 -0.31094,0.83193 -0.31094,0.83193c-1.5493,0.68791 -1.52634,2.22632 -2.53416,3.37664c-0.69116,0.78886 -1.73071,1.18406 -2.66937,1.41464c-0.03733,0.00918 -0.07087,0.01937 -0.10105,0.03051c0.08231,0.10639 0.11613,0.2094 0.11613,0.2094c0.07157,0.21808 0.14308,0.43613 0.21466,0.65417l-0.09124,0.58787c0,0 -0.28346,0.56038 -0.84384,0.27693c-0.37461,-0.18948 -0.37209,-0.50271 -0.32929,-0.68959c-0.00216,-0.00661 -0.00435,-0.01323 -0.0065,-0.0198c-0.13002,0.03729 -0.26091,0.07358 -0.35892,0.15992c-0.27156,0.23946 -0.31575,0.64453 -0.45861,0.9844c0.19211,-0.01 0.35188,0.07083 0.35188,0.07083l-0.1778,1.24331c-0.27215,-0.00127 -0.54429,-0.00253 -0.81646,-0.00383z" fill="#a00000" fill-rule="nonzero" stroke="none" stroke-width="0.5" stroke-linecap="butt" stroke-linejoin="miter"/><path d="M335.52451,174.7268c-0.6051,-0.16808 -0.43704,-0.77317 -0.43704,-0.77317l0.14991,-0.52162c0.0405,-0.26995 0.081,-0.53988 0.1215,-0.80985c0.21409,-0.67872 0.17942,-1.66671 0.58135,-2.26233c0.3486,-0.51662 1.1173,-0.96614 1.56552,-1.4107c1.24265,-1.2326 2.60763,-2.67312 3.66445,-4.05622c0.93853,-1.22827 1.53193,-3.32317 2.24497,-4.73278c0,0 0.28346,-0.56038 0.84384,-0.27693c0.56038,0.28346 0.27693,0.84384 0.27693,0.84384c-0.76073,1.50388 -1.3747,3.60917 -2.3724,4.93449c-1.07839,1.43249 -2.49981,2.91907 -3.7767,4.18265c-0.04132,0.04088 -1.31583,1.09346 -1.38595,1.18824c-0.29013,0.39222 -0.27268,1.40251 -0.41769,1.86979c-0.03443,0.23772 -0.06891,0.47544 -0.10334,0.7132l-0.18227,0.67431c0,0 -0.16807,0.60511 -0.77317,0.43704z" fill="#a00000" fill-rule="nonzero" stroke="none" stroke-width="0.5" stroke-linecap="butt" stroke-linejoin="miter"/><path d="M322.78777,175.72971c-0.19581,-0.59673 0.40088,-0.79252 0.40088,-0.79252l0.48142,-0.12646c1.20756,-1.80053 2.45607,-3.64972 3.75127,-5.39497c1.01831,-1.37216 0.89723,-3.30559 3.02611,-3.23823c0,0 0.6256,0.05509 0.57051,0.68067c-0.05506,0.62558 -0.68066,0.57051 -0.68066,0.57051c-0.86403,-0.18561 -1.18003,1.32841 -1.51826,1.98849c-1.14866,2.24178 -2.86045,4.42747 -4.41192,6.41051l-0.82694,0.3029c0,0 -0.59668,0.1958 -0.79252,-0.40088z" fill="#a00000" fill-rule="nonzero" stroke="none" stroke-width="0.5" stroke-linecap="butt" stroke-linejoin="miter"/><path d="M321.69291,174.56364c-0.56038,-0.28346 -0.27693,-0.84384 -0.27693,-0.84384l0.27396,-0.52268c1.36099,-1.85306 2.42093,-3.83887 3.92846,-5.58068c0.94028,-1.08644 2.30872,-1.83807 3.1332,-2.98654c0,0 0.37174,-0.50617 0.87791,-0.13441c0.50617,0.37174 0.13441,0.87791 0.13441,0.87791c-0.88793,1.18808 -2.23223,1.95082 -3.20916,3.08021c-1.4795,1.71034 -2.5146,3.66538 -3.85248,5.48704l-0.16551,0.34614c0,0 -0.28346,0.56038 -0.84384,0.27693z" fill="#a00000" fill-rule="nonzero" stroke="none" stroke-width="0.5" stroke-linecap="butt" stroke-linejoin="miter"/><path d="M345.65882,170.30771c-0.60204,-0.17865 -0.42342,-0.7807 -0.42342,-0.7807l0.0298,-0.10042c0.73364,-1.83519 0.83487,-1.84346 2.61497,-1.29137c0,0 0.59937,0.18746 0.41186,0.78687c-0.18746,0.59937 -0.78687,0.41186 -0.78687,0.41186c-0.32596,-0.10295 -0.77304,-0.70006 -0.94283,-0.40337c-0.14214,0.2483 -0.06203,0.5689 -0.093,0.85333l-0.0298,0.10042c0,0 -0.17865,0.60204 -0.7807,0.42342z" fill="#a00000" fill-rule="nonzero" stroke="none" stroke-width="0.5" stroke-linecap="butt" stroke-linejoin="miter"/><path d="M344.17705,171.86645c0.28346,-0.56038 0.84384,-0.27693 0.84384,-0.27693l0.10863,0.05497c0.43442,0.21978 0.86887,0.43952 1.3033,0.65928c0,0 0.56038,0.28346 0.27693,0.84384c-0.28346,0.56038 -0.84384,0.27693 -0.84384,0.27693c-0.4344,-0.21973 -0.97748,-0.49445 -1.41189,-0.71419c0,0 -0.56038,-0.28346 -0.27693,-0.84384z" fill="#a00000" fill-rule="nonzero" stroke="none" stroke-width="0.5" stroke-linecap="butt" stroke-linejoin="miter"/><path d="M341.87001,172.52055c0.5967,-0.19578 0.79252,0.40088 0.79252,0.40088l-0.10103,0.8055c-0.18228,0.1806 -0.36456,0.36119 -0.54683,0.54175c0,0 -0.44614,0.44198 -0.88813,-0.00418c-0.44201,-0.44612 0.00415,-0.8881 0.00415,-0.8881c0.10266,-0.10175 0.2054,-0.20348 0.30805,-0.3052c0.0057,-0.18867 0.08516,-0.43707 0.4313,-0.55066z" fill="#a00000" fill-rule="nonzero" stroke="none" stroke-width="0.5" stroke-linecap="butt" stroke-linejoin="miter"/><path d="M343.23651,202.91596c-0.61839,0.10942 -0.72783,-0.50894 -0.72783,-0.50894l0.14058,-0.20252c-0.30183,-0.22311 -0.61454,-0.41405 -0.92822,-0.60316c-0.11512,0.01712 -0.20363,0.00405 -0.20363,0.00405c-0.23106,-0.03536 -0.46934,-0.03878 -0.69317,-0.10608c-0.08523,-0.02564 -0.17675,-0.24825 -0.20958,-0.16554c-0.09769,0.24622 0.20595,0.69429 -0.03959,0.79371c-0.44966,0.18208 -0.97136,-0.07763 -1.44237,-0.19367c-0.26458,-0.06518 -0.58349,-0.74695 -0.6581,-0.48489c-0.0598,0.21013 0.14167,0.56309 -0.05749,0.65291c-0.84222,0.37992 -2.30809,-0.00073 -2.02539,-1.35217c0.08245,-0.3941 0.69944,-0.399 1.04919,-0.59851l0.5879,0.09124c0,0 0.10881,0.05504 0.20626,0.16455c0.183,-0.02535 0.40342,-0.02401 0.66137,0.01426c0.26528,0.03935 0.51114,0.18911 0.72228,0.35443c0.10615,0.08316 0.16473,0.49109 0.18797,0.35826c0.03662,-0.20947 -0.30503,-0.48558 -0.14185,-0.622c0.22602,-0.18895 0.50667,-0.2627 0.801,-0.2779c0.02162,-0.05415 0.05275,-0.11046 0.09534,-0.16846c0.37174,-0.50617 0.87791,-0.13441 0.87791,-0.13441c0.63387,0.46857 1.31576,0.7952 1.95365,1.26106l0.35272,0.99597c0,0 0.10942,0.61839 -0.50894,0.72783z" fill="#a00000" fill-rule="nonzero" stroke="none" stroke-width="0.5" stroke-linecap="butt" stroke-linejoin="miter"/><path d="M340.58742,205.87521c-0.5967,0.19578 -0.79252,-0.40088 -0.79252,-0.40088l-0.19071,-0.64119c-0.01703,-0.23593 -0.03407,-0.4719 -0.05113,-0.70786c0,0 -0.04522,-0.62639 0.58113,-0.67162c0.62639,-0.04522 0.67162,0.58113 0.67162,0.58113c0.01704,0.23595 0.03408,0.47192 0.05113,0.70786l0.13132,0.34005c0,0 0.19578,0.5967 -0.40088,0.79252z" fill="#a00000" fill-rule="nonzero" stroke="none" stroke-width="0.5" stroke-linecap="butt" stroke-linejoin="miter"/><path d="M337.82335,207.09582l0.22102,-0.70659c0,0 0.18746,-0.59937 0.78687,-0.41186c0.59937,0.18746 0.41186,0.78687 0.41186,0.78687l-0.22102,0.70659c0,0 -0.18746,0.59937 -0.78687,0.41186c-0.59937,-0.18746 -0.41186,-0.78687 -0.41186,-0.78687z" fill="#a00000" fill-rule="nonzero" stroke="none" stroke-width="0.5" stroke-linecap="butt" stroke-linejoin="miter"/><path d="M344.5073,208.90272c-0.50414,0.37448 -0.87863,-0.1297 -0.87863,-0.1297l-0.28448,-0.5477c-0.01704,-0.23595 -0.03408,-0.47192 -0.05113,-0.70786c0,0 -0.01371,-0.19009 0.07867,-0.36838c-0.14365,-0.18569 -0.17684,-0.44471 -0.06382,-0.66816c0.15658,-0.30949 0.53437,-0.43349 0.84384,-0.27693c0.30949,0.15658 0.43349,0.53437 0.27693,0.84384c-0.00441,0.00872 -0.00901,0.01731 -0.01378,0.02571c0.11712,0.16322 0.13089,0.35344 0.13089,0.35344c0.01704,0.23595 0.03408,0.47192 0.05113,0.70786l0.04007,-0.11072c0,0 0.37444,0.50416 -0.1297,0.87863z" fill="#a00000" fill-rule="nonzero" stroke="none" stroke-width="0.5" stroke-linecap="butt" stroke-linejoin="miter"/><path d="M338.34712,200.78641c-0.19578,-0.5967 0.40088,-0.79252 0.40088,-0.79252l0.41442,-0.08254c0.01002,0.00089 0.02003,0.00177 0.03004,0.00266c0.00905,-0.18023 0.08604,-0.54016 0.5503,-0.59602c0.62349,-0.07499 0.69851,0.54853 0.69851,0.54853l0.0256,0.31488c0.14195,0.44172 0.31788,0.78096 0.27901,1.06217c0.06932,0.07 0.12028,0.15467 0.15035,0.24617l0.21466,0.6542v0c0.05011,0.15271 0.04199,0.32453 -0.0363,0.47931c-0.11099,0.21945 -0.33326,0.34561 -0.56349,0.34465l-0.02725,0.42895c-0.00356,0.08702 -0.02534,0.1747 -0.06723,0.25753c-0.15658,0.30949 -0.53437,0.43349 -0.84384,0.27693c-0.09414,-0.0476 -0.17107,-0.11572 -0.2282,-0.1961l-0.47929,-0.64531l0.00595,-0.00443l-0.01994,-0.0152c-0.27574,-0.44288 -0.50573,-0.91903 -0.67143,-1.4137c0,0 -0.15614,-0.47578 0.23528,-0.71705c-0.02585,-0.04407 -0.04879,-0.0948 -0.06792,-0.15309zM339.35475,201.21908c-0.00044,-0.01 -0.00092,-0.01997 -0.00137,-0.02998c-0.00446,-0.0004 -0.00894,-0.00078 -0.01341,-0.00117c0.00571,0.01135 0.0106,0.02184 0.01477,0.03119z" fill="#ffffff" fill-rule="nonzero" stroke="none" stroke-width="0.5" stroke-linecap="butt" stroke-linejoin="miter"/><path d="M337.74621,175.42024c0.56301,-0.27823 0.84122,0.28475 0.84122,0.28475l-0.1635,0.48385c0.15091,-0.11988 0.29636,-0.22456 0.40681,-0.29622c0,0 0.53136,-0.33468 0.86607,0.1967c0.33466,0.53137 -0.1967,0.86607 -0.1967,0.86607c-1.12924,0.68226 -1.8224,2.59434 -2.69617,0.34395c-0.08338,-0.21466 -0.03669,-0.45858 -0.04991,-0.68906l-0.19641,-0.59858l0.23998,-0.07874l0.04499,-0.66221c0.20253,0.09509 0.40571,0.19098 0.61099,0.28168l0.17212,-0.15155l0.05089,0.0578c0.02168,-0.01331 0.04486,-0.02613 0.06971,-0.0384z" fill="#8da900" fill-rule="nonzero" stroke="none" stroke-width="0.5" stroke-linecap="butt" stroke-linejoin="miter"/><path d="M330.0026,172.79172c0,0 0.59142,-0.19407 0.78988,0.39301c0.17973,-0.11062 0.41104,-0.12809 0.61318,-0.02582c0.15473,0.0783 0.26312,0.21187 0.31322,0.36458v0l0.10842,0.33037c0.12512,0.08069 0.25904,0.14186 0.4044,0.17267l0.58297,-0.05456c0,0 0.52678,-0.03803 0.64905,0.43874c0.17197,0.00071 0.46006,0.05538 0.57812,0.39076c0.46259,-0.05594 1.08508,-0.09605 1.27328,-0.11022l0.43733,0.12094c0,0 0.15171,0.07677 0.25731,0.22932c0.04211,-0.04813 0.0859,-0.09391 0.13275,-0.13515c0,0 0.47131,-0.41502 0.88633,0.05629c0.41503,0.47131 -0.05629,0.88633 -0.05629,0.88633c-0.0742,0.06532 -0.25919,0.23088 -0.46349,0.40848c0.03509,0.14106 0.02162,0.29489 -0.04913,0.43476c-0.05911,0.11682 -0.14971,0.20723 -0.2563,0.26607c-0.09831,0.22077 -0.31489,0.30246 -0.43934,0.33185c0.00174,0.0034 0.00346,0.00677 0.00515,0.0102c0.20556,0.18504 0.27068,0.49143 0.13983,0.75009c-0.15658,0.30949 -0.53437,0.43349 -0.84384,0.27693c-0.13392,-0.06775 -0.23314,-0.17692 -0.28988,-0.30409c-0.10143,-0.08224 -0.19881,-0.1713 -0.29095,-0.26618c-0.02266,-0.00908 -0.04584,-0.01951 -0.06949,-0.0315c-0.26266,-0.13286 -0.33994,-0.32658 -0.34791,-0.49492c-0.11712,-0.1834 -0.215,-0.37788 -0.2886,-0.5788l-0.06973,-0.03985c0,0 -0.13426,-0.18072 -0.13375,-0.40614c-0.11613,-0.14167 -0.19723,-0.30401 -0.2282,-0.48622c-0.61001,0.27492 -0.88124,1.19877 -1.62308,1.13319c-1.03418,-0.09142 -1.20554,-1.461 -1.27085,-2.27241c-0.22229,0.06254 -0.44327,0.12854 -0.65452,0.22066c-0.33224,0.14489 -0.62696,0.61464 -0.9687,0.49397c-0.41364,-0.14604 -0.74376,-1.36748 -0.88049,-1.79288l0.01446,-0.07798l-0.0247,0.00181l-0.05038,-0.69757c-0.01013,-0.11308 0.01023,-0.23029 0.06525,-0.33902c0.15658,-0.30949 0.53437,-0.43349 0.84384,-0.27693c0.03019,0.01528 0.05867,0.03268 0.08525,0.05193l0.69645,0.48698l-0.00852,0.01217c0.19703,0.08537 0.39198,0.17528 0.58378,0.27175l-0.15218,-0.14365zM331.80837,175.19134c-0.01251,-0.00317 -0.02501,-0.00626 -0.03757,-0.00935c0.00197,0.02109 0.00392,0.04185 0.00578,0.06215c0.00966,-0.01747 0.02031,-0.03508 0.0318,-0.05279z" fill="#8da900" fill-rule="nonzero" stroke="none" stroke-width="0.5" stroke-linecap="butt" stroke-linejoin="miter"/><path d="M331.08969,177.0092c1.3499,-0.10412 1.59889,0.03987 2.07912,0.78008c0.41824,-0.07183 0.9065,0.401 1.25622,0.9007l0.28863,-0.16543c0.56327,0.20151 1.08906,0.59377 1.42871,1.0862c0,0 0.33466,0.53137 -0.1967,0.8661c-0.5314,0.3347 -0.8661,-0.1967 -0.8661,-0.1967c-0.01346,-0.0256 -0.02824,-0.05067 -0.04426,-0.0752c-0.18432,0.15404 -0.44882,0.19439 -0.67772,0.083c-0.23687,0.05002 -0.40285,-0.03092 -0.51376,-0.13518l-0.56206,-0.14572c-0.1301,-0.13727 -0.33369,-0.25185 -0.50969,-0.37496c-0.55051,0.25682 -0.82255,-0.29377 -0.82255,-0.29377l0.00992,-0.26339c-0.44882,-0.22882 -0.89288,-0.49638 -1.29472,-0.8115l-0.15175,0.20663l-0.58838,-0.4321c-0.24983,-0.17673 -0.33926,-0.51445 -0.19696,-0.79574c0.12751,-0.2521 0.40182,-0.38108 0.66642,-0.33568l0.6957,0.1027z" fill="#8da900" fill-rule="nonzero" stroke="none" stroke-width="0.5" stroke-linecap="butt" stroke-linejoin="miter"/><path d="M337.94898,178.56707c-0.57142,0.26049 -0.83193,-0.31094 -0.83193,-0.31094l-0.27926,-1.31053c0.44892,-0.09443 0.89789,-0.18884 1.34681,-0.28327c0,0 0.628,0.00293 0.62506,0.63092c-0.00209,0.44464 -0.31753,0.57298 -0.50153,0.61005c0.03248,0.18947 0.01489,0.49322 -0.35915,0.66377z" fill="#a00000" fill-rule="nonzero" stroke="none" stroke-width="0.5" stroke-linecap="butt" stroke-linejoin="miter"/><path d="M336.45242,178.32516c-0.28346,0.56038 -0.84384,0.27693 -0.84384,0.27693l-0.21721,-0.10988c-0.27276,-0.14259 -0.50521,-0.35045 -0.70617,-0.59239l-0.13334,0.11742l-0.42351,-0.48093c-0.17264,-0.18713 -0.22042,-0.46893 -0.09872,-0.70947c0.12166,-0.24056 0.37699,-0.36901 0.63002,-0.34082l0.63836,0.05621l-0.00393,0.04472l0.12125,-0.02302c0.25422,0.12438 0.50849,0.24875 0.76271,0.37312c0,0 0.54745,0.27694 0.28647,0.82443c0.07649,0.13763 0.10834,0.32569 -0.01207,0.56372z" fill="#a00000" fill-rule="nonzero" stroke="none" stroke-width="0.5" stroke-linecap="butt" stroke-linejoin="miter"/><path d="M333.12314,178.36398c-0.44614,0.44198 -0.88813,-0.00418 -0.88813,-0.00418l-0.25125,-0.25448c-0.12039,-0.12054 -0.282,-0.21951 -0.42828,-0.32649c-0.27141,0.13599 -0.56971,-0.01487 -0.56971,-0.01487l-0.86885,-0.43949c-0.09467,-0.04788 -0.17203,-0.11649 -0.22922,-0.19751c-0.0182,-0.00571 -0.03645,-0.01152 -0.05469,-0.01738l-0.25231,-0.07002c0,0 -0.6051,-0.16808 -0.43703,-0.77317c0.03978,-0.1432 0.10402,-0.24314 0.17899,-0.3122c0.18492,-0.1905 0.43323,-0.17485 0.56803,-0.14734c-0.01475,-0.11945 0.00461,-0.24442 0.06301,-0.35992c0.12166,-0.24056 0.37699,-0.36901 0.63002,-0.34082l0.63836,0.05621l-0.00208,0.02376l0.06901,-0.0142c0.59802,0.18591 1.17752,0.43468 1.7369,0.71619c0,0 0.56038,0.28346 0.27693,0.84384c-0.01816,0.03586 -0.03741,0.06824 -0.05757,0.09747c0.01867,0.0769 0.02225,0.1662 0.00292,0.26961c0.02334,0.12968 0.00628,0.26775 -0.05778,0.39442c-0.00599,0.01184 -0.01229,0.02341 -0.01892,0.0347c0.09962,0.1303 0.30638,0.48438 -0.04835,0.83583z" fill="#a00000" fill-rule="nonzero" stroke="none" stroke-width="0.5" stroke-linecap="butt" stroke-linejoin="miter"/><path d="M328.54782,175.30325c-0.30949,-0.15658 -0.43349,-0.53437 -0.27693,-0.84384c0.15658,-0.30949 0.53437,-0.43349 0.84384,-0.27693c0.30949,0.15658 0.43349,0.53437 0.27693,0.84384c-0.15658,0.30949 -0.53437,0.43349 -0.84384,0.27693z" fill="#a00000" fill-rule="nonzero" stroke="none" stroke-width="0.5" stroke-linecap="butt" stroke-linejoin="miter"/><path d="M334.0074,177.22434c-0.14155,0.27981 -0.35212,0.34924 -0.52752,0.34859c-0.00956,0.00947 -0.01932,0.01863 -0.02936,0.02743c0.08979,0.03959 0.17845,0.08841 0.26528,0.1494c0.18717,0.13149 0.33207,0.31976 0.48573,0.49433c0.61199,0.30448 1.21338,0.62562 1.80279,0.92372l0.76026,0.38458c0.30949,0.15658 0.43349,0.53437 0.27693,0.84384c-0.14226,0.28126 -0.4673,0.40932 -0.75773,0.3128l-0.53866,-0.16847c-0.20471,0.3016 -0.60784,0.24208 -0.60784,0.24208c-2.32833,-0.34368 -3.69842,-1.28505 -5.54809,-2.64355l-0.58838,-0.4321c-0.24983,-0.17673 -0.33926,-0.51445 -0.19696,-0.79574c0.04252,-0.08407 0.10138,-0.15444 0.17075,-0.20924c-0.14611,-0.12286 -0.3437,-0.37589 -0.15093,-0.75709c0.17841,-0.35268 0.46643,-0.37111 0.65551,-0.33634c0.00656,-0.00389 0.01322,-0.00774 0.0201,-0.0115c0.03826,-0.18339 0.16895,-0.4997 0.61506,-0.49761c0.62801,0.00295 0.62506,0.63093 0.62506,0.63093c-0.02724,0.13563 -0.02531,0.28863 -0.02646,0.43981c0.13223,-0.05772 0.30405,-0.07074 0.51526,0.03607c0.50972,0.25784 0.32129,0.74481 0.28302,0.83074c0.08057,0.0829 0.16839,0.14556 0.26201,0.19373c0.05521,0.01694 0.11039,0.0343 0.16545,0.0522c0.07046,-0.0624 0.15359,-0.1076 0.2425,-0.13325c0.14696,-0.20677 0.27845,-0.42494 0.39105,-0.65136l1.15833,-0.11783c0,0 0.56038,0.28346 0.27693,0.84384zM331.31126,176.75782c0.04406,0.08264 0.09191,0.15402 0.1431,0.21582z" fill="#000000" fill-rule="nonzero" stroke="none" stroke-width="0.5" stroke-linecap="butt" stroke-linejoin="miter"/><path d="M332.06115,176.71374l-0.6926,-0.19235" fill="none" fill-rule="nonzero" stroke="#001026" stroke-width="1.2" stroke-linecap="round" stroke-linejoin="miter"/><path d="M330.32967,176.23286l2.29899,0.45204" fill="none" fill-rule="nonzero" stroke="#a00000" stroke-width="1.2" stroke-linecap="round" stroke-linejoin="miter"/><path d="M333.1984,176.1832l-1.64558,1.3793" fill="none" fill-rule="nonzero" stroke="#000000" stroke-width="1.2" stroke-linecap="round" stroke-linejoin="miter"/><path d="M330.43175,174.62569l0.27088,2.74369" fill="none" fill-rule="nonzero" stroke="#000000" stroke-width="1.2" stroke-linecap="round" stroke-linejoin="miter"/><path d="M337.45157,185.28697c0.34361,-0.52564 0.8693,-0.18203 0.8693,-0.18203l0.58771,0.38835c0.00222,0.02887 0.00443,0.05772 0.00663,0.08654l0.04241,-0.04202l0.46042,0.46474c0.14594,0.14055 0.21509,0.3444 0.18544,0.54432c0.46341,0.65229 0.62128,1.90863 -0.51424,2.26458c-1.14217,0.35804 -2.78656,-1.33819 -2.15994,-2.49703c0.11313,-0.20922 0.2751,-0.34944 0.46436,-0.43284c-0.07422,-0.14909 -0.10033,-0.35255 0.05791,-0.5946z" fill="#a00000" fill-rule="nonzero" stroke="none" stroke-width="0.5" stroke-linecap="butt" stroke-linejoin="miter"/><path d="M338.35007,187.39189c-0.30949,-0.15658 -0.43349,-0.53437 -0.27693,-0.84384c0.15658,-0.30949 0.53437,-0.43349 0.84384,-0.27693c0.30949,0.15658 0.43349,0.53437 0.27693,0.84384c-0.15658,0.30949 -0.53437,0.43349 -0.84384,0.27693z" fill="#ffffff" fill-rule="nonzero" stroke="none" stroke-width="0.5" stroke-linecap="butt" stroke-linejoin="miter"/><path d="M332.24837,177.12441l-1.98381,-0.45055l0.06878,-1.22905" fill="none" fill-rule="nonzero" stroke="#000000" stroke-width="1.2" stroke-linecap="round" stroke-linejoin="miter"/><path d="M334.95421,190.49953c-0.15658,0.30949 -0.53437,0.43349 -0.84384,0.27693c-0.03528,-0.01783 -0.06814,-0.03857 -0.09841,-0.06172c0.04811,0.15129 0.03921,0.32083 -0.03808,0.47374c-0.15658,0.30949 -0.53437,0.43349 -0.84384,0.27693c-0.10332,-0.05227 -0.18601,-0.12918 -0.24443,-0.22003c-0.18647,0.19053 -0.48177,0.24764 -0.73229,0.12089c-0.04862,-0.0246 -0.09268,-0.05468 -0.13176,-0.08901c-0.17993,0.23633 -0.50823,0.3182 -0.78279,0.17932c-0.30949,-0.15658 -0.43349,-0.53437 -0.27693,-0.84384c0.01217,-0.02406 0.02568,-0.04698 0.0404,-0.06876c-0.27132,-0.17065 -0.37295,-0.52299 -0.22538,-0.81472c0.15658,-0.30949 0.53437,-0.43349 0.84384,-0.27693c0.02406,0.01217 0.04701,0.02569 0.06878,0.04039c0.17065,-0.27132 0.52299,-0.37295 0.81472,-0.22538c0.05378,0.02717 0.10193,0.06111 0.14405,0.10015c0.18605,-0.19583 0.48527,-0.25574 0.73871,-0.12755c0.07517,0.03802 0.13938,0.08908 0.19127,0.14905c0.18457,-0.20934 0.4937,-0.27649 0.75439,-0.14463c0.06127,0.031 0.11525,0.07065 0.16126,0.11673c0.1868,-0.15825 0.45747,-0.19867 0.68971,-0.08122c0.30949,0.15658 0.43349,0.53437 0.27693,0.84384c-0.09908,0.19583 -0.28668,0.31738 -0.4896,0.3406c-0.0051,0.01185 -0.01062,0.0236 -0.01652,0.03531zM333.6969,190.34466c0.03528,0.01783 0.06814,0.03857 0.09841,0.06172c-0.00329,-0.01034 -0.0063,-0.02073 -0.00904,-0.03121c-0.00694,-0.00322 -0.01386,-0.00656 -0.02073,-0.01003c-0.07517,-0.03802 -0.13938,-0.08908 -0.19127,-0.14905c-0.02156,0.02447 -0.04484,0.04697 -0.0695,0.06747c0.06528,0.0096 0.13009,0.02968 0.19218,0.0611zM332.91591,190.39979c0.01773,0.0209 0.03394,0.0429 0.04866,0.06573c0.01513,-0.01545 0.03098,-0.03007 0.04748,-0.04377c-0.03225,-0.00476 -0.06434,-0.01203 -0.09612,-0.02202zM331.85712,190.36496c0.02866,0.01804 0.05547,0.03809 0.08023,0.05988c0.00687,-0.00902 0.01397,-0.01783 0.02125,-0.02639c-0.00718,-0.00334 -0.01435,-0.00675 -0.02148,-0.01034c-0.02406,-0.01217 -0.04698,-0.02568 -0.06876,-0.0404c-0.00366,0.00584 -0.00742,0.01159 -0.01125,0.01723z" fill="#e93e3e" fill-rule="nonzero" stroke="none" stroke-width="0.5" stroke-linecap="butt" stroke-linejoin="miter"/><path d="M342.87981,194.35073c-0.15658,0.30949 -0.53437,0.43349 -0.84384,0.27693c-0.08191,-0.04141 -0.15081,-0.09833 -0.20497,-0.1654c-0.12925,0.02299 -0.26679,0.0058 -0.39291,-0.05804c-0.12927,-0.06536 -0.22613,-0.16934 -0.28376,-0.29082c-0.15844,0.05903 -0.34009,0.05427 -0.5028,-0.02806c-0.15262,-0.07718 -0.26007,-0.20816 -0.31108,-0.3582c-0.18235,0.12194 -0.42338,0.14463 -0.63307,0.03856c-0.16486,-0.0834 -0.27709,-0.22955 -0.3223,-0.39477c-0.17619,0.09834 -0.39647,0.11017 -0.59007,0.01222c-0.24468,-0.12376 -0.37342,-0.38585 -0.33923,-0.64308c-0.1353,0.02889 -0.281,0.0134 -0.41405,-0.05391c-0.16466,-0.08329 -0.27679,-0.2292 -0.32212,-0.3941c-0.18705,0.17818 -0.47309,0.22883 -0.71675,0.10555c-0.12927,-0.06536 -0.22613,-0.16934 -0.28376,-0.29082c-0.15844,0.059 -0.34009,0.05427 -0.5028,-0.02806c-0.06621,-0.0335 -0.12393,-0.07712 -0.1722,-0.12801c-0.06963,-0.00875 -0.13895,-0.02938 -0.20516,-0.06286c-0.05103,-0.02583 -0.09701,-0.05766 -0.13752,-0.09419c-0.11167,0.00923 -0.22721,-0.01132 -0.33456,-0.06564c-0.18114,-0.09164 -0.29877,-0.25908 -0.33373,-0.44428c-0.1187,0.01418 -0.24269,-0.00531 -0.3574,-0.06331c-0.30949,-0.15658 -0.43349,-0.53437 -0.27693,-0.84384c0.15658,-0.30949 0.53437,-0.43349 0.84384,-0.27693c0.18114,0.09164 0.29877,0.25908 0.33373,0.44428c0.1187,-0.01418 0.24269,0.00531 0.3574,0.06331c0.05103,0.02583 0.09701,0.05766 0.13752,0.09419c0.1117,-0.00922 0.22721,0.01132 0.33456,0.06564c0.06621,0.0335 0.12396,0.0771 0.17221,0.12799c0.06963,0.00875 0.13892,0.0294 0.20515,0.06292c0.12927,0.06536 0.22613,0.16934 0.28376,0.29082c0.15843,-0.05899 0.34005,-0.05423 0.50279,0.02805c0.16466,0.08329 0.27679,0.2292 0.32212,0.3941c0.18707,-0.17819 0.47309,-0.22883 0.71675,-0.10555c0.24468,0.12379 0.37342,0.38585 0.33923,0.64308c0.1353,-0.02889 0.281,-0.0134 0.41405,0.05391c0.16486,0.0834 0.27709,0.22955 0.3223,0.39477c0.17619,-0.09834 0.39647,-0.11017 0.59007,-0.01222c0.15262,0.07718 0.26006,0.20816 0.31108,0.3582c0.18234,-0.12191 0.42338,-0.14463 0.63307,-0.03856c0.12927,0.06536 0.22613,0.16934 0.28376,0.29082c0.15843,-0.05899 0.34009,-0.05427 0.5028,0.02806c0.08191,0.04141 0.15081,0.09833 0.20497,0.1654c0.12925,-0.02299 0.26679,-0.0058 0.39291,0.05804c0.30949,0.15658 0.43349,0.53437 0.27693,0.84384z" fill="#e93e3e" fill-rule="nonzero" stroke="none" stroke-width="0.5" stroke-linecap="butt" stroke-linejoin="miter"/><path d="M330.90119,189.46911c-0.30949,-0.15658 -0.43349,-0.53437 -0.27693,-0.84384c0.14754,-0.29172 0.49163,-0.41861 0.78985,-0.30115c0.00884,-0.02475 0.01929,-0.04922 0.03146,-0.07328c0.15658,-0.30949 0.53437,-0.43349 0.84384,-0.27693c0.11978,0.06061 0.21179,0.15435 0.27048,0.26446c0.00624,-0.01522 0.01315,-0.03033 0.02073,-0.04528c0.15658,-0.30949 0.53437,-0.43349 0.84384,-0.27693c0.11133,0.0563 0.19863,0.14124 0.25753,0.24131c0.18675,-0.15663 0.45612,-0.19628 0.68739,-0.07929c0.08191,0.04144 0.15083,0.09838 0.20498,0.16546c0.18713,-0.17213 0.46858,-0.2197 0.70884,-0.09813c0.30949,0.15658 0.43349,0.53437 0.27693,0.84384c-0.15658,0.30949 -0.53437,0.43349 -0.84384,0.27693c-0.08191,-0.04144 -0.15083,-0.09838 -0.20498,-0.16546c-0.18713,0.17213 -0.46858,0.2197 -0.70884,0.09813c-0.11132,-0.05631 -0.19863,-0.14124 -0.25753,-0.24131c-0.18675,0.15663 -0.45613,0.19626 -0.68739,0.07929c-0.11978,-0.06061 -0.21179,-0.15435 -0.27048,-0.26446c-0.00624,0.01522 -0.01315,0.03033 -0.02073,0.04528c-0.14754,0.29172 -0.49165,0.41858 -0.78985,0.30114c-0.00884,0.02478 -0.01928,0.04922 -0.03147,0.07328c-0.15658,0.30949 -0.53437,0.43349 -0.84384,0.27693z" fill="#e93e3e" fill-rule="nonzero" stroke="none" stroke-width="0.5" stroke-linecap="butt" stroke-linejoin="miter"/><path d="M344.84145,195.48378c-0.06189,-0.03128 -0.08667,-0.10685 -0.05538,-0.16877c0.03128,-0.06189 0.10685,-0.08667 0.16877,-0.05538c0.06189,0.03128 0.08667,0.10685 0.05538,0.16877c-0.03128,0.06189 -0.10685,0.08667 -0.16877,0.05538z" fill="#a00000" fill-rule="nonzero" stroke="none" stroke-width="0.5" stroke-linecap="butt" stroke-linejoin="miter"/><path d="M345.28912,192.9619c-0.01498,-0.1247 0.10969,-0.13969 0.10969,-0.13969l0.00583,-0.00071c0.16627,-0.02 0.33254,-0.03999 0.49878,-0.05999c0,0 0.1247,-0.01498 0.13969,0.10969c0.01498,0.1247 -0.10969,0.13969 -0.10969,0.13969c-0.16625,0.01999 -0.33835,0.0407 -0.50464,0.0607c0,0 -0.1247,0.01498 -0.13969,-0.10969z" fill="#a00000" fill-rule="nonzero" stroke="none" stroke-width="0.5" stroke-linecap="butt" stroke-linejoin="miter"/><path d="M346.37533,194.22323c-0.05368,0.1061 -0.15066,0.17587 -0.25858,0.19866c0.07097,0.08401 0.12719,0.21732 0.03515,0.39921c-0.1701,0.33625 -0.50632,0.16616 -0.50632,0.16616l-0.06821,-0.04023c-0.04114,-0.01322 -0.08174,-0.02521 -0.12187,-0.03624c-0.03085,0.03176 -0.06674,0.05741 -0.10571,0.0763c0.03208,0.02092 0.06954,0.06223 0.04896,0.13639c-0.00672,0.02416 -0.01687,0.04214 -0.02893,0.05545c-0.0026,0.00964 -0.00644,0.01985 -0.01187,0.03049c-0.05671,0.11209 -0.16877,0.05538 -0.16877,0.05538l-0.0629,-0.03181c-0.05481,-0.03032 -0.10662,-0.06929 -0.15262,-0.11454c-0.07618,-0.02856 -0.15595,-0.05924 -0.23599,-0.0884c-0.00313,0.0061 -0.00623,0.0124 -0.00938,0.01884l-0.16763,0.09373c0,0 -0.01889,0.0062 -0.04408,0.00617c-0.00221,0.00854 -0.0054,0.01698 -0.00953,0.0252c-0.03128,0.06189 -0.10685,0.08667 -0.16877,0.05538c-0.03031,-0.01535 -0.05173,-0.04129 -0.062,-0.07104c-0.00285,0.00395 -0.00589,0.00771 -0.00914,0.01125c-0.00273,0.02267 -0.0116,0.04778 -0.03366,0.06829c-0.0022,0.00996 -0.00571,0.01983 -0.01054,0.02936c-0.03128,0.06189 -0.10685,0.08667 -0.16877,0.05538c-0.04733,-0.02394 -0.07293,-0.07371 -0.06842,-0.12348c-0.00214,-0.00243 -0.00418,-0.00492 -0.00609,-0.00746c-0.02804,-0.03706 -0.03432,-0.08828 -0.01194,-0.13257c0.00149,-0.00295 0.00306,-0.00582 0.00475,-0.00858c-0.02208,-0.0531 -0.04586,-0.10494 -0.0698,-0.15668c-0.06668,-0.00032 -0.13342,-0.00063 -0.20013,-0.00092c0,0 -0.1256,-0.00059 -0.12501,-0.1262c0.00041,-0.08312 0.05555,-0.11095 0.09277,-0.12031c0.00066,-0.02332 0.00211,-0.04624 0.00435,-0.06871c-0.05542,-0.02801 -0.11088,-0.05607 -0.16625,-0.08408l-0.03874,0.0766c0,0 -0.02315,0.04575 -0.06907,0.06401c0.02923,0.02223 0.07799,0.07455 0.03654,0.15652c-0.05671,0.11209 -0.16877,0.05538 -0.16877,0.05538l-0.0629,-0.03181c-0.0629,-0.03181 -0.12576,-0.06361 -0.18868,-0.09544c0,0 -0.11209,-0.05671 -0.05538,-0.16877c0.05671,-0.11209 0.16877,-0.05538 0.16877,-0.05538c0.02657,0.01345 0.0644,0.03258 0.10398,0.05259c-0.01076,-0.04665 0.01139,-0.09045 0.01139,-0.09045l0.02847,-0.05627l-0.04125,-0.04521c0,-0.00037 0.00001,-0.00082 0,-0.00117c-0.05029,-0.02544 -0.10053,-0.05088 -0.15088,-0.07632c0,0 -0.11209,-0.05671 -0.05538,-0.16877c0.05671,-0.11209 0.16877,-0.05538 0.16877,-0.05538c0.02775,0.01405 0.05617,0.0284 0.08511,0.04306c0.01831,-0.01428 0.04383,-0.02419 0.07932,-0.02404c0.05512,0.00024 0.08593,0.02458 0.10316,0.0518c0.01797,-0.0892 0.05352,-0.15239 0.09695,-0.19689c-0.05118,-0.1029 -0.05487,-0.22782 0.00101,-0.33821c0.09394,-0.18571 0.32063,-0.2601 0.50632,-0.16616c0.09315,0.04714 0.15831,0.12768 0.18826,0.21972c0.00459,0.00169 0.00912,0.00365 0.01359,0.0059c0.06189,0.03128 0.08667,0.10685 0.05538,0.16877c-0.00852,0.01683 -0.0203,0.03088 -0.0342,0.0419c0.1308,-0.02033 0.24757,0.03876 0.24757,0.03876c0.14647,0.07823 0.29353,0.12516 0.44254,0.15952c-0.0102,-0.01088 -0.02252,-0.01904 -0.03742,-0.02345c0,0 -0.07628,-0.03857 -0.07113,-0.11498c-0.02858,-0.01443 -0.05715,-0.02889 -0.08572,-0.04336l0.00114,0.03834c0,0 -0.11935,0.03916 -0.15849,-0.08019c-0.03916,-0.11935 0.08019,-0.15849 0.08019,-0.15849l0.19058,-0.02382c0.10483,0.05303 0.20965,0.10606 0.31448,0.15906c0,0 0.11209,0.05671 0.05538,0.16877c-0.01197,0.02369 -0.02647,0.03985 -0.0418,0.05059c0.01074,0.02632 0.01995,0.05339 0.02783,0.08066c0.14235,0.02441 0.28715,0.0478 0.43543,0.08562c-0.04016,-0.09775 -0.03921,-0.21174 0.01225,-0.31343c0.09394,-0.18571 0.32063,-0.2601 0.50632,-0.16616c0.18571,0.09394 0.2601,0.32063 0.16616,0.50632zM344.23115,194.97254c0.03031,0.01535 0.05173,0.04129 0.062,0.07104c0.01099,-0.01526 0.02507,-0.02747 0.04085,-0.03624c-0.00083,-0.00636 -0.00117,-0.01282 -0.00099,-0.01928l0.00037,-0.07813c-0.05597,-0.0103 -0.10868,-0.01589 -0.15662,-0.01496c0.01014,0.02256 0.02016,0.0453 0.02989,0.06821c0.00831,0.00221 0.01652,0.0053 0.02454,0.00937z" fill="#a00000" fill-rule="nonzero" stroke="none" stroke-width="0.5" stroke-linecap="butt" stroke-linejoin="miter"/><path d="M347.35278,194.16469l-0.01113,0.01364c-0.05328,0.15736 -0.1065,0.31474 -0.15981,0.47209c0,0 -0.01081,0.03198 -0.03558,0.07356c-0.00489,0.01303 -0.0105,0.02593 -0.01695,0.03862c-0.09394,0.18571 -0.32063,0.2601 -0.50632,0.16616c-0.18571,-0.09394 -0.2601,-0.32063 -0.16616,-0.50632c0.00508,-0.01002 0.01054,-0.01981 0.01641,-0.02918c0.05151,-0.15217 0.10303,-0.30435 0.15455,-0.45655l0.05249,-0.11215c0,0 0.1701,-0.33625 0.50632,-0.16616c0.33625,0.1701 0.16616,0.50632 0.16616,0.50632z" fill="#a00000" fill-rule="nonzero" stroke="none" stroke-width="0.5" stroke-linecap="butt" stroke-linejoin="miter"/><path d="M352.16899,198.99372c-0.72865,-0.57205 -1.03816,-2.54903 -2.04301,-2.8451c-0.10252,0.05093 -0.26296,0.08277 -0.42252,-0.07827c-0.17581,-0.17744 -0.1174,-0.35376 -0.0581,-0.45253c0.03908,-0.13122 0.12449,-0.1949 0.20753,-0.22516l0.02757,-0.02718c1.41423,-1.24421 2.69116,-2.63614 4.2017,-3.75062c0.38766,-0.28602 1.20958,-1.52497 1.83564,-0.75206c0.24859,0.30689 -0.69188,1.79125 -0.83646,2.07707c-0.49839,0.98523 -0.98832,1.97526 -1.49534,2.95608c-0.08014,0.15504 -0.34523,0.73534 -0.23102,0.92559c0.05568,0.09271 0.90009,0.09928 1.02376,0.11016c1.13054,0.09955 2.04598,0.805 3.17956,0.89745c0.77433,0.07309 2.69397,1.05103 1.1225,1.7553c-0.37602,0.16851 -1.31543,-0.04988 -1.76644,0.05504c-1.75048,0.40719 -3.01426,0.59558 -4.80937,0.33125c0,0 -0.37276,-0.05502 -0.31773,-0.42777c0.05502,-0.37276 0.42777,-0.31773 0.42777,-0.31773c0.0388,0.00571 0.07738,0.01135 0.11572,0.01679c-0.09708,-0.05905 -0.14876,-0.15049 -0.14876,-0.15049z" fill="#ffffff" fill-rule="nonzero" stroke="none" stroke-width="0.5" stroke-linecap="butt" stroke-linejoin="miter"/><path d="M359.24491,198.34336c0.00457,0.00894 0.009,0.01789 0.0133,0.02694l-0.15981,0.05698c-0.00249,0.00533 -0.00512,0.01076 -0.00787,0.01614c-0.03781,0.07465 -0.08372,0.12436 -0.13238,0.15651c0.11045,0.04674 0.22287,0.0993 0.34069,0.15851c0,0 0.33625,0.1701 0.16616,0.50632c-0.1701,0.33625 -0.50632,0.16616 -0.50632,0.16616c-0.02224,-0.01134 -0.04418,-0.02237 -0.06579,-0.03306l-0.51871,-0.05349c-0.0496,0.00867 -0.1047,0.00885 -0.16433,0.00112c0.0415,0.07619 0.0864,0.16085 0.13611,0.25514l-0.87286,0.02526c-0.07401,-0.07766 -0.148,-0.15528 -0.222,-0.23291c-0.24357,0.13347 -0.48173,0.1764 -0.70944,-0.00003c-0.25745,-0.1995 -0.31702,-0.56909 -0.47551,-0.85365l0.37192,-0.01877c-0.05245,-0.0838 -0.10483,-0.16762 -0.15724,-0.25139l0.40859,-0.02661c-0.05175,-0.05455 -0.1017,-0.11019 -0.14976,-0.16664l0.82036,-0.20757c0.12887,0.04989 0.24868,0.12756 0.35446,0.22245c0.24973,-0.12292 0.51859,-0.21063 0.79042,-0.25177l-0.01004,-0.09746c0.0789,0.01242 0.15605,0.03831 0.22967,0.07459c0.08691,-0.00483 0.17362,-0.00466 0.25972,0.00092l0.26064,0.52633z" fill="#a00000" fill-rule="nonzero" stroke="none" stroke-width="0.5" stroke-linecap="butt" stroke-linejoin="miter"/><path d="M355.30267,192.81483c-0.1701,0.33625 -0.50632,0.16616 -0.50632,0.16616l-0.04994,-0.02746c-0.10088,0.04656 -0.2213,0.0482 -0.32817,-0.00582c-0.07391,-0.03736 -0.13017,-0.09577 -0.16523,-0.16427l-0.66654,-0.11911c-0.03817,-0.00592 -0.07609,-0.01785 -0.11245,-0.03624c-0.18571,-0.09394 -0.2601,-0.32063 -0.16616,-0.50632c0.07299,-0.14435 0.22618,-0.22142 0.37802,-0.2045l0.22961,0.02021l-0.07045,-0.0969c0.14585,-0.03415 0.28005,-0.05922 0.40186,-0.07543c-0.00073,-0.05877 0.01224,-0.11858 0.04061,-0.17471c0.07299,-0.14435 0.22618,-0.22142 0.37802,-0.2045l0.17929,0.01579c-0.03997,-0.09765 -0.03894,-0.21146 0.01242,-0.31296c0.02184,-0.04316 0.05087,-0.08034 0.08486,-0.11073c0.03189,-0.13167 0.09881,-0.21702 0.22011,-0.17758c0.00356,-0.00857 0.00744,-0.017 0.01168,-0.02539c0.09394,-0.18571 0.32063,-0.2601 0.50632,-0.16616c0.02099,0.01064 0.04063,0.02294 0.05869,0.03674l0.23916,0.17568l0.05642,-0.03004c0.00284,0.02617 0.00538,0.05185 0.00764,0.07707l0.03159,0.02322c0.14988,0.10605 0.20353,0.30866 0.1182,0.47745c-0.03794,0.07501 -0.09749,0.13181 -0.16732,0.16675c-0.04843,0.23311 -0.1483,0.35514 -0.27749,0.37526c-0.11243,0.20965 -0.35675,0.30287 -0.5736,0.42032c0.08244,0.05654 0.26314,0.2184 0.12902,0.48353z" fill="#a00000" fill-rule="nonzero" stroke="none" stroke-width="0.5" stroke-linecap="butt" stroke-linejoin="miter"/><path d="M357.52253,203.20685c-0.18571,-0.09394 -0.2601,-0.32063 -0.16616,-0.50632c0.09394,-0.18571 0.32063,-0.2601 0.50632,-0.16616c0.18571,0.09394 0.2601,0.32063 0.16616,0.50632c-0.09394,0.18571 -0.32063,0.2601 -0.50632,0.16616z" fill="#a00000" fill-rule="nonzero" stroke="none" stroke-width="0.5" stroke-linecap="butt" stroke-linejoin="miter"/><path d="M357.14128,206.49308l0.00405,-0.26928c-0.05069,-0.44313 -0.03324,-0.89369 0.00475,-1.33807c0,0 0.03303,-0.37536 0.40839,-0.34233c0.37536,0.03303 0.34233,0.40839 0.34233,0.40839c-0.03571,0.39295 -0.05489,0.792 -0.00702,1.18367l0.00113,0.36112c0,0 -0.00177,0.37679 -0.37856,0.37503c-0.37679,-0.00177 -0.37503,-0.37856 -0.37503,-0.37856z" fill="#a00000" fill-rule="nonzero" stroke="none" stroke-width="0.5" stroke-linecap="butt" stroke-linejoin="miter"/><path d="M357.09202,207.6495c-0.18571,-0.09394 -0.2601,-0.32063 -0.16616,-0.50632c0.09394,-0.18571 0.32063,-0.2601 0.50632,-0.16616c0.18571,0.09394 0.2601,0.32063 0.16616,0.50632c-0.09394,0.18571 -0.32063,0.2601 -0.50632,0.16616z" fill="#a00000" fill-rule="nonzero" stroke="none" stroke-width="0.5" stroke-linecap="butt" stroke-linejoin="miter"/><path d="M356.48681,209.0021c-0.18571,-0.09394 -0.2601,-0.32063 -0.16616,-0.50632c0.09394,-0.18571 0.32063,-0.2601 0.50632,-0.16616c0.18571,0.09394 0.2601,0.32063 0.16616,0.50632c-0.09394,0.18571 -0.32063,0.2601 -0.50632,0.16616z" fill="#a00000" fill-rule="nonzero" stroke="none" stroke-width="0.5" stroke-linecap="butt" stroke-linejoin="miter"/><path d="M357.21396,201.78689c-0.18571,-0.09394 -0.2601,-0.32063 -0.16616,-0.50632c0.09394,-0.18571 0.32063,-0.2601 0.50632,-0.16616c0.18571,0.09394 0.2601,0.32063 0.16616,0.50632c-0.09394,0.18571 -0.32063,0.2601 -0.50632,0.16616z" fill="#a00000" fill-rule="nonzero" stroke="none" stroke-width="0.5" stroke-linecap="butt" stroke-linejoin="miter"/><path d="M356.24,194.34314c-0.18571,-0.09394 -0.2601,-0.32063 -0.16616,-0.50632c0.09394,-0.18571 0.32063,-0.2601 0.50632,-0.16616c0.18571,0.09394 0.2601,0.32063 0.16616,0.50632c-0.09394,0.18571 -0.32063,0.2601 -0.50632,0.16616z" fill="#a00000" fill-rule="nonzero" stroke="none" stroke-width="0.5" stroke-linecap="butt" stroke-linejoin="miter"/><path d="M356.80088,195.73277c-0.18571,-0.09394 -0.2601,-0.32063 -0.16616,-0.50632c0.09394,-0.18571 0.32063,-0.2601 0.50632,-0.16616c0.18571,0.09394 0.2601,0.32063 0.16616,0.50632c-0.09394,0.18571 -0.32063,0.2601 -0.50632,0.16616z" fill="#a00000" fill-rule="nonzero" stroke="none" stroke-width="0.5" stroke-linecap="butt" stroke-linejoin="miter"/><path d="M357.07771,197.21562c-0.18571,-0.09394 -0.2601,-0.32063 -0.16616,-0.50632c0.09394,-0.18571 0.32063,-0.2601 0.50632,-0.16616c0.18571,0.09394 0.2601,0.32063 0.16616,0.50632c-0.09394,0.18571 -0.32063,0.2601 -0.50632,0.16616z" fill="#a00000" fill-rule="nonzero" stroke="none" stroke-width="0.5" stroke-linecap="butt" stroke-linejoin="miter"/><path d="M353.08321,163.68481c0.15703,-0.31045 0.4254,-0.52755 0.73197,-0.62738c0.01471,-0.27543 0.13751,-0.57983 0.48295,-0.86164c0.551,-0.44946 1.04449,-0.33254 1.36903,-0.14647c0.34429,-0.37101 0.88921,-0.50491 1.3744,-0.31621l1.27415,0.47619l-0.06516,0.1744l0.4413,0.04718c1.22522,2.04073 3.28031,6.1415 -1.38953,5.12532c-0.16066,-0.03494 -0.30979,-0.08199 -0.44878,-0.13949c-0.31175,0.10976 -0.66601,0.09702 -0.9842,-0.06392c-0.57007,-0.28837 -0.82544,-0.95206 -0.61765,-1.53867c-0.10511,-0.17978 -0.20597,-0.3639 -0.3069,-0.54777c-0.36907,0.26904 -0.87221,0.3265 -1.30777,0.10619c-0.619,-0.31313 -0.86695,-1.06871 -0.55383,-1.68773z" fill="#ffffff" fill-rule="nonzero" stroke="none" stroke-width="0.5" stroke-linecap="butt" stroke-linejoin="miter"/><path d="M356.53909,169.39367c-0.58265,-0.29473 -0.83658,-0.98154 -0.60322,-1.57739c-0.13836,-0.01767 -0.27615,-0.05888 -0.40775,-0.12544c-0.47037,-0.23795 -0.7265,-0.73135 -0.68496,-1.22617c-0.20851,-0.16534 -0.35436,-0.38951 -0.4254,-0.63577c-0.25749,0.04501 -0.53116,0.01032 -0.78235,-0.11671c-0.619,-0.31313 -0.86695,-1.06871 -0.55383,-1.68773c0.31313,-0.619 1.06871,-0.86695 1.68773,-0.55383c0.32421,0.16401 0.54662,0.44938 0.63997,0.77297c0.25749,-0.04501 0.53116,-0.01032 0.78235,0.11671c0.47037,0.23795 0.7265,0.73135 0.68496,1.22617c0.42698,0.33853 0.59097,0.92356 0.38866,1.44021c0.13836,0.01767 0.27615,0.05888 0.40775,0.12544c0.619,0.31313 0.86695,1.06871 0.55383,1.68773c-0.31313,0.619 -1.06871,0.86695 -1.68773,0.55383z" fill="#a00000" fill-rule="nonzero" stroke="none" stroke-width="0.5" stroke-linecap="butt" stroke-linejoin="miter"/></g></g></g></svg>