<svg version="1.1" xmlns="http://www.w3.org/2000/svg" xmlns:xlink="http://www.w3.org/1999/xlink" width="980.48048" height="630.63063" viewBox="0,0,980.48048,630.63063"><g transform="translate(145.24024,130.31528)"><g data-paper-data="{&quot;isPaintingLayer&quot;:true}" stroke-miterlimit="10" stroke-dasharray="" stroke-dashoffset="0" style="mix-blend-mode: normal"><path d="M-145.24024,500.31535v-630.63063h980.48048v630.63063z" fill="#000000" fill-rule="nonzero" stroke="#ff3838" stroke-width="0" stroke-linecap="butt" stroke-linejoin="miter"/><text transform="translate(304.71471,259.28905) scale(0.5,0.5)" font-size="40" xml:space="preserve" fill="#ffffff" fill-rule="nonzero" stroke="none" stroke-width="1" stroke-linecap="butt" stroke-linejoin="miter" stroke-miterlimit="10" stroke-dasharray="" stroke-dashoffset="0" font-family="Marker" font-weight="normal" text-anchor="start" style="mix-blend-mode: normal"><tspan x="0" dy="0">Loading</tspan></text><g><path d="M329.70446,179.55549c-0.05091,0.51475 -3.47961,2.11257 -4.20429,3.68848c-0.47995,1.13428 -0.97902,2.56094 -0.75681,4.18148c0.4507,3.67322 -0.38058,3.1076 -2.33483,4.07648c-1.98287,1.01017 -3.6744,0.80651 -1.83698,-5.37661c0.62306,-2.13516 1.70999,-3.70469 2.63796,-4.95651c0.22883,-0.33041 2.49154,-2.98013 4.58234,-2.99889c2.09079,-0.01879 1.97627,0.94078 1.91266,1.38563z" fill="#000000" fill-rule="evenodd" stroke="#001026" stroke-width="1.2" stroke-linecap="round" stroke-linejoin="round"/><path d="M326.85816,173.93666c0.9819,-0.35892 2.73584,-0.24431 2.93573,1.84969c0.26338,2.44352 -2.58053,3.28515 -3.77216,3.68218c-1.19162,0.39704 -1.84936,0.55264 -3.98795,1.69941c-0.85798,0.44473 -1.81766,1.12459 -2.32612,1.50584c-0.1843,0.17789 -0.32734,0.38442 -0.38773,0.64816c-0.09221,0.48613 3.76791,-2.75998 2.64623,-2.37566c-1.24306,0.30805 -0.74677,1.38822 -1.22316,-0.5376c-0.05475,-0.22124 0.03224,0.40029 -0.05069,0.17347c-0.78044,-2.13407 -1.42895,-0.4174 -0.33703,-1.25568c2.27531,-1.78542 1.41649,-3.15057 1.92154,-1.76195c0.10804,0.19702 0.77198,0.53459 0.92767,0.39798l-2.39986,-0.72198c0.4792,-0.37089 -0.87513,0.23122 -0.39217,-0.08792c0.53608,-0.35424 2.05439,-1.03122 2.57206,-1.32449c2.22001,-1.2577 3.17351,-1.61411 3.87367,-1.89141z" fill="#000000" fill-rule="evenodd" stroke="#001026" stroke-width="1.2" stroke-linecap="round" stroke-linejoin="round"/><path d="M339.92005,173.85767c0.13329,1.13121 -1.12832,2.3353 -2.3134,1.57574c-1.07387,-0.74369 -1.58841,-2.38332 -1.90603,-3.33659c-0.31762,-0.95328 -1.15277,-4.95384 2.10123,-6.91708c1.44905,-0.76876 5.70702,-1.97561 6.04031,0.45518c0.33332,2.4308 -2.30402,2.6211 -3.85784,3.01175c-1.31552,0.31122 -0.08646,4.89011 -0.06424,5.21106z" fill="#000000" fill-rule="evenodd" stroke="#001026" stroke-width="1.2" stroke-linecap="round" stroke-linejoin="round"/><g fill-rule="evenodd"><path d="M331.12477,172.43893c0.71497,-0.23821 1.67776,-0.30482 3.08536,-0.30781c1.1566,0.00653 3.08526,0.48657 3.08526,0.48657c1.28999,0.34334 3.44418,1.46847 2.45898,2.80286c-0.67055,0.88008 -1.11871,1.79195 -1.8847,3.33928c-1.22052,2.82144 -1.20473,3.50458 -3.61325,3.36446c-2.75482,-0.25773 -6.17404,1.59108 -7.17096,-4.29373c0,0 -0.16797,-3.11079 -0.87601,-7.20661c-0.4667,-2.76765 -0.97772,-6.97151 -1.13323,-8.42361c-0.02219,-0.32093 0.0668,-0.62595 0.19712,-0.90237c2.40275,-4.26385 4.8752,-6.95166 6.65123,-5.72173c2.97384,2.0594 -2.14896,7.2507 -2.14896,7.2507c0,0 0.29511,3.01547 0.4792,4.42629z" fill="#000000" stroke="#001026" stroke-width="1.2" stroke-linecap="round" stroke-linejoin="round"/><path d="M335.1506,172.53803c0,0 1.57605,-0.06969 1.4613,2.47863c-0.08933,2.68812 -1.89728,2.475 -3.40341,2.53199c-1.85247,-0.06064 -1.89995,-1.31572 -2.07137,-2.65664c-0.16189,-1.08989 -0.22852,-2.05267 -0.22852,-2.05267c0,0 1.75405,-0.67975 4.24195,-0.3013z" fill="#a00000" stroke="none" stroke-width="1" stroke-linecap="butt" stroke-linejoin="miter"/></g><g fill-rule="evenodd"><path d="M361.13086,188.85186c-0.49264,1.06438 -1.0965,2.11288 -1.97998,3.21216c-1.42693,1.88406 -3.41622,3.25647 -3.41622,3.25647l-0.19799,7.2573c-0.0318,0.22241 -0.29875,0.34313 -0.43533,0.18742l-6.79263,-5.98727c0.50202,-0.019 -8.31873,0.717 -10.99652,-5.47628c-2.67779,-6.19326 -0.46521,-13.8888 6.44033,-20.59553c6.90555,-6.70672 12.62484,-5.43496 14.63589,-3.30896c2.01107,2.12599 0.84761,5.6592 0.84761,5.6592c0,0 1.83005,1.32843 3.18644,4.22328c0.81955,1.72865 0.93023,5.7164 0.93023,5.7164l3.67579,4.1344c0.1366,0.15573 0.0349,0.39084 -0.13354,0.45754z" fill="#000000" stroke="#001026" stroke-width="1.2" stroke-linecap="butt" stroke-linejoin="miter"/><path d="M358.98501,173.06585c-1.64646,4.05421 -4.4774,2.5827 -6.74332,5.4135c-2.65047,3.29785 -2.18117,10.6506 -8.51703,10.3574c-6.29455,-0.26457 -8.95292,-9.13327 0.03416,-17.69852c6.80704,-6.65272 12.4342,-5.68919 14.44528,-3.56318c2.01106,2.12598 0.78091,5.49077 0.78091,5.49077z" fill="#000000" stroke="none" stroke-width="1" stroke-linecap="butt" stroke-linejoin="miter"/><path d="M345.55566,183.01592c-2.10968,-1.27762 -4.49565,-3.47995 -2.30585,-7.52455c2.75548,-4.50843 6.94013,-3.93276 8.31276,-3.53223c0.26371,0.06041 0.35584,0.36866 0.1715,0.54655c-0.55294,0.53375 -1.59215,1.76963 -3.0128,4.08581c-1.55091,2.59261 -2.43465,5.28065 -2.68898,6.26562c-0.07309,0.19381 -0.31142,0.27321 -0.47662,0.15879z" fill="#000000" stroke="#001026" stroke-width="1.2" stroke-linecap="round" stroke-linejoin="round"/><path d="M358.779,168.951c0,0 2.1007,-2.94524 5.01457,-3.79957" fill="none" stroke="#001026" stroke-width="1.2" stroke-linecap="round" stroke-linejoin="round"/><path d="M356.45653,167.09822c0,0 0.33074,-2.15427 2.33923,-4.61339" fill="none" stroke="#001026" stroke-width="1.2" stroke-linecap="round" stroke-linejoin="round"/><path d="M351.34848,180.91636c-0.66086,-0.45765 -0.4921,-2.90745 0.10534,-3.5937c0.49896,-0.63225 2.08447,-0.45092 2.63413,-0.0092c0.26052,0.24152 -0.28613,1.20741 -0.8868,2.0748c-0.57206,0.82606 -1.38563,1.91265 -1.85267,1.52811z" fill="#001026" stroke="#000000" stroke-width="1.2" stroke-linecap="round" stroke-linejoin="round"/><path d="M341.97348,191.71851c0.27929,2.33231 -1.02405,6.68526 -1.02405,6.68526" fill="none" stroke="#001026" stroke-width="1.2" stroke-linecap="round" stroke-linejoin="round"/><path d="M337.01931,195.25441c0,0 1.66227,-3.37107 3.59434,-4.66087" fill="none" stroke="#001026" stroke-width="1.2" stroke-linecap="round" stroke-linejoin="round"/><g fill="#a00000"><path d="M360.41663,183.52947c-1.54436,0.64165 -3.62221,-0.85842 -4.65136,-3.34332c-1.00055,-2.52622 -0.55221,-5.02683 0.99211,-5.66848c1.54436,-0.64165 3.62221,0.85842 4.65136,3.34332c1.02917,2.48496 0.59351,5.05545 -0.99211,5.66848z" stroke="#001026" stroke-width="1.2" stroke-linecap="round" stroke-linejoin="round"/><path d="M358.94006,176.39584c0.45431,0.31461 0.59725,0.90248 0.31122,1.31552c-0.28603,0.41306 -0.8866,0.48603 -1.34093,0.17141c-0.45431,-0.31461 -0.59725,-0.90248 -0.31122,-1.31552c0.28603,-0.41306 0.8866,-0.48603 1.34093,-0.17141" stroke="none" stroke-width="1" stroke-linecap="butt" stroke-linejoin="miter"/></g><g><path d="M353.15876,187.30331c0.95928,2.49764 0.60622,5.12534 -1.23045,5.74786c-1.79537,0.65115 -4.09243,-1.06183 -5.02311,-3.60075c-0.95928,-2.49764 -0.27899,-4.7154 1.44966,-5.53496c1.55704,-0.57174 3.84465,0.89018 4.80389,3.38782z" fill="#ffffff" stroke="#001026" stroke-width="1.2" stroke-linecap="round" stroke-linejoin="round"/><path d="M350.59157,185.89221c0.45431,0.31461 0.55593,0.87388 0.31122,1.31552c-0.28603,0.41306 -0.8866,0.48603 -1.34093,0.17141c-0.45431,-0.31461 -0.59725,-0.90248 -0.31122,-1.31552c0.28603,-0.41306 0.8866,-0.48603 1.34093,-0.17141" fill="#001026" stroke="none" stroke-width="1" stroke-linecap="butt" stroke-linejoin="miter"/></g></g><path d="M349.72808,184.54233c0,0 0.02158,-0.151 0.1179,-0.29354c-0.13922,-0.11235 -0.31382,-0.22088 -0.56418,-0.33605c-0.64914,-0.44692 -1.29703,-0.89561 -1.94496,-1.3443l-0.4614,-0.18632c0,0 -0.5764,-0.24935 -0.32705,-0.82573c0.24935,-0.57638 0.82573,-0.32705 0.82573,-0.32705l0.6778,0.30649c0.61952,0.42903 1.23916,0.85785 1.85735,1.28882c1.43818,0.69228 2.87103,2.35038 3.75532,3.51399c0.71429,0.93987 0.39649,2.19821 1.19271,3.19472c0.29471,0.36885 0.89689,0.36376 1.2352,0.69307c0.17337,0.16874 0.12677,0.49459 0.30428,0.65902c0.93823,0.86916 1.28511,0.72497 1.69701,2.06524c0,0 0.17979,0.60171 -0.42192,0.78152c-0.60171,0.17979 -0.78152,-0.42192 -0.78152,-0.42192c-0.46928,-1.62891 -1.99634,-1.8168 -2.99783,-2.97266c-0.68678,-0.79266 -0.93591,-1.87653 -1.0358,-2.83794c-0.00398,-0.03823 -0.00948,-0.07286 -0.01639,-0.10429c-0.11665,0.06697 -0.22332,0.08636 -0.22332,0.08636c-0.22583,0.04103 -0.45161,0.08202 -0.67741,0.12306l-0.56985,-0.17088c0,0 -0.5163,-0.35752 -0.15877,-0.87382c0.239,-0.34513 0.54893,-0.29975 0.72819,-0.23177c0.00685,-0.00124 0.01369,-0.0025 0.0205,-0.00373c-0.01915,-0.1339 -0.03714,-0.26853 -0.10927,-0.37743c-0.20003,-0.3018 -0.59522,-0.40104 -0.91233,-0.58908c-0.01639,0.19167 -0.11835,0.33888 -0.11835,0.33888l-1.20724,-0.34638c0.03852,-0.26942 0.07705,-0.53882 0.11559,-0.80824z" fill="#a00000" fill-rule="nonzero" stroke="none" stroke-width="0.5" stroke-linecap="butt" stroke-linejoin="miter"/><path d="M347.4955,179.54741c0.24935,-0.57638 0.82573,-0.32705 0.82573,-0.32705l0.49618,0.21992c0.26185,0.07708 0.52372,0.15417 0.78558,0.23124c0.64302,0.30501 1.62644,0.40594 2.16142,0.88567c0.46402,0.41606 0.80404,1.23908 1.18304,1.74394c1.05083,1.39972 2.29087,2.94911 3.51623,4.18537c1.08818,1.09787 3.08209,1.97255 4.38079,2.8719c0,0 0.5163,0.35752 0.15877,0.87382c-0.35752,0.5163 -0.87382,0.15877 -0.87382,0.15877c-1.38555,-0.95951 -3.38693,-1.85596 -4.56315,-3.02575c-1.27133,-1.2644 -2.54926,-2.87599 -3.62609,-4.31385c-0.03483,-0.04653 -0.90299,-1.45317 -0.98726,-1.53559c-0.3488,-0.34112 -1.35196,-0.46217 -1.79497,-0.6698c-0.23077,-0.06667 -0.46154,-0.13336 -0.69234,-0.20002l-0.643,-0.27289c0,0 -0.5764,-0.24935 -0.32705,-0.82573z" fill="#a00000" fill-rule="nonzero" stroke="none" stroke-width="0.5" stroke-linecap="butt" stroke-linejoin="miter"/><path d="M348.24611,166.79332c0.61791,-0.11226 0.73017,0.50564 0.73017,0.50564l0.05934,0.49419c1.61822,1.44274 3.27903,2.9327 4.83047,4.45469c1.2198,1.19661 3.1516,1.34142 2.79336,3.44105c0,0 -0.14022,0.61216 -0.75237,0.47194c-0.61215,-0.14021 -0.47193,-0.75237 -0.47193,-0.75237c0.30218,-0.83048 -1.1543,-1.3508 -1.76186,-1.77625c-2.06338,-1.44482 -3.99408,-3.43977 -5.74598,-5.24817l-0.18681,-0.86063c0,0 -0.11225,-0.61787 0.50564,-0.73017z" fill="#a00000" fill-rule="nonzero" stroke="none" stroke-width="0.5" stroke-linecap="butt" stroke-linejoin="miter"/><path d="M349.55114,165.86844c0.35752,-0.5163 0.87382,-0.15877 0.87382,-0.15877l0.48025,0.34296c1.64924,1.60191 3.47121,2.92379 4.99018,4.65563c0.94744,1.08019 1.50462,2.53866 2.52937,3.51264c0,0 0.45049,0.43755 0.01293,0.88804c-0.43755,0.45049 -0.88804,0.01293 -0.88804,0.01293c-1.0553,-1.04226 -1.62678,-2.47832 -2.61175,-3.60071c-1.49163,-1.69977 -3.28652,-2.99282 -4.90782,-4.56755l-0.32023,-0.21137c0,0 -0.5163,-0.35752 -0.15877,-0.87382z" fill="#a00000" fill-rule="nonzero" stroke="none" stroke-width="0.5" stroke-linecap="butt" stroke-linejoin="miter"/><path d="M350.48524,190.19138c0.2594,-0.57191 0.83133,-0.31252 0.83133,-0.31252l0.09539,0.04326c1.71744,0.97802 1.71178,1.07943 0.92114,2.76717c0,0 -0.26777,0.56805 -0.83584,0.30024c-0.56805,-0.26777 -0.30024,-0.83584 -0.30024,-0.83584c0.14661,-0.30879 0.79932,-0.66989 0.52868,-0.87872c-0.2265,-0.17481 -0.55505,-0.13934 -0.83257,-0.20898l-0.09539,-0.04326c0,0 -0.57191,-0.2594 -0.31252,-0.83133z" fill="#a00000" fill-rule="nonzero" stroke="none" stroke-width="0.5" stroke-linecap="butt" stroke-linejoin="miter"/><path d="M349.14408,188.51012c0.5163,0.35752 0.15877,0.87382 0.15877,0.87382l-0.06933,0.10008c-0.27719,0.40025 -0.55435,0.8005 -0.83153,1.20074c0,0 -0.35752,0.5163 -0.87382,0.15877c-0.5163,-0.35752 -0.15877,-0.87382 -0.15877,-0.87382c0.27715,-0.40023 0.62365,-0.90056 0.90078,-1.30079c0,0 0.35752,-0.5163 0.87382,-0.15877z" fill="#a00000" fill-rule="nonzero" stroke="none" stroke-width="0.5" stroke-linecap="butt" stroke-linejoin="miter"/><path d="M348.81207,186.13524c0.11224,0.6179 -0.50564,0.73017 -0.50564,0.73017l-0.78407,-0.21038c-0.15393,-0.2053 -0.30787,-0.41059 -0.46177,-0.61587c0,0 -0.37672,-0.50246 0.12575,-0.87919c0.50245,-0.37674 0.87917,0.12572 0.87917,0.12572c0.08673,0.11564 0.17343,0.23132 0.26016,0.34696c0.1861,0.03149 0.42129,0.14423 0.48642,0.50263z" fill="#a00000" fill-rule="nonzero" stroke="none" stroke-width="0.5" stroke-linecap="butt" stroke-linejoin="miter"/><path d="M318.51586,183.32675c-0.02372,-0.62755 0.60381,-0.65129 0.60381,-0.65129l0.18138,0.16698c0.26234,-0.26844 0.4943,-0.55206 0.72459,-0.83689c-0.0012,-0.11638 0.02387,-0.20227 0.02387,-0.20227c0.06668,-0.22404 0.10268,-0.45961 0.20001,-0.67212c0.03708,-0.08093 0.27011,-0.14109 0.19267,-0.18495c-0.23053,-0.13047 -0.71595,0.10893 -0.78081,-0.14792c-0.11879,-0.47035 0.20992,-0.95157 0.38936,-1.40227c0.1008,-0.25316 0.81982,-0.47571 0.57044,-0.58551c-0.19996,-0.08801 -0.57719,0.06323 -0.6389,-0.14634c-0.26102,-0.88631 0.31677,-2.28624 1.61678,-1.82116c0.37909,0.13564 0.29947,0.74748 0.4492,1.12127l-0.17089,0.56986c0,0 -0.06942,0.10024 -0.19124,0.18178c0.00005,0.18474 -0.03147,0.40292 -0.10469,0.65319c-0.07529,0.2574 -0.25733,0.48043 -0.45,0.66695c-0.09691,0.09377 -0.50902,0.09594 -0.38062,0.13715c0.20248,0.06496 0.52277,-0.23566 0.63556,-0.05534c0.15621,0.24977 0.19084,0.53787 0.1656,0.83151c0.05068,0.02883 0.1022,0.06736 0.15382,0.11752c0.45049,0.43755 0.01293,0.88804 0.01293,0.88804c-0.55096,0.56374 -0.96788,1.19448 -1.51669,1.76256l-1.03488,0.21301c0,0 -0.62755,0.02372 -0.65129,-0.60381z" fill="#a00000" fill-rule="nonzero" stroke="none" stroke-width="0.5" stroke-linecap="butt" stroke-linejoin="miter"/><path d="M315.94723,180.29738c-0.11224,-0.6179 0.50564,-0.73017 0.50564,-0.73017l0.66128,-0.1011c0.23604,0.01543 0.47211,0.03086 0.70819,0.04628c0,0 0.62669,0.04097 0.58571,0.66762c-0.04097,0.62669 -0.66762,0.58571 -0.66762,0.58571c-0.23606,-0.01543 -0.47215,-0.03087 -0.70819,-0.04628l-0.35483,0.08352c0,0 -0.6179,0.11224 -0.73017,-0.50564z" fill="#a00000" fill-rule="nonzero" stroke="none" stroke-width="0.5" stroke-linecap="butt" stroke-linejoin="miter"/><path d="M315.11661,177.39221l0.66967,0.31569c0,0 0.56805,0.26777 0.30024,0.83584c-0.26777,0.56805 -0.83584,0.30024 -0.83584,0.30024l-0.66967,-0.31569c0,0 -0.56805,-0.26777 -0.30024,-0.83584c0.26777,-0.56805 0.83584,-0.30024 0.83584,-0.30024z" fill="#a00000" fill-rule="nonzero" stroke="none" stroke-width="0.5" stroke-linecap="butt" stroke-linejoin="miter"/><path d="M312.41147,183.76576c-0.30191,-0.55067 0.24878,-0.85258 0.24878,-0.85258l0.58149,-0.20681c0.23606,0.01543 0.47215,0.03087 0.70819,0.04628c0,0 0.19018,0.01244 0.35415,0.12837c0.20362,-0.11686 0.46473,-0.11427 0.67061,0.02827c0.28515,0.19749 0.35623,0.58868 0.15877,0.87382c-0.19749,0.28515 -0.58868,0.35623 -0.87382,0.15877c-0.00804,-0.00557 -0.01592,-0.0113 -0.02359,-0.01717c-0.17772,0.09368 -0.36802,0.08126 -0.36802,0.08126c-0.23606,-0.01543 -0.47215,-0.03087 -0.70819,-0.04628l0.1042,0.05484c0,0 -0.55068,0.30188 -0.85258,-0.24878z" fill="#a00000" fill-rule="nonzero" stroke="none" stroke-width="0.5" stroke-linecap="butt" stroke-linejoin="miter"/><path d="M321.29484,178.77501c0.6179,-0.11224 0.73017,0.50564 0.73017,0.50564l0.02501,0.42183c-0.00225,0.0098 -0.00449,0.01959 -0.00675,0.02939c0.17729,0.03364 0.5233,0.15919 0.51504,0.62673c-0.0111,0.62789 -0.63901,0.61682 -0.63901,0.61682l-0.31541,-0.01776c-0.45699,0.08013 -0.81714,0.20796 -1.09037,0.13094c-0.07883,0.05909 -0.16968,0.09797 -0.26444,0.11522l-0.67743,0.12306v0c-0.15814,0.02873 -0.32721,-0.00285 -0.46982,-0.10158c-0.20217,-0.14001 -0.29673,-0.37744 -0.26425,-0.60539l-0.42117,-0.08572c-0.08571,-0.01544 -0.16959,-0.04903 -0.24589,-0.10186c-0.28515,-0.19749 -0.35623,-0.58868 -0.15877,-0.87382c0.06004,-0.08674 0.13804,-0.15362 0.2255,-0.1992l0.70486,-0.38642l0.00356,0.00649l0.01779,-0.01767c0.47646,-0.21249 0.97962,-0.37512 1.49233,-0.47153c0,0 0.49267,-0.08951 0.67808,0.33125c0.04719,-0.01956 0.10059,-0.03535 0.16094,-0.04631zM320.72829,179.7139c0.00997,0.00093 0.01992,0.00183 0.02989,0.00275c0.001,-0.00437 0.00199,-0.00875 0.003,-0.01313c-0.01203,0.0041 -0.02309,0.00752 -0.03292,0.01036z" fill="#ffffff" fill-rule="nonzero" stroke="none" stroke-width="0.5" stroke-linecap="butt" stroke-linejoin="miter"/><path d="M346.50437,181.65324c0.1985,0.59581 -0.39727,0.79431 -0.39727,0.79431l-0.4569,-0.22821c0.09808,0.1659 0.18188,0.32431 0.23772,0.44354c0,0 0.25876,0.57219 -0.31344,0.83098c-0.5722,0.25875 -0.83098,-0.31344 -0.83098,-0.31344c-0.52119,-1.21204 -2.32035,-2.16049 0.02848,-2.71787c0.22406,-0.05319 0.45929,0.02645 0.6894,0.04492l0.61984,-0.1126l0.04514,0.24849l0.64983,0.13524c-0.12193,0.1876 -0.24474,0.37573 -0.36269,0.56666l0.12656,0.19125l-0.06422,0.04249c0.01022,0.0233 0.01974,0.04802 0.0285,0.0743z" fill="#8da900" fill-rule="nonzero" stroke="none" stroke-width="0.5" stroke-linecap="butt" stroke-linejoin="miter"/><path d="M350.16849,174.34251c0,0 0.11126,0.61243 -0.49747,0.72864c0.08497,0.1932 0.07059,0.4247 -0.05839,0.61094c-0.09874,0.14255 -0.2459,0.23163 -0.40403,0.26036v0l-0.34211,0.06216c-0.09706,0.11288 -0.17601,0.23717 -0.22641,0.37694l-0.02578,0.58495c0,0 -0.03445,0.52703 -0.52348,0.58287c-0.02425,0.17025 -0.11785,0.44814 -0.46625,0.51917c-0.00793,0.4659 -0.05345,1.08801 -0.06517,1.27639l-0.17968,0.41664c0,0 -0.09681,0.13977 -0.2624,0.22349c0.04191,0.04831 0.08126,0.09795 0.1157,0.15002c0,0 0.34657,0.52371 -0.17713,0.87027c-0.52371,0.34659 -0.87027,-0.17713 -0.87027,-0.17713c-0.05455,-0.08245 -0.19321,-0.28836 -0.34117,-0.51505c-0.14453,0.01545 -0.29507,-0.01896 -0.42394,-0.10819c-0.10764,-0.07454 -0.18478,-0.17668 -0.22847,-0.29032c-0.20523,-0.12762 -0.2565,-0.35333 -0.26858,-0.48065c-0.0036,0.00126 -0.00718,0.0025 -0.01081,0.0037c-0.21145,0.17828 -0.52387,0.20084 -0.76217,0.03581c-0.28515,-0.19749 -0.35623,-0.58868 -0.15877,-0.87382c0.08544,-0.12338 0.20718,-0.20671 0.34092,-0.24552c0.09535,-0.08921 0.19691,-0.17348 0.30353,-0.25177c0.01209,-0.02121 0.02561,-0.04273 0.04072,-0.06453c0.16758,-0.242 0.37007,-0.29201 0.53791,-0.27686c0.19772,-0.09091 0.40375,-0.16123 0.61286,-0.20662l0.04902,-0.06361c0,0 0.19741,-0.10824 0.42063,-0.07687c0.15625,-0.09564 0.32815,-0.15375 0.51287,-0.15947c-0.1888,-0.64191 -1.06681,-1.03708 -0.90026,-1.76297c0.23217,-1.01192 1.61232,-0.99412 2.42502,-0.94772c-0.03152,-0.22876 -0.06664,-0.45669 -0.12896,-0.67857c-0.09803,-0.34895 -0.523,-0.70521 -0.35667,-1.02721c0.2013,-0.38974 1.45644,-0.54951 1.89656,-0.62669l0.07526,0.025l0.0016,-0.02471l0.69791,0.04561c0.1134,0.00545 0.22671,0.04166 0.32689,0.11105c0.28515,0.19749 0.35623,0.58868 0.15877,0.87382c-0.01928,0.02782 -0.04041,0.05363 -0.06311,0.07734l-0.57777,0.62321l-0.01089,-0.0101c-0.11155,0.18348 -0.22729,0.36428 -0.34912,0.54107l0.16313,-0.13108zM347.54418,175.80267c0.00484,-0.01196 0.00963,-0.02392 0.01441,-0.03594c-0.02117,-0.00094 -0.042,-0.00185 -0.06236,-0.00277c0.01598,0.01196 0.03198,0.02492 0.04793,0.03874z" fill="#8da900" fill-rule="nonzero" stroke="none" stroke-width="0.5" stroke-linecap="butt" stroke-linejoin="miter"/><path d="M345.84188,174.84183c-0.0817,1.35143 -0.25844,1.57836 -1.05744,1.95273c0.01389,0.42415 -0.52135,0.84306 -1.06425,1.12104l0.12435,0.30857c-0.27674,0.53038 -0.7373,0.99748 -1.2716,1.26651c0,0 -0.5722,0.25875 -0.83101,-0.31344c-0.25878,-0.57222 0.31344,-0.83101 0.31344,-0.83101c0.02721,-0.00983 0.05407,-0.02104 0.08054,-0.03354c-0.12735,-0.20368 -0.13111,-0.4712 0.01059,-0.68269c-0.01712,-0.24149 0.0858,-0.39483 0.20426,-0.49041l0.22131,-0.53681c0.15378,-0.11008 0.29518,-0.29606 0.44122,-0.45355c-0.17902,-0.58048 0.40364,-0.77459 0.40364,-0.77459l0.25955,0.0459c0.28812,-0.41326 0.61397,-0.8165 0.98116,-1.1714l-0.1839,-0.17861l0.5086,-0.52367c0.20929,-0.22328 0.55606,-0.26562 0.81522,-0.08614c0.23226,0.16083 0.32248,0.45022 0.24126,0.70611l-0.19699,0.67508z" fill="#8da900" fill-rule="nonzero" stroke="none" stroke-width="0.5" stroke-linecap="butt" stroke-linejoin="miter"/><path d="M343.3594,181.42319c-0.17979,-0.60171 0.42192,-0.78152 0.42192,-0.78152l1.33643,-0.09717c0.03206,0.45762 0.0641,0.91529 0.09617,1.3729c0,0 -0.08891,0.6217 -0.71056,0.53276c-0.44017,-0.06295 -0.52411,-0.39299 -0.53563,-0.58035c-0.19212,0.00623 -0.49062,-0.05278 -0.60833,-0.44666z" fill="#a00000" fill-rule="nonzero" stroke="none" stroke-width="0.5" stroke-linecap="butt" stroke-linejoin="miter"/><path d="M343.80398,179.97385c-0.5163,-0.35752 -0.15877,-0.87382 -0.15877,-0.87382l0.13859,-0.20011c0.1786,-0.25068 0.41631,-0.45247 0.68351,-0.61839l-0.09805,-0.14816l0.53439,-0.35367c0.209,-0.14539 0.4947,-0.15413 0.71631,-0.00065c0.22164,0.15346 0.31391,0.42397 0.25134,0.67076l-0.14309,0.62464l-0.04375,-0.01002l0.0062,0.12327c-0.15802,0.23479 -0.31602,0.46965 -0.47404,0.70444c0,0 -0.34929,0.50438 -0.8559,0.17088c-0.1468,0.05693 -0.33745,0.06271 -0.55676,-0.08915z" fill="#a00000" fill-rule="nonzero" stroke="none" stroke-width="0.5" stroke-linecap="butt" stroke-linejoin="miter"/><path d="M344.22141,176.67061c-0.37672,-0.50246 0.12575,-0.87919 0.12575,-0.87919l0.28648,-0.21404c0.13589,-0.10276 0.25605,-0.24928 0.38206,-0.37952c-0.09756,-0.28748 0.09274,-0.56231 0.09274,-0.56231l0.55433,-0.80048c0.0604,-0.08723 0.13895,-0.15445 0.22704,-0.20001c0.00814,-0.01725 0.01639,-0.03454 0.02471,-0.05179l0.10391,-0.24036c0,0 0.24935,-0.57638 0.82573,-0.32704c0.13641,0.05903 0.2266,0.13634 0.28474,0.22004c0.16339,0.20925 0.11388,0.45309 0.06817,0.58287c0.12035,0.00175 0.2415,0.03804 0.34789,0.11171c0.22164,0.15346 0.31391,0.42397 0.25134,0.67076l-0.14309,0.62464l-0.02326,-0.00532l0.00461,0.07031c-0.26606,0.56693 -0.59183,1.1069 -0.94729,1.62248c0,0 -0.35752,0.5163 -0.87382,0.15877c-0.03304,-0.02289 -0.06247,-0.0464 -0.08868,-0.07038c-0.07873,0.00795 -0.16769,-0.00072 -0.26747,-0.03402c-0.13166,0.00536 -0.26609,-0.03044 -0.38279,-0.11124c-0.01091,-0.00754 -0.02149,-0.01538 -0.03178,-0.02349c-0.14271,0.08084 -0.52178,0.23717 -0.82134,-0.16235z" fill="#a00000" fill-rule="nonzero" stroke="none" stroke-width="0.5" stroke-linecap="butt" stroke-linejoin="miter"/><path d="M347.87983,172.55752c0.19749,-0.28515 0.58868,-0.35623 0.87382,-0.15877c0.28515,0.19749 0.35623,0.58868 0.15877,0.87382c-0.19749,0.28515 -0.58868,0.35623 -0.87382,0.15877c-0.28515,-0.19749 -0.35623,-0.58868 -0.15877,-0.87382z" fill="#a00000" fill-rule="nonzero" stroke="none" stroke-width="0.5" stroke-linecap="butt" stroke-linejoin="miter"/><path d="M345.22924,177.70259c-0.2578,-0.17853 -0.29774,-0.39664 -0.27307,-0.57029c-0.00808,-0.01075 -0.01582,-0.02168 -0.02316,-0.03284c-0.0515,0.08352 -0.11202,0.16467 -0.18432,0.24232c-0.15587,0.16741 -0.36221,0.28515 -0.55619,0.41347c-0.38542,0.56454 -0.78586,1.11628 -1.16188,1.65933l-0.48506,0.70043c-0.19749,0.28515 -0.58868,0.35623 -0.87382,0.15877c-0.25913,-0.17944 -0.34149,-0.51896 -0.2061,-0.79341l0.24065,-0.51052c-0.27072,-0.24408 -0.15657,-0.63527 -0.15657,-0.63527c0.65927,-2.25934 1.77939,-3.48761 3.37836,-5.13385l0.5086,-0.52367c0.20929,-0.22328 0.55606,-0.26562 0.81522,-0.08614c0.07746,0.05364 0.1391,0.12157 0.18388,0.19779c0.14171,-0.12791 0.41942,-0.28899 0.77063,-0.04583c0.32492,0.22502 0.30375,0.51286 0.24341,0.69539c0.00295,0.00702 0.00585,0.01415 0.00865,0.02149c0.17642,0.063 0.47187,0.23579 0.4087,0.67742c-0.08892,0.62169 -0.71058,0.53278 -0.71058,0.53278c-0.13062,-0.04555 -0.28245,-0.06459 -0.43203,-0.08645c0.03906,0.13888 0.02845,0.31088 -0.10629,0.50546c-0.32521,0.4696 -0.78179,0.21627 -0.86168,0.1666c-0.09316,0.06846 -0.16724,0.14689 -0.22777,0.233c-0.02432,0.05239 -0.0491,0.10465 -0.07435,0.15675c0.05217,0.07834 0.08556,0.16688 0.0988,0.25845c0.1847,0.17388 0.38281,0.334 0.59166,0.47657l-0.04189,1.16356c0,0 -0.35752,0.5163 -0.87382,0.15877zM346.06055,175.09574c-0.0879,0.03232 -0.16516,0.06994 -0.23337,0.11219z" fill="#000000" fill-rule="nonzero" stroke="none" stroke-width="0.5" stroke-linecap="butt" stroke-linejoin="miter"/><path d="M346.28691,175.18486l-0.28538,0.65973" fill="none" fill-rule="nonzero" stroke="#001026" stroke-width="1.2" stroke-linecap="round" stroke-linejoin="miter"/><path d="M345.95237,176.41072l0.7626,-2.21544" fill="none" fill-rule="nonzero" stroke="#a00000" stroke-width="1.2" stroke-linecap="round" stroke-linejoin="miter"/><path d="M346.37134,177.04379l-1.14097,-1.81896" fill="none" fill-rule="nonzero" stroke="#000000" stroke-width="1.2" stroke-linecap="round" stroke-linejoin="miter"/><path d="M345.53808,174.40909l2.75493,0.10736" fill="none" fill-rule="nonzero" stroke="#000000" stroke-width="1.2" stroke-linecap="round" stroke-linejoin="miter"/><path d="M336.77093,180.01027c0.47363,0.41235 0.06128,0.88602 0.06128,0.88602l-0.46517,0.529c-0.02889,-0.00176 -0.05778,-0.00353 -0.08665,-0.00528l0.03582,0.04777l-0.52341,0.39245c-0.15922,0.12531 -0.37061,0.16591 -0.56459,0.10916c-0.7096,0.36972 -1.97572,0.35406 -2.17284,-0.81948c-0.19827,-1.18044 1.70716,-2.57707 2.76928,-1.79766c0.19175,0.14071 0.30847,0.32036 0.36517,0.51926c0.15784,-0.0531 0.36296,-0.05111 0.58108,0.13878z" fill="#a00000" fill-rule="nonzero" stroke="none" stroke-width="0.5" stroke-linecap="butt" stroke-linejoin="miter"/><path d="M334.56279,180.61209c0.19749,-0.28515 0.58868,-0.35623 0.87382,-0.15877c0.28515,0.19749 0.35623,0.58868 0.15877,0.87382c-0.19749,0.28515 -0.58868,0.35623 -0.87382,0.15877c-0.28515,-0.19749 -0.35623,-0.58868 -0.15877,-0.87382z" fill="#ffffff" fill-rule="nonzero" stroke="none" stroke-width="0.5" stroke-linecap="butt" stroke-linejoin="miter"/><path d="M345.56908,175.97382l0.71796,-1.90342l1.20806,0.23642" fill="none" fill-rule="nonzero" stroke="#000000" stroke-width="1.2" stroke-linecap="round" stroke-linejoin="miter"/><path d="M331.94944,176.82268c-0.28515,-0.19749 -0.35623,-0.58868 -0.15877,-0.87382c0.0225,-0.03251 0.04754,-0.06221 0.07462,-0.08904c-0.15646,0.02693 -0.32318,-0.00509 -0.46405,-0.1026c-0.28515,-0.19749 -0.35623,-0.58868 -0.15877,-0.87382c0.06592,-0.0952 0.15343,-0.16656 0.25143,-0.21199c-0.1632,-0.21079 -0.17934,-0.51115 -0.01947,-0.74195c0.03103,-0.0448 0.06684,-0.08432 0.10622,-0.11833c-0.20947,-0.21059 -0.24561,-0.54703 -0.07045,-0.79998c0.19749,-0.28515 0.58868,-0.35623 0.87382,-0.15877c0.02216,0.01536 0.04303,0.03187 0.06258,0.04945c0.20619,-0.2454 0.56914,-0.29782 0.8379,-0.1117c0.28515,0.19749 0.35623,0.58868 0.15877,0.87382c-0.01536,0.02216 -0.03188,0.04303 -0.04942,0.0626c0.2454,0.20619 0.29782,0.56914 0.1117,0.8379c-0.03428,0.04956 -0.07448,0.09261 -0.11893,0.12898c0.16851,0.21111 0.18687,0.51572 0.02519,0.74922c-0.04796,0.06926 -0.10732,0.12587 -0.17383,0.16907c0.1821,0.21151 0.20629,0.52692 0.03996,0.76708c-0.03908,0.05644 -0.08577,0.10448 -0.13771,0.14375c0.13118,0.20671 0.13416,0.48036 -0.01398,0.69434c-0.19749,0.28515 -0.58868,0.35623 -0.87382,0.15877c-0.18042,-0.12495 -0.27513,-0.32745 -0.27034,-0.53162c-0.01105,-0.00668 -0.02192,-0.01376 -0.0327,-0.0212zM332.27503,175.59841c-0.0225,0.03251 -0.04754,0.06221 -0.07462,0.08904c0.01068,-0.00184 0.0214,-0.0034 0.03215,-0.00467c0.00413,-0.00644 0.0084,-0.01284 0.01277,-0.01915c0.04796,-0.06926 0.10732,-0.12587 0.17383,-0.16907c-0.02129,-0.0247 -0.04038,-0.05084 -0.05732,-0.07809c-0.01844,0.06334 -0.04723,0.12479 -0.08684,0.18201zM332.32736,174.81722c-0.02314,0.0147 -0.04715,0.02774 -0.07177,0.03921c0.01324,0.01711 0.02554,0.03481 0.03684,0.05303c0.00913,-0.03129 0.02074,-0.0621 0.03497,-0.0922zM332.50683,173.77319c-0.02181,0.02592 -0.04532,0.04973 -0.07031,0.07128c0.00799,0.00805 0.01574,0.01628 0.02325,0.02466c0.00428,-0.00666 0.00865,-0.01329 0.01318,-0.01986c0.01536,-0.02216 0.03187,-0.04303 0.04945,-0.06258c-0.00528,-0.00443 -0.01047,-0.00894 -0.01555,-0.0135z" fill="#e93e3e" fill-rule="nonzero" stroke="none" stroke-width="0.5" stroke-linecap="butt" stroke-linejoin="miter"/><path d="M327.04924,184.14626c-0.28515,-0.19749 -0.35623,-0.58868 -0.15877,-0.87382c0.05225,-0.07545 0.11805,-0.13593 0.19191,-0.18039c-0.00505,-0.13118 0.03079,-0.26506 0.1113,-0.38127c0.08245,-0.1191 0.19871,-0.20082 0.32694,-0.24127c-0.03677,-0.16502 -0.00717,-0.34431 0.09664,-0.49422c0.09736,-0.14061 0.2418,-0.22912 0.39741,-0.25911c-0.09582,-0.19733 -0.08529,-0.4392 0.04849,-0.63239c0.10519,-0.15187 0.26534,-0.24305 0.43518,-0.2652c-0.07328,-0.18798 -0.05484,-0.40782 0.06869,-0.58618c0.1561,-0.22544 0.43333,-0.31707 0.68347,-0.24798c-0.01008,-0.13799 0.0252,-0.28018 0.1101,-0.40276c0.10505,-0.1517 0.26493,-0.2428 0.4345,-0.26512c-0.1509,-0.20968 -0.1619,-0.49997 -0.00641,-0.72445c0.08245,-0.1191 0.19871,-0.20082 0.32694,-0.24127c-0.03675,-0.16503 -0.00717,-0.34431 0.09664,-0.49422c0.04225,-0.061 0.09335,-0.11219 0.15037,-0.15305c0.01821,-0.06777 0.04814,-0.13362 0.09037,-0.19462c0.03257,-0.04702 0.07039,-0.0882 0.11213,-0.12333c0.00615,-0.11189 0.04233,-0.22351 0.11083,-0.32241c0.11558,-0.16689 0.29754,-0.26047 0.48579,-0.26975c0.00221,-0.11951 0.0385,-0.23968 0.11167,-0.34536c0.19749,-0.28515 0.58868,-0.35623 0.87382,-0.15877c0.28515,0.19749 0.35623,0.58868 0.15877,0.87382c-0.11558,0.16689 -0.29754,0.26047 -0.48579,0.26975c-0.00221,0.11951 -0.0385,0.23968 -0.11167,0.34536c-0.03257,0.04702 -0.07039,0.0882 -0.11213,0.12333c-0.00617,0.11191 -0.04233,0.22351 -0.11083,0.32241c-0.04225,0.061 -0.09335,0.11222 -0.15038,0.15306c-0.01821,0.06777 -0.04814,0.1336 -0.09041,0.19461c-0.08245,0.1191 -0.19871,0.20082 -0.32694,0.24127c0.03674,0.16502 0.00716,0.34428 -0.09664,0.49421c-0.10505,0.1517 -0.26493,0.2428 -0.4345,0.26512c0.15089,0.2097 0.1619,0.49997 0.00641,0.72445c-0.15612,0.22543 -0.43333,0.31707 -0.68347,0.24798c0.01008,0.13799 -0.0252,0.28018 -0.1101,0.40276c-0.10519,0.15187 -0.26534,0.24305 -0.43518,0.2652c0.07328,0.18798 0.05484,0.40782 -0.06869,0.58618c-0.09736,0.14061 -0.24181,0.22911 -0.39741,0.25911c0.09581,0.19732 0.08529,0.4392 -0.04849,0.63239c-0.08245,0.1191 -0.19871,0.20082 -0.32694,0.24127c0.03674,0.16502 0.00717,0.34431 -0.09664,0.49422c-0.05225,0.07545 -0.11805,0.13593 -0.19191,0.18039c0.00505,0.13118 -0.03079,0.26506 -0.1113,0.38127c-0.19749,0.28515 -0.58868,0.35623 -0.87382,0.15877z" fill="#e93e3e" fill-rule="nonzero" stroke="none" stroke-width="0.5" stroke-linecap="butt" stroke-linejoin="miter"/><path d="M333.52514,172.94893c0.19749,-0.28515 0.58868,-0.35623 0.87382,-0.15877c0.26878,0.1861 0.34734,0.54433 0.19016,0.82365c0.02331,0.01215 0.04613,0.02584 0.06828,0.0412c0.28515,0.19749 0.35623,0.58868 0.15877,0.87382c-0.07645,0.11035 -0.1819,0.18867 -0.299,0.23172c0.01422,0.00827 0.02825,0.01718 0.04202,0.02674c0.28515,0.19749 0.35623,0.58868 0.15877,0.87382c-0.07102,0.10257 -0.16712,0.17742 -0.2743,0.22206c0.12959,0.20643 0.13197,0.4787 -0.01557,0.69176c-0.05226,0.07547 -0.11809,0.13594 -0.19198,0.1804c0.14489,0.20895 0.15347,0.49424 0.00015,0.71559c-0.19749,0.28515 -0.58868,0.35623 -0.87382,0.15877c-0.28515,-0.19749 -0.35623,-0.58868 -0.15877,-0.87382c0.05226,-0.07547 0.11809,-0.13594 0.19198,-0.1804c-0.14489,-0.20895 -0.15347,-0.49424 -0.00015,-0.71559c0.07102,-0.10255 0.16711,-0.17742 0.2743,-0.22206c-0.12959,-0.20643 -0.13196,-0.47871 0.01557,-0.69176c0.07645,-0.11035 0.1819,-0.18867 0.299,-0.23172c-0.01422,-0.00827 -0.02825,-0.01718 -0.04202,-0.02674c-0.26878,-0.1861 -0.34732,-0.54434 -0.19014,-0.82365c-0.02332,-0.01215 -0.04612,-0.02584 -0.06829,-0.04121c-0.28515,-0.19749 -0.35623,-0.58868 -0.15877,-0.87382z" fill="#e93e3e" fill-rule="nonzero" stroke="none" stroke-width="0.5" stroke-linecap="butt" stroke-linejoin="miter"/><path d="M325.65825,185.93427c0.03946,-0.05703 0.11771,-0.07124 0.17476,-0.03176c0.05703,0.03946 0.07124,0.11771 0.03176,0.17476c-0.03946,0.05703 -0.11771,0.07124 -0.17476,0.03176c-0.05703,-0.03946 -0.07124,-0.11771 -0.03176,-0.17476z" fill="#a00000" fill-rule="nonzero" stroke="none" stroke-width="0.5" stroke-linecap="butt" stroke-linejoin="miter"/><path d="M328.09507,186.72304c0.12558,0.00222 0.12335,0.12779 0.12335,0.12779l-0.00009,0.00588c-0.00296,0.16744 -0.00592,0.33489 -0.00887,0.5023c0,0 -0.00222,0.12558 -0.12779,0.12335c-0.12558,-0.00222 -0.12335,-0.12779 -0.12335,-0.12779c0.00298,-0.16744 0.00602,-0.34074 0.00898,-0.5082c0,0 0.00222,-0.12558 0.12779,-0.12335z" fill="#a00000" fill-rule="nonzero" stroke="none" stroke-width="0.5" stroke-linecap="butt" stroke-linejoin="miter"/><path d="M326.69689,187.62631c-0.09775,-0.06769 -0.15358,-0.17333 -0.16138,-0.28335c-0.09294,0.05879 -0.23269,0.09623 -0.40026,-0.01985c-0.30979,-0.21454 -0.09527,-0.5243 -0.09527,-0.5243l0.0492,-0.06206c0.01872,-0.03894 0.03616,-0.0775 0.05257,-0.11576c-0.02724,-0.03492 -0.04773,-0.07397 -0.0611,-0.11517c-0.02511,0.02891 -0.07116,0.06036 -0.1418,0.02983c-0.023,-0.00996 -0.03943,-0.02249 -0.05098,-0.03624c-0.00921,-0.0039 -0.01877,-0.0091 -0.02857,-0.01592c-0.10327,-0.07153 -0.03176,-0.17476 -0.03176,-0.17476l0.04012,-0.05795c0.03754,-0.05014 0.08324,-0.09612 0.13435,-0.1355c0.03872,-0.07156 0.08004,-0.14636 0.11988,-0.22167c-0.00561,-0.00392 -0.01142,-0.00787 -0.01737,-0.01186l-0.06988,-0.1789c0,0 -0.00355,-0.01956 -0.00007,-0.04451c-0.00817,-0.00336 -0.01608,-0.00767 -0.02364,-0.01289c-0.05703,-0.03946 -0.07124,-0.11771 -0.03176,-0.17476c0.01935,-0.02791 0.04798,-0.04558 0.07886,-0.05169c-0.00352,-0.00336 -0.00683,-0.00689 -0.00988,-0.0106c-0.02207,-0.00581 -0.04575,-0.01803 -0.06303,-0.0427c-0.00957,-0.00355 -0.01885,-0.00838 -0.02765,-0.01446c-0.05703,-0.03946 -0.07124,-0.11771 -0.03176,-0.17476c0.03019,-0.0436 0.083,-0.06216 0.13168,-0.05087c0.0027,-0.00177 0.00545,-0.00346 0.00822,-0.00502c0.04055,-0.0227 0.09216,-0.02191 0.13295,0.00632c0.00273,0.00188 0.00534,0.00384 0.00785,0.00589c0.05562,-0.01459 0.11022,-0.03107 0.16475,-0.04769c0.00945,-0.06602 0.01889,-0.13207 0.02833,-0.19812c0,0 0.01778,-0.12435 0.14212,-0.10654c0.08228,0.01179 0.1023,0.07021 0.10647,0.10839c0.02302,0.00384 0.04552,0.00842 0.06747,0.01372c0.03534,-0.05105 0.07072,-0.10215 0.10607,-0.15317l-0.07057,-0.04886c0,0 -0.04214,-0.02919 -0.05395,-0.07719c-0.02602,0.02592 -0.08453,0.06704 -0.16004,0.01476c-0.10327,-0.07153 -0.03176,-0.17476 -0.03176,-0.17476l0.04012,-0.05795c0.04012,-0.05795 0.08023,-0.11587 0.12039,-0.17384c0,0 0.07153,-0.10327 0.17476,-0.03176c0.10327,0.07153 0.03176,0.17476 0.03176,0.17476c-0.01697,0.02447 -0.04109,0.05935 -0.06633,0.0958c0.04768,-0.00426 0.08803,0.02368 0.08803,0.02368l0.05184,0.03591l0.05043,-0.03467c0.00037,0.00005 0.0008,0.00012 0.00116,0.00017c0.03209,-0.04633 0.06416,-0.09263 0.09626,-0.139c0,0 0.07153,-0.10327 0.17476,-0.03176c0.10327,0.07153 0.03176,0.17476 0.03176,0.17476c-0.01772,0.02556 -0.03582,0.05174 -0.0543,0.07841c0.01165,0.0201 0.01796,0.04673 0.01295,0.08185c-0.00779,0.05456 -0.03612,0.08177 -0.06544,0.0951c0.08591,0.03001 0.14361,0.07389 0.18176,0.12299c0.10893,-0.03661 0.23318,-0.02315 0.33488,0.04731c0.17109,0.11848 0.21373,0.35322 0.09527,0.5243c-0.05945,0.08582 -0.14815,0.13934 -0.24344,0.1564c-0.0023,0.0043 -0.00487,0.00853 -0.00771,0.01265c-0.03946,0.05703 -0.11771,0.07124 -0.17476,0.03176c-0.01551,-0.01074 -0.02783,-0.02434 -0.03681,-0.03961c0.00224,0.13234 -0.07229,0.23994 -0.07229,0.23994c-0.09755,0.13438 -0.16417,0.27362 -0.21862,0.41653c0.01218,-0.00862 0.02194,-0.0197 0.02836,-0.03385c0,0 0.04865,-0.07026 0.12364,-0.05473c0.01821,-0.02633 0.03645,-0.05265 0.05469,-0.07898l-0.03813,-0.00412c0,0 -0.02245,-0.12359 0.10114,-0.14602c0.12359,-0.02245 0.14602,0.10114 0.14602,0.10114l-0.00249,0.19205c-0.06689,0.09657 -0.13377,0.19316 -0.20062,0.28974c0,0 -0.07153,0.10327 -0.17476,0.03176c-0.02183,-0.01511 -0.03584,-0.03167 -0.04438,-0.04833c-0.02755,0.00704 -0.05563,0.01245 -0.08371,0.01652c-0.04366,0.13767 -0.08666,0.27791 -0.14444,0.4196c0.10232,-0.0264 0.21512,-0.00983 0.30879,0.05505c0.17109,0.11848 0.21373,0.35322 0.09527,0.5243c-0.11848,0.17109 -0.35322,0.21373 -0.5243,0.09527zM326.24824,185.39972c-0.01935,0.02791 -0.04798,0.04558 -0.07886,0.05169c0.01361,0.01298 0.02379,0.02859 0.0303,0.04542c0.00642,0.00005 0.01286,0.00061 0.01924,0.00166l0.07735,0.01107c0.01787,-0.05403 0.03061,-0.10548 0.03626,-0.1531c-0.02374,0.00696 -0.04763,0.01377 -0.07166,0.02027c-0.00334,0.00794 -0.00752,0.01564 -0.01265,0.02303z" fill="#a00000" fill-rule="nonzero" stroke="none" stroke-width="0.5" stroke-linecap="butt" stroke-linejoin="miter"/><path d="M326.62101,188.60257l-0.01199,-0.0129c-0.14859,-0.07432 -0.29719,-0.14861 -0.44576,-0.22295c0,0 -0.0302,-0.01509 -0.068,-0.04531c-0.01223,-0.00662 -0.02423,-0.01395 -0.03593,-0.02207c-0.17109,-0.11848 -0.21373,-0.35322 -0.09527,-0.5243c0.11848,-0.17109 0.35322,-0.21373 0.5243,-0.09527c0.00924,0.00642 0.01818,0.01316 0.02667,0.02025c0.14369,0.07187 0.28737,0.14372 0.43108,0.21561l0.10391,0.06735c0,0 0.30979,0.21454 0.09527,0.5243c-0.21454,0.30979 -0.5243,0.09527 -0.5243,0.09527z" fill="#a00000" fill-rule="nonzero" stroke="none" stroke-width="0.5" stroke-linecap="butt" stroke-linejoin="miter"/><path d="M321.17799,192.71214c0.66643,-0.64346 2.66716,-0.67934 3.09805,-1.63418c-0.0364,-0.10853 -0.04598,-0.27181 0.1354,-0.40782c0.19984,-0.14985 0.36652,-0.06786 0.45622,0.00441c0.12463,0.05667 0.17603,0.15 0.19462,0.2364l0.02315,0.03103c1.03884,1.57128 2.24279,3.02679 3.13993,4.67571c0.23025,0.42318 1.34496,1.40699 0.49361,1.92133c-0.33802,0.20423 -1.67963,-0.93064 -1.94295,-1.113c-0.90771,-0.6286 -1.82131,-1.24948 -2.72347,-1.88604c-0.14262,-0.10062 -0.68114,-0.44267 -0.88524,-0.35559c-0.09947,0.04244 -0.2216,0.87802 -0.24931,0.99902c-0.25342,1.10626 -1.07758,1.91648 -1.32438,3.02671c-0.17843,0.75704 -1.41002,2.52467 -1.89247,0.87156c-0.11544,-0.39556 0.22954,-1.29621 0.18736,-1.75734c-0.16365,-1.78975 -0.17721,-3.06742 0.33043,-4.80942c0,0 0.10555,-0.36172 0.46725,-0.25616c0.36172,0.10555 0.25616,0.46725 0.25616,0.46725c-0.01098,0.03766 -0.02185,0.0751 -0.03249,0.11232c0.07179,-0.08807 0.16944,-0.12676 0.16944,-0.12676z" fill="#ffffff" fill-rule="nonzero" stroke="none" stroke-width="0.5" stroke-linecap="butt" stroke-linejoin="miter"/><path d="M320.85329,199.81048c-0.00949,0.0033 -0.01897,0.00648 -0.02849,0.0095l-0.03456,-0.16611c-0.00495,-0.00321 -0.00995,-0.00653 -0.01493,-0.01c-0.06878,-0.04767 -0.11173,-0.09996 -0.13692,-0.15257c-0.06143,0.10301 -0.12888,0.20719 -0.20367,0.31577c0,0 -0.21454,0.30979 -0.5243,0.09527c-0.30979,-0.21454 -0.09527,-0.5243 -0.09527,-0.5243c0.01428,-0.02047 0.0282,-0.04069 0.04176,-0.06064l0.12402,-0.50651c-0.0018,-0.05033 0.00556,-0.10492 0.02139,-0.16294c-0.08115,0.03068 -0.17116,0.06357 -0.27137,0.09989l0.09449,-0.86808c0.08706,-0.06268 0.17408,-0.12534 0.26111,-0.18801c-0.09886,-0.25956 -0.10879,-0.50135 0.09718,-0.70276c0.23287,-0.22771 0.60713,-0.2361 0.91072,-0.35413l-0.03234,0.37099c0.0902,-0.04047 0.18039,-0.08088 0.27056,-0.12134l-0.02959,0.40838c0.06112,-0.04379 0.12308,-0.08565 0.18557,-0.12553l0.09328,0.84106c-0.06708,0.12082 -0.1604,0.22887 -0.26888,0.32066c0.08756,0.26421 0.13765,0.54255 0.14117,0.81746l0.0979,0.00339c-0.02312,0.07645 -0.05932,0.14933 -0.10534,0.21729c-0.00711,0.08675 -0.01916,0.17263 -0.03647,0.25714l-0.55706,0.18611z" fill="#a00000" fill-rule="nonzero" stroke="none" stroke-width="0.5" stroke-linecap="butt" stroke-linejoin="miter"/><path d="M326.86957,196.66241c-0.30979,-0.21454 -0.09527,-0.5243 -0.09527,-0.5243l0.03404,-0.04572c-0.03231,-0.10631 -0.01746,-0.22583 0.0507,-0.32427c0.04713,-0.06808 0.11271,-0.11583 0.18535,-0.14117l0.20926,-0.64395c0.01109,-0.037 0.02809,-0.07292 0.05129,-0.10642c0.11848,-0.17109 0.35322,-0.21373 0.5243,-0.09527c0.13299,0.09206 0.18835,0.25436 0.15081,0.40246l-0.05145,0.22469l0.10563,-0.05651c0.01387,0.14915 0.02031,0.28551 0.0197,0.4084c0.05832,0.00732 0.11579,0.02837 0.16749,0.06415c0.13299,0.09206 0.18835,0.25436 0.15081,0.40246l-0.04019,0.17544c0.1022,-0.02623 0.2148,-0.00962 0.30832,0.05516c0.03976,0.02755 0.07261,0.06139 0.09808,0.09923c0.12606,0.04962 0.20144,0.12759 0.14578,0.24235c0.008,0.0047 0.01582,0.00971 0.02356,0.01505c0.17109,0.11848 0.21373,0.35322 0.09527,0.5243c-0.01341,0.01934 -0.02829,0.0371 -0.04444,0.05311l-0.20677,0.21285l0.02204,0.06c-0.02632,-0.00076 -0.05211,-0.00176 -0.07739,-0.00298l-0.02732,0.02811c-0.12558,0.13395 -0.33363,0.15935 -0.48913,0.05169c-0.06911,-0.04787 -0.11723,-0.11462 -0.14228,-0.18855c-0.22429,-0.07988 -0.33148,-0.19552 -0.33373,-0.32626c-0.19227,-0.14008 -0.25117,-0.39485 -0.33781,-0.62575c-0.0673,0.07391 -0.25237,0.23075 -0.49665,0.0616z" fill="#a00000" fill-rule="nonzero" stroke="none" stroke-width="0.5" stroke-linecap="butt" stroke-linejoin="miter"/><path d="M316.27146,197.43836c0.11848,-0.17109 0.35322,-0.21373 0.5243,-0.09527c0.17109,0.11848 0.21373,0.35322 0.09527,0.5243c-0.11848,0.17109 -0.35322,0.21373 -0.5243,0.09527c-0.17109,-0.11848 -0.21373,-0.35322 -0.09527,-0.5243z" fill="#a00000" fill-rule="nonzero" stroke="none" stroke-width="0.5" stroke-linecap="butt" stroke-linejoin="miter"/><path d="M313.06839,196.61071l0.26619,0.04089c0.44589,0.01046 0.88981,0.08943 1.32482,0.18793c0,0 0.36731,0.08413 0.28318,0.45141c-0.08413,0.36731 -0.45141,0.28318 -0.45141,0.28318c-0.38435,-0.08917 -0.77701,-0.16282 -1.17156,-0.16904l-0.35788,-0.04834c0,0 -0.373,-0.05335 -0.31966,-0.42636c0.05335,-0.373 0.42636,-0.31966 0.42636,-0.31966z" fill="#a00000" fill-rule="nonzero" stroke="none" stroke-width="0.5" stroke-linecap="butt" stroke-linejoin="miter"/><path d="M311.92964,196.40356c0.11848,-0.17109 0.35322,-0.21373 0.5243,-0.09527c0.17109,0.11848 0.21373,0.35322 0.09527,0.5243c-0.11848,0.17109 -0.35322,0.21373 -0.5243,0.09527c-0.17109,-0.11848 -0.21373,-0.35322 -0.09527,-0.5243z" fill="#a00000" fill-rule="nonzero" stroke="none" stroke-width="0.5" stroke-linecap="butt" stroke-linejoin="miter"/><path d="M310.67263,195.61883c0.11848,-0.17109 0.35322,-0.21373 0.5243,-0.09527c0.17109,0.11848 0.21373,0.35322 0.09527,0.5243c-0.11848,0.17109 -0.35322,0.21373 -0.5243,0.09527c-0.17109,-0.11848 -0.21373,-0.35322 -0.09527,-0.5243z" fill="#a00000" fill-rule="nonzero" stroke="none" stroke-width="0.5" stroke-linecap="butt" stroke-linejoin="miter"/><path d="M317.72029,197.32713c0.11848,-0.17109 0.35322,-0.21373 0.5243,-0.09527c0.17109,0.11848 0.21373,0.35322 0.09527,0.5243c-0.11848,0.17109 -0.35322,0.21373 -0.5243,0.09527c-0.17109,-0.11848 -0.21373,-0.35322 -0.09527,-0.5243z" fill="#a00000" fill-rule="nonzero" stroke="none" stroke-width="0.5" stroke-linecap="butt" stroke-linejoin="miter"/><path d="M325.2273,197.38164c0.11848,-0.17109 0.35322,-0.21373 0.5243,-0.09527c0.17109,0.11848 0.21373,0.35322 0.09527,0.5243c-0.11848,0.17109 -0.35322,0.21373 -0.5243,0.09527c-0.17109,-0.11848 -0.21373,-0.35322 -0.09527,-0.5243z" fill="#a00000" fill-rule="nonzero" stroke="none" stroke-width="0.5" stroke-linecap="butt" stroke-linejoin="miter"/><path d="M323.77397,197.74696c0.11848,-0.17109 0.35322,-0.21373 0.5243,-0.09527c0.17109,0.11848 0.21373,0.35322 0.09527,0.5243c-0.11848,0.17109 -0.35322,0.21373 -0.5243,0.09527c-0.17109,-0.11848 -0.21373,-0.35322 -0.09527,-0.5243z" fill="#a00000" fill-rule="nonzero" stroke="none" stroke-width="0.5" stroke-linecap="butt" stroke-linejoin="miter"/><path d="M322.26718,197.81811c0.11848,-0.17109 0.35322,-0.21373 0.5243,-0.09527c0.17109,0.11848 0.21373,0.35322 0.09527,0.5243c-0.11848,0.17109 -0.35322,0.21373 -0.5243,0.09527c-0.17109,-0.11848 -0.21373,-0.35322 -0.09527,-0.5243z" fill="#a00000" fill-rule="nonzero" stroke="none" stroke-width="0.5" stroke-linecap="butt" stroke-linejoin="miter"/><path d="M356.02911,198.45274c0.28603,0.19806 0.46433,0.49362 0.52124,0.81098c0.27083,0.05228 0.55554,0.21561 0.78738,0.5964c0.36978,0.60735 0.18637,1.0802 -0.04237,1.37619c0.32037,0.39184 0.3784,0.94997 0.12503,1.40475l-0.64618,1.19694l-0.16383,-0.08843l-0.10718,0.43069c-2.18928,0.93424 -6.53282,2.40844 -4.88676,-2.07826c0.05662,-0.15437 0.12363,-0.29564 0.19963,-0.42546c-0.06602,-0.32383 -0.00491,-0.67301 0.19808,-0.96617c0.36372,-0.52521 1.05612,-0.68729 1.60876,-0.40112c0.19248,-0.0795 0.38866,-0.15419 0.58463,-0.22899c-0.21596,-0.40243 -0.20397,-0.90871 0.07388,-1.31c0.39494,-0.57028 1.17736,-0.71244 1.74767,-0.31751z" fill="#ffffff" fill-rule="nonzero" stroke="none" stroke-width="0.5" stroke-linecap="butt" stroke-linejoin="miter"/><path d="M349.90081,201.09432c0.37175,-0.53681 1.08685,-0.69428 1.64513,-0.38154c0.03646,-0.13465 0.09615,-0.26548 0.1801,-0.38673c0.30011,-0.43335 0.82395,-0.61951 1.30842,-0.51061c0.19234,-0.18391 0.43436,-0.29768 0.68803,-0.33433c-0.00933,-0.26122 0.06249,-0.52757 0.22274,-0.75899c0.39494,-0.57028 1.17736,-0.71244 1.74767,-0.31751c0.57028,0.39494 0.71244,1.17736 0.31751,1.74767c-0.20686,0.2987 -0.52,0.47995 -0.85332,0.5281c0.00933,0.26122 -0.06249,0.52757 -0.22274,0.75899c-0.30011,0.43335 -0.82395,0.61951 -1.30842,0.51061c-0.39382,0.3766 -0.99578,0.45892 -1.47987,0.18779c-0.03646,0.13465 -0.09615,0.26548 -0.1801,0.38673c-0.39494,0.57028 -1.17736,0.71244 -1.74767,0.31751c-0.57028,-0.39494 -0.71244,-1.17736 -0.31751,-1.74767z" fill="#a00000" fill-rule="nonzero" stroke="none" stroke-width="0.5" stroke-linecap="butt" stroke-linejoin="miter"/></g></g></g></svg>