<svg version="1.1" xmlns="http://www.w3.org/2000/svg" xmlns:xlink="http://www.w3.org/1999/xlink" width="60.41759" height="59.76886" viewBox="0,0,60.41759,59.76886"><defs><linearGradient x1="340" y1="152.22626" x2="340" y2="207.77374" gradientUnits="userSpaceOnUse" id="color-1"><stop offset="0" stop-color="#b82525"/><stop offset="1" stop-color="#841212"/></linearGradient><linearGradient x1="336.97156" y1="155.97733" x2="336.97156" y2="173.70657" gradientUnits="userSpaceOnUse" id="color-2"><stop offset="0" stop-color="#ffffff"/><stop offset="1" stop-color="#ffffff" stop-opacity="0"/></linearGradient></defs><g transform="translate(-309.79121,-150.11557)"><g data-paper-data="{&quot;isPaintingLayer&quot;:true}" fill-rule="nonzero" stroke-linecap="butt" stroke-miterlimit="10" stroke-dasharray="" stroke-dashoffset="0" style="mix-blend-mode: normal"><path d="M339.99995,161.30521c2.35554,-5.3562 7.43936,-9.07895 13.34607,-9.07895c8.14316,0 14.75208,7.05448 14.75208,15.74661c0,17.11851 -17.33221,22.42669 -28.09815,39.80087c-11.38728,-17.48175 -28.09806,-22.11798 -28.09806,-39.80087c0,-8.69213 6.60892,-15.74661 14.75208,-15.74661c5.90675,0 10.99057,3.72275 13.34597,9.07895z" fill="url(#color-1)" stroke="#601414" stroke-width="4.22139" stroke-linejoin="round"/><path d="M352.90088,183.44347c-2.23607,-1.11803 -1.11803,-3.3541 -1.11803,-3.3541l1.15019,-2.01352c0.54598,-0.50322 1.28137,-0.85837 1.63795,-1.50966c0.45006,-0.82204 0.2138,-1.91567 0.68189,-2.72758c0.4338,-0.75243 1.53184,-0.98949 1.91148,-1.77064c0.70213,-1.4447 -0.42796,-4.71166 -1.18072,-5.91169c-0.42528,-0.67797 -1.63338,-2.85094 -2.91942,-2.92062c-1.58375,-0.08581 -3.03731,0.91939 -4.57602,1.30407c0,0 -2.42536,0.60634 -3.0317,-1.81902c-0.60634,-2.42536 1.81902,-3.0317 1.81902,-3.0317c0.84207,-0.21052 5.83847,-1.50036 6.33428,-1.4235c6.2116,0.96284 10.4012,10.07301 8.17395,15.71587c-0.38965,0.98721 -1.65649,1.39743 -2.17988,2.32072c-0.46217,0.81529 -0.20535,1.92061 -0.68189,2.72758c-0.60367,1.02224 -1.63561,1.72113 -2.45341,2.5817l-0.21359,0.71405c0,0 -1.11803,2.23607 -3.3541,1.11803z" fill="#ffffff" stroke="none" stroke-width="0.5" stroke-linejoin="miter"/><path d="M365.61111,168.25142c0,2.5474 -4.34644,7.5565 -9.02918,11.12167c-4.3169,3.28665 -12.90859,3.19811 -16.88279,3.19811c-3.30008,0 -12.29817,-1.31152 -17.52918,-5.28813c-2.76592,-2.10265 -7.77815,-4.56913 -8.78713,-7.19632c-0.73533,-1.91463 -0.67282,-7.50921 0.50309,-9.57333c1.82027,-3.1952 7.40209,-5.41856 7.40209,-6.58177c0,-2.73661 7.04215,-3.13902 11.09192,1.24861c3.19527,3.46184 5.029,5.57033 8.683,5.57033c2.10691,0 5.94145,-5.44715 9.1579,-7.77803c5.00821,-3.62932 10.85302,2.94084 12.46394,4.47531c1.42289,1.35536 2.92634,9.09129 2.92634,10.80356z" fill="url(#color-2)" stroke="none" stroke-width="0" stroke-linejoin="miter"/></g></g></svg>