<svg version="1.1" xmlns="http://www.w3.org/2000/svg" xmlns:xlink="http://www.w3.org/1999/xlink" width="105.64247" height="102.24927" viewBox="0,0,105.64247,102.24927"><g transform="translate(-187.5013,-133.77367)"><g data-paper-data="{&quot;isPaintingLayer&quot;:true}" stroke-miterlimit="10" stroke-dasharray="" stroke-dashoffset="0" style="mix-blend-mode: normal"><path d="M228.55555,213.21385c-0.7,0.9 -2.7,4.4 -7.5,7.4c-3.3,2.1 -11.8,-1.4 -11.8,-1.4c0.9,9.2 -6.6,9 -8,6c-1.1,-2.4 -0.9,-12.7 1.3,-13.5c3.4,-1.2 8,0.8 12.1,0.8c1.2,0 2.5,-2.6 5.3,-5.4c2,-2 4.6,-5.7 8.8,-3.1c3.6,2.3 1.7,6.5 -0.2,9.2z" fill="#ffab19" fill-rule="evenodd" stroke="#001026" stroke-width="1.2" stroke-linecap="round" stroke-linejoin="round"/><path d="M243.66211,188.93431c1.62833,1.50949 7.11502,7.87315 9.7947,7.35417c2.53893,-0.53277 6.67821,-6.52162 10.09772,-2.98934c3.35602,3.45501 -1.603,7.65835 -6.72771,9.92713c-6.61493,2.97535 -15.8797,-3.26116 -16.97848,-10.90005c-0.30096,-2.72936 2.12197,-4.97868 3.81377,-3.39192z" fill="#ffab19" fill-rule="evenodd" stroke="#001026" stroke-width="1.2" stroke-linecap="round" stroke-linejoin="round"/><g fill-rule="evenodd"><path d="M243.25555,215.01385c0.6,3.3 -4.2,10.8 -4.2,10.8c0,0 6,4.1 2.2,8.3c-2.8,3.1 -5,0.6 -12.3,-6.5c-1.1,-1.1 -1.1,-2.7 -0.2,-3.8c2.1,-2.4 5.1,-6.5 3.1,-8.4c-2.8,-2 -6,-4 -8,-5.2c-8.2,-4.8 -2.2,-10.7 2.3,-19c2.4,-4.5 3.6,-3.3 9.6,-2.1c3.4,0.5 5.4,0.8 7.6,0.7c3.3,-0.1 2.7,4.7 1.8,7.2c0,0 -1.4,3.7 -2.7,5.6c-1.6,2.4 -3.4,4.8 -4.6,5.7c0,0 4.7,3.5 5.4,6.7z" fill="#ffab19" stroke="#001026" stroke-width="1.2" stroke-linecap="round" stroke-linejoin="round"/><path d="M237.08395,208.21675c0,0 -1.5,-1.2 -3.1,-2.7c-2,-1.8 -4,-3.3 -2,-6.4c1.8,-2.4 3.5,-5.6 8,-2.7c4.3,2.7 2.4,5.2 2.4,5.2c-2.2,4.5 -5.3,6.6 -5.3,6.6z" fill="#ffffff" stroke="none" stroke-width="1" stroke-linecap="butt" stroke-linejoin="miter"/></g><g fill-rule="evenodd"><path d="M220.23138,204.60205c0.39339,0.80327 1.19902,2.54997 -2.7714,3.79728c-3.97042,1.24731 -9.8807,-2.38153 -10.51672,-2.86679c-2.23205,-1.59179 -4.85152,-3.57742 -7.14913,-6.54497c1.1704,0.11143 2.38625,-0.07891 3.57863,-0.66285c1.10959,-0.5434 2.46558,-1.28488 3.79102,-2.18054c0.80718,1.59288 1.86541,2.9238 2.84355,4.05343c2.33915,2.53937 9.8118,3.461 10.22404,4.40443z" fill="#ffab19" stroke="#001026" stroke-width="1.2" stroke-linecap="round" stroke-linejoin="round"/><path d="" fill="#ffffff" stroke="none" stroke-width="1" stroke-linecap="butt" stroke-linejoin="miter"/></g><path d="M253.04542,134.2729c0.3,-0.2 0.8,-0.1 0.9,0.3l2.6,10.7c0,0 6.4,4.7 8.3,8c3.2,5.5 3.3,10 3.3,10c0,0 7.1,2.1 8.3,7.8c1.2,5.7 -3.2,16.5 -22,20.2c-18.8,3.7 -33.9,-1.4 -41,-12.8c-6.71857,-10.78756 2.94943,-23.54509 3.4992,-24.20683l-0.973,-8.2937c2.54322,-0.51721 5.43943,-1.39774 6.22577,-1.82784c1.06596,-0.58304 1.68659,-1.54797 2.06567,-2.64525l3.48237,2.27361c0,0 4.5,-1.7 9.2,-1.9c2.8,-0.2 5.2,0 7.5,0.4zM216.94462,154.26607l0.0008,0.00683c0.03223,-0.04298 0.03041,-0.0444 -0.0008,-0.00683z" fill="#ffab19" fill-rule="nonzero" stroke="#001026" stroke-width="1.2" stroke-linecap="butt" stroke-linejoin="miter"/><path d="M257.10839,187.33475c0.03289,0.39865 -0.34109,0.73052 -0.74795,0.66375c-1.95113,-0.54139 -7.46441,-1.69194 -13.47698,-1.59721c-5.40638,0.14505 -8.57088,0.70717 -10.04113,1.1295c-0.49008,0.14078 -0.92984,-0.32464 -0.77164,-0.83939c0.67493,-2.76486 3.84535,-10.55193 14.35913,-10.81737c9.15141,0.24833 10.57463,6.55265 10.67857,11.46072z" fill="#ffffff" fill-rule="evenodd" stroke="#001026" stroke-width="1.2" stroke-linecap="round" stroke-linejoin="round"/><path d="M286.24541,164.7729c-4.7,3.8 -11.9,3.9 -11.9,3.9" fill="#000000" fill-rule="evenodd" stroke="#001026" stroke-width="1.2" stroke-linecap="round" stroke-linejoin="round"/><path d="M284.94542,175.9729c-6.3,0.5 -10.2,-1.4 -10.2,-1.4" fill="#000000" fill-rule="evenodd" stroke="#001026" stroke-width="1.2" stroke-linecap="round" stroke-linejoin="round"/><path d="M250.94542,165.9729c2.1,0 4.3,0.2 4.4,0.9c0.1,1.4 -1.4,4.2 -3,4.3c-1.8,0.2 -6,-2.3 -6,-3.9c-0.1,-1.2 2.6,-1.3 4.6,-1.3z" fill="#000000" fill-rule="evenodd" stroke="#001026" stroke-width="1.2" stroke-linecap="round" stroke-linejoin="round"/><path d="M205.94542,164.4729c0,0 8.6,2.8 12.1,5.9" fill="#000000" fill-rule="evenodd" stroke="#001026" stroke-width="1.2" stroke-linecap="round" stroke-linejoin="round"/><path d="M218.34542,173.8729c-4.3,1.7 -11.7,0.6 -11.7,0.6" fill="#000000" fill-rule="evenodd" stroke="#001026" stroke-width="1.2" stroke-linecap="round" stroke-linejoin="round"/><g fill="#a00000" fill-rule="evenodd"><path d="M262.74541,154.2729c2.9,4.5 3,9.6 0.2,11.4c-2.8,1.8 -7.4,-0.3 -10.4,-4.8c-2.9,-4.5 -3,-9.6 -0.2,-11.4c2.8,-1.9 7.5,0.3 10.4,4.8z" stroke="#001026" stroke-width="1.2" stroke-linecap="round" stroke-linejoin="round"/><path d="M262.34542,159.9729c0,1.1 -0.8,2 -1.8,2c-1,0 -1.8,-0.9 -1.8,-2c0,-1.1 0.8,-2 1.8,-2c1,0 1.8,0.9 1.8,2" stroke="none" stroke-width="1" stroke-linecap="butt" stroke-linejoin="miter"/></g><g fill-rule="evenodd"><path d="M237.94542,157.0729c3,4.4 2.8,9.8 0.1,11.7c-3.3,1.9 -7.7,0.5 -10.7,-3.9c-3.1,-4.4 -3.3,-10.1 -0.2,-12.3c3.1,-2.3 7.8,0.1 10.8,4.5z" fill="#ffffff" stroke="#001026" stroke-width="1.2" stroke-linecap="round" stroke-linejoin="round"/><path d="M237.34542,162.8729c0,1.1 -0.8,2 -1.8,2c-1,0 -1.8,-0.9 -1.8,-2c0,-1.1 0.8,-2 1.8,-2c1,0.1 1.8,0.9 1.8,2" fill="#000000" stroke="none" stroke-width="1" stroke-linecap="butt" stroke-linejoin="miter"/></g><path d="M203.20184,154.89009c-1.94454,-1.94454 0,-3.88909 0,-3.88909l0.69616,-0.49659c1.48473,-2.9625 3.0582,-5.58575 5.23526,-8.09107c0,0 0.56176,-0.64201 1.4171,-0.89799c-0.10322,-0.28907 -0.15944,-0.60047 -0.15944,-0.925c0,-1.39125 1.03313,-2.54121 2.37405,-2.72452l3.05824,-0.4705c0.15181,-0.02597 0.30786,-0.0395 0.46707,-0.0395c0.86107,0 1.62971,0.39575 2.13395,1.01529c0.38967,-0.18716 0.77934,-0.37433 1.16901,-0.56149c0,0 2.53846,-1.05769 3.59615,1.48077c0.74616,1.79079 -0.2974,2.84463 -0.97687,3.31007c-0.49313,0.73821 -1.33397,1.2244 -2.28837,1.2244c-0.18534,0 -0.36639,-0.01833 -0.54145,-0.05329c-0.38635,0.14701 -0.7727,0.29402 -1.15905,0.44103c-0.46645,0.36425 -1.05344,0.5813 -1.69113,0.5813c-0.02776,0 -0.05543,-0.00041 -0.083,-0.00123c-0.00442,0.00672 -0.00885,0.01344 -0.01329,0.02015c-0.63386,0.95716 -2.02302,1.08589 -3.03453,1.62883l-0.48452,0.24226c0,0 -0.10909,0.05454 -0.2928,0.11768c-1.54628,1.90891 -2.68826,3.91916 -3.80705,6.1625l-1.72642,1.926c0,0 -1.94454,1.94454 -3.88909,0z" fill="#a00000" fill-rule="nonzero" stroke="none" stroke-width="0.5" stroke-linecap="butt" stroke-linejoin="miter"/><path d="M231.79484,194.95343c0,2.07383 -1.51848,3.75501 -3.39162,3.75501c-1.87314,0 -3.39162,-1.68118 -3.39162,-3.75501c0,-2.07383 1.51848,-3.75501 3.39162,-3.75501c1.87314,0 3.39162,1.68118 3.39162,3.75501z" fill="#a00000" fill-rule="nonzero" stroke="#001026" stroke-width="1.2" stroke-linecap="butt" stroke-linejoin="miter"/><path d="M227.65322,195.55908c0,-0.41421 0.33579,-0.75 0.75,-0.75c0.41421,0 0.75,0.33579 0.75,0.75c0,0.41421 -0.33579,0.75 -0.75,0.75c-0.41421,0 -0.75,-0.33579 -0.75,-0.75z" fill="#ffffff" fill-rule="nonzero" stroke="none" stroke-width="0.5" stroke-linecap="butt" stroke-linejoin="miter"/><path d="M217.96287,191.70694c0,-0.75 0.75,-0.75 0.75,-0.75c0.32301,0 1.85732,0 2.18033,0c0,0 0.04511,0 0.1132,0.01106c0.04193,-0.00727 0.08505,-0.01106 0.12906,-0.01106c0.41421,0 0.75,0.33579 0.75,0.75c0,0.41421 -0.33579,0.75 -0.75,0.75c-0.04401,0 -0.08713,-0.00379 -0.12906,-0.01106c-0.06809,0.01106 -0.1132,0.01106 -0.1132,0.01106c-0.32301,0 -0.64602,0 -0.96903,0h-1.21129c0,0 -0.75,0 -0.75,-0.75z" fill="#a00000" fill-rule="nonzero" stroke="none" stroke-width="0.5" stroke-linecap="butt" stroke-linejoin="miter"/><path d="M216.26706,190.98017c0,-0.41421 0.33579,-0.75 0.75,-0.75c0.41421,0 0.75,0.33579 0.75,0.75c0,0.41421 -0.33579,0.75 -0.75,0.75c-0.41421,0 -0.75,-0.33579 -0.75,-0.75z" fill="#a00000" fill-rule="nonzero" stroke="none" stroke-width="0.5" stroke-linecap="butt" stroke-linejoin="miter"/><path d="M204.15412,189.0421c0,-0.75 0.75,-0.75 0.75,-0.75h0.92259c1.43219,0.00332 2.73727,0.24604 4.16485,0.24226c0,0 0.35169,0 0.57341,0.24083c0.3787,-0.0839 0.6837,0.2211 0.6837,0.2211l-0.10617,0.04498c0.96396,0.24099 1.92792,0.48198 2.89188,0.72297c0.09521,0.02161 0.18353,0.06132 0.26117,0.11534c0.18788,0.12007 0.39992,0.35293 0.30592,0.77198c-0.00395,0.01867 -0.00859,0.03708 -0.01389,0.0552c-0.11491,0.4111 -0.41049,0.5163 -0.63215,0.53381c-0.02878,0.00335 -0.05805,0.00508 -0.08773,0.00508c-0.06861,0 -0.13508,-0.00921 -0.19822,-0.02647c-0.9636,-0.2409 -1.92719,-0.4818 -2.89079,-0.7227l-0.59069,-0.43954c0,0 -0.01492,-0.01492 -0.03724,-0.04224c-0.09303,0.01966 -0.1592,0.01966 -0.1592,0.01966c-1.43119,-0.00342 -2.73599,-0.24592 -4.16485,-0.24226h-0.92259c0,0 -0.75,0 -0.75,-0.75z" fill="#a00000" fill-rule="nonzero" stroke="none" stroke-width="0.5" stroke-linecap="butt" stroke-linejoin="miter"/><path d="M212.39092,193.64501c0,-0.75 0.75,-0.75 0.75,-0.75l1.06067,0.00562c0.00725,0.00181 0.01451,0.00362 0.02177,0.00541c0.04186,-0.00725 0.08491,-0.01103 0.12885,-0.01103c0.15207,0 0.29356,0.04526 0.41175,0.12303c0.50354,0.08537 1.01693,0.12178 1.52632,0.11922c0,0 0.75,0 0.75,0.75c0,0.75 -0.75,0.75 -0.75,0.75c-0.76181,-0.00329 -1.5329,-0.06311 -2.27197,-0.24788l-0.8774,0.00562c0,0 -0.75,0 -0.75,-0.75z" fill="#a00000" fill-rule="nonzero" stroke="none" stroke-width="0.5" stroke-linecap="butt" stroke-linejoin="miter"/><path d="M217.96287,194.12953c0,-0.41421 0.33579,-0.75 0.75,-0.75c0.41421,0 0.75,0.33579 0.75,0.75c0,0.41421 -0.33579,0.75 -0.75,0.75c-0.41421,0 -0.75,-0.33579 -0.75,-0.75z" fill="#a00000" fill-rule="nonzero" stroke="none" stroke-width="0.5" stroke-linecap="butt" stroke-linejoin="miter"/><path d="M203.91186,192.67598c0,-0.75 0.75,-0.75 0.75,-0.75h1.21129c1.78581,0.0011 3.54287,0.24323 5.32969,0.24226c0,0 0.75,0 0.75,0.75c0,0.75 -0.75,0.75 -0.75,0.75c-1.7871,-0.00093 -3.54454,-0.24343 -5.32969,-0.24226h-1.21129c0,0 -0.75,0 -0.75,-0.75z" fill="#a00000" fill-rule="nonzero" stroke="none" stroke-width="0.5" stroke-linecap="butt" stroke-linejoin="miter"/><path d="M252.00505,178.55648c-0.62258,-0.97569 -1.52947,-1.17073 -2.52054,-1.24972c-0.05257,1.26576 -0.20926,2.50688 -0.36194,3.75074c1.45102,0.31616 2.91114,0.92242 4.23318,1.7186c0.10786,-0.88081 0.21915,-1.76344 0.21915,-2.69758c0,0 0,-0.21955 0.11879,-0.42108c-0.58142,-0.17514 -1.12003,-0.31176 -1.68864,-1.10097zM247.93454,177.18902c-1.70935,-0.22128 -3.1871,-0.39932 -4.58327,-0.39551c0.09521,0.18846 0.09521,0.37791 0.09521,0.37791c0,1.6884 -0.7837,3.8039 -0.97002,5.55007c1.44612,-0.55839 2.93839,-1.01682 4.36334,-1.90723c0.26685,-0.00388 0.53688,0.00472 0.80906,0.02511c0.14842,-1.20844 0.29476,-2.41485 0.33993,-3.64352c-0.01809,-0.00221 -0.03617,-0.00448 -0.05425,-0.00682zM238.56013,186.40061c1.05064,-0.508 1.99225,-0.42341 2.90189,-0.26162c-0.00006,-0.00263 -0.00006,-0.004 -0.00006,-0.004l0.12596,-0.31075c-0.24638,-0.36958 -0.4089,-0.75854 -0.50745,-1.16305c-0.20143,0.02537 -0.39061,0.04027 -0.56432,0.04347c-1.19476,0.02199 -2.41629,-0.76746 -3.61066,-0.5821c0,0.79795 0,1.5959 0,2.39385c0.55708,0.03527 1.1123,0.02057 1.65464,-0.11581zM243.6428,186.41065c-0.00034,-0.01096 -0.00051,-0.02209 -0.00051,-0.0334c0,-0.75 0.75,-0.75 0.75,-0.75l0.47569,0.03725c0.09059,0.02967 0.30922,0.09904 0.59673,0.19072c0.54917,-0.25851 1.08555,-0.5055 1.81152,-0.49135c0.0024,-1.05306 0.09002,-2.08345 0.20363,-3.10566c-0.06874,-0.00379 -0.13721,-0.00657 -0.20538,-0.00832c-1.07532,0.79563 -3.02866,1.6439 -4.72318,2.10579c0.06368,0.23085 0.15651,0.44422 0.28471,0.63651l0.12596,1.1428c0,0 0,0.11354 -0.04418,0.25228c0.24049,0.02551 0.48166,0.0366 0.72501,0.02338zM233.03933,188.10277c-0.38992,0.39518 -0.63456,0.97927 -1.48789,0.6797c-0.96357,-0.33828 -0.79764,-2.46254 -0.73917,-3.00987c0.17034,-1.59472 1.60346,-4.78789 2.52491,-6.08837c0.75816,-1.07002 1.43091,-0.83914 2.04573,-1.83184c4.3849,-3.01453 7.75154,-2.75069 12.7349,-2.15212c0.11732,0.01409 0.23354,0.02692 0.34866,0.03892c0.08065,-0.02806 0.17532,-0.04454 0.28647,-0.04454c0.18445,0 0.32354,0.04536 0.42842,0.11378c1.6116,0.15336 2.98236,0.33138 4.07175,1.91601c0.74896,1.29705 2.45925,0.66439 3.21121,2.29294c0.29931,0.64823 0.21322,1.41225 0.29669,2.12135c0.16723,1.42069 2.21097,4.18568 0.75905,5.7379c-0.43,0.45971 -2.37306,0.2597 -2.97784,0.42975c-1.68471,0.47369 -2.785,1.14473 -4.69813,0.50701c-5.5043,0 -11.1675,-0.63908 -16.80478,-0.71061zM255.30965,186.24159c-0.03973,0.2792 -0.23321,0.50888 -0.49198,0.60055c0.31909,-0.00001 0.68992,0.00467 0.99873,0.00455c-0.15568,-0.20371 -0.32512,-0.4058 -0.50676,-0.6051zM235.4055,184.86699c-0.48966,0.40503 -0.92206,0.91161 -1.37202,1.38945c0.44719,-0.00717 0.90674,0.03908 1.37202,0.09571c0,-0.4814 0,-0.97984 0,-1.48516z" fill="#000000" fill-rule="nonzero" stroke="none" stroke-width="0.5" stroke-linecap="butt" stroke-linejoin="miter"/><path d="M267.01551,181.71838c-0.67082,0.33541 -1.00623,-0.33541 -1.00623,-0.33541l-0.32144,-0.81993c0.02454,-2.15067 -1.44761,-4.24037 -1.91595,-6.3602c-0.21936,-0.99289 0.04892,-2.424 -0.23219,-3.35507c-0.57349,-1.89941 -2.3848,-3.57936 -1.60203,-5.23628c0,0 0.41602,-0.62403 1.04006,-0.20801c0.62404,0.41602 0.20801,1.04006 0.20801,1.04006c-0.05115,0.0255 1.51505,2.96914 1.78959,3.96955c0.28729,1.04691 0.0072,2.33255 0.25233,3.42817c0.51052,2.28186 1.93937,4.3816 1.96018,6.72178l0.16308,0.14911c0,0 0.33541,0.67082 -0.33541,1.00623z" fill="#a00000" fill-rule="nonzero" stroke="none" stroke-width="0.5" stroke-linecap="butt" stroke-linejoin="miter"/><path d="M263.62388,183.89871c-0.67082,0.33541 -1.00623,-0.33541 -1.00623,-0.33541l-0.32144,-0.81993c0.08058,-1.88231 -1.14061,-3.56052 -1.66591,-5.36226c-0.96722,-3.3175 -1.27585,-6.85108 -1.95342,-10.23747c0,0 -0.14709,-0.73544 0.58835,-0.88253c0.73543,-0.14709 0.88252,0.58835 0.88252,0.58835c0.67079,3.35529 1.00398,6.81478 1.92273,10.11226c0.56061,2.01209 1.66843,3.66953 1.72573,5.78164l0.16307,0.1491c0,0 0.33541,0.67082 -0.33541,1.00623z" fill="#a00000" fill-rule="nonzero" stroke="none" stroke-width="0.5" stroke-linecap="butt" stroke-linejoin="miter"/><path d="M278.85946,163.83196c0.22353,0.71591 -0.49238,0.93945 -0.49238,0.93945l-0.89874,0.05049c-3.70566,-1.96174 -8.46956,-3.84328 -12.50954,-3.41651c0,0 -0.74585,0.07879 -0.82465,-0.66706c-0.07878,-0.74585 0.66707,-0.82463 0.66707,-0.82463c4.35995,-0.46058 9.38332,1.51198 13.36345,3.57963l-0.24466,-0.15374c0,0 0.71591,-0.22353 0.93945,0.49238z" fill="#a00000" fill-rule="nonzero" stroke="none" stroke-width="0.5" stroke-linecap="butt" stroke-linejoin="miter"/><g fill-rule="evenodd"><path d="M290.35611,154.06746c3,4.4 2.8,9.8 0.1,11.7c-3.3,1.9 -7.7,0.5 -10.7,-3.9c-3.1,-4.4 -3.3,-10.1 -0.2,-12.3c3.1,-2.3 7.8,0.1 10.8,4.5z" fill="#ffffff" stroke="#001026" stroke-width="1.2" stroke-linecap="round" stroke-linejoin="round"/><path d="M289.75611,159.86746c0,1.1 -0.8,2 -1.8,2c-1,0 -1.8,-0.9 -1.8,-2c0,-1.1 0.8,-2 1.8,-2c1,0.1 1.8,0.9 1.8,2" fill="#000000" stroke="none" stroke-width="1" stroke-linecap="butt" stroke-linejoin="miter"/></g><path d="M233.4347,164.42486c-0.33541,0.67082 -1.00623,0.33541 -1.00623,0.33541l-0.38627,-0.20157c-1.386,-0.48521 -2.75301,0.51052 -4.12858,0.96904c0,0 -0.71151,0.23717 -0.94868,-0.47434c-0.23717,-0.71151 0.47434,-0.94868 0.47434,-0.94868c1.78125,-0.59375 3.18704,-1.57624 5.07726,-0.96904l0.58276,0.28295c0,0 0.67082,0.33541 0.33541,1.00623z" fill="#a00000" fill-rule="nonzero" stroke="none" stroke-width="0.5" stroke-linecap="butt" stroke-linejoin="miter"/><path d="M235.41916,165.65686c0.03825,-0.21429 0.18365,-0.6216 0.73635,-0.6216c0.75,0 0.75,0.75 0.75,0.75l-0.33397,0.8663c-1.24115,0.68535 -0.12839,1.2706 0.59882,1.99499c0,0 0.53033,0.53033 0,1.06066c-0.53033,0.53033 -1.06066,0 -1.06066,0c-1.41723,-1.42218 -2.30946,-2.65806 -0.69053,-4.05035z" fill="#a00000" fill-rule="nonzero" stroke="none" stroke-width="0.5" stroke-linecap="butt" stroke-linejoin="miter"/><path d="M233.73291,160.72105c-0.50215,0 -0.66809,-0.33621 -0.72293,-0.55841c-1.77935,-0.91517 -4.89896,0.35074 -6.60519,0.77828c0,0 -0.7276,0.1819 -0.9095,-0.5457c-0.1819,-0.72761 0.5457,-0.90951 0.5457,-0.90951c2.49431,-0.62207 5.72557,-1.86964 8.10795,-0.38095l0.33398,0.8663c0,0 0,0.75 -0.75,0.75z" fill="#a00000" fill-rule="nonzero" stroke="none" stroke-width="0.5" stroke-linecap="butt" stroke-linejoin="miter"/><path d="M236.92809,159.29009c-0.53033,0.53033 -1.06066,0 -1.06066,0l-0.46193,-0.77259c0,-1.81362 0.54966,-3.25488 -1.42524,-3.8914c0,0 -0.71151,-0.23717 -0.47434,-0.94868c0.23717,-0.71151 0.94869,-0.47434 0.94869,-0.47434c2.74277,0.93768 2.4509,2.81781 2.4509,5.31443l0.02259,-0.28807c0,0 0.53033,0.53033 0,1.06066z" fill="#a00000" fill-rule="nonzero" stroke="none" stroke-width="0.5" stroke-linecap="butt" stroke-linejoin="miter"/><path d="M232.61477,156.52347c-0.67082,0.33541 -1.00623,-0.33541 -1.00623,-0.33541l0.19139,-0.10842c-1.59268,-0.53089 -2.80557,-1.67911 -4.36066,-2.18033c0,0 -0.71151,-0.23717 -0.47434,-0.94868c0.23717,-0.71151 0.94868,-0.47434 0.94868,-0.47434c1.57301,0.53777 2.76456,1.64829 4.36066,2.18033l0.67591,0.86062c0,0 0.33541,0.67082 -0.33541,1.00623z" fill="#a00000" fill-rule="nonzero" stroke="none" stroke-width="0.5" stroke-linecap="butt" stroke-linejoin="miter"/><path d="M285.59742,161.35775c-0.67082,0.33541 -1.00624,-0.33541 -1.00624,-0.33541l0.42856,-0.06993c-1.97805,-0.00853 -3.79982,-0.48451 -5.81421,-0.48451c0,0 -0.75,0 -0.75,-0.75c0,-0.75 0.75,-0.75 0.75,-0.75c2.00263,0 3.86035,0.49432 5.81421,0.48451l0.91308,0.89911c0,0 0.33541,0.67082 -0.33541,1.00623z" fill="#a00000" fill-rule="nonzero" stroke="none" stroke-width="0.5" stroke-linecap="butt" stroke-linejoin="miter"/><path d="M288.98904,162.19644c0.67082,0.33541 0.33541,1.00623 0.33541,1.00623l-0.28904,0.56513c-0.53313,0.59898 -0.16913,0.75733 0.08747,1.52713c0,0 0.23717,0.71151 -0.47434,0.94868c-0.71151,0.23717 -0.94868,-0.47434 -0.94868,-0.47434c-0.4348,-1.3044 -0.63779,-1.5805 0.08747,-2.83353l0.19548,-0.4039c0,0 0.33541,-0.67082 1.00623,-0.33541z" fill="#a00000" fill-rule="nonzero" stroke="none" stroke-width="0.5" stroke-linecap="butt" stroke-linejoin="miter"/><path d="M286.71047,158.73359c-0.71151,0.23717 -0.94868,-0.47434 -0.94868,-0.47434l-0.24226,-0.72678c-0.30442,-0.91537 -0.29911,-1.79357 -0.49083,-2.68468c-0.3517,-1.63467 -5.28485,-2.75307 -6.4513,-3.45036c0,0 -0.64312,-0.38587 -0.25725,-1.02899c0.38587,-0.64312 1.02899,-0.25725 1.02899,-0.25725c1.99883,1.20412 6.27503,1.73478 7.11519,4.30192c0.26024,0.79519 0.19216,1.78899 0.47821,2.64501l0.24226,0.72678c0,0 0.23716,0.71151 -0.47435,0.94868z" fill="#a00000" fill-rule="nonzero" stroke="none" stroke-width="0.5" stroke-linecap="butt" stroke-linejoin="miter"/><path d="M288.50479,157.58233l-1.20198,-0.70305c0.71609,-1.07413 1.36119,-2.1025 2.27403,-3.02141c0,0 0.53033,-0.53033 1.06066,0c0.53033,0.53033 0,1.06066 0,1.06066c-0.5919,0.58739 -1.05525,1.23748 -1.50624,1.914c0.20974,0.59423 -0.3845,0.89135 -0.3845,0.89135l-0.14702,-0.08599c-0.01625,0.02447 -0.03253,0.04896 -0.04887,0.07345z" fill="#a00000" fill-rule="nonzero" stroke="none" stroke-width="0.5" stroke-linecap="butt" stroke-linejoin="miter"/><path d="M193.62261,187.2977c1.38813,-0.5684 1.95653,0.81974 1.95653,0.81974l0.40268,1.00419c0.25552,0.4778 0.487,0.93596 0.71387,1.37605c0.08078,-0.08006 0.17624,-0.15793 0.28845,-0.23242c0.69334,-0.46026 1.25736,-0.2805 1.62215,-0.02923c0.0624,-0.30779 0.24798,-0.63066 0.66418,-0.90695c1.24971,-0.8296 2.0793,0.42011 2.0793,0.42011l0.35058,0.52811c0.15606,0.23576 0.3128,0.47149 0.4711,0.70631c0.97431,-0.28106 1.59349,0.65167 1.59349,0.65167c0.71459,1.07646 2.09909,3.16209 2.81367,4.23854c0,0 0.8296,1.24971 -0.42011,2.0793c-0.06064,0.04025 -0.12027,0.07561 -0.17888,0.10644c0.16961,0.27 0.33976,0.53194 0.50665,0.78334c0,0 0.4148,0.62485 -0.21006,1.03965c-0.07382,0.04901 -0.14472,0.0835 -0.21234,0.10623c-0.05969,0.07094 -0.14084,0.13795 -0.24962,0.19673c-0.65984,0.35652 -1.01636,-0.30332 -1.01636,-0.30332c-0.06731,-0.12457 -0.13353,-0.24834 -0.19867,-0.3715c-0.92174,0.31188 -1.5917,-0.5352 -1.5917,-0.5352c-0.60322,-0.76267 -1.20643,-1.52536 -1.80965,-2.28804l-0.47154,-1.27817c0,0 -0.04705,-0.17386 -0.0483,-0.4174c-0.19691,-0.08232 -0.32052,-0.1717 -0.32052,-0.1717c-0.40265,-0.29429 -0.8185,-0.57458 -1.24709,-0.83336c0.21248,0.198 0.44236,0.39158 0.69329,0.58104c0,0 1.18221,0.92323 0.25898,2.10545c-0.92323,1.18221 -2.10545,0.25898 -2.10545,0.25898c-2.31496,-1.85464 -3.24076,-3.81522 -4.62087,-6.39591l-0.5335,-1.28214c0,0 -0.56839,-1.38814 0.81975,-1.95653z" fill="#a00000" fill-rule="nonzero" stroke="none" stroke-width="0.5" stroke-linecap="butt" stroke-linejoin="miter"/><path d="M194.04506,181.4575c1.24971,-0.8296 2.0793,0.42011 2.0793,0.42011l0.13399,0.20184c0.58555,0.88663 1.23894,1.73174 1.94773,2.52331c0,0 0.99799,1.11982 -0.12183,2.11782c-1.11982,0.99799 -2.11782,-0.12183 -2.11782,-0.12183c-0.7994,-0.90074 -1.53934,-1.85815 -2.2075,-2.8601l-0.13399,-0.20184c0,0 -0.8296,-1.24971 0.42011,-2.0793z" fill="#a00000" fill-rule="nonzero" stroke="none" stroke-width="0.5" stroke-linecap="butt" stroke-linejoin="miter"/><path d="M187.73255,179.73168c0.74677,-1.3009 2.04766,-0.55413 2.04766,-0.55413l0.18065,0.1421c0.49242,0.15774 0.98484,0.31549 1.47726,0.47324c0,0 1.42849,0.45761 0.97088,1.88611c-0.45761,1.42849 -1.88611,0.97088 -1.88611,0.97088c-0.49242,-0.15774 -0.98484,-0.31549 -1.47726,-0.47324l-0.75896,-0.39728c0,0 -1.3009,-0.74677 -0.55413,-2.04766z" fill="#a00000" fill-rule="nonzero" stroke="none" stroke-width="0.5" stroke-linecap="butt" stroke-linejoin="miter"/></g></g></svg>