<svg version="1.1" xmlns="http://www.w3.org/2000/svg" xmlns:xlink="http://www.w3.org/1999/xlink" width="980.48048" height="630.63063" viewBox="0,0,980.48048,630.63063"><g transform="translate(145.24024,130.31528)"><g data-paper-data="{&quot;isPaintingLayer&quot;:true}" stroke-miterlimit="10" stroke-dasharray="" stroke-dashoffset="0" style="mix-blend-mode: normal"><path d="M-145.24024,500.31535v-630.63063h980.48048v630.63063z" fill="#000000" fill-rule="nonzero" stroke="#ff3838" stroke-width="0" stroke-linecap="butt" stroke-linejoin="miter"/><text transform="translate(304.71471,259.28905) scale(0.5,0.5)" font-size="40" xml:space="preserve" fill="#ffffff" fill-rule="nonzero" stroke="none" stroke-width="1" stroke-linecap="butt" stroke-linejoin="miter" stroke-miterlimit="10" stroke-dasharray="" stroke-dashoffset="0" font-family="Marker" font-weight="normal" text-anchor="start" style="mix-blend-mode: normal"><tspan x="0" dy="0">Loading</tspan></text><g><path d="M339.61187,172.52359c-0.50442,0.11451 -3.10471,-2.63275 -4.82894,-2.82175c-1.22786,-0.09654 -2.73912,-0.11872 -4.20617,0.60466c-3.34207,1.58942 -3.06843,0.62191 -4.6057,-0.92555c-1.5855,-1.56155 -1.92733,-3.23064 4.51952,-3.44331c2.22263,-0.08429 4.05536,0.45037 5.53643,0.93476c0.38583,0.11257 3.6152,1.421 4.29434,3.39851c0.67915,1.9775 -0.26738,2.17237 -0.70951,2.25274z" fill="#000000" fill-rule="evenodd" stroke="#001026" stroke-width="1.2" stroke-linecap="round" stroke-linejoin="round"/><path d="M344.04192,168.04617c0.65107,0.81796 1.09711,2.5181 -0.82614,3.37007c-2.23475,1.02276 -3.93271,-1.40894 -4.68627,-2.4138c-0.75356,-1.00486 -1.10923,-1.57961 -2.87357,-3.24568c-0.69328,-0.67326 -1.64178,-1.36863 -2.16428,-1.73039c-0.22706,-0.11857 -0.46823,-0.18894 -0.73752,-0.16281c-0.49033,0.06629 3.81009,2.70147 3.09071,1.75894c-0.68542,-1.08181 -1.55315,-0.26933 0.12311,-1.33041c0.19256,-0.12192 -0.36954,0.1572 -0.1806,0.00678c1.77764,-1.41538 -0.056,-1.48761 1.08461,-0.71691c2.41345,1.59375 3.43685,0.34724 2.27927,1.26557c-0.15273,0.1648 -0.26296,0.90143 -0.08412,1.00593l-0.07417,-2.50501c0.50342,0.33729 -0.49615,-0.75707 -0.04063,-0.39984c0.50562,0.39652 1.62809,1.62273 2.07004,2.02106c1.89532,1.70822 2.53503,2.50002 3.01956,3.07653z" fill="#000000" fill-rule="evenodd" stroke="#001026" stroke-width="1.2" stroke-linecap="round" stroke-linejoin="round"/><path d="M348.24839,180.41246c-1.03097,0.48425 -2.57229,-0.33173 -2.22657,-1.69621c0.36583,-1.25397 1.75853,-2.26072 2.56239,-2.86355c0.80388,-0.60284 4.33488,-2.6605 7.22657,-0.19455c1.18762,1.13149 3.67933,4.78912 1.47876,5.87417c-2.20057,1.08507 -3.2153,-1.35668 -4.07737,-2.70715c-0.71134,-1.14954 -4.66639,1.46475 -4.96383,1.58734z" fill="#000000" fill-rule="evenodd" stroke="#001026" stroke-width="1.2" stroke-linecap="round" stroke-linejoin="round"/><g fill-rule="evenodd"><path d="M346.8123,171.61999c0.45212,0.60292 0.81985,1.49521 1.26791,2.82959c0.35964,1.09928 0.51429,3.08076 0.51429,3.08076c0.08232,1.33237 -0.30367,3.73183 -1.88116,3.21929c-1.04699,-0.35775 -2.0538,-0.49447 -3.76396,-0.73171c-3.06263,-0.26543 -3.7057,-0.03436 -4.33461,-2.36354c-0.62686,-2.69491 -3.46226,-5.35379 1.80508,-8.16091c0,0 2.89794,-1.14331 6.55953,-3.11052c2.47793,-1.31816 6.30433,-3.13264 7.63269,-3.73947c0.29743,-0.12256 0.61494,-0.13461 0.91839,-0.09842c4.80493,0.93072 8.13679,2.42605 7.53177,4.49993c-1.01303,3.47256 -7.55816,0.2548 -7.55816,0.2548c0,0 -2.76731,1.23376 -4.04747,1.85464z" fill="#000000" stroke="#001026" stroke-width="1.2" stroke-linecap="round" stroke-linejoin="round"/><path d="M347.99168,175.47047c0,0 0.56462,1.47309 -1.88916,2.17027c-2.57836,0.76552 -2.94805,-1.01703 -3.4785,-2.4278c-0.52842,-1.77653 0.64721,-2.21857 1.86506,-2.80533c0.98273,-0.49831 1.875,-0.86605 1.875,-0.86605c0,0 1.19966,1.44899 1.62757,3.92885z" fill="#a00000" stroke="none" stroke-width="1" stroke-linecap="butt" stroke-linejoin="miter"/></g><g fill-rule="evenodd"><path d="M340.73307,205.27697c-1.16556,-0.13068 -2.35123,-0.37189 -3.67352,-0.86231c-2.23867,-0.75773 -4.16984,-2.21079 -4.16984,-2.21079l-6.94732,2.1077c-0.22105,0.04019 -0.42001,-0.17487 -0.31549,-0.3537l3.53135,-8.33769c0.17682,0.47024 -3.31142,-7.66483 1.71688,-12.1641c5.02829,-4.49925 13.02858,-4.8344 21.57521,-0.40476c8.54663,4.42965 9.1492,10.25756 7.76846,12.83781c-1.38073,2.58027 -5.10054,2.59413 -5.10054,2.59413c0,0 -0.68138,2.15628 -2.99857,4.35869c-1.38067,1.32425 -5.12868,2.69059 -5.12868,2.69059l-2.75947,4.79479c-0.10453,0.17885 -0.35974,0.15673 -0.47629,0.01804z" fill="#000000" stroke="#001026" stroke-width="1.2" stroke-linecap="butt" stroke-linejoin="miter"/><path d="M355.02986,198.24813c-4.36684,-0.27956 -3.86632,-3.43061 -7.2685,-4.6848c-3.96689,-1.47126 -10.79369,1.29964 -12.5196,-4.80367c-1.74,-6.05506 5.83252,-11.38214 16.80064,-5.56569c8.46425,4.35328 9.33007,9.9963 7.94933,12.57658c-1.38073,2.58026 -4.96186,2.47757 -4.96186,2.47757z" fill="#000000" stroke="none" stroke-width="1" stroke-linecap="butt" stroke-linejoin="miter"/><path d="M341.34289,188.65551c0.54473,-2.40548 1.87929,-5.36556 6.40888,-4.56751c5.14852,1.18797 5.92603,5.33987 5.98023,6.76871c0.02611,0.26928 -0.23717,0.45417 -0.46424,0.33557c-0.68124,-0.35573 -2.18237,-0.95067 -4.82901,-1.56576c-2.95006,-0.65125 -5.77961,-0.63936 -6.79447,-0.56909c-0.20698,-0.00803 -0.35769,-0.20902 -0.3014,-0.40193z" fill="#000000" stroke="#001026" stroke-width="1.2" stroke-linecap="round" stroke-linejoin="round"/><path d="M358.86828,196.75116c0,0 3.45849,1.06126 5.19063,3.55529" fill="none" stroke="#001026" stroke-width="1.2" stroke-linecap="round" stroke-linejoin="round"/><path d="M359.89133,193.96189c0,0 2.14829,-0.36765 5.11644,0.7599" fill="none" stroke="#001026" stroke-width="1.2" stroke-linecap="round" stroke-linejoin="round"/><path d="M345.16695,193.48682c0.22512,-0.77169 2.60253,-1.38647 3.44252,-1.03676c0.75761,0.27335 1.08709,1.83483 0.84191,2.49597c-0.14673,0.32354 -1.23592,0.11047 -2.24877,-0.18501c-0.96459,-0.28141 -2.25273,-0.70951 -2.03566,-1.2742z" fill="#001026" stroke="#000000" stroke-width="1.2" stroke-linecap="round" stroke-linejoin="round"/><path d="M331.95405,188.0099c-2.12422,1.00267 -6.66594,1.1431 -6.66594,1.1431" fill="none" stroke="#001026" stroke-width="1.2" stroke-linecap="round" stroke-linejoin="round"/><path d="M327.03268,184.42851c0,0 3.72378,0.51064 5.55848,1.93556" fill="none" stroke="#001026" stroke-width="1.2" stroke-linecap="round" stroke-linejoin="round"/><g fill="#a00000"><path d="M345.55629,202.91593c-1.09719,-1.2621 -0.33137,-3.70775 1.70043,-5.47006c2.08004,-1.74823 4.59408,-2.11386 5.69126,-0.85178c1.09719,1.2621 0.33137,3.70775 -1.70043,5.47006c-2.03185,1.76233 -4.60816,2.16209 -5.69126,0.85178z" stroke="#001026" stroke-width="1.2" stroke-linecap="round" stroke-linejoin="round"/><path d="M351.85662,199.25878c-0.15476,0.53051 -0.66723,0.85204 -1.14954,0.71134c-0.48232,-0.1407 -0.74151,-0.68734 -0.58674,-1.21787c0.15476,-0.53051 0.66723,-0.85204 1.14954,-0.71134c0.48232,0.1407 0.74151,0.68734 0.58674,1.21787" stroke="none" stroke-width="1" stroke-linecap="butt" stroke-linejoin="miter"/></g><g><path d="M339.68051,197.22437c-2.06598,1.70004 -4.67044,2.19626 -5.84196,0.65079c-1.18559,-1.49723 -0.28714,-4.21818 1.82705,-5.90414c2.06598,-1.70004 4.38506,-1.75616 5.70931,-0.3755c1.03488,1.29626 0.37159,3.92882 -1.6944,5.62883z" fill="#ffffff" stroke="#001026" stroke-width="1.2" stroke-linecap="round" stroke-linejoin="round"/><path d="M340.20715,194.34264c-0.15476,0.53051 -0.65317,0.8038 -1.14954,0.71134c-0.48232,-0.1407 -0.74151,-0.68734 -0.58674,-1.21787c0.15476,-0.53051 0.66723,-0.85204 1.14954,-0.71134c0.48232,0.1407 0.74151,0.68734 0.58674,1.21787" fill="#001026" stroke="none" stroke-width="1" stroke-linecap="butt" stroke-linejoin="miter"/></g></g><path d="M341.21461,193.09652c0,0 0.15007,-0.02729 0.31576,0.019c0.06254,-0.16761 0.11029,-0.36758 0.14035,-0.64151c0.21865,-0.75717 0.43937,-1.51372 0.66008,-2.27031l0.03081,-0.49665c0,0 0.05423,-0.62567 0.67988,-0.57144c0.62566,0.05424 0.57144,0.67988 0.57144,0.67988l-0.07637,0.73994c-0.21104,0.72341 -0.42185,1.44688 -0.63516,2.16965c-0.20183,1.58331 -1.32159,3.46706 -2.14575,4.674c-0.66569,0.9749 -1.95994,1.07143 -2.65344,2.14198c-0.25669,0.39625 -0.06139,0.9659 -0.26678,1.39101c-0.10524,0.21784 -0.4291,0.2767 -0.52895,0.4971c-0.52777,1.16498 -0.28128,1.44845 -1.42244,2.26312c0,0 -0.51396,0.36088 -0.87483,-0.15306c-0.36088,-0.51396 0.15306,-0.87483 0.15306,-0.87483c1.39685,-0.96042 1.09208,-2.46851 1.87182,-3.78417c0.53473,-0.90223 1.48415,-1.48142 2.3646,-1.88027c0.03501,-0.01587 0.06612,-0.03204 0.09376,-0.04854c-0.10043,-0.08947 -0.15256,-0.18453 -0.15256,-0.18453c-0.11035,-0.20126 -0.22067,-0.40248 -0.33101,-0.6037l-0.01814,-0.59464c0,0 0.17587,-0.60287 0.77873,-0.427c0.40301,0.11756 0.45799,0.42594 0.45021,0.6175c0.00334,0.00611 0.0067,0.0122 0.01003,0.01827c0.12097,-0.06052 0.24299,-0.12017 0.32349,-0.22305c0.22303,-0.28523 0.19219,-0.69152 0.27027,-1.05182c-0.18702,0.04508 -0.35892,-0.00509 -0.35892,-0.00509l-0.05326,-1.25483c0.26777,-0.04868 0.53553,-0.09733 0.8033,-0.146z" fill="#a00000" fill-rule="nonzero" stroke="none" stroke-width="0.5" stroke-linecap="butt" stroke-linejoin="miter"/><path d="M345.2469,189.39864c0.62566,0.05424 0.57144,0.67988 0.57144,0.67988l-0.05168,0.54027c0.0097,0.27279 0.0194,0.5456 0.02911,0.8184c-0.08596,0.70649 0.12934,1.67133 -0.15653,2.33059c-0.24794,0.5718 -0.92115,1.15468 -1.28021,1.67392c-0.99548,1.43961 -2.07308,3.10607 -2.85829,4.65955c-0.69731,1.37958 -0.8964,3.54778 -1.33879,5.06426c0,0 -0.17587,0.60287 -0.77873,0.427c-0.60287,-0.17587 -0.427,-0.77873 -0.427,-0.77873c0.47199,-1.6179 0.68937,-3.80009 1.42706,-5.28593c0.79736,-1.606 1.92199,-3.32806 2.94541,-4.8044c0.03312,-0.04776 1.09294,-1.31627 1.14447,-1.42229c0.21328,-0.43879 0.01081,-1.42874 0.06766,-1.91467c-0.00974,-0.24001 -0.01948,-0.48004 -0.02924,-0.72006l0.05549,-0.6963c0,0 0.05423,-0.62567 0.67988,-0.57144z" fill="#a00000" fill-rule="nonzero" stroke="none" stroke-width="0.5" stroke-linecap="butt" stroke-linejoin="miter"/><path d="M357.5836,186.07656c0.30194,0.55067 -0.24872,0.85261 -0.24872,0.85261l-0.45005,0.21261c-0.85681,1.99148 -1.74497,4.0383 -2.69809,5.9915c-0.74935,1.53566 -0.27569,3.41409 -2.38084,3.73836c0,0 -0.62508,0.0606 -0.68569,-0.56447c-0.06061,-0.62507 0.56446,-0.68568 0.56446,-0.68568c0.88343,0.02398 0.91634,-1.52229 1.12777,-2.23323c0.71799,-2.41444 1.99982,-4.87703 3.16125,-7.11098l0.75736,-0.44944c0,0 0.55065,-0.30192 0.85261,0.24872z" fill="#a00000" fill-rule="nonzero" stroke="none" stroke-width="0.5" stroke-linecap="butt" stroke-linejoin="miter"/><path d="M358.87377,187.02204c0.60287,0.17587 0.427,0.77873 0.427,0.77873l-0.17345,0.56407c-0.998,2.07126 -1.67572,4.2178 -2.83819,6.20658c-0.72505,1.24046 -1.93239,2.23035 -2.53225,3.51056c0,0 -0.27259,0.56576 -0.83835,0.29316c-0.56576,-0.27259 -0.29316,-0.83835 -0.29316,-0.83835c0.65496,-1.33079 1.83652,-2.32715 2.58975,-3.61657c1.14069,-1.95269 1.79963,-4.06442 2.78069,-6.10058l0.09923,-0.37064c0,0 0.17587,-0.60287 0.77873,-0.427z" fill="#a00000" fill-rule="nonzero" stroke="none" stroke-width="0.5" stroke-linecap="butt" stroke-linejoin="miter"/><path d="M336.09508,195.60161c0.6246,0.06519 0.55943,0.6898 0.55943,0.6898l-0.01087,0.10419c-0.38457,1.93862 -0.48257,1.96532 -2.33373,1.7491c0,0 -0.62358,-0.07435 -0.54921,-0.69796c0.07435,-0.62358 0.69796,-0.54921 0.69796,-0.54921c0.33931,0.04141 0.88831,0.54639 1.00083,0.2236c0.09419,-0.27017 -0.04338,-0.57063 -0.06508,-0.85593l0.01087,-0.10419c0,0 0.06519,-0.6246 0.6898,-0.55943z" fill="#a00000" fill-rule="nonzero" stroke="none" stroke-width="0.5" stroke-linecap="butt" stroke-linejoin="miter"/><path d="M337.26581,193.79753c-0.17587,0.60287 -0.77873,0.427 -0.77873,0.427l-0.11686,-0.03411c-0.46737,-0.13635 -0.93474,-0.27269 -1.4021,-0.40904c0,0 -0.60287,-0.17587 -0.427,-0.77873c0.17587,-0.60287 0.77873,-0.427 0.77873,-0.427c0.46736,0.13633 1.05159,0.30678 1.51892,0.44309c0,0 0.60287,0.17587 0.427,0.77873z" fill="#a00000" fill-rule="nonzero" stroke="none" stroke-width="0.5" stroke-linecap="butt" stroke-linejoin="miter"/><path d="M339.41375,192.73138c-0.55067,0.30193 -0.85261,-0.24872 -0.85261,-0.24872l-0.04843,-0.81036c0.14607,-0.21097 0.29213,-0.42194 0.43819,-0.63286c0,0 0.35751,-0.51631 0.87382,-0.1588c0.51632,0.35749 0.15882,0.87381 0.15882,0.87381c-0.08227,0.11886 -0.16457,0.23769 -0.24685,0.35655c0.029,0.18651 -0.00357,0.44528 -0.32296,0.62044z" fill="#a00000" fill-rule="nonzero" stroke="none" stroke-width="0.5" stroke-linecap="butt" stroke-linejoin="miter"/><path d="M332.49523,163.10229c0.58783,-0.221 0.80884,0.3668 0.80884,0.3668l-0.10104,0.22488c0.33763,0.16397 0.68007,0.2943 1.02311,0.42267c0.11002,-0.03795 0.19944,-0.04134 0.19944,-0.04134c0.23363,-0.00761 0.46849,-0.04797 0.70088,-0.02284c0.0885,0.00958 0.21928,0.21162 0.23639,0.12428c0.05085,-0.25997 -0.32979,-0.64474 -0.10665,-0.78751c0.40863,-0.26146 0.96912,-0.10184 1.45343,-0.07418c0.27204,0.01555 0.71061,0.62726 0.73588,0.35596c0.02025,-0.21753 -0.24255,-0.52755 -0.06325,-0.65238c0.75824,-0.52796 2.26905,-0.42264 2.23905,0.95773c-0.00876,0.40254 -0.61439,0.52052 -0.92162,0.7808l-0.59466,0.01814c0,0 -0.11705,-0.03415 -0.23294,-0.12392c-0.17524,0.05849 -0.39219,0.09759 -0.65276,0.1073c-0.26801,0.00999 -0.53715,-0.09216 -0.77505,-0.21593c-0.11961,-0.06227 -0.25202,-0.45254 -0.25051,-0.3177c0.00242,0.21263 0.38892,0.42139 0.25354,0.58542c-0.18754,0.22721 -0.44988,0.35118 -0.73644,0.42011c-0.01131,0.05721 -0.03157,0.11825 -0.06283,0.1831c-0.27259,0.56576 -0.83835,0.29316 -0.83835,0.29316c-0.70906,-0.34437 -1.43929,-0.54037 -2.15181,-0.88132l-0.52941,-0.91438c0,0 -0.221,-0.58783 0.3668,-0.80884z" fill="#a00000" fill-rule="nonzero" stroke="none" stroke-width="0.5" stroke-linecap="butt" stroke-linejoin="miter"/><path d="M334.55662,159.70735c0.55067,-0.30193 0.85261,0.24872 0.85261,0.24872l0.30508,0.59535c0.06003,0.22881 0.12006,0.45763 0.1801,0.68647c0,0 0.15936,0.60746 -0.44808,0.76681c-0.60746,0.15936 -0.76681,-0.44808 -0.76681,-0.44808c-0.06003,-0.22883 -0.12006,-0.45766 -0.1801,-0.68647l-0.19147,-0.3102c0,0 -0.30193,-0.55067 0.24872,-0.85261z" fill="#a00000" fill-rule="nonzero" stroke="none" stroke-width="0.5" stroke-linecap="butt" stroke-linejoin="miter"/><path d="M337.04989,158.00047l-0.08767,0.73514c0,0 -0.07435,0.62358 -0.69796,0.54921c-0.62358,-0.07435 -0.54921,-0.69796 -0.54921,-0.69796l0.08767,-0.73514c0,0 0.07435,-0.62358 0.69796,-0.54921c0.62358,0.07435 0.54921,0.69796 0.54921,0.69796z" fill="#a00000" fill-rule="nonzero" stroke="none" stroke-width="0.5" stroke-linecap="butt" stroke-linejoin="miter"/><path d="M330.14794,157.45019c0.4269,-0.46058 0.8875,-0.03367 0.8875,-0.03367l0.38012,0.48623c0.06003,0.22883 0.12006,0.45766 0.1801,0.68647c0,0 0.04836,0.18435 -0.00975,0.37658c0.17527,0.1562 0.2554,0.40473 0.1853,0.64512c-0.09715,0.33297 -0.44578,0.52414 -0.77873,0.427c-0.33297,-0.09715 -0.52414,-0.44578 -0.427,-0.77873c0.00274,-0.00939 0.00569,-0.01867 0.00882,-0.02782c-0.14509,-0.13897 -0.19349,-0.32342 -0.19349,-0.32342c-0.06003,-0.22883 -0.12006,-0.45766 -0.1801,-0.68647l-0.01907,0.1162c0,0 -0.46056,-0.42692 -0.03367,-0.8875z" fill="#a00000" fill-rule="nonzero" stroke="none" stroke-width="0.5" stroke-linecap="butt" stroke-linejoin="miter"/><path d="M337.69229,164.29887c0.30193,0.55067 -0.24872,0.85261 -0.24872,0.85261l-0.39227,0.15715c-0.01,0.00097 -0.01999,0.00194 -0.03001,0.00289c0.02416,0.17883 0.0145,0.54679 -0.43165,0.68684c-0.59917,0.18807 -0.78727,-0.4111 -0.78727,-0.4111l-0.08291,-0.30483c-0.22057,-0.40818 -0.45575,-0.70942 -0.46911,-0.99298c-0.08099,-0.0561 -0.14661,-0.12998 -0.19294,-0.21442l-0.33101,-0.60372v0c-0.07728,-0.14094 -0.10079,-0.31131 -0.05223,-0.47782c0.06887,-0.23608 0.2642,-0.40088 0.49072,-0.44217l-0.05189,-0.42666c-0.01247,-0.0862 -0.00713,-0.17639 0.01885,-0.26548c0.09715,-0.33297 0.44578,-0.52414 0.77873,-0.427c0.10127,0.02953 0.18939,0.08236 0.26029,0.15091l0.58954,0.54644l-0.00503,0.00544l0.02239,0.01129c0.35229,0.38479 0.66572,0.81068 0.91935,1.26657c0,0 0.24075,0.43906 -0.09976,0.74803c0.03348,0.03858 0.06535,0.08424 0.09484,0.13802zM336.6224,164.05839c0.00227,0.00974 0.00456,0.01948 0.00684,0.02922c0.00446,-0.00043 0.00893,-0.00087 0.0134,-0.0013c-0.00769,-0.01013 -0.01444,-0.01953 -0.02024,-0.02794z" fill="#ffffff" fill-rule="nonzero" stroke="none" stroke-width="0.5" stroke-linecap="butt" stroke-linejoin="miter"/><path d="M342.93569,189.12449c-0.50243,0.37677 -0.87919,-0.12563 -0.87919,-0.12563l0.07197,-0.50562c-0.12636,0.14552 -0.25013,0.27513 -0.34558,0.36581c0,0 -0.46097,0.42647 -0.88746,-0.0345c-0.42646,-0.46097 0.0345,-0.88746 0.0345,-0.88746c0.98496,-0.87781 1.31564,-2.88459 2.58734,-0.83265c0.12132,0.19573 0.12019,0.44408 0.17545,0.66821l0.30288,0.5524l-0.22145,0.12141l0.07725,0.65923c-0.21654,-0.05633 -0.43384,-0.11333 -0.65229,-0.16484l-0.14141,0.18056l-0.06062,-0.04749c-0.01886,0.01706 -0.03932,0.03391 -0.06147,0.05053z" fill="#8da900" fill-rule="nonzero" stroke="none" stroke-width="0.5" stroke-linecap="butt" stroke-linejoin="miter"/><path d="M351.03004,190.28808c0,0 -0.54579,0.29926 -0.84858,-0.24146c-0.15641,0.14171 -0.38057,0.2013 -0.59804,0.13784c-0.16646,-0.04857 -0.29751,-0.16 -0.37479,-0.30094v0l-0.16717,-0.30489c-0.13779,-0.05637 -0.28067,-0.09196 -0.4292,-0.09556l-0.56307,0.16057c0,0 -0.51088,0.13402 -0.71853,-0.31224c-0.16918,0.03084 -0.46241,0.02994 -0.63999,-0.2781c-0.44448,0.13985 -1.04906,0.29343 -1.23148,0.34191l-0.45208,-0.03867c0,0 -0.16322,-0.04763 -0.29502,-0.17823c-0.03258,0.05504 -0.06721,0.10806 -0.10572,0.15722c0,0 -0.3872,0.49443 -0.88161,0.10723c-0.49445,-0.38719 -0.10723,-0.88161 -0.10723,-0.88161c0.06096,-0.07783 0.21244,-0.2745 0.3807,-0.48657c-0.06037,-0.13223 -0.07534,-0.28593 -0.03145,-0.4364c0.03667,-0.1257 0.10917,-0.23118 0.20315,-0.30857c0.05616,-0.23506 0.25406,-0.35509 0.37101,-0.40682c-0.00233,-0.003 -0.00464,-0.00601 -0.00693,-0.00909c-0.23602,-0.1442 -0.35622,-0.43344 -0.27505,-0.71171c0.09715,-0.33297 0.44578,-0.52414 0.77873,-0.427c0.14408,0.04203 0.26163,0.13115 0.34074,0.24576c0.1148,0.06223 0.22686,0.13193 0.33485,0.2083c0.02395,0.00476 0.04864,0.01078 0.07411,0.01821c0.28259,0.08243 0.39407,0.2587 0.43279,0.42272c0.14878,0.15881 0.28066,0.33202 0.38987,0.51604l0.07585,0.02638c0,0 0.16512,0.15304 0.20597,0.37472c0.14014,0.11797 0.24964,0.26267 0.3135,0.43611c0.54923,-0.38213 0.6464,-1.34007 1.3877,-1.41167c1.0334,-0.09982 1.45306,1.2151 1.6661,2.00075c0.20705,-0.10225 0.41217,-0.20767 0.60294,-0.33696c0.30003,-0.20337 0.50357,-0.71921 0.86166,-0.66327c0.4334,0.0677 0.98197,1.20784 1.19441,1.60096l0.00008,0.07931l0.02394,-0.00629l0.17749,0.6765c0.0307,0.1093 0.03218,0.22824 -0.00195,0.34523c-0.09715,0.33297 -0.44578,0.52414 -0.77873,0.427c-0.0325,-0.00948 -0.06365,-0.02137 -0.09333,-0.0354l-0.77396,-0.35098l0.00614,-0.01353c-0.20935,-0.04778 -0.41747,-0.10041 -0.62371,-0.16005l0.17594,0.11329zM348.81478,188.26037c0.01288,0.00081 0.02574,0.00158 0.03865,0.00229c-0.00581,-0.02039 -0.01153,-0.04042 -0.01711,-0.06004c-0.0063,0.01895 -0.01353,0.03822 -0.02158,0.05772z" fill="#8da900" fill-rule="nonzero" stroke="none" stroke-width="0.5" stroke-linecap="butt" stroke-linejoin="miter"/><path d="M349.18784,186.34153c-1.30789,0.34995 -1.57906,0.25406 -2.18695,-0.3855c-0.39799,0.14734 -0.96468,-0.22791 -1.40011,-0.65502l-0.25338,0.21557c-0.59068,-0.09477 -1.17947,-0.38394 -1.60369,-0.80571c0,0 -0.42646,-0.46097 0.03451,-0.88748c0.46099,-0.42648 0.88748,0.03451 0.88748,0.03451c0.01794,0.02271 0.03707,0.04465 0.05729,0.06579c0.15295,-0.18524 0.40554,-0.27342 0.65099,-0.20588c0.22368,-0.09262 0.4017,-0.04348 0.52984,0.03866l0.57925,0.04015c0.15306,0.11106 0.37422,0.18638 0.56983,0.27511c0.49404,-0.35343 0.86249,0.1379 0.86249,0.1379l0.03856,0.26075c0.48317,0.14261 0.96879,0.32418 1.42161,0.56027l0.11128,-0.23096l0.65766,0.31686c0.27802,0.12792 0.42786,0.4435 0.33957,0.74613c-0.0791,0.27121 -0.32511,0.44833 -0.59354,0.45222l-0.70272,0.02666z" fill="#8da900" fill-rule="nonzero" stroke="none" stroke-width="0.5" stroke-linecap="butt" stroke-linejoin="miter"/><path d="M342.15916,186.06822c0.51396,-0.36088 0.87483,0.15306 0.87483,0.15306l0.5149,1.23708c-0.42399,0.17516 -0.84801,0.35032 -1.272,0.52548c0,0 -0.6179,0.1123 -0.73017,-0.50556c-0.0795,-0.43748 0.20704,-0.62151 0.38113,-0.69169c-0.06668,-0.1803 -0.10511,-0.48212 0.23131,-0.71838z" fill="#a00000" fill-rule="nonzero" stroke="none" stroke-width="0.5" stroke-linecap="butt" stroke-linejoin="miter"/><path d="M343.67472,186.03155c0.17587,-0.60287 0.77873,-0.427 0.77873,-0.427l0.23368,0.06818c0.2943,0.09014 0.56092,0.25182 0.80283,0.45283l0.10954,-0.13987l0.50453,0.39509c0.20403,0.15228 0.3027,0.42056 0.22719,0.67932c-0.07548,0.2588 -0.30291,0.4319 -0.55682,0.4506l-0.63783,0.06183l-0.00433,-0.04468l-0.11497,0.04486c-0.27272,-0.07563 -0.54549,-0.15125 -0.81822,-0.2269c0,0 -0.58896,-0.17182 -0.43283,-0.75791c-0.10044,-0.12125 -0.16623,-0.3003 -0.09152,-0.55636z" fill="#a00000" fill-rule="nonzero" stroke="none" stroke-width="0.5" stroke-linecap="butt" stroke-linejoin="miter"/><path d="M346.94039,185.38272c0.35751,-0.51631 0.87382,-0.1588 0.87382,-0.1588l0.29366,0.20407c0.14047,0.0964 0.31747,0.16406 0.48088,0.2424c0.24185,-0.18348 0.56277,-0.08988 0.56277,-0.08988l0.93472,0.27268c0.10185,0.02971 0.19046,0.08296 0.26156,0.15212c0.01894,0.00227 0.03794,0.00462 0.05694,0.00706l0.26089,0.02255c0,0 0.62566,0.05424 0.57144,0.67989c-0.01285,0.14808 -0.05767,0.25809 -0.11867,0.33972c-0.14683,0.22118 -0.3938,0.25135 -0.53138,0.24904c0.03641,0.11472 0.0403,0.24113 0.00407,0.36536c-0.07548,0.2588 -0.30291,0.4319 -0.55682,0.4506l-0.63783,0.06183l-0.00232,-0.02375l-0.06524,0.02661c-0.62198,-0.07307 -1.23726,-0.21134 -1.83881,-0.38546c0,0 -0.60287,-0.17587 -0.427,-0.77873c0.01126,-0.03858 0.02426,-0.07394 0.03872,-0.10639c-0.03245,-0.07217 -0.05237,-0.1593 -0.05233,-0.26451c-0.04674,-0.1232 -0.05528,-0.26205 -0.01555,-0.39832c0.0037,-0.01273 0.00779,-0.02526 0.01224,-0.03758c-0.12183,-0.10982 -0.39004,-0.41996 -0.10578,-0.83052z" fill="#a00000" fill-rule="nonzero" stroke="none" stroke-width="0.5" stroke-linecap="butt" stroke-linejoin="miter"/><path d="M351.99948,187.55233c0.33297,0.09715 0.52414,0.44578 0.427,0.77873c-0.09715,0.33297 -0.44578,0.52414 -0.77873,0.427c-0.33297,-0.09715 -0.52414,-0.44578 -0.427,-0.77873c0.09715,-0.33297 0.44578,-0.52414 0.77873,-0.427z" fill="#a00000" fill-rule="nonzero" stroke="none" stroke-width="0.5" stroke-linecap="butt" stroke-linejoin="miter"/><path d="M346.28018,186.66522c0.08782,-0.30103 0.2821,-0.4079 0.45463,-0.43944c0.00763,-0.01106 0.01557,-0.02187 0.02382,-0.03236c-0.09553,-0.02244 -0.19164,-0.05419 -0.28817,-0.09821c-0.20812,-0.09491 -0.38507,-0.25342 -0.56817,-0.39685c-0.65746,-0.18707 -1.30754,-0.39242 -1.94164,-0.57738l-0.81789,-0.2386c-0.33297,-0.09715 -0.52414,-0.44578 -0.427,-0.77873c0.08827,-0.30259 0.3843,-0.4881 0.68749,-0.44648l0.56043,0.06682c0.14592,-0.33402 0.55313,-0.34947 0.55313,-0.34947c2.35186,-0.08921 3.87138,0.58489 5.93884,1.58106l0.65766,0.31686c0.27802,0.12792 0.42786,0.4435 0.33957,0.74613c-0.02639,0.09045 -0.07133,0.17042 -0.12947,0.237c0.16617,0.09397 0.40683,0.30648 0.28722,0.71657c-0.1107,0.37942 -0.39045,0.45038 -0.5827,0.45087c-0.00572,0.00503 -0.01159,0.01003 -0.01765,0.01501c-0.00397,0.18729 -0.07444,0.52222 -0.51337,0.60199c-0.61789,0.11229 -0.73019,-0.50557 -0.73019,-0.50557c0.0019,-0.13832 -0.02806,-0.28838 -0.05465,-0.4372c-0.11939,0.08098 -0.28591,0.12532 -0.51313,0.05905c-0.54836,-0.15998 -0.45245,-0.67324 -0.4306,-0.76474c-0.09441,-0.06673 -0.19224,-0.11219 -0.29308,-0.14237c-0.05739,-0.00649 -0.1148,-0.01347 -0.17223,-0.02095c-0.05782,0.07427 -0.13125,0.13395 -0.21394,0.17549c-0.10654,0.23021 -0.19576,0.4688 -0.26495,0.71202l-1.11707,0.3283c0,0 -0.60287,-0.17587 -0.427,-0.77873zM349.01613,186.62929c-0.05847,-0.07316 -0.11859,-0.13455 -0.18026,-0.1859z" fill="#000000" fill-rule="nonzero" stroke="none" stroke-width="0.5" stroke-linecap="butt" stroke-linejoin="miter"/><path d="M349.0032,186.87221l-0.71612,-0.06205" fill="none" fill-rule="nonzero" stroke="#001026" stroke-width="1.2" stroke-linecap="round" stroke-linejoin="miter"/><path d="M350.07737,186.9653l-2.34291,-0.02269" fill="none" fill-rule="nonzero" stroke="#a00000" stroke-width="1.2" stroke-linecap="round" stroke-linejoin="miter"/><path d="M348.63108,185.88258l-1.36467,1.65773" fill="none" fill-rule="nonzero" stroke="#000000" stroke-width="1.2" stroke-linecap="round" stroke-linejoin="miter"/><path d="M349.50227,185.91646l0.76954,2.64745" fill="none" fill-rule="nonzero" stroke="#000000" stroke-width="1.2" stroke-linecap="round" stroke-linejoin="miter"/><path d="M341.41559,179.3711c-0.24137,0.57974 -0.82115,0.33838 -0.82115,0.33838l-0.64897,-0.27397c-0.00747,-0.02797 -0.01492,-0.05593 -0.02239,-0.08388l-0.03399,0.0491l-0.53786,-0.3724c-0.16924,-0.11141 -0.27461,-0.29911 -0.28214,-0.50107c-0.57519,-0.55623 -0.9608,-1.76229 0.09014,-2.32049c1.05712,-0.56146 2.98474,0.80438 2.5813,2.05849c-0.07283,0.22642 -0.20634,0.39397 -0.37709,0.51066c0.10031,0.13295 0.16329,0.32817 0.05214,0.59514z" fill="#a00000" fill-rule="nonzero" stroke="none" stroke-width="0.5" stroke-linecap="butt" stroke-linejoin="miter"/><path d="M340.14622,177.4667c0.33297,0.09715 0.52414,0.44578 0.427,0.77873c-0.09715,0.33297 -0.44578,0.52414 -0.77873,0.427c-0.33297,-0.09715 -0.52414,-0.44578 -0.427,-0.77873c0.09715,-0.33297 0.44578,-0.52414 0.77873,-0.427z" fill="#ffffff" fill-rule="nonzero" stroke="none" stroke-width="0.5" stroke-linecap="butt" stroke-linejoin="miter"/><path d="M348.02769,186.44079l2.03278,0.07904l0.15783,1.22082" fill="none" fill-rule="nonzero" stroke="#000000" stroke-width="1.2" stroke-linecap="round" stroke-linejoin="miter"/><path d="M342.91447,173.78891c0.09715,-0.33297 0.44578,-0.52414 0.77873,-0.427c0.03795,0.01106 0.07405,0.02542 0.10808,0.04262c-0.07504,-0.1399 -0.09739,-0.3082 -0.04944,-0.47268c0.09715,-0.33297 0.44578,-0.52414 0.77873,-0.427c0.11116,0.03242 0.20654,0.09287 0.28063,0.17147c0.14835,-0.22149 0.42818,-0.3318 0.69769,-0.25316c0.05231,0.01526 0.10112,0.03674 0.14585,0.06335c0.13353,-0.26533 0.44126,-0.40603 0.73663,-0.31987c0.33297,0.09715 0.52414,0.44578 0.427,0.77873c-0.00756,0.02588 -0.01662,0.0509 -0.0271,0.075c0.29801,0.11798 0.46255,0.44571 0.371,0.75955c-0.09715,0.33297 -0.44578,0.52414 -0.77873,0.427c-0.02588,-0.00756 -0.0509,-0.01663 -0.07502,-0.02708c-0.11798,0.29801 -0.44571,0.46255 -0.75955,0.371c-0.05786,-0.01686 -0.11142,-0.04137 -0.15997,-0.07202c-0.14696,0.22663 -0.43013,0.34041 -0.70278,0.26087c-0.08087,-0.02359 -0.15335,-0.06199 -0.21538,-0.11143c-0.14305,0.23965 -0.43461,0.36236 -0.71505,0.28054c-0.06591,-0.01923 -0.12624,-0.04832 -0.17992,-0.08517c-0.15461,0.18982 -0.41326,0.27922 -0.6631,0.20637c-0.33297,-0.09715 -0.52414,-0.44578 -0.427,-0.77873c0.06147,-0.21067 0.22362,-0.36458 0.41881,-0.42462c0.00285,-0.0126 0.00611,-0.02515 0.00977,-0.03773zM344.17887,173.71055c-0.03795,-0.01106 -0.07405,-0.02542 -0.10808,-0.04262c0.00512,0.00955 0.01,0.01923 0.0146,0.02902c0.00742,0.00189 0.01484,0.00391 0.02221,0.00606c0.08087,0.02359 0.15335,0.06199 0.21538,0.11143c0.0167,-0.02801 0.03546,-0.05439 0.05596,-0.07908c-0.06592,0.00254 -0.13333,-0.00533 -0.20013,-0.02481zM344.9365,173.5131c-0.02126,-0.0173 -0.04123,-0.03596 -0.0599,-0.05569c-0.01204,0.01798 -0.02495,0.03524 -0.03866,0.05172c0.03257,-0.00123 0.06547,0.00003 0.09853,0.00401zM345.98371,173.35312c-0.0315,-0.01248 -0.0615,-0.02727 -0.08986,-0.04416c-0.00511,0.01013 -0.01046,0.02009 -0.01604,0.02986c0.00768,0.00195 0.01534,0.00401 0.023,0.00623c0.02588,0.00756 0.0509,0.01662 0.075,0.0271c0.00253,-0.00641 0.00517,-0.01276 0.00789,-0.01902z" fill="#e93e3e" fill-rule="nonzero" stroke="none" stroke-width="0.5" stroke-linecap="butt" stroke-linejoin="miter"/><path d="M334.41695,171.45677c0.09715,-0.33297 0.44578,-0.52414 0.77873,-0.427c0.08811,0.0257 0.16629,0.069 0.23184,0.125c0.12285,-0.04629 0.26118,-0.05463 0.3969,-0.015c0.13906,0.04055 0.25336,0.125 0.33229,0.23384c0.14492,-0.08708 0.32436,-0.11571 0.49941,-0.06464c0.16418,0.04789 0.29384,0.15691 0.3715,0.29505c0.1569,-0.15332 0.38967,-0.21983 0.61526,-0.15402c0.17735,0.05175 0.31449,0.17484 0.38923,0.32895c0.15515,-0.12897 0.36954,-0.18101 0.57781,-0.12025c0.26324,0.07679 0.43785,0.31079 0.45144,0.56995c0.12771,-0.0532 0.27377,-0.0647 0.41691,-0.02295c0.17713,0.05168 0.31413,0.17453 0.38894,0.32833c0.15119,-0.20947 0.42309,-0.31172 0.68523,-0.23523c0.13906,0.04055 0.25336,0.125 0.33229,0.23384c0.14493,-0.08706 0.32436,-0.11571 0.49941,-0.06464c0.07123,0.02077 0.13596,0.05307 0.19276,0.09424c0.07004,-0.00416 0.14198,0.00339 0.21321,0.02418c0.05491,0.01602 0.10594,0.03887 0.15247,0.06736c0.1081,-0.02955 0.22543,-0.03054 0.34091,0.00317c0.19488,0.05686 0.34121,0.19988 0.40956,0.37552c0.11407,-0.03571 0.23955,-0.03929 0.36294,-0.0033c0.33297,0.09715 0.52414,0.44578 0.427,0.77873c-0.09715,0.33297 -0.44578,0.52414 -0.77873,0.427c-0.19488,-0.05686 -0.34121,-0.19988 -0.40956,-0.37552c-0.11407,0.03571 -0.23955,0.03929 -0.36294,0.0033c-0.05491,-0.01602 -0.10594,-0.03887 -0.15247,-0.06736c-0.10811,0.02954 -0.22543,0.03054 -0.34091,-0.00317c-0.07123,-0.02077 -0.13598,-0.05306 -0.19277,-0.09424c-0.07004,0.00416 -0.14198,-0.00341 -0.21322,-0.02421c-0.13906,-0.04055 -0.25336,-0.125 -0.33229,-0.23384c-0.14493,0.08705 -0.32434,0.11569 -0.4994,0.06464c-0.17713,-0.05168 -0.31413,-0.17453 -0.38894,-0.32833c-0.1512,0.20946 -0.42309,0.31172 -0.68523,0.23523c-0.26323,-0.0768 -0.43785,-0.31079 -0.45144,-0.56995c-0.12771,0.0532 -0.27377,0.0647 -0.41691,0.02295c-0.17735,-0.05175 -0.31449,-0.17484 -0.38923,-0.32895c-0.15515,0.12897 -0.36954,0.18101 -0.57781,0.12025c-0.16418,-0.04789 -0.29383,-0.15693 -0.3715,-0.29505c-0.15688,0.1533 -0.38967,0.21983 -0.61526,0.15402c-0.13906,-0.04055 -0.25336,-0.125 -0.33229,-0.23384c-0.14493,0.08705 -0.32436,0.11571 -0.49941,0.06464c-0.08811,-0.0257 -0.16629,-0.069 -0.23184,-0.125c-0.12285,0.04629 -0.26118,0.05463 -0.3969,0.015c-0.33297,-0.09715 -0.52414,-0.44578 -0.427,-0.77873z" fill="#e93e3e" fill-rule="nonzero" stroke="none" stroke-width="0.5" stroke-linecap="butt" stroke-linejoin="miter"/><path d="M347.08773,174.05844c0.33297,0.09715 0.52414,0.44578 0.427,0.77873c-0.09153,0.31384 -0.40651,0.50168 -0.72121,0.44092c-0.00415,0.02595 -0.00993,0.05193 -0.01748,0.0778c-0.09715,0.33297 -0.44578,0.52414 -0.77873,0.427c-0.12887,-0.03761 -0.23651,-0.11289 -0.3144,-0.21035c-0.00335,0.01611 -0.00736,0.03223 -0.01207,0.04832c-0.09715,0.33297 -0.44578,0.52414 -0.77873,0.427c-0.11976,-0.03493 -0.22117,-0.10242 -0.29742,-0.18998c-0.15484,0.18823 -0.41239,0.27661 -0.66117,0.20403c-0.08813,-0.0257 -0.1663,-0.06903 -0.23186,-0.12506c-0.15239,0.20353 -0.42033,0.30191 -0.6788,0.22649c-0.33297,-0.09715 -0.52414,-0.44578 -0.427,-0.77873c0.09715,-0.33297 0.44578,-0.52414 0.77873,-0.427c0.08813,0.0257 0.1663,0.06903 0.23186,0.12506c0.15239,-0.20353 0.42033,-0.30191 0.6788,-0.22649c0.11975,0.03494 0.22116,0.10241 0.29742,0.18998c0.15484,-0.18823 0.4124,-0.2766 0.66117,-0.20403c0.12887,0.03761 0.23651,0.11289 0.3144,0.21035c0.00335,-0.01611 0.00736,-0.03223 0.01207,-0.04832c0.09153,-0.31384 0.40653,-0.50167 0.72122,-0.44091c0.00415,-0.02596 0.00994,-0.05193 0.0175,-0.07781c0.09715,-0.33297 0.44578,-0.52414 0.77873,-0.427z" fill="#e93e3e" fill-rule="nonzero" stroke="none" stroke-width="0.5" stroke-linecap="butt" stroke-linejoin="miter"/><path d="M332.28076,170.70276c0.06658,0.0194 0.10482,0.08914 0.08541,0.15575c-0.0194,0.06658 -0.08914,0.10482 -0.15575,0.08541c-0.06658,-0.0194 -0.10482,-0.08914 -0.08541,-0.15575c0.0194,-0.06658 0.08914,-0.10482 0.15575,-0.08541z" fill="#a00000" fill-rule="nonzero" stroke="none" stroke-width="0.5" stroke-linecap="butt" stroke-linejoin="miter"/><path d="M332.30326,173.26395c0.03762,0.11983 -0.08222,0.15744 -0.08222,0.15744l-0.00561,0.00177c-0.15977,0.05015 -0.31956,0.10031 -0.47932,0.15046c0,0 -0.11983,0.03762 -0.15744,-0.08222c-0.03762,-0.11983 0.08222,-0.15744 0.08222,-0.15744c0.15979,-0.05014 0.32515,-0.10206 0.48495,-0.15223c0,0 0.11983,-0.03762 0.15744,0.08222z" fill="#a00000" fill-rule="nonzero" stroke="none" stroke-width="0.5" stroke-linecap="butt" stroke-linejoin="miter"/><path d="M331.00412,172.22327c0.0333,-0.11414 0.11586,-0.20051 0.21776,-0.24271c-0.08517,-0.06958 -0.16488,-0.19031 -0.10777,-0.38599c0.10554,-0.36174 0.46725,-0.25621 0.46725,-0.25621l0.07444,0.02705c0.04286,0.00543 0.08495,0.00978 0.12645,0.01326c0.02451,-0.03688 0.05507,-0.06868 0.08993,-0.09439c-0.03537,-0.01467 -0.07977,-0.04842 -0.07314,-0.12509c0.00217,-0.02497 0.00886,-0.04452 0.01825,-0.05983c0.00078,-0.00997 0.00268,-0.02068 0.00607,-0.03214c0.03518,-0.12059 0.15575,-0.08541 0.15575,-0.08541l0.06767,0.01974c0.05943,0.01975 0.11751,0.04857 0.17103,0.08459c0.08013,0.0141 0.16416,0.02964 0.24821,0.04361c0.00195,-0.00657 0.00386,-0.01331 0.00577,-0.02023l0.1476,-0.12288c0,0 0.01743,-0.00955 0.04221,-0.01415c0.00061,-0.00881 0.00219,-0.01768 0.00476,-0.02651c0.0194,-0.06658 0.08914,-0.10482 0.15575,-0.08541c0.0326,0.00953 0.05841,0.0311 0.07398,0.05846c0.00208,-0.0044 0.00438,-0.00866 0.00693,-0.01273c-0.00146,-0.02277 0.00264,-0.0491 0.02057,-0.0733c0.00035,-0.01021 0.00198,-0.02053 0.00498,-0.0308c0.0194,-0.06658 0.08914,-0.10482 0.15575,-0.08541c0.05091,0.01485 0.08523,0.05908 0.08991,0.10883c0.00253,0.002 0.005,0.00406 0.00736,0.00621c0.03436,0.03129 0.04994,0.0805 0.03606,0.12812c-0.00092,0.00318 -0.00195,0.00628 -0.00311,0.00931c0.03145,0.04815 0.06434,0.09473 0.09735,0.14121c0.06562,-0.01192 0.13126,-0.02385 0.1969,-0.03578c0,0 0.12358,-0.02247 0.14603,0.10112c0.01484,0.08178 -0.03424,0.11926 -0.06915,0.13529c0.00364,0.02306 0.0064,0.04584 0.00833,0.06834c0.05961,0.01738 0.11927,0.03478 0.17885,0.05217l0.02403,-0.08239c0,0 0.01435,-0.0492 0.05616,-0.07559c-0.03282,-0.01649 -0.09034,-0.05899 -0.06462,-0.14716c0.03518,-0.12059 0.15575,-0.08541 0.15575,-0.08541l0.06767,0.01974c0.06767,0.01974 0.1353,0.03947 0.203,0.05922c0,0 0.12059,0.03518 0.08541,0.15575c-0.03518,0.12059 -0.15575,0.08541 -0.15575,0.08541c-0.02859,-0.00836 -0.0693,-0.0202 -0.11186,-0.03262c0.01913,0.04389 0.00538,0.091 0.00538,0.091l-0.01767,0.06054l0.04885,0.03687c0.00007,0.00038 0.00015,0.00079 0.0002,0.00116c0.0541,0.01578 0.10817,0.03158 0.16231,0.04735c0,0 0.12059,0.03518 0.08541,0.15575c-0.03518,0.12059 -0.15575,0.08541 -0.15575,0.08541c-0.02986,-0.00872 -0.06042,-0.01762 -0.09155,-0.0267c-0.01539,0.01742 -0.03865,0.03181 -0.07354,0.03817c-0.05422,0.00987 -0.08899,-0.0084 -0.11092,-0.03201c-0.0013,0.09099 -0.02467,0.1596 -0.05918,0.21133c0.06918,0.09176 0.09571,0.21388 0.06104,0.33266c-0.05828,0.19979 -0.26748,0.31449 -0.46725,0.25621c-0.10023,-0.02926 -0.17905,-0.09647 -0.22536,-0.18147c-0.00481,-0.00082 -0.00963,-0.00191 -0.01444,-0.00331c-0.06658,-0.0194 -0.10482,-0.08914 -0.08541,-0.15575c0.00528,-0.01811 0.01429,-0.0341 0.02593,-0.04745c-0.12484,0.04398 -0.25049,0.00731 -0.25049,0.00731c-0.15834,-0.05003 -0.31151,-0.06919 -0.4643,-0.07564c0.01202,0.00883 0.02563,0.01458 0.04108,0.0162c0,0 0.08204,0.02394 0.09103,0.09999c0.03075,0.00895 0.06147,0.01793 0.09223,0.0269l-0.00816,-0.03748c0,0 0.11015,-0.06039 0.17052,0.04975c0.06039,0.11015 -0.04975,0.17052 -0.04975,0.17052l-0.18297,0.05838c-0.11278,-0.0329 -0.22555,-0.06581 -0.33832,-0.09868c0,0 -0.12059,-0.03518 -0.08541,-0.15575c0.00743,-0.02549 0.0187,-0.04402 0.0318,-0.05738c-0.01539,-0.02392 -0.02941,-0.04885 -0.04215,-0.07419c-0.14442,0.00214 -0.29105,0.0057 -0.44374,-0.00429c0.0574,0.08872 0.07737,0.20096 0.04545,0.31035c-0.05828,0.19979 -0.26748,0.31449 -0.46725,0.25621c-0.19979,-0.05828 -0.31449,-0.26748 -0.25621,-0.46725zM332.97448,171.09337c-0.0326,-0.00953 -0.05841,-0.0311 -0.07398,-0.05846c-0.00802,0.01702 -0.0196,0.03162 -0.0335,0.04311c0.00199,0.00611 0.00348,0.01239 0.00451,0.01877l0.01397,0.07687c0.05691,-0.00014 0.10975,-0.00433 0.1567,-0.01403c-0.01411,-0.02032 -0.02814,-0.04083 -0.0419,-0.06156c-0.00859,-0.00066 -0.01721,-0.00219 -0.02584,-0.00471z" fill="#a00000" fill-rule="nonzero" stroke="none" stroke-width="0.5" stroke-linecap="butt" stroke-linejoin="miter"/><path d="M330.05398,172.46008l0.00845,-0.01545c0.0235,-0.16446 0.04698,-0.32893 0.0705,-0.4934c0,0 0.00477,-0.03342 0.02147,-0.07884c0.00241,-0.01369 0.00557,-0.02739 0.00957,-0.04108c0.05828,-0.19979 0.26748,-0.31449 0.46725,-0.25621c0.19979,0.05828 0.31449,0.26748 0.25621,0.46725c-0.00316,0.0108 -0.00674,0.0214 -0.01077,0.03171c-0.02273,0.15905 -0.04544,0.31807 -0.06819,0.47715l-0.03102,0.11988c0,0 -0.10554,0.36174 -0.46725,0.25621c-0.36174,-0.10554 -0.25621,-0.46725 -0.25621,-0.46725z" fill="#a00000" fill-rule="nonzero" stroke="none" stroke-width="0.5" stroke-linecap="butt" stroke-linejoin="miter"/><path d="M324.43375,168.59638c0.82122,0.42868 1.48809,2.31534 2.53019,2.4221c0.09145,-0.06886 0.24332,-0.12959 0.4297,-0.00055c0.20536,0.14218 0.18032,0.32624 0.14013,0.43419c-0.01435,0.13616 -0.08662,0.21443 -0.16271,0.2594l-0.02212,0.03177c-1.16202,1.48251 -2.16199,3.08503 -3.44248,4.45766c-0.32862,0.35228 -0.90934,1.72094 -1.66656,1.07599c-0.30066,-0.25607 0.35159,-1.88776 0.44129,-2.19525c0.30921,-1.05994 0.60924,-2.12302 0.92776,-3.1802c0.05034,-0.16712 0.20449,-0.78618 0.05733,-0.95227c-0.07172,-0.08093 -0.90303,0.06749 -1.02658,0.07948c-1.12962,0.10951 -2.15892,-0.41607 -3.29022,-0.29903c-0.77461,0.07017 -2.84104,-0.53907 -1.42541,-1.51963c0.33873,-0.23463 1.30226,-0.19224 1.72639,-0.37811c1.6461,-0.72136 2.85388,-1.13834 4.66701,-1.20776c0,0 0.37653,-0.01427 0.3908,0.36224c0.01427,0.37653 -0.36224,0.3908 -0.36224,0.3908c-0.0392,0.00149 -0.07815,0.00303 -0.11682,0.0047c0.10625,0.04024 0.17385,0.12065 0.17385,0.12065z" fill="#ffffff" fill-rule="nonzero" stroke="none" stroke-width="0.5" stroke-linecap="butt" stroke-linejoin="miter"/><path d="M317.59716,170.53358c-0.00613,-0.00795 -0.01215,-0.01596 -0.01802,-0.02401l0.14665,-0.08532c0.00148,-0.00572 0.00306,-0.01151 0.00476,-0.01733c0.02347,-0.08033 0.05949,-0.13762 0.10143,-0.17814c-0.11716,-0.0257 -0.23732,-0.05674 -0.36397,-0.09334c0,0 -0.36174,-0.10554 -0.25621,-0.46725c0.10554,-0.36174 0.46725,-0.25621 0.46725,-0.25621c0.02393,0.00707 0.04752,0.01388 0.07074,0.02043l0.51974,-0.04256c0.04718,-0.01764 0.1013,-0.02791 0.16135,-0.03124c-0.05478,-0.06728 -0.11444,-0.14227 -0.1806,-0.22585l0.8534,-0.18493c0.08699,0.06276 0.17396,0.12549 0.26095,0.18824c0.21496,-0.17587 0.4412,-0.26178 0.69742,-0.13009c0.28968,0.14889 0.41602,0.50128 0.62402,0.75195l-0.36218,0.08667c0.06692,0.07277 0.13379,0.14554 0.20069,0.21828l-0.39677,0.10109c0.06086,0.04413 0.12019,0.08967 0.17778,0.13634l-0.76837,0.35452c-0.13583,-0.02542 -0.26785,-0.07977 -0.38925,-0.15364c-0.22295,0.16663 -0.47115,0.3022 -0.73083,0.39249l0.02775,0.09396c-0.07984,0.00224 -0.16043,-0.00903 -0.23946,-0.0312c-0.08455,0.0207 -0.16983,0.03643 -0.25548,0.04672l-0.35275,-0.4696z" fill="#a00000" fill-rule="nonzero" stroke="none" stroke-width="0.5" stroke-linecap="butt" stroke-linejoin="miter"/><path d="M322.48657,175.24523c0.10554,-0.36174 0.46725,-0.25621 0.46725,-0.25621l0.05414,0.01783c0.09063,-0.06427 0.20871,-0.08799 0.32366,-0.05447c0.0795,0.02318 0.14554,0.07029 0.19254,0.13118l0.67707,-0.00516c0.0386,-0.00118 0.07805,0.00358 0.11717,0.015c0.19979,0.05828 0.31449,0.26748 0.25621,0.46725c-0.04528,0.15528 -0.18173,0.25914 -0.3341,0.27037l-0.22943,0.02226l0.08702,0.08233c-0.13711,0.06034 -0.26443,0.10957 -0.3812,0.14787c0.01151,0.05764 0.0097,0.11882 -0.00788,0.17918c-0.04528,0.15528 -0.18173,0.25914 -0.3341,0.27037l-0.17914,0.01736c0.05721,0.08865 0.07706,0.20072 0.04519,0.30994c-0.01356,0.04643 -0.03527,0.0883 -0.06311,0.12443c-0.0072,0.13529 -0.05732,0.23145 -0.1838,0.21495c-0.00193,0.00907 -0.00421,0.01809 -0.00683,0.02711c-0.05828,0.19979 -0.26748,0.31449 -0.46725,0.25621c-0.0226,-0.00661 -0.04413,-0.0151 -0.06444,-0.02536l-0.26733,-0.12883l-0.04995,0.03989c-0.0076,-0.02521 -0.01482,-0.04999 -0.02165,-0.07436l-0.03531,-0.01703c-0.16679,-0.07677 -0.2567,-0.2661 -0.20375,-0.44767c0.02355,-0.0807 0.07167,-0.14747 0.13387,-0.19462c0.00484,-0.23804 0.08063,-0.37631 0.20395,-0.41979c0.07206,-0.22671 0.29513,-0.36317 0.48678,-0.51839c-0.0914,-0.04048 -0.29873,-0.16642 -0.21552,-0.45167z" fill="#a00000" fill-rule="nonzero" stroke="none" stroke-width="0.5" stroke-linecap="butt" stroke-linejoin="miter"/><path d="M318.39823,165.43668c0.19979,0.05828 0.31449,0.26748 0.25621,0.46725c-0.05828,0.19979 -0.26748,0.31449 -0.46725,0.25621c-0.19979,-0.05828 -0.31449,-0.26748 -0.25621,-0.46725c0.05828,-0.19979 0.26748,-0.31449 0.46725,-0.25621z" fill="#a00000" fill-rule="nonzero" stroke="none" stroke-width="0.5" stroke-linecap="butt" stroke-linejoin="miter"/><path d="M318.17025,162.13628l0.0454,0.26546c0.13111,0.42631 0.19661,0.87241 0.24077,1.31624c0,0 0.03637,0.37506 -0.33866,0.41141c-0.37506,0.03637 -0.41141,-0.33866 -0.41141,-0.33866c-0.03698,-0.39283 -0.09131,-0.78862 -0.2102,-1.16487l-0.06735,-0.3548c0,0 -0.06736,-0.37073 0.30336,-0.43811c0.37073,-0.06736 0.43811,0.30336 0.43811,0.30336z" fill="#a00000" fill-rule="nonzero" stroke="none" stroke-width="0.5" stroke-linecap="butt" stroke-linejoin="miter"/><path d="M318.00658,160.99048c0.19979,0.05828 0.31449,0.26748 0.25621,0.46725c-0.05828,0.19979 -0.26748,0.31449 -0.46725,0.25621c-0.19979,-0.05828 -0.31449,-0.26748 -0.25621,-0.46725c0.05828,-0.19979 0.26748,-0.31449 0.46725,-0.25621z" fill="#a00000" fill-rule="nonzero" stroke="none" stroke-width="0.5" stroke-linecap="butt" stroke-linejoin="miter"/><path d="M318.35343,159.54979c0.19979,0.05828 0.31449,0.26748 0.25621,0.46725c-0.05828,0.19979 -0.26748,0.31449 -0.46725,0.25621c-0.19979,-0.05828 -0.31449,-0.26748 -0.25621,-0.46725c0.05828,-0.19979 0.26748,-0.31449 0.46725,-0.25621z" fill="#a00000" fill-rule="nonzero" stroke="none" stroke-width="0.5" stroke-linecap="butt" stroke-linejoin="miter"/><path d="M318.96204,166.77594c0.19979,0.05828 0.31449,0.26748 0.25621,0.46725c-0.05828,0.19979 -0.26748,0.31449 -0.46725,0.25621c-0.19979,-0.05828 -0.31449,-0.26748 -0.25621,-0.46725c0.05828,-0.19979 0.26748,-0.31449 0.46725,-0.25621z" fill="#a00000" fill-rule="nonzero" stroke="none" stroke-width="0.5" stroke-linecap="butt" stroke-linejoin="miter"/><path d="M321.28482,173.91476c0.19979,0.05828 0.31449,0.26748 0.25621,0.46725c-0.05828,0.19979 -0.26748,0.31449 -0.46725,0.25621c-0.19979,-0.05828 -0.31449,-0.26748 -0.25621,-0.46725c0.05828,-0.19979 0.26748,-0.31449 0.46725,-0.25621z" fill="#a00000" fill-rule="nonzero" stroke="none" stroke-width="0.5" stroke-linecap="butt" stroke-linejoin="miter"/><path d="M320.47855,172.6516c0.19979,0.05828 0.31449,0.26748 0.25621,0.46725c-0.05828,0.19979 -0.26748,0.31449 -0.46725,0.25621c-0.19979,-0.05828 -0.31449,-0.26748 -0.25621,-0.46725c0.05828,-0.19979 0.26748,-0.31449 0.46725,-0.25621z" fill="#a00000" fill-rule="nonzero" stroke="none" stroke-width="0.5" stroke-linecap="butt" stroke-linejoin="miter"/><path d="M319.93446,171.2447c0.19979,0.05828 0.31449,0.26748 0.25621,0.46725c-0.05828,0.19979 -0.26748,0.31449 -0.46725,0.25621c-0.19979,-0.05828 -0.31449,-0.26748 -0.25621,-0.46725c0.05828,-0.19979 0.26748,-0.31449 0.46725,-0.25621z" fill="#a00000" fill-rule="nonzero" stroke="none" stroke-width="0.5" stroke-linecap="butt" stroke-linejoin="miter"/><path d="M330.01141,203.47395c-0.09742,0.33399 -0.32141,0.59663 -0.60446,0.75099c0.03608,0.27347 -0.02883,0.59522 -0.31673,0.9356c-0.45921,0.5429 -0.96579,0.51848 -1.31893,0.3951c-0.27039,0.42787 -0.78151,0.65945 -1.29308,0.56293l-1.33987,-0.2344l0.03208,-0.18339l-0.44249,0.03456c-1.57875,-1.78137 -4.35114,-5.43561 0.42586,-5.29322c0.16436,0.00489 0.31956,0.02377 0.46676,0.0548c0.28632,-0.16506 0.6369,-0.21754 0.97922,-0.1177c0.61329,0.17892 0.98606,0.78451 0.88939,1.39929c0.1363,0.15746 0.26921,0.31993 0.40215,0.48219c0.31346,-0.33217 0.79754,-0.48093 1.26611,-0.34427c0.66592,0.19428 1.04827,0.89157 0.85401,1.55751z" fill="#ffffff" fill-rule="nonzero" stroke="none" stroke-width="0.5" stroke-linecap="butt" stroke-linejoin="miter"/><path d="M325.56706,198.49582c0.62683,0.18287 1.0024,0.81145 0.88231,1.43999c0.13927,-0.008 0.28226,0.00724 0.42383,0.04853c0.50603,0.14762 0.84832,0.5857 0.89825,1.07974c0.23531,0.12429 0.41978,0.3179 0.53478,0.54696c0.24485,-0.09149 0.52025,-0.10759 0.79047,-0.02877c0.66592,0.19428 1.04827,0.89157 0.85401,1.55751c-0.19428,0.66592 -0.89157,1.04827 -1.55751,0.85401c-0.34879,-0.10176 -0.61979,-0.34151 -0.77089,-0.64247c-0.24485,0.09149 -0.52025,0.10759 -0.79047,0.02877c-0.50603,-0.14762 -0.84832,-0.5857 -0.89825,-1.07974c-0.48183,-0.25447 -0.75033,-0.79949 -0.64622,-1.34449c-0.13927,0.008 -0.28226,-0.00724 -0.42383,-0.04853c-0.66592,-0.19428 -1.04827,-0.89157 -0.85401,-1.55751c0.19428,-0.66592 0.89157,-1.04827 1.55751,-0.85401z" fill="#a00000" fill-rule="nonzero" stroke="none" stroke-width="0.5" stroke-linecap="butt" stroke-linejoin="miter"/></g></g></g></svg>