<svg version="1.1" xmlns="http://www.w3.org/2000/svg" xmlns:xlink="http://www.w3.org/1999/xlink" width="109.99801" height="104.35278" viewBox="0,0,109.99801,104.35278"><g transform="translate(-177.50199,-130.14938)"><g data-paper-data="{&quot;isPaintingLayer&quot;:true}" stroke-miterlimit="10" stroke-dasharray="" stroke-dashoffset="0" style="mix-blend-mode: normal"><g fill-rule="evenodd"><path d="M227.37686,204.21234c0.72472,0.68905 3.58671,1.4232 0.50143,4.17475c-3.20052,2.66958 -11.69134,7.04292 -21.78146,0.73345c-10.89681,-6.88327 -7.8141,-19.26862 -3.54194,-20.39497c4.17355,-1.10971 3.66165,6.07555 8.01595,13.25121c6.21839,10.41065 16.0813,1.54651 16.80602,2.23555z" fill="#ffab19" stroke="#001026" stroke-width="1.2" stroke-linecap="round" stroke-linejoin="round"/><path d="M206.18087,193.38737c1.22495,4.25553 2.71005,7.04738 2.71005,7.04738c0,0 -1.9104,-1.70598 -4.21042,-0.91233c-2.77642,0.97543 -3.26466,3.49171 -3.24682,4.19859c-0.97303,-1.55987 -1.914,-3.53081 -2.31563,-7.11392c-0.08917,-3.53441 1.48133,-7.45021 4.01304,-7.47165c2.03867,0.06174 2.20622,1.65608 3.04978,4.25192z" fill="#ffffff" stroke="none" stroke-width="1" stroke-linecap="butt" stroke-linejoin="miter"/></g><path d="M233.74137,213.68563c-0.54054,1.0039 -1.93047,4.78783 -6.16456,8.54449c-2.9047,2.61968 -11.86848,0.58237 -11.86848,0.58237c2.41783,8.92211 -5.01094,9.97248 -6.89047,7.24716c-1.4839,-2.18358 -3.00004,-12.37335 -0.96377,-13.52816c3.15302,-1.74885 8.02162,-0.5419 12.06449,-1.22392c1.18328,-0.19961 2.03267,-2.97964 4.3279,-6.20639c1.63945,-2.30482 3.58775,-6.38577 8.16173,-4.52064c3.93244,1.66911 2.75756,6.12665 1.33316,9.10509z" fill="#ffab19" fill-rule="evenodd" stroke="#001026" stroke-width="1.2" stroke-linecap="round" stroke-linejoin="round"/><path d="M247.17522,189.91986c0.66178,2.11945 2.25629,10.36914 4.8391,11.25181c2.46757,0.80069 9.03735,-2.33586 10.24687,2.42933c1.19288,4.66659 -5.19992,5.84643 -10.77421,5.2656c-7.21853,-0.70911 -12.15383,-10.72774 -9.30744,-17.90116c1.09651,-2.51747 4.31726,-3.26362 4.99568,-1.04557z" fill="#ffab19" fill-rule="evenodd" stroke="#001026" stroke-width="1.2" stroke-linecap="round" stroke-linejoin="round"/><g fill-rule="evenodd"><path d="M248.53598,213.01528c1.14058,3.15422 -2.34496,11.34818 -2.34496,11.34818c0,0 6.59842,3.04481 3.55001,7.8184c-2.24532,3.52258 -4.83053,1.42336 -13.20987,-4.3634c-1.26765,-0.9017 -1.53381,-2.4794 -0.82932,-3.71379c1.67151,-2.71589 3.9477,-7.2578 1.65951,-8.79864c-3.09368,-1.50637 -6.58179,-2.9462 -8.75353,-3.79679c-8.88421,-3.3691 -3.94924,-10.18497 -0.8926,-19.11788c1.61801,-4.83653 3.00091,-3.85286 9.11693,-3.66765c3.4358,-0.07254 5.45784,-0.10941 7.61056,-0.57397c3.23739,-0.64754 3.4442,4.18539 2.9726,6.80027c0,0 -0.76502,3.88133 -1.73085,5.97111c-1.17848,2.63271 -2.55417,5.2987 -3.58775,6.38577c0,0 5.21672,2.66942 6.43928,5.70839z" fill="#ffab19" stroke="#001026" stroke-width="1.2" stroke-linecap="round" stroke-linejoin="round"/><path d="M241.3197,207.33949c0,0 -1.67872,-0.93376 -3.50594,-2.14671c-2.27156,-1.44223 -4.49321,-2.58864 -3.03674,-5.97814c1.37569,-2.66598 2.51971,-6.10419 7.43941,-3.99314c4.68922,1.9471 3.23156,4.72832 3.23156,4.72832c-1.4208,4.80326 -4.12828,7.38967 -4.12828,7.38967z" fill="#ffffff" stroke="none" stroke-width="1" stroke-linecap="butt" stroke-linejoin="miter"/></g><path d="M230.15552,196.03622c-2.003,1.35203 -6.3453,0.25912 -7.39671,0.63931c-0.27919,0.14851 -1.18911,5.57548 -1.75812,8.81527c-0.74718,4.58821 -7.66869,4.43747 -8.82831,-0.0319c-1.0111,-4.19019 1.4539,-13.02329 2.48627,-14.71864c2.27739,-3.93364 12.46637,-2.80449 19.2525,-2.17638" fill="#ffab19" fill-rule="evenodd" stroke="#001026" stroke-width="1.2" stroke-linecap="round" stroke-linejoin="round"/><path d="M254.05139,130.64861c0.3,-0.2 0.8,-0.1 0.9,0.3l2.6,10.7c0,0 6.4,4.7 8.3,8c3.2,5.5 3.3,10 3.3,10c0,0 7.1,2.1 8.3,7.8c1.2,5.7 -3.2,16.5 -22,20.2c-18.8,3.7 -33.9,-1.4 -41,-12.8c-7.1,-11.4 4.1,-25 3.5,-24.2l-2.1,-17.9c-0.1,-0.4 0.4,-0.7 0.8,-0.5l12.1,7.9c0,0 4.5,-1.7 9.2,-1.9c2.8,-0.2 5.2,0 7.5,0.4z" fill="#ffab19" fill-rule="evenodd" stroke="#001026" stroke-width="1.2" stroke-linecap="butt" stroke-linejoin="miter"/><path d="M268.85139,160.04861c0,0 6.9,1.8 8.1,7.5c1.2,5.7 -3.6,16 -22.2,19.6c-24.2,5 -35.7,-9.4 -29,-20c6.7,-10.7 18.2,-1.6 26.6,-2.2c7.2,-0.5 8,-6.8 16.5,-4.9z" fill="#ffffff" fill-rule="evenodd" stroke="none" stroke-width="1" stroke-linecap="butt" stroke-linejoin="miter"/><path d="M261.90373,182.79063c0,0.4155 -0.4155,0.72713 -0.83101,0.62326c-1.97365,-0.72713 -7.58296,-2.38915 -13.81553,-2.80466c-5.60931,-0.31163 -8.93335,0 -10.4915,0.31163c-0.51938,0.10388 -0.93489,-0.4155 -0.72713,-0.93489c0.93489,-2.80466 4.88218,-10.59537 15.78918,-9.97211c9.45273,1.03876 10.38762,7.68684 10.07599,12.77677z" data-paper-data="{&quot;index&quot;:null}" fill="#ffffff" fill-rule="evenodd" stroke="#001026" stroke-width="1.2" stroke-linecap="round" stroke-linejoin="round"/><path d="M286.9,161.5c-4.7,3.8 -11.9,3.9 -11.9,3.9" fill="none" fill-rule="evenodd" stroke="#001026" stroke-width="1.2" stroke-linecap="round" stroke-linejoin="round"/><path d="M285.6,172.7c-6.3,0.5 -10.2,-1.4 -10.2,-1.4" fill="none" fill-rule="evenodd" stroke="#001026" stroke-width="1.2" stroke-linecap="round" stroke-linejoin="round"/><path d="M251.6,162.7c2.1,0 4.3,0.2 4.4,0.9c0.1,1.4 -1.4,4.2 -3,4.3c-1.8,0.2 -6,-2.3 -6,-3.9c-0.1,-1.2 2.6,-1.3 4.6,-1.3z" fill="#001026" fill-rule="evenodd" stroke="#001026" stroke-width="1.2" stroke-linecap="round" stroke-linejoin="round"/><path d="M206.6,161.2c0,0 8.6,2.8 12.1,5.9" fill="none" fill-rule="evenodd" stroke="#001026" stroke-width="1.2" stroke-linecap="round" stroke-linejoin="round"/><path d="M219,170.6c-4.3,1.7 -11.7,0.6 -11.7,0.6" fill="none" fill-rule="evenodd" stroke="#001026" stroke-width="1.2" stroke-linecap="round" stroke-linejoin="round"/><g fill-rule="evenodd"><path d="M263.4,151c2.9,4.5 3,9.6 0.2,11.4c-2.8,1.8 -7.4,-0.3 -10.4,-4.8c-2.9,-4.5 -3,-9.6 -0.2,-11.4c2.8,-1.9 7.5,0.3 10.4,4.8z" fill="#ffffff" stroke="#001026" stroke-width="1.2" stroke-linecap="round" stroke-linejoin="round"/><path d="M263,156.7c0,1.1 -0.8,2 -1.8,2c-1,0 -1.8,-0.9 -1.8,-2c0,-1.1 0.8,-2 1.8,-2c1,0 1.8,0.9 1.8,2" fill="#001026" stroke="none" stroke-width="1" stroke-linecap="butt" stroke-linejoin="miter"/></g><g fill-rule="evenodd"><path d="M238.6,153.8c3,4.4 2.8,9.8 0.1,11.7c-3.3,1.9 -7.7,0.5 -10.7,-3.9c-3.1,-4.4 -3.3,-10.1 -0.2,-12.3c3.1,-2.3 7.8,0.1 10.8,4.5z" fill="#ffffff" stroke="#001026" stroke-width="1.2" stroke-linecap="round" stroke-linejoin="round"/><path d="M238,159.6c0,1.1 -0.8,2 -1.8,2c-1,0 -1.8,-0.9 -1.8,-2c0,-1.1 0.8,-2 1.8,-2c1,0.1 1.8,0.9 1.8,2" fill="#001026" stroke="none" stroke-width="1" stroke-linecap="butt" stroke-linejoin="miter"/></g><path d="M260.62363,183.00885c-0.75,0 -0.75,-0.75 -0.75,-0.75l0.03849,-0.00509c-0.64344,-1.99635 -2.82076,-3.5808 -4.97683,-4.12706c-0.05265,1.16533 -0.18238,2.33602 -0.59684,3.5255l0.00968,0.8489c0,0 0,0.75 -0.75,0.75c-0.75,0 -0.75,-0.75 -0.75,-0.75l0.00968,-1.08917c0.37893,-1.17849 0.513,-2.33725 0.57799,-3.49024c-0.02671,-0.00029 -0.05336,-0.00038 -0.07993,-0.00028c-2.39063,0 -4.79517,0.08383 -7.14564,-0.25194c-0.62518,-0.08931 -1.30348,-0.26778 -1.99074,-0.40241c-0.19938,0.71356 -0.31721,1.41377 -0.28848,2.08468v0.24226c0,0 0,0.75 -0.75,0.75c-0.75,0 -0.75,-0.75 -0.75,-0.75v-0.24226c0.02051,-0.75623 0.16294,-1.50795 0.3728,-2.25696c-0.30709,-0.0052 -0.6098,0.01729 -0.90404,0.0798c-1.84378,0.39168 -2.83076,2.52099 -4.53806,3.13094c0,0 -0.71151,0.23717 -0.94868,-0.47434c-0.23717,-0.71151 0.47434,-0.94868 0.47434,-0.94868c1.74567,-0.51708 2.70228,-2.71743 4.66777,-3.16779c0.56453,-0.12935 1.14605,-0.13649 1.72995,-0.08176c0.54737,-1.48738 1.2215,-2.96856 1.5909,-4.45764c0,0 0.1819,-0.72761 0.90951,-0.54571c0.72761,0.1819 0.54571,0.90951 0.54571,0.90951c-0.34278,1.36162 -1.06909,2.84473 -1.63425,4.31575c0.60011,0.11967 1.19007,0.25349 1.75355,0.33399c2.2683,0.32405 4.59608,0.23257 6.90537,0.23257c0.04653,0.00016 0.09315,0.00079 0.13986,0.00188c0.05847,-1.76412 0.13381,-3.5289 0.85959,-5.34463c0,0 0.27854,-0.69636 0.9749,-0.41781c0.69636,0.27854 0.41781,0.9749 0.41781,0.9749c-0.67338,1.68222 -0.73545,3.32556 -0.77062,4.96789c2.75259,0.59476 5.47385,2.5904 6.35773,5.17578l0.03849,0.47943c0,0 0,0.75 -0.75,0.75z" fill="#000000" fill-rule="nonzero" stroke="none" stroke-width="0.5" stroke-linecap="butt" stroke-linejoin="miter"/><path d="M182.10858,171.35721c0,-0.75 0.75,-0.75 0.75,-0.75l0.29349,0.02473c5.69596,-1.49404 11.9182,-0.38782 17.29824,-3.09492c0,0 0.67082,-0.33541 1.00623,0.33541c0.33541,0.67082 -0.33541,1.00623 -0.33541,1.00623c-5.53795,2.75307 -11.75904,1.66197 -17.58701,3.20381l-0.67554,0.02473c0,0 -0.75,0 -0.75,-0.75z" fill="#000000" fill-rule="nonzero" stroke="none" stroke-width="0.5" stroke-linecap="butt" stroke-linejoin="miter"/><path d="M178.20985,186.42306c-0.53033,-0.53033 0,-1.06066 0,-1.06066l0.34694,-0.32944c2.21698,-1.52816 4.70344,-3.03384 7.1442,-4.1852c3.56691,-1.68258 7.76878,-1.83889 11.00085,-4.27635c0,0 0.6,-0.45 1.05,0.15c0.45,0.6 -0.15,1.05 -0.15,1.05c-3.36861,2.51401 -7.59941,2.69252 -11.28695,4.44497c-2.35958,1.12136 -4.75893,2.57107 -6.9068,4.0516l-0.13758,0.15508c0,0 -0.53033,0.53033 -1.06066,0z" fill="#000000" fill-rule="nonzero" stroke="none" stroke-width="0.5" stroke-linecap="butt" stroke-linejoin="miter"/><path d="M177.51587,156.21387c0.1233,-0.7398 0.86309,-0.6165 0.86309,-0.6165l1.42651,0.23826c6.35372,0.58496 12.06414,1.77857 18.26401,3.41011c0,0 0.72531,0.19087 0.53444,0.91618c-0.19087,0.72531 -0.91618,0.53444 -0.91618,0.53444c-6.14499,-1.6171 -11.78142,-2.78812 -18.0748,-3.37313l-1.48059,-0.24626c0,0 -0.7398,-0.1233 -0.6165,-0.86309z" fill="#000000" fill-rule="nonzero" stroke="none" stroke-width="0.5" stroke-linecap="butt" stroke-linejoin="miter"/></g></g></svg>