<svg version="1.1" xmlns="http://www.w3.org/2000/svg" xmlns:xlink="http://www.w3.org/1999/xlink" width="980.48048" height="630.63063" viewBox="0,0,980.48048,630.63063"><g transform="translate(145.24024,130.31528)"><g data-paper-data="{&quot;isPaintingLayer&quot;:true}" stroke-miterlimit="10" stroke-dasharray="" stroke-dashoffset="0" style="mix-blend-mode: normal"><path d="M-145.24024,500.31535v-630.63063h980.48048v630.63063z" fill="#000000" fill-rule="nonzero" stroke="#ff3838" stroke-width="0" stroke-linecap="butt" stroke-linejoin="miter"/><text transform="translate(304.71471,259.28905) scale(0.5,0.5)" font-size="40" xml:space="preserve" fill="#ffffff" fill-rule="nonzero" stroke="none" stroke-width="1" stroke-linecap="butt" stroke-linejoin="miter" stroke-miterlimit="10" stroke-dasharray="" stroke-dashoffset="0" font-family="Marker" font-weight="normal" text-anchor="start" style="mix-blend-mode: normal"><tspan x="0" dy="0">Loading</tspan></text><g><path d="M344.00581,172.68854c-0.49586,-0.14722 -1.41734,-3.81598 -2.82803,-4.82526c-1.02322,-0.68555 -2.32993,-1.44508 -3.96328,-1.53294c-3.69224,-0.25117 -2.97979,-0.96066 -3.56213,-3.06274c-0.61748,-2.13798 -0.09801,-3.76059 5.62679,-0.78843c1.97907,1.01513 3.31506,2.37891 4.36907,3.52662c0.28125,0.28712 2.4559,3.00956 2.07946,5.06627c-0.37644,2.0567 -1.29711,1.76301 -1.72194,1.61653z" fill="#000000" fill-rule="evenodd" stroke="#001026" stroke-width="1.2" stroke-linecap="round" stroke-linejoin="round"/><path d="M350.06109,170.95471c0.16701,1.03201 -0.27682,2.73274 -2.37087,2.53354c-2.44928,-0.20286 -2.73863,-3.15456 -2.90345,-4.39971c-0.16482,-1.24516 -0.1934,-1.92045 -0.91562,-4.23715c-0.27468,-0.92653 -0.76104,-1.99735 -1.03939,-2.56866c-0.13989,-0.21459 -0.31569,-0.39406 -0.56326,-0.50317c-0.45996,-0.18236 1.99866,4.22138 1.83312,3.0473c-0.06772,-1.27888 -1.22219,-0.99552 0.75895,-1.09961c0.22759,-0.01198 -0.39917,-0.04393 -0.16077,-0.08255c2.24305,-0.36333 0.67979,-1.32439 1.29674,-0.0938c1.32355,2.57157 2.82632,1.98606 1.36731,2.21973c-0.21387,0.06887 -0.67077,0.65711 -0.56603,0.83582l1.16225,-2.2203c0.2737,0.54063 -0.06177,-0.90306 0.16041,-0.3685c0.24661,0.59335 0.62465,2.21218 0.81487,2.77592c0.81576,2.4176 0.98568,3.42125 1.12574,4.16118z" fill="#000000" fill-rule="evenodd" stroke="#001026" stroke-width="1.2" stroke-linecap="round" stroke-linejoin="round"/><path d="M347.67166,183.79644c-1.13602,-0.08276 -2.08016,-1.54908 -1.11044,-2.56937c0.93312,-0.91409 2.64043,-1.10969 3.63653,-1.24154c0.99612,-0.13186 5.08241,-0.19638 6.39573,3.36985c0.48123,1.56816 0.86216,5.97744 -1.58783,5.84563c-2.45001,-0.13179 -2.13876,-2.75762 -2.22891,-4.35725c-0.05715,-1.35062 -4.78578,-1.00849 -5.10513,-1.0473z" fill="#000000" fill-rule="evenodd" stroke="#001026" stroke-width="1.2" stroke-linecap="round" stroke-linejoin="round"/><g fill-rule="evenodd"><path d="M350.72603,175.42741c0.09888,0.7471 -0.01755,1.70514 -0.28047,3.08796c-0.22485,1.13454 -1.06053,2.93783 -1.06053,2.93783c-0.58081,1.20194 -2.09254,3.10484 -3.21684,1.88535c-0.73759,-0.82471 -1.54841,-1.43702 -2.9232,-2.48146c-2.54013,-1.73144 -3.21397,-1.84495 -2.62147,-4.18366c0.7734,-2.65656 -0.39635,-6.36343 5.57084,-6.23093c0,0 3.08652,0.42258 7.24237,0.50087c2.80598,0.06442 7.03071,0.35659 8.48605,0.47815c0.31934,0.03882 0.60206,0.18383 0.8489,0.36401c3.7333,3.16482 5.90577,6.10041 4.36252,7.61218c-2.58401,2.53136 -6.71433,-3.47972 -6.71433,-3.47972c0,0 -3.01694,-0.27974 -4.43713,-0.36543z" fill="#000000" stroke="#001026" stroke-width="1.2" stroke-linecap="round" stroke-linejoin="round"/><path d="M349.86836,179.36207c0,0 -0.22924,1.56084 -2.71002,0.96686c-2.62287,-0.59543 -2.07211,-2.3306 -1.84361,-3.82038c0.40942,-1.80767 1.65089,-1.61725 3.00005,-1.53233c1.10085,0.04688 2.05888,0.16329 2.05888,0.16329c0,0 0.33623,1.85087 -0.50531,4.2225z" fill="#a00000" stroke="none" stroke-width="1" stroke-linecap="butt" stroke-linejoin="miter"/></g><g fill-rule="evenodd"><path d="M328.94122,201.79351c-0.95218,-0.68481 -1.86775,-1.47582 -2.78039,-2.55104c-1.58064,-1.75709 -2.55263,-3.96979 -2.55263,-3.96979l-7.0893,-1.56511c-0.2124,-0.07323 -0.28053,-0.35817 -0.10182,-0.46289l7.16246,-5.53956c-0.07616,0.49658 0.86708,-8.30442 7.45464,-9.76428c6.58754,-1.45986 13.72669,2.16636 19.00845,10.21432c5.28175,8.04797 2.95267,13.42413 0.48512,14.99744c-2.46756,1.57333 -5.71743,-0.23649 -5.71743,-0.23649c0,0 -1.65017,1.54621 -4.7491,2.33144c-1.85232,0.47831 -5.78921,-0.16618 -5.78921,-0.16618l-4.75424,2.82876c-0.17873,0.10473 -0.3904,-0.03955 -0.42408,-0.21755z" fill="#000000" stroke="#001026" stroke-width="1.2" stroke-linecap="butt" stroke-linejoin="miter"/><path d="M344.8484,202.66781c-3.67028,-2.38255 -1.69056,-4.88462 -4.04245,-7.64441c-2.73791,-3.22563 -10.04695,-4.1535 -8.56237,-10.31995c1.44867,-6.13129 10.65984,-7.06676 17.37352,3.37628c5.24733,7.94104 3.23833,13.28494 0.77076,14.85827c-2.46756,1.57332 -5.53944,-0.27019 -5.53944,-0.27019z" fill="#000000" stroke="none" stroke-width="1" stroke-linecap="butt" stroke-linejoin="miter"/><path d="M337.61383,187.60088c1.65308,-1.8304 4.26641,-3.75748 7.82464,-0.84318c3.90686,3.55739 2.55119,7.55801 1.89862,8.83028c-0.10912,0.24756 -0.42922,0.2798 -0.5691,0.06519c-0.4197,-0.6438 -1.43706,-1.89773 -3.44326,-3.73027c-2.25302,-2.01269 -4.72577,-3.38818 -5.64498,-3.82398c-0.17652,-0.10838 -0.20947,-0.35743 -0.06591,-0.49805z" fill="#000000" stroke="#001026" stroke-width="1.2" stroke-linecap="round" stroke-linejoin="round"/><path d="M348.92809,203.24269c0,0 2.49547,2.61917 2.78409,5.64195" fill="none" stroke="#001026" stroke-width="1.2" stroke-linecap="round" stroke-linejoin="round"/><path d="M351.18617,201.31195c0,0 2.05304,0.73166 4.08854,3.16847" fill="none" stroke="#001026" stroke-width="1.2" stroke-linecap="round" stroke-linejoin="round"/><path d="M338.5815,193.68599c0.57423,-0.56253 2.94807,0.06589 3.50913,0.78221c0.52663,0.60939 0.0491,2.13212 -0.48848,2.58845c-0.28639,0.2102 -1.13164,-0.50902 -1.86996,-1.26271c-0.70315,-0.71778 -1.61652,-1.72193 -1.15069,-2.10794z" fill="#001026" stroke="#000000" stroke-width="1.2" stroke-linecap="round" stroke-linejoin="round"/><path d="M329.74443,182.4395c-2.34307,-0.16624 -6.37153,-2.26827 -6.37153,-2.26827" fill="none" stroke="#001026" stroke-width="1.2" stroke-linecap="round" stroke-linejoin="round"/><path d="M327.20788,176.90668c0,0 2.99645,2.26905 3.89812,4.40996" fill="none" stroke="#001026" stroke-width="1.2" stroke-linecap="round" stroke-linejoin="round"/><g fill="#a00000"><path d="M334.30272,202.09739c-0.33842,-1.63774 1.52709,-3.39488 4.16166,-3.93619c2.66973,-0.50541 5.04065,0.40716 5.37908,2.04488c0.33842,1.63774 -1.52709,3.39488 -4.16166,3.93619c-2.63461,0.54131 -5.07655,-0.372 -5.37908,-2.04488z" stroke="#001026" stroke-width="1.2" stroke-linecap="round" stroke-linejoin="round"/><path d="M341.58683,201.99474c-0.39476,0.38673 -0.99904,0.41605 -1.35062,0.05715c-0.35159,-0.3589 -0.30983,-0.96243 0.08495,-1.34917c0.39476,-0.38673 0.99904,-0.41605 1.35062,-0.05715c0.35159,0.3589 0.30983,0.96243 -0.08495,1.34917" stroke="none" stroke-width="1" stroke-linecap="butt" stroke-linejoin="miter"/></g><g><path d="M331.96758,194.25738c-2.63386,0.47029 -5.14759,-0.37272 -5.41202,-2.29391c-0.30033,-1.88603 1.81566,-3.81823 4.48466,-4.25262c2.63386,-0.47029 4.68323,0.61664 5.16154,2.46896c0.26737,1.637 -1.60031,3.60731 -4.23416,4.07757z" fill="#ffffff" stroke="#001026" stroke-width="1.2" stroke-linecap="round" stroke-linejoin="round"/><path d="M333.83817,192.0029c-0.39476,0.38673 -0.96315,0.38088 -1.35062,0.05715c-0.35159,-0.3589 -0.30983,-0.96243 0.08495,-1.34917c0.39476,-0.38673 0.99904,-0.41605 1.35062,-0.05715c0.35159,0.3589 0.30983,0.96243 -0.08495,1.34917" fill="#001026" stroke="none" stroke-width="1" stroke-linecap="butt" stroke-linejoin="miter"/></g></g><path d="M335.32684,191.40992c0,0 0.14421,0.04971 0.26599,0.17122c0.13662,-0.1155 0.27619,-0.26646 0.43657,-0.49055c0.56148,-0.55305 1.12446,-1.10453 1.68745,-1.65606l0.27011,-0.41791c0,0 0.35372,-0.51892 0.87263,-0.16521c0.51891,0.35372 0.16521,0.87263 0.16521,0.87263l-0.429,0.60771c-0.53832,0.52734 -1.07645,1.05484 -1.61642,1.5805c-0.95145,1.28154 -2.85034,2.37544 -4.16001,3.02404c-1.05787,0.52391 -2.23353,-0.02583 -3.36249,0.56786c-0.41787,0.21974 -0.5266,0.81204 -0.91388,1.08208c-0.19845,0.13838 -0.50963,0.03107 -0.70463,0.17432c-1.03072,0.75719 -0.95466,1.12505 -2.34859,1.2764c0,0 -0.62485,0.06291 -0.68775,-0.56192c-0.06291,-0.62485 0.56192,-0.68775 0.56192,-0.68775c1.68823,-0.15318 2.16116,-1.61727 3.48536,-2.38241c0.9081,-0.5247 2.01952,-0.56465 2.98249,-0.48116c0.0383,0.00331 0.07334,0.00445 0.10552,0.0036c-0.04374,-0.12719 -0.04263,-0.2356 -0.04263,-0.2356c0.00237,-0.22951 0.00474,-0.45898 0.00709,-0.68846l0.27543,-0.52732c0,0 0.44861,-0.43947 0.88807,0.00914c0.29378,0.29988 0.19068,0.59567 0.09007,0.75887c-0.00008,0.00696 -0.00013,0.01392 -0.0002,0.02084c0.13511,0.00649 0.27071,0.01425 0.39128,-0.03603c0.33415,-0.13944 0.50626,-0.50876 0.7508,-0.78465c-0.18513,-0.0523 -0.31043,-0.18023 -0.31043,-0.18023l0.56816,-1.12011c0.25729,0.08871 0.51457,0.17744 0.77186,0.26615z" fill="#a00000" fill-rule="nonzero" stroke="none" stroke-width="0.5" stroke-linecap="butt" stroke-linejoin="miter"/><path d="M340.65354,190.1609c0.51891,0.35372 0.16521,0.87263 0.16521,0.87263l-0.30968,0.44572c-0.12515,0.24258 -0.25031,0.48518 -0.37545,0.72777c-0.42097,0.57385 -0.70583,1.52048 -1.27796,1.95525c-0.49622,0.37709 -1.36864,0.55554 -1.936,0.83237c-1.57301,0.76754 -3.32871,1.69264 -4.77416,2.66245c-1.28365,0.86124 -2.51917,2.65406 -3.64761,3.75953c0,0 -0.44861,0.43947 -0.88807,-0.00914c-0.43947,-0.44861 0.00914,-0.88807 0.00914,-0.88807c1.20392,-1.17939 2.46225,-2.97544 3.83314,-3.90955c1.48177,-1.00964 3.30571,-1.96019 4.92106,-2.74607c0.05226,-0.02542 1.59756,-0.61228 1.69441,-0.67947c0.40086,-0.27809 0.7092,-1.24034 0.99677,-1.63615c0.10906,-0.21403 0.21813,-0.42806 0.32718,-0.6421l0.38942,-0.57988c0,0 0.35372,-0.51892 0.87263,-0.16521z" fill="#a00000" fill-rule="nonzero" stroke="none" stroke-width="0.5" stroke-linecap="butt" stroke-linejoin="miter"/><path d="M353.03631,193.30689c-0.00647,0.62798 -0.63444,0.62152 -0.63444,0.62152l-0.49651,-0.03507c-1.7224,1.3166 -3.49924,2.66611 -5.28686,3.90216c-1.40545,0.97183 -1.91252,2.84152 -3.90672,2.09317c0,0 -0.57465,-0.25333 -0.32135,-0.82797c0.2533,-0.57465 0.82796,-0.32134 0.82796,-0.32134c0.75847,0.4536 1.5445,-0.87838 2.07704,-1.39467c1.80853,-1.75335 4.13223,-3.27252 6.23896,-4.65134l0.88043,-0.0209c0,0 0.62796,0.00647 0.62152,0.63444z" fill="#a00000" fill-rule="nonzero" stroke="none" stroke-width="0.5" stroke-linecap="butt" stroke-linejoin="miter"/><path d="M353.69806,194.76311c0.43947,0.44861 -0.00914,0.88807 -0.00914,0.88807l-0.4275,0.40683c-1.88457,1.31701 -3.52678,2.85652 -5.51434,4.02106c-1.23969,0.72637 -2.77713,0.99807 -3.92714,1.8204c0,0 -0.51476,0.35974 -0.8745,-0.15502c-0.35974,-0.51476 0.15502,-0.8745 0.15502,-0.8745c1.22283,-0.83945 2.74096,-1.12941 4.0292,-1.88467c1.9509,-1.14374 3.55968,-2.6621 5.4123,-3.95681l0.26805,-0.27454c0,0 0.44861,-0.43947 0.88807,0.00914z" fill="#a00000" fill-rule="nonzero" stroke="none" stroke-width="0.5" stroke-linecap="butt" stroke-linejoin="miter"/><path d="M329.63646,191.0865c0.51263,0.36276 0.14988,0.8754 0.14988,0.8754l-0.06051,0.08551c-1.2848,1.50182 -1.38331,1.47709 -2.89133,0.38192c0,0 -0.50725,-0.37024 -0.13698,-0.8775c0.37024,-0.50725 0.8775,-0.13698 0.8775,-0.13698c0.27554,0.20229 0.50685,0.91144 0.76305,0.68514c0.21444,-0.18941 0.24166,-0.51874 0.36248,-0.77811l0.06051,-0.08551c0,0 0.36276,-0.51263 0.8754,-0.14988z" fill="#a00000" fill-rule="nonzero" stroke="none" stroke-width="0.5" stroke-linecap="butt" stroke-linejoin="miter"/><path d="M331.54077,190.08702c-0.44861,0.43947 -0.88807,-0.00914 -0.88807,-0.00914l-0.08518,-0.08697c-0.34069,-0.34779 -0.68139,-0.69556 -1.02207,-1.04335c0,0 -0.43947,-0.44861 0.00914,-0.88807c0.44861,-0.43947 0.88807,0.00914 0.88807,0.00914c0.34069,0.34777 0.76656,0.78251 1.10724,1.13025c0,0 0.43947,0.44861 -0.00914,0.88807z" fill="#a00000" fill-rule="nonzero" stroke="none" stroke-width="0.5" stroke-linecap="butt" stroke-linejoin="miter"/><path d="M333.93562,190.20954c-0.62798,-0.00648 -0.62152,-0.63444 -0.62152,-0.63444l0.35468,-0.73023c0.23068,-0.11239 0.46135,-0.22479 0.692,-0.33714c0,0 0.56458,-0.27504 0.83962,0.28953c0.27506,0.56456 -0.28951,0.83961 -0.28951,0.83961c-0.12994,0.06333 -0.2599,0.12662 -0.38985,0.18995c-0.06607,0.17681 -0.22121,0.38647 -0.58545,0.38275z" fill="#a00000" fill-rule="nonzero" stroke="none" stroke-width="0.5" stroke-linecap="butt" stroke-linejoin="miter"/><path d="M342.41563,160.98903c0.62074,0.09523 0.52553,0.71595 0.52553,0.71595l-0.19824,0.14657c0.21405,0.30832 0.44877,0.58967 0.68497,0.86961c0.11451,0.0208 0.19413,0.06164 0.19413,0.06164c0.20741,0.10779 0.43195,0.18763 0.62224,0.32337c0.07247,0.0517 0.08753,0.2919 0.14522,0.22413c0.17166,-0.20175 0.02826,-0.72364 0.29273,-0.73882c0.48432,-0.02782 0.8948,0.38587 1.30349,0.64719c0.22956,0.1468 0.31231,0.89492 0.46723,0.67076c0.1242,-0.17973 0.04692,-0.57874 0.26438,-0.59975c0.91965,-0.08892 2.18526,0.74287 1.48301,1.93164c-0.2048,0.34666 -0.7906,0.15289 -1.18593,0.22934l-0.52734,-0.27544c0,0 -0.08532,-0.08711 -0.1424,-0.22213c-0.18143,-0.03484 -0.38973,-0.10701 -0.62166,-0.22616c-0.23855,-0.12256 -0.42317,-0.34344 -0.56996,-0.56787c-0.07378,-0.11287 0.00192,-0.51798 -0.0628,-0.39968c-0.10203,0.18656 0.13268,0.55787 -0.06568,0.63457c-0.27479,0.10624 -0.56423,0.08583 -0.84783,0.00557c-0.03788,0.04434 -0.08544,0.08763 -0.14446,0.12887c-0.51476,0.35974 -0.8745,-0.15502 -0.8745,-0.15502c-0.44952,-0.64752 -0.99017,-1.17606 -1.44438,-1.8223l-0.01372,-1.05649c0,0 0.09523,-0.62074 0.71595,-0.52553z" fill="#a00000" fill-rule="nonzero" stroke="none" stroke-width="0.5" stroke-linecap="butt" stroke-linejoin="miter"/><path d="M345.87562,159.03881c0.62798,0.00648 0.62152,0.63444 0.62152,0.63444l-0.02561,0.66847c-0.05973,0.22889 -0.11947,0.45778 -0.1792,0.6867c0,0 -0.15858,0.60766 -0.76622,0.44908c-0.60766,-0.15858 -0.44908,-0.76622 -0.44908,-0.76622c0.05974,-0.22891 0.11948,-0.45781 0.1792,-0.6867l-0.015,-0.36423c0,0 0.00648,-0.62798 0.63444,-0.62152z" fill="#a00000" fill-rule="nonzero" stroke="none" stroke-width="0.5" stroke-linecap="butt" stroke-linejoin="miter"/><path d="M348.88537,158.77184l-0.43649,0.59799c0,0 -0.37024,0.50725 -0.8775,0.13698c-0.50725,-0.37024 -0.13698,-0.8775 -0.13698,-0.8775l0.43649,-0.59799c0,0 0.37024,-0.50725 0.8775,-0.13698c0.50725,0.37024 0.13698,0.8775 0.13698,0.8775z" fill="#a00000" fill-rule="nonzero" stroke="none" stroke-width="0.5" stroke-linecap="butt" stroke-linejoin="miter"/><path d="M343.13747,154.91161c0.59778,-0.19246 0.79025,0.40533 0.79025,0.40533l0.09326,0.61009c-0.05974,0.22891 -0.11948,0.45781 -0.1792,0.6867c0,0 -0.04813,0.18441 -0.19294,0.32354c0.07631,0.22203 0.02444,0.47796 -0.15442,0.6532c-0.24778,0.24272 -0.64537,0.23863 -0.88807,-0.00914c-0.24272,-0.24778 -0.23863,-0.64537 0.00914,-0.88807c0.00699,-0.00684 0.0141,-0.01349 0.02132,-0.01994c-0.05843,-0.19222 -0.01029,-0.37674 -0.01029,-0.37674c0.05974,-0.22891 0.11948,-0.45781 0.1792,-0.6867l-0.07354,0.09197c0,0 -0.19244,-0.59778 0.40533,-0.79025z" fill="#a00000" fill-rule="nonzero" stroke="none" stroke-width="0.5" stroke-linecap="butt" stroke-linejoin="miter"/><path d="M346.36058,164.5777c-0.00648,0.62798 -0.63444,0.62152 -0.63444,0.62152l-0.41897,-0.05512c-0.00919,-0.00405 -0.01838,-0.0081 -0.02758,-0.01217c-0.06652,0.16775 -0.25517,0.48381 -0.71274,0.3874c-0.6145,-0.12949 -0.48502,-0.74401 -0.48502,-0.74401l0.07702,-0.30638c0.00762,-0.4639 -0.04988,-0.84172 0.07736,-1.09549c-0.04314,-0.08858 -0.06416,-0.18513 -0.06319,-0.28144l0.0071,-0.68847v0c0.00165,-0.16072 0.06461,-0.32078 0.1885,-0.44217c0.17568,-0.17209 0.42668,-0.2201 0.6444,-0.14516l0.16373,-0.3974c0.03135,-0.08126 0.08018,-0.15728 0.14646,-0.22223c0.24778,-0.24272 0.64537,-0.23863 0.88807,0.00914c0.07383,0.07535 0.12478,0.16456 0.15302,0.25905l0.24634,0.76516l-0.00705,0.00227l0.01399,0.02081c0.11867,0.50802 0.18335,1.03285 0.18118,1.55453c0,0 -0.00515,0.5007 -0.45335,0.6033c0.01029,0.05004 0.01571,0.10545 0.01508,0.16678zM345.5456,163.84402c-0.00279,0.00961 -0.00556,0.01922 -0.00835,0.02883c0.0041,0.00181 0.00821,0.00362 0.01231,0.00543c-0.00174,-0.01259 -0.00303,-0.0241 -0.00397,-0.03427z" fill="#ffffff" fill-rule="nonzero" stroke="none" stroke-width="0.5" stroke-linecap="butt" stroke-linejoin="miter"/><path d="M338.77279,188.78989c-0.62258,0.08241 -0.70498,-0.54015 -0.70498,-0.54015l0.31039,-0.40557c-0.18144,0.06498 -0.35283,0.11736 -0.48046,0.14967c0,0 -0.61077,0.14604 -0.75683,-0.46475c-0.14603,-0.61077 0.46475,-0.75683 0.46475,-0.75683c1.28866,-0.28289 2.55986,-1.87054 2.66357,0.5413c0.00991,0.23007 -0.11271,0.44604 -0.17432,0.6685l-0.00649,0.62995l-0.25253,-0.00261l-0.25553,0.61258c-0.1612,-0.15517 -0.32274,-0.31129 -0.48796,-0.4632l-0.21173,0.08816l-0.02959,-0.07109c-0.0248,0.00564 -0.05089,0.0103 -0.07834,0.01395z" fill="#8da900" fill-rule="nonzero" stroke="none" stroke-width="0.5" stroke-linecap="butt" stroke-linejoin="miter"/><path d="M345.25989,193.76884c0,0 -0.62242,-0.00641 -0.62156,-0.62613c-0.20577,0.04694 -0.43039,-0.0109 -0.58891,-0.17274c-0.12134,-0.12388 -0.18101,-0.28521 -0.17936,-0.44594v0l0.00358,-0.34769c-0.09252,-0.11663 -0.19966,-0.21764 -0.32739,-0.29352l-0.56955,-0.13579c0,0 -0.51105,-0.13337 -0.47352,-0.62415c-0.16261,-0.05598 -0.41781,-0.20038 -0.42177,-0.55592c-0.45601,-0.09577 -1.05833,-0.25799 -1.24113,-0.30507l-0.37521,-0.25513c0,0 -0.11898,-0.12146 -0.16992,-0.29989c-0.05536,0.03203 -0.11152,0.06129 -0.16917,0.08529c0,0 -0.57974,0.24142 -0.82115,-0.33831c-0.24144,-0.57974 0.33831,-0.82115 0.33831,-0.82115c0.09127,-0.038 0.31966,-0.13527 0.57023,-0.23776c0.01213,-0.14485 0.07436,-0.28619 0.18632,-0.39588c0.09354,-0.09163 0.20841,-0.14808 0.32825,-0.16953c0.16409,-0.17743 0.39542,-0.18515 0.52272,-0.17297c-0.00056,-0.00375 -0.0011,-0.00751 -0.00159,-0.01132c-0.13515,-0.24132 -0.09827,-0.55236 0.10879,-0.75522c0.24778,-0.24272 0.64537,-0.23863 0.88807,0.00914c0.10503,0.10721 0.16386,0.24249 0.1767,0.38115c0.06961,0.11048 0.13317,0.22614 0.18992,0.34561c0.01855,0.01588 0.03713,0.03322 0.05569,0.05218c0.206,0.21028 0.21686,0.41855 0.17028,0.58052c0.05193,0.21133 0.08207,0.42693 0.08716,0.64086l0.05321,0.06015c0,0 0.069,0.21429 -0.00396,0.42758c0.0644,0.17149 0.089,0.35128 0.05972,0.53377c0.666,-0.06415 1.2199,-0.85173 1.90127,-0.55109c0.94985,0.41912 0.6717,1.77107 0.47264,2.56037c0.2306,0.01227 0.46106,0.02082 0.6907,0.00153c0.36119,-0.03036 0.79129,-0.3804 1.07609,-0.15624c0.34469,0.2713 0.26454,1.534 0.25721,1.98078l-0.03877,0.06918l0.02395,0.00625l-0.17659,0.67673c-0.02676,0.11033 -0.08373,0.21475 -0.17079,0.30003c-0.24778,0.24272 -0.64537,0.23863 -0.88807,-0.00914c-0.02369,-0.02419 -0.04503,-0.0498 -0.06403,-0.07658l-0.50287,-0.68507l0.01198,-0.00879c-0.15912,-0.14419 -0.31479,-0.29201 -0.46539,-0.44503l0.0979,0.18494zM344.32167,190.916c0.01083,0.00702 0.02167,0.01399 0.03258,0.02093c0.00492,-0.02062 0.00974,-0.04089 0.01449,-0.06073c-0.01477,0.01343 -0.03051,0.02669 -0.04708,0.03975z" fill="#8da900" fill-rule="nonzero" stroke="none" stroke-width="0.5" stroke-linecap="butt" stroke-linejoin="miter"/><path d="M345.58674,189.42579c-1.31167,-0.33548 -1.50113,-0.5519 -1.71787,-1.40723c-0.41915,-0.06647 -0.72942,-0.67119 -0.89986,-1.25683l-0.32649,0.06384c-0.46857,-0.37193 -0.84027,-0.91242 -1.00354,-1.48791c0,0 -0.14603,-0.61077 0.46476,-0.75684c0.61079,-0.14604 0.75684,0.46476 0.75684,0.46476c0.00452,0.02859 0.01045,0.05708 0.01773,0.08542c0.22408,-0.08659 0.48748,-0.03975 0.6684,0.13935c0.24038,0.02881 0.37152,0.15884 0.443,0.29321l0.48535,0.31871c0.07905,0.17179 0.23497,0.34578 0.36206,0.51894c0.60383,-0.06617 0.68441,0.54266 0.68441,0.54266l-0.0941,0.24622c0.3514,0.36098 0.68585,0.75713 0.96501,1.18475l0.21014,-0.14686l0.41818,0.59837c0.17973,0.2477 0.1558,0.59622 -0.06939,0.81683c-0.2018,0.19771 -0.50303,0.23164 -0.73896,0.10356l-0.62572,-0.32094z" fill="#8da900" fill-rule="nonzero" stroke="none" stroke-width="0.5" stroke-linecap="butt" stroke-linejoin="miter"/><path d="M339.5927,185.74497c0.62485,-0.06291 0.68775,0.56192 0.68775,0.56192l-0.15699,1.33073c-0.45545,-0.05495 -0.91091,-0.10992 -1.36636,-0.16487c0,0 -0.59372,-0.20473 -0.38898,-0.79839c0.14495,-0.42035 0.48491,-0.44045 0.67106,-0.41638c0.03018,-0.18986 0.14449,-0.47181 0.55351,-0.51302z" fill="#a00000" fill-rule="nonzero" stroke="none" stroke-width="0.5" stroke-linecap="butt" stroke-linejoin="miter"/><path d="M340.93198,186.45529c0.44861,-0.43947 0.88807,0.00914 0.88807,0.00914l0.17034,0.1739c0.21244,0.22273 0.3657,0.49428 0.47815,0.78801l0.16401,-0.06829l0.24636,0.59157c0.1033,0.2327 0.05793,0.51492 -0.13465,0.70353c-0.19256,0.18866 -0.47563,0.22819 -0.70616,0.12013l-0.58637,-0.25849l0.01811,-0.04107l-0.1222,-0.0172c-0.20073,-0.19952 -0.4015,-0.39904 -0.60223,-0.59857c0,0 -0.42933,-0.43826 -0.00614,-0.87277c-0.02818,-0.1549 0.00216,-0.34323 0.19271,-0.52989z" fill="#a00000" fill-rule="nonzero" stroke="none" stroke-width="0.5" stroke-linecap="butt" stroke-linejoin="miter"/><path d="M344.09693,187.48909c0.56458,-0.27504 0.83962,0.28953 0.83962,0.28953l0.15608,0.32175c0.07525,0.15285 0.19643,0.29852 0.30052,0.44686c0.30073,-0.04151 0.53467,0.19728 0.53467,0.19728l0.68138,0.69555c0.07425,0.07579 0.12542,0.16561 0.15353,0.26073c0.0154,0.01126 0.03081,0.02261 0.04619,0.03405l0.21641,0.14744c0,0 0.51891,0.35372 0.16521,0.87264c-0.08373,0.12281 -0.17669,0.19677 -0.26985,0.23806c-0.23634,0.12092 -0.46644,0.02626 -0.58526,-0.04314c-0.02445,0.11785 -0.08296,0.22996 -0.1754,0.32053c-0.19256,0.18866 -0.47563,0.22819 -0.70616,0.12013l-0.58637,-0.25849l0.00961,-0.02184l-0.06991,-0.00875c-0.50648,-0.36834 -0.97519,-0.79024 -1.41437,-1.23668c0,0 -0.43947,-0.44861 0.00914,-0.88807c0.02871,-0.02812 0.05736,-0.05259 0.08586,-0.07379c0.00705,-0.07881 0.03237,-0.16453 0.08393,-0.25624c0.01959,-0.1303 0.08015,-0.25554 0.18153,-0.35489c0.00946,-0.00929 0.01917,-0.01821 0.02907,-0.02677c-0.05242,-0.15542 -0.13436,-0.55717 0.31456,-0.77589z" fill="#a00000" fill-rule="nonzero" stroke="none" stroke-width="0.5" stroke-linecap="butt" stroke-linejoin="miter"/><path d="M347.44503,191.85851c0.24272,0.24778 0.23863,0.64537 -0.00914,0.88807c-0.24778,0.24272 -0.64537,0.23863 -0.88807,-0.00914c-0.24272,-0.24778 -0.23863,-0.64537 0.00914,-0.88807c0.24778,-0.24272 0.64537,-0.23863 0.88807,0.00914z" fill="#a00000" fill-rule="nonzero" stroke="none" stroke-width="0.5" stroke-linecap="butt" stroke-linejoin="miter"/><path d="M342.89318,188.28386c0.224,-0.21944 0.44573,-0.21746 0.61159,-0.16046c0.01207,-0.00591 0.02428,-0.01144 0.03662,-0.01655c-0.07229,-0.06635 -0.14054,-0.14111 -0.20314,-0.22677c-0.13497,-0.18468 -0.2116,-0.40954 -0.30098,-0.62427c-0.48158,-0.48511 -0.94776,-0.98254 -1.41002,-1.45437l-0.59621,-0.60861c-0.24272,-0.24778 -0.23863,-0.64537 0.00914,-0.88807c0.22517,-0.22058 0.57411,-0.23732 0.81806,-0.05253l0.45588,0.33275c0.29082,-0.21974 0.65341,-0.03377 0.65341,-0.03377c2.09415,1.07413 3.08876,2.40608 4.40336,4.28719l0.41818,0.59837c0.17973,0.2477 0.1558,0.59622 -0.06939,0.81683c-0.06731,0.06593 -0.14566,0.11365 -0.22896,0.14321c0.09885,0.16331 0.20458,0.46646 -0.10055,0.76541c-0.28234,0.27658 -0.561,0.20142 -0.72885,0.1077c-0.00745,0.00159 -0.01501,0.00307 -0.02274,0.00444c-0.0952,0.16134 -0.32067,0.41884 -0.74242,0.2734c-0.5937,-0.20473 -0.38899,-0.79842 -0.38899,-0.79842c0.0694,-0.11966 0.11678,-0.26517 0.16648,-0.40794c-0.14375,0.01213 -0.31065,-0.03077 -0.47629,-0.19984c-0.39973,-0.40805 -0.06472,-0.80856 -0.00085,-0.87764c-0.04963,-0.10442 -0.11266,-0.19197 -0.18579,-0.26767c-0.04686,-0.03377 -0.09349,-0.06797 -0.1399,-0.10263c-0.08678,0.03643 -0.18004,0.0525 -0.27247,0.04822c-0.20563,0.14852 -0.40029,0.31284 -0.57973,0.491l-1.1347,-0.26089c0,0 -0.43947,-0.44861 0.00914,-0.88807zM345.2961,189.59257c-0.01515,-0.09242 -0.03749,-0.17539 -0.0661,-0.25037z" fill="#000000" fill-rule="nonzero" stroke="none" stroke-width="0.5" stroke-linecap="butt" stroke-linejoin="miter"/><path d="M345.16584,189.79802l-0.59395,-0.40485" fill="none" fill-rule="nonzero" stroke="#001026" stroke-width="1.2" stroke-linecap="round" stroke-linejoin="miter"/><path d="M346.05676,190.4053l-2.03153,-1.1673" fill="none" fill-rule="nonzero" stroke="#a00000" stroke-width="1.2" stroke-linecap="round" stroke-linejoin="miter"/><path d="M343.32441,189.52985l2.00171,-0.77688" fill="none" fill-rule="nonzero" stroke="#000000" stroke-width="1.2" stroke-linecap="round" stroke-linejoin="miter"/><path d="M346.06907,189.2092l-0.62576,2.68507" fill="none" fill-rule="nonzero" stroke="#000000" stroke-width="1.2" stroke-linecap="round" stroke-linejoin="miter"/><path d="M342.22457,179.54194c-0.49439,0.38723 -0.88165,-0.10718 -0.88165,-0.10718l-0.43162,-0.55671c0.00719,-0.02804 0.01439,-0.05607 0.02156,-0.0841l-0.05369,0.02616l-0.28653,-0.58811c-0.09298,-0.18002 -0.09292,-0.39528 -0.00057,-0.57504c-0.22904,-0.76667 0.02548,-2.00702 1.21512,-1.97895c1.19664,0.02825 2.20825,2.16317 1.24228,3.05896c-0.17439,0.16173 -0.37286,0.24242 -0.57888,0.26052c0.02234,0.16504 -0.01837,0.36608 -0.24604,0.54441z" fill="#a00000" fill-rule="nonzero" stroke="none" stroke-width="0.5" stroke-linecap="butt" stroke-linejoin="miter"/><path d="M342.05062,177.25988c0.24272,0.24778 0.23863,0.64537 -0.00914,0.88807c-0.24778,0.24272 -0.64537,0.23863 -0.88807,-0.00914c-0.24272,-0.24778 -0.23863,-0.64537 0.00914,-0.88807c0.24778,-0.24272 0.64537,-0.23863 0.88807,0.00914z" fill="#ffffff" fill-rule="nonzero" stroke="none" stroke-width="0.5" stroke-linecap="butt" stroke-linejoin="miter"/><path d="M344.52666,188.9441l1.73355,1.06453l-0.46034,1.14166" fill="none" fill-rule="nonzero" stroke="#000000" stroke-width="1.2" stroke-linecap="round" stroke-linejoin="miter"/><path d="M346.26543,175.40926c0.24778,-0.24272 0.64537,-0.23863 0.88807,0.00914c0.02767,0.02824 0.05211,0.05843 0.07335,0.09009c0.0031,-0.15873 0.06604,-0.3164 0.18841,-0.43632c0.24778,-0.24272 0.64537,-0.23863 0.88807,0.00914c0.08104,0.08271 0.13458,0.18213 0.16068,0.28694c0.23783,-0.12045 0.53581,-0.07956 0.73228,0.121c0.03813,0.03892 0.07017,0.08156 0.09613,0.12667c0.24637,-0.16593 0.58358,-0.13788 0.79889,0.08191c0.24272,0.24778 0.23863,0.64537 -0.00914,0.88807c-0.01926,0.01886 -0.03942,0.03623 -0.06036,0.05211c0.20203,0.24882 0.18497,0.61514 -0.04856,0.84392c-0.24778,0.24272 -0.64537,0.23863 -0.88807,-0.00914c-0.01886,-0.01926 -0.03623,-0.03943 -0.05214,-0.06035c-0.24882,0.20203 -0.61514,0.18497 -0.84392,-0.04856c-0.04218,-0.04304 -0.07688,-0.09064 -0.10419,-0.14114c-0.23913,0.1256 -0.54174,0.08611 -0.74048,-0.11678c-0.05895,-0.06018 -0.10334,-0.12915 -0.13321,-0.20264c-0.2421,0.13887 -0.55639,0.10306 -0.76081,-0.10563c-0.04804,-0.04905 -0.0864,-0.10396 -0.11515,-0.16238c-0.22777,0.08976 -0.49706,0.04103 -0.67919,-0.14485c-0.24272,-0.24778 -0.23863,-0.64537 0.00914,-0.88807c0.15678,-0.15356 0.37353,-0.20833 0.57311,-0.16508c0.00866,-0.00959 0.01765,-0.01894 0.027,-0.02811zM347.40617,175.96024c-0.02767,-0.02824 -0.05211,-0.05843 -0.07335,-0.09009c-0.00021,0.01084 -0.0007,0.02167 -0.00148,0.03245c0.00554,0.00528 0.01102,0.01067 0.0164,0.01616c0.05895,0.06018 0.10334,0.12915 0.13321,0.20264c0.02828,-0.01624 0.05755,-0.03006 0.08752,-0.04153c-0.05871,-0.03007 -0.11363,-0.06995 -0.16233,-0.11966zM348.16341,176.15917c-0.01006,-0.0255 -0.01834,-0.05154 -0.02494,-0.07789c-0.0193,0.00978 -0.03901,0.0185 -0.05903,0.02616c0.029,0.01488 0.05707,0.03209 0.08394,0.05176zM349.15477,176.5326c-0.02135,-0.0263 -0.04026,-0.05389 -0.05672,-0.08252c-0.00941,0.00633 -0.01896,0.01239 -0.02861,0.01817c0.00574,0.00546 0.01141,0.01101 0.017,0.0167c0.01886,0.01926 0.03623,0.03942 0.05211,0.06036c0.00535,-0.00435 0.01076,-0.00859 0.01619,-0.01271z" fill="#e93e3e" fill-rule="nonzero" stroke="none" stroke-width="0.5" stroke-linecap="butt" stroke-linejoin="miter"/><path d="M339.99917,169.21406c0.24778,-0.24272 0.64537,-0.23863 0.88807,0.00914c0.06423,0.06556 0.11118,0.14161 0.14091,0.22253c0.12978,0.01981 0.25446,0.0803 0.35338,0.18132c0.10138,0.10347 0.15967,0.23307 0.17518,0.36662c0.169,-0.00493 0.33946,0.05799 0.46707,0.18825c0.11969,0.12216 0.17933,0.28072 0.17938,0.43919c0.21188,-0.05682 0.4474,-0.00081 0.61185,0.16706c0.12927,0.13198 0.18856,0.30647 0.17823,0.47743c0.19844,-0.03645 0.41084,0.02319 0.56266,0.17816c0.1919,0.19588 0.22952,0.48541 0.11443,0.71802c0.1374,0.01617 0.27038,0.07768 0.37472,0.18419c0.12912,0.13181 0.18839,0.30602 0.17828,0.47675c0.23441,-0.10857 0.52154,-0.06455 0.71263,0.13054c0.10138,0.10347 0.15967,0.23307 0.17518,0.36662c0.16899,-0.00492 0.33946,0.05799 0.46707,0.18825c0.05193,0.05299 0.09254,0.11286 0.1219,0.17657c0.0631,0.03067 0.12212,0.0725 0.17404,0.12551c0.04003,0.04086 0.07333,0.08578 0.09994,0.13341c0.10872,0.02718 0.2115,0.08378 0.29567,0.16973c0.14206,0.14503 0.19959,0.34138 0.17315,0.52799c0.11694,0.02474 0.22809,0.08308 0.31804,0.17488c0.24272,0.24778 0.23863,0.64537 -0.00914,0.88807c-0.24778,0.24272 -0.64537,0.23863 -0.88807,-0.00914c-0.14206,-0.14503 -0.19959,-0.34138 -0.17315,-0.52799c-0.11694,-0.02474 -0.22809,-0.08308 -0.31804,-0.17488c-0.04003,-0.04086 -0.07333,-0.08578 -0.09994,-0.13341c-0.10872,-0.02719 -0.2115,-0.08378 -0.29567,-0.16973c-0.05193,-0.05299 -0.09256,-0.11285 -0.12191,-0.17658c-0.0631,-0.03067 -0.12211,-0.07252 -0.17404,-0.12554c-0.10138,-0.10347 -0.15967,-0.23307 -0.17518,-0.36662c-0.16899,0.00491 -0.33943,-0.05799 -0.46705,-0.18824c-0.12912,-0.13181 -0.18839,-0.30602 -0.17828,-0.47675c-0.23441,0.10856 -0.52154,0.06455 -0.71263,-0.13054c-0.19188,-0.19588 -0.22952,-0.48541 -0.11443,-0.71802c-0.1374,-0.01617 -0.27038,-0.07768 -0.37472,-0.18419c-0.12927,-0.13198 -0.18856,-0.30647 -0.17823,-0.47743c-0.19844,0.03645 -0.41084,-0.02319 -0.56266,-0.17816c-0.11969,-0.12216 -0.17932,-0.28073 -0.17938,-0.43919c-0.21186,0.05682 -0.4474,0.00081 -0.61185,-0.16706c-0.10138,-0.10347 -0.15967,-0.23307 -0.17518,-0.36662c-0.16899,0.00491 -0.33946,-0.05799 -0.46707,-0.18825c-0.06423,-0.06556 -0.11118,-0.14161 -0.14091,-0.22253c-0.12978,-0.01981 -0.25446,-0.0803 -0.35338,-0.18132c-0.24272,-0.24778 -0.23863,-0.64537 0.00914,-0.88807z" fill="#e93e3e" fill-rule="nonzero" stroke="none" stroke-width="0.5" stroke-linecap="butt" stroke-linejoin="miter"/><path d="M349.77185,177.68826c0.24272,0.24778 0.23863,0.64537 -0.00914,0.88807c-0.23352,0.22879 -0.60013,0.23829 -0.84473,0.03118c-0.01633,0.0206 -0.03409,0.04041 -0.05334,0.05927c-0.24778,0.24272 -0.64537,0.23863 -0.88807,-0.00914c-0.09393,-0.09591 -0.15091,-0.21426 -0.17108,-0.33738c-0.01082,0.0124 -0.02221,0.02449 -0.03419,0.03622c-0.24778,0.24272 -0.64537,0.23863 -0.88807,-0.00914c-0.0873,-0.08911 -0.14267,-0.19762 -0.16626,-0.31131c-0.22719,0.08827 -0.49502,0.03918 -0.67636,-0.14595c-0.06425,-0.06558 -0.11118,-0.14164 -0.1409,-0.22259c-0.23254,0.10281 -0.51433,0.05734 -0.70274,-0.135c-0.24272,-0.24778 -0.23863,-0.64537 0.00914,-0.88807c0.24778,-0.24272 0.64537,-0.23863 0.88807,0.00914c0.06425,0.06558 0.11118,0.14164 0.1409,0.22259c0.23254,-0.10281 0.51433,-0.05734 0.70274,0.135c0.08729,0.08911 0.14266,0.19761 0.16626,0.31131c0.22719,-0.08827 0.49502,-0.03916 0.67636,0.14595c0.09393,0.09591 0.15091,0.21426 0.17108,0.33738c0.01082,-0.0124 0.02221,-0.02449 0.03419,-0.03622c0.23352,-0.22879 0.60014,-0.23826 0.84474,-0.03117c0.01633,-0.02061 0.0341,-0.04041 0.05336,-0.05927c0.24778,-0.24272 0.64537,-0.23863 0.88807,0.00914z" fill="#e93e3e" fill-rule="nonzero" stroke="none" stroke-width="0.5" stroke-linecap="butt" stroke-linejoin="miter"/><path d="M338.50605,167.5104c0.04855,0.04953 0.04772,0.12906 -0.00182,0.17762c-0.04953,0.04855 -0.12906,0.04772 -0.17762,-0.00182c-0.04855,-0.04953 -0.04772,-0.12906 0.00182,-0.17762c0.04953,-0.04855 0.12906,-0.04772 0.17762,0.00182z" fill="#a00000" fill-rule="nonzero" stroke="none" stroke-width="0.5" stroke-linecap="butt" stroke-linejoin="miter"/><path d="M337.27123,169.75438c-0.02589,0.1229 -0.14879,0.097 -0.14879,0.097l-0.00576,-0.00121c-0.16386,-0.03453 -0.32773,-0.06906 -0.49159,-0.10358c0,0 -0.1229,-0.02589 -0.097,-0.14879c0.02589,-0.1229 0.14879,-0.097 0.14879,-0.097c0.16387,0.03454 0.33347,0.07027 0.49736,0.1048c0,0 0.1229,0.02589 0.097,0.14879z" fill="#a00000" fill-rule="nonzero" stroke="none" stroke-width="0.5" stroke-linecap="butt" stroke-linejoin="miter"/><path d="M336.6483,168.21077c0.08493,-0.0832 0.19922,-0.11807 0.30873,-0.10495c-0.04018,-0.10238 -0.05054,-0.24667 0.0951,-0.38931c0.26919,-0.26369 0.53285,0.00548 0.53285,0.00548l0.05165,0.06004c0.03471,0.02572 0.06927,0.05013 0.10375,0.07349c0.03943,-0.02015 0.08165,-0.0329 0.12463,-0.03824c-0.02366,-0.03011 -0.04583,-0.08129 -0.0025,-0.14488c0.01412,-0.02071 0.02953,-0.03447 0.04522,-0.04322c0.00556,-0.00831 0.01247,-0.01671 0.02103,-0.02505c0.08973,-0.0879 0.17762,0.00182 0.17762,0.00182l0.04933,0.05035c0.04214,0.04632 0.07866,0.0999 0.10768,0.15752c0.06295,0.05154 0.1286,0.10624 0.19504,0.15959c0.00492,-0.00478 0.00989,-0.00971 0.01494,-0.01481l0.18887,-0.03484c0,0 0.01987,0.00021 0.04373,0.00834c0.00484,-0.00738 0.01056,-0.01434 0.01713,-0.02078c0.04953,-0.04855 0.12906,-0.04772 0.17762,0.00182c0.02376,0.02427 0.03569,0.05572 0.03587,0.0872c0.00397,-0.00282 0.00806,-0.00541 0.01228,-0.00771c0.00988,-0.02057 0.02635,-0.04152 0.05383,-0.05383c0.00531,-0.00873 0.01178,-0.01693 0.01943,-0.02442c0.04953,-0.04855 0.12906,-0.04772 0.17762,0.00182c0.03711,0.03788 0.04537,0.09325 0.02508,0.13892c0.00123,0.00298 0.00237,0.00599 0.00338,0.00902c0.01463,0.04411 0.00411,0.09464 -0.03131,0.12936c-0.00236,0.00232 -0.00478,0.00452 -0.00727,0.00659c0.00384,0.05738 0.0097,0.1141 0.01571,0.1708c0.06305,0.02174 0.12612,0.04349 0.1892,0.06524c0,0 0.11875,0.04094 0.07779,0.15968c-0.02711,0.07857 -0.08826,0.08721 -0.12655,0.08409c-0.00812,0.02188 -0.01687,0.0431 -0.02621,0.06367c0.04346,0.04435 0.08695,0.08874 0.13037,0.13308l0.06131,-0.06006c0,0 0.03661,-0.03587 0.08599,-0.0384c-0.02054,-0.03045 -0.04987,-0.09567 0.01574,-0.15995c0.08973,-0.0879 0.17762,0.00182 0.17762,0.00182l0.04933,0.05035c0.04933,0.05035 0.09863,0.10068 0.14798,0.15105c0,0 0.0879,0.08973 -0.00182,0.17762c-0.08973,0.0879 -0.17762,-0.00182 -0.17762,-0.00182c-0.02084,-0.02129 -0.05052,-0.05155 -0.08154,-0.08323c-0.00482,0.04764 -0.03988,0.08197 -0.03988,0.08197l-0.04506,0.04413l0.02453,0.05607c-0.00012,0.00036 -0.00026,0.00076 -0.00039,0.00111c0.03944,0.04026 0.07885,0.08051 0.11832,0.12078c0,0 0.0879,0.08973 -0.00182,0.17762c-0.08973,0.0879 -0.17762,-0.00182 -0.17762,-0.00182c-0.02176,-0.02222 -0.04405,-0.04496 -0.06674,-0.06812c-0.02195,0.00765 -0.04928,0.0088 -0.08281,-0.00274c-0.05211,-0.01796 -0.07347,-0.05091 -0.08102,-0.08223c-0.04569,0.07869 -0.09967,0.12706 -0.1551,0.15526c0.01538,0.11388 -0.02131,0.23334 -0.10972,0.31992c-0.14867,0.14564 -0.38723,0.14318 -0.53285,-0.00548c-0.07306,-0.0746 -0.10885,-0.17181 -0.1076,-0.26859c-0.00379,-0.00307 -0.00746,-0.00638 -0.01097,-0.00996c-0.04855,-0.04953 -0.04772,-0.12906 0.00182,-0.17762c0.01347,-0.0132 0.02916,-0.02274 0.04585,-0.02866c-0.13038,-0.0228 -0.22197,-0.11631 -0.22197,-0.11631c-0.11354,-0.12117 -0.23771,-0.21289 -0.36774,-0.29335c0.00615,0.01358 0.01521,0.02527 0.02788,0.03425c0,0 0.0598,0.06105 0.03039,0.13176c0.02242,0.02287 0.04481,0.04574 0.06723,0.06862l0.01124,-0.03667c0,0 0.12561,0.0013 0.1243,0.12689c-0.0013,0.12561 -0.12689,0.1243 -0.12689,0.1243l-0.18811,-0.03872c-0.08221,-0.08393 -0.16441,-0.16785 -0.24663,-0.25173c0,0 -0.0879,-0.08973 0.00182,-0.17762c0.01896,-0.01858 0.03786,-0.02922 0.05583,-0.03445c-0.0017,-0.02839 -0.00172,-0.057 -0.00041,-0.08533c-0.12696,-0.06887 -0.25654,-0.13758 -0.38477,-0.22108c0.00659,0.10546 -0.03097,0.2131 -0.11238,0.29284c-0.14867,0.14564 -0.38723,0.14318 -0.53285,-0.00548c-0.14564,-0.14867 -0.14318,-0.38723 0.00548,-0.53285zM338.91955,168.19072c-0.02376,-0.02427 -0.03569,-0.05572 -0.03587,-0.0872c-0.01533,0.01091 -0.03257,0.01797 -0.05032,0.02118c-0.00126,0.0063 -0.00303,0.01251 -0.00526,0.01857l-0.02547,0.07386c0.04968,0.02775 0.09781,0.04998 0.14349,0.06452c-0.00235,-0.02463 -0.00453,-0.04937 -0.00638,-0.07419c-0.00717,-0.00478 -0.01393,-0.01034 -0.02022,-0.01676z" fill="#a00000" fill-rule="nonzero" stroke="none" stroke-width="0.5" stroke-linecap="butt" stroke-linejoin="miter"/><path d="M335.70394,167.95187l0.01493,-0.00933c0.10104,-0.13187 0.20207,-0.26377 0.30313,-0.39564c0,0 0.02053,-0.0268 0.05733,-0.05822c0.0088,-0.01076 0.01827,-0.02115 0.02846,-0.03113c0.14867,-0.14564 0.38723,-0.14318 0.53285,0.00548c0.14564,0.14867 0.14318,0.38723 -0.00548,0.53285c-0.00805,0.00787 -0.01636,0.01535 -0.02492,0.02237c-0.09772,0.12753 -0.19541,0.25505 -0.29315,0.3826l-0.08576,0.08932c0,0 -0.26919,0.26369 -0.53285,-0.00548c-0.26369,-0.26919 0.00548,-0.53285 0.00548,-0.53285z" fill="#a00000" fill-rule="nonzero" stroke="none" stroke-width="0.5" stroke-linecap="butt" stroke-linejoin="miter"/><path d="M332.69636,161.83062c0.50601,0.77597 0.16336,2.74746 1.01962,3.35094c0.11345,-0.01525 0.27561,0.00619 0.3749,0.20998c0.1094,0.22454 -0.00257,0.37275 -0.09049,0.44717c-0.0792,0.11168 -0.18054,0.14452 -0.26891,0.14646l-0.03485,0.01687c-1.73921,0.72338 -3.39592,1.63076 -5.18459,2.2003c-0.45905,0.14618 -1.63569,1.05501 -1.97998,0.12184c-0.13671,-0.37051 1.23112,-1.47363 1.45993,-1.69777c0.78872,-0.77265 1.57098,-1.55254 2.36647,-2.31824c0.12574,-0.12105 0.56334,-0.58527 0.51639,-0.80216c-0.02289,-0.10568 -0.82036,-0.38345 -0.93395,-0.43351c-1.0385,-0.45779 -1.67845,-1.42015 -2.72209,-1.8722c-0.70971,-0.31822 -2.21291,-1.86148 -0.49844,-2.02302c0.41024,-0.03865 1.22952,0.47023 1.69033,0.51591c1.78845,0.17732 3.04568,0.40533 4.66044,1.23286c0,0 0.33527,0.17197 0.1633,0.50722c-0.17197,0.33527 -0.50722,0.1633 -0.50722,0.1633c-0.03491,-0.0179 -0.06962,-0.03564 -0.10415,-0.05312c0.07293,0.08712 0.09248,0.19034 0.09248,0.19034z" fill="#ffffff" fill-rule="nonzero" stroke="none" stroke-width="0.5" stroke-linecap="butt" stroke-linejoin="miter"/><path d="M325.78711,160.1711c-0.00145,-0.00993 -0.00278,-0.01986 -0.00395,-0.02976l0.16964,-0.00256c0.00409,-0.00426 0.0083,-0.00854 0.01264,-0.01278c0.0598,-0.05854 0.11927,-0.09085 0.17568,-0.10563c-0.08956,-0.07979 -0.17912,-0.1657 -0.27161,-0.25964c0,0 -0.26369,-0.26919 0.00548,-0.53285c0.26919,-0.26369 0.53285,0.00548 0.53285,0.00548c0.01741,0.01788 0.03463,0.03537 0.05167,0.05246l0.47398,0.21746c0.04978,0.00773 0.10199,0.02528 0.15597,0.05179c-0.01481,-0.08549 -0.03009,-0.18009 -0.04683,-0.28536l0.83461,0.25675c0.0451,0.09732 0.0902,0.19461 0.13531,0.29192c0.27355,-0.04805 0.51287,-0.01213 0.67176,0.22817c0.17963,0.27169 0.11719,0.6408 0.17576,0.96122l-0.35822,-0.10183c0.0227,0.09622 0.04536,0.19242 0.06806,0.2886l-0.39544,-0.1062c0.03145,0.06828 0.06087,0.13705 0.08822,0.20594l-0.84354,-0.06725c-0.10597,-0.08869 -0.19445,-0.20074 -0.26411,-0.3246c-0.27599,0.03607 -0.55879,0.03271 -0.82941,-0.01576l-0.02183,0.09551c-0.07071,-0.03715 -0.13545,-0.08645 -0.19348,-0.14449c-0.08385,-0.02336 -0.16591,-0.05142 -0.24562,-0.0844l-0.07754,-0.58219z" fill="#a00000" fill-rule="nonzero" stroke="none" stroke-width="0.5" stroke-linecap="butt" stroke-linejoin="miter"/><path d="M327.74222,166.67368c0.26919,-0.26369 0.53285,0.00548 0.53285,0.00548l0.03847,0.04206c0.1105,-0.01164 0.22506,0.02551 0.30886,0.11104c0.05795,0.05915 0.09246,0.13257 0.10361,0.20867l0.59282,0.32712c0.03424,0.01788 0.0663,0.04135 0.0948,0.07046c0.14564,0.14867 0.14318,0.38723 -0.00548,0.53285c-0.11553,0.1132 -0.28537,0.13692 -0.42371,0.07208l-0.21093,-0.09296l0.03555,0.1144c-0.1491,-0.01455 -0.28421,-0.03399 -0.40477,-0.05779c-0.01819,0.05589 -0.04974,0.10834 -0.09463,0.15235c-0.11553,0.1132 -0.28537,0.13692 -0.42371,0.07208l-0.16468,-0.0726c0.00645,0.10531 -0.03112,0.21274 -0.11241,0.29235c-0.03456,0.03384 -0.074,0.05971 -0.11596,0.07757c-0.07254,0.11443 -0.16333,0.17371 -0.26553,0.09738c-0.00612,0.00696 -0.01253,0.01371 -0.01924,0.02029c-0.14867,0.14564 -0.38723,0.14318 -0.53285,-0.00548c-0.01647,-0.01683 -0.03107,-0.03478 -0.04376,-0.05367l-0.16998,-0.24325l-0.06308,0.01031c0.00573,-0.0257 0.01157,-0.05084 0.01754,-0.07544l-0.02245,-0.03214c-0.10781,-0.14862 -0.09347,-0.35773 0.04162,-0.49009c0.06005,-0.05882 0.13472,-0.09347 0.21203,-0.10411c0.12081,-0.20516 0.2546,-0.28859 0.38342,-0.2661c0.17386,-0.16236 0.43518,-0.17208 0.6783,-0.21353c-0.05986,-0.08006 -0.17894,-0.29141 0.03332,-0.49935z" fill="#a00000" fill-rule="nonzero" stroke="none" stroke-width="0.5" stroke-linecap="butt" stroke-linejoin="miter"/><path d="M328.9819,156.11975c0.14564,0.14867 0.14318,0.38723 -0.00548,0.53285c-0.14867,0.14564 -0.38723,0.14318 -0.53285,-0.00548c-0.14564,-0.14867 -0.14318,-0.38723 0.00548,-0.53285c0.14867,-0.14564 0.38723,-0.14318 0.53285,0.00548z" fill="#a00000" fill-rule="nonzero" stroke="none" stroke-width="0.5" stroke-linecap="butt" stroke-linejoin="miter"/><path d="M330.39962,153.13066l-0.09044,0.25367c-0.0945,0.43589 -0.25588,0.8569 -0.43476,1.26548c0,0 -0.15199,0.3448 -0.49676,0.19281c-0.3448,-0.15199 -0.19281,-0.49676 -0.19281,-0.49676c0.16017,-0.3606 0.30665,-0.73228 0.38727,-1.11853l0.11506,-0.34231c0,0 0.12284,-0.35621 0.47906,-0.23338c0.35621,0.12284 0.23338,0.47906 0.23338,0.47906z" fill="#a00000" fill-rule="nonzero" stroke="none" stroke-width="0.5" stroke-linecap="butt" stroke-linejoin="miter"/><path d="M330.81813,152.05154c0.14564,0.14867 0.14318,0.38723 -0.00548,0.53285c-0.14867,0.14564 -0.38723,0.14318 -0.53285,-0.00548c-0.14564,-0.14867 -0.14318,-0.38723 0.00548,-0.53285c0.14867,-0.14564 0.38723,-0.14318 0.53285,0.00548z" fill="#a00000" fill-rule="nonzero" stroke="none" stroke-width="0.5" stroke-linecap="butt" stroke-linejoin="miter"/><path d="M331.82615,150.96537c0.14564,0.14867 0.14318,0.38723 -0.00548,0.53285c-0.14867,0.14564 -0.38723,0.14318 -0.53285,-0.00548c-0.14564,-0.14867 -0.14318,-0.38723 0.00548,-0.53285c0.14867,-0.14564 0.38723,-0.14318 0.53285,0.00548z" fill="#a00000" fill-rule="nonzero" stroke="none" stroke-width="0.5" stroke-linecap="butt" stroke-linejoin="miter"/><path d="M328.81751,157.56352c0.14564,0.14867 0.14318,0.38723 -0.00548,0.53285c-0.14867,0.14564 -0.38723,0.14318 -0.53285,-0.00548c-0.14564,-0.14867 -0.14318,-0.38723 0.00548,-0.53285c0.14867,-0.14564 0.38723,-0.14318 0.53285,0.00548z" fill="#a00000" fill-rule="nonzero" stroke="none" stroke-width="0.5" stroke-linecap="butt" stroke-linejoin="miter"/><path d="M327.34612,164.92512c0.14564,0.14867 0.14318,0.38723 -0.00548,0.53285c-0.14867,0.14564 -0.38723,0.14318 -0.53285,-0.00548c-0.14564,-0.14867 -0.14318,-0.38723 0.00548,-0.53285c0.14867,-0.14564 0.38723,-0.14318 0.53285,0.00548z" fill="#a00000" fill-rule="nonzero" stroke="none" stroke-width="0.5" stroke-linecap="butt" stroke-linejoin="miter"/><path d="M327.26186,163.42895c0.14564,0.14867 0.14318,0.38723 -0.00548,0.53285c-0.14867,0.14564 -0.38723,0.14318 -0.53285,-0.00548c-0.14564,-0.14867 -0.14318,-0.38723 0.00548,-0.53285c0.14867,-0.14564 0.38723,-0.14318 0.53285,0.00548z" fill="#a00000" fill-rule="nonzero" stroke="none" stroke-width="0.5" stroke-linecap="butt" stroke-linejoin="miter"/><path d="M327.47658,161.93586c0.14564,0.14867 0.14318,0.38723 -0.00548,0.53285c-0.14867,0.14564 -0.38723,0.14318 -0.53285,-0.00548c-0.14564,-0.14867 -0.14318,-0.38723 0.00548,-0.53285c0.14867,-0.14564 0.38723,-0.14318 0.53285,0.00548z" fill="#a00000" fill-rule="nonzero" stroke="none" stroke-width="0.5" stroke-linecap="butt" stroke-linejoin="miter"/><path d="M320.4767,194.97025c-0.24852,0.24347 -0.57244,0.36275 -0.89482,0.35869c-0.10248,0.25609 -0.31667,0.50482 -0.73438,0.66056c-0.66626,0.24841 -1.09595,-0.021 -1.34341,-0.30153c-0.4453,0.2406 -1.00434,0.19216 -1.40308,-0.14254l-1.05335,-0.86061l0.11779,-0.14418l-0.40271,-0.18659c-0.50393,-2.32632 -1.13123,-6.87012 2.96382,-4.40628c0.1409,0.08476 0.26696,0.17724 0.3801,0.27639c0.33047,-0.00367 0.66182,0.12228 0.91138,0.37699c0.44706,0.45636 0.47545,1.16693 0.09006,1.65557c0.04171,0.20403 0.07801,0.41078 0.11444,0.61736c0.43598,-0.13607 0.93089,-0.02867 1.27247,0.31998c0.48542,0.49553 0.47725,1.29074 -0.01828,1.77619z" fill="#ffffff" fill-rule="nonzero" stroke="none" stroke-width="0.5" stroke-linecap="butt" stroke-linejoin="miter"/><path d="M319.04013,188.45333c0.45694,0.46644 0.4765,1.19842 0.06395,1.68759c0.12534,0.06124 0.24254,0.14456 0.34574,0.24989c0.36887,0.37655 0.45273,0.92613 0.25429,1.38132c0.14428,0.22361 0.21028,0.48276 0.19835,0.73879c0.25828,0.04016 0.50627,0.16101 0.70325,0.36208c0.48542,0.49553 0.47725,1.29074 -0.01828,1.77619c-0.49553,0.48542 -1.29074,0.47725 -1.77619,-0.01828c-0.25425,-0.25955 -0.37309,-0.6013 -0.35742,-0.93771c-0.25828,-0.04016 -0.50627,-0.16101 -0.70325,-0.36208c-0.36887,-0.37655 -0.45273,-0.92613 -0.25429,-1.38132c-0.29544,-0.45785 -0.26259,-1.06453 0.09511,-1.48869c-0.12534,-0.06124 -0.24254,-0.14456 -0.34574,-0.24989c-0.48542,-0.49553 -0.47725,-1.29074 0.01828,-1.77619c0.49553,-0.48542 1.29074,-0.47725 1.77619,0.01828z" fill="#a00000" fill-rule="nonzero" stroke="none" stroke-width="0.5" stroke-linecap="butt" stroke-linejoin="miter"/></g></g></g></svg>