<svg version="1.1" xmlns="http://www.w3.org/2000/svg" xmlns:xlink="http://www.w3.org/1999/xlink" width="980.48048" height="630.63063" viewBox="0,0,980.48048,630.63063"><g transform="translate(145.24024,130.31528)"><g data-paper-data="{&quot;isPaintingLayer&quot;:true}" stroke-miterlimit="10" stroke-dasharray="" stroke-dashoffset="0" style="mix-blend-mode: normal"><path d="M-145.24024,500.31535v-630.63063h980.48048v630.63063z" fill="#000000" fill-rule="nonzero" stroke="#ff3838" stroke-width="0" stroke-linecap="butt" stroke-linejoin="miter"/><text transform="translate(304.71471,259.28905) scale(0.5,0.5)" font-size="40" xml:space="preserve" fill="#ffffff" fill-rule="nonzero" stroke="none" stroke-width="1" stroke-linecap="butt" stroke-linejoin="miter" stroke-miterlimit="10" stroke-dasharray="" stroke-dashoffset="0" font-family="Marker" font-weight="normal" text-anchor="start" style="mix-blend-mode: normal"><tspan x="0" dy="0">Loading</tspan></text><g><path d="M331.40811,187.05585c0.30608,0.41698 -1.1772,3.89677 -0.66335,5.55346c0.40083,1.16459 0.9828,2.55949 2.23095,3.61668c2.78972,2.43169 1.79331,2.56633 0.98677,4.59297c-0.80026,2.0765 -2.19482,3.05523 -4.9593,-2.77269c-0.96313,-2.00486 -1.20322,-3.89885 -1.34927,-5.45025c-0.05053,-0.39872 -0.13761,-3.88201 1.4054,-5.29302c1.54298,-1.41103 2.09895,-0.62059 2.34887,-0.24712z" fill="#000000" fill-rule="evenodd" stroke="#001026" stroke-width="1.2" stroke-linecap="round" stroke-linejoin="round"/><path d="M325.53604,184.77736c0.4907,-0.92313 1.8722,-2.00983 3.42011,-0.58547c1.82869,1.64197 0.27521,4.16841 -0.34607,5.26002c-0.62126,1.09162 -1.00664,1.64689 -1.83147,3.92905c-0.34117,0.90417 -0.60089,2.05122 -0.72443,2.67462c-0.01825,0.25549 0.01333,0.50473 0.14463,0.7413c0.25622,0.42329 0.9591,-4.57108 0.38138,-3.53566c-0.71899,1.05979 0.372,1.53181 -1.26924,0.41733c-0.18856,-0.12802 0.29147,0.27627 0.07819,0.16293c-2.00661,-1.06625 -1.34203,0.64427 -1.08979,-0.70901c0.49981,-2.84867 -1.05133,-3.29048 0.25229,-2.59483c0.21202,0.07438 0.93155,-0.1181 0.95611,-0.32377l-2.26788,1.06641c0.10869,-0.59613 -0.49659,0.75677 -0.35052,0.19663c0.16213,-0.62176 0.8394,-2.13994 1.02858,-2.70403c0.81129,-2.41911 1.28254,-3.32139 1.61816,-3.99553z" fill="#000000" fill-rule="evenodd" stroke="#001026" stroke-width="1.2" stroke-linecap="round" stroke-linejoin="round"/><path d="M335.2012,175.99077c0.85503,0.75255 0.72097,2.49137 -0.66826,2.71812c-1.29587,0.16425 -2.77427,-0.7118 -3.64754,-1.20881c-0.87328,-0.497 -4.16775,-2.91534 -3.05863,-6.55027c0.5644,-1.54019 2.92589,-5.2832 4.79808,-3.69741c1.87222,1.58577 0.03722,3.4896 -0.85777,4.81848c-0.77078,1.11055 3.20319,3.69597 3.43418,3.91991z" fill="#000000" fill-rule="evenodd" stroke="#001026" stroke-width="1.2" stroke-linecap="round" stroke-linejoin="round"/><g fill-rule="evenodd"><path d="M327.7096,180.81216c0.37277,-0.65496 1.04456,-1.34784 2.0898,-2.2906c0.86487,-0.76797 2.62053,-1.69953 2.62053,-1.69953c1.18916,-0.60651 3.54365,-1.20884 3.7023,0.44224c0.08918,1.10283 0.36506,2.0807 0.82907,3.74373c0.9772,2.91467 1.44542,3.41237 -0.44013,4.91747c-2.22177,1.64899 -3.53029,5.30918 -8.20416,1.59705c0,0 -2.20356,-2.20217 -5.46712,-4.77632c-2.19653,-1.74726 -5.38571,-4.53345 -6.47167,-5.50988c-0.23096,-0.22395 -0.36856,-0.51034 -0.4563,-0.80307c-1.06143,-4.77775 -1.01792,-8.42953 1.12525,-8.7012c3.58858,-0.45491 3.24604,6.83037 3.24604,6.83037c0,0 2.23447,2.0463 3.31412,2.97292z" fill="#000000" stroke="#001026" stroke-width="1.2" stroke-linecap="round" stroke-linejoin="round"/><path d="M330.77099,178.19586c0,0 1.126,-1.10494 2.74339,0.86765c1.72972,2.05962 0.24221,3.10912 -0.84026,4.1579c-1.41874,1.19268 -2.2927,0.29064 -3.31622,-0.59245c-0.84869,-0.7027 -1.54159,-1.37447 -1.54159,-1.37447c0,0 0.85079,-1.67776 2.95465,-3.05859z" fill="#a00000" stroke="none" stroke-width="1" stroke-linecap="butt" stroke-linejoin="miter"/></g><g fill-rule="evenodd"><path d="M361.00081,172.97348c0.34469,1.12107 0.59602,2.30463 0.67325,3.71282c0.19728,2.35519 -0.3657,4.70546 -0.3657,4.70546l4.70195,5.53166c0.12495,0.18671 0.00701,0.4549 -0.19865,0.43033l-9.05429,0.08429c0.3608,-0.34958 -5.70997,6.09194 -11.84051,3.27346c-6.13052,-2.81846 -9.62646,-10.02229 -8.97017,-19.62625c0.65631,-9.60395 5.76118,-12.47935 8.67797,-12.24139c2.91678,0.23794 4.41203,3.64403 4.41203,3.64403c0,0 2.24918,-0.23448 5.19263,1.01293c1.7648,0.73848 4.51172,3.63138 4.51172,3.63138l5.49732,0.61983c0.20568,0.02458 0.28712,0.26746 0.20637,0.42964z" fill="#000000" stroke="#001026" stroke-width="1.2" stroke-linecap="butt" stroke-linejoin="miter"/><path d="M348.85627,162.66267c1.48403,4.11644 -1.60541,4.91326 -1.39973,8.53341c0.23167,4.22459 5.49384,9.38139 0.58411,13.3968c-4.85988,4.00912 -12.76365,-0.81282 -11.80055,-13.19037c0.61911,-9.49796 5.44948,-12.5411 8.36628,-12.30316c2.91677,0.23793 4.24986,3.56329 4.24986,3.56329z" fill="#000000" stroke="none" stroke-width="1" stroke-linecap="butt" stroke-linejoin="miter"/><path d="M345.51349,179.03877c-2.42328,0.45913 -5.66999,0.4149 -6.74335,-4.05746c-0.96243,-5.19541 2.53556,-7.56326 3.82441,-8.18245c0.23656,-0.13126 0.51108,0.03652 0.4928,0.29203c-0.05474,0.76658 -0.00209,2.38045 0.4886,5.05293c0.5785,2.96518 1.71711,5.55556 2.18605,6.45832c0.07513,0.19304 -0.04914,0.41135 -0.2485,0.43661z" fill="#000000" stroke="#001026" stroke-width="1.2" stroke-linecap="round" stroke-linejoin="round"/><path d="M345.95349,159.73891c0,0 -0.40508,-3.59489 1.19196,-6.17753" fill="none" stroke="#001026" stroke-width="1.2" stroke-linecap="round" stroke-linejoin="round"/><path d="M342.9876,159.91231c0,0 -1.19339,-1.82376 -1.34225,-4.99537" fill="none" stroke="#001026" stroke-width="1.2" stroke-linecap="round" stroke-linejoin="round"/><path d="M348.42038,173.60602c-0.79747,0.10109 -2.30885,-1.8343 -2.3229,-2.74407c-0.05124,-0.8038 1.24953,-1.7283 1.95363,-1.76694c0.35521,0.00561 0.59389,1.08949 0.72659,2.13619c0.12635,0.99683 0.24712,2.34886 -0.3573,2.37483z" fill="#001026" stroke="#000000" stroke-width="1.2" stroke-linecap="round" stroke-linejoin="round"/><path d="M348.66334,187.907c1.76622,1.54859 3.70514,5.65803 3.70514,5.65803" fill="none" stroke="#001026" stroke-width="1.2" stroke-linecap="round" stroke-linejoin="round"/><path d="M347.34015,193.848c0,0 -1.0158,-3.61876 -0.44018,-5.86935" fill="none" stroke="#001026" stroke-width="1.2" stroke-linecap="round" stroke-linejoin="round"/><g fill="#a00000"><path d="M356.91306,169.49092c-0.72025,1.50931 -3.26848,1.78167 -5.69454,0.62058c-2.4324,-1.21093 -3.76972,-3.37093 -3.0495,-4.88022c0.72025,-1.50931 3.26848,-1.78167 5.69454,-0.62058c2.42612,1.16111 3.81957,3.36464 3.0495,4.88022z" stroke="#001026" stroke-width="1.2" stroke-linecap="round" stroke-linejoin="round"/><path d="M351.04788,165.17018c0.54823,-0.0695 1.04738,0.27237 1.11055,0.77078c0.06319,0.49844 -0.33486,0.95402 -0.8831,1.02352c-0.54823,0.0695 -1.04738,-0.27237 -1.11055,-0.77078c-0.06319,-0.49844 0.33486,-0.95402 0.8831,-1.02352" stroke="none" stroke-width="1" stroke-linecap="butt" stroke-linejoin="miter"/></g><g><path d="M354.03491,177.14825c2.3826,1.21724 3.87572,3.40814 2.92522,5.09854c-0.90065,1.68409 -3.75423,1.94452 -6.14314,0.67746c-2.3826,-1.21724 -3.35835,-3.32181 -2.61987,-5.08661c0.77639,-1.46576 3.45519,-1.90667 5.83776,-0.6894z" fill="#ffffff" stroke="#001026" stroke-width="1.2" stroke-linecap="round" stroke-linejoin="round"/><path d="M351.18205,177.81377c0.54823,-0.0695 0.99753,0.27869 1.11055,0.77078c0.06319,0.49844 -0.33486,0.95402 -0.8831,1.02352c-0.54823,0.0695 -1.04738,-0.27237 -1.11055,-0.77078c-0.06319,-0.49844 0.33486,-0.95402 0.8831,-1.02352" fill="#001026" stroke="none" stroke-width="1" stroke-linecap="butt" stroke-linejoin="miter"/></g></g><path d="M349.63766,177.38645c0,0 -0.08484,-0.12676 -0.10842,-0.29717c-0.17865,0.00943 -0.38107,0.04536 -0.64429,0.12696c-0.78157,0.10125 -1.56342,0.20033 -2.34528,0.29946l-0.46778,0.16968c0,0 -0.59544,0.19963 -0.79507,-0.39581c-0.19961,-0.59544 0.39581,-0.79507 0.39581,-0.79507l0.70908,-0.22487c0.74759,-0.09476 1.49514,-0.18976 2.24302,-0.28219c1.53257,-0.44593 3.70652,-0.16973 5.14194,0.10511c1.15944,0.22197 1.7638,1.37052 3.02205,1.57989c0.46573,0.07751 0.91034,-0.32865 1.38207,-0.30971c0.24174,0.0097 0.42479,0.28327 0.66673,0.28698c1.27879,0.01973 1.44053,-0.31933 2.64252,0.4026c0,0 0.53582,0.32753 0.2083,0.86337c-0.32753,0.53582 -0.86337,0.2083 -0.86337,0.2083c-1.43756,-0.89832 -2.69923,-0.01776 -4.21666,-0.20852c-1.04061,-0.13084 -1.95019,-0.77076 -2.6669,-1.41929c-0.02851,-0.02578 -0.05574,-0.04787 -0.08188,-0.06664c-0.04204,0.12776 -0.10844,0.21348 -0.10844,0.21348c-0.1406,0.18142 -0.28119,0.36278 -0.42176,0.5442l-0.53814,0.25363c0,0 -0.62301,0.07898 -0.702,-0.54402c-0.0528,-0.41647 0.20811,-0.5898 0.3869,-0.659c0.00427,-0.0055 0.00852,-0.01101 0.01276,-0.01647c-0.10372,-0.08683 -0.20707,-0.17496 -0.33349,-0.2078c-0.35047,-0.09088 -0.7108,0.09935 -1.07238,0.17134c0.11587,0.15355 0.13838,0.3312 0.13838,0.3312l-1.12963,0.54897c-0.15136,-0.22618 -0.30271,-0.45236 -0.45406,-0.67856z" fill="#a00000" fill-rule="nonzero" stroke="none" stroke-width="0.5" stroke-linecap="butt" stroke-linejoin="miter"/><path d="M344.63908,175.16206c-0.19961,-0.59544 0.39581,-0.79507 0.39581,-0.79507l0.5161,-0.16792c0.24632,-0.11762 0.49265,-0.23524 0.73898,-0.35288c0.6822,-0.20273 1.48131,-0.78475 2.19987,-0.7853c0.62323,-0.00051 1.42614,0.38461 2.04546,0.50699c1.71709,0.33923 3.67495,0.66338 5.41266,0.76437c1.54319,0.0897 3.61108,-0.59186 5.17824,-0.79053c0,0 0.62301,-0.07898 0.702,0.54402c0.07898,0.62301 -0.54402,0.702 -0.54402,0.702c-1.67196,0.21194 -3.75998,0.8823 -5.41671,0.79792c-1.79071,-0.09121 -3.81833,-0.43632 -5.58025,-0.78656c-0.057,-0.01134 -1.6428,-0.47778 -1.76058,-0.48279c-0.48743,-0.02072 -1.31466,0.55952 -1.783,0.70107c-0.21624,0.1046 -0.43249,0.20917 -0.64875,0.3138l-0.66073,0.22661c0,0 -0.59544,0.19963 -0.79507,-0.39581z" fill="#a00000" fill-rule="nonzero" stroke="none" stroke-width="0.5" stroke-linecap="butt" stroke-linejoin="miter"/><path d="M336.67538,165.17157c0.38471,-0.4964 0.88109,-0.1117 0.88109,-0.1117l0.37437,0.32802c2.16796,-0.00789 4.39917,-0.00911 6.57041,0.08658c1.70708,0.07521 3.24108,-1.10785 4.3775,0.69361c0,0 0.30471,0.54914 -0.24442,0.85384c-0.54912,0.30472 -0.85383,-0.24442 -0.85383,-0.24442c-0.3301,-0.81979 -1.76139,-0.23369 -2.49768,-0.14426c-2.50055,0.3038 -5.26998,0.10964 -7.78173,-0.06519l-0.71405,-0.51547c0,0 -0.49637,-0.38468 -0.1117,-0.88109z" fill="#a00000" fill-rule="nonzero" stroke="none" stroke-width="0.5" stroke-linecap="butt" stroke-linejoin="miter"/><path d="M337.02831,163.61147c-0.07898,-0.62301 0.54402,-0.702 0.54402,-0.702l0.58646,-0.06574c2.2974,0.0898 4.5362,-0.14415 6.82349,0.12936c1.42667,0.17058 2.81573,0.88338 4.22894,0.92328c0,0 0.62753,0.02452 0.603,0.65206c-0.02452,0.62753 -0.65206,0.603 -0.65206,0.603c-1.48156,-0.07028 -2.8663,-0.75686 -4.34908,-0.93376c-2.24554,-0.26792 -4.44491,-0.03062 -6.70336,-0.11886l-0.37947,0.05672c0,0 -0.62301,0.07898 -0.702,-0.54402z" fill="#a00000" fill-rule="nonzero" stroke="none" stroke-width="0.5" stroke-linecap="butt" stroke-linejoin="miter"/><path d="M353.97561,181.08336c-0.18915,-0.59883 0.40968,-0.788 0.40968,-0.788l0.09988,-0.03156c1.93127,-0.41994 1.99481,-0.3407 2.53432,1.44325c0,0 0.18035,0.60155 -0.42125,0.78188c-0.60155,0.18035 -0.78188,-0.42125 -0.78188,-0.42125c-0.09726,-0.3277 0.14707,-1.03249 -0.19382,-1.00702c-0.28532,0.02129 -0.50606,0.26721 -0.75906,0.40083l-0.09988,0.03156c0,0 -0.59883,0.18915 -0.788,-0.40968z" fill="#a00000" fill-rule="nonzero" stroke="none" stroke-width="0.5" stroke-linecap="butt" stroke-linejoin="miter"/><path d="M351.8544,180.72867c0.62301,-0.07898 0.702,0.54402 0.702,0.54402l0.01529,0.12078c0.06121,0.48299 0.12245,0.96598 0.18366,1.44896c0,0 0.07898,0.62301 -0.54402,0.702c-0.62301,0.07898 -0.702,-0.54402 -0.702,-0.54402c-0.06123,-0.48295 -0.13776,-1.08672 -0.199,-1.56968c0,0 -0.07898,-0.62301 0.54402,-0.702z" fill="#a00000" fill-rule="nonzero" stroke="none" stroke-width="0.5" stroke-linecap="butt" stroke-linejoin="miter"/><path d="M350.02052,179.18363c0.49637,0.38471 0.1117,0.88109 0.1117,0.88109l-0.72391,0.36739c-0.2517,-0.04988 -0.5034,-0.09976 -0.75507,-0.14965c0,0 -0.61602,-0.12211 -0.49392,-0.73814c0.12208,-0.61603 0.7381,-0.49392 0.7381,-0.49392c0.14179,0.02808 0.2836,0.05621 0.42538,0.0843c0.1595,-0.10093 0.4098,-0.1742 0.69775,0.04894z" fill="#a00000" fill-rule="nonzero" stroke="none" stroke-width="0.5" stroke-linecap="butt" stroke-linejoin="miter"/><path d="M325.6038,197.33774c-0.43696,-0.45104 0.01405,-0.88801 0.01405,-0.88801l0.24652,0.00304c0.01581,-0.37501 -0.00112,-0.74101 -0.02011,-1.1068c-0.07866,-0.08578 -0.11739,-0.16644 -0.11739,-0.16644c-0.1001,-0.21123 -0.23071,-0.41056 -0.3003,-0.63369c-0.02649,-0.08498 0.10668,-0.28546 0.01977,-0.26634c-0.2587,0.05696 -0.45987,0.55943 -0.67975,0.41168c-0.40267,-0.27056 -0.47966,-0.84823 -0.6473,-1.30344c-0.09417,-0.2557 0.29207,-0.90172 0.03317,-0.81678c-0.20758,0.06813 -0.38717,0.43271 -0.57312,0.31802c-0.78641,-0.485 -1.29197,-1.91261 -0.01401,-2.43524c0.37267,-0.15239 0.72226,0.35602 1.08342,0.53406l0.25363,0.53816c0,0 0.01534,0.12097 -0.02082,0.26303c0.12348,0.13741 0.24581,0.32079 0.35857,0.55592c0.11597,0.24181 0.12957,0.52938 0.11085,0.79689c-0.00945,0.13452 -0.31461,0.4115 -0.19154,0.35636c0.19405,-0.08697 0.23147,-0.52464 0.43587,-0.46585c0.28312,0.08144 0.50138,0.27265 0.67881,0.50799c0.05698,-0.01241 0.12105,-0.01817 0.19297,-0.01535c0.62753,0.02452 0.603,0.65206 0.603,0.65206c-0.03322,0.78756 0.07804,1.5354 0.04932,2.32477l-0.62761,0.84998c0,0 -0.45104,0.43696 -0.88801,-0.01405z" fill="#a00000" fill-rule="nonzero" stroke="none" stroke-width="0.5" stroke-linecap="butt" stroke-linejoin="miter"/><path d="M321.66857,196.80025c-0.49637,-0.38471 -0.1117,-0.88109 -0.1117,-0.88109l0.42442,-0.51708c0.18592,-0.14624 0.37187,-0.2925 0.55781,-0.43877c0,0 0.49362,-0.38826 0.88186,0.10534c0.38826,0.49362 -0.10534,0.88186 -0.10534,0.88186c-0.18594,0.14625 -0.3719,0.29252 -0.55781,0.43877l-0.20818,0.29924c0,0 -0.38471,0.49637 -0.88109,0.1117z" fill="#a00000" fill-rule="nonzero" stroke="none" stroke-width="0.5" stroke-linecap="butt" stroke-linejoin="miter"/><path d="M319.10939,195.19384l0.70917,-0.21259c0,0 0.60155,-0.18035 0.78188,0.42125c0.18035,0.60155 -0.42125,0.78188 -0.42125,0.78188l-0.70917,0.21259c0,0 -0.60155,0.18035 -0.78188,-0.42125c-0.18035,-0.60155 0.42125,-0.78188 0.42125,-0.78188z" fill="#a00000" fill-rule="nonzero" stroke="none" stroke-width="0.5" stroke-linecap="butt" stroke-linejoin="miter"/><path d="M321.35554,201.74326c-0.59258,-0.20796 -0.3846,-0.80055 -0.3846,-0.80055l0.29444,-0.54241c0.18594,-0.14625 0.3719,-0.29252 0.55781,-0.43877c0,0 0.14981,-0.11782 0.34926,-0.14113c0.07341,-0.223 0.2694,-0.39555 0.51782,-0.42706c0.3441,-0.0436 0.65839,0.19995 0.702,0.54402c0.0436,0.3441 -0.19995,0.65839 -0.54402,0.702c-0.0097,0.00123 -0.0194,0.00223 -0.02902,0.00299c-0.06963,0.18844 -0.21951,0.30637 -0.21951,0.30637c-0.18594,0.14625 -0.3719,0.29252 -0.55781,0.43877l0.11417,-0.02882c0,0 -0.20799,0.59255 -0.80055,0.3846z" fill="#a00000" fill-rule="nonzero" stroke="none" stroke-width="0.5" stroke-linecap="butt" stroke-linejoin="miter"/><path d="M324.62992,192.0944c0.38471,-0.49637 0.88109,-0.1117 0.88109,-0.1117l0.30047,0.29713c0.00487,0.0088 0.00975,0.01758 0.01462,0.02638c0.15438,-0.09343 0.4957,-0.23122 0.80197,0.12213c0.41129,0.47456 -0.06327,0.88589 -0.06327,0.88589l-0.24653,0.19754c-0.28646,0.36498 -0.46899,0.70072 -0.72374,0.82599c-0.01916,0.09663 -0.06078,0.18626 -0.11975,0.26242l-0.42178,0.5442v0c-0.09845,0.12704 -0.24535,0.21653 -0.41743,0.23835c-0.24397,0.03093 -0.47296,-0.08254 -0.60111,-0.27384l-0.37063,0.21765c-0.07408,0.04578 -0.15894,0.07684 -0.25101,0.08852c-0.3441,0.0436 -0.65839,-0.19995 -0.702,-0.54402c-0.01329,-0.10465 0.00006,-0.20653 0.03467,-0.29888l0.26622,-0.75847l0.00699,0.00245l0.00143,-0.02503c0.2125,-0.47646 0.47818,-0.93366 0.79521,-1.34797c0,0 0.30673,-0.39579 0.72583,-0.20664c0.02203,-0.04609 0.05122,-0.09351 0.08879,-0.142zM324.83576,193.1715c0.00804,-0.00597 0.01604,-0.01195 0.02407,-0.01793c-0.00218,-0.00392 -0.00437,-0.00784 -0.00654,-0.01177c-0.00621,0.01108 -0.01215,0.02102 -0.01757,0.02971z" fill="#ffffff" fill-rule="nonzero" stroke="none" stroke-width="0.5" stroke-linecap="butt" stroke-linejoin="miter"/><path d="M345.30878,177.39104c0.5458,0.31064 0.23519,0.85641 0.23519,0.85641l-0.49242,0.13551c0.18383,0.05789 0.35202,0.11976 0.47323,0.17115c0,0 0.57485,0.2528 0.32205,0.82768c-0.25282,0.57484 -0.82768,0.32205 -0.82768,0.32205c-1.19763,-0.55348 -3.16994,-0.05695 -1.79486,-2.0411c0.13115,-0.18929 0.35938,-0.28722 0.54292,-0.42723l0.38592,-0.49794l0.19963,0.15472l0.57383,-0.33359c0.03464,0.22105 0.06897,0.44308 0.1088,0.66394l0.22195,0.05772l-0.01939,0.07453c0.02317,0.01051 0.04678,0.02254 0.07085,0.03624z" fill="#8da900" fill-rule="nonzero" stroke="none" stroke-width="0.5" stroke-linecap="butt" stroke-linejoin="miter"/><path d="M343.1499,169.50359c0,0 0.49199,0.3813 0.11675,0.8745c0.19231,0.08696 0.3363,0.26881 0.36479,0.49355c0.02179,0.17203 -0.02818,0.33664 -0.12662,0.46367v0l-0.21299,0.27484c0.00322,0.14884 0.02753,0.29406 0.08342,0.43173l0.37167,0.45242c0,0 0.32652,0.41513 0,0.78343c0.09571,0.14287 0.21176,0.41216 0.00002,0.6978c0.3054,0.35192 0.68723,0.84518 0.80438,0.99317l0.14471,0.43004c0,0 0.02136,0.16868 -0.04589,0.3416c0.06346,0.00793 0.12591,0.01858 0.18632,0.0343c0,0 0.60778,0.15806 0.44973,0.76583c-0.15805,0.60779 -0.76583,0.44973 -0.76583,0.44973c-0.09568,-0.02489 -0.33643,-0.08543 -0.59798,-0.15523c-0.09721,0.10807 -0.2322,0.18306 -0.3877,0.20277c-0.12989,0.01646 -0.25553,-0.00798 -0.36397,-0.06334c-0.23796,0.04219 -0.42692,-0.09149 -0.52098,-0.17814c-0.00184,0.00335 -0.00367,0.00666 -0.00557,0.00997c-0.03819,0.27392 -0.25556,0.49946 -0.54312,0.53592c-0.3441,0.0436 -0.65839,-0.19995 -0.702,-0.54402c-0.01887,-0.14889 0.01601,-0.29223 0.08959,-0.41046c0.01133,-0.13008 0.03058,-0.26064 0.0576,-0.39012c-0.00517,-0.02386 -0.0095,-0.0489 -0.01282,-0.07522c-0.03702,-0.29202 0.0802,-0.46453 0.2152,-0.5654c0.08635,-0.19975 0.19266,-0.38973 0.3179,-0.56323l-0.00603,-0.08008c0,0 0.07454,-0.21244 0.26158,-0.33826c0.05234,-0.17556 0.14141,-0.33365 0.27502,-0.46134c-0.56938,-0.35142 -1.48667,-0.05875 -1.84778,-0.71009c-0.50342,-0.908 0.53529,-1.81695 1.17094,-2.32547c-0.1763,-0.14913 -0.35473,-0.29525 -0.54936,-0.41868c-0.3061,-0.19411 -0.86033,-0.17521 -0.95173,-0.52591c-0.11066,-0.42447 0.71641,-1.38201 0.99227,-1.73352l0.0727,-0.03169l-0.01533,-0.01945l0.54971,-0.43239c0.08801,-0.07172 0.19651,-0.12049 0.31741,-0.1358c0.3441,-0.0436 0.65839,0.19995 0.702,0.54402c0.00425,0.03358 0.00577,0.0669 0.00472,0.09971l-0.01343,0.84972l-0.01485,-0.00024c0.03961,0.21104 0.07431,0.4229 0.10179,0.63583l0.03378,-0.20652zM342.17311,172.34347c-0.00438,-0.01214 -0.00882,-0.02423 -0.01329,-0.03637c-0.01638,0.01345 -0.03248,0.02669 -0.04825,0.0396c0.01988,-0.00178 0.04044,-0.00283 0.06155,-0.00321z" fill="#8da900" fill-rule="nonzero" stroke="none" stroke-width="0.5" stroke-linecap="butt" stroke-linejoin="miter"/><path d="M340.26459,172.76608c0.84223,1.06005 0.86237,1.34698 0.51806,2.15938c0.29374,0.30628 0.17544,0.97559 -0.04271,1.54517l0.2987,0.14648c0.1485,0.57951 0.11796,1.23478 -0.09979,1.79194c0,0 -0.25282,0.57484 -0.8277,0.32208c-0.57488,-0.25282 -0.32208,-0.8277 -0.32208,-0.8277c0.01367,-0.02549 0.02617,-0.05178 0.03751,-0.07877c-0.23085,-0.06644 -0.41239,-0.26297 -0.44829,-0.51499c-0.17409,-0.16823 -0.19999,-0.35108 -0.17572,-0.50134l-0.19404,-0.54726c0.04086,-0.18466 0.02178,-0.4175 0.02521,-0.63225c-0.52106,-0.31226 -0.21727,-0.84599 -0.21727,-0.84599l0.22377,-0.13928c-0.06177,-0.49999 -0.08879,-1.01771 -0.05275,-1.52711l-0.25617,-0.01l0.02848,-0.72944c0.00651,-0.30596 0.23622,-0.56917 0.54896,-0.60881c0.28026,-0.03554 0.54075,0.11948 0.65131,0.36413l0.30452,0.63388z" fill="#8da900" fill-rule="nonzero" stroke="none" stroke-width="0.5" stroke-linecap="butt" stroke-linejoin="miter"/><path d="M342.81524,179.32131c-0.53582,-0.32753 -0.2083,-0.86337 -0.2083,-0.86337l0.92936,-0.96528c0.32964,0.31904 0.65928,0.63814 0.98891,0.95717c0,0 0.34926,0.52194 -0.17266,0.87116c-0.36955,0.24728 -0.65253,0.05782 -0.78629,-0.07387c-0.13878,0.13302 -0.40028,0.28856 -0.75105,0.07417z" fill="#a00000" fill-rule="nonzero" stroke="none" stroke-width="0.5" stroke-linecap="butt" stroke-linejoin="miter"/><path d="M342.17757,177.94596c-0.62301,0.07898 -0.702,-0.54402 -0.702,-0.54402l-0.03061,-0.24149c-0.03462,-0.30584 0.0074,-0.61481 0.09532,-0.91679l-0.17195,-0.04471l0.16126,-0.6202c0.05835,-0.24782 0.26506,-0.44523 0.5325,-0.47911c0.26744,-0.03392 0.51684,0.10568 0.63518,0.3311l0.31092,0.56034l-0.03925,0.02178l0.08697,0.08757c0.03932,0.28027 0.07869,0.56058 0.11801,0.84085c0,0 0.07715,0.60864 -0.5226,0.69903c-0.07118,0.14045 -0.20916,0.27215 -0.47379,0.30569z" fill="#a00000" fill-rule="nonzero" stroke="none" stroke-width="0.5" stroke-linecap="butt" stroke-linejoin="miter"/><path d="M340.28094,175.20946c-0.61602,-0.12211 -0.49392,-0.73814 -0.49392,-0.73814l0.07012,-0.35067c0.03244,-0.16725 0.02393,-0.35656 0.03066,-0.53765c-0.26467,-0.14869 -0.30673,-0.48032 -0.30673,-0.48032l-0.12246,-0.96595c-0.01335,-0.10525 0.00017,-0.20776 0.03527,-0.30051c-0.00547,-0.01827 -0.01088,-0.03665 -0.01623,-0.05504l-0.08329,-0.24825c0,0 -0.19961,-0.59544 0.39581,-0.79506c0.14092,-0.04723 0.25969,-0.04998 0.35888,-0.02655c0.26138,0.04651 0.38747,0.261 0.44018,0.3881c0.09071,-0.07912 0.20509,-0.13307 0.33347,-0.14935c0.26744,-0.03392 0.51684,0.10568 0.63518,0.3311l0.31092,0.56034l-0.02086,0.01158l0.05042,0.04922c0.18088,0.59957 0.29931,1.21898 0.37935,1.84008c0,0 0.07898,0.62301 -0.54402,0.702c-0.03987,0.00504 -0.07748,0.00722 -0.113,0.00689c-0.05326,0.05852 -0.12524,0.11151 -0.22173,0.15341c-0.09437,0.09196 -0.21831,0.15515 -0.35912,0.17301c-0.01316,0.00168 -0.02627,0.00293 -0.03934,0.00376c-0.05216,0.1555 -0.22972,0.5251 -0.71955,0.42802z" fill="#a00000" fill-rule="nonzero" stroke="none" stroke-width="0.5" stroke-linecap="butt" stroke-linejoin="miter"/><path d="M340.25445,169.70483c-0.0436,-0.3441 0.19995,-0.65839 0.54402,-0.702c0.3441,-0.0436 0.65839,0.19995 0.702,0.54402c0.0436,0.3441 -0.19995,0.65839 -0.54402,0.702c-0.3441,0.0436 -0.65839,-0.19995 -0.702,-0.54402z" fill="#a00000" fill-rule="nonzero" stroke="none" stroke-width="0.5" stroke-linecap="butt" stroke-linejoin="miter"/><path d="M341.72032,175.30382c-0.31109,0.03944 -0.48654,-0.09615 -0.58422,-0.24183c-0.0132,-0.00261 -0.02625,-0.00556 -0.03917,-0.00896c0.01749,0.09655 0.02669,0.19736 0.02478,0.30344c-0.00411,0.2287 -0.07895,0.45418 -0.13752,0.67926c0.09047,0.67754 0.16121,1.35562 0.24432,2.01088l0.10715,0.84523c0.0436,0.3441 -0.19995,0.65839 -0.54402,0.702c-0.31269,0.03965 -0.60082,-0.15792 -0.68349,-0.45258l-0.16209,-0.54061c-0.36451,-0.0007 -0.54096,-0.36802 -0.54096,-0.36802c-1.01918,-2.12144 -1.00654,-3.78372 -0.91691,-6.07692l0.02848,-0.72944c0.00651,-0.30596 0.23622,-0.56917 0.54896,-0.60881c0.09347,-0.01185 0.18472,-0.00249 0.26897,0.02429c0.01996,-0.18985 0.11894,-0.49525 0.54272,-0.54903c0.39209,-0.04969 0.56867,0.1786 0.64575,0.35472c0.00689,0.00326 0.01381,0.00662 0.02079,0.01021c0.17336,-0.07101 0.50861,-0.13987 0.75671,0.2309c0.34925,0.52194 -0.17267,0.87118 -0.17267,0.87118c-0.12762,0.05339 -0.2533,0.14067 -0.37919,0.22437c0.12187,0.07723 0.22889,0.21228 0.25867,0.44708c0.07183,0.56668 -0.43713,0.68329 -0.52976,0.69971c-0.02356,0.11318 -0.02628,0.22102 -0.01377,0.32555c0.0169,0.05522 0.0334,0.11067 0.04942,0.1663c0.09116,0.02342 0.17516,0.06699 0.2462,0.12627c0.25361,0.00595 0.50798,-0.00729 0.75863,-0.04079l0.74631,0.89367c0,0 0.07898,0.62301 -0.54402,0.702zM340.59693,172.80887c-0.04379,0.08278 -0.07614,0.16239 -0.09866,0.23941z" fill="#000000" fill-rule="nonzero" stroke="none" stroke-width="0.5" stroke-linecap="butt" stroke-linejoin="miter"/><path d="M341.0534,173.40545l-0.22851,-0.68152" fill="none" fill-rule="nonzero" stroke="#001026" stroke-width="1.2" stroke-linecap="round" stroke-linejoin="miter"/><path d="M341.39511,173.85949l-0.91297,-2.15783" fill="none" fill-rule="nonzero" stroke="#a00000" stroke-width="1.2" stroke-linecap="round" stroke-linejoin="miter"/><path d="M340.06555,173.45963l2.06428,0.5909" fill="none" fill-rule="nonzero" stroke="#000000" stroke-width="1.2" stroke-linecap="round" stroke-linejoin="miter"/><path d="M339.74942,172.64712l2.12139,-1.76094" fill="none" fill-rule="nonzero" stroke="#000000" stroke-width="1.2" stroke-linecap="round" stroke-linejoin="miter"/><path d="M336.96938,182.67247c0.6279,-0.00969 0.63763,0.61825 0.63763,0.61825l0.00739,0.70439c-0.02267,0.018 -0.04534,0.03599 -0.06799,0.05396l0.05857,0.01161l-0.12718,0.64171c-0.03472,0.19962 -0.16488,0.37107 -0.34711,0.45846c-0.28089,0.74922 -1.23334,1.58358 -2.16415,0.84218c-0.93627,-0.74576 -0.45185,-3.05802 0.85914,-3.18784c0.23669,-0.02344 0.44356,0.03223 0.61865,0.14232c0.08195,-0.14498 0.23589,-0.28055 0.52505,-0.28502z" fill="#a00000" fill-rule="nonzero" stroke="none" stroke-width="0.5" stroke-linecap="butt" stroke-linejoin="miter"/><path d="M335.72868,184.59566c-0.0436,-0.3441 0.19995,-0.65839 0.54402,-0.702c0.3441,-0.0436 0.65839,0.19995 0.702,0.54402c0.0436,0.3441 -0.19995,0.65839 -0.54402,0.702c-0.3441,0.0436 -0.65839,-0.19995 -0.702,-0.54402z" fill="#ffffff" fill-rule="nonzero" stroke="none" stroke-width="0.5" stroke-linecap="butt" stroke-linejoin="miter"/><path d="M340.81801,173.79054l-0.73769,-1.89586l1.05676,-0.63131" fill="none" fill-rule="nonzero" stroke="#000000" stroke-width="1.2" stroke-linecap="round" stroke-linejoin="miter"/><path d="M331.25232,183.52259c-0.3441,0.0436 -0.65839,-0.19995 -0.702,-0.54402c-0.00498,-0.03922 -0.0062,-0.07805 -0.00397,-0.1161c-0.09841,0.12458 -0.24384,0.21216 -0.41381,0.23375c-0.3441,0.0436 -0.65839,-0.19995 -0.702,-0.54402c-0.01457,-0.11487 0.00286,-0.22644 0.04541,-0.32572c-0.26227,-0.04778 -0.47497,-0.26046 -0.51025,-0.53899c-0.00685,-0.05406 -0.00661,-0.1074 -0.00005,-0.15901c-0.29656,-0.01672 -0.54824,-0.24287 -0.58695,-0.54811c-0.0436,-0.3441 0.19995,-0.65839 0.54402,-0.702c0.02675,-0.00339 0.05331,-0.00504 0.0796,-0.00503c-0.01057,-0.32035 0.22443,-0.60187 0.54876,-0.64298c0.3441,-0.0436 0.65839,0.19995 0.702,0.54402c0.00339,0.02675 0.00504,0.05332 0.00506,0.0796c0.32035,-0.01057 0.60187,0.22443 0.64298,0.54876c0.00761,0.05978 0.00647,0.11867 -0.0023,0.17543c0.26644,0.04447 0.48363,0.25882 0.51937,0.54057c0.01059,0.08357 0.00426,0.16536 -0.01637,0.24194c0.2768,0.03568 0.50556,0.25418 0.54229,0.544c0.00863,0.06811 0.00601,0.13504 -0.00641,0.19897c0.23572,0.06614 0.42079,0.26774 0.45355,0.52592c0.0436,0.3441 -0.19995,0.65839 -0.54402,0.702c-0.21772,0.02759 -0.42349,-0.05978 -0.55636,-0.21488c-0.01268,0.00241 -0.02551,0.00441 -0.0385,0.00609zM330.6765,182.3942c0.00498,0.03922 0.0062,0.07805 0.00397,0.1161c0.00672,-0.00851 0.01365,-0.01682 0.0208,-0.02496c-0.00122,-0.00755 -0.00233,-0.01516 -0.0033,-0.02278c-0.01059,-0.08357 -0.00426,-0.16536 0.01637,-0.24194c-0.03234,-0.00415 -0.06402,-0.01084 -0.09482,-0.0198c0.02861,0.05945 0.04825,0.1244 0.05701,0.19344zM330.19345,181.77804c-0.00739,0.02639 -0.01654,0.05214 -0.0272,0.07713c0.02128,0.00388 0.04226,0.00883 0.06285,0.01483c-0.01412,-0.02938 -0.02607,-0.06006 -0.03559,-0.09196zM329.62938,180.88135c0.0011,0.03386 -0.00049,0.06729 -0.00468,0.10001c0.01132,0.00065 0.02259,0.00159 0.03377,0.00282c-0.00126,-0.00782 -0.00245,-0.01567 -0.00346,-0.02358c-0.00339,-0.02675 -0.00504,-0.05331 -0.00503,-0.0796c-0.00689,0.00024 -0.01376,0.00034 -0.02058,0.00034z" fill="#e93e3e" fill-rule="nonzero" stroke="none" stroke-width="0.5" stroke-linecap="butt" stroke-linejoin="miter"/><path d="M332.50015,192.24554c-0.3441,0.0436 -0.65839,-0.19995 -0.702,-0.54402c-0.01155,-0.09105 -0.003,-0.18001 0.02224,-0.26244c-0.09142,-0.09422 -0.15421,-0.21778 -0.17195,-0.35803c-0.01824,-0.1437 0.01366,-0.28219 0.08203,-0.39796c-0.13763,-0.0982 -0.23541,-0.25137 -0.25834,-0.43227c-0.02153,-0.16967 0.02681,-0.33203 0.12254,-0.45832c-0.20314,-0.08278 -0.35692,-0.26977 -0.38648,-0.50289c-0.02322,-0.18329 0.035,-0.35812 0.14657,-0.48809c-0.18013,-0.09089 -0.3133,-0.26677 -0.34058,-0.48201c-0.0345,-0.27202 0.11054,-0.52545 0.3428,-0.64118c-0.0997,-0.09593 -0.16846,-0.2253 -0.18721,-0.37322c-0.0232,-0.18306 0.03488,-0.35766 0.14611,-0.48757c-0.25237,-0.05518 -0.45452,-0.26379 -0.48884,-0.5347c-0.01824,-0.1437 0.01366,-0.28219 0.08203,-0.39796c-0.13761,-0.09823 -0.23541,-0.25137 -0.25834,-0.43227c-0.00933,-0.07361 -0.00552,-0.14585 0.00962,-0.21434c-0.03174,-0.06259 -0.05347,-0.13157 -0.06281,-0.20518c-0.00718,-0.05674 -0.00657,-0.11266 0.00102,-0.16669c-0.07019,-0.08735 -0.11785,-0.19458 -0.13298,-0.31393c-0.02552,-0.20139 0.04732,-0.39261 0.18118,-0.52529c-0.07822,-0.0904 -0.13151,-0.20404 -0.14769,-0.33156c-0.0436,-0.3441 0.19995,-0.65839 0.54402,-0.702c0.3441,-0.0436 0.65839,0.19995 0.702,0.54402c0.02552,0.20139 -0.04732,0.39261 -0.18118,0.52529c0.07822,0.0904 0.13151,0.20404 0.14769,0.33156c0.00718,0.05674 0.00657,0.11266 -0.00102,0.16669c0.07019,0.08738 0.11785,0.19458 0.13298,0.31393c0.00933,0.07361 0.00554,0.14587 -0.0096,0.21435c0.03174,0.06259 0.05345,0.13156 0.06277,0.2052c0.01824,0.1437 -0.01366,0.28219 -0.08203,0.39796c0.1376,0.09822 0.23537,0.25136 0.25833,0.43226c0.0232,0.18306 -0.03488,0.35766 -0.14611,0.48757c0.25239,0.05519 0.45452,0.26379 0.48884,0.5347c0.03447,0.27204 -0.11054,0.52545 -0.3428,0.64118c0.0997,0.09593 0.16846,0.2253 0.18721,0.37322c0.02322,0.18329 -0.035,0.35812 -0.14657,0.48809c0.18013,0.09089 0.3133,0.26677 0.34058,0.48201c0.02153,0.16967 -0.02682,0.33203 -0.12254,0.45832c0.20312,0.08279 0.35692,0.26977 0.38648,0.50289c0.01824,0.1437 -0.01366,0.28219 -0.08203,0.39796c0.1376,0.09822 0.23541,0.25137 0.25834,0.43227c0.01155,0.09105 0.003,0.18001 -0.02224,0.26244c0.09142,0.09422 0.15421,0.21778 0.17195,0.35803c0.0436,0.3441 -0.19995,0.65839 -0.54402,0.702z" fill="#e93e3e" fill-rule="nonzero" stroke="none" stroke-width="0.5" stroke-linecap="butt" stroke-linejoin="miter"/><path d="M329.83623,179.58769c-0.0436,-0.3441 0.19995,-0.65839 0.54402,-0.702c0.32432,-0.04114 0.62214,0.17288 0.69183,0.48573c0.02546,-0.00654 0.05159,-0.01159 0.07833,-0.01497c0.3441,-0.0436 0.65839,0.19995 0.702,0.54402c0.01686,0.13318 -0.00927,0.26191 -0.06762,0.37219c0.01611,-0.00335 0.0325,-0.00609 0.04913,-0.00818c0.3441,-0.0436 0.65839,0.19995 0.702,0.54402c0.01569,0.12377 -0.00578,0.24366 -0.0557,0.3485c0.23435,0.067 0.41805,0.26796 0.45064,0.52507c0.01154,0.09107 0.00297,0.18004 -0.02229,0.26249c0.24741,0.05864 0.44443,0.26517 0.47826,0.53229c0.0436,0.3441 -0.19995,0.65839 -0.54402,0.702c-0.3441,0.0436 -0.65839,-0.19995 -0.702,-0.54402c-0.01154,-0.09107 -0.00297,-0.18004 0.02229,-0.26249c-0.24741,-0.05864 -0.44443,-0.26517 -0.47826,-0.53229c-0.01569,-0.12375 0.00578,-0.24366 0.0557,-0.3485c-0.23435,-0.067 -0.41805,-0.26798 -0.45064,-0.52507c-0.01686,-0.13318 0.00927,-0.26191 0.06762,-0.37219c-0.01611,0.00335 -0.0325,0.00609 -0.04913,0.00818c-0.32432,0.04114 -0.62212,-0.17291 -0.69181,-0.48574c-0.02547,0.00655 -0.05158,0.01159 -0.07834,0.01497c-0.3441,0.0436 -0.65839,-0.19995 -0.702,-0.54402z" fill="#e93e3e" fill-rule="nonzero" stroke="none" stroke-width="0.5" stroke-linecap="butt" stroke-linejoin="miter"/><path d="M332.66,194.50525c-0.00874,-0.06879 0.03998,-0.13165 0.1088,-0.1404c0.06879,-0.00874 0.13165,0.03998 0.1404,0.1088c0.00874,0.06879 -0.03998,0.13165 -0.1088,0.1404c-0.06879,0.00874 -0.13165,-0.03998 -0.1404,-0.1088z" fill="#a00000" fill-rule="nonzero" stroke="none" stroke-width="0.5" stroke-linecap="butt" stroke-linejoin="miter"/><path d="M335.00002,193.46382c0.09492,-0.08225 0.17716,0.01265 0.17716,0.01265l0.00386,0.00444c0.10968,0.12655 0.21936,0.25311 0.32903,0.37963c0,0 0.08225,0.09492 -0.01265,0.17716c-0.09492,0.08225 -0.17716,-0.01265 -0.17716,-0.01265c-0.10966,-0.12655 -0.2232,-0.25753 -0.33289,-0.3841c0,0 -0.08225,-0.09492 0.01265,-0.17716z" fill="#a00000" fill-rule="nonzero" stroke="none" stroke-width="0.5" stroke-linecap="butt" stroke-linejoin="miter"/><path d="M334.56334,195.07011c-0.11796,0.01495 -0.23007,-0.02633 -0.30939,-0.10298c-0.02986,0.10584 -0.10882,0.22708 -0.31105,0.25268c-0.37384,0.04738 -0.42121,-0.32642 -0.42121,-0.32642l-0.00486,-0.07905c-0.01209,-0.04148 -0.02488,-0.08183 -0.03823,-0.12126c-0.04359,-0.00778 -0.08494,-0.02314 -0.12241,-0.04486c0.00063,0.03829 -0.01261,0.09246 -0.08557,0.11694c-0.02377,0.00796 -0.04436,0.00962 -0.06214,0.0071c-0.00945,0.00325 -0.02004,0.00577 -0.0319,0.00724c-0.12463,0.01578 -0.1404,-0.1088 -0.1404,-0.1088l-0.00887,-0.06992c-0.00557,-0.0624 -0.0023,-0.12713 0.00942,-0.19058c-0.01901,-0.07911 -0.03825,-0.16238 -0.05892,-0.24502c-0.0068,0.00083 -0.01376,0.00178 -0.02086,0.00278l-0.17153,-0.0864c0,0 -0.01571,-0.01218 -0.0298,-0.03307c-0.00832,0.00296 -0.01709,0.00504 -0.02621,0.00621c-0.06879,0.00874 -0.13165,-0.03998 -0.1404,-0.1088c-0.00425,-0.0337 0.00524,-0.06598 0.02413,-0.09115c-0.00487,-0.00015 -0.00968,-0.00056 -0.01443,-0.00128c-0.02031,0.01043 -0.04609,0.01715 -0.07543,0.01035c-0.00948,0.00376 -0.01962,0.00637 -0.03023,0.00772c-0.06879,0.00874 -0.13165,-0.03998 -0.1404,-0.1088c-0.00667,-0.05261 0.02022,-0.10171 0.06398,-0.12583c0.00082,-0.00312 0.00173,-0.00622 0.00277,-0.00923c0.015,-0.04399 0.05392,-0.07788 0.10314,-0.08413c0.00328,-0.00042 0.00654,-0.00071 0.00977,-0.00087c0.03163,-0.04803 0.06125,-0.09676 0.09071,-0.14557c-0.03708,-0.05543 -0.0742,-0.11088 -0.11131,-0.16633c0,0 -0.06986,-0.10439 0.03455,-0.17423c0.06909,-0.04621 0.12302,-0.01612 0.15163,0.00949c0.01969,-0.01252 0.03949,-0.02415 0.05936,-0.03488c-0.00782,-0.06159 -0.01564,-0.12326 -0.02344,-0.18483l-0.08515,0.0108c0,0 -0.05086,0.00643 -0.09171,-0.02138c-0.00204,0.03667 -0.01809,0.10636 -0.1092,0.11792c-0.12463,0.01578 -0.1404,-0.1088 -0.1404,-0.1088l-0.00887,-0.06992c-0.00887,-0.06992 -0.01773,-0.13982 -0.02659,-0.20977c0,0 -0.01578,-0.12463 0.1088,-0.1404c0.12463,-0.01578 0.1404,0.1088 0.1404,0.1088c0.00373,0.02954 0.00908,0.07161 0.01467,0.1156c0.03263,-0.03503 0.08132,-0.04121 0.08132,-0.04121l0.06257,-0.00792l0.01435,-0.05949c0.00031,-0.00021 0.00068,-0.00045 0.00097,-0.00065c-0.00708,-0.05591 -0.01415,-0.11178 -0.02126,-0.16773c0,0 -0.01578,-0.12463 0.1088,-0.1404c0.12463,-0.01578 0.1404,0.1088 0.1404,0.1088c0.00389,0.03086 0.00792,0.06243 0.01199,0.09462c0.02209,0.00717 0.04459,0.02277 0.06433,0.05225c0.03066,0.0458 0.02776,0.08496 0.01486,0.11447c0.08396,-0.03507 0.15622,-0.04099 0.21741,-0.02994c0.05659,-0.10002 0.15801,-0.17303 0.28077,-0.18857c0.20646,-0.02618 0.39504,0.11998 0.42121,0.32642c0.01311,0.10358 -0.01712,0.20266 -0.07661,0.27903c0.00117,0.00474 0.00208,0.0096 0.00272,0.01456c0.00874,0.06879 -0.03998,0.13165 -0.1088,0.1404c-0.01872,0.00237 -0.03696,0.00048 -0.05386,-0.00487c0.09009,0.09697 0.10654,0.22681 0.10654,0.22681c0.01721,0.16516 0.06069,0.31326 0.11567,0.45597c0.0033,-0.01455 0.00316,-0.02932 -0.00152,-0.04413c0,0 -0.01076,-0.08479 0.05542,-0.12333c-0.00404,-0.03176 -0.00807,-0.06353 -0.01208,-0.09531l-0.03113,0.02241c0,0 -0.09929,-0.07695 -0.02233,-0.17622c0.07695,-0.09929 0.17622,-0.02233 0.17622,-0.02233l0.12647,0.14455c0.01477,0.11655 0.02954,0.23309 0.04434,0.34962c0,0 0.01578,0.12463 -0.1088,0.1404c-0.02634,0.00335 -0.04783,0.00039 -0.06531,-0.0063c-0.01579,0.02364 -0.03307,0.04643 -0.05124,0.06823c0.0595,0.1316 0.12121,0.26467 0.17291,0.4087c0.05849,-0.08801 0.15347,-0.15106 0.26653,-0.16537c0.20646,-0.02618 0.39504,0.11998 0.42121,0.32642c0.02618,0.20646 -0.11998,0.39504 -0.32642,0.42121zM332.74176,193.71333c0.00425,0.0337 -0.00524,0.06598 -0.02413,0.09115c0.0188,0.00057 0.0368,0.00538 0.05289,0.01354c0.00481,-0.00425 0.00997,-0.00814 0.01542,-0.01162l0.06494,-0.04345c-0.02281,-0.05214 -0.0477,-0.09893 -0.07532,-0.13813c-0.01301,0.02104 -0.02624,0.04207 -0.03977,0.06296c0.00282,0.00813 0.00486,0.01666 0.00598,0.02558z" fill="#a00000" fill-rule="nonzero" stroke="none" stroke-width="0.5" stroke-linecap="butt" stroke-linejoin="miter"/><path d="M335.15922,195.84712l-0.01754,-0.00158c-0.16021,0.04399 -0.3204,0.08802 -0.48061,0.13198c0,0 -0.03255,0.00896 -0.08087,0.01173c-0.01353,0.00324 -0.02736,0.00581 -0.04148,0.00759c-0.20646,0.02618 -0.39504,-0.11998 -0.42121,-0.32642c-0.02618,-0.20646 0.11998,-0.39504 0.32642,-0.42121c0.01116,-0.0014 0.02232,-0.00235 0.03337,-0.00275c0.15492,-0.04254 0.30984,-0.08508 0.46479,-0.12763l0.12231,-0.01932c0,0 0.37384,-0.04738 0.42121,0.32642c0.04738,0.37384 -0.32642,0.42121 -0.32642,0.42121z" fill="#a00000" fill-rule="nonzero" stroke="none" stroke-width="0.5" stroke-linecap="butt" stroke-linejoin="miter"/><path d="M333.85563,202.54159c0.06587,-0.92403 1.53042,-2.28759 1.21298,-3.2859c-0.0996,-0.05642 -0.21583,-0.1715 -0.17177,-0.39389c0.04855,-0.24502 0.22734,-0.29538 0.34238,-0.30156c0.13059,-0.04111 0.23119,-0.00601 0.30276,0.04584l0.03795,0.00762c1.8228,0.47488 3.69108,0.7533 5.46034,1.38062c0.45406,0.161 1.94078,0.1481 1.65106,1.09963c-0.11503,0.37781 -1.87148,0.42993 -2.18924,0.4702c-1.09535,0.13885 -2.18993,0.28738 -3.28647,0.4166c-0.17334,0.02043 -0.80255,0.12578 -0.89621,0.32695c-0.04564,0.09804 0.42181,0.8013 0.48206,0.90985c0.55064,0.99238 0.47886,2.14587 1.03709,3.13679c0.37309,0.68245 0.63792,2.82049 -0.82561,1.91297c-0.3502,-0.21716 -0.69534,-1.11775 -1.03484,-1.43264c-1.31765,-1.22221 -2.18147,-2.16372 -2.96776,-3.79896c0,0 -0.16317,-0.33964 0.17647,-0.50279c0.33964,-0.16317 0.50279,0.17647 0.50279,0.17647c0.017,0.03535 0.03393,0.07047 0.05089,0.10528c-0.00544,-0.11349 0.04137,-0.20752 0.04137,-0.20752z" fill="#ffffff" fill-rule="nonzero" stroke="none" stroke-width="0.5" stroke-linecap="butt" stroke-linejoin="miter"/><path d="M338.35709,208.03965c-0.00485,0.0088 -0.00978,0.01749 -0.01486,0.02611l-0.1367,-0.10049c-0.00582,0.00092 -0.01177,0.00179 -0.01778,0.00253c-0.08302,0.01049 -0.14992,0.00028 -0.20381,-0.02202c0.02313,0.11768 0.04255,0.24026 0.05947,0.37102c0,0 0.04738,0.37384 -0.32642,0.42121c-0.37384,0.04738 -0.42121,-0.32642 -0.42121,-0.32642c-0.00306,-0.02477 -0.00621,-0.04912 -0.00945,-0.07302l-0.24617,-0.45971c-0.03496,-0.03624 -0.06597,-0.08177 -0.09296,-0.13551c-0.03988,0.07705 -0.08487,0.16166 -0.13515,0.25565l-0.50974,-0.70899c0.02289,-0.10481 0.04576,-0.20957 0.06864,-0.31435c-0.24698,-0.12705 -0.41593,-0.30031 -0.39728,-0.58778c0.0211,-0.32502 0.29395,-0.58134 0.44094,-0.872l0.22384,0.29762c0.04006,-0.09038 0.08017,-0.18071 0.12022,-0.27106l0.25086,0.32361c0.01621,-0.07342 0.03434,-0.14597 0.05419,-0.21739l0.63139,0.56341c0.03083,0.13471 0.03359,0.27746 0.01421,0.41824c0.24169,0.13806 0.46493,0.31168 0.65124,0.51385l0.07511,-0.0629c0.03389,0.07233 0.05565,0.15074 0.06682,0.23205c0.05267,0.06929 0.10109,0.14124 0.14468,0.21568l-0.2901,0.51069z" fill="#a00000" fill-rule="nonzero" stroke="none" stroke-width="0.5" stroke-linecap="butt" stroke-linejoin="miter"/><path d="M340.72964,201.67749c-0.37384,0.04738 -0.42121,-0.32642 -0.42121,-0.32642l-0.00522,-0.05676c-0.09507,-0.0575 -0.16388,-0.15635 -0.17895,-0.27513c-0.01043,-0.08215 0.00646,-0.16148 0.04357,-0.22888l-0.27459,-0.61892c-0.01647,-0.03494 -0.02783,-0.07303 -0.03296,-0.11345c-0.02618,-0.20646 0.11998,-0.39504 0.32642,-0.42121c0.16046,-0.02036 0.3101,0.06339 0.38112,0.19865l0.11185,0.20155l0.04083,-0.11263c0.10998,0.1017 0.20589,0.19885 0.28754,0.29069c0.04829,-0.03352 0.1051,-0.05626 0.16748,-0.0642c0.16046,-0.02036 0.3101,0.06339 0.38112,0.19865l0.08733,0.15739c0.05851,-0.0878 0.15338,-0.15068 0.26624,-0.16498c0.04799,-0.00607 0.09504,-0.00285 0.13927,0.0083c0.12694,-0.04732 0.23513,-0.03967 0.27039,0.0829c0.00909,-0.00185 0.01825,-0.00335 0.02759,-0.00454c0.20646,-0.02618 0.39504,0.11998 0.42121,0.32642c0.00294,0.02335 0.00375,0.04651 0.00243,0.06921l-0.01161,0.29652l0.05649,0.02992c-0.02009,0.01701 -0.03994,0.0335 -0.05957,0.04949l-0.00155,0.03917c-0.00392,0.18357 -0.14173,0.34148 -0.32937,0.3653c-0.0834,0.01057 -0.1638,-0.00695 -0.23185,-0.04522c-0.22025,0.09043 -0.37727,0.07602 -0.46629,-0.01974c-0.23665,0.02426 -0.45071,-0.12594 -0.66945,-0.23983c-0.00068,0.09996 -0.03357,0.34031 -0.32834,0.37768z" fill="#a00000" fill-rule="nonzero" stroke="none" stroke-width="0.5" stroke-linecap="butt" stroke-linejoin="miter"/><path d="M333.36322,209.33634c-0.02618,-0.20646 0.11998,-0.39504 0.32642,-0.42121c0.20646,-0.02618 0.39504,0.11998 0.42121,0.32642c0.02618,0.20646 -0.11998,0.39504 -0.32642,0.42121c-0.20646,0.02618 -0.39504,-0.11998 -0.42121,-0.32642z" fill="#a00000" fill-rule="nonzero" stroke="none" stroke-width="0.5" stroke-linecap="butt" stroke-linejoin="miter"/><path d="M330.42714,210.86083l0.22536,-0.14745c0.33874,-0.29016 0.72178,-0.52802 1.11123,-0.74541c0,0 0.32948,-0.18284 0.51231,0.14663c0.18284,0.32948 -0.14663,0.51231 -0.14663,0.51231c-0.34554,0.19047 -0.68689,0.39806 -0.98458,0.65706l-0.29855,0.20317c0,0 -0.31315,0.20955 -0.52271,-0.10361c-0.20955,-0.31315 0.10361,-0.52271 0.10361,-0.52271z" fill="#a00000" fill-rule="nonzero" stroke="none" stroke-width="0.5" stroke-linecap="butt" stroke-linejoin="miter"/><path d="M329.44149,211.46762c-0.02618,-0.20646 0.11998,-0.39504 0.32642,-0.42121c0.20646,-0.02618 0.39504,0.11998 0.42121,0.32642c0.02618,0.20646 -0.11998,0.39504 -0.32642,0.42121c-0.20646,0.02618 -0.39504,-0.11998 -0.42121,-0.32642z" fill="#a00000" fill-rule="nonzero" stroke="none" stroke-width="0.5" stroke-linecap="butt" stroke-linejoin="miter"/><path d="M327.98195,211.72371c-0.02618,-0.20646 0.11998,-0.39504 0.32642,-0.42121c0.20646,-0.02618 0.39504,0.11998 0.42121,0.32642c0.02618,0.20646 -0.11998,0.39504 -0.32642,0.42121c-0.20646,0.02618 -0.39504,-0.11998 -0.42121,-0.32642z" fill="#a00000" fill-rule="nonzero" stroke="none" stroke-width="0.5" stroke-linecap="butt" stroke-linejoin="miter"/><path d="M334.36682,208.28549c-0.02618,-0.20646 0.11998,-0.39504 0.32642,-0.42121c0.20646,-0.02618 0.39504,0.11998 0.42121,0.32642c0.02618,0.20646 -0.11998,0.39504 -0.32642,0.42121c-0.20646,0.02618 -0.39504,-0.11998 -0.42121,-0.32642z" fill="#a00000" fill-rule="nonzero" stroke="none" stroke-width="0.5" stroke-linecap="butt" stroke-linejoin="miter"/><path d="M339.98838,203.30994c-0.02618,-0.20646 0.11998,-0.39504 0.32642,-0.42121c0.20646,-0.02618 0.39504,0.11998 0.42121,0.32642c0.02618,0.20646 -0.11998,0.39504 -0.32642,0.42121c-0.20646,0.02618 -0.39504,-0.11998 -0.42121,-0.32642z" fill="#a00000" fill-rule="nonzero" stroke="none" stroke-width="0.5" stroke-linecap="butt" stroke-linejoin="miter"/><path d="M339.15122,204.55283c-0.02618,-0.20646 0.11998,-0.39504 0.32642,-0.42121c0.20646,-0.02618 0.39504,0.11998 0.42121,0.32642c0.02618,0.20646 -0.11998,0.39504 -0.32642,0.42121c-0.20646,0.02618 -0.39504,-0.11998 -0.42121,-0.32642z" fill="#a00000" fill-rule="nonzero" stroke="none" stroke-width="0.5" stroke-linecap="butt" stroke-linejoin="miter"/><path d="M338.07773,205.6126c-0.02618,-0.20646 0.11998,-0.39504 0.32642,-0.42121c0.20646,-0.02618 0.39504,0.11998 0.42121,0.32642c0.02618,0.20646 -0.11998,0.39504 -0.32642,0.42121c-0.20646,0.02618 -0.39504,-0.11998 -0.42121,-0.32642z" fill="#a00000" fill-rule="nonzero" stroke="none" stroke-width="0.5" stroke-linecap="butt" stroke-linejoin="miter"/><path d="M363.62035,183.52538c0.34514,-0.04376 0.67529,0.057 0.92969,0.25508c0.23643,-0.14206 0.55738,-0.21079 0.98431,-0.08241c0.68094,0.20478 0.86044,0.67912 0.88803,1.05219c0.50017,0.07746 0.91628,0.45392 1.03166,0.96158l0.31903,1.32228l-0.18098,0.04368l0.20804,0.39204c-1.00456,2.15792 -3.25107,6.15702 -5.02438,1.71907c-0.06103,-0.15268 -0.10557,-0.30257 -0.13576,-0.44992c-0.26551,-0.19681 -0.45335,-0.49744 -0.49822,-0.85118c-0.08034,-0.63379 0.3265,-1.21703 0.92887,-1.37339c0.09008,-0.18776 0.18613,-0.37442 0.28195,-0.56102c-0.42957,-0.1551 -0.75894,-0.53977 -0.82035,-1.02399c-0.08722,-0.68818 0.3999,-1.31675 1.08809,-1.404z" fill="#ffffff" fill-rule="nonzero" stroke="none" stroke-width="0.5" stroke-linecap="butt" stroke-linejoin="miter"/><path d="M360.82603,189.58557c-0.08211,-0.64778 0.34469,-1.24276 0.96902,-1.38313c-0.06285,-0.12454 -0.10586,-0.26176 -0.12442,-0.40806c-0.06628,-0.52294 0.19906,-1.01147 0.63226,-1.25416c0.02021,-0.26534 0.12425,-0.51171 0.28849,-0.70848c-0.18148,-0.18811 -0.30602,-0.43427 -0.34143,-0.71351c-0.08722,-0.68818 0.3999,-1.31675 1.08809,-1.404c0.68818,-0.08722 1.31675,0.3999 1.404,1.08809c0.04569,0.36045 -0.06618,0.70453 -0.28199,0.96308c0.18148,0.18811 0.30602,0.43427 0.34143,0.71351c0.06628,0.52294 -0.19906,1.01147 -0.63226,1.25416c-0.04135,0.54333 -0.4342,1.00681 -0.97552,1.12855c0.06285,0.12454 0.10586,0.26176 0.12442,0.40806c0.08722,0.68818 -0.3999,1.31675 -1.08809,1.404c-0.68818,0.08722 -1.31675,-0.3999 -1.404,-1.08809z" fill="#a00000" fill-rule="nonzero" stroke="none" stroke-width="0.5" stroke-linecap="butt" stroke-linejoin="miter"/></g></g></g></svg>