<svg version="1.1" xmlns="http://www.w3.org/2000/svg" xmlns:xlink="http://www.w3.org/1999/xlink" width="980.48048" height="630.63063" viewBox="0,0,980.48048,630.63063"><g transform="translate(145.24024,130.31529)"><g data-paper-data="{&quot;isPaintingLayer&quot;:true}" stroke-miterlimit="10" stroke-dasharray="" stroke-dashoffset="0" style="mix-blend-mode: normal"><path d="M-145.24024,500.31534v-630.63063h980.48048v630.63063z" fill="#000000" fill-rule="nonzero" stroke="#ff3838" stroke-width="0" stroke-linecap="butt" stroke-linejoin="miter"/><text transform="translate(304.71471,259.28905) scale(0.5,0.5)" font-size="40" xml:space="preserve" fill="#ffffff" fill-rule="nonzero" stroke="none" stroke-width="1" stroke-linecap="butt" stroke-linejoin="miter" stroke-miterlimit="10" stroke-dasharray="" stroke-dashoffset="0" font-family="Marker" font-weight="normal" text-anchor="start" style="mix-blend-mode: normal"><tspan x="0" dy="0">Loading</tspan></text><g><path d="M349.14822,185.79085c0.13055,-0.50051 3.76646,-1.54414 4.72801,-2.98778c0.65095,-1.04558 1.36637,-2.37694 1.39956,-4.01231c0.12757,-3.69857 0.8605,-3.01024 2.94194,-3.66253c2.11614,-0.68862 3.75521,-0.22369 0.97613,5.59728c-0.9484,2.0119 -2.26673,3.39274 -3.37857,4.48454c-0.27755,0.2907 -2.92577,2.55517 -4.9939,2.24769c-2.06814,-0.30747 -1.80539,-1.23745 -1.6732,-1.66693z" fill="#000000" fill-rule="evenodd" stroke="#001026" stroke-width="1.2" stroke-linecap="round" stroke-linejoin="round"/><path d="M351.08354,191.78477c-1.02584,0.20143 -2.74046,-0.18529 -2.6114,-2.28483c0.12085,-2.4547 3.06124,-2.84258 4.30018,-3.04895c1.23895,-0.20636 1.91291,-0.2575 4.20417,-1.05678c0.91683,-0.30551 1.97079,-0.82739 2.53246,-1.12468c0.2098,-0.14699 0.38327,-0.32869 0.48407,-0.57977c0.16689,-0.46581 -4.15219,2.1387 -2.98429,1.93398c1.27589,-0.11045 0.95409,-1.25479 1.12438,0.72176c0.01957,0.22706 0.03057,-0.40041 0.07713,-0.16345c0.43812,2.22965 1.34638,0.63513 0.1371,1.29288c-2.52588,1.4088 -1.89045,2.89115 -2.17277,1.44075c-0.07597,-0.21145 -0.67917,-0.64843 -0.85428,-0.53777l2.25792,1.08736c-0.53118,0.29161 0.9005,-0.09193 0.37365,0.14799c-0.58478,0.26631 -2.19006,0.69827 -2.74712,0.90723c-2.38897,0.89615 -3.38638,1.09952 -4.12122,1.26425z" fill="#000000" fill-rule="evenodd" stroke="#001026" stroke-width="1.2" stroke-linecap="round" stroke-linejoin="round"/><path d="M338.16911,189.82604c0.04473,-1.13815 1.47866,-2.13079 2.53082,-1.19572c0.94478,0.90203 1.19735,2.60185 1.36244,3.59299c0.1651,0.99115 0.3662,5.07299 -3.15412,6.50482c-1.55118,0.53339 -5.94527,1.06155 -5.89545,-1.39149c0.0498,-2.45305 2.68456,-2.22977 4.28029,-2.37333c1.34795,-0.10228 0.84791,-4.81683 0.87603,-5.13729z" fill="#000000" fill-rule="evenodd" stroke="#001026" stroke-width="1.2" stroke-linecap="round" stroke-linejoin="round"/><g fill-rule="evenodd"><path d="M346.63559,192.59889c-0.74337,0.12381 -1.70477,0.03947 -3.09562,-0.17707c-1.14143,-0.18679 -2.97164,-0.96171 -2.97164,-0.96171c-1.22068,-0.54029 -3.17307,-1.98755 -1.99186,-3.15201c0.79958,-0.76475 1.38445,-1.59559 2.38234,-3.00453c1.64554,-2.5966 1.73647,-3.27386 4.09366,-2.75989c2.68094,0.68415 6.34662,-0.6089 6.41372,5.35939c0,0 -0.31913,3.09892 -0.25844,7.25507c0.02943,2.80657 -0.12132,7.0387 -0.19415,8.4973c-0.02812,0.32046 -0.1636,0.60787 -0.33542,0.86059c-3.03822,3.83702 -5.89953,6.10643 -7.46206,4.61461c-2.61634,-2.49793 3.25327,-6.82693 3.25327,-6.82693c0,0 0.17871,-3.0246 0.21686,-4.44687z" fill="#000000" stroke="#001026" stroke-width="1.2" stroke-linecap="round" stroke-linejoin="round"/><path d="M342.67444,191.87326c0,0 -1.56763,-0.17692 -1.05694,-2.67617c0.5074,-2.64132 2.26001,-2.14888 3.7566,-1.97032c1.82035,0.34874 1.67154,1.5959 1.63178,2.94714c-0.01003,1.1018 -0.09437,2.06319 -0.09437,2.06319c0,0 -1.83859,0.39792 -4.23705,-0.36385z" fill="#a00000" stroke="none" stroke-width="1" stroke-linecap="butt" stroke-linejoin="miter"/></g><g fill-rule="evenodd"><path d="M319.55583,171.70783c0.65259,-0.97455 1.41255,-1.91605 2.45665,-2.86413c1.70326,-1.6385 3.88222,-2.68393 3.88222,-2.68393l1.3272,-7.13767c0.0661,-0.21473 0.34858,-0.29234 0.45923,-0.11724l5.77594,6.97323c-0.49886,-0.05951 8.32877,0.58893 10.00807,7.12398c1.6793,6.53505 -1.70619,13.79146 -9.57305,19.33934c-7.86687,5.54789 -13.31789,3.39987 -14.97283,0.98629c-1.65494,-2.41358 0.04519,-5.72214 0.04519,-5.72214c0,0 -1.60052,-1.59754 -2.48892,-4.66849c-0.53998,-1.8353 -0.02748,-5.79153 -0.02748,-5.79153l-2.98613,-4.65699c-0.11065,-0.17512 0.02648,-0.3915 0.20323,-0.43112z" fill="#000000" stroke="#001026" stroke-width="1.2" stroke-linecap="butt" stroke-linejoin="miter"/><path d="M319.21389,187.63533c2.25851,-3.74789 4.82537,-1.85292 7.50497,-4.29579c3.13228,-2.84423 3.81525,-10.18021 10.0279,-8.90265c6.1763,1.24286 7.41922,10.41759 -2.79349,17.4767c-7.76115,5.50991 -13.16924,3.68071 -14.82418,1.26713c-1.65494,-2.41357 0.08482,-5.54539 0.08482,-5.54539z" fill="#000000" stroke="none" stroke-width="1" stroke-linecap="butt" stroke-linejoin="miter"/><path d="M334.0305,179.90105c1.88464,1.59096 3.89803,4.13839 1.10432,7.79207c-3.42478,4.02363 -7.46848,2.80248 -8.76186,2.1928c-0.25108,-0.10079 -0.294,-0.41962 -0.08418,-0.56661c0.62941,-0.44099 1.84861,-1.49972 3.61305,-3.56606c1.93625,-2.31905 3.22829,-4.8364 3.6331,-5.76968c0.10243,-0.18004 0.35023,-0.22131 0.49557,-0.08254z" fill="#000000" stroke="#001026" stroke-width="1.2" stroke-linecap="round" stroke-linejoin="round"/><path d="M318.77574,191.73197c0,0 -2.53427,2.58164 -5.54571,2.97118" fill="none" stroke="#001026" stroke-width="1.2" stroke-linecap="round" stroke-linejoin="round"/><path d="M320.7809,193.92423c0,0 -0.66261,2.07635 -3.02999,4.19219" fill="none" stroke="#001026" stroke-width="1.2" stroke-linecap="round" stroke-linejoin="round"/><path d="M327.98116,181.07163c0.58141,0.55509 0.03272,2.94863 -0.66443,3.53333c-0.59144,0.54671 -2.12929,0.12036 -2.60333,-0.40168c-0.21967,-0.2792 0.47091,-1.14802 1.19947,-1.91112c0.69387,-0.72676 1.66693,-1.67319 2.06828,-1.22053z" fill="#001026" stroke="#000000" stroke-width="1.2" stroke-linecap="round" stroke-linejoin="round"/><path d="M338.92588,171.86346c0.08779,-2.34731 2.05396,-6.4438 2.05396,-6.4438" fill="none" stroke="#001026" stroke-width="1.2" stroke-linecap="round" stroke-linejoin="round"/><path d="M344.37079,169.14335c0,0 -2.16759,3.07063 -4.27716,4.04339" fill="none" stroke="#001026" stroke-width="1.2" stroke-linecap="round" stroke-linejoin="round"/><g fill="#a00000"><path d="M319.43139,177.07647c1.6255,-0.39299 3.44404,1.41273 4.07313,4.02773c0.59441,2.65134 -0.23839,5.05145 -1.86389,5.44444c-1.6255,0.39299 -3.44404,-1.41273 -4.07313,-4.02773c-0.6291,-2.61502 0.20205,-5.08615 1.86389,-5.44444z" stroke="#001026" stroke-width="1.2" stroke-linecap="round" stroke-linejoin="round"/><path d="M319.77753,184.35309c-0.39971,-0.38161 -0.44921,-0.98457 -0.10228,-1.34795c0.34694,-0.36339 0.95153,-0.34184 1.35125,0.03979c0.39971,0.38161 0.44921,0.98457 0.10228,1.34795c-0.34694,0.36339 -0.95153,0.34184 -1.35125,-0.03979" stroke="none" stroke-width="1" stroke-linecap="butt" stroke-linejoin="miter"/></g><g><path d="M327.18894,174.4805c-0.55809,-2.61666 0.2004,-5.15718 2.11167,-5.4857c1.87493,-0.36322 3.87681,1.68697 4.40018,4.33997c0.55809,2.61666 -0.45971,4.70124 -2.29501,5.24121c-1.62715,0.32195 -3.65879,-1.47881 -4.21686,-4.09546z" fill="#ffffff" stroke="#001026" stroke-width="1.2" stroke-linecap="round" stroke-linejoin="round"/><path d="M329.5047,176.27468c-0.39971,-0.38161 -0.41287,-0.94989 -0.10228,-1.34795c0.34694,-0.36339 0.95153,-0.34184 1.35125,0.03979c0.39971,0.38161 0.44921,0.98457 0.10228,1.34795c-0.34694,0.36339 -0.95153,0.34184 -1.35125,-0.03979" fill="#001026" stroke="none" stroke-width="1" stroke-linecap="butt" stroke-linejoin="miter"/></g></g><path d="M330.14712,177.74269c0,0 -0.04487,0.14579 -0.16223,0.27156c0.12,0.13269 0.27556,0.26713 0.50487,0.41994c0.57152,0.54268 1.14152,1.0869 1.71155,1.63114l0.42671,0.25599c0,0 0.53045,0.33616 0.19429,0.86662c-0.33617,0.53045 -0.86662,0.19429 -0.86662,0.19429l-0.62171,-0.40844c-0.54505,-0.52039 -1.09025,-1.04059 -1.63366,-1.56268c-1.31264,-0.90806 -2.46942,-2.76933 -3.16144,-4.05657c-0.55898,-1.03975 -0.04888,-2.23315 -0.67997,-3.34162c-0.23359,-0.41028 -0.82919,-0.49916 -1.11204,-0.87717c-0.14494,-0.19372 -0.0481,-0.5083 -0.19778,-0.6984c-0.79123,-1.00482 -1.15634,-0.91651 -1.35421,-2.3046c0,0 -0.08377,-0.62239 0.53862,-0.70616c0.62239,-0.08377 0.70616,0.53862 0.70616,0.53862c0.20955,1.68218 1.68864,2.10589 2.49761,3.40375c0.55478,0.89005 0.63187,1.99951 0.5806,2.96473c-0.00203,0.03839 -0.002,0.07344 -0.00006,0.10558c0.12565,-0.04797 0.23404,-0.05047 0.23404,-0.05047c0.22945,-0.00531 0.45888,-0.01062 0.68831,-0.01593l0.53624,0.25765c0,0 0.45422,0.43366 0.02056,0.8879c-0.28989,0.30364 -0.58897,0.2105 -0.75542,0.11539c-0.00695,0.00016 -0.0139,0.00033 -0.02084,0.00048c-0.00196,0.13525 -0.0052,0.27104 0.0491,0.38986c0.15054,0.3293 0.5254,0.48897 0.80931,0.72414c0.04608,-0.18676 0.16975,-0.31628 0.16975,-0.31628l1.13848,0.53039c-0.08006,0.26011 -0.16013,0.52023 -0.2402,0.78033z" fill="#a00000" fill-rule="nonzero" stroke="none" stroke-width="0.5" stroke-linecap="butt" stroke-linejoin="miter"/><path d="M331.57355,183.02464c-0.33617,0.53045 -0.86662,0.19429 -0.86662,0.19429l-0.45581,-0.2946c-0.24663,-0.11697 -0.49327,-0.23394 -0.7399,-0.35091c-0.58759,-0.40154 -1.54323,-0.6546 -1.99689,-1.21188c-0.39347,-0.48333 -0.60099,-1.3493 -0.89663,-1.90708c-0.8197,-1.54647 -1.803,-3.27026 -2.82059,-4.68247c-0.90367,-1.25414 -2.7368,-2.42901 -3.87939,-3.51987c0,0 -0.45422,-0.43366 -0.02056,-0.8879c0.43366,-0.45422 0.8879,-0.02056 0.8879,-0.02056c1.21897,1.16381 3.05611,2.36139 4.03553,3.70028c1.05862,1.44718 2.06963,3.23831 2.90907,4.8265c0.02715,0.05138 0.66536,1.57619 0.73575,1.67074c0.29133,0.39134 1.26337,0.66734 1.66857,0.9415c0.21756,0.10185 0.43512,0.2037 0.65268,0.30553l0.59259,0.36981c0,0 0.53045,0.33616 0.19429,0.86662z" fill="#a00000" fill-rule="nonzero" stroke="none" stroke-width="0.5" stroke-linecap="butt" stroke-linejoin="miter"/><path d="M328.84334,195.50569c-0.62785,0.01453 -0.64238,-0.6133 -0.64238,-0.6133l0.01845,-0.4974c-1.37345,-1.67742 -2.78162,-3.40814 -4.07675,-5.15343c-1.01828,-1.37218 -2.90388,-1.81644 -2.22263,-3.83456c0,0 0.23396,-0.5828 0.81675,-0.34885c0.5828,0.23395 0.34884,0.81676 0.34884,0.81676c-0.42799,0.77322 0.92953,1.51427 1.46334,2.02925c1.81284,1.7489 3.40885,4.0205 4.85735,6.07996l0.05033,0.87923c0,0 0.01454,0.62783 -0.6133,0.64238z" fill="#a00000" fill-rule="nonzero" stroke="none" stroke-width="0.5" stroke-linecap="butt" stroke-linejoin="miter"/><path d="M327.41006,196.21575c-0.43366,0.45422 -0.8879,0.02056 -0.8879,0.02056l-0.4209,-0.41366c-1.3793,-1.83947 -2.97284,-3.4293 -4.2032,-5.37681c-0.76741,-1.21471 -1.09038,-2.74221 -1.95069,-3.86408c0,0 -0.37675,-0.50244 0.12569,-0.8792c0.50244,-0.37675 0.8792,0.12569 0.8792,0.12569c0.87986,1.19409 1.22043,2.70166 2.01833,3.96393c1.20833,1.91157 2.77963,3.46868 4.13557,5.27697l0.28335,0.25872c0,0 0.45422,0.43366 0.02056,0.8879z" fill="#a00000" fill-rule="nonzero" stroke="none" stroke-width="0.5" stroke-linecap="butt" stroke-linejoin="miter"/><path d="M330.2801,172.04466c-0.34542,0.52447 -0.8699,0.17906 -0.8699,0.17906l-0.08749,-0.05762c-1.54393,-1.23387 -1.52251,-1.33315 -0.47839,-2.87694c0,0 0.35308,-0.51934 0.87244,-0.16625c0.51934,0.35308 0.16625,0.87244 0.16625,0.87244c-0.19297,0.28215 -0.89398,0.53704 -0.65924,0.78553c0.19648,0.20799 0.52653,0.22417 0.78979,0.33626l0.08749,0.05762c0,0 0.52447,0.34542 0.17906,0.8699z" fill="#a00000" fill-rule="nonzero" stroke="none" stroke-width="0.5" stroke-linecap="butt" stroke-linejoin="miter"/><path d="M331.34269,173.91451c-0.45422,-0.43366 -0.02056,-0.8879 -0.02056,-0.8879l0.08406,-0.08804c0.3362,-0.35213 0.6724,-0.70426 1.00859,-1.05639c0,0 0.43366,-0.45422 0.8879,-0.02056c0.45422,0.43366 0.02056,0.8879 0.02056,0.8879c-0.33619,0.35213 -0.75643,0.79229 -1.09261,1.14442c0,0 -0.43366,0.45422 -0.8879,0.02056z" fill="#a00000" fill-rule="nonzero" stroke="none" stroke-width="0.5" stroke-linecap="butt" stroke-linejoin="miter"/><path d="M331.30032,176.31212c-0.01453,-0.62784 0.6133,-0.64238 0.6133,-0.64238l0.74167,0.33007c0.12003,0.22679 0.24008,0.45357 0.36009,0.68034c0,0 0.29377,0.55506 -0.26128,0.84883c-0.55504,0.29378 -0.84883,-0.26127 -0.84883,-0.26127c-0.06763,-0.12776 -0.13524,-0.25552 -0.20287,-0.38327c-0.17891,-0.06013 -0.39366,-0.20817 -0.4021,-0.57233z" fill="#a00000" fill-rule="nonzero" stroke="none" stroke-width="0.5" stroke-linecap="butt" stroke-linejoin="miter"/><path d="M360.78802,183.81037c-0.07441,0.62357 -0.69798,0.54918 -0.69798,0.54918l-0.15312,-0.19323c-0.301,0.22425 -0.57434,0.46822 -0.84622,0.71366c-0.01696,0.11515 -0.05511,0.19609 -0.05511,0.19609c-0.1008,0.2109 -0.17308,0.43799 -0.3024,0.63271c-0.04924,0.07416 -0.28881,0.09724 -0.21914,0.15263c0.20738,0.16481 0.72418,0.00406 0.7482,0.26787c0.04399,0.48311 -0.35572,0.9072 -0.60326,1.3244c-0.13905,0.23433 -0.88398,0.34207 -0.65477,0.4894c0.18379,0.11812 0.57998,0.02754 0.60825,0.24418c0.11962,0.91616 -0.66939,2.20888 -1.88098,1.54676c-0.35332,-0.19309 -0.17924,-0.78505 -0.26886,-1.1776l0.25766,-0.53625c0,0 0.08421,-0.08819 0.21725,-0.14975c0.02875,-0.1825 0.09392,-0.39307 0.20525,-0.62887c0.11451,-0.24251 0.32908,-0.43442 0.5485,-0.58862c0.11034,-0.07753 0.51776,-0.0154 0.39735,-0.07613c-0.18987,-0.09574 -0.55312,0.15125 -0.6364,-0.04442c-0.11537,-0.27109 -0.10464,-0.56104 -0.03391,-0.84717c-0.04558,-0.03638 -0.09043,-0.08246 -0.13363,-0.14007c-0.37675,-0.50244 0.12569,-0.8792 0.12569,-0.8792c0.63211,-0.47091 1.1423,-1.02893 1.77298,-1.50451l1.05543,-0.04905c0,0 0.62357,0.07441 0.54918,0.69798z" fill="#a00000" fill-rule="nonzero" stroke="none" stroke-width="0.5" stroke-linecap="butt" stroke-linejoin="miter"/><path d="M362.85285,187.20322c0.01453,0.62784 -0.6133,0.64238 -0.6133,0.64238l-0.66895,-0.00326c-0.23077,-0.05204 -0.46153,-0.10409 -0.69231,-0.15615c0,0 -0.61262,-0.13817 -0.47445,-0.75078c0.13817,-0.61262 0.75078,-0.47445 0.75078,-0.47445c0.23077,0.05205 0.46155,0.1041 0.69231,0.15615l0.36353,-0.02717c0,0 0.62784,-0.01453 0.64238,0.6133z" fill="#a00000" fill-rule="nonzero" stroke="none" stroke-width="0.5" stroke-linecap="butt" stroke-linejoin="miter"/><path d="M363.22029,190.20237l-0.61225,-0.41626c0,0 -0.51934,-0.35308 -0.16625,-0.87244c0.35308,-0.51934 0.87244,-0.16625 0.87244,-0.16625l0.61225,0.41626c0,0 0.51934,0.35308 0.16625,0.87244c-0.35308,0.51934 -0.87244,0.16625 -0.87244,0.16625z" fill="#a00000" fill-rule="nonzero" stroke="none" stroke-width="0.5" stroke-linecap="butt" stroke-linejoin="miter"/><path d="M366.88618,184.32861c0.21233,0.59101 -0.37869,0.80336 -0.37869,0.80336l-0.60663,0.11361c-0.23077,-0.05205 -0.46155,-0.1041 -0.69231,-0.15615c0,0 -0.18592,-0.04194 -0.32981,-0.18202c-0.21935,0.08369 -0.47688,0.0404 -0.658,-0.1325c-0.25086,-0.23951 -0.26007,-0.63704 -0.02056,-0.8879c0.23951,-0.25086 0.63704,-0.26007 0.8879,-0.02056c0.00708,0.00676 0.01395,0.01364 0.02065,0.02064c0.19016,-0.06483 0.37617,-0.02287 0.37617,-0.02287c0.23077,0.05205 0.46155,0.1041 0.69231,0.15615l-0.09437,-0.07042c0,0 0.59102,-0.21231 0.80336,0.37869z" fill="#a00000" fill-rule="nonzero" stroke="none" stroke-width="0.5" stroke-linecap="butt" stroke-linejoin="miter"/><path d="M357.33326,187.87311c-0.62784,0.01453 -0.64238,-0.6133 -0.64238,-0.6133l0.04107,-0.42057c0.00373,-0.00932 0.00749,-0.01864 0.01123,-0.02797c-0.16988,-0.06088 -0.49207,-0.23886 -0.41101,-0.69938c0.10887,-0.61849 0.72738,-0.50962 0.72738,-0.50962l0.30879,0.06673c0.46388,-0.00789 0.83959,-0.078 1.09746,0.04069c0.08708,-0.04608 0.18288,-0.07032 0.27917,-0.07256l0.68832,-0.01593v0c0.16068,-0.00372 0.32276,0.05385 0.44822,0.17361c0.17787,0.16982 0.23424,0.41909 0.16663,0.63919l0.40265,0.15034c0.08227,0.02861 0.15989,0.07488 0.227,0.13895c0.25086,0.23951 0.26007,0.63704 0.02056,0.8879c-0.07284,0.0763 -0.16029,0.13022 -0.25379,0.16161l-0.75649,0.27178l-0.0025,-0.00696l-0.02033,0.01468c-0.50377,0.13558 -1.02614,0.21778 -1.54761,0.23306c0,0 -0.50059,0.01159 -0.61813,-0.43292c-0.04967,0.01196 -0.10486,0.01923 -0.16618,0.02065zM358.03928,187.03405c-0.00969,-0.00246 -0.0194,-0.00492 -0.02911,-0.00738c-0.00167,0.00417 -0.00335,0.00832 -0.00502,0.01249c0.01253,-0.00216 0.02399,-0.00383 0.03412,-0.00512z" fill="#ffffff" fill-rule="nonzero" stroke="none" stroke-width="0.5" stroke-linecap="butt" stroke-linejoin="miter"/><path d="M332.88091,181.09912c-0.10318,-0.61947 0.51628,-0.72265 0.51628,-0.72265l0.41572,0.29666c-0.07101,-0.17916 -0.12909,-0.34871 -0.16565,-0.47518c0,0 -0.16638,-0.60555 0.43918,-0.77194c0.60556,-0.16637 0.77194,0.43918 0.77194,0.43918c0.32581,1.27848 1.95509,2.49589 -0.45194,2.68018c-0.22962,0.01758 -0.44956,-0.09772 -0.67395,-0.15186l-0.62983,0.01458l-0.00584,-0.25247l-0.62078,-0.2349c0.14969,-0.16629 0.30032,-0.33297 0.44662,-0.50317l-0.09519,-0.20866l0.07005,-0.03196c-0.00646,-0.02459 -0.01201,-0.05052 -0.01657,-0.07785z" fill="#8da900" fill-rule="nonzero" stroke="none" stroke-width="0.5" stroke-linecap="butt" stroke-linejoin="miter"/><path d="M328.12164,187.74906c0,0 -0.0144,-0.62229 0.60499,-0.64213c-0.0538,-0.20409 -0.00349,-0.43051 0.15296,-0.59436c0.11975,-0.12542 0.27901,-0.19043 0.43969,-0.19416v0l0.34761,-0.00805c0.11348,-0.09637 0.21083,-0.20683 0.28241,-0.33703l0.11667,-0.57377c0,0 0.1162,-0.51523 0.60796,-0.49412c0.05052,-0.16439 0.18631,-0.42429 0.54151,-0.44012c0.08048,-0.45895 0.22245,-1.06637 0.26341,-1.25064l0.24244,-0.38353c0,0 0.11742,-0.12297 0.29404,-0.17985c-0.03386,-0.05425 -0.06499,-0.10941 -0.09091,-0.16623c0,0 -0.26067,-0.57135 0.31067,-0.83201c0.57134,-0.26068 0.83201,0.31067 0.83201,0.31067c0.04104,0.08996 0.14588,0.31496 0.25669,0.56196c0.14517,0.00729 0.28852,0.06474 0.4019,0.17299c0.09471,0.09042 0.15497,0.20335 0.18041,0.3224c0.18281,0.15807 0.19826,0.389 0.19035,0.51664c0.00374,-0.00068 0.00748,-0.00135 0.01126,-0.00197c0.23667,-0.14314 0.54877,-0.11668 0.75843,0.08348c0.25086,0.23951 0.26007,0.63704 0.02056,0.8879c-0.10364,0.10855 -0.23689,0.17188 -0.37503,0.18935c-0.10809,0.07327 -0.22155,0.14066 -0.33907,0.20137c-0.01525,0.01908 -0.03197,0.03822 -0.05029,0.05741c-0.20328,0.21291 -0.41106,0.23074 -0.57449,0.1896c-0.20947,0.05896 -0.42394,0.0963 -0.63759,0.10854l-0.05833,0.0552c0,0 -0.21186,0.07612 -0.42747,0.01034c-0.16924,0.07011 -0.3481,0.10069 -0.53147,0.07753c0.08638,0.66348 0.89205,1.19075 0.61436,1.88178c-0.38713,0.96333 -1.74762,0.73053 -2.54314,0.55798c-0.00454,0.23089 -0.0054,0.46149 0.02157,0.69036c0.04241,0.35997 0.40665,0.77812 0.19213,1.07026c-0.25963,0.35357 -1.52429,0.31569 -1.97107,0.32329l-0.07044,-0.03643l-0.00544,0.02414l-0.68224,-0.15388c-0.11116,-0.02305 -0.21743,-0.07651 -0.30556,-0.16066c-0.25086,-0.23951 -0.26007,-0.63704 -0.02056,-0.8879c0.02338,-0.02448 0.04827,-0.04667 0.07439,-0.06655l0.66788,-0.5255l0.00918,0.01169c0.13879,-0.16385 0.28132,-0.32437 0.42921,-0.48l-0.18157,0.10404zM330.94152,186.71597c-0.00666,0.01105 -0.01326,0.02213 -0.01984,0.03326c0.02077,0.00423 0.04119,0.00837 0.06117,0.01245c-0.01391,-0.01431 -0.0277,-0.02959 -0.0413,-0.04571z" fill="#8da900" fill-rule="nonzero" stroke="none" stroke-width="0.5" stroke-linecap="butt" stroke-linejoin="miter"/><path d="M332.47319,187.93052c0.29143,-1.32215 0.50141,-1.51874 1.34901,-1.76396c0.05242,-0.42113 0.64644,-0.75145 1.22604,-0.94138l-0.07472,-0.32417c0.35605,-0.48075 0.88381,-0.87032 1.45354,-1.05272c0,0 0.60556,-0.16637 0.77195,0.43919c0.16637,0.60557 -0.43919,0.77195 -0.43919,0.77195c-0.02842,0.00546 -0.0567,0.01236 -0.08479,0.02058c0.09404,0.22106 0.05602,0.48587 -0.11693,0.67268c-0.02076,0.24121 -0.14633,0.37662 -0.27823,0.45257l-0.30231,0.49573c-0.16905,0.08474 -0.33774,0.24641 -0.50655,0.37922c0.08632,0.60128 -0.51947,0.70218 -0.51947,0.70218l-0.24924,-0.08582c-0.34902,0.36327 -0.73377,0.71078 -1.15182,1.00408l0.15381,0.20511l-0.58406,0.43796c-0.24156,0.1879 -0.59068,0.17565 -0.81868,-0.04202c-0.20434,-0.19508 -0.24834,-0.49499 -0.12821,-0.73509l0.29984,-0.63609z" fill="#8da900" fill-rule="nonzero" stroke="none" stroke-width="0.5" stroke-linecap="butt" stroke-linejoin="miter"/><path d="M335.95155,181.81676c0.08377,0.62239 -0.53862,0.70616 -0.53862,0.70616l-1.33525,-0.11242c0.03969,-0.45703 0.0794,-0.91407 0.11909,-1.3711c0,0 0.18475,-0.60023 0.78495,-0.41546c0.42497,0.1308 0.45642,0.46991 0.43858,0.65677c0.19076,0.02381 0.47639,0.12863 0.53124,0.53604z" fill="#a00000" fill-rule="nonzero" stroke="none" stroke-width="0.5" stroke-linecap="butt" stroke-linejoin="miter"/><path d="M335.2864,183.17904c0.45422,0.43366 0.02056,0.8879 0.02056,0.8879l-0.16811,0.17606c-0.21549,0.21977 -0.48178,0.38201 -0.77158,0.50423l0.07375,0.16164l-0.583,0.266c-0.22912,0.11102 -0.51268,0.0751 -0.70764,-0.11105c-0.19498,-0.18614 -0.24397,-0.46773 -0.14368,-0.70175l0.23874,-0.59468l0.04165,0.01672l0.0131,-0.12271c0.1927,-0.2073 0.3854,-0.41462 0.5781,-0.62191c0,0 0.42366,-0.44374 0.87207,-0.03531c0.15387,-0.03334 0.34311,-0.00932 0.53604,0.17489z" fill="#a00000" fill-rule="nonzero" stroke="none" stroke-width="0.5" stroke-linecap="butt" stroke-linejoin="miter"/><path d="M334.359,186.37679c0.29377,0.55506 -0.26128,0.84883 -0.26128,0.84883l-0.31635,0.16676c-0.15025,0.08032 -0.29178,0.20631 -0.43656,0.3153c0.05154,0.29918 -0.17929,0.54096 -0.17929,0.54096l-0.67239,0.70426c-0.07326,0.07675 -0.16133,0.13088 -0.25545,0.16217c-0.01074,0.01578 -0.02157,0.03155 -0.03249,0.0473l-0.14012,0.22121c0,0 -0.33617,0.53045 -0.86663,0.19429c-0.12555,-0.07957 -0.20256,-0.17002 -0.24695,-0.26174c-0.12876,-0.23216 -0.04183,-0.46529 0.02355,-0.58639c-0.1186,-0.02048 -0.23261,-0.07522 -0.32621,-0.16459c-0.19498,-0.18614 -0.24397,-0.46773 -0.14368,-0.70175l0.23874,-0.59468l0.02214,0.00888l0.0064,-0.07016c0.35121,-0.51851 0.75718,-1.00107 1.18869,-1.45493c0,0 0.43366,-0.45422 0.8879,-0.02056c0.02906,0.02774 0.05448,0.05557 0.07662,0.08335c0.07901,0.00441 0.16553,0.02685 0.25891,0.07531c0.13089,0.01521 0.25808,0.07156 0.36076,0.16956c0.00959,0.00915 0.01884,0.01855 0.02772,0.02815c0.15358,-0.05758 0.55237,-0.15291 0.78597,0.28843z" fill="#a00000" fill-rule="nonzero" stroke="none" stroke-width="0.5" stroke-linecap="butt" stroke-linejoin="miter"/><path d="M330.10397,189.8691c-0.23951,0.25086 -0.63704,0.26007 -0.8879,0.02056c-0.25086,-0.23951 -0.26007,-0.63704 -0.02056,-0.8879c0.23951,-0.25086 0.63704,-0.26007 0.8879,-0.02056c0.25086,0.23951 0.26007,0.63704 0.02056,0.8879z" fill="#a00000" fill-rule="nonzero" stroke="none" stroke-width="0.5" stroke-linecap="butt" stroke-linejoin="miter"/><path d="M333.52443,185.20028c0.22682,0.21654 0.23224,0.43821 0.18082,0.6059c0.00632,0.01186 0.01225,0.02388 0.01776,0.03604c0.06389,-0.07447 0.13634,-0.14518 0.21984,-0.2106c0.18005,-0.14106 0.40225,-0.22518 0.61386,-0.32168c0.46873,-0.49753 0.9503,-0.98009 1.40642,-1.45785l0.58834,-0.61623c0.23951,-0.25086 0.63704,-0.26007 0.8879,-0.02056c0.22799,0.21767 0.25638,0.56585 0.07987,0.81585l-0.31734,0.46675c0.22934,0.28332 0.05559,0.65192 0.05559,0.65192c-1.00353,2.12889 -2.30147,3.16748 -4.13757,4.54425l-0.58406,0.43796c-0.24156,0.1879 -0.59068,0.17565 -0.81868,-0.04202c-0.06814,-0.06506 -0.11846,-0.14177 -0.15079,-0.22404c-0.15991,0.10425 -0.45937,0.22006 -0.76834,-0.07491c-0.28586,-0.27292 -0.22006,-0.55396 -0.13201,-0.72484c-0.00183,-0.00739 -0.00356,-0.01491 -0.0052,-0.02257c-0.16444,-0.08976 -0.42932,-0.30649 -0.29807,-0.73286c0.18476,-0.60022 0.78497,-0.41547 0.78497,-0.41547c0.12192,0.06535 0.26893,0.10785 0.41328,0.15275c-0.01694,-0.14324 0.02036,-0.31152 0.18381,-0.48272c0.39446,-0.41317 0.80594,-0.09171 0.87711,-0.0302c0.10271,-0.05311 0.1881,-0.11902 0.26131,-0.19464c0.03218,-0.04796 0.06481,-0.09571 0.09789,-0.14324c-0.03931,-0.08551 -0.05848,-0.17818 -0.0573,-0.27071c-0.15531,-0.20054 -0.32605,-0.3896 -0.5101,-0.56299l0.2228,-1.14279c0,0 0.43366,-0.45422 0.8879,-0.02056zM332.29679,187.64561c0.09187,-0.01823 0.17405,-0.04333 0.24803,-0.07442z" fill="#000000" fill-rule="nonzero" stroke="none" stroke-width="0.5" stroke-linecap="butt" stroke-linejoin="miter"/><path d="M332.47186,186.91513l-0.38477,0.60715" fill="none" fill-rule="nonzero" stroke="#001026" stroke-width="1.2" stroke-linecap="round" stroke-linejoin="miter"/><path d="M332.60866,186.36358l-1.09872,2.06943" fill="none" fill-rule="nonzero" stroke="#a00000" stroke-width="1.2" stroke-linecap="round" stroke-linejoin="miter"/><path d="M333.13692,187.64754l-0.84338,-1.97462" fill="none" fill-rule="nonzero" stroke="#000000" stroke-width="1.2" stroke-linecap="round" stroke-linejoin="miter"/><path d="M330.00129,187.8697l2.7045,0.53563" fill="none" fill-rule="nonzero" stroke="#000000" stroke-width="1.2" stroke-linecap="round" stroke-linejoin="miter"/><path d="M342.23909,184.23975c-0.40355,-0.48118 0.07763,-0.88474 0.07763,-0.88474l0.54197,-0.44999c0.02826,0.00625 0.05652,0.0125 0.08478,0.01874l-0.02793,-0.05279l0.5782,-0.30603c0.17681,-0.09894 0.39195,-0.10608 0.5747,-0.0198c0.75858,-0.25455 2.00675,-0.04165 2.01847,1.14827c0.01179,1.1969 -2.08814,2.27935 -3.01573,1.34386c-0.16746,-0.1689 -0.25476,-0.36456 -0.27974,-0.56985c-0.1642,0.02784 -0.36648,-0.00612 -0.55233,-0.2277z" fill="#a00000" fill-rule="nonzero" stroke="none" stroke-width="0.5" stroke-linecap="butt" stroke-linejoin="miter"/><path d="M344.51408,183.9896c-0.23951,0.25086 -0.63704,0.26007 -0.8879,0.02056c-0.25086,-0.23951 -0.26007,-0.63704 -0.02056,-0.8879c0.23951,-0.25086 0.63704,-0.26007 0.8879,-0.02056c0.25086,0.23951 0.26007,0.63704 0.02056,0.8879z" fill="#ffffff" fill-rule="nonzero" stroke="none" stroke-width="0.5" stroke-linecap="butt" stroke-linejoin="miter"/><path d="M332.91917,186.85492l-1.00598,1.76817l-1.15641,-0.42191" fill="none" fill-rule="nonzero" stroke="#000000" stroke-width="1.2" stroke-linecap="round" stroke-linejoin="miter"/><path d="M346.50459,188.14018c0.25086,0.23951 0.26007,0.63704 0.02056,0.8879c-0.02729,0.02859 -0.05664,0.05403 -0.08758,0.07633c0.15875,-0.00221 0.31844,0.05542 0.44236,0.17372c0.25086,0.23951 0.26007,0.63704 0.02056,0.8879c-0.07995,0.08375 -0.17754,0.14059 -0.2814,0.17019c0.12834,0.23367 0.09744,0.53285 -0.09645,0.73592c-0.03762,0.03941 -0.07916,0.07286 -0.12339,0.10032c0.17407,0.24068 0.15732,0.57865 -0.05515,0.80119c-0.23951,0.25086 -0.63704,0.26007 -0.8879,0.02056c-0.0195,-0.01862 -0.03753,-0.03819 -0.05411,-0.05857c-0.24192,0.21023 -0.60862,0.20543 -0.84507,-0.02031c-0.25086,-0.23951 -0.26007,-0.63704 -0.02056,-0.8879c0.01862,-0.0195 0.0382,-0.03754 0.05857,-0.05412c-0.21023,-0.24192 -0.20543,-0.60862 0.02031,-0.84507c0.04161,-0.04359 0.08802,-0.07987 0.13758,-0.10885c-0.13353,-0.2348 -0.10417,-0.53856 0.09194,-0.74397c0.05817,-0.06092 0.12564,-0.10759 0.19808,-0.13991c-0.14689,-0.23732 -0.12159,-0.55263 0.08013,-0.76391c0.04741,-0.04966 0.10102,-0.08983 0.15844,-0.12051c-0.09733,-0.22465 -0.05763,-0.49542 0.12207,-0.68365c0.23951,-0.25086 0.63704,-0.26007 0.8879,-0.02056c0.15872,0.15155 0.22071,0.36636 0.18415,0.56726c0.00987,0.00833 0.01953,0.017 0.029,0.02604zM345.99205,189.2987c0.02729,-0.02859 0.05664,-0.05403 0.08758,-0.07633c-0.01084,0.00015 -0.02167,0.00003 -0.03249,-0.00038c-0.00508,0.00572 -0.0103,0.01137 -0.01561,0.01695c-0.05817,0.06092 -0.12564,0.10759 -0.19808,0.13991c0.01717,0.02773 0.03197,0.05652 0.04443,0.08608c0.0281,-0.05968 0.06611,-0.1159 0.11417,-0.16623zM345.81856,190.06216c0.02516,-0.01091 0.05089,-0.02006 0.07701,-0.02752c-0.01042,-0.01897 -0.01979,-0.03837 -0.0281,-0.05812c-0.01389,0.02949 -0.03018,0.05811 -0.04892,0.08562zM345.47846,191.06545c0.02557,-0.02222 0.05251,-0.04204 0.08057,-0.05945c-0.00664,-0.00919 -0.01302,-0.01853 -0.01911,-0.02799c-0.00525,0.00592 -0.01062,0.01178 -0.01614,0.01755c-0.01862,0.0195 -0.03819,0.03753 -0.05857,0.05411c0.00452,0.0052 0.00894,0.01045 0.01325,0.01576z" fill="#e93e3e" fill-rule="nonzero" stroke="none" stroke-width="0.5" stroke-linecap="butt" stroke-linejoin="miter"/><path d="M352.4868,181.67027c0.25086,0.23951 0.26007,0.63704 0.02056,0.8879c-0.06338,0.06638 -0.13782,0.11585 -0.21769,0.14826c-0.01546,0.13036 -0.07176,0.257 -0.1694,0.35924c-0.10002,0.10477 -0.22761,0.16737 -0.36056,0.18735c0.01057,0.16874 -0.04661,0.3412 -0.17254,0.47311c-0.11808,0.12369 -0.27457,0.18862 -0.43294,0.19397c0.06388,0.20986 0.01577,0.44713 -0.14651,0.61709c-0.12758,0.13362 -0.3,0.19869 -0.4712,0.19411c0.04306,0.19711 -0.00944,0.41138 -0.15925,0.56829c-0.18935,0.19834 -0.47747,0.24562 -0.71379,0.13838c-0.01158,0.13786 -0.06859,0.27281 -0.17155,0.38066c-0.12741,0.13345 -0.29955,0.19851 -0.47053,0.19413c0.11634,0.23064 0.08195,0.51909 -0.10663,0.7166c-0.10002,0.10477 -0.22761,0.16737 -0.36056,0.18735c0.01056,0.16873 -0.04661,0.3412 -0.17254,0.47311c-0.05122,0.05366 -0.1097,0.09626 -0.17241,0.12774c-0.02854,0.06409 -0.06839,0.12447 -0.11962,0.17814c-0.0395,0.04136 -0.08328,0.07616 -0.12999,0.10434c-0.02354,0.10956 -0.07667,0.21419 -0.15974,0.30119c-0.1402,0.14684 -0.33453,0.21088 -0.5219,0.19071c-0.02082,0.1177 -0.07541,0.23075 -0.16415,0.3237c-0.23951,0.25086 -0.63704,0.26007 -0.8879,0.02056c-0.25086,-0.23951 -0.26007,-0.63704 -0.02056,-0.8879c0.1402,-0.14684 0.33453,-0.21088 0.5219,-0.19071c0.02082,-0.1177 0.07541,-0.23075 0.16415,-0.3237c0.0395,-0.04136 0.08328,-0.07616 0.12999,-0.10434c0.02354,-0.10957 0.07667,-0.21419 0.15974,-0.30119c0.05122,-0.05366 0.10969,-0.09627 0.17241,-0.12775c0.02854,-0.06409 0.0684,-0.12447 0.11964,-0.17814c0.10002,-0.10477 0.22761,-0.16737 0.36056,-0.18735c-0.01056,-0.16872 0.04661,-0.34118 0.17253,-0.47309c0.12741,-0.13345 0.29955,-0.19851 0.47053,-0.19413c-0.11634,-0.23065 -0.08195,-0.51909 0.10663,-0.7166c0.18936,-0.19833 0.47747,-0.24562 0.71379,-0.13838c0.01158,-0.13786 0.06859,-0.27281 0.17155,-0.38066c0.12758,-0.13362 0.3,-0.19869 0.4712,-0.19411c-0.04306,-0.19711 0.00944,-0.41138 0.15925,-0.56829c0.11808,-0.12369 0.27457,-0.18861 0.43295,-0.19397c-0.06387,-0.20985 -0.01577,-0.44713 0.14651,-0.61709c0.10002,-0.10477 0.22761,-0.16737 0.36056,-0.18735c-0.01056,-0.16872 0.04661,-0.3412 0.17254,-0.47311c0.06338,-0.06638 0.13782,-0.11585 0.21769,-0.14826c0.01546,-0.13036 0.07176,-0.257 0.1694,-0.35924c0.23951,-0.25086 0.63704,-0.26007 0.8879,-0.02056z" fill="#e93e3e" fill-rule="nonzero" stroke="none" stroke-width="0.5" stroke-linecap="butt" stroke-linejoin="miter"/><path d="M344.34409,191.72084c-0.23951,0.25086 -0.63704,0.26007 -0.8879,0.02056c-0.23645,-0.22575 -0.25822,-0.59184 -0.05941,-0.84323c-0.02113,-0.01562 -0.04152,-0.03273 -0.06102,-0.05134c-0.25086,-0.23951 -0.26007,-0.63704 -0.02056,-0.8879c0.09271,-0.09709 0.20909,-0.15799 0.33147,-0.18227c-0.01275,-0.0104 -0.02521,-0.02138 -0.03733,-0.03295c-0.25086,-0.23951 -0.26007,-0.63704 -0.02056,-0.8879c0.08615,-0.09023 0.19274,-0.1492 0.30557,-0.17656c-0.09582,-0.22411 -0.05571,-0.49343 0.12325,-0.68088c0.0634,-0.0664 0.13785,-0.11587 0.21774,-0.14827c-0.11054,-0.22898 -0.0745,-0.51212 0.11143,-0.70685c0.23951,-0.25086 0.63704,-0.26007 0.8879,-0.02056c0.25086,0.23951 0.26007,0.63704 0.02056,0.8879c-0.0634,0.0664 -0.13785,0.11587 -0.21774,0.14827c0.11054,0.22898 0.0745,0.51212 -0.11143,0.70685c-0.08614,0.09022 -0.19273,0.14919 -0.30557,0.17656c0.09582,0.22411 0.0557,0.49343 -0.12325,0.68088c-0.09271,0.09709 -0.20909,0.15799 -0.33147,0.18227c0.01275,0.0104 0.02521,0.02138 0.03733,0.03295c0.23645,0.22575 0.2582,0.59184 0.0594,0.84322c0.02114,0.01563 0.04153,0.03274 0.06102,0.05135c0.25086,0.23951 0.26007,0.63704 0.02056,0.8879z" fill="#e93e3e" fill-rule="nonzero" stroke="none" stroke-width="0.5" stroke-linecap="butt" stroke-linejoin="miter"/><path d="M354.13958,180.12104c-0.04789,0.05018 -0.1274,0.052 -0.17758,0.00411c-0.05018,-0.04789 -0.052,-0.1274 -0.00411,-0.17758c0.04789,-0.05018 0.1274,-0.052 0.17758,-0.00411c0.05018,0.04789 0.052,0.1274 0.00411,0.17758z" fill="#a00000" fill-rule="nonzero" stroke="none" stroke-width="0.5" stroke-linecap="butt" stroke-linejoin="miter"/><path d="M351.85556,178.96192c-0.1237,-0.02178 -0.10192,-0.14547 -0.10192,-0.14547l0.00102,-0.00578c0.02904,-0.16492 0.05806,-0.32986 0.0871,-0.49478c0,0 0.02178,-0.1237 0.14547,-0.10192c0.1237,0.02178 0.10192,0.14547 0.10192,0.14547c-0.02904,0.16493 -0.05908,0.33564 -0.08811,0.50058c0,0 -0.02178,0.1237 -0.14547,0.10192z" fill="#a00000" fill-rule="nonzero" stroke="none" stroke-width="0.5" stroke-linecap="butt" stroke-linejoin="miter"/><path d="M353.37749,178.28773c0.08599,0.0821 0.12466,0.19515 0.11522,0.30505c0.10098,-0.04358 0.24483,-0.05876 0.39228,0.08203c0.27254,0.26021 0.01233,0.53273 0.01233,0.53273l-0.05828,0.05362c-0.02454,0.03554 -0.04779,0.07092 -0.06998,0.10614c0.02146,0.03874 0.03562,0.08051 0.04239,0.12328c0.02929,-0.02466 0.07972,-0.04852 0.14471,-0.00734c0.02117,0.01342 0.03543,0.02838 0.04472,0.04375c0.00849,0.00528 0.01711,0.01191 0.02574,0.02018c0.09085,0.08674 0.00411,0.17758 0.00411,0.17758l-0.04868,0.05098c-0.04488,0.04367 -0.09721,0.08194 -0.15384,0.11289c-0.0494,0.06464 -0.10187,0.13208 -0.15299,0.20028c0.00494,0.00476 0.01004,0.00956 0.0153,0.01444l0.04113,0.18759c0,0 0.00045,0.01986 -0.00688,0.04397c0.00754,0.00459 0.01469,0.01008 0.02134,0.01642c0.05018,0.04789 0.052,0.1274 0.00411,0.17758c-0.02346,0.02457 -0.05449,0.03754 -0.08595,0.03877c0.00296,0.00388 0.00567,0.00788 0.00811,0.01201c0.02089,0.00918 0.04237,0.02495 0.0556,0.052c0.00891,0.00502 0.01731,0.01122 0.02505,0.01859c0.05018,0.04789 0.052,0.1274 0.00411,0.17758c-0.03662,0.03835 -0.09168,0.04845 -0.138,0.02971c-0.00293,0.00133 -0.0059,0.00256 -0.0089,0.00368c-0.0436,0.01609 -0.09445,0.00727 -0.13033,-0.02697c-0.00239,-0.00228 -0.00467,-0.00463 -0.00683,-0.00704c-0.05722,0.00576 -0.11372,0.0135 -0.17018,0.0214c-0.01963,0.06375 -0.03925,0.12752 -0.05887,0.19127c0,0 -0.03695,0.12005 -0.15699,0.08309c-0.07944,-0.02447 -0.09012,-0.08531 -0.08827,-0.12367c-0.02215,-0.00738 -0.04365,-0.01541 -0.0645,-0.02407c-0.04288,0.04492 -0.08578,0.08985 -0.12866,0.13475l0.06209,0.05928c0,0 0.03708,0.0354 0.04125,0.08466c0.02974,-0.02154 0.09395,-0.05304 0.16037,0.01037c0.09085,0.08674 0.00411,0.17758 0.00411,0.17758l-0.04868,0.05098c-0.04868,0.05098 -0.09734,0.10195 -0.14602,0.15294c0,0 -0.08674,0.09085 -0.17758,0.00411c-0.09085,-0.08674 -0.00411,-0.17758 -0.00411,-0.17758c0.02058,-0.02155 0.04984,-0.05221 0.08045,-0.08428c-0.04778,-0.00323 -0.08326,-0.03711 -0.08326,-0.03711l-0.04561,-0.04355l-0.05523,0.02638c-0.00037,-0.00011 -0.00076,-0.00023 -0.00113,-0.00035c-0.03892,0.04076 -0.07783,0.08151 -0.11675,0.12229c0,0 -0.08674,0.09085 -0.17758,0.00411c-0.09085,-0.08674 -0.00411,-0.17758 -0.00411,-0.17758c0.02149,-0.0225 0.04346,-0.04553 0.06585,-0.06898c-0.00837,-0.02168 -0.01045,-0.04896 -0.00002,-0.08286c0.01622,-0.05268 0.04843,-0.07513 0.07948,-0.08373c-0.08018,-0.04303 -0.13033,-0.09536 -0.16035,-0.14982c-0.1133,0.01918 -0.23391,-0.0135 -0.32341,-0.09896c-0.15052,-0.14371 -0.15604,-0.38222 -0.01233,-0.53273c0.07212,-0.07552 0.16808,-0.11454 0.26484,-0.11653c0.00294,-0.00389 0.00613,-0.00767 0.00958,-0.01129c0.04789,-0.05018 0.1274,-0.052 0.17758,-0.00411c0.01364,0.01302 0.02371,0.02839 0.03018,0.04485c0.01842,-0.13106 0.10883,-0.22574 0.10883,-0.22574c0.1173,-0.11753 0.20482,-0.24469 0.28089,-0.37734c-0.01337,0.00661 -0.02475,0.01604 -0.0333,0.029c0,0 -0.05901,0.06181 -0.13066,0.03478c-0.02211,0.02316 -0.04422,0.04632 -0.06633,0.06949l0.03702,0.01001c0,0 0.0029,0.12557 -0.12266,0.12847c-0.12557,0.0029 -0.12847,-0.12266 -0.12847,-0.12266l0.03241,-0.1893c0.08113,-0.08497 0.16226,-0.16993 0.24336,-0.25491c0,0 0.08674,-0.09085 0.17758,-0.00411c0.0192,0.01833 0.03047,0.03686 0.0363,0.05465c0.02832,-0.00265 0.05692,-0.00363 0.08527,-0.00326c0.06459,-0.1292 0.12892,-0.26099 0.20809,-0.39195c-0.10519,0.01012 -0.21402,-0.02383 -0.29644,-0.10252c-0.15052,-0.14371 -0.15604,-0.38222 -0.01233,-0.53273c0.14371,-0.15052 0.38222,-0.15604 0.53273,-0.01233zM353.47347,180.55705c0.02346,-0.02457 0.05449,-0.03754 0.08595,-0.03877c-0.01141,-0.01496 -0.01904,-0.03194 -0.02285,-0.04958c-0.00633,-0.00105 -0.0126,-0.00261 -0.01873,-0.00464l-0.07467,-0.02299c-0.02608,0.05058 -0.04668,0.09943 -0.05969,0.14557c0.02454,-0.00318 0.04918,-0.00618 0.07394,-0.00884c0.00453,-0.00732 0.00987,-0.01428 0.01607,-0.02075z" fill="#a00000" fill-rule="nonzero" stroke="none" stroke-width="0.5" stroke-linecap="butt" stroke-linejoin="miter"/><path d="M353.60466,177.33525l0.00983,0.01461c0.13518,0.09658 0.27037,0.19315 0.40555,0.28973c0,0 0.02747,0.01962 0.06009,0.05535c0.01105,0.00843 0.02175,0.01756 0.03205,0.02739c0.15052,0.14371 0.15604,0.38222 0.01233,0.53273c-0.14371,0.15052 -0.38222,0.15604 -0.53273,0.01233c-0.00815,-0.00778 -0.01588,-0.01585 -0.02319,-0.02416c-0.13072,-0.09339 -0.26145,-0.18678 -0.39218,-0.28019l-0.09214,-0.08273c0,0 -0.27254,-0.26021 -0.01233,-0.53273c0.26021,-0.27254 0.53273,-0.01233 0.53273,-0.01233z" fill="#a00000" fill-rule="nonzero" stroke="none" stroke-width="0.5" stroke-linecap="butt" stroke-linejoin="miter"/><path d="M359.62193,174.12468c-0.75861,0.53168 -2.74045,0.25514 -3.31497,1.13109c0.01903,0.11287 0.00302,0.27567 -0.19734,0.38172c-0.22075,0.11683 -0.37263,0.00989 -0.44995,-0.07549c-0.11427,-0.07541 -0.15048,-0.17562 -0.15536,-0.26386l-0.01803,-0.03427c-0.78112,-1.71406 -1.74339,-3.33949 -2.37243,-5.10813c-0.16144,-0.4539 -1.1091,-1.5995 -0.18797,-1.97481c0.36574,-0.14902 1.51398,1.18116 1.74564,1.40234c0.7986,0.76245 1.6042,1.51819 2.39608,2.28764c0.12518,0.12163 0.60378,0.54346 0.81898,0.48929c0.10486,-0.02641 0.3558,-0.83274 0.40204,-0.94792c0.42281,-1.05323 1.36324,-1.725 1.78014,-2.78317c0.29431,-0.71995 1.78646,-2.27391 2.00522,-0.56581c0.05235,0.40871 -0.42886,1.24455 -0.45911,1.70664c-0.11743,1.79338 -0.30326,3.05754 -1.07635,4.69906c0,0 -0.16066,0.34083 -0.50149,0.18017c-0.34083,-0.16066 -0.18017,-0.50149 -0.18017,-0.50149c0.01673,-0.0355 0.03329,-0.07078 0.04961,-0.10587c-0.08463,0.07581 -0.18714,0.0988 -0.18714,0.0988l-0.09741,-0.01595z" fill="#ffffff" fill-rule="nonzero" stroke="none" stroke-width="0.5" stroke-linecap="butt" stroke-linejoin="miter"/><path d="M361.04952,167.1638c0.00988,-0.00177 0.01976,-0.00343 0.0296,-0.00495l0.00823,0.16947c0.0044,0.00394 0.00881,0.008 0.0132,0.01221c0.06052,0.05779 0.09478,0.11617 0.11144,0.17205c0.07675,-0.09217 0.15961,-0.18457 0.25041,-0.28014c0,0 0.26021,-0.27254 0.53273,-0.01233c0.27254,0.26021 0.01233,0.53273 0.01233,0.53273c-0.01727,0.01799 -0.03418,0.03578 -0.05069,0.05339l-0.20149,0.48097c-0.00606,0.05 -0.02186,0.10277 -0.04655,0.15761c0.08495,-0.01766 0.17898,-0.0361 0.28364,-0.05635l-0.22871,0.84274c-0.09575,0.04833 -0.19149,0.09666 -0.28722,0.145c0.05717,0.27179 0.02926,0.51219 -0.20559,0.67902c-0.26553,0.18863 -0.63652,0.13854 -0.95479,0.2078l0.08979,-0.36143c-0.09541,0.02589 -0.19079,0.05177 -0.28617,0.07767l0.09292,-0.39877c-0.06719,0.03372 -0.13494,0.06541 -0.20288,0.09505l0.039,-0.84532c0.0851,-0.10887 0.19414,-0.20105 0.31559,-0.27482c-0.04529,-0.27462 -0.05137,-0.55737 -0.01198,-0.82947l-0.09618,-0.01863c0.03476,-0.07192 0.08188,-0.13827 0.13794,-0.1982c0.02053,-0.08458 0.04584,-0.16755 0.07615,-0.24831l0.57926,-0.09696z" fill="#a00000" fill-rule="nonzero" stroke="none" stroke-width="0.5" stroke-linecap="butt" stroke-linejoin="miter"/><path d="M354.61592,169.33524c0.27254,0.26021 0.01233,0.53273 0.01233,0.53273l-0.04076,0.03985c0.01533,0.11004 -0.01797,0.22578 -0.10065,0.31239c-0.05719,0.0599 -0.1294,0.09683 -0.20509,0.11054l-0.30712,0.60344c-0.01673,0.03482 -0.03912,0.06764 -0.06725,0.0971c-0.14371,0.15052 -0.38222,0.15604 -0.53273,0.01233c-0.11699,-0.11168 -0.14638,-0.28064 -0.08621,-0.42105l0.08586,-0.21392l-0.11315,0.03935c0.00955,-0.14951 0.02446,-0.28518 0.04422,-0.40649c-0.05647,-0.01631 -0.10995,-0.04609 -0.15542,-0.08948c-0.11699,-0.11168 -0.14638,-0.28064 -0.08621,-0.42105l0.06705,-0.16702c-0.10503,0.00997 -0.21366,-0.02399 -0.29595,-0.10257c-0.035,-0.03342 -0.06215,-0.07196 -0.08141,-0.11331c-0.1168,-0.06867 -0.17907,-0.15744 -0.1062,-0.26213c-0.00715,-0.00588 -0.01412,-0.01207 -0.02092,-0.01856c-0.15052,-0.14371 -0.15604,-0.38222 -0.01233,-0.53273c0.01626,-0.01703 0.03374,-0.03221 0.05217,-0.04553l0.23744,-0.17803l-0.0124,-0.0627c0.02587,0.00487 0.0512,0.00987 0.07599,0.01501l0.03136,-0.02352c0.14493,-0.11273 0.35441,-0.10539 0.49121,0.02522c0.06078,0.05804 0.09792,0.13151 0.11114,0.20843c0.20908,0.11387 0.29694,0.2448 0.27878,0.37431c0.16809,0.16833 0.18653,0.42919 0.23609,0.67079c0.07802,-0.06249 0.28527,-0.18859 0.50018,0.0166z" fill="#a00000" fill-rule="nonzero" stroke="none" stroke-width="0.5" stroke-linecap="butt" stroke-linejoin="miter"/><path d="M365.20541,170.22134c-0.14371,0.15052 -0.38222,0.15604 -0.53273,0.01233c-0.15052,-0.14371 -0.15604,-0.38222 -0.01233,-0.53273c0.14371,-0.15052 0.38222,-0.15604 0.53273,-0.01233c0.15052,0.14371 0.15604,0.38222 0.01233,0.53273z" fill="#a00000" fill-rule="nonzero" stroke="none" stroke-width="0.5" stroke-linecap="butt" stroke-linejoin="miter"/><path d="M368.24025,171.53833l-0.25656,-0.08191c-0.43881,-0.07988 -0.86497,-0.22709 -1.2793,-0.39221c0,0 -0.34968,-0.14037 -0.20932,-0.49005c0.14037,-0.34968 0.49005,-0.20932 0.49005,-0.20932c0.36574,0.14801 0.74213,0.282 1.13085,0.34966l0.34598,0.10356c0,0 0.36013,0.11086 0.24927,0.47098c-0.11086,0.36013 -0.47098,0.24927 -0.47098,0.24927z" fill="#a00000" fill-rule="nonzero" stroke="none" stroke-width="0.5" stroke-linecap="butt" stroke-linejoin="miter"/><path d="M369.33274,171.92052c-0.14371,0.15052 -0.38222,0.15604 -0.53273,0.01233c-0.15052,-0.14371 -0.15604,-0.38222 -0.01233,-0.53273c0.14371,-0.15052 0.38222,-0.15604 0.53273,-0.01233c0.15052,0.14371 0.15604,0.38222 0.01233,0.53273z" fill="#a00000" fill-rule="nonzero" stroke="none" stroke-width="0.5" stroke-linecap="butt" stroke-linejoin="miter"/><path d="M370.45202,172.89167c-0.14371,0.15052 -0.38222,0.15604 -0.53273,0.01233c-0.15052,-0.14371 -0.15604,-0.38222 -0.01233,-0.53273c0.14371,-0.15052 0.38222,-0.15604 0.53273,-0.01233c0.15052,0.14371 0.15604,0.38222 0.01233,0.53273z" fill="#a00000" fill-rule="nonzero" stroke="none" stroke-width="0.5" stroke-linecap="butt" stroke-linejoin="miter"/><path d="M363.75695,170.10532c-0.14371,0.15052 -0.38222,0.15604 -0.53273,0.01233c-0.15052,-0.14371 -0.15604,-0.38222 -0.01233,-0.53273c0.14371,-0.15052 0.38222,-0.15604 0.53273,-0.01233c0.15052,0.14371 0.15604,0.38222 0.01233,0.53273z" fill="#a00000" fill-rule="nonzero" stroke="none" stroke-width="0.5" stroke-linecap="butt" stroke-linejoin="miter"/><path d="M356.35028,168.8809c-0.14371,0.15052 -0.38222,0.15604 -0.53273,0.01233c-0.15052,-0.14371 -0.15604,-0.38222 -0.01233,-0.53273c0.14371,-0.15052 0.38222,-0.15604 0.53273,-0.01233c0.15052,0.14371 0.15604,0.38222 0.01233,0.53273z" fill="#a00000" fill-rule="nonzero" stroke="none" stroke-width="0.5" stroke-linecap="butt" stroke-linejoin="miter"/><path d="M357.84279,168.74665c-0.14371,0.15052 -0.38222,0.15604 -0.53273,0.01233c-0.15052,-0.14371 -0.15604,-0.38222 -0.01233,-0.53273c0.14371,-0.15052 0.38222,-0.15604 0.53273,-0.01233c0.15052,0.14371 0.15604,0.38222 0.01233,0.53273z" fill="#a00000" fill-rule="nonzero" stroke="none" stroke-width="0.5" stroke-linecap="butt" stroke-linejoin="miter"/><path d="M359.34221,168.91134c-0.14371,0.15052 -0.38222,0.15604 -0.53273,0.01233c-0.15052,-0.14371 -0.15604,-0.38222 -0.01233,-0.53273c0.14371,-0.15052 0.38222,-0.15604 0.53273,-0.01233c0.15052,0.14371 0.15604,0.38222 0.01233,0.53273z" fill="#a00000" fill-rule="nonzero" stroke="none" stroke-width="0.5" stroke-linecap="butt" stroke-linejoin="miter"/><path d="M326.09227,163.0199c-0.25164,-0.24024 -0.38169,-0.55999 -0.3884,-0.88234c-0.25937,-0.09387 -0.51512,-0.29961 -0.68474,-0.71188c-0.27055,-0.65758 -0.01565,-1.09605 0.25644,-1.35275c-0.25536,-0.43701 -0.22563,-0.99736 0.09555,-1.40707l0.82491,-1.08154l0.14803,0.11291l0.17301,-0.40871c2.30817,-0.58143 6.82845,-1.36031 4.50291,2.81484c-0.08,0.14365 -0.16821,0.27273 -0.26353,0.38913c0.01472,0.33015 -0.10008,0.66555 -0.34631,0.92346c-0.44116,0.46207 -1.15038,0.5142 -1.65164,0.14537c-0.20252,0.04851 -0.40794,0.0917 -0.61319,0.13502c0.15058,0.43119 0.05978,0.92942 -0.27725,1.28245c-0.47902,0.50172 -1.27406,0.52013 -1.7758,0.04112z" fill="#ffffff" fill-rule="nonzero" stroke="none" stroke-width="0.5" stroke-linecap="butt" stroke-linejoin="miter"/><path d="M332.5575,161.36624c-0.4509,0.47227 -1.18181,0.5163 -1.68452,0.12033c-0.05701,0.12732 -0.13637,0.24724 -0.23819,0.3539c-0.364,0.38126 -0.91047,0.48343 -1.37206,0.30033c-0.21867,0.15169 -0.47546,0.22631 -0.73174,0.22294c-0.0315,0.25947 -0.14398,0.51138 -0.33836,0.71496c-0.47902,0.50172 -1.27406,0.52013 -1.7758,0.04112c-0.50172,-0.47902 -0.52013,-1.27406 -0.04112,-1.7758c0.2509,-0.26279 0.5885,-0.39298 0.92523,-0.38857c0.0315,-0.25947 0.14398,-0.51138 0.33836,-0.71496c0.364,-0.38126 0.91047,-0.48343 1.37206,-0.30033c0.44772,-0.31059 1.05516,-0.29804 1.49103,0.04528c0.05701,-0.12732 0.13637,-0.24724 0.23819,-0.3539c0.47902,-0.50172 1.27406,-0.52013 1.7758,-0.04112c0.50172,0.47902 0.52013,1.27406 0.04112,1.7758z" fill="#a00000" fill-rule="nonzero" stroke="none" stroke-width="0.5" stroke-linecap="butt" stroke-linejoin="miter"/></g></g></g></svg>