<svg version="1.1" xmlns="http://www.w3.org/2000/svg" xmlns:xlink="http://www.w3.org/1999/xlink" width="90.35769" height="65.66667" viewBox="0,0,90.35769,65.66667"><g transform="translate(-175.75,-147.76667)"><g data-paper-data="{&quot;isPaintingLayer&quot;:true}" fill="#a00000" fill-rule="nonzero" stroke="none" stroke-width="0.5" stroke-linecap="butt" stroke-linejoin="miter" stroke-miterlimit="10" stroke-dasharray="" stroke-dashoffset="0" style="mix-blend-mode: normal"><path d="M218.2204,178.84861c0.15761,-0.08181 0.31533,-0.16345 0.47315,-0.24493c-0.14937,-0.0569 -0.29187,-0.12771 -0.42593,-0.21085c-0.01499,0.15147 -0.03069,0.30345 -0.04722,0.45578zM224.48606,178.48197c1.11803,2.23607 -1.11803,3.3541 -1.11803,3.3541c-1.27374,0.63673 -2.53824,1.28735 -3.79719,1.94733c-0.43146,0.56452 -1.09797,0.93981 -1.8534,0.97974c-0.39611,0.21097 -0.79185,0.42265 -1.18733,0.63489c-0.92155,1.74996 -2.32369,3.13817 -4.50389,3.7756c-0.17222,0.05035 -0.34561,0.08912 -0.52002,0.11785l0.01681,0.06722l-2.61228,0.65307c-0.21047,0.05753 -0.43201,0.08824 -0.66073,0.08824c-1.38071,0 -2.5,-1.11929 -2.5,-2.5c0,-0.82831 0.40283,-1.56254 1.02328,-2.01746l2.64339,-1.98254l0.0401,0.05346l0.10783,-0.15629c0.96695,-0.52973 1.93345,-1.05812 2.90095,-1.58352c0.42224,-1.62941 1.10898,-4.79423 1.34588,-5.88336l-1.32919,-1.32919c-0.45241,-0.45241 -0.73223,-1.07741 -0.73223,-1.76777c0,-1.38071 1.11929,-2.5 2.5,-2.5c0.41989,0 0.81561,0.10352 1.16302,0.28642l2.62168,1.31084c0,0 1.16062,0.58031 1.39144,1.74093c0.05198,-0.00322 0.10439,-0.00486 0.15719,-0.00486c1.38071,0 2.5,1.11929 2.5,2.5c0,0.30054 -0.05303,0.58869 -0.15025,0.8556c0.75317,-0.12223 1.86484,-0.01658 2.55298,1.3597z"/><path d="M219.75,210.93333c0,-1.38071 1.11929,-2.5 2.5,-2.5c1.38071,0 2.5,1.11929 2.5,2.5c0,1.38071 -1.11929,2.5 -2.5,2.5c-1.38071,0 -2.5,-1.11929 -2.5,-2.5z"/><path d="M175.75,210.93333c0,-1.38071 1.11929,-2.5 2.5,-2.5c1.38071,0 2.5,1.11929 2.5,2.5c0,1.38071 -1.11929,2.5 -2.5,2.5c-1.38071,0 -2.5,-1.11929 -2.5,-2.5z"/><path d="M232.91666,195.76667c0.32289,0 0.60408,0.0417 0.84895,0.11434c-0.01032,-0.09224 -0.01562,-0.18601 -0.01562,-0.281c0,-1.38071 1.11929,-2.5 2.5,-2.5c0.18811,0 0.37137,0.02078 0.5476,0.06016c-2.05632,-1.75489 -4.31902,-3.21255 -6.5476,-3.06016c0,0 -2.5,0 -2.5,-2.5c0,-2.5 2.5,-2.5 2.5,-2.5c0.27105,0.01006 0.5386,0.02901 0.80281,0.0564c0.17093,-0.03694 0.34836,-0.05639 0.53034,-0.0564c-0.31384,-0.41783 -0.49982,-0.9372 -0.49982,-1.5c0,-1.38071 1.11929,-2.5 2.5,-2.5c0.20966,0 0.4133,0.02581 0.6079,0.07443c-1.47941,-0.75313 -2.98032,-1.4456 -4.49938,-2.06168l-0.20721,-0.27005l-0.06798,0.09063l-2.64339,-1.98254c-0.62044,-0.45492 -1.02328,-1.18914 -1.02328,-2.01746c0,-0.47916 0.1348,-0.92684 0.36855,-1.30717c-0.62721,-0.45422 -1.03522,-1.19254 -1.03522,-2.02616c0,-1.03252 0.62593,-1.91884 1.51905,-2.30021c0.74548,-2.00227 2.92062,-1.45848 2.92062,-1.45848c1.14773,0.33644 2.46462,0.32166 3.44319,1.00931c1.1379,0.79962 1.74476,2.16625 2.61713,3.24938l0.45137,-0.0694c0,0 2.23607,1.11803 1.11803,3.3541c-0.30751,0.61501 -0.69959,0.97629 -1.10646,1.17689c2.05997,1.09213 3.99347,2.32544 5.92616,3.61327c-0.36878,-1.0603 -0.6535,-2.09638 -0.9381,-2.91213c-0.15688,-0.15569 -0.30457,-0.30894 -0.44194,-0.45816c-1.15434,-1.2539 -3.13309,-2.59809 -2.81013,-4.27156c0.13936,-0.72212 0.61872,-1.25592 1.24373,-1.69479c0.01265,-1.09912 0.3607,-2.23288 1.27391,-3.46921c0.79863,-1.08121 2.33249,-1.33672 3.49874,-2.00508c0,0 2.23607,-1.11803 3.3541,1.11803c0.13382,0.26764 0.21959,0.51927 0.26689,0.75487c0.15011,0.1624 0.27895,0.34476 0.38209,0.54265c3.25243,-1.12984 6.40093,-3.14642 9.36537,-4.82116c0.16589,-0.09372 -0.37205,-0.08345 -0.55509,-0.13636c-0.80761,-0.23345 -1.57697,-0.77006 -2.41631,-0.72256c-1.20566,0.06823 -2.31042,0.70361 -3.46563,1.05541c-0.00265,0.00218 -0.0053,0.00435 -0.00795,0.00653c0.01819,0.13692 0.02789,0.28293 0.02789,0.43865c0,2.5 -2.5,2.5 -2.5,2.5l-0.43826,-0.54783l-3.12348,-3.90434c1.24945,-0.97866 2.4989,-1.95732 3.74835,-2.93599c1.9559,-0.53708 3.84026,-1.67018 5.8677,-1.61125c2.79735,0.08131 9.16085,2.46895 7.69527,7.14108c-0.64771,2.06484 -3.29511,2.8109 -5.0295,4.10512c-2.36443,1.76436 -3.61758,2.60832 -5.56795,3.41987h2.1812v0.19505c0.71563,-0.08907 1.43717,-0.14266 2.19721,-0.15319c0.28507,-2.04185 2.46946,-2.04185 2.46946,-2.04185l3.33333,0c0.86407,0 1.62576,0.43836 2.0748,1.10483c2.34485,1.64904 1.60119,5.52538 1.7398,7.75638c0.08357,1.34495 1.19778,2.89131 0.45668,4.01677c-0.52074,0.79081 -1.28721,1.43793 -2.15878,1.9125c0.99918,0.32744 1.72083,1.26754 1.72083,2.37619c0,1.38071 -1.11929,2.5 -2.5,2.5c-1.38071,0 -2.5,-1.11929 -2.5,-2.5c0,-0.56279 0.18597,-1.08215 0.4998,-1.49998c-4.54484,0.49284 -5.39905,-4.56939 -8.04933,-6.41731c-0.66957,-0.46686 -1.57878,-0.39216 -2.38648,-0.54687c1.28656,1.15898 2.24505,2.08851 2.26083,2.25796c0.05857,0.62901 -0.11143,1.27087 -0.434,1.8709c0.77158,0.46694 1.4968,0.98304 2.04999,1.68159c2.70741,3.41877 2.33546,5.11135 2.39253,8.65372c0,0 0,2.5 -2.5,2.5c-2.5,0 -2.5,-2.5 -2.5,-2.5c0.0041,-0.17374 -0.00202,-0.34562 -0.01668,-0.51577c-0.71289,-0.14082 -1.42134,-0.29246 -2.0484,-0.64206c-0.92907,-0.51798 -1.45448,-1.56856 -2.30678,-2.20499c-3.8103,-2.84521 -7.891,-5.59421 -12.15981,-7.86181c0.52981,0.45841 0.86501,1.13571 0.86501,1.8913c0,1.1065 -0.71885,2.04511 -1.71502,2.37428c3.38949,1.33036 6.23294,3.9791 8.96368,6.65261l2.14029,0.53507c1.1133,0.25265 1.9444,1.24829 1.9444,2.43804c0,1.0731 -0.67611,1.98829 -1.62559,2.34282l-4.58831,1.83533l-0.04232,-0.10581c-2.39719,1.37166 -4.91377,2.30032 -8.18563,2.42699l-2.55814,-3.83266c0,0 0,-2.5 2.5,-2.5zM239.03262,195.21114c-0.13371,-0.12843 -0.26896,-0.25789 -0.40564,-0.38789c0.04845,0.14836 0.0834,0.30282 0.10339,0.46194c0.10036,-0.02671 0.2011,-0.05148 0.30225,-0.07406zM249.99777,177.85222l-0.09789,0.09789c0.11385,0.101 0.22605,0.20095 0.33625,0.29954zM247.81556,176.03443c-0.45241,-0.45241 -0.73223,-1.07741 -0.73223,-1.76777c0,-0.36544 0.07841,-0.71257 0.21932,-1.02547c-0.74737,0.25167 -1.50249,0.47675 -2.26816,0.60131c0.00468,0.00999 0.00936,0.02001 0.01405,0.03006c0.9331,0.72291 2.23836,1.80792 3.50911,2.90396zM260.62071,176.44966l-0.08067,0.12671c-1.16371,0.06112 -2.22615,0.20083 -3.22435,0.26689c0.25989,0.38687 0.52286,0.7714 0.82294,1.11874c0.49051,0.56776 1.01256,1.1112 1.57314,1.6099c0.46779,0.41615 1.83425,1.56421 1.60028,0.98346c-0.19703,-0.48904 -0.77897,-0.79845 -0.87665,-1.31657c-0.18454,-0.97881 0.01328,-2.03796 0.18531,-2.78913z"/><path d="M219.58333,187.76667c1.6439,0 2.20684,1.08096 2.39961,1.82129c2.3405,1.6448 4.76878,2.94032 7.10039,4.67871c0,0 2,1.5 0.5,3.5c-1.5,2 -3.5,0.5 -3.5,0.5c-2.61299,-1.97304 -5.36808,-3.37104 -8,-5.33333l-1,-2.66667c0,0 0,-2.5 2.5,-2.5z"/><path d="M235.75,156.26667c0,-0.31843 0.04056,-0.59631 0.11135,-0.83879c-0.90786,-0.40232 -1.77928,-0.82746 -2.59859,-1.33958c-0.93962,-0.01114 -1.87924,-0.02227 -2.81886,-0.03341l-0.3793,-0.32473l-0.07641,0.19103l-3.27926,-1.31171c-0.94948,-0.35452 -1.62559,-1.26971 -1.62559,-2.34282c0,-1.38071 1.11929,-2.5 2.5,-2.5c0.18573,0 0.36673,0.02025 0.54091,0.05867l4.85228,0.97046l-0.00596,0.02978c0.0641,0.00446 0.1282,0.00945 0.1923,0.01498c0.36083,0.03113 0.78838,0.12672 1.2608,0.26989c0.29192,0.02802 0.90024,0.13122 1.4216,0.51127c2.37674,0.9615 5.23277,2.54675 6.67441,3.2946l3.07616,0.94371c1.05067,0.29591 1.82083,1.26134 1.82083,2.40664c0,1.38071 -1.11929,2.5 -2.5,2.5h-3.33333l0,-0.2842c-0.88064,0.17728 -1.7696,0.2842 -2.66667,0.2842h-0.66667c0,0 -2.5,0 -2.5,-2.5z"/></g></g></svg>