<svg version="1.1" xmlns="http://www.w3.org/2000/svg" xmlns:xlink="http://www.w3.org/1999/xlink" width="980.48048" height="630.63063" viewBox="0,0,980.48048,630.63063"><g transform="translate(145.24024,130.31528)"><g data-paper-data="{&quot;isPaintingLayer&quot;:true}" stroke-miterlimit="10" stroke-dasharray="" stroke-dashoffset="0" style="mix-blend-mode: normal"><path d="M-145.24024,500.31535v-630.63063h980.48048v630.63063z" fill="#000000" fill-rule="nonzero" stroke="#ff3838" stroke-width="0" stroke-linecap="butt" stroke-linejoin="miter"/><text transform="translate(304.71471,259.28905) scale(0.5,0.5)" font-size="40" xml:space="preserve" fill="#ffffff" fill-rule="nonzero" stroke="none" stroke-width="1" stroke-linecap="butt" stroke-linejoin="miter" stroke-miterlimit="10" stroke-dasharray="" stroke-dashoffset="0" font-family="Marker" font-weight="normal" text-anchor="start" style="mix-blend-mode: normal"><tspan x="0" dy="0">Loading</tspan></text><g><path d="M340.13237,191.76848c0.50085,-0.12931 3.1808,2.5403 4.90984,2.67852c1.23015,0.06039 2.74144,0.03812 4.18657,-0.72809c3.29389,-1.68702 3.04881,-0.71186 4.63093,0.7897c1.63073,1.51426 2.0215,3.17257 -4.4163,3.57474c-2.21916,0.14961 -4.06684,-0.33092 -5.56152,-0.77153c-0.38896,-0.10119 -3.65544,-1.31406 -4.39242,-3.27074c-0.73701,-1.95669 0.20337,-2.17929 0.64295,-2.27263z" fill="#000000" fill-rule="evenodd" stroke="#001026" stroke-width="1.2" stroke-linecap="round" stroke-linejoin="round"/><path d="M335.83591,196.37425c-0.67484,-0.79846 -1.1707,-2.48474 0.72668,-3.39292c2.2037,-1.08803 3.97246,1.29267 4.75524,2.27495c0.7828,0.98226 1.15521,1.54631 2.96777,3.15976c0.71278,0.65259 1.68131,1.31975 2.21423,1.66599c0.23045,0.11183 0.47358,0.17509 0.74199,0.14104c0.48818,-0.08068 -3.88788,-2.58824 -3.1411,-1.66728c0.71694,1.06117 1.5604,0.22354 -0.08394,1.33345c-0.1889,0.12752 0.36476,-0.16801 0.18032,-0.01208c-1.73526,1.46706 0.09974,1.48532 -1.06305,0.7485c-2.45927,-1.52208 -3.44558,-0.24598 -2.31551,-1.19799c0.1478,-0.16922 0.23633,-0.90878 0.0545,-1.00795l0.14782,2.50173c-0.51312,-0.32232 0.51819,0.74214 0.05238,0.39847c-0.51707,-0.38146 -1.6751,-1.57415 -2.12857,-1.95932c-1.94474,-1.65174 -2.60746,-2.4244 -3.10873,-2.9864z" fill="#000000" fill-rule="evenodd" stroke="#001026" stroke-width="1.2" stroke-linecap="round" stroke-linejoin="round"/><path d="M331.2676,184.13701c1.01628,-0.51437 2.58094,0.25593 2.27549,1.63c-0.3288,1.26418 -1.69127,2.31145 -2.47708,2.93765c-0.78578,0.62623 -4.25476,2.78684 -7.21772,0.407c-1.2204,-1.09606 -3.81857,-4.67884 -1.65087,-5.82812c2.16772,-1.14932 3.2538,1.26153 4.15522,2.58606c0.74485,1.12812 4.62129,-1.60134 4.91501,-1.73262z" fill="#000000" fill-rule="evenodd" stroke="#001026" stroke-width="1.2" stroke-linecap="round" stroke-linejoin="round"/><g fill-rule="evenodd"><path d="M332.96163,192.88347c-0.46965,-0.58937 -0.86346,-1.47044 -1.35058,-2.79108c-0.39181,-1.08824 -0.60467,-3.06431 -0.60467,-3.06431c-0.12146,-1.32936 0.19377,-3.73915 1.78567,-3.27321c1.05706,0.3268 2.06745,0.43385 3.78386,0.6207c3.06913,0.17524 3.70511,-0.07463 4.40226,2.23504c0.70584,2.67529 3.61822,5.24965 -1.5643,8.21046c0,0 -2.86307,1.22803 -6.4652,3.30207c-2.43809,1.39046 -6.20948,3.31669 -7.5194,3.96231c-0.29371,0.13127 -0.61072,0.15264 -0.91511,0.12539c-4.83022,-0.78901 -8.20463,-2.18573 -7.66086,-4.2765c0.91047,-3.50085 7.54739,-0.47697 7.54739,-0.47697c0,0 2.72985,-1.31462 3.99117,-1.97288z" fill="#000000" stroke="#001026" stroke-width="1.2" stroke-linecap="round" stroke-linejoin="round"/><path d="M331.66952,189.06932c0,0 -0.6077,-1.45584 1.82452,-2.2249c2.55474,-0.84102 2.97667,0.92988 3.54839,2.32444c0.58043,1.76023 -0.58168,2.23665 -1.78175,2.85895c-0.96764,0.52699 -1.84872,0.92083 -1.84872,0.92083c0,0 -1.24176,-1.41307 -1.74241,-3.8793z" fill="#a00000" stroke="none" stroke-width="1" stroke-linecap="butt" stroke-linejoin="miter"/></g><g fill-rule="evenodd"><path d="M338.04841,159.06224c1.16889,0.09635 2.36114,0.30257 3.69728,0.75389c2.26,0.69158 4.23304,2.0872 4.23304,2.0872l6.88233,-2.31109c0.21976,-0.04667 0.42496,0.16244 0.32576,0.34426l-3.2846,8.43792c-0.19056,-0.46482 3.53543,7.56415 -1.35839,12.20933c-4.89379,4.64519 -12.88076,5.21546 -21.55399,1.03911c-8.6732,-4.17636 -9.44692,-9.98405 -8.14265,-12.6038c1.30424,-2.61977 5.02204,-2.74299 5.02204,-2.74299c0,0 0.61766,-2.17538 2.86908,-4.44498c1.34113,-1.36428 5.04732,-2.84025 5.04732,-2.84025l2.61725,-4.87387c0.0992,-0.18184 0.35497,-0.16725 0.47556,-0.03204z" fill="#000000" stroke="#001026" stroke-width="1.2" stroke-linecap="butt" stroke-linejoin="miter"/><path d="M323.96451,166.50851c4.37317,0.15102 3.96554,3.31542 7.40313,4.46901c4.00843,1.35396 10.75079,-1.61649 12.65546,4.43341c1.91733,6.00128 -5.49524,11.54875 -16.62969,6.05739c-8.58861,-4.10247 -9.62001,-9.71759 -8.31577,-12.33737c1.30423,-2.61976 4.88684,-2.62242 4.88684,-2.62242z" fill="#000000" stroke="none" stroke-width="1" stroke-linecap="butt" stroke-linejoin="miter"/><path d="M337.92767,175.69444c-0.47375,2.42046 -1.72068,5.41851 -6.27179,4.754c-5.18123,-1.03605 -6.08051,-5.16326 -6.17672,-6.5899c-0.03401,-0.26839 0.22372,-0.46096 0.45417,-0.34908c0.69141,0.33554 2.20939,0.88607 4.87296,1.42307c2.96794,0.56418 5.79591,0.46911 6.80827,0.36902c0.20712,0.00194 0.36368,0.1984 0.31309,0.39289z" fill="#000000" stroke="#001026" stroke-width="1.2" stroke-linecap="round" stroke-linejoin="round"/><path d="M320.17178,168.11773c0,0 -3.48819,-0.95909 -5.29294,-3.40111" fill="none" stroke="#001026" stroke-width="1.2" stroke-linecap="round" stroke-linejoin="round"/><path d="M319.2312,170.93587c0,0 -2.13655,0.43065 -5.13657,-0.6091" fill="none" stroke="#001026" stroke-width="1.2" stroke-linecap="round" stroke-linejoin="round"/><path d="M333.96317,170.97771c-0.20233,0.77797 -2.56061,1.46241 -3.41053,1.13756c-0.76534,-0.25096 -1.14059,-1.80205 -0.91495,-2.47014c0.13714,-0.3277 1.23213,-0.14677 2.25325,0.11879c0.97245,0.25292 2.27263,0.64295 2.07224,1.21378z" fill="#001026" stroke="#000000" stroke-width="1.2" stroke-linecap="round" stroke-linejoin="round"/><path d="M347.33143,176.06367c2.09381,-1.06472 6.62943,-1.33863 6.62943,-1.33863" fill="none" stroke="#001026" stroke-width="1.2" stroke-linecap="round" stroke-linejoin="round"/><path d="M352.35601,179.49878c0,0 -3.73719,-0.40091 -5.61299,-1.77125" fill="none" stroke="#001026" stroke-width="1.2" stroke-linecap="round" stroke-linejoin="round"/><g fill="#a00000"><path d="M333.29671,161.56413c1.13385,1.2293 0.44027,3.69641 -1.53883,5.5177c-2.02773,1.80865 -4.52993,2.24806 -5.66375,1.0188c-1.13385,-1.2293 -0.44027,-3.69641 1.53883,-5.5177c1.97914,-1.82133 4.54259,-2.29667 5.66375,-1.0188z" stroke="#001026" stroke-width="1.2" stroke-linecap="round" stroke-linejoin="round"/><path d="M327.10664,165.40499c0.13909,-0.53483 0.64189,-0.8713 1.12812,-0.74485c0.48626,0.12646 0.76141,0.66525 0.62231,1.20008c-0.13909,0.53483 -0.64189,0.8713 -1.12812,0.74485c-0.48626,-0.12646 -0.76141,-0.66525 -0.62231,-1.20008" stroke="none" stroke-width="1" stroke-linecap="butt" stroke-linejoin="miter"/></g><g><path d="M339.33732,167.08042c2.01509,-1.76007 4.60384,-2.33266 5.82031,-0.82231c1.22912,1.46171 0.41106,4.2079 -1.65262,5.95533c-2.01509,1.76007 -4.33152,1.88436 -5.6958,0.54323c-1.07255,-1.26526 -0.48698,-3.9162 1.52813,-5.67623z" fill="#ffffff" stroke="#001026" stroke-width="1.2" stroke-linecap="round" stroke-linejoin="round"/><path d="M338.89566,169.97639c0.13909,-0.53483 0.62926,-0.82267 1.12812,-0.74485c0.48626,0.12646 0.76141,0.66525 0.62231,1.20008c-0.13909,0.53483 -0.64189,0.8713 -1.12812,0.74485c-0.48626,-0.12646 -0.76141,-0.66525 -0.62231,-1.20008" fill="#001026" stroke="none" stroke-width="1" stroke-linecap="butt" stroke-linejoin="miter"/></g></g><path d="M337.92531,171.25159c0,0 -0.1492,0.03169 -0.31617,-0.0097c-0.0576,0.16938 -0.09941,0.37067 -0.12142,0.64536c-0.19627,0.76327 -0.39468,1.526 -0.59302,2.28874l-0.01621,0.49734c0,0 -0.0358,0.627 -0.66279,0.59119c-0.62699,-0.03582 -0.59119,-0.66279 -0.59119,-0.66279l0.05458,-0.74188c0.18969,-0.7293 0.37913,-1.45867 0.57108,-2.18738c0.15518,-1.58856 1.21906,-3.50443 2.00736,-4.7351c0.63673,-0.99407 1.92757,-1.12861 2.58931,-2.21909c0.24495,-0.40363 0.03296,-0.96728 0.22576,-1.39824c0.09879,-0.22085 0.42079,-0.28919 0.51407,-0.51246c0.49328,-1.17999 0.23855,-1.45609 1.35527,-2.30396c0,0 0.50311,-0.37584 0.87897,0.12728c0.37584,0.50311 -0.12728,0.87897 -0.12728,0.87897c-1.36799,1.00108 -1.01902,2.49956 -1.75972,3.83758c-0.50797,0.91759 -1.43996,1.52443 -2.30829,1.94899c-0.03453,0.01689 -0.06514,0.03397 -0.09227,0.05126c0.10302,0.0865 0.15793,0.17998 0.15793,0.17998c0.11623,0.19792 0.23239,0.39582 0.34862,0.5937l0.03562,0.59384c0,0 -0.15806,0.60778 -0.76583,0.44973c-0.40629,-0.10565 -0.47031,-0.41228 -0.46815,-0.60399c-0.00351,-0.006 -0.00706,-0.01201 -0.01055,-0.01797c-0.11914,0.06404 -0.23935,0.12728 -0.3168,0.23246c-0.21455,0.29164 -0.17175,0.69686 -0.23922,1.05931c0.18561,-0.05055 0.3589,-0.00547 0.3589,-0.00547l0.09015,1.25272c-0.26622,0.05652 -0.53243,0.11305 -0.79867,0.16955z" fill="#a00000" fill-rule="nonzero" stroke="none" stroke-width="0.5" stroke-linecap="butt" stroke-linejoin="miter"/><path d="M334.0035,175.06645c-0.62699,-0.03582 -0.59119,-0.66279 -0.59119,-0.66279l0.03578,-0.54155c-0.01772,-0.2724 -0.03544,-0.54477 -0.05316,-0.81719c0.06515,-0.7087 -0.17843,-1.66682 0.08792,-2.33418c0.231,-0.57884 0.88678,-1.18128 1.23043,-1.71084c0.95271,-1.46827 1.98084,-3.16569 2.72001,-4.74159c0.65644,-1.39949 0.79167,-3.57261 1.18927,-5.10144c0,0 0.15806,-0.60778 0.76583,-0.44973c0.60778,0.15806 0.44973,0.76583 0.44973,0.76583c-0.42419,1.63108 -0.57732,3.81872 -1.27099,5.3256c-0.74977,1.62874 -1.82327,3.38315 -2.80287,4.88896c-0.0317,0.04872 -1.05376,1.34783 -1.10216,1.45534c-0.20027,0.44486 0.03122,1.42843 -0.01131,1.91584c0.01681,0.23961 0.03357,0.47923 0.05039,0.71888l-0.03499,0.69763c0,0 -0.0358,0.627 -0.66279,0.59119z" fill="#a00000" fill-rule="nonzero" stroke="none" stroke-width="0.5" stroke-linecap="butt" stroke-linejoin="miter"/><path d="M321.76983,178.74991c-0.31801,-0.54157 0.22353,-0.85955 0.22353,-0.85955l0.44361,-0.22576c0.79788,-2.01581 1.62545,-4.08787 2.5207,-6.06826c0.70386,-1.55703 0.17517,-3.42071 2.26984,-3.80675c0,0 0.62304,-0.07895 0.70198,0.54407c0.07898,0.62301 -0.54406,0.70198 -0.54406,0.70198c-0.88374,0.00201 -0.87118,1.54861 -1.0616,2.26544c-0.64666,2.43451 -1.85553,4.93373 -2.95075,7.20089l-0.74381,0.47152c0,0 -0.54153,0.31799 -0.85955,-0.22353z" fill="#a00000" fill-rule="nonzero" stroke="none" stroke-width="0.5" stroke-linecap="butt" stroke-linejoin="miter"/><path d="M320.45242,177.84279c-0.60778,-0.15806 -0.44973,-0.76583 -0.44973,-0.76583l0.15678,-0.56892c0.93666,-2.09971 1.55096,-4.26525 2.65444,-6.28735c0.68826,-1.26126 1.86598,-2.28622 2.42791,-3.58352c0,0 0.25583,-0.57354 0.82938,-0.31769c0.57354,0.25583 0.31769,0.82938 0.31769,0.82938c-0.61553,1.34947 -1.7673,2.38017 -2.48226,3.69118c-1.08277,1.9854 -1.67932,4.11559 -2.60006,6.17971l-0.08827,0.37338c0,0 -0.15806,0.60778 -0.76583,0.44973z" fill="#a00000" fill-rule="nonzero" stroke="none" stroke-width="0.5" stroke-linecap="butt" stroke-linejoin="miter"/><path d="M342.96893,168.59702c-0.62624,-0.0468 -0.57948,-0.67304 -0.57948,-0.67304l0.00781,-0.10446c0.3274,-1.94909 0.42457,-1.97866 2.28129,-1.81698c0,0 0.6255,0.05597 0.56949,0.68152c-0.05597,0.6255 -0.68152,0.56949 -0.68152,0.56949c-0.34038,-0.03142 -0.90402,-0.52003 -1.00696,-0.19406c-0.0862,0.27281 0.06013,0.5691 0.09024,0.85363l-0.00781,0.10446c0,0 -0.0468,0.62624 -0.67304,0.57948z" fill="#a00000" fill-rule="nonzero" stroke="none" stroke-width="0.5" stroke-linecap="butt" stroke-linejoin="miter"/><path d="M341.85177,170.43475c0.15806,-0.60778 0.76583,-0.44973 0.76583,-0.44973l0.11782,0.03066c0.47117,0.12257 0.94236,0.24509 1.41354,0.36763c0,0 0.60778,0.15806 0.44973,0.76583c-0.15806,0.60778 -0.76583,0.44973 -0.76583,0.44973c-0.47114,-0.12252 -1.06016,-0.27571 -1.53131,-0.39824c0,0 -0.60778,-0.15806 -0.44973,-0.76583z" fill="#a00000" fill-rule="nonzero" stroke="none" stroke-width="0.5" stroke-linecap="butt" stroke-linejoin="miter"/><path d="M339.73613,171.56362c0.54155,-0.31797 0.85955,0.22353 0.85955,0.22353l0.07224,0.80859c-0.13979,0.21517 -0.27959,0.43034 -0.41938,0.64547c0,0 -0.34216,0.5266 -0.86878,0.18442c-0.52663,-0.34214 -0.18445,-0.86875 -0.18445,-0.86875c0.07872,-0.12122 0.15753,-0.24244 0.23625,-0.36363c-0.03448,-0.18558 -0.00955,-0.44519 0.30459,-0.62966z" fill="#a00000" fill-rule="nonzero" stroke="none" stroke-width="0.5" stroke-linecap="butt" stroke-linejoin="miter"/><path d="M347.52299,200.97643c-0.58108,0.23818 -0.81927,-0.34286 -0.81927,-0.34286l0.09439,-0.22774c-0.34231,-0.15396 -0.68842,-0.27418 -1.03509,-0.3924c-0.10886,0.04116 -0.19813,0.04718 -0.19813,0.04718c-0.2333,0.01449 -0.46688,0.06172 -0.69989,0.04346c-0.08873,-0.00697 -0.22541,-0.20508 -0.23994,-0.11728c-0.0432,0.26134 0.34862,0.63476 0.12978,0.78403c-0.40077,0.27337 -0.9657,0.13031 -1.45061,0.11689c-0.27239,-0.00754 -0.72874,-0.60608 -0.74602,-0.33416c-0.01384,0.21803 0.25796,0.52019 0.0824,0.65024c-0.74239,0.55003 -2.25565,0.48918 -2.26624,-0.89147c-0.00308,-0.40262 0.59881,-0.53837 0.89825,-0.80757l0.59387,-0.03562c0,0 0.11801,0.03069 0.23649,0.11702c0.17345,-0.06361 0.38913,-0.10909 0.64933,-0.12644c0.26759,-0.01785 0.53963,0.07631 0.78105,0.19305c0.12138,0.05873 0.26521,0.44494 0.25973,0.3102c-0.00867,-0.21247 -0.40115,-0.40977 -0.27064,-0.57772c0.18077,-0.23262 0.43937,-0.36426 0.72376,-0.44158c0.00963,-0.05751 0.0281,-0.11914 0.05741,-0.18486c0.25583,-0.57354 0.82938,-0.31769 0.82938,-0.31769c0.71888,0.32335 1.45456,0.49781 2.1768,0.81766l0.55608,0.89841c0,0 0.23818,0.58108 -0.34286,0.81927z" fill="#a00000" fill-rule="nonzero" stroke="none" stroke-width="0.5" stroke-linecap="butt" stroke-linejoin="miter"/><path d="M345.56237,204.43052c-0.54155,0.31797 -0.85955,-0.22353 -0.85955,-0.22353l-0.32246,-0.5861c-0.06672,-0.22694 -0.13346,-0.45392 -0.20021,-0.68088c0,0 -0.17714,-0.60252 0.42534,-0.77966c0.60252,-0.17714 0.77966,0.42534 0.77966,0.42534c0.06673,0.22696 0.13347,0.45393 0.20021,0.68088l0.2005,0.30443c0,0 0.31797,0.54155 -0.22353,0.85955z" fill="#a00000" fill-rule="nonzero" stroke="none" stroke-width="0.5" stroke-linecap="butt" stroke-linejoin="miter"/><path d="M343.12035,206.21l0.06601,-0.7374c0,0 0.05597,-0.6255 0.68152,-0.56949c0.6255,0.05597 0.56949,0.68152 0.56949,0.68152l-0.06601,0.7374c0,0 -0.05597,0.6255 -0.68152,0.56949c-0.6255,-0.05597 -0.56949,-0.68152 -0.56949,-0.68152z" fill="#a00000" fill-rule="nonzero" stroke="none" stroke-width="0.5" stroke-linecap="butt" stroke-linejoin="miter"/><path d="M350.03553,206.55705c-0.41317,0.47295 -0.88614,0.05975 -0.88614,0.05975l-0.39425,-0.47484c-0.06673,-0.22696 -0.13347,-0.45393 -0.20021,-0.68088c0,0 -0.05374,-0.18285 -0.00131,-0.37668c-0.17979,-0.15097 -0.2672,-0.39704 -0.20418,-0.63939c0.08732,-0.33567 0.43019,-0.53703 0.76583,-0.44973c0.33567,0.08732 0.53703,0.43019 0.44973,0.76583c-0.00246,0.00946 -0.00513,0.01883 -0.00801,0.02805c0.1491,0.13464 0.20293,0.31761 0.20293,0.31761c0.06673,0.22696 0.13347,0.45393 0.20021,0.68088l0.01566,-0.1167c0,0 0.47292,0.4132 0.05975,0.88614z" fill="#a00000" fill-rule="nonzero" stroke="none" stroke-width="0.5" stroke-linecap="butt" stroke-linejoin="miter"/><path d="M342.293,199.93318c-0.31797,-0.54155 0.22353,-0.85955 0.22353,-0.85955l0.38746,-0.16862c0.00998,-0.00126 0.01995,-0.00252 0.02992,-0.00378c-0.02941,-0.17804 -0.03057,-0.54611 0.41125,-0.69924c0.59337,-0.20562 0.79902,0.38777 0.79902,0.38777l0.09185,0.30227c0.23247,0.40153 0.4764,0.6957 0.4981,0.97875c0.0826,0.05369 0.15037,0.12562 0.19917,0.20865l0.34862,0.59373v0c0.08138,0.13859 0.10992,0.30822 0.06626,0.47609c-0.06188,0.23801 -0.25231,0.40847 -0.4775,0.4564l0.06442,0.42496c0.01499,0.08579 0.01232,0.1761 -0.01104,0.26593c-0.08732,0.33567 -0.43019,0.53703 -0.76583,0.44973c-0.1021,-0.02653 -0.19173,-0.07677 -0.26462,-0.1432l-0.60534,-0.52888l0.00487,-0.00559l-0.02271,-0.01062c-0.36346,-0.37426 -0.68927,-0.79075 -0.95619,-1.23898c0,0 -0.25357,-0.4318 0.07772,-0.75065c-0.03461,-0.03758 -0.0678,-0.08228 -0.09887,-0.13519zM343.36951,200.14212c-0.00255,-0.00968 -0.00514,-0.01932 -0.0077,-0.02901c-0.00444,0.00056 -0.0089,0.00114 -0.01335,0.0017c0.00799,0.00988 0.01499,0.01909 0.02105,0.02734z" fill="#ffffff" fill-rule="nonzero" stroke="none" stroke-width="0.5" stroke-linecap="butt" stroke-linejoin="miter"/><path d="M336.32176,175.27253c0.49113,-0.39139 0.88249,0.09971 0.88249,0.09971l-0.05708,0.50753c0.12203,-0.14918 0.24194,-0.28235 0.33467,-0.37582c0,0 0.44822,-0.43984 0.88809,0.00839c0.43982,0.44823 -0.00839,0.88809 -0.00839,0.88809c-0.9587,0.9064 -1.23022,2.92204 -2.56173,0.90838c-0.12704,-0.19207 -0.13319,-0.44034 -0.19503,-0.66277l-0.31898,-0.54325l0.2178,-0.12788l-0.09659,-0.65667c0.2181,0.04994 0.437,0.10052 0.65686,0.14558l0.13603,-0.18463l0.062,0.04568c0.01836,-0.01761 0.03829,-0.03506 0.05997,-0.05232z" fill="#8da900" fill-rule="nonzero" stroke="none" stroke-width="0.5" stroke-linecap="butt" stroke-linejoin="miter"/><path d="M328.19668,174.3475c0,0 0.53675,-0.31518 0.8553,0.2164c0.15216,-0.14625 0.37449,-0.21242 0.59373,-0.15538c0.16782,0.04367 0.30209,0.15119 0.38347,0.28979v0l0.17607,0.29983c0.1394,0.05229 0.28325,0.08365 0.43184,0.0829l0.55811,-0.17705c0,0 0.50671,-0.14897 0.72738,0.29098c0.1682,-0.03581 0.46133,-0.04353 0.64789,0.25915c0.44018,-0.15285 1.03997,-0.32417 1.22087,-0.37797l0.45304,0.02536c0,0 0.16455,0.04282 0.30012,0.16948c0.03093,-0.05597 0.06401,-0.11 0.10104,-0.16025c0,0 0.37248,-0.5056 0.87808,-0.13312c0.50561,0.37248 0.13312,0.87808 0.13312,0.87808c-0.05865,0.07958 -0.20428,0.28063 -0.36623,0.49755c0.06423,0.1304 0.08372,0.28358 0.04427,0.43528c-0.03297,0.1267 -0.10231,0.23428 -0.19399,0.31441c-0.04921,0.23661 -0.24352,0.3624 -0.35889,0.41754c0.00242,0.00295 0.00482,0.00588 0.0072,0.00887c0.24015,0.13719 0.36882,0.42278 0.29585,0.70332c-0.08732,0.33567 -0.43019,0.53703 -0.76583,0.44973c-0.14525,-0.03778 -0.26538,-0.1234 -0.34782,-0.23563c-0.11657,-0.05884 -0.23064,-0.1252 -0.34082,-0.19836c-0.02407,-0.00406 -0.04894,-0.00934 -0.07459,-0.01603c-0.28488,-0.07408 -0.40151,-0.24699 -0.44503,-0.4098c-0.15338,-0.15436 -0.29031,-0.32364 -0.40488,-0.50436l-0.0766,-0.02414c0,0 -0.16956,-0.14811 -0.21691,-0.3685c-0.14355,-0.11379 -0.25726,-0.25522 -0.3262,-0.42671c-0.53776,0.39813 -0.60672,1.3585 -1.34558,1.45187c-1.03002,0.13017 -1.48817,-1.17183 -1.72422,-1.95089c-0.20395,0.1083 -0.40589,0.2197 -0.59277,0.35456c-0.29392,0.21211 -0.48222,0.73371 -0.84178,0.68832c-0.43521,-0.05492 -1.01706,-1.17846 -1.24097,-1.56514l-0.00242,-0.07927l-0.02375,0.00701l-0.19729,-0.67098c-0.0339,-0.10835 -0.03888,-0.22721 -0.00819,-0.34514c0.08732,-0.33567 0.43019,-0.53703 0.76583,-0.44973c0.03275,0.00852 0.06427,0.01948 0.09433,0.03265l0.78394,0.32806l-0.00574,0.0137c0.21066,0.0416 0.42025,0.08809 0.62816,0.14165l-0.1792,-0.10808zM330.47063,176.30916c-0.0129,-0.00044 -0.02577,-0.00081 -0.0387,-0.00116c0.0064,0.02019 0.01271,0.04006 0.01884,0.05951c0.00573,-0.01912 0.0124,-0.03859 0.01987,-0.05834z" fill="#8da900" fill-rule="nonzero" stroke="none" stroke-width="0.5" stroke-linecap="butt" stroke-linejoin="miter"/><path d="M330.15417,178.23814c1.29704,-0.38827 1.57092,-0.30041 2.19732,0.32101c0.39346,-0.15897 0.97096,0.19946 1.41877,0.61354l0.24694,-0.22292c0.59321,0.07736 1.19027,0.34909 1.62671,0.7582c0,0 0.43982,0.44823 -0.00839,0.88812c-0.44825,0.43986 -0.88812,-0.00839 -0.88812,-0.00839c-0.01859,-0.02216 -0.03835,-0.04352 -0.05921,-0.06409c-0.14742,0.18965 -0.39733,0.28522 -0.64466,0.22496c-0.22086,0.09916 -0.40023,0.05529 -0.53075,-0.02305l-0.58018,-0.0231c-0.15627,-0.10653 -0.37954,-0.17529 -0.57766,-0.25823c-0.48346,0.36782 -0.86616,-0.11249 -0.86616,-0.11249l-0.04621,-0.25949c-0.48716,-0.12834 -0.97789,-0.29555 -1.43746,-0.5182l-0.10443,0.23413l-0.66669,-0.29737c-0.28165,-0.11968 -0.44072,-0.43072 -0.36137,-0.7358c0.0711,-0.27342 0.31178,-0.45768 0.57999,-0.46948l0.70165,-0.0473z" fill="#8da900" fill-rule="nonzero" stroke="none" stroke-width="0.5" stroke-linecap="butt" stroke-linejoin="miter"/><path d="M337.18783,178.30462c-0.50311,0.37584 -0.87897,-0.12728 -0.87897,-0.12728l-0.55106,-1.2214c0.41865,-0.18756 0.83735,-0.37512 1.256,-0.56268c0,0 0.61431,-0.13043 0.74473,0.48387c0.09233,0.43495 -0.18868,0.62732 -0.36062,0.7026c0.07196,0.17826 0.11924,0.47882 -0.21008,0.72488z" fill="#a00000" fill-rule="nonzero" stroke="none" stroke-width="0.5" stroke-linecap="butt" stroke-linejoin="miter"/><path d="M335.67402,178.38587c-0.15806,0.60778 -0.76583,0.44973 -0.76583,0.44973l-0.23558,-0.06127c-0.29681,-0.08145 -0.56808,-0.23523 -0.81582,-0.42901l-0.10538,0.14305l-0.51594,-0.38008c-0.20843,-0.14622 -0.31493,-0.41146 -0.24706,-0.67235c0.06783,-0.2609 0.29008,-0.44062 0.54333,-0.46678l0.63575,-0.08056l0.00565,0.04454l0.1136,-0.04823c0.27483,0.06759 0.5497,0.13515 0.82453,0.20273c0,0 0.59376,0.15443 0.45493,0.74484c0.10396,0.11826 0.175,0.29527 0.10786,0.55344z" fill="#a00000" fill-rule="nonzero" stroke="none" stroke-width="0.5" stroke-linecap="butt" stroke-linejoin="miter"/><path d="M332.42884,179.13045c-0.34216,0.5266 -0.86878,0.18442 -0.86878,0.18442l-0.29954,-0.19535c-0.14323,-0.09224 -0.32217,-0.15465 -0.48782,-0.22815c-0.23636,0.1905 -0.55989,0.10639 -0.55989,0.10639l-0.94234,-0.24506c-0.10268,-0.0267 -0.19284,-0.07732 -0.26592,-0.14436c-0.019,-0.00172 -0.03806,-0.00352 -0.05713,-0.00538l-0.26142,-0.01487c0,0 -0.62699,-0.03582 -0.59118,-0.66279c0.00848,-0.14838 0.05004,-0.25968 0.10865,-0.34308c0.14027,-0.22541 0.38625,-0.26282 0.52381,-0.26455c-0.03977,-0.1136 -0.04737,-0.23983 -0.01482,-0.36509c0.06783,-0.2609 0.29008,-0.44062 0.54333,-0.46678l0.63575,-0.08056l0.00301,0.02366l0.06442,-0.02852c0.62385,0.05474 1.24295,0.17484 1.84934,0.33121c0,0 0.60778,0.15806 0.44973,0.76583c-0.01013,0.0389 -0.02207,0.07463 -0.03557,0.10747c0.03457,0.07119 0.05702,0.15769 0.06008,0.26285c0.05033,0.12177 0.06297,0.26032 0.02725,0.3977c-0.00334,0.01284 -0.00704,0.02549 -0.01112,0.03793c0.12501,0.10619 0.40221,0.40831 0.13016,0.82705z" fill="#a00000" fill-rule="nonzero" stroke="none" stroke-width="0.5" stroke-linecap="butt" stroke-linejoin="miter"/><path d="M327.30812,177.11058c-0.33567,-0.08732 -0.53703,-0.43019 -0.44973,-0.76583c0.08732,-0.33567 0.43019,-0.53703 0.76583,-0.44973c0.33567,0.08732 0.53703,0.43019 0.44973,0.76583c-0.08732,0.33567 -0.43019,0.53703 -0.76583,0.44973z" fill="#a00000" fill-rule="nonzero" stroke="none" stroke-width="0.5" stroke-linecap="butt" stroke-linejoin="miter"/><path d="M333.05106,177.82909c-0.07893,0.30348 -0.26997,0.41602 -0.44151,0.45261c-0.00733,0.01128 -0.01493,0.02231 -0.02287,0.03304c0.09615,0.01963 0.19315,0.04852 0.29095,0.08969c0.21081,0.08877 0.39237,0.24199 0.57959,0.37997c0.66267,0.16765 1.31852,0.35382 1.95777,0.52003l0.82457,0.21445c0.33567,0.08732 0.53703,0.43019 0.44973,0.76583c-0.07932,0.30505 -0.36977,0.49918 -0.67407,0.4665l-0.56214,-0.0503c-0.13603,0.33818 -0.54261,0.36558 -0.54261,0.36558c-2.34823,0.15834 -3.88691,-0.47077 -5.98278,-1.40572l-0.66669,-0.29737c-0.28165,-0.11968 -0.44072,-0.43072 -0.36137,-0.7358c0.02371,-0.09118 0.06629,-0.17244 0.12245,-0.24071c-0.16886,-0.08905 -0.41565,-0.29437 -0.30819,-0.7078c0.09949,-0.38251 0.37703,-0.46166 0.56919,-0.46781c0.00558,-0.00519 0.01128,-0.01037 0.0172,-0.0155c-0.00154,-0.18733 0.05904,-0.52417 0.49543,-0.61682c0.61433,-0.13041 0.74473,0.48388 0.74473,0.48388c0.00217,0.13832 0.03653,0.28743 0.06749,0.43541c0.11697,-0.08447 0.28211,-0.13366 0.51118,-0.07412c0.55283,0.14378 0.47206,0.65964 0.4529,0.75174c0.09633,0.06391 0.19545,0.1065 0.29716,0.1337c0.05755,0.00484 0.11516,0.01009 0.17276,0.01589c0.05561,-0.07593 0.12725,-0.13775 0.20869,-0.18169c0.09972,-0.23325 0.18191,-0.47436 0.24389,-0.71952l1.10693,-0.361c0,0 0.60778,0.15806 0.44973,0.76583zM330.31733,177.94546c0.0606,0.07141 0.12251,0.131 0.18565,0.18053z" fill="#000000" fill-rule="nonzero" stroke="none" stroke-width="0.5" stroke-linecap="butt" stroke-linejoin="miter"/><path d="M331.04078,177.74322l-0.71765,-0.04096" fill="none" fill-rule="nonzero" stroke="#001026" stroke-width="1.2" stroke-linecap="round" stroke-linejoin="miter"/><path d="M329.24668,177.64081l2.34255,-0.04623" fill="none" fill-rule="nonzero" stroke="#a00000" stroke-width="1.2" stroke-linecap="round" stroke-linejoin="miter"/><path d="M332.03951,176.98339l-1.31533,1.69715" fill="none" fill-rule="nonzero" stroke="#000000" stroke-width="1.2" stroke-linecap="round" stroke-linejoin="miter"/><path d="M329.85238,178.67227l-0.84706,-2.62368" fill="none" fill-rule="nonzero" stroke="#000000" stroke-width="1.2" stroke-linecap="round" stroke-linejoin="miter"/><path d="M338.12807,184.97698c0.22421,-0.5866 0.81086,-0.36239 0.81086,-0.36239l0.65675,0.25476c0.0083,0.02774 0.01658,0.05546 0.02485,0.08316l0.03252,-0.05006l0.54857,0.35643c0.17245,0.10637 0.28329,0.2909 0.29675,0.49256c0.5913,0.53907 1.01224,1.73327 -0.02186,2.32213c-1.04015,0.59231 -3.0071,-0.71625 -2.64073,-1.98168c0.06614,-0.22847 0.19466,-0.39987 0.36191,-0.52154c-0.10417,-0.12994 -0.17287,-0.32322 -0.06961,-0.59334z" fill="#a00000" fill-rule="nonzero" stroke="none" stroke-width="0.5" stroke-linecap="butt" stroke-linejoin="miter"/><path d="M339.45287,186.84323c-0.33567,-0.08732 -0.53703,-0.43019 -0.44973,-0.76583c0.08732,-0.33567 0.43019,-0.53703 0.76583,-0.44973c0.33567,0.08732 0.53703,0.43019 0.44973,0.76583c-0.08732,0.33567 -0.43019,0.53703 -0.76583,0.44973z" fill="#ffffff" fill-rule="nonzero" stroke="none" stroke-width="0.5" stroke-linecap="butt" stroke-linejoin="miter"/><path d="M331.3109,178.1048l-2.03424,-0.01922l-0.19366,-1.21564" fill="none" fill-rule="nonzero" stroke="#000000" stroke-width="1.2" stroke-linecap="round" stroke-linejoin="miter"/><path d="M336.79399,190.60084c-0.08732,0.33567 -0.43019,0.53703 -0.76583,0.44973c-0.03826,-0.00994 -0.07477,-0.02323 -0.10927,-0.03943c0.07913,0.13763 0.10641,0.3052 0.06334,0.47103c-0.08732,0.33567 -0.43019,0.53703 -0.76583,0.44973c-0.11206,-0.02915 -0.20919,-0.08676 -0.28556,-0.16314c-0.14178,0.22577 -0.41823,0.34425 -0.68995,0.27357c-0.05273,-0.01372 -0.10217,-0.03376 -0.14765,-0.05902c-0.12567,0.26914 -0.42911,0.41882 -0.72689,0.34138c-0.33567,-0.08732 -0.53703,-0.43019 -0.44973,-0.76583c0.00679,-0.02609 0.01512,-0.05136 0.02489,-0.07577c-0.30136,-0.10917 -0.47546,-0.43191 -0.39317,-0.74832c0.08732,-0.33567 0.43019,-0.53703 0.76583,-0.44973c0.02609,0.00679 0.05139,0.01513 0.07579,0.02487c0.10917,-0.30136 0.43191,-0.47546 0.74832,-0.39317c0.05832,0.01514 0.11258,0.03808 0.16202,0.06729c0.14025,-0.23086 0.41993,-0.35291 0.69481,-0.28144c0.08153,0.0212 0.15511,0.05747 0.21855,0.10506c0.13593,-0.24375 0.42377,-0.37498 0.7065,-0.30146c0.06645,0.01729 0.12762,0.04458 0.18236,0.07984c0.14895,-0.19429 0.40488,-0.29124 0.65676,-0.22576c0.33567,0.08732 0.53703,0.43019 0.44973,0.76583c-0.05526,0.2124 -0.21278,0.371 -0.40615,0.43676c-0.00247,0.01266 -0.00537,0.02532 -0.00865,0.03801zM335.53245,190.71637c0.03826,0.00994 0.07477,0.02323 0.10927,0.03943c-0.00541,-0.00941 -0.01056,-0.01892 -0.01546,-0.02858c-0.00747,-0.00167 -0.01494,-0.00347 -0.02239,-0.0054c-0.08153,-0.0212 -0.15511,-0.05747 -0.21855,-0.10506c-0.01587,0.02849 -0.03385,0.05542 -0.0536,0.08068c0.06583,-0.00447 0.13343,0.00139 0.20077,0.01892zM334.78096,190.93601c0.02176,0.01666 0.04227,0.03472 0.0615,0.0539c0.01151,-0.01831 0.02389,-0.03596 0.03711,-0.05285c-0.03253,0.00219 -0.06543,0.0019 -0.0986,-0.00112zM333.7389,191.1267c0.03184,0.01155 0.06229,0.02545 0.09111,0.04149c0.0048,-0.01027 0.00987,-0.02039 0.01516,-0.0303c-0.00773,-0.00174 -0.01546,-0.00355 -0.02319,-0.00555c-0.02609,-0.00679 -0.05136,-0.01512 -0.07577,-0.02489c-0.00234,0.00648 -0.00479,0.0129 -0.00734,0.01923z" fill="#e93e3e" fill-rule="nonzero" stroke="none" stroke-width="0.5" stroke-linecap="butt" stroke-linejoin="miter"/><path d="M345.35643,192.68207c-0.08732,0.33567 -0.43019,0.53703 -0.76583,0.44973c-0.08883,-0.02308 -0.16824,-0.06408 -0.23541,-0.11813c-0.12143,0.0499 -0.25948,0.06229 -0.39628,0.02668c-0.1402,-0.03643 -0.25692,-0.11748 -0.33902,-0.22396c-0.1423,0.09131 -0.32082,0.12522 -0.4973,0.0793c-0.16552,-0.04303 -0.29833,-0.14822 -0.38002,-0.28401c-0.15231,0.15787 -0.38304,0.2312 -0.61046,0.17205c-0.17881,-0.04651 -0.3195,-0.16551 -0.39875,-0.31737c-0.1513,0.1335 -0.36405,0.19181 -0.57403,0.13719c-0.26537,-0.06901 -0.44681,-0.2978 -0.468,-0.55643c-0.12609,0.05695 -0.27175,0.07274 -0.41606,0.0352c-0.17859,-0.04644 -0.31913,-0.16523 -0.39843,-0.31675c-0.14497,0.21382 -0.41374,0.32403 -0.67802,0.25528c-0.1402,-0.03643 -0.25692,-0.11748 -0.33902,-0.22396c-0.14231,0.09128 -0.32082,0.12522 -0.4973,0.0793c-0.07181,-0.01868 -0.13748,-0.04906 -0.19545,-0.08854c-0.0699,0.00623 -0.14202,0.00078 -0.21383,-0.01788c-0.05535,-0.01441 -0.10704,-0.03576 -0.15438,-0.06285c-0.10717,0.03272 -0.22444,0.03716 -0.34087,0.00687c-0.19646,-0.0511 -0.34695,-0.18976 -0.42043,-0.36332c-0.11299,0.03905 -0.23829,0.04632 -0.36269,0.01399c-0.33567,-0.08732 -0.53703,-0.43019 -0.44973,-0.76583c0.08732,-0.33567 0.43019,-0.53703 0.76583,-0.44973c0.19646,0.0511 0.34695,0.18976 0.42043,0.36332c0.11299,-0.03905 0.23829,-0.04632 0.36269,-0.01399c0.05535,0.01441 0.10704,0.03576 0.15438,0.06285c0.1072,-0.03272 0.22444,-0.03716 0.34087,-0.00687c0.07181,0.01868 0.1375,0.04903 0.19545,0.08852c0.0699,-0.00623 0.14199,-0.00076 0.21383,0.01794c0.1402,0.03643 0.25692,0.11748 0.33902,0.22396c0.1423,-0.09127 0.32079,-0.12517 0.49729,-0.07931c0.17859,0.04644 0.31913,0.16523 0.39843,0.31675c0.14499,-0.21384 0.41374,-0.32403 0.67802,-0.25528c0.26538,0.06904 0.44681,0.2978 0.468,0.55643c0.12609,-0.05695 0.27175,-0.07274 0.41606,-0.0352c0.17881,0.04651 0.3195,0.16551 0.39875,0.31737c0.1513,-0.1335 0.36405,-0.19181 0.57403,-0.13719c0.16552,0.04303 0.29832,0.14822 0.38002,0.28401c0.15231,-0.15783 0.38304,-0.2312 0.61046,-0.17205c0.1402,0.03643 0.25692,0.11748 0.33902,0.22396c0.1423,-0.09127 0.32082,-0.12522 0.4973,-0.0793c0.08883,0.02308 0.16824,0.06408 0.23541,0.11813c0.12143,-0.0499 0.25948,-0.06229 0.39628,-0.02668c0.33567,0.08732 0.53703,0.43019 0.44973,0.76583z" fill="#e93e3e" fill-rule="nonzero" stroke="none" stroke-width="0.5" stroke-linecap="butt" stroke-linejoin="miter"/><path d="M332.61461,190.45416c-0.33567,-0.08732 -0.53703,-0.43019 -0.44973,-0.76583c0.08226,-0.31639 0.39158,-0.51342 0.70793,-0.46194c0.00339,-0.02606 0.0084,-0.05219 0.01519,-0.07829c0.08732,-0.33567 0.43019,-0.53703 0.76583,-0.44973c0.12992,0.03381 0.23973,0.10588 0.32045,0.20102c0.00287,-0.0162 0.00641,-0.03243 0.01065,-0.04865c0.08732,-0.33567 0.43019,-0.53703 0.76583,-0.44973c0.12074,0.03139 0.22408,0.09586 0.30288,0.18115c0.14925,-0.1927 0.40407,-0.28862 0.6549,-0.22338c0.08884,0.02311 0.16827,0.06412 0.23543,0.11818c0.14633,-0.20793 0.41127,-0.31415 0.67186,-0.24635c0.33567,0.08732 0.53703,0.43019 0.44973,0.76583c-0.08732,0.33567 -0.43019,0.53703 -0.76583,0.44973c-0.08884,-0.02311 -0.16827,-0.06412 -0.23543,-0.11818c-0.14633,0.20793 -0.41127,0.31415 -0.67186,0.24635c-0.12074,-0.0314 -0.22408,-0.09586 -0.30288,-0.18115c-0.14925,0.1927 -0.40408,0.2886 -0.6549,0.22338c-0.12992,-0.03381 -0.23973,-0.10588 -0.32045,-0.20102c-0.00287,0.0162 -0.00641,0.03243 -0.01065,0.04865c-0.08226,0.31639 -0.3916,0.5134 -0.70794,0.46193c-0.00338,0.02609 -0.00839,0.05219 -0.0152,0.07829c-0.08732,0.33567 -0.43019,0.53703 -0.76583,0.44973z" fill="#e93e3e" fill-rule="nonzero" stroke="none" stroke-width="0.5" stroke-linecap="butt" stroke-linejoin="miter"/><path d="M347.51386,193.37294c-0.06712,-0.01743 -0.10737,-0.08602 -0.08994,-0.15317c0.01743,-0.06712 0.08602,-0.10737 0.15317,-0.08994c0.06712,0.01743 0.10737,0.08602 0.08994,0.15317c-0.01743,0.06712 -0.08602,0.10737 -0.15317,0.08994z" fill="#a00000" fill-rule="nonzero" stroke="none" stroke-width="0.5" stroke-linecap="butt" stroke-linejoin="miter"/><path d="M347.41606,190.8135c-0.04111,-0.11868 0.07754,-0.15979 0.07754,-0.15979l0.00555,-0.00193c0.15824,-0.05484 0.31648,-0.10966 0.47468,-0.16449c0,0 0.11868,-0.04111 0.15979,0.07754c0.04111,0.11868 -0.07754,0.15979 -0.07754,0.15979c-0.15822,0.05482 -0.322,0.11159 -0.48026,0.16643c0,0 -0.11868,0.04111 -0.15979,-0.07754z" fill="#a00000" fill-rule="nonzero" stroke="none" stroke-width="0.5" stroke-linecap="butt" stroke-linejoin="miter"/><path d="M348.74524,191.81554c-0.02994,0.11508 -0.1099,0.20384 -0.21052,0.24902c0.08718,0.06703 0.17042,0.18537 0.11908,0.38265c-0.09485,0.36469 -0.45952,0.26984 -0.45952,0.26984l-0.07519,-0.02484c-0.04301,-0.00419 -0.08523,-0.00729 -0.12679,-0.00955c-0.02341,0.03758 -0.05303,0.07027 -0.08711,0.097c0.03579,0.01363 0.08116,0.04605 0.07679,0.12289c-0.00144,0.02504 -0.00754,0.04476 -0.0165,0.06033c-0.00049,0.00997 -0.00208,0.02076 -0.00513,0.03231c-0.03163,0.12157 -0.15317,0.08994 -0.15317,0.08994l-0.06822,-0.01773c-0.06,-0.018 -0.1189,-0.04508 -0.17345,-0.07954c-0.08051,-0.01174 -0.16497,-0.02479 -0.24938,-0.0363c-0.00176,0.00663 -0.00346,0.01344 -0.00517,0.0204l-0.14392,0.12717c0,0 -0.01714,0.01007 -0.04177,0.01539c-0.00035,0.00881 -0.00167,0.01774 -0.00396,0.02665c-0.01743,0.06712 -0.08602,0.10737 -0.15317,0.08994c-0.03288,-0.00857 -0.05932,-0.02937 -0.07567,-0.05626c-0.00195,0.00446 -0.00412,0.00878 -0.00654,0.01293c0.00214,0.02273 -0.00119,0.04915 -0.0184,0.07388c-0.00004,0.0102 -0.00137,0.02059 -0.00407,0.03093c-0.01743,0.06712 -0.08602,0.10737 -0.15317,0.08994c-0.05133,-0.01335 -0.08691,-0.05655 -0.09307,-0.10614c-0.00261,-0.00192 -0.00513,-0.00392 -0.00753,-0.006c-0.03527,-0.03026 -0.05228,-0.07898 -0.03981,-0.12702c0.00083,-0.0032 0.00175,-0.00634 0.00282,-0.00939c-0.03285,-0.0472 -0.06709,-0.09282 -0.10147,-0.13829c-0.06523,0.01384 -0.13051,0.0277 -0.19577,0.04158c0,0 -0.12286,0.02608 -0.14895,-0.09679c-0.01724,-0.08131 0.03073,-0.12021 0.06512,-0.13726c-0.0043,-0.02293 -0.00775,-0.04563 -0.01033,-0.06807c-0.0601,-0.01561 -0.12025,-0.03126 -0.18031,-0.04688l-0.0216,0.08308c0,0 -0.01291,0.04962 -0.05391,0.07721c0.03328,0.01552 0.09204,0.0563 0.06893,0.1452c-0.03163,0.12157 -0.15317,0.08994 -0.15317,0.08994l-0.06822,-0.01773c-0.06822,-0.01773 -0.1364,-0.03547 -0.20464,-0.05322c0,0 -0.12157,-0.03163 -0.08994,-0.15317c0.03163,-0.12157 0.15317,-0.08994 0.15317,-0.08994c0.02882,0.0075 0.06985,0.01817 0.11277,0.02932c-0.02042,-0.0433 -0.00807,-0.09081 -0.00807,-0.09081l0.01588,-0.06103l-0.04991,-0.03542c-0.00008,-0.00036 -0.00016,-0.0008 -0.00025,-0.00114c-0.05454,-0.01419 -0.10904,-0.02838 -0.16364,-0.04256c0,0 -0.12157,-0.03163 -0.08994,-0.15317c0.03163,-0.12157 0.15317,-0.08994 0.15317,-0.08994c0.0301,0.00784 0.06092,0.01583 0.09231,0.02401c0.01486,-0.01784 0.0377,-0.03294 0.07241,-0.04033c0.05392,-0.01146 0.08919,0.00578 0.1118,0.02872c-0.00137,-0.09098 0.01996,-0.16028 0.05295,-0.21298c-0.07185,-0.08969 -0.10198,-0.21098 -0.0708,-0.33072c0.05238,-0.20142 0.25812,-0.32223 0.45952,-0.26984c0.10103,0.02629 0.1818,0.09117 0.23061,0.17476c0.00484,0.00068 0.00969,0.00163 0.01453,0.00288c0.06712,0.01743 0.10737,0.08602 0.08994,0.15317c-0.00475,0.01825 -0.01328,0.03449 -0.02453,0.0482c0.1235,-0.04763 0.25016,-0.01467 0.25016,-0.01467c0.15974,0.04536 0.31341,0.06001 0.46632,0.06196c-0.01228,-0.00847 -0.02605,-0.01383 -0.04154,-0.01497c0,0 -0.08273,-0.0215 -0.09391,-0.09726c-0.03099,-0.00804 -0.06198,-0.0161 -0.09297,-0.02418l0.00925,0.03722c0,0 -0.10832,0.0636 -0.1719,-0.04472c-0.0636,-0.10832 0.04472,-0.1719 0.04472,-0.1719l0.18118,-0.06373c0.1137,0.02957 0.22738,0.05914 0.34108,0.08869c0,0 0.12157,0.03163 0.08994,0.15317c-0.00667,0.02569 -0.01741,0.04456 -0.03011,0.05831c0.01608,0.02344 0.03083,0.04794 0.04432,0.07292c0.14429,-0.00636 0.29075,-0.01424 0.44368,-0.00875c-0.05999,-0.087 -0.08326,-0.19859 -0.05456,-0.30889c0.05238,-0.20142 0.25812,-0.32223 0.45952,-0.26984c0.20142,0.05238 0.32223,0.25812 0.26984,0.45952zM346.80896,193.00288c0.03288,0.00857 0.05932,0.02937 0.07567,0.05626c0.0075,-0.01724 0.01867,-0.03217 0.03223,-0.04408c-0.00216,-0.00604 -0.00386,-0.01228 -0.00506,-0.01863l-0.01622,-0.07643c-0.05688,0.00181 -0.10958,0.00754 -0.15623,0.01862c0.0147,0.01989 0.02932,0.03999 0.04369,0.06031c0.00859,0.0004 0.01727,0.00167 0.02597,0.00395z" fill="#a00000" fill-rule="nonzero" stroke="none" stroke-width="0.5" stroke-linecap="butt" stroke-linejoin="miter"/><path d="M349.68799,191.55087l-0.00798,0.01569c-0.01867,0.16508 -0.03727,0.33017 -0.05597,0.49525c0,0 -0.00378,0.03355 -0.01916,0.07944c-0.00201,0.01377 -0.00476,0.02757 -0.00837,0.04134c-0.05238,0.20142 -0.25812,0.32223 -0.45952,0.26984c-0.20142,-0.05238 -0.32223,-0.25812 -0.26984,-0.45952c0.00284,-0.01087 0.0061,-0.0216 0.00984,-0.032c0.01804,-0.15964 0.03608,-0.31928 0.05412,-0.47895l0.02749,-0.12074c0,0 0.09485,-0.36469 0.45952,-0.26984c0.36469,0.09485 0.26984,0.45952 0.26984,0.45952z" fill="#a00000" fill-rule="nonzero" stroke="none" stroke-width="0.5" stroke-linecap="butt" stroke-linejoin="miter"/><path d="M355.41944,195.24762c-0.83347,-0.40436 -1.55554,-2.2706 -2.60034,-2.34664c-0.08937,0.07153 -0.2394,0.1367 -0.42951,0.01319c-0.20947,-0.13608 -0.18981,-0.32078 -0.15283,-0.42989c0.01034,-0.13652 0.08029,-0.21688 0.15501,-0.26408l0.02117,-0.03241c1.11792,-1.51603 2.07031,-3.14728 3.30989,-4.55698c0.31812,-0.36178 0.85834,-1.74696 1.63419,-1.12454c0.30806,0.24713 -0.29592,1.89729 -0.37654,2.20728c-0.27792,1.06857 -0.54655,2.14003 -0.83383,3.20611c-0.04541,0.16852 -0.18129,0.79186 -0.0293,0.95353c0.07409,0.07878 0.90065,-0.09403 1.02382,-0.10965c1.12591,-0.14268 2.17023,0.35239 3.2976,0.20213c0.7722,-0.09293 2.85567,0.45528 1.46949,1.47705c-0.33169,0.24448 -1.29604,0.23046 -1.71451,0.42872c-1.62417,0.76946 -2.81917,1.22179 -4.62948,1.3445c0,0 -0.37594,0.02535 -0.40129,-0.35058c-0.02535,-0.37594 0.35058,-0.40129 0.35058,-0.40129c0.03913,-0.00266 0.07803,-0.00533 0.11665,-0.00815c-0.1074,-0.0371 -0.17731,-0.11549 -0.17731,-0.11549z" fill="#ffffff" fill-rule="nonzero" stroke="none" stroke-width="0.5" stroke-linecap="butt" stroke-linejoin="miter"/><path d="M362.19609,193.11019c0.00636,0.00777 0.01259,0.01557 0.01872,0.0235l-0.14407,0.0896c-0.0013,0.00574 -0.00272,0.0116 -0.00426,0.01744c-0.0211,0.08097 -0.05542,0.1393 -0.09614,0.18104c0.11785,0.02223 0.23887,0.04973 0.36657,0.08259c0,0 0.36469,0.09485 0.26984,0.45952c-0.09485,0.36469 -0.45952,0.26984 -0.45952,0.26984c-0.02414,-0.00636 -0.04792,-0.01248 -0.07131,-0.01834l-0.51824,0.05783c-0.04663,0.019 -0.10044,0.03087 -0.16035,0.03597c0.05673,0.06565 0.11857,0.13885 0.18716,0.22044l-0.84761,0.20995c-0.08881,-0.06018 -0.17759,-0.12033 -0.26638,-0.18048c-0.20969,0.18213 -0.43331,0.27463 -0.69328,0.15055c-0.29393,-0.14031 -0.43059,-0.48884 -0.64586,-0.73327l0.35946,-0.09728c-0.06904,-0.07076 -0.13802,-0.14155 -0.20702,-0.21229l0.39363,-0.11273c-0.06215,-0.04232 -0.12277,-0.08609 -0.18172,-0.13106l0.75761,-0.37696c0.13652,0.0214 0.27009,0.07187 0.3936,0.14215c0.21795,-0.17313 0.46207,-0.3159 0.71897,-0.4138l-0.0305,-0.09311c0.07974,-0.00461 0.16063,0.00432 0.24027,0.02414c0.0839,-0.02317 0.16867,-0.04141 0.254,-0.05423l0.36642,0.45902z" fill="#a00000" fill-rule="nonzero" stroke="none" stroke-width="0.5" stroke-linecap="butt" stroke-linejoin="miter"/><path d="M357.17023,188.54438c-0.09485,0.36469 -0.45952,0.26984 -0.45952,0.26984l-0.05463,-0.01623c-0.0887,0.06691 -0.20603,0.09407 -0.32193,0.06397c-0.08016,-0.02082 -0.14753,-0.06596 -0.19633,-0.12546l-0.67663,0.02508c-0.03856,0.00232 -0.07814,-0.00129 -0.11758,-0.01155c-0.20142,-0.05238 -0.32223,-0.25812 -0.26984,-0.45952c0.04069,-0.15655 0.17403,-0.26438 0.326,-0.28008l0.22867,-0.02899l-0.08941,-0.07974c0.13528,-0.06433 0.2611,-0.11731 0.37669,-0.15901c-0.01319,-0.05728 -0.01321,-0.11848 0.0026,-0.17935c0.04069,-0.15655 0.17403,-0.26438 0.326,-0.28008l0.17856,-0.02262c-0.05979,-0.08694 -0.08294,-0.19838 -0.05429,-0.30847c0.01218,-0.04681 0.03266,-0.08931 0.05942,-0.12622c0.00322,-0.13544 0.0505,-0.23305 0.1774,-0.22025c0.00166,-0.00913 0.00366,-0.01819 0.00602,-0.02729c0.05238,-0.20142 0.25812,-0.32223 0.45952,-0.26984c0.02277,0.00594 0.04457,0.01379 0.06515,0.02345l0.271,0.12091l0.04876,-0.04133c0.00833,0.02497 0.01626,0.04953 0.02382,0.07369l0.0358,0.01599c0.16897,0.07182 0.26441,0.25843 0.21685,0.44148c-0.02115,0.08135 -0.06729,0.1495 -0.12811,0.19846c0.00215,0.23808 -0.06954,0.37853 -0.19152,0.42561c-0.06537,0.22874 -0.28434,0.37169 -0.47132,0.53249c0.09256,0.03775 0.3035,0.15757 0.22871,0.44513z" fill="#a00000" fill-rule="nonzero" stroke="none" stroke-width="0.5" stroke-linecap="butt" stroke-linejoin="miter"/><path d="M361.54524,198.22845c-0.20142,-0.05238 -0.32223,-0.25812 -0.26984,-0.45952c0.05238,-0.20142 0.25812,-0.32223 0.45952,-0.26984c0.20142,0.05238 0.32223,0.25812 0.26984,0.45952c-0.05238,0.20142 -0.25812,0.32223 -0.45952,0.26984z" fill="#a00000" fill-rule="nonzero" stroke="none" stroke-width="0.5" stroke-linecap="butt" stroke-linejoin="miter"/><path d="M361.87019,201.52072l-0.0532,-0.264c-0.14359,-0.42227 -0.22217,-0.86627 -0.27937,-1.30859c0,0 -0.04739,-0.37382 0.32642,-0.42121c0.37382,-0.04739 0.42121,0.32642 0.42121,0.32642c0.04851,0.39158 0.11446,0.7856 0.24438,1.15819l0.07775,0.35265c0,0 0.07824,0.36858 -0.29033,0.44684c-0.36858,0.07824 -0.44684,-0.29033 -0.44684,-0.29033z" fill="#a00000" fill-rule="nonzero" stroke="none" stroke-width="0.5" stroke-linecap="butt" stroke-linejoin="miter"/><path d="M362.06751,202.66125c-0.20142,-0.05238 -0.32223,-0.25812 -0.26984,-0.45952c0.05238,-0.20142 0.25812,-0.32223 0.45952,-0.26984c0.20142,0.05238 0.32223,0.25812 0.26984,0.45952c-0.05238,0.20142 -0.25812,0.32223 -0.45952,0.26984z" fill="#a00000" fill-rule="nonzero" stroke="none" stroke-width="0.5" stroke-linecap="butt" stroke-linejoin="miter"/><path d="M361.76318,204.11149c-0.20142,-0.05238 -0.32223,-0.25812 -0.26984,-0.45952c0.05238,-0.20142 0.25812,-0.32223 0.45952,-0.26984c0.20142,0.05238 0.32223,0.25812 0.26984,0.45952c-0.05238,0.20142 -0.25812,0.32223 -0.45952,0.26984z" fill="#a00000" fill-rule="nonzero" stroke="none" stroke-width="0.5" stroke-linecap="butt" stroke-linejoin="miter"/><path d="M360.94231,196.90634c-0.20142,-0.05238 -0.32223,-0.25812 -0.26984,-0.45952c0.05238,-0.20142 0.25812,-0.32223 0.45952,-0.26984c0.20142,0.05238 0.32223,0.25812 0.26984,0.45952c-0.05238,0.20142 -0.25812,0.32223 -0.45952,0.26984z" fill="#a00000" fill-rule="nonzero" stroke="none" stroke-width="0.5" stroke-linecap="butt" stroke-linejoin="miter"/><path d="M358.41059,189.83892c-0.20142,-0.05238 -0.32223,-0.25812 -0.26984,-0.45952c0.05238,-0.20142 0.25812,-0.32223 0.45952,-0.26984c0.20142,0.05238 0.32223,0.25812 0.26984,0.45952c-0.05238,0.20142 -0.25812,0.32223 -0.45952,0.26984z" fill="#a00000" fill-rule="nonzero" stroke="none" stroke-width="0.5" stroke-linecap="butt" stroke-linejoin="miter"/><path d="M359.25365,191.07784c-0.20142,-0.05238 -0.32223,-0.25812 -0.26984,-0.45952c0.05238,-0.20142 0.25812,-0.32223 0.45952,-0.26984c0.20142,0.05238 0.32223,0.25812 0.26984,0.45952c-0.05238,0.20142 -0.25812,0.32223 -0.45952,0.26984z" fill="#a00000" fill-rule="nonzero" stroke="none" stroke-width="0.5" stroke-linecap="butt" stroke-linejoin="miter"/><path d="M359.83891,192.46814c-0.20142,-0.05238 -0.32223,-0.25812 -0.26984,-0.45952c0.05238,-0.20142 0.25812,-0.32223 0.45952,-0.26984c0.20142,0.05238 0.32223,0.25812 0.26984,0.45952c-0.05238,0.20142 -0.25812,0.32223 -0.45952,0.26984z" fill="#a00000" fill-rule="nonzero" stroke="none" stroke-width="0.5" stroke-linecap="butt" stroke-linejoin="miter"/><path d="M348.81843,160.54918c0.08756,-0.33671 0.30373,-0.60582 0.58213,-0.76845c-0.04409,-0.27228 0.01131,-0.59581 0.28906,-0.94451c0.44305,-0.55617 0.95011,-0.54666 1.30675,-0.43371c0.2577,-0.43563 0.76178,-0.68214 1.27597,-0.60072l1.34619,0.1949l-0.02666,0.18426l0.44126,-0.04756c1.63045,1.73418 4.50912,5.30531 -0.27001,5.30347c-0.16442,-0.00004 -0.32013,-0.01437 -0.46816,-0.04106c-0.28135,0.17343 -0.63024,0.23617 -0.97534,0.14644c-0.61829,-0.1608 -1.00871,-0.75517 -0.93016,-1.37251c-0.14087,-0.15337 -0.27852,-0.31189 -0.41617,-0.47015c-0.30356,0.34125 -0.78304,0.50419 -1.25543,0.38135c-0.67136,-0.17461 -1.07403,-0.86035 -0.89944,-1.53172z" fill="#ffffff" fill-rule="nonzero" stroke="none" stroke-width="0.5" stroke-linecap="butt" stroke-linejoin="miter"/><path d="M353.40729,165.39444c-0.63193,-0.16435 -1.02585,-0.78161 -0.92428,-1.41341c-0.13896,0.0121 -0.28236,0.00108 -0.42508,-0.03604c-0.51016,-0.13269 -0.86518,-0.56048 -0.92961,-1.05285c-0.23885,-0.11732 -0.42896,-0.30542 -0.55065,-0.53099c-0.24207,0.09864 -0.51687,0.12282 -0.7893,0.052c-0.67136,-0.17461 -1.07403,-0.86035 -0.89944,-1.53172c0.17461,-0.67136 0.86035,-1.07403 1.53172,-0.89944c0.35163,0.09146 0.62955,0.32312 0.78945,0.61952c0.24207,-0.09864 0.51687,-0.12282 0.7893,-0.052c0.51016,0.13269 0.86518,0.56048 0.92961,1.05285c0.4891,0.24019 0.77353,0.77708 0.68549,1.3249c0.13896,-0.0121 0.28236,-0.00108 0.42508,0.03604c0.67136,0.17461 1.07403,0.86035 0.89944,1.53172c-0.17461,0.67136 -0.86035,1.07403 -1.53172,0.89944z" fill="#a00000" fill-rule="nonzero" stroke="none" stroke-width="0.5" stroke-linecap="butt" stroke-linejoin="miter"/></g></g></g></svg>