<svg version="1.1" xmlns="http://www.w3.org/2000/svg" xmlns:xlink="http://www.w3.org/1999/xlink" width="980.48048" height="630.63063" viewBox="0,0,980.48048,630.63063"><g transform="translate(145.24024,130.31529)"><g data-paper-data="{&quot;isPaintingLayer&quot;:true}" stroke-miterlimit="10" stroke-dasharray="" stroke-dashoffset="0" style="mix-blend-mode: normal"><path d="M-145.24024,500.31534v-630.63063h980.48048v630.63063z" fill="#000000" fill-rule="nonzero" stroke="#ff3838" stroke-width="0" stroke-linecap="butt" stroke-linejoin="miter"/><text transform="translate(304.71471,259.28905) scale(0.5,0.5)" font-size="40" xml:space="preserve" fill="#ffffff" fill-rule="nonzero" stroke="none" stroke-width="1" stroke-linecap="butt" stroke-linejoin="miter" stroke-miterlimit="10" stroke-dasharray="" stroke-dashoffset="0" font-family="Marker" font-weight="normal" text-anchor="start" style="mix-blend-mode: normal"><tspan x="0" dy="0">Loading</tspan></text><g><path d="M347.77935,187.74773c0.26131,-0.4464 4.04399,-0.46557 5.3608,-1.59459c0.90996,-0.83003 1.95942,-1.91767 2.43459,-3.48284c1.12517,-3.52558 1.64412,-2.66437 3.82445,-2.72814c2.22357,-0.08934 3.67529,0.80241 -0.57736,5.65235c-1.45816,1.67957 -3.10139,2.65144 -4.46751,3.40105c-0.34595,0.2046 -3.50877,1.66661 -5.41616,0.81014c-1.90741,-0.85646 -1.40245,-1.68043 -1.15881,-2.05801z" fill="#000000" fill-rule="evenodd" stroke="#001026" stroke-width="1.2" stroke-linecap="round" stroke-linejoin="round"/><path d="M348.01778,194.04183c-1.04204,-0.08413 -2.58768,-0.92107 -1.89444,-2.90705c0.78159,-2.33008 3.71706,-1.90655 4.96556,-1.76942c1.24851,0.13714 1.91111,0.27057 4.33323,0.12217c0.96532,-0.0456 2.12127,-0.26231 2.74249,-0.39625c0.24179,-0.08463 0.45801,-0.21251 0.62308,-0.42688c0.28689,-0.40315 -4.57642,0.93334 -3.39674,1.05281c1.25807,0.23947 1.25845,-0.94925 0.88669,0.99947c-0.0427,0.22387 0.13794,-0.37714 0.11854,-0.13643c-0.18255,2.26494 1.12386,0.97625 -0.21842,1.28165c-2.81316,0.67152 -2.60325,2.2706 -2.48192,0.79797c-0.01582,-0.22413 -0.47802,-0.80823 -0.67656,-0.74917l1.87872,1.6586c-0.59033,0.13674 0.89171,0.15556 0.31956,0.24372c-0.63507,0.09786 -2.29734,0.07859 -2.89018,0.12876c-2.54243,0.21516 -3.55763,0.1406 -4.30961,0.10001z" fill="#000000" fill-rule="evenodd" stroke="#001026" stroke-width="1.2" stroke-linecap="round" stroke-linejoin="round"/><path d="M336.11753,188.65638c0.35151,-1.08343 2.0008,-1.6503 2.76016,-0.46507c0.66496,1.12432 0.44739,2.82898 0.33769,3.82777c-0.1097,0.9988 -1.02237,4.98238 -4.79899,5.40655c-1.63768,0.09303 -6.01046,-0.58945 -5.29769,-2.93718c0.71276,-2.34775 3.1884,-1.41876 4.76331,-1.12447c1.32522,0.26686 2.12162,-4.40676 2.23554,-4.7076z" fill="#000000" fill-rule="evenodd" stroke="#001026" stroke-width="1.2" stroke-linecap="round" stroke-linejoin="round"/><g fill-rule="evenodd"><path d="M343.51566,193.62001c-0.7491,-0.08229 -1.65166,-0.42403 -2.93178,-1.00941c-1.04809,-0.48915 -2.59979,-1.73108 -2.59979,-1.73108c-1.02857,-0.8509 -2.51566,-2.77312 -1.06306,-3.57387c0.97692,-0.51943 1.76507,-1.16066 3.10746,-2.24643c2.28768,-2.05345 2.55875,-2.68072 4.68843,-1.54715c2.39519,1.38513 6.27412,1.13393 4.7212,6.89704c0,0 -1.14705,2.89645 -2.21502,6.9135c-0.7323,2.70951 -2.02439,6.74239 -2.4898,8.12667c-0.11392,0.30085 -0.32222,0.54078 -0.5561,0.73748c-3.96441,2.87001 -7.33369,4.27902 -8.43343,2.41956c-1.84144,-3.11352 4.98173,-5.68974 4.98173,-5.68974c0,0 0.99174,-2.86297 1.41392,-4.22167z" fill="#000000" stroke="#001026" stroke-width="1.2" stroke-linecap="round" stroke-linejoin="round"/><path d="M339.89941,191.848c0,0 -1.46101,-0.59515 -0.2921,-2.86246c1.20425,-2.40495 2.75781,-1.45596 4.15,-0.87848c1.65771,0.82903 1.17647,1.98919 0.77198,3.27908c-0.30826,1.05785 -0.65,1.9604 -0.65,1.9604c0,0 -1.87762,-0.11526 -3.97987,-1.49855z" fill="#a00000" stroke="none" stroke-width="1" stroke-linecap="butt" stroke-linejoin="miter"/></g><g fill-rule="evenodd"><path d="M323.11121,166.17173c0.89229,-0.76121 1.87897,-1.46151 3.14094,-2.09114c2.08358,-1.11556 4.46432,-1.53133 4.46432,-1.53133l3.21196,-6.51085c0.12182,-0.18878 0.41476,-0.18693 0.47382,0.01161l3.66991,8.27763c-0.46406,-0.19248 7.85745,2.82413 7.70279,9.56972c-0.15466,6.74559 -5.38006,12.8129 -14.45607,16.02109c-9.07602,3.2082 -13.74088,-0.33675 -14.67977,-3.10852c-0.93888,-2.77177 1.5943,-5.49574 1.5943,-5.49574c0,0 -1.10766,-1.97152 -1.13053,-5.16831c-0.02237,-1.91296 1.54315,-5.58223 1.54315,-5.58223l-1.61225,-5.29199c-0.05905,-0.19855 0.13159,-0.36967 0.31247,-0.35991z" fill="#000000" stroke="#001026" stroke-width="1.2" stroke-linecap="butt" stroke-linejoin="miter"/><path d="M318.46544,181.41046c3.18973,-2.99553 5.14695,-0.47582 8.38833,-2.10104c3.78589,-1.88888 6.43148,-8.76521 12.06537,-5.85173c5.60831,2.87023 4.31821,12.03844 -7.42543,16.06554c-8.96396,3.20029 -13.67391,-0.02613 -14.61279,-2.7979c-0.93888,-2.77176 1.58454,-5.31486 1.58454,-5.31486z" fill="#000000" stroke="none" stroke-width="1" stroke-linecap="butt" stroke-linejoin="miter"/><path d="M334.82365,177.9812c1.38293,2.04219 2.63057,5.03994 -1.0488,7.79974c-4.38708,2.94487 -7.94849,0.67351 -9.02823,-0.26388c-0.21437,-0.16507 -0.16927,-0.48359 0.07253,-0.56822c0.72537,-0.2539 2.18588,-0.94259 4.44429,-2.4534c2.49229,-1.7075 4.41822,-3.78047 5.06081,-4.56911c0.14739,-0.14554 0.3971,-0.11811 0.49939,0.05486z" fill="#000000" stroke="#001026" stroke-width="1.2" stroke-linecap="round" stroke-linejoin="round"/><path d="M316.93342,185.23504c0,0 -3.13909,1.79819 -6.1434,1.357" fill="none" stroke="#001026" stroke-width="1.2" stroke-linecap="round" stroke-linejoin="round"/><path d="M318.2694,187.88868c0,0 -1.20054,1.81906 -4.05275,3.21411" fill="none" stroke="#001026" stroke-width="1.2" stroke-linecap="round" stroke-linejoin="round"/><path d="M328.68346,177.46849c0.40921,0.69189 -0.76763,2.84714 -1.59716,3.22102c-0.71747,0.36596 -2.08222,-0.46122 -2.39704,-1.0922c-0.13578,-0.32828 0.76442,-0.97743 1.67253,-1.51452c0.86487,-0.51151 2.05801,-1.1588 2.32166,-0.61431z" fill="#001026" stroke="#000000" stroke-width="1.2" stroke-linecap="round" stroke-linejoin="round"/><path d="M341.71415,171.57115c0.72067,-2.23567 3.72347,-5.64598 3.72347,-5.64598" fill="none" stroke="#001026" stroke-width="1.2" stroke-linecap="round" stroke-linejoin="round"/><path d="M347.69247,170.42851c0,0 -2.91866,2.36826 -5.21291,2.73288" fill="none" stroke="#001026" stroke-width="1.2" stroke-linecap="round" stroke-linejoin="round"/><g fill="#a00000"><path d="M321.53643,171.30572c1.67117,0.06226 2.93227,2.29325 2.82911,4.98088c-0.1464,2.71321 -1.5985,4.79779 -3.26967,4.73553c-1.67117,-0.06226 -2.93227,-2.29325 -2.82911,-4.98088c0.10316,-2.68765 1.57292,-4.84104 3.26967,-4.73553z" stroke="#001026" stroke-width="1.2" stroke-linecap="round" stroke-linejoin="round"/><path d="M319.89753,178.40382c-0.28133,-0.47566 -0.16556,-1.06947 0.26687,-1.32522c0.43244,-0.25576 1.00856,-0.07117 1.2899,0.40451c0.28133,0.47566 0.16556,1.06947 -0.26687,1.32522c-0.43244,0.25576 -1.00856,0.07117 -1.2899,-0.40451" stroke="none" stroke-width="1" stroke-linecap="butt" stroke-linejoin="miter"/></g><g><path d="M329.7072,170.90933c0.17196,-2.66998 1.59059,-4.90986 3.51936,-4.7081c1.9032,0.15851 3.27452,2.67452 3.05929,5.37007c-0.17196,2.66998 -1.71662,4.4007 -3.62958,4.42307c-1.65351,-0.13109 -3.12107,-2.41506 -2.9491,-5.08503z" fill="#ffffff" stroke="#001026" stroke-width="1.2" stroke-linecap="round" stroke-linejoin="round"/><path d="M331.45004,173.26398c-0.28133,-0.47566 -0.13998,-1.02623 0.26687,-1.32522c0.43244,-0.25576 1.00856,-0.07117 1.2899,0.40451c0.28133,0.47566 0.16556,1.06947 -0.26687,1.32522c-0.43244,0.25576 -1.00856,0.07117 -1.2899,-0.40451" fill="#001026" stroke="none" stroke-width="1" stroke-linecap="butt" stroke-linejoin="miter"/></g></g><path d="M331.67056,174.85115c0,0 -0.0827,0.12817 -0.22976,0.21743c0.07955,0.16025 0.19285,0.33181 0.37216,0.54105c0.40306,0.67726 0.80423,1.35559 1.20543,2.03395l0.34136,0.36205c0,0 0.41949,0.46734 -0.04785,0.88684c-0.46735,0.41949 -0.88684,-0.04785 -0.88684,-0.04785l-0.48775,-0.56165c-0.38362,-0.64863 -0.76743,-1.29712 -1.14901,-1.94695c-1.01741,-1.22982 -1.62646,-3.33494 -1.94372,-4.76156c-0.25627,-1.15233 0.55817,-2.16282 0.25111,-3.40084c-0.11366,-0.45823 -0.66288,-0.7052 -0.83269,-1.14572c-0.08701,-0.22575 0.09146,-0.50231 -0.0011,-0.72586c-0.48929,-1.18165 -0.86467,-1.1956 -0.67894,-2.58536c0,0 0.08804,-0.6218 0.70984,-0.53376c0.6218,0.08804 0.53376,0.70984 0.53376,0.70984c-0.25419,1.67602 1.05471,2.48473 1.48166,3.95326c0.2928,1.00709 0.06632,2.09593 -0.24462,3.01113c-0.01236,0.0364 -0.02183,0.07015 -0.02867,0.10161c0.13395,-0.01212 0.23896,0.01485 0.23896,0.01485c0.2223,0.05707 0.44458,0.11414 0.66687,0.17121l0.44634,0.39334c0,0 0.31969,0.54053 -0.22085,0.86024c-0.36133,0.21371 -0.62398,0.043 -0.75842,-0.09366c-0.00673,-0.00173 -0.01347,-0.00345 -0.02019,-0.00519c-0.03854,0.12966 -0.07846,0.25949 -0.0584,0.38858c0.05566,0.35777 0.37322,0.61306 0.58277,0.91638c0.09497,-0.16728 0.24912,-0.25844 0.24912,-0.25844l0.95213,0.81909c-0.14756,0.22868 -0.29513,0.45736 -0.44269,0.68603z" fill="#a00000" fill-rule="nonzero" stroke="none" stroke-width="0.5" stroke-linecap="butt" stroke-linejoin="miter"/><path d="M331.61211,180.32201c-0.46735,0.41949 -0.88684,-0.04785 -0.88684,-0.04785l-0.35891,-0.40711c-0.2057,-0.17943 -0.41141,-0.35887 -0.61711,-0.5383c-0.45677,-0.54576 -1.30807,-1.04834 -1.59371,-1.70772c-0.24775,-0.57188 -0.21281,-1.46168 -0.34622,-2.07871c-0.3699,-1.71075 -0.84923,-3.63651 -1.446,-5.27166c-0.52996,-1.45211 -1.97607,-3.07982 -2.78026,-4.43952c0,0 -0.31969,-0.54053 0.22085,-0.86024c0.54053,-0.31969 0.86024,0.22085 0.86024,0.22085c0.85794,1.45062 2.30176,3.10127 2.88166,4.65549c0.62679,1.67992 1.11454,3.67802 1.49213,5.43427c0.01221,0.05682 0.21328,1.69752 0.25542,1.80761c0.17437,0.45565 1.03523,0.98476 1.35096,1.35848c0.18181,0.157 0.36363,0.314 0.54545,0.47098l0.47019,0.51657c0,0 0.41949,0.46734 -0.04785,0.88684z" fill="#a00000" fill-rule="nonzero" stroke="none" stroke-width="0.5" stroke-linecap="butt" stroke-linejoin="miter"/><path d="M325.6015,191.59602c-0.60829,-0.15617 -0.45212,-0.76444 -0.45212,-0.76444l0.15256,-0.47379c-0.86744,-1.98687 -1.75385,-4.03446 -2.52751,-6.06543c-0.60828,-1.5968 -2.30291,-2.53546 -1.10021,-4.29342c0,0 0.38315,-0.49758 0.88073,-0.11444c0.49758,0.38314 0.11443,0.88073 0.11443,0.88073c-0.62153,0.62829 0.48435,1.70952 0.85861,2.34989c1.27101,2.17476 2.19165,4.79389 3.02779,7.16884l-0.18984,0.85996c0,0 -0.15616,0.60827 -0.76444,0.45212z" fill="#a00000" fill-rule="nonzero" stroke="none" stroke-width="0.5" stroke-linecap="butt" stroke-linejoin="miter"/><path d="M324.02942,191.89106c-0.54053,0.31969 -0.86024,-0.22085 -0.86024,-0.22085l-0.29304,-0.51225c-0.82915,-2.14444 -1.93218,-4.10665 -2.58868,-6.31472c-0.40948,-1.37723 -0.30639,-2.93509 -0.83045,-4.24814c0,0 -0.22648,-0.58574 0.35926,-0.81223c0.58574,-0.22648 0.81223,0.35926 0.81223,0.35926c0.52331,1.38786 0.44256,2.93131 0.8685,4.36258c0.64504,2.16751 1.73553,4.09219 2.55064,6.20029l0.20263,0.32583c0,0 0.31969,0.54053 -0.22085,0.86024z" fill="#a00000" fill-rule="nonzero" stroke="none" stroke-width="0.5" stroke-linecap="butt" stroke-linejoin="miter"/><path d="M333.34283,169.40242c-0.47463,0.41123 -0.88587,-0.0634 -0.88587,-0.0634l-0.0686,-0.07918c-1.15175,-1.60612 -1.10422,-1.69588 0.31921,-2.89892c0,0 0.48062,-0.40421 0.88484,0.07642c0.40421,0.48062 -0.07642,0.88484 -0.07642,0.88484c-0.26222,0.21929 -1.00607,0.27466 -0.84746,0.57747c0.13276,0.25346 0.44607,0.35848 0.6691,0.53772l0.0686,0.07918c0,0 0.41123,0.47463 -0.0634,0.88587z" fill="#a00000" fill-rule="nonzero" stroke="none" stroke-width="0.5" stroke-linecap="butt" stroke-linejoin="miter"/><path d="M333.85889,171.49027c-0.31969,-0.54053 0.22085,-0.86024 0.22085,-0.86024l0.10477,-0.06196c0.41905,-0.24784 0.8381,-0.49567 1.25714,-0.74351c0,0 0.54053,-0.31969 0.86024,0.22085c0.31969,0.54053 -0.22085,0.86024 -0.22085,0.86024c-0.41904,0.24784 -0.94284,0.55763 -1.36188,0.80547c0,0 -0.54053,0.31969 -0.86024,-0.22085z" fill="#a00000" fill-rule="nonzero" stroke="none" stroke-width="0.5" stroke-linecap="butt" stroke-linejoin="miter"/><path d="M333.16831,173.78666c0.15617,-0.60828 0.76444,-0.45212 0.76444,-0.45212l0.62446,0.51872c0.05407,0.25083 0.10817,0.50166 0.16223,0.75247c0,0 0.13235,0.6139 -0.48155,0.74625c-0.61389,0.13236 -0.74625,-0.48154 -0.74625,-0.48154c-0.03047,-0.14131 -0.06093,-0.28261 -0.0914,-0.42391c-0.15592,-0.10637 -0.32251,-0.30707 -0.23194,-0.65989z" fill="#a00000" fill-rule="nonzero" stroke="none" stroke-width="0.5" stroke-linecap="butt" stroke-linejoin="miter"/><path d="M359.52026,188.99596c-0.24062,0.58007 -0.82069,0.33946 -0.82069,0.33946l-0.09502,-0.2275c-0.35051,0.13428 -0.67974,0.29504 -1.00796,0.45761c-0.04753,0.10625 -0.10619,0.17382 -0.10619,0.17382c-0.15419,0.17569 -0.2853,0.37469 -0.46256,0.52707c-0.0675,0.05804 -0.30436,0.01533 -0.2523,0.08753c0.15495,0.21485 0.69598,0.20017 0.6476,0.46062c-0.08859,0.47695 -0.58827,0.77684 -0.93962,1.11134c-0.19735,0.18788 -0.9436,0.08969 -0.7629,0.29363c0.1449,0.16351 0.55081,0.18369 0.51931,0.39989c-0.13315,0.91429 -1.24298,1.9448 -2.22978,0.97909c-0.28777,-0.28162 0.04023,-0.80425 0.06035,-1.20639l0.39335,-0.44635c0,0 0.10496,-0.06207 0.2497,-0.08527c0.07714,-0.16788 0.19693,-0.35291 0.368,-0.54971c0.17595,-0.2024 0.4345,-0.32897 0.6875,-0.41794c0.12722,-0.04473 0.50256,0.1255 0.40311,0.03441c-0.15682,-0.14362 -0.57341,-0.00432 -0.60054,-0.21523c-0.03758,-0.29221 0.05133,-0.5684 0.19696,-0.82465c-0.03401,-0.04737 -0.0647,-0.10388 -0.09067,-0.17104c-0.22648,-0.58574 0.35926,-0.81223 0.35926,-0.81223c0.73608,-0.28197 1.37841,-0.68084 2.11437,-0.9677l1.02922,0.23882c0,0 0.58007,0.24062 0.33946,0.82069z" fill="#a00000" fill-rule="nonzero" stroke="none" stroke-width="0.5" stroke-linecap="butt" stroke-linejoin="miter"/><path d="M360.58829,192.82144c-0.15617,0.60828 -0.76444,0.45212 -0.76444,0.45212l-0.64303,-0.18444c-0.20803,-0.11264 -0.41605,-0.22528 -0.62408,-0.33793c0,0 -0.55225,-0.29903 -0.25322,-0.85127c0.29903,-0.55225 0.85127,-0.25322 0.85127,-0.25322c0.20803,0.11265 0.41606,0.22529 0.62408,0.33793l0.35729,0.07237c0,0 0.60828,0.15617 0.45212,0.76444z" fill="#a00000" fill-rule="nonzero" stroke="none" stroke-width="0.5" stroke-linecap="butt" stroke-linejoin="miter"/><path d="M360.12916,195.80792l-0.47652,-0.56661c0,0 -0.40421,-0.48062 0.07642,-0.88484c0.48062,-0.40421 0.88484,0.07642 0.88484,0.07642l0.47652,0.56661c0,0 0.40421,0.48062 -0.07642,0.88484c-0.48062,0.40421 -0.88484,-0.07642 -0.88484,-0.07642z" fill="#a00000" fill-rule="nonzero" stroke="none" stroke-width="0.5" stroke-linecap="butt" stroke-linejoin="miter"/><path d="M365.24975,191.14751c0.04421,0.62644 -0.58224,0.67066 -0.58224,0.67066l-0.61472,-0.05505c-0.20803,-0.11265 -0.41606,-0.22529 -0.62408,-0.33793c0,0 -0.16759,-0.09076 -0.26814,-0.26459c-0.23382,0.02111 -0.46998,-0.09035 -0.59746,-0.30587c-0.17656,-0.29853 -0.07769,-0.68368 0.22085,-0.86024c0.29853,-0.17656 0.68368,-0.07769 0.86024,0.22085c0.00498,0.00842 0.00973,0.01691 0.01428,0.02546c0.20061,-0.01087 0.36829,0.07993 0.36829,0.07993c0.20803,0.11265 0.41606,0.22529 0.62408,0.33793l-0.07175,-0.09336c0,0 0.62644,-0.04419 0.67066,0.58224z" fill="#a00000" fill-rule="nonzero" stroke="none" stroke-width="0.5" stroke-linecap="butt" stroke-linejoin="miter"/><path d="M355.09373,191.97035c-0.60828,-0.15617 -0.45212,-0.76444 -0.45212,-0.76444l0.15351,-0.3937c0.00612,-0.00796 0.01226,-0.01591 0.01839,-0.02388c-0.14702,-0.10464 -0.40892,-0.36328 -0.20608,-0.7846c0.27242,-0.56584 0.83827,-0.29342 0.83827,-0.29342l0.27915,0.14792c0.44866,0.11813 0.82931,0.15246 1.04536,0.3366c0.09631,-0.02076 0.19509,-0.01813 0.28839,0.00582l0.66688,0.17121v0c0.15567,0.03997 0.29609,0.13931 0.38439,0.28859c0.12519,0.21167 0.11189,0.46689 -0.01284,0.66043l0.34684,0.25384c0.07144,0.04984 0.13361,0.11541 0.18085,0.19527c0.17656,0.29853 0.07769,0.68368 -0.22085,0.86024c-0.09079,0.0537 -0.18958,0.08191 -0.28809,0.08678l-0.80184,0.05659l-0.00052,-0.00738l-0.02355,0.00862c-0.52166,-0.00602 -1.04676,-0.06847 -1.55285,-0.19509c0,0 -0.485,-0.12451 -0.47767,-0.58424c-0.05105,-0.00195 -0.10615,-0.00991 -0.16556,-0.02516zM356.00072,191.35404c-0.00866,-0.00499 -0.01734,-0.00999 -0.02602,-0.01499c-0.00274,0.00356 -0.00548,0.0071 -0.00822,0.01066c0.01265,0.00132 0.02413,0.00282 0.03423,0.00432z" fill="#ffffff" fill-rule="nonzero" stroke="none" stroke-width="0.5" stroke-linecap="butt" stroke-linejoin="miter"/><path d="M333.39239,178.82287c0.06857,-0.62425 0.69281,-0.55568 0.69281,-0.55568l0.31976,0.39822c-0.0198,-0.1917 -0.02975,-0.37064 -0.03067,-0.50229c0,0 0.00396,-0.62798 0.63195,-0.62403c0.62799,0.00397 0.62403,0.63195 0.62403,0.63195c-0.03287,1.31893 1.20549,2.93234 -1.1614,2.45739c-0.22579,-0.04531 -0.40625,-0.2159 -0.60757,-0.32883l-0.61021,-0.15666l0.0628,-0.2446l-0.53389,-0.39435c0.18916,-0.1195 0.37932,-0.23912 0.56627,-0.3633l-0.03508,-0.22665l0.07609,-0.01178c0.00045,-0.02542 0.00213,-0.05188 0.00515,-0.07943z" fill="#8da900" fill-rule="nonzero" stroke="none" stroke-width="0.5" stroke-linecap="butt" stroke-linejoin="miter"/><path d="M327.00899,183.93409c0,0 0.15479,-0.6029 0.75638,-0.45413c0.00352,-0.21103 0.11332,-0.41534 0.30832,-0.53066c0.14926,-0.08827 0.32018,-0.10769 0.47586,-0.06773v0l0.33678,0.08646c0.13535,-0.06201 0.25899,-0.14195 0.36318,-0.24788l0.26781,-0.52068c0,0 0.25149,-0.46445 0.71912,-0.31086c0.09318,-0.14455 0.29433,-0.35792 0.64052,-0.27689c0.20185,-0.41996 0.50313,-0.96617 0.5925,-1.13244l0.33731,-0.30347c0,0 0.14635,-0.08655 0.33178,-0.09343c-0.01789,-0.0614 -0.03291,-0.12293 -0.04246,-0.18465c0,0 -0.09607,-0.62061 0.52453,-0.71668c0.62061,-0.09608 0.71668,0.52453 0.71668,0.52453c0.01512,0.09772 0.05506,0.34271 0.09478,0.6105c0.13776,0.04636 0.26018,0.14051 0.33997,0.27544c0.06666,0.1127 0.09406,0.23774 0.08628,0.35923c0.13313,0.2017 0.08542,0.42817 0.04321,0.54889c0.00378,0.00036 0.00757,0.00073 0.01137,0.00115c0.26661,-0.07364 0.55985,0.03641 0.70742,0.2859c0.17656,0.29853 0.07769,0.68368 -0.22085,0.86024c-0.12918,0.0764 -0.27461,0.10124 -0.41231,0.08062c-0.1239,0.04123 -0.25138,0.07535 -0.38096,0.10194c-0.01985,0.01423 -0.04113,0.02813 -0.06397,0.04163c-0.25337,0.14985 -0.45821,0.1107 -0.60437,0.02681c-0.21761,-0.00002 -0.43417,-0.0222 -0.64314,-0.06832l-0.07111,0.03732c0,0 -0.22456,0.01585 -0.41427,-0.1059c-0.18191,0.02162 -0.36236,0.00258 -0.53259,-0.06941c-0.09667,0.66206 0.53595,1.38795 0.08137,1.97786c-0.63372,0.82236 -1.8802,0.22955 -2.59918,-0.15214c-0.06695,0.22102 -0.13027,0.44275 -0.16634,0.67037c-0.05674,0.35799 0.18055,0.85921 -0.10512,1.08228c-0.34574,0.26997 -1.5528,-0.10923 -1.98492,-0.223l-0.05793,-0.05416l-0.01178,0.02176l-0.615,-0.33302c-0.10075,-0.05231 -0.18856,-0.13257 -0.25058,-0.23746c-0.17656,-0.29853 -0.07769,-0.68368 0.22085,-0.86024c0.02914,-0.01723 0.05911,-0.03184 0.08964,-0.0439l0.7853,-0.32483l0.00567,0.01374c0.178,-0.1201 0.3587,-0.23599 0.54323,-0.34571l-0.20297,0.05094zM330.00332,183.7039c-0.0094,0.00883 -0.01876,0.01771 -0.02811,0.02664c0.01885,0.0097 0.03738,0.01922 0.05551,0.02856c-0.00951,-0.01754 -0.01864,-0.03599 -0.02737,-0.05519z" fill="#8da900" fill-rule="nonzero" stroke="none" stroke-width="0.5" stroke-linecap="butt" stroke-linejoin="miter"/><path d="M331.1485,185.2881c0.63885,-1.19368 0.89425,-1.32601 1.77659,-1.33234c0.16459,-0.39116 0.8259,-0.54813 1.43528,-0.57387l0.01593,-0.33229c0.47302,-0.36626 1.0866,-0.59822 1.68445,-0.61939c0,0 0.62799,0.00397 0.62403,0.63196c-0.00398,0.62799 -0.63196,0.62403 -0.63196,0.62403c-0.02883,-0.00245 -0.05793,-0.00347 -0.08719,-0.00317c0.03061,0.23827 -0.07776,0.48287 -0.29486,0.61582c-0.08536,0.22656 -0.24293,0.32287 -0.39047,0.36023l-0.42535,0.39524c-0.18569,0.03575 -0.39188,0.14566 -0.59037,0.22774c-0.07987,0.60217 -0.69033,0.53512 -0.69033,0.53512l-0.21665,-0.15016c-0.43441,0.25508 -0.89894,0.48531 -1.38084,0.65434l0.09246,0.23912l-0.6809,0.26328c-0.28344,0.1154 -0.61618,0.00899 -0.77665,-0.26232c-0.14382,-0.24316 -0.10489,-0.54377 0.07581,-0.74233l0.46101,-0.53102z" fill="#8da900" fill-rule="nonzero" stroke="none" stroke-width="0.5" stroke-linecap="butt" stroke-linejoin="miter"/><path d="M336.15361,180.34585c-0.08804,0.6218 -0.70984,0.53376 -0.70984,0.53376l-1.25481,-0.47009c0.16207,-0.42917 0.32416,-0.85834 0.48622,-1.28751c0,0 0.34051,-0.52769 0.86817,-0.18718c0.37362,0.24108 0.31199,0.57602 0.24417,0.75105c0.17717,0.07462 0.4237,0.25293 0.36608,0.65995z" fill="#a00000" fill-rule="nonzero" stroke="none" stroke-width="0.5" stroke-linecap="butt" stroke-linejoin="miter"/><path d="M335.14416,181.47688c0.31969,0.54053 -0.22085,0.86024 -0.22085,0.86024l-0.20953,0.12391c-0.26699,0.15314 -0.56728,0.23714 -0.87936,0.27625l0.02718,0.17558l-0.63327,0.09804c-0.25063,0.04477 -0.51385,-0.06666 -0.65106,-0.29868c-0.13723,-0.23202 -0.10808,-0.51635 0.05188,-0.71443l0.39097,-0.50772l0.03556,0.02738l0.04587,-0.11457c0.24167,-0.14732 0.48334,-0.29465 0.72501,-0.44196c0,0 0.52806,-0.31231 0.849,0.20236c0.15715,0.00961 0.33279,0.08402 0.46858,0.31362z" fill="#a00000" fill-rule="nonzero" stroke="none" stroke-width="0.5" stroke-linecap="butt" stroke-linejoin="miter"/><path d="M333.38482,184.30361c0.13235,0.6139 -0.48155,0.74625 -0.48155,0.74625l-0.3497,0.07478c-0.16639,0.03659 -0.33677,0.11951 -0.50567,0.18519c-0.03147,0.30195 -0.31919,0.47212 -0.31919,0.47212l-0.83809,0.49567c-0.09132,0.05402 -0.19076,0.08226 -0.28984,0.08687c-0.01461,0.01228 -0.02931,0.02452 -0.04409,0.03673l-0.19483,0.17496c0,0 -0.46735,0.41949 -0.88685,-0.04785c-0.09929,-0.11062 -0.1489,-0.21855 -0.16677,-0.31887c-0.06102,-0.25837 0.08584,-0.45921 0.18159,-0.55806c-0.10861,-0.05186 -0.20352,-0.13545 -0.26939,-0.24684c-0.13723,-0.23202 -0.10808,-0.51635 0.05188,-0.71443l0.39097,-0.50772l0.0189,0.01455l0.02517,-0.0658c0.47859,-0.40392 1.00015,-0.7584 1.53851,-1.07832c0,0 0.54053,-0.31969 0.86024,0.22085c0.02045,0.03458 0.03738,0.06825 0.05116,0.10099c0.07486,0.02566 0.15206,0.07071 0.22881,0.14266c0.12187,0.05011 0.22903,0.13883 0.3013,0.26099c0.00675,0.01141 0.01311,0.02296 0.01905,0.03461c0.16344,-0.0138 0.57314,0.00251 0.67838,0.49065z" fill="#a00000" fill-rule="nonzero" stroke="none" stroke-width="0.5" stroke-linecap="butt" stroke-linejoin="miter"/><path d="M328.34256,186.51203c-0.29853,0.17656 -0.68368,0.07769 -0.86024,-0.22085c-0.17656,-0.29853 -0.07769,-0.68368 0.22085,-0.86024c0.29853,-0.17656 0.68368,-0.07769 0.86024,0.22085c0.17656,0.29853 0.07769,0.68368 -0.22085,0.86024z" fill="#a00000" fill-rule="nonzero" stroke="none" stroke-width="0.5" stroke-linecap="butt" stroke-linejoin="miter"/><path d="M332.90034,182.94495c0.15964,0.26991 0.10479,0.48475 0.00984,0.63223c0.00287,0.01313 0.00532,0.02631 0.00733,0.03951c0.08168,-0.05437 0.17058,-0.1028 0.26869,-0.14314c0.21154,-0.08698 0.44822,-0.10774 0.67807,-0.14327c0.58603,-0.35188 1.18036,-0.68586 1.74889,-1.02212l0.73333,-0.43372c0.29853,-0.17656 0.68368,-0.07769 0.86024,0.22085c0.16047,0.27131 0.09343,0.61416 -0.14423,0.80696l-0.43196,0.36328c0.14397,0.33487 -0.12317,0.64259 -0.12317,0.64259c-1.54294,1.77724 -3.07378,2.4252 -5.21429,3.25283l-0.6809,0.26328c-0.28344,0.1154 -0.61618,0.00899 -0.77665,-0.26232c-0.04796,-0.08109 -0.0756,-0.16857 -0.08443,-0.25652c-0.18218,0.05701 -0.50182,0.08733 -0.71928,-0.28034c-0.20119,-0.34018 -0.06169,-0.59287 0.06938,-0.73349c0.00024,-0.00761 0.00062,-0.01532 0.00111,-0.02313c-0.13396,-0.13097 -0.33019,-0.41137 -0.0883,-0.78622c0.34051,-0.52768 0.86819,-0.18718 0.86819,-0.18718c0.09964,0.09595 0.22964,0.1767 0.35641,0.25904c0.02251,-0.14247 0.10402,-0.29434 0.30776,-0.41484c0.49167,-0.2908 0.80063,0.13015 0.85247,0.20864c0.11326,-0.02329 0.21332,-0.06359 0.30428,-0.11654c0.04397,-0.03744 0.08832,-0.07456 0.13305,-0.11135c-0.01466,-0.09296 -0.008,-0.18736 0.01821,-0.27611c-0.09515,-0.23513 -0.20826,-0.46338 -0.33843,-0.68017l0.52418,-1.03964c0,0 0.54053,-0.31969 0.86024,0.22085zM331.05592,184.96605c0.09337,0.00735 0.17928,0.00546 0.25892,-0.00441z" fill="#000000" fill-rule="nonzero" stroke="none" stroke-width="0.5" stroke-linecap="butt" stroke-linejoin="miter"/><path d="M331.42241,184.31036l-0.53492,0.48015" fill="none" fill-rule="nonzero" stroke="#001026" stroke-width="1.2" stroke-linecap="round" stroke-linejoin="miter"/><path d="M331.70357,183.81652l-1.61845,1.69421" fill="none" fill-rule="nonzero" stroke="#a00000" stroke-width="1.2" stroke-linecap="round" stroke-linejoin="miter"/><path d="M331.58742,183.06631l0.27666,2.12929" fill="none" fill-rule="nonzero" stroke="#000000" stroke-width="1.2" stroke-linecap="round" stroke-linejoin="miter"/><path d="M328.7856,184.55963l2.45812,1.24855" fill="none" fill-rule="nonzero" stroke="#000000" stroke-width="1.2" stroke-linecap="round" stroke-linejoin="miter"/><path d="M341.54917,184.38219c-0.25804,-0.57254 0.3145,-0.83059 0.3145,-0.83059l0.64364,-0.28627c0.02551,0.01368 0.05102,0.02735 0.07653,0.04102l-0.01258,-0.05838l0.6395,-0.13787c0.19701,-0.04732 0.40603,0.00411 0.55856,0.1367c0.79918,-0.03943 1.94293,0.50377 1.63173,1.65234c-0.31303,1.1553 -2.62773,1.62812 -3.26707,0.47625c-0.11542,-0.20796 -0.14642,-0.41996 -0.11483,-0.62434c-0.1656,-0.0177 -0.35111,-0.10521 -0.46995,-0.36887z" fill="#a00000" fill-rule="nonzero" stroke="none" stroke-width="0.5" stroke-linecap="butt" stroke-linejoin="miter"/><path d="M343.80681,184.75796c-0.29853,0.17656 -0.68368,0.07769 -0.86024,-0.22085c-0.17656,-0.29853 -0.07769,-0.68368 0.22085,-0.86024c0.29853,-0.17656 0.68368,-0.07769 0.86024,0.22085c0.17656,0.29853 0.07769,0.68368 -0.22085,0.86024z" fill="#ffffff" fill-rule="nonzero" stroke="none" stroke-width="0.5" stroke-linecap="butt" stroke-linejoin="miter"/><path d="M331.86929,184.37363l-1.44754,1.42936l-0.99879,-0.71953" fill="none" fill-rule="nonzero" stroke="#000000" stroke-width="1.2" stroke-linecap="round" stroke-linejoin="miter"/><path d="M344.59794,189.29267c0.17656,0.29853 0.07769,0.68368 -0.22085,0.86024c-0.03402,0.02012 -0.06916,0.03666 -0.10499,0.04974c0.15341,0.0409 0.2915,0.13965 0.37872,0.2871c0.17656,0.29853 0.07769,0.68368 -0.22085,0.86024c-0.09966,0.05895 -0.209,0.08721 -0.31699,0.08756c0.06021,0.25971 -0.05062,0.53932 -0.29229,0.68224c-0.04689,0.02774 -0.09594,0.04868 -0.14596,0.06312c0.10233,0.27885 -0.00539,0.59963 -0.27022,0.75626c-0.29853,0.17656 -0.68368,0.07769 -0.86024,-0.22085c-0.01372,-0.02321 -0.02578,-0.04693 -0.03621,-0.07104c-0.28984,0.1368 -0.64152,0.03279 -0.80794,-0.24858c-0.17656,-0.29853 -0.07769,-0.68368 0.22085,-0.86024c0.02321,-0.01372 0.04694,-0.02578 0.07105,-0.03622c-0.1368,-0.28984 -0.03279,-0.64152 0.24858,-0.80794c0.05187,-0.03068 0.10637,-0.05303 0.16193,-0.06749c-0.0649,-0.2622 0.04569,-0.54664 0.29013,-0.69121c0.0725,-0.04288 0.1501,-0.06951 0.22858,-0.08099c-0.07707,-0.26825 0.03273,-0.5649 0.28416,-0.7136c0.05909,-0.03495 0.12158,-0.05909 0.18517,-0.07306c-0.0328,-0.24262 0.07879,-0.4925 0.30278,-0.62498c0.29853,-0.17656 0.68368,-0.07769 0.86024,0.22085c0.11171,0.1889 0.11316,0.41247 0.02352,0.59594c0.00724,0.01069 0.01419,0.02166 0.02086,0.03293zM343.79061,190.26892c0.03402,-0.02012 0.06916,-0.03666 0.10499,-0.04974c-0.01048,-0.00279 -0.02087,-0.00585 -0.03117,-0.00917c-0.00644,0.00413 -0.01299,0.00815 -0.01962,0.01208c-0.0725,0.04288 -0.1501,0.06951 -0.22858,0.08099c0.00901,0.03135 0.01546,0.06307 0.01944,0.0949c0.04322,-0.04983 0.09505,-0.09364 0.15495,-0.12907zM343.4167,190.95679c0.02717,-0.00368 0.05442,-0.00552 0.08159,-0.00562c-0.00489,-0.02108 -0.00865,-0.0423 -0.0113,-0.06356c-0.02136,0.02462 -0.0448,0.04776 -0.07029,0.06916zM342.81742,191.83036c0.03064,-0.01446 0.06194,-0.02623 0.09367,-0.03539c-0.0039,-0.01065 -0.00751,-0.02136 -0.01081,-0.03212c-0.00666,0.00428 -0.01342,0.00846 -0.02029,0.01252c-0.02321,0.01372 -0.04693,0.02578 -0.07104,0.03621c0.00294,0.00623 0.00577,0.01248 0.00848,0.01876z" fill="#e93e3e" fill-rule="nonzero" stroke="none" stroke-width="0.5" stroke-linecap="butt" stroke-linejoin="miter"/><path d="M352.10973,184.68618c0.17656,0.29853 0.07769,0.68368 -0.22085,0.86024c-0.079,0.04672 -0.16406,0.07416 -0.24972,0.08371c-0.05021,0.12129 -0.13872,0.22793 -0.26042,0.29989c-0.12467,0.07374 -0.26445,0.09942 -0.39784,0.08262c-0.03556,0.16529 -0.13734,0.3158 -0.2943,0.40864c-0.14718,0.08706 -0.31541,0.10715 -0.46931,0.06938c0.00461,0.21932 -0.106,0.43467 -0.30827,0.55429c-0.15902,0.09404 -0.34262,0.10995 -0.50617,0.05914c-0.01197,0.2014 -0.12058,0.39343 -0.30731,0.50386c-0.23602,0.1396 -0.52617,0.10702 -0.72458,-0.06025c-0.04851,0.12956 -0.13996,0.24401 -0.2683,0.31992c-0.15881,0.09392 -0.34214,0.1099 -0.50553,0.05934c0.04948,0.25354 -0.0618,0.52187 -0.29685,0.66088c-0.12467,0.07374 -0.26445,0.09942 -0.39784,0.08262c-0.03556,0.16528 -0.13734,0.3158 -0.2943,0.40864c-0.06385,0.03777 -0.13168,0.06293 -0.20058,0.07623c-0.04484,0.05396 -0.09957,0.10128 -0.16342,0.13905c-0.04923,0.02911 -0.1008,0.05074 -0.1534,0.06521c-0.05235,0.09908 -0.13185,0.18539 -0.23539,0.24663c-0.17475,0.10335 -0.37916,0.11233 -0.55405,0.04213c-0.05194,0.10765 -0.13513,0.20168 -0.24574,0.2671c-0.29853,0.17656 -0.68368,0.07769 -0.86024,-0.22085c-0.17656,-0.29853 -0.07769,-0.68368 0.22085,-0.86024c0.17475,-0.10335 0.37916,-0.11233 0.55405,-0.04213c0.05194,-0.10765 0.13513,-0.20168 0.24574,-0.2671c0.04923,-0.02911 0.1008,-0.05074 0.1534,-0.06521c0.05235,-0.09909 0.13185,-0.18539 0.23539,-0.24663c0.06385,-0.03777 0.13168,-0.06294 0.20058,-0.07624c0.04484,-0.05396 0.09957,-0.10127 0.16344,-0.13905c0.12467,-0.07374 0.26445,-0.09942 0.39784,-0.08262c0.03556,-0.16527 0.13733,-0.31578 0.29429,-0.40863c0.15881,-0.09392 0.34214,-0.1099 0.50553,-0.05934c-0.04948,-0.25355 0.0618,-0.52187 0.29685,-0.66088c0.23602,-0.13959 0.52617,-0.10702 0.72458,0.06025c0.04851,-0.12956 0.13996,-0.24401 0.2683,-0.31992c0.15902,-0.09404 0.34262,-0.10995 0.50617,-0.05914c0.01197,-0.2014 0.12058,-0.39343 0.30731,-0.50386c0.14718,-0.08706 0.31541,-0.10714 0.46932,-0.06937c-0.00461,-0.21931 0.106,-0.43467 0.30827,-0.55429c0.12467,-0.07374 0.26445,-0.09942 0.39784,-0.08262c0.03556,-0.16527 0.13734,-0.3158 0.2943,-0.40864c0.079,-0.04672 0.16406,-0.07416 0.24972,-0.08371c0.05021,-0.12129 0.13872,-0.22793 0.26042,-0.29989c0.29853,-0.17656 0.68368,-0.07769 0.86024,0.22085z" fill="#e93e3e" fill-rule="nonzero" stroke="none" stroke-width="0.5" stroke-linecap="butt" stroke-linejoin="miter"/><path d="M341.54788,192.15379c-0.29853,0.17656 -0.68368,0.07769 -0.86024,-0.22085c-0.16642,-0.28138 -0.08816,-0.63967 0.17134,-0.82777c-0.01611,-0.02076 -0.0311,-0.04276 -0.04482,-0.06596c-0.17656,-0.29853 -0.07769,-0.68368 0.22085,-0.86024c0.11555,-0.06833 0.24408,-0.09541 0.36846,-0.08562c-0.00945,-0.01347 -0.01847,-0.02741 -0.027,-0.04183c-0.17656,-0.29853 -0.07769,-0.68368 0.22085,-0.86024c0.10738,-0.0635 0.22596,-0.09138 0.34199,-0.08714c-0.0315,-0.24169 0.0801,-0.49006 0.30317,-0.62199c0.07902,-0.04673 0.16409,-0.07417 0.24978,-0.08371c-0.04434,-0.25037 0.06708,-0.51314 0.29883,-0.6502c0.29853,-0.17656 0.68368,-0.07769 0.86024,0.22085c0.17656,0.29853 0.07769,0.68368 -0.22085,0.86024c-0.07902,0.04673 -0.16409,0.07417 -0.24978,0.08371c0.04434,0.25037 -0.06708,0.51314 -0.29883,0.6502c-0.10737,0.0635 -0.22595,0.09137 -0.34199,0.08714c0.0315,0.24169 -0.08011,0.49006 -0.30317,0.62199c-0.11555,0.06833 -0.24408,0.09541 -0.36846,0.08562c0.00945,0.01347 0.01847,0.02741 0.027,0.04183c0.16642,0.28138 0.08814,0.63967 -0.17135,0.82776c0.01611,0.02077 0.0311,0.04277 0.04482,0.06597c0.17656,0.29853 0.07769,0.68368 -0.22085,0.86024z" fill="#e93e3e" fill-rule="nonzero" stroke="none" stroke-width="0.5" stroke-linecap="butt" stroke-linejoin="miter"/><path d="M354.12052,183.64287c-0.0597,0.03532 -0.13673,0.01553 -0.17205,-0.04417c-0.03532,-0.0597 -0.01553,-0.13673 0.04417,-0.17205c0.0597,-0.03532 0.13673,-0.01553 0.17205,0.04417c0.03532,0.0597 0.01553,0.13673 -0.04417,0.17205z" fill="#a00000" fill-rule="nonzero" stroke="none" stroke-width="0.5" stroke-linecap="butt" stroke-linejoin="miter"/><path d="M352.23612,181.90812c-0.11317,-0.05449 -0.05868,-0.16765 -0.05868,-0.16765l0.00255,-0.00529c0.07265,-0.15088 0.14529,-0.30178 0.21794,-0.45266c0,0 0.05449,-0.11317 0.16765,-0.05868c0.11317,0.05449 0.05868,0.16765 0.05868,0.16765c-0.07265,0.15089 -0.14783,0.30707 -0.22048,0.45797c0,0 -0.05449,0.11317 -0.16765,0.05868z" fill="#a00000" fill-rule="nonzero" stroke="none" stroke-width="0.5" stroke-linecap="butt" stroke-linejoin="miter"/><path d="M353.88381,181.67163c0.06052,0.10233 0.06711,0.22163 0.02823,0.32486c0.10901,-0.01458 0.25159,0.00979 0.35537,0.18528c0.19182,0.32433 -0.13251,0.51613 -0.13251,0.51613l-0.07063,0.03582c-0.03325,0.02756 -0.06522,0.05531 -0.09613,0.0832c0.01016,0.04311 0.01247,0.08715 0.00739,0.13015c0.03488,-0.0158 0.08989,-0.0251 0.14128,0.03215c0.01674,0.01865 0.02641,0.03692 0.03119,0.05423c0.00674,0.00738 0.01324,0.0161 0.01931,0.0264c0.06394,0.10811 -0.04417,0.17205 -0.04417,0.17205l-0.06067,0.03588c-0.05503,0.02987 -0.11578,0.05253 -0.17868,0.06697c-0.06507,0.04883 -0.13385,0.09953 -0.20154,0.15132c0.00347,0.00592 0.00707,0.01192 0.01081,0.01805l-0.01125,0.19172c0,0 -0.00495,0.01924 -0.01854,0.04046c0.00601,0.00646 0.01141,0.01368 0.01609,0.02159c0.03532,0.0597 0.01553,0.13673 -0.04417,0.17205c-0.02924,0.01729 -0.06263,0.02137 -0.09324,0.01403c0.0018,0.00454 0.00332,0.00912 0.00455,0.01376c0.01762,0.0145 0.03402,0.0355 0.03943,0.06512c0.00721,0.00725 0.01362,0.01549 0.01907,0.02468c0.03532,0.0597 0.01553,0.13673 -0.04417,0.17205c-0.04564,0.02699 -0.10138,0.02179 -0.14089,-0.0088c-0.00318,0.00049 -0.00637,0.00087 -0.00956,0.00113c-0.04633,0.00367 -0.09289,-0.0186 -0.11814,-0.06128c-0.00168,-0.00284 -0.00324,-0.00572 -0.00467,-0.00863c-0.05664,-0.00996 -0.11312,-0.01782 -0.16961,-0.02552c-0.03617,0.05605 -0.07234,0.11211 -0.10851,0.16816c0,0 -0.0681,0.10554 -0.17363,0.03743c-0.06984,-0.04508 -0.06363,-0.10654 -0.05145,-0.14296c-0.01932,-0.01311 -0.03784,-0.02666 -0.05556,-0.04065c-0.05345,0.03162 -0.10692,0.06324 -0.16036,0.09484l0.0437,0.07389c0,0 0.0261,0.04413 0.01676,0.09267c0.03446,-0.01267 0.10481,-0.02559 0.15156,0.05345c0.06394,0.10811 -0.04417,0.17205 -0.04417,0.17205l-0.06067,0.03588c-0.06067,0.03588 -0.12133,0.07175 -0.182,0.10764c0,0 -0.10811,0.06394 -0.17205,-0.04417c-0.06394,-0.10811 0.04417,-0.17205 0.04417,-0.17205c0.02565,-0.01517 0.06213,-0.03675 0.10028,-0.05932c-0.04512,-0.01606 -0.07009,-0.05829 -0.07009,-0.05829l-0.0321,-0.05428l-0.06031,0.01042c-0.00033,-0.00021 -0.00067,-0.00043 -0.00099,-0.00064c-0.04851,0.02869 -0.09701,0.05737 -0.14552,0.08607c0,0 -0.10811,0.06394 -0.17205,-0.04417c-0.06394,-0.10811 0.04417,-0.17205 0.04417,-0.17205c0.02678,-0.01583 0.05417,-0.03205 0.08208,-0.04855c-0.00218,-0.02314 0.00321,-0.04996 0.02244,-0.07976c0.02989,-0.04631 0.06698,-0.05919 0.0992,-0.05906c-0.06552,-0.06315 -0.09961,-0.12711 -0.11375,-0.18767c-0.11426,-0.01224 -0.2215,-0.07639 -0.28449,-0.18291c-0.10594,-0.17913 -0.04661,-0.4102 0.13251,-0.51613c0.08989,-0.05315 0.19283,-0.0647 0.28651,-0.04039c0.00389,-0.00295 0.00798,-0.00572 0.01228,-0.00827c0.0597,-0.03532 0.13673,-0.01553 0.17205,0.04417c0.0096,0.01623 0.01513,0.03375 0.0169,0.05135c0.05325,-0.12116 0.16594,-0.1878 0.16594,-0.1878c0.14476,-0.08134 0.26347,-0.18002 0.37264,-0.28709c-0.01466,0.00274 -0.02817,0.00873 -0.03991,0.01889c0,0 -0.07355,0.0435 -0.1352,-0.00193c-0.02756,0.0163 -0.05512,0.0326 -0.08268,0.04891l0.03292,0.01967c0,0 -0.03124,0.12166 -0.15289,0.09042c-0.12166,-0.03124 -0.09042,-0.15289 -0.09042,-0.15289l0.0825,-0.17343c0.10112,-0.0598 0.20224,-0.1196 0.30334,-0.17941c0,0 0.10811,-0.06394 0.17205,0.04417c0.01351,0.02285 0.01934,0.04374 0.02013,0.06244c0.02798,0.00512 0.05577,0.01193 0.08296,0.01997c0.09719,-0.10686 0.19483,-0.21628 0.30653,-0.32088c-0.10399,-0.01877 -0.19955,-0.08094 -0.25756,-0.17902c-0.10594,-0.17913 -0.04661,-0.4102 0.13251,-0.51613c0.17913,-0.10594 0.4102,-0.04661 0.51613,0.13251zM353.36117,183.88203c0.02924,-0.01729 0.06263,-0.02137 0.09324,-0.01403c-0.00693,-0.01749 -0.00967,-0.0359 -0.00856,-0.05392c-0.00581,-0.00273 -0.01142,-0.00593 -0.01677,-0.00954l-0.06564,-0.04237c-0.03881,0.04162 -0.07188,0.08306 -0.09691,0.12394c0.02448,0.00359 0.04901,0.00738 0.07357,0.01153c0.00634,-0.00582 0.01337,-0.01107 0.02109,-0.01562z" fill="#a00000" fill-rule="nonzero" stroke="none" stroke-width="0.5" stroke-linecap="butt" stroke-linejoin="miter"/><path d="M354.36061,180.81636l0.0055,0.01673c0.10395,0.1296 0.2079,0.2592 0.31185,0.3888c0,0 0.02112,0.02633 0.04284,0.06956c0.00835,0.01111 0.01618,0.0228 0.02343,0.03505c0.10594,0.17913 0.04661,0.4102 -0.13251,0.51613c-0.17913,0.10594 -0.4102,0.04661 -0.51613,-0.13251c-0.00574,-0.0097 -0.01099,-0.01956 -0.01577,-0.02954c-0.10052,-0.12532 -0.20104,-0.25065 -0.30157,-0.37599l-0.06627,-0.10461c0,0 -0.19182,-0.32433 0.13251,-0.51613c0.32433,-0.19182 0.51613,0.13251 0.51613,0.13251z" fill="#a00000" fill-rule="nonzero" stroke="none" stroke-width="0.5" stroke-linecap="butt" stroke-linejoin="miter"/><path d="M361.02281,179.35673c-0.87431,0.30619 -2.70703,-0.49712 -3.49745,0.19034c-0.01227,0.1138 -0.0718,0.26617 -0.29341,0.31395c-0.24415,0.05263 -0.36136,-0.09147 -0.41265,-0.19461c-0.08956,-0.10356 -0.09725,-0.20983 -0.07804,-0.29609l-0.00807,-0.03787c-0.28735,-1.86161 -0.77308,-3.687 -0.89925,-5.55993c-0.03238,-0.48066 -0.6341,-1.84022 0.35427,-1.95185c0.39244,-0.04432 1.1372,1.54727 1.30025,1.82296c0.56207,0.95035 1.13271,1.89614 1.68642,2.8514c0.08753,0.151 0.4339,0.68676 0.65572,0.69293c0.10809,0.003 0.56817,-0.70515 0.6439,-0.80348c0.69243,-0.89922 1.77973,-1.29098 2.4678,-2.19656c0.47841,-0.61324 2.33587,-1.70465 2.08352,-0.00118c-0.06038,0.4076 -0.7501,1.08174 -0.90446,1.51834c-0.59907,1.69444 -1.12056,2.86092 -2.30959,4.23149c0,0 -0.24702,0.28453 -0.53155,0.03751c-0.28453,-0.24702 -0.03751,-0.53155 -0.03751,-0.53155c0.02573,-0.02964 0.05123,-0.05911 0.07645,-0.08846c-0.10201,0.05004 -0.20691,0.04438 -0.20691,0.04438l-0.08944,-0.04175z" fill="#ffffff" fill-rule="nonzero" stroke="none" stroke-width="0.5" stroke-linecap="butt" stroke-linejoin="miter"/><path d="M364.28348,173.04327c0.00999,0.00097 0.01995,0.00205 0.02983,0.00326l-0.03801,0.16536c0.00317,0.00499 0.00631,0.01009 0.0094,0.01533c0.04259,0.07203 0.05975,0.13751 0.06064,0.19581c0.09886,-0.06792 0.20366,-0.1344 0.31696,-0.20179c0,0 0.32433,-0.19182 0.51613,0.13251c0.19182,0.32433 -0.13251,0.51613 -0.13251,0.51613c-0.0215,0.01264 -0.0426,0.02518 -0.06326,0.03765l-0.3243,0.40836c-0.01938,0.04649 -0.04889,0.093 -0.08752,0.1391c0.08656,0.00602 0.18206,0.01376 0.2883,0.02263l-0.44855,0.74921c-0.10526,0.02057 -0.21052,0.04115 -0.31577,0.06173c-0.01863,0.27711 -0.11065,0.50095 -0.38192,0.59789c-0.30671,0.10961 -0.65025,-0.03915 -0.97537,-0.05874l0.18438,-0.32357c-0.09885,-0.00094 -0.19768,-0.00187 -0.29651,-0.00279l0.19752,-0.35866c-0.07381,0.01425 -0.14762,0.02639 -0.22105,0.03651l0.26664,-0.80311c0.11142,-0.08173 0.24136,-0.14091 0.37826,-0.179c0.03083,-0.27662 0.10161,-0.55043 0.21327,-0.80167l-0.08753,-0.044c0.05295,-0.05981 0.11629,-0.1109 0.18649,-0.1534c0.04268,-0.07585 0.08953,-0.14886 0.1406,-0.21838l0.58386,0.06366z" fill="#a00000" fill-rule="nonzero" stroke="none" stroke-width="0.5" stroke-linecap="butt" stroke-linejoin="miter"/><path d="M357.50217,173.38983c0.19182,0.32433 -0.13251,0.51613 -0.13251,0.51613l-0.05003,0.02731c-0.01507,0.11008 -0.07849,0.21246 -0.18155,0.27342c-0.07128,0.04216 -0.1508,0.05814 -0.22737,0.05082l-0.45917,0.49762c-0.02554,0.02898 -0.05599,0.05451 -0.09105,0.07524c-0.17913,0.10594 -0.4102,0.04661 -0.51613,-0.13251c-0.08234,-0.13921 -0.06484,-0.30981 0.03113,-0.42866l0.14062,-0.18264l-0.11958,0.00721c0.04971,-0.14133 0.10083,-0.26788 0.15273,-0.37929c-0.04994,-0.031 -0.09335,-0.07416 -0.12535,-0.12825c-0.08234,-0.13921 -0.06484,-0.30981 0.03113,-0.42866l0.10981,-0.1426c-0.1038,-0.01887 -0.19916,-0.081 -0.25708,-0.17894c-0.02463,-0.04165 -0.04032,-0.08611 -0.04766,-0.13113c-0.09382,-0.09776 -0.1297,-0.20008 -0.03118,-0.2811c-0.00529,-0.0076 -0.01032,-0.01545 -0.01511,-0.02354c-0.10594,-0.17913 -0.04661,-0.4102 0.13251,-0.51613c0.02027,-0.01199 0.04121,-0.02186 0.06256,-0.02969l0.2768,-0.10702l0.00506,-0.06371c0.02358,0.0117 0.04661,0.02338 0.06908,0.03504l0.03656,-0.01414c0.17006,-0.06923 0.36971,-0.00539 0.46599,0.1574c0.04278,0.07234 0.05861,0.15313 0.05049,0.23075c0.17039,0.16627 0.21948,0.31611 0.1669,0.43585c0.11618,0.20759 0.06323,0.46368 0.04546,0.70967c0.09204,-0.03901 0.3257,-0.10422 0.47696,0.15154z" fill="#a00000" fill-rule="nonzero" stroke="none" stroke-width="0.5" stroke-linecap="butt" stroke-linejoin="miter"/><path d="M367.45519,177.1127c-0.17913,0.10594 -0.4102,0.04661 -0.51613,-0.13251c-0.10594,-0.17913 -0.04661,-0.4102 0.13251,-0.51613c0.17913,-0.10594 0.4102,-0.04661 0.51613,0.13251c0.10594,0.17913 0.04661,0.4102 -0.13251,0.51613z" fill="#a00000" fill-rule="nonzero" stroke="none" stroke-width="0.5" stroke-linecap="butt" stroke-linejoin="miter"/><path d="M370.01953,179.20289l-0.22476,-0.14838c-0.40074,-0.19582 -0.77105,-0.45301 -1.12513,-0.72424c0,0 -0.29855,-0.22989 -0.06867,-0.52844c0.22989,-0.29855 0.52844,-0.06867 0.52844,-0.06867c0.31194,0.24159 0.63793,0.47258 0.99376,0.64305l0.30496,0.19345c0,0 0.31661,0.20431 0.1123,0.52091c-0.20431,0.31661 -0.52091,0.1123 -0.52091,0.1123z" fill="#a00000" fill-rule="nonzero" stroke="none" stroke-width="0.5" stroke-linecap="butt" stroke-linejoin="miter"/><path d="M370.96755,179.86686c-0.17913,0.10594 -0.4102,0.04661 -0.51613,-0.13251c-0.10594,-0.17913 -0.04661,-0.4102 0.13251,-0.51613c0.17913,-0.10594 0.4102,-0.04661 0.51613,0.13251c0.10594,0.17913 0.04661,0.4102 -0.13251,0.51613z" fill="#a00000" fill-rule="nonzero" stroke="none" stroke-width="0.5" stroke-linecap="butt" stroke-linejoin="miter"/><path d="M371.78174,181.10501c-0.17913,0.10594 -0.4102,0.04661 -0.51613,-0.13251c-0.10594,-0.17913 -0.04661,-0.4102 0.13251,-0.51613c0.17913,-0.10594 0.4102,-0.04661 0.51613,0.13251c0.10594,0.17913 0.04661,0.4102 -0.13251,0.51613z" fill="#a00000" fill-rule="nonzero" stroke="none" stroke-width="0.5" stroke-linecap="butt" stroke-linejoin="miter"/><path d="M366.09239,176.60846c-0.17913,0.10594 -0.4102,0.04661 -0.51613,-0.13251c-0.10594,-0.17913 -0.04661,-0.4102 0.13251,-0.51613c0.17913,-0.10594 0.4102,-0.04661 0.51613,0.13251c0.10594,0.17913 0.04661,0.4102 -0.13251,0.51613z" fill="#a00000" fill-rule="nonzero" stroke="none" stroke-width="0.5" stroke-linecap="butt" stroke-linejoin="miter"/><path d="M359.29475,173.42253c-0.17913,0.10594 -0.4102,0.04661 -0.51613,-0.13251c-0.10594,-0.17913 -0.04661,-0.4102 0.13251,-0.51613c0.17913,-0.10594 0.4102,-0.04661 0.51613,0.13251c0.10594,0.17913 0.04661,0.4102 -0.13251,0.51613z" fill="#a00000" fill-rule="nonzero" stroke="none" stroke-width="0.5" stroke-linecap="butt" stroke-linejoin="miter"/><path d="M360.76779,173.6978c-0.17913,0.10594 -0.4102,0.04661 -0.51613,-0.13251c-0.10594,-0.17913 -0.04661,-0.4102 0.13251,-0.51613c0.17913,-0.10594 0.4102,-0.04661 0.51613,0.13251c0.10594,0.17913 0.04661,0.4102 -0.13251,0.51613z" fill="#a00000" fill-rule="nonzero" stroke="none" stroke-width="0.5" stroke-linecap="butt" stroke-linejoin="miter"/><path d="M362.16646,174.2627c-0.17913,0.10594 -0.4102,0.04661 -0.51613,-0.13251c-0.10594,-0.17913 -0.04661,-0.4102 0.13251,-0.51613c0.17913,-0.10594 0.4102,-0.04661 0.51613,0.13251c0.10594,0.17913 0.04661,0.4102 -0.13251,0.51613z" fill="#a00000" fill-rule="nonzero" stroke="none" stroke-width="0.5" stroke-linecap="butt" stroke-linejoin="miter"/><path d="M331.7576,159.58044c-0.17711,-0.29945 -0.21564,-0.64248 -0.13473,-0.95458c-0.22422,-0.16065 -0.41464,-0.428 -0.46618,-0.87081c-0.08221,-0.70629 0.28198,-1.05927 0.61346,-1.23262c-0.12737,-0.48986 0.05312,-1.02118 0.47331,-1.32851l1.08715,-0.8175l0.11189,0.1488l0.2773,-0.34653c2.37936,0.06588 6.94156,0.54123 3.57152,3.92986c-0.11594,0.11659 -0.23583,0.21693 -0.35913,0.30314c-0.07531,0.32178 -0.27671,0.61352 -0.58362,0.79504c-0.54988,0.32521 -1.24668,0.18318 -1.62923,-0.30769c-0.20809,-0.00819 -0.41752,-0.02229 -0.62683,-0.03622c0.02808,0.45586 -0.19435,0.91084 -0.61444,1.15931c-0.59707,0.35312 -1.36734,0.15537 -1.72048,-0.44169z" fill="#ffffff" fill-rule="nonzero" stroke="none" stroke-width="0.5" stroke-linecap="butt" stroke-linejoin="miter"/><path d="M338.42903,159.74085c-0.56202,0.33239 -1.27751,0.17669 -1.65409,-0.34071c-0.08938,0.10711 -0.19827,0.20103 -0.32519,0.2761c-0.4537,0.26834 -1.00741,0.21858 -1.4021,-0.08276c-0.2516,0.08675 -0.519,0.08898 -0.76477,0.01628c-0.10064,0.24122 -0.27718,0.45322 -0.51946,0.5965c-0.59707,0.35312 -1.36734,0.15537 -1.72048,-0.44169c-0.35312,-0.59707 -0.15537,-1.36734 0.44169,-1.72048c0.31273,-0.18496 0.67298,-0.21878 0.99591,-0.12327c0.10064,-0.24122 0.27718,-0.45322 0.51946,-0.5965c0.4537,-0.26834 1.00741,-0.21858 1.4021,0.08276c0.51514,-0.17763 1.09644,-0.00092 1.42296,0.44768c0.08938,-0.10711 0.19827,-0.20103 0.32519,-0.2761c0.59707,-0.35312 1.36734,-0.15537 1.72048,0.44169c0.35312,0.59707 0.15537,1.36734 -0.44169,1.72048z" fill="#a00000" fill-rule="nonzero" stroke="none" stroke-width="0.5" stroke-linecap="butt" stroke-linejoin="miter"/></g></g></g></svg>