<svg version="1.1" xmlns="http://www.w3.org/2000/svg" xmlns:xlink="http://www.w3.org/1999/xlink" width="2556.26714" height="3061.66512" viewBox="0,0,2556.26714,3061.66512"><g transform="translate(921.86148,1283.744)"><g data-paper-data="{&quot;isPaintingLayer&quot;:true}" fill="none" fill-rule="nonzero" stroke="#000000" stroke-width="0.05" stroke-linecap="butt" stroke-linejoin="miter" stroke-miterlimit="10" stroke-dasharray="" stroke-dashoffset="0" style="mix-blend-mode: normal"><path d="M-228.79232,-1281.0782c26.72649,-0.88003 53.45306,-1.76003 80.17955,-2.64007c8.74672,67.13802 3.34814,139.04412 12.25028,207.71593c-47.22226,6.36143 -99.79997,0.8835 -149.06803,2.72227c-21.5111,6.6588 -3.42056,52.91921 -9.35445,75.15521c8.68148,27.71666 -18.83579,39.76452 -33.36168,58.01757c-16.9255,9.80231 -2.31288,20.65094 7.43606,27.45126c18.76925,23.82147 35.06473,12.56461 50.43527,-8.53895c16.18697,-28.40704 49.71029,-12.79993 75.85649,-15.42235c39.42623,12.29704 41.1837,-13.2003 36.17753,-45.46613c35.77084,-5.80419 76.10173,-0.79991 113.61436,-2.47565c5.68469,50.23159 0.74391,104.8644 2.41167,156.75986c-21.85322,4.86593 -47.68221,1.37472 -70.94383,4.8051c-29.59537,8.90455 -49.2176,0.94562 -45.39894,-32.96012c4.73764,-23.97649 -20.22717,-20.25163 -35.88598,-15.48379c-53.09137,38.87584 -95.18983,92.45558 -143.80347,137.11203c-6.43258,28.55008 -3.88369,63.11863 -0.16711,93.35053c125.42589,4.74877 252.09847,3.70888 377.50255,-1.22412c5.64989,-68.47493 3.84902,-138.02709 3.09202,-206.90705c3.55061,-11.80462 -7.51026,-29.89675 1.0919,-38.04391c123.14354,-7.4807 247.25778,-2.32849 370.40451,-4.33006c6.10714,127.53559 2.98648,256.22144 4.35758,384.18079c-1.45852,78.42803 3.53428,159.51374 -1.95503,236.28125c-39.43863,-1.66375 -81.56805,3.1356 -119.34209,-2.5396c-0.79265,-82.01872 3.66324,-164.6124 -2.44824,-246.30298c-49.83093,-4.14591 -102.57674,1.36702 -150.63926,-1.58951c0.45032,-82.60366 0.90121,-165.20734 1.34737,-247.81105c1.62108,-29.86323 7.4813,-63.94267 -33.48499,-51.4486c0.68311,82.59733 1.36514,165.19464 2.04628,247.792c-31.8387,5.70161 -68.11258,0.75597 -101.62895,2.43906c0.70107,62.3329 -1.84502,126.07324 0.85102,187.5373c20.19552,13.90473 40.56508,56.67576 60.47346,20.3431c28.99248,-16.82845 16.10024,-53.4697 22.42693,-78.53524c39.44479,1.46727 81.55583,-3.56558 119.3512,1.90923c-2.91157,21.5936 4.54485,43.07422 2.97808,64.21128c-38.34462,26.54797 -70.43434,62.91421 -103.57476,96.28489c0.534,27.85441 -5.15593,56.47299 -0.30145,83.94322c49.25881,5.28231 100.85599,1.35532 150.90417,3.06942c5.32052,25.03859 0.47413,54.23247 1.57431,80.94742c1.14451,21.98699 -3.39178,48.81929 -1.83922,68.58652c98.80358,5.85424 198.24087,2.04217 297.24989,1.43422c9.93632,-2.13262 42.20922,2.90132 33.6723,-16.52559c9.31918,-8.13508 0.35528,-21.12217 5.134,-31.83613c30.11945,-7.01985 64.42445,0.54027 95.8102,-1.65606c11.1478,-16.81132 1.34175,-54.83527 4.67691,-79.55576c-33.4522,-3.92886 -70.19562,3.93906 -102.08577,-7.28074c-0.18788,-29.71473 8.30323,-62.63209 -0.21011,-92.57601c-30.37472,-8.26122 -64.7737,1.84509 -96.3123,-0.01826c-5.88417,-54.20699 -0.81468,-113.08268 -2.51214,-169.07409c31.45745,-6.37768 67.40655,-2.49269 100.55098,-5.00608c-0.16476,-31.95489 -0.32253,-63.90976 -0.47501,-95.86471c37.34303,-5.15242 79.07046,0.7108 118.05401,-0.27403c18.90662,4.67955 -3.35407,29.0853 3.25218,41.78432c22.60489,11.05503 52.12318,7.85778 77.22883,6.31243c8.57329,-23.1662 2.67533,-52.66285 4.22344,-78.08796c6.62141,-21.32838 -16.65319,-72.24855 13.06441,-72.0898c39.44474,12.7985 40.59558,-12.75472 35.19384,-44.88593c34.45084,-5.86941 73.55054,-0.83148 109.78668,-2.51214c28.89882,-6.7546 8.97292,27.17766 14.19609,42.59736c8.97382,18.32073 37.45119,0.44847 52.27156,3.12425c1.33093,31.18416 -6.02567,66.90955 -3.35264,100.26782c-53.48115,7.51906 -111.9197,3.42424 -166.65321,9.35445c-1.41129,18.49848 3.43469,38.50378 5.0152,57.46946c29.70763,-0.00003 59.41528,0 89.12291,0c30.94979,8.99795 14.13685,-27.10577 23.75146,-44.14123c23.69733,-13.4307 55.18097,-3.2535 81.54839,-5.12355c36.33221,-6.76013 14.89517,39.36167 18.93178,60.97299c-18.15666,33.18439 51.84304,34.26674 30.96609,0.06702c-16.47021,-39.96671 26.3861,-25.91797 50.49017,-25.9439c0.27694,-46.28499 0.55115,-92.56998 0.82206,-138.85497c10.44408,-24.20951 39.02361,-40.19119 55.99882,-61.4249c54.87006,-0.8029 110.34051,1.61748 165.43827,2.03711c5.55297,70.12879 0.77997,144.48859 2.37514,216.23906c-27.96506,4.95705 -59.89622,-3.00649 -89.49743,0.60293c-17.92123,-3.68144 -17.29195,33.67564 -0.54814,30.54808c39.00366,-10.92078 60.42964,30.03375 85.19843,51.28067c7.92702,19.37864 5.54622,45.20872 2.9927,66.93781c-13.67308,16.47507 -38.51674,26.20634 -47.33854,47.70395c-11.35801,14.19016 -36.20262,-0.70337 -51.36719,1.71744c-0.41667,20.10786 4.24106,45.13537 -14.06819,59.42441c-22.54718,32.85764 -65.00405,27.09395 -99.47309,26.34587c-21.14793,1.77697 -33.2168,-14.86873 -46.81781,-26.80265c-27.35223,-6.19338 -10.31468,-40.3727 -11.73874,-58.59308c-14.14148,0.29821 -29.8577,4.30112 -43.16373,-2.25642c-9.48957,27.22602 -1.99663,60.23071 -4.56763,89.32389c-30.25603,7.04061 -65.46808,-2.09909 -96.97003,5.30757c-8.43013,14.99717 -11.21466,-5.82061 -9.01642,-14.71682c12.12387,-35.57496 -28.79167,-21.44406 -50.41712,-24.83158c-9.43787,3.06568 -34.53656,-6.87476 -32.77703,9.30177c-2.89623,23.68126 22.0544,20.52246 37.46339,18.86415c20.16456,-4.55996 19.58448,22.39119 8.40438,31.66256c6.37797,-0.38451 8.0133,7.49458 5.35324,12.25945c3.47842,7.97611 20.1458,11.46325 25.83431,12.34163c24.90586,-14.90086 67.81258,7.78831 82.44507,-26.79353c2.38313,-20.335 32.44829,-3.75847 38.96159,-17.43905c5.24587,-13.0796 36.33539,-13.31618 37.69177,2.7771c49.25989,7.64603 100.85094,-1.08399 150.84181,-0.05692c20.38247,6.16293 70.98861,-16.46189 71.31021,10.28931c-18.0852,40.49483 30.3144,18.88258 51.26418,27.82481c-0.53594,88.91885 -1.07188,177.83774 -1.60777,266.75664c-32.64458,29.54004 -65.15703,59.99812 -96.35233,91.50315c-7.69707,24.22504 -1.65111,54.44412 -3.0385,81.02403c9.65531,30.74175 -27.90158,43.36055 -40.22225,66.02c-1.48765,14.06234 17.61818,24.73685 27.09492,33.90982c19.95657,-3.869 27.24116,-35.1318 48.85502,-39.09859c89.18789,-2.89108 178.93101,-6.23586 268.04471,1.52556c12.47984,18.20153 31.77942,35.44073 49.01941,50.81905c-0.12726,54.84461 2.61477,113.04561 -2.74055,166.51626c-72.27316,-1.5267 -145.35957,5.11466 -217.20738,-2.9781c-5.04714,-41.30921 0.07649,-86.33518 -1.17777,-128.94392c8.98022,-24.6879 -18.41227,-20.43332 -34.011,-16.1503c-44.41984,33.75295 -80.93707,78.87433 -121.62586,116.53763c-8.47437,4.9824 0.24836,9.27375 -1.73572,14.63458c-17.27872,-1.23473 -29.74007,10.27411 -25.29533,29.05903c-3.53219,22.2472 26.4559,8.27101 35.95611,18.56272c-3.48469,152.43685 -11.66857,304.79124 -18.57182,457.12483c-31.85583,6.66726 -68.08742,-1.99035 -101.10827,4.90559c-3.96068,4.41291 -10.27105,15.52239 -12.37821,2.86845c-12.28976,-154.99458 -9.56445,-310.88443 -17.43906,-466.17781c29.47212,-1.44161 55.36734,0.05112 42.78977,-39.55203c3.56955,-21.34936 -12.74487,-57.13844 13.69311,-68.5995c8.2209,-13.35643 21.14452,-22.80928 32.97801,-33.40738c-13.02311,-3.37013 -22.1266,-21.03813 -34.74109,-28.33735c-21.70708,4.4776 -35.20178,31.23361 -53.5505,42.78008c-87.24061,-3.66003 -175.25198,3.38606 -262.07029,-5.18877c-13.92663,-18.32838 -31.48759,-37.18658 -50.16132,-52.31725c-1.17745,-53.34733 -2.60437,-108.33129 -0.31062,-161.4279c69.67725,-9.8897 141.58801,-2.44422 212.01861,-4.89644c4.65196,45.75427 2.53772,95.43916 7.42905,142.68593c-5.84525,22.19526 22.26,13.9832 35.46983,11.91797c49.10645,-34.42189 86.31166,-83.77444 130.61235,-124.00851c33.00865,-20.20678 16.36215,-61.56465 21.34235,-93.71045c-5.75143,-21.55234 13.81988,-66.2206 -7.87969,-73.21463c-18.59404,2.24244 -44.12824,-5.21514 -39.57764,-29.09949c5.34898,-39.56663 -55.89479,-47.74348 -46.88234,-88.81235c8.74189,-35.15387 -24.03221,-55.26001 -44.67669,-76.73788c-40.6727,-6.87153 -87.12147,-1.86864 -129.77741,-0.08901c-30.98657,-5.17286 -25.87442,23.54165 -27.05846,45.98654c-30.73286,5.40466 -65.47845,0.64714 -97.70999,2.25638c0.00003,30.18269 0,60.36533 0,90.54801c-33.26466,2.91994 -70.67518,-9.66294 -105.49313,-1.87271c-11.17087,15.45642 -5.85732,41.08921 -1.00491,58.86717c7.24101,-8.82184 1.3666,-33.87483 3.45316,-47.05537c31.94857,-5.6541 67.83671,-0.89363 100.96206,3.55361c4.88119,45.57999 0.67418,94.56069 2.08283,141.44011c-29.59677,5.66612 -63.56871,0.76973 -94.83241,2.41167c-7.8907,-17.81383 -0.8572,-42.63975 -10.12177,-60.66677c-12.69725,12.05001 -4.11517,36.31751 -8.80631,52.75573c-5.14265,18.69151 -20.5799,-3.79631 -31.41594,2.04628c-16.48256,-10.50391 0.44767,-38.82001 -11.03527,-52.55475c-12.12387,13.2904 -3.5728,39.12721 -7.93851,56.1266c-29.99653,5.36903 -63.98395,0.7484 -95.50839,2.29291c-5.67375,-50.58934 -0.75618,-105.56576 -2.41168,-157.81949c25.17958,-0.96496 53.62601,8.06577 80.62717,7.13458c29.15886,-8.2427 21.7002,20.6421 24.37265,38.88848c0.52559,12.47802 4.07046,6.25297 4.11086,-2.95067c-2.37948,-16.65393 12.65785,-52.84488 -14.17317,-47.37796c-29.41529,2.17205 -58.37695,0.53507 -50.31213,-36.6749c-113.06932,-0.80153 -226.1386,-1.60849 -339.20783,-2.42083c-2.13725,49.35053 -0.70794,98.75022 1.19671,148.08143c-27.57252,5.63693 -59.93872,-0.50528 -89.28269,0.7796c-22.58497,6.71564 -72.54415,-18.03104 -72.1196,15.13042c-4.73638,111.77172 -4.97735,224.24392 -0.41842,335.92262c30.65289,12.73321 69.18894,-1.11691 99.88414,7.64617c2.17201,30.34736 -7.07639,65.14581 2.26555,93.40728c11.0083,-29.65593 3.49449,-66.22076 7.26246,-98.20325c28.34908,-6.546 61.24843,1.38311 90.96822,-4.73202c-29.01352,-11.02519 -73.64872,-1.3172 -105.31955,-9.55543c0.76739,-95.84603 -0.24644,-191.83675 7.01582,-287.48437c31.63674,-7.50558 67.37839,-6.25536 100.56016,-10.4598c0,-32.58827 -0.00005,-65.17655 0,-97.76482c32.89047,-4.05155 69.8916,1.38188 104.32381,2.67663c7.64217,19.79711 4.29215,44.56083 7.7602,66.03187c-10.16746,40.93523 25.44696,33.91754 54.11928,34.16524c38.40665,-9.7607 45.43819,14.70629 39.74036,47.52806c34.13363,1.17843 68.97616,-2.61681 102.71606,3.45308c7.03313,30.66582 -1.83925,65.45299 -1.0962,97.30801c-22.88262,5.22465 -49.46137,0.87506 -73.60221,5.41721c-20.31415,-3.25546 -26.63058,17.13211 -21.28499,32.80444c17.92539,20.16419 51.3397,5.63483 74.93061,7.77536c41.36057,-14.31375 21.41911,37.84063 25.91271,61.45109c0.72932,28.29515 8.32882,67.31114 -33.4713,53.86104c-25.30594,-4.41113 -61.41394,10.057 -79.75023,-13.383c-5.91444,12.46468 -1.81536,27.91788 -0.83127,41.24537c0.64656,5.02571 3.75505,32.6241 10.91652,15.6577c30.75966,-13.42395 67.90195,-2.47356 100.7246,-6.24845c5.71907,34.8702 0.71689,74.18131 2.41168,110.71847c-31.57641,5.0364 -67.47774,-0.96023 -100.67893,-0.06392c-3.99695,30.59456 1.37189,64.91184 -10.09436,93.60826c-202.0704,8.31871 -404.65885,4.73138 -606.9328,7.17111c-6.50236,-32.94078 -2.4329,-70.51291 -5.00607,-105.17343c-50.0631,0.1129 -104.02018,1.92926 -152.07349,4.7412c0,-53.34646 -0.00005,-106.69294 0,-160.03939c82.21276,-6.25861 169.44607,0.99822 252.81634,-5.1888c3.60319,-110.13003 -2.1142,-224.52451 -2.54871,-336.16579c-29.94476,-1.42515 -61.22201,3.85216 -90.4475,-4.18391c-14.40508,11.11629 -42.97385,6.45428 -59.67109,4.1565c-4.02049,-36.6763 7.90702,-70.66129 3.34786,-107.47762c-4.56258,-12.77048 7.75665,-42.08517 -12.25463,-43.65494c-19.03763,-2.56008 -49.8546,6.97261 -39.79287,-24.07125c-12.39285,-38.3166 21.58918,-35.37669 49.11077,-35.27094c0,-48.35255 -0.00005,-96.7051 0,-145.05765c48.63519,-5.70929 101.70355,-0.71791 152.00954,-2.40255c0,-31.26977 -0.00005,-62.53953 0,-93.80929c-32.48664,-30.71982 -64.97445,-61.43839 -97.46337,-92.15578c-0.94976,-51.59311 -3.0096,-103.77382 -6.73262,-155.49004c-61.10522,0.82965 -122.21047,1.65489 -183.31583,2.47565c-0.67011,216.90896 -1.01346,433.81914 -2.00377,650.72698c-2.64567,71.45875 3.49602,144.24877 -6.56503,214.96917c-7.96433,2.08095 -9.73394,6.87734 -0.65773,11.49207c11.45151,47.47231 4.09093,98.4101 7.04231,147.09534c2.95161,69.9366 -4.39894,141.75272 8.16777,210.51075c29.90974,-3.50893 63.36287,-3.82326 94.38478,-4.8051c5.04933,31.45253 -1.36115,67.44047 -0.62122,100.5967c78.07897,1.03259 156.52782,2.70695 234.39417,-1.22804c17.95901,6.60998 17.9802,-20.87854 31.79609,-21.24453c-17.43222,58.34073 -11.46919,122.78675 -11.14454,183.85128c-10.86078,39.94052 16.80627,41.37901 49.00993,38.27081c5.75087,54.68218 1.28198,113.58017 3.12419,169.878c-61.05517,5.25695 -126.5022,-0.2382 -189.22732,0.92202c-39.4317,11.75769 -37.46488,-19.2396 -33.51595,-48.50723c6.43417,-26.95112 -18.45447,-49.57299 -11.61998,-76.03217c15.13435,-11.67987 -3.38789,-40.24662 17.14677,-47.54869c18.57659,4.56203 49.62026,-1.00986 45.80384,-27.1589c5.37061,-25.82733 -5.06557,-33.55636 -29.39705,-26.51945c-19.40414,5.86669 -27.17491,-22.18563 -45.06386,-16.30632c-7.12625,2.08656 -30.67819,19.82658 -26.19976,2.05544c-7.11545,-15.50231 -43.11959,-1.36107 -31.4707,17.41165c11.4037,5.73566 -4.06,17.09232 -0.29234,26.93056c-3.76113,16.60557 14.08049,51.11573 -14.26914,45.16435c-18.86574,-6.61495 -35.55635,16.82618 -52.60956,5.48113c-22.70241,-16.79398 -40.80714,17.14391 -36.54076,36.75084c-0.79407,112.19111 -3.89154,224.93269 4.01944,336.82355c47.9157,11.34369 101.663,-2.92727 149.1868,4.39407c0.38919,78.71209 0.77773,157.42417 1.16902,236.13626c3.74608,25.95906 -14.18974,73.70797 28.22803,60.80305c0,-82.66433 -0.00004,-165.32865 0,-247.99298c40.17823,-7.50644 85.76696,4.30937 126.91515,-5.88306c2.61802,-14.64858 -24.80791,-23.0179 -26.35499,-36.93358c46.82675,-46.01366 94.61083,-91.11861 140.88287,-137.65816c20.00249,-38.94561 10.39413,-85.71844 14.20517,-128.07844c3.70478,-31.57617 -5.78254,-68.07314 7.81974,-97.35061c-12.98227,-11.95253 -6.98463,-34.4301 -7.6553,-50.80079c4.82647,-13.96135 -13.83521,-35.01991 4.96954,-42.84406c20.05333,6.26462 14.09877,-31.99598 34.42141,-24.26306c10.11055,-17.96439 28.9299,-39.04803 50.84644,-44.57054c1.41444,-6.23544 0.26721,-16.66372 8.58709,-21.3124c-2.98224,-15.61909 22.82248,-13.92259 25.83433,-0.61206c40.89707,-18.05935 91.12527,-2.98037 134.28728,-14.95433c23.49071,15.69413 42.18903,41.04984 64.01689,60.0316c15.69651,23.04013 54.88808,36.24569 50.73499,67.80623c-1.57628,80.94033 3.22821,164.49818 -2.30685,243.80904c-77.27789,0.75962 -154.55577,1.51836 -231.83374,2.2742c-24.44122,-8.31749 -20.50824,18.37833 -16.57947,34.22092c32.12593,45.00393 78.72354,78.18392 115.38656,119.60698c9.68311,16.94622 38.8629,17.89192 36.66868,41.47378c-8.47709,8.8882 -21.25075,13.13492 -25.84344,26.04442c-11.39796,3.64323 -16.97231,14.63212 -31.1145,13.45613c-20.79981,-0.29295 -11.24117,5.17398 1.54387,6.37641c48.64886,5.46317 101.52525,11.80454 148.90358,-3.06943c-18.54745,-10.48411 -46.43027,1.45611 -65.40794,-6.59561c1.96715,-32.33946 -3.0458,-68.40786 0.95917,-99.06201c56.48402,-3.90361 115.84199,-5.56824 170.87374,-1.50728c0.1406,73.27641 0.2812,146.55281 0.4218,219.82927c3.3369,30.04627 4.25386,62.0917 -35.82207,48.94802c-45.05211,-3.36143 -92.69262,5.16715 -136.45091,-6.09494c-5.182,-30.60232 1.81512,-64.62847 0.01826,-96.23007c16.17845,-7.25755 37.80655,-0.2509 55.03037,-7.88368c-40.02384,-11.60677 -84.42878,-1.81949 -125.77911,-1.04952c-20.94281,0.13488 -40.68389,4.75163 -59.63784,10.9429c-43.89895,25.27633 -72.98708,71.0398 -112.54553,102.63386c-28.52438,-19.05399 -48.94955,-51.0078 -76.21487,-73.02669c-6.00255,-11.93927 -26.81799,-10.99497 -29.11385,-23.51397c-43.40504,-11.54052 -93.08844,-2.36977 -138.55342,-3.80936c-0.06674,54.60103 -0.60126,109.20296 -0.22909,163.80367c-2.02949,26.00597 3.9986,53.59884 1.27052,78.52545c-47.04588,8.38962 -97.16427,3.32084 -145.2679,5.50519c-76.99976,-1.29871 -156.59401,3.23599 -231.90575,-2.30783c1.05241,-237.98903 0.08522,-475.99586 2.54646,-713.97338c2.89795,-10.11505 -5.62023,-37.14229 11.35727,-35.02075c3.17855,-16.52958 4.48733,-39.08719 -4.46712,-53.05719c-10.62355,13.71309 4.04995,38.98961 -3.83675,53.77884c-34.09873,-1.39906 -69.85754,4.93538 -103.22764,0.22839c-10.36209,-30.68465 0.51242,-66.31167 -2.26552,-98.47731c-43.9983,-0.19775 -88.03224,-2.03094 -132.01264,-0.0731c-0.24061,32.12171 4.60251,64.86078 -0.49329,96.69597c-87.72832,4.12644 -178.43693,0.5897 -267.2865,1.70826c-10.32605,-13.81485 -3.78817,-36.95898 -6.39704,-53.92513c5.83168,-19.22785 -14.07956,-63.79427 13.54077,-63.23362c40.63383,11.69403 39.86141,-16.74799 35.2652,-48.89825c11.89233,-42.04433 -23.46095,-29.67381 -49.59831,-33.54686c3.40733,-39.27398 -4.28794,-81.11209 6.67782,-119.11375c87.90247,-2.45488 177.81278,1.02801 266.41867,0.43855c5.74096,30.7058 0.70194,65.8649 2.40255,98.23979c42.83789,0.47599 85.68685,0.42968 128.51384,1.59867c1.31202,-32.20979 -0.85648,-64.86845 3.87331,-96.80562c25.81032,-9.61364 57.08012,-1.16478 84.48918,-2.86316c27.6647,-6.06086 14.87747,29.43902 25.40714,44.60184c5.97884,-1.16888 4.90093,-21.84059 4.37573,-29.54322c-11.57182,-16.90613 -9.72656,-38.84507 -10.5329,-59.03703c-5.04764,-476.28608 -1.40017,-952.63675 -2.5481,-1428.94815c-8.13797,-25.97732 16.0582,-38.27574 29.771,-55.64246c14.10303,-9.13405 3.50483,-20.85713 -5.597,-28.38696c-18.64201,-33.82679 -36.81082,1.41221 -55.03325,16.55691c-83.83331,3.61236 -168.25902,4.46537 -252.31838,7.01778c-31.45245,5.03267 -10.5365,-46.62326 -11.24093,-64.05793c61.70856,1.62526 123.58288,0.63807 185.17026,4.99695c61.17574,-46.54354 110.94998,-106.84645 166.6807,-159.70136c-0.26292,-63.23785 -5.21033,-126.68581 -0.64865,-189.82923c12.8239,-13.0519 29.42484,-25.9584 41.36194,-41.05788c24.83837,-10.7288 57.43165,-2.82498 85.05997,-6.81051zM-210.36666,-1171.87616c-9.98432,2.25007 -34.55427,-3.03556 -30.62113,14.90861c-3.54722,22.59983 34.60827,23.0056 29.38788,0.04569c0.41108,-4.98478 0.82217,-9.96955 1.23325,-14.9543zM1279.4456,-553.60657c-6.50568,18.64159 18.77433,14.25268 28.92203,10.40498c7.95898,-9.05536 5.17969,-35.30968 -12.45127,-29.61632c-14.15219,-2.90245 -16.13088,7.89662 -16.47076,19.21134zM621.98567,-411.54514c-3.16344,13.27571 1.94754,26.10292 17.68615,20.87375c21.70134,0.81669 17.65715,-37.61282 -4.1474,-32.47559c-9.50166,-1.33353 -15.17002,1.23259 -13.53876,11.60185zM1026.20907,-416.88932c-11.8445,21.61738 11.93654,32.10848 28.46522,24.7746c7.49551,-9.64382 7.75017,-35.72814 -11.88487,-28.69367c-4.94011,0.82209 -13.37617,-1.41266 -16.58035,3.91906zM621.94949,-306.9291c-6.91049,18.44929 28.59021,23.6655 28.70279,5.60901c7.88749,-17.81119 -11.10358,-19.71445 -23.50484,-18.57182c-7.41204,-0.93258 -4.31591,9.02044 -5.19795,12.96281zM1025.05799,-304.91022c-6.44557,18.47117 18.52411,11.93059 28.56574,11.73874c4.36655,-5.65732 7.91361,-27.34821 -3.83678,-26.72043c-11.2163,0.59158 -26.39581,-0.71818 -24.72896,14.98169zM736.48654,-220.96695c-19.09744,-4.2696 -23.71947,30.36225 -4.4945,30.31056c23.44412,0.30336 51.11856,5.12174 72.42373,-3.59014c6.8331,-18.2933 -6.53537,-35.69259 -26.9031,-29.17779c-13.78064,0.00842 -27.39022,0.82141 -41.02613,2.45736zM-37.59281,-72.65718c-1.20209,42.9731 -1.25092,85.96607 -1.41598,128.95231c61.01785,5.9699 122.49163,3.00418 183.73609,2.19245c0,-29.58279 0,-59.16558 0,-88.74836c4.2847,-28.58481 1.52543,-51.31454 -31.70826,-41.70211c-14.22791,-2.48893 -19.96535,23.38632 -34.12909,9.54625c-14.13698,-14.89169 -41.82283,-5.20294 -60.56631,-9.14429c-18.6388,-0.36543 -37.27765,-0.73081 -55.91645,-1.09625zM216.78562,321.14254c27.02009,5.56535 57.50919,4.57356 84.21731,-1.87272c-10.42,-11.78856 -36.82653,-4.6324 -52.8562,-7.38121c-6.03576,1.7181 -35.9394,-3.34626 -31.36111,9.25393zM925.96861,344.98539c-7.4322,22.18825 16.06182,13.56212 29.07731,11.46466c10.30041,-12.36999 1.53895,-35.98474 -17.61262,-30.93175c-10.46303,-0.35317 -11.68392,11.6369 -11.46469,19.46709zM507.66831,359.14491c-11.00526,10.60405 18.20317,9.87282 0,0zM1482.55737,493.76107c-5.17618,19.4501 19.08104,13.20247 29.9452,12.94455c8.35557,-12.75921 -3.77629,-31.72531 -19.94212,-29.66193c-10.55142,-2.95645 -9.93674,9.99897 -10.00308,16.71738zM153.80764,563.59961c-69.25087,0.81285 -138.50169,1.63192 -207.75247,2.45737c0.60266,50.59003 -4.84003,103.08833 0.63947,152.72208c18.94539,4.20079 44.97948,8.51977 61.66251,-2.16503c-12.86361,-11.11089 -37.8935,-4.69342 -54.48223,-9.15347c-2.21274,-40.85833 -0.33264,-85.95587 6.23019,-127.63688c59.33307,-9.76458 121.86329,-4.46905 182.31093,-7.60047c5.89105,37.89556 0.67974,80.45093 2.45737,120.07294c4.30093,30.40261 -38.54055,11.41521 -57.90792,16.75392c-9.78871,2.23726 -30.73315,-2.0692 -34.71374,8.22166c32.66788,10.24311 70.04506,1.34525 104.22335,3.07859c0.61599,-46.28465 3.63055,-92.71765 -0.08218,-138.9371c-0.86178,-5.93786 -1.72351,-11.87572 -2.58529,-17.8136zM199.74853,661.97646l-0.55724,0.04564c-6.27528,25.83738 1.98763,55.38203 3.1516,82.22586c0.22039,21.09203 8.46323,1.11196 7.32644,-7.49086c-1.08656,-24.40776 4.79158,-53.98185 -9.57365,-74.75323zM406.54179,672.08912c-11.11488,14.95184 -2.21816,39.31579 -4.22047,57.47859c2.35871,5.66248 -3.16966,37.10609 8.69672,27.29595c4.60968,-27.35048 2.07542,-58.06731 -2.23814,-85.02123c-0.74935,-0.09681 -1.50667,0.16155 -2.23811,0.2467zM305.73496,672.35402c-2.53758,28.28393 -7.44454,58.78669 -4.92385,87.18621c15.81428,-1.86727 9.08619,-27.76146 12.18635,-38.87936c-2.0778,-15.01831 7.59248,-38.34096 -4.99695,-48.6814c-0.74761,-0.06048 -1.64119,-0.13742 -2.26555,0.37454zM-307.87565,763.98907c10.24469,-10.18683 5.81192,-32.17725 3.243,-45.8769c-4.01063,12.89246 -10.45205,34.69905 -3.243,45.8769zM-504.3553,814.54325c10.86136,10.71377 34.43399,6.33894 48.35258,2.8045c-5.35112,-7.81923 -23.89947,-6.10439 -33.6632,-7.91109c-4.49413,0.43048 -12.94228,-0.11123 -14.68938,5.10659zM-250.72591,821.50425c4.14996,6.19763 26.05683,3.52076 35.80077,3.4988c11.45863,1.63057 10.49128,-11.43243 -1.01396,-8.13948c-11.55592,0.43283 -23.90672,0.12314 -34.78681,4.64069zM-797.66794,828.00848c-0.29729,23.52307 -3.02882,47.11861 -1.1693,70.62414c-1.18435,16.57723 31.84977,13.22091 29.16865,1.79967c-6.7659,-22.0282 14.96208,-72.55034 -13.95857,-72.42381c-4.68027,0 -9.36051,0 -14.04078,0zM-498.89245,918.54738c6.62212,8.85476 27.3989,4.18917 38.88851,4.4123c16.45423,-4.76417 -8.70535,-11.55732 -14.65286,-8.42269c-8.17928,0.43722 -16.99157,-0.33414 -24.23565,4.0104zM-308.00198,1004.52125c1.24645,5.28058 -4.38536,30.54088 5.96368,24.95468c6.54063,-18.30342 12.43833,-44.73593 0.56642,-61.12354c-9.18043,7.42839 -4.04135,25.55248 -6.5301,36.16886zM556.81562,1464.24698c14.1011,10.59685 38.38429,7.4372 55.0487,3.82765c-4.93424,-10.11809 -25.96978,-5.33987 -36.77833,-7.3995c-4.26355,1.59242 -16.97231,-2.59932 -18.27038,3.57185zM564.13294,1519.24997c13.77334,2.06801 35.27721,11.20307 45.93172,1.79962c-8.20481,-10.59767 -28.75425,-5.00925 -41.36414,-7.27157c-8.2963,0.20299 -17.97637,0.67019 -4.56758,5.47195z"/></g></g></svg>