<svg version="1.1" xmlns="http://www.w3.org/2000/svg" xmlns:xlink="http://www.w3.org/1999/xlink" width="980.48048" height="630.63063" viewBox="0,0,980.48048,630.63063"><g transform="translate(145.24024,130.31528)"><g data-paper-data="{&quot;isPaintingLayer&quot;:true}" stroke-miterlimit="10" stroke-dasharray="" stroke-dashoffset="0" style="mix-blend-mode: normal"><path d="M-145.24024,500.31535v-630.63063h980.48048v630.63063z" fill="#000000" fill-rule="nonzero" stroke="#ff3838" stroke-width="0" stroke-linecap="butt" stroke-linejoin="miter"/><text transform="translate(304.71471,259.28905) scale(0.5,0.5)" font-size="40" xml:space="preserve" fill="#ffffff" fill-rule="nonzero" stroke="none" stroke-width="1" stroke-linecap="butt" stroke-linejoin="miter" stroke-miterlimit="10" stroke-dasharray="" stroke-dashoffset="0" font-family="Marker" font-weight="normal" text-anchor="start" style="mix-blend-mode: normal"><tspan x="0" dy="0">Loading</tspan></text><g><path d="M333.62633,174.76068c-0.36533,0.36618 -4.03087,-0.56805 -5.58961,0.19287c-1.08969,0.57405 -2.37929,1.3623 -3.23338,2.75731c-1.97694,3.12848 -2.26222,2.16434 -4.3883,1.67688c-2.17438,-0.47362 -3.35468,-1.70229 1.98249,-5.32467c1.83419,-1.25813 3.66926,-1.78475 5.18014,-2.16609c0.38633,-0.11085 3.81542,-0.72906 5.4456,0.58025c1.63019,1.30929 0.93397,1.97949 0.60307,2.28354z" fill="#000000" fill-rule="evenodd" stroke="#001026" stroke-width="1.2" stroke-linecap="round" stroke-linejoin="round"/><path d="M334.98097,168.60945c0.98726,0.34391 2.27225,1.54317 1.10111,3.29051c-1.34331,2.05808 -4.07743,0.90881 -5.25114,0.4616c-1.17372,-0.4472 -1.78134,-0.74322 -4.16274,-1.20971c-0.94568,-0.19902 -2.11895,-0.28045 -2.75389,-0.30731c-0.25529,0.021 -0.49677,0.09028 -0.7105,0.25618c-0.37917,0.31788 4.66395,0.24949 3.55242,-0.16326c-1.15719,-0.54865 -1.45699,0.60166 -0.60634,-1.19058c0.09771,-0.20591 -0.2285,0.33024 -0.14907,0.10217c0.74717,-2.14594 -0.84173,-1.22785 0.5342,-1.18531c2.89159,0.05873 3.09124,-1.54168 2.60291,-0.1471c-0.04112,0.2209 0.25903,0.90257 0.46603,0.89542l-1.40037,-2.07835c0.60574,0.01635 -0.82376,-0.37515 -0.24787,-0.31637c0.63923,0.06525 2.24306,0.50261 2.82943,0.60339c2.51465,0.43219 3.47834,0.76005 4.19585,0.98874z" fill="#000000" fill-rule="evenodd" stroke="#001026" stroke-width="1.2" stroke-linecap="round" stroke-linejoin="round"/><path d="M345.14101,176.81877c-0.61309,0.95996 -2.35198,1.09312 -2.78831,-0.24515c-0.3603,-1.25557 0.27961,-2.85046 0.63735,-3.7894c0.35775,-0.93896 2.24439,-4.56422 6.00609,-4.02344c1.60833,0.32248 5.66819,2.0844 4.38705,4.17689c-1.28113,2.09251 -3.44295,0.5699 -4.89297,-0.11157c-1.21528,-0.59207 -3.16321,3.73025 -3.34923,3.99273z" fill="#000000" fill-rule="evenodd" stroke="#001026" stroke-width="1.2" stroke-linecap="round" stroke-linejoin="round"/><g fill-rule="evenodd"><path d="M339.23169,170.1517c0.70422,0.26833 1.49161,0.82639 2.58299,1.71533c0.89108,0.73738 2.07993,2.33012 2.07993,2.33012c0.78107,1.08254 1.73603,3.31738 0.12858,3.7264c-1.07626,0.25662 -2.00051,0.67865 -3.57312,1.39128c-2.73116,1.41102 -3.15148,1.94977 -4.92698,0.31631c-1.96907,-1.94377 -5.7862,-2.67774 -2.83171,-7.86385c0,0 1.83966,-2.51414 3.885,-6.13266c1.39117,-2.43769 3.65742,-6.01508 4.45649,-7.23749c0.18603,-0.26245 0.44804,-0.44219 0.72393,-0.57363c4.55951,-1.7789 8.17506,-2.2938 8.77096,-0.21729c0.99782,3.47696 -6.25427,4.25145 -6.25427,4.25145c0,0 -1.6809,2.52086 -2.43171,3.7294z" fill="#000000" stroke="#001026" stroke-width="1.2" stroke-linecap="round" stroke-linejoin="round"/><path d="M342.28497,172.77746c0,0 1.264,0.94398 -0.43835,2.84374c-1.77119,2.02407 -3.03562,0.71436 -4.23746,-0.19517c-1.39543,-1.21987 -0.63749,-2.22138 0.07886,-3.36781c0.56479,-0.94609 1.12282,-1.73348 1.12282,-1.73348c0,0 1.78805,0.58449 3.47408,2.45268z" fill="#a00000" stroke="none" stroke-width="1" stroke-linecap="butt" stroke-linejoin="miter"/></g><g fill-rule="evenodd"><path d="M352.06442,201.85455c-1.05525,0.51192 -2.18652,0.94111 -3.56638,1.23256c-2.29739,0.55479 -4.7061,0.35747 -4.7061,0.35747l-4.74838,5.49186c-0.16544,0.15202 -0.4485,0.07643 -0.45562,-0.13058l-1.46657,-8.93513c0.4006,0.30316 -6.89275,-4.71224 -5.04396,-11.20141c1.84878,-6.48914 8.43396,-11.04462 18.02544,-11.86327c9.59148,-0.81864 13.21302,3.78702 13.42346,6.7059c0.21046,2.91889 -2.9272,4.91696 -2.9272,4.91696c0,0 0.57535,2.18696 -0.20774,5.28644c-0.4602,1.85691 -2.89947,5.01355 -2.89947,5.01355l0.2273,5.52748c0.00713,0.20703 -0.22046,0.32461 -0.39306,0.26959z" fill="#000000" stroke="#001026" stroke-width="1.2" stroke-linecap="butt" stroke-linejoin="miter"/><path d="M360.39882,188.27734c-3.84139,2.0955 -5.10085,-0.83595 -8.64708,-0.0796c-4.1396,0.87436 -8.43193,6.8626 -13.1503,2.62395c-4.70452,-4.19033 -1.14668,-12.738 11.23269,-13.67718c9.48105,-0.83922 13.22643,3.46954 13.43689,6.38845c0.21046,2.91888 -2.87218,4.74436 -2.87218,4.74436z" fill="#000000" stroke="none" stroke-width="1" stroke-linecap="butt" stroke-linejoin="miter"/><path d="M343.70425,187.47566c-0.82395,-2.32469 -1.27626,-5.54004 2.9796,-7.28408c4.98738,-1.74486 7.86185,1.35033 8.67067,2.52945c0.16587,0.21373 0.042,0.51065 -0.21332,0.53162c-0.76593,0.06302 -2.35282,0.3616 -4.91897,1.25483c-2.842,1.0247 -5.22801,2.54571 -6.04853,3.14705c-0.17929,0.10373 -0.41403,0.01428 -0.46946,-0.17888z" fill="#000000" stroke="#001026" stroke-width="1.2" stroke-linecap="round" stroke-linejoin="round"/><path d="M362.84478,184.96197c0,0 3.49081,-0.94953 6.28712,0.23419" fill="none" stroke="#001026" stroke-width="1.2" stroke-linecap="round" stroke-linejoin="round"/><path d="M362.2203,182.05737c0,0 1.62003,-1.45801 4.73167,-2.08967" fill="none" stroke="#001026" stroke-width="1.2" stroke-linecap="round" stroke-linejoin="round"/><path d="M349.51733,189.51845c-0.22174,-0.77266 1.46004,-2.56198 2.35698,-2.71486c0.78652,-0.17344 1.89891,0.97082 2.04466,1.66074c0.04872,0.3519 -0.98597,0.75338 -2.0001,1.04441c-0.96582,0.27716 -2.28353,0.60306 -2.40154,0.00971z" fill="#001026" stroke="#000000" stroke-width="1.2" stroke-linecap="round" stroke-linejoin="round"/><path d="M335.42135,191.9434c-1.26058,1.98207 -5.02556,4.52605 -5.02556,4.52605" fill="none" stroke="#001026" stroke-width="1.2" stroke-linecap="round" stroke-linejoin="round"/><path d="M329.34794,191.54336c0,0 3.42109,-1.55674 5.7332,-1.33171" fill="none" stroke="#001026" stroke-width="1.2" stroke-linecap="round" stroke-linejoin="round"/><g fill="#a00000"><path d="M354.88161,197.28274c-1.60162,-0.4812 -2.26009,-2.95791 -1.48329,-5.53289c0.8251,-2.58884 2.75545,-4.24046 4.35704,-3.75927c1.60162,0.4812 2.26009,2.95791 1.48329,5.53289c-0.77683,2.57503 -2.7416,4.28876 -4.35704,3.75927z" stroke="#001026" stroke-width="1.2" stroke-linecap="round" stroke-linejoin="round"/><path d="M358.25556,190.82632c0.15244,0.53118 -0.10915,1.07669 -0.59207,1.21528c-0.48293,0.1386 -0.99398,-0.18518 -1.14642,-0.71637c-0.15244,-0.53118 0.10915,-1.07669 0.59207,-1.21528c0.48293,-0.1386 0.99398,0.18518 1.14642,0.71637" stroke="none" stroke-width="1" stroke-linecap="butt" stroke-linejoin="miter"/></g><g><path d="M346.87445,195.60823c-0.83895,2.54059 -2.77601,4.3509 -4.59178,3.66981c-1.80192,-0.63279 -2.49526,-3.41309 -1.60803,-5.96752c0.83895,-2.54059 2.76973,-3.82641 4.62664,-3.36622c1.56718,0.54335 2.41215,3.12334 1.57317,5.66391z" fill="#ffffff" stroke="#001026" stroke-width="1.2" stroke-linecap="round" stroke-linejoin="round"/><path d="M345.78089,192.89055c0.15244,0.53118 -0.12302,1.0284 -0.59207,1.21528c-0.48293,0.1386 -0.99398,-0.18518 -1.14642,-0.71637c-0.15244,-0.53118 0.10915,-1.07669 0.59207,-1.21528c0.48293,-0.1386 0.99398,0.18518 1.14642,0.71637" fill="#001026" stroke="none" stroke-width="1" stroke-linecap="butt" stroke-linejoin="miter"/></g></g><path d="M345.96726,191.29898c0,0 0.11231,-0.10321 0.27712,-0.15255c-0.03662,-0.17511 -0.10304,-0.36967 -0.2239,-0.61733c-0.21946,-0.75694 -0.43684,-1.51445 -0.65424,-2.272l-0.23915,-0.43636c0,0 -0.28826,-0.55796 0.26969,-0.8462c0.55795,-0.28824 0.8462,0.26969 0.8462,0.26969l0.33056,0.66639c0.20786,0.72433 0.41595,1.44858 0.62156,2.17358c0.67483,1.44645 0.734,3.63708 0.68168,5.09763c-0.04224,1.17974 -1.08496,1.95248 -1.09965,3.22794c-0.00544,0.47209 0.46388,0.84944 0.51723,1.31854c0.02735,0.24038 -0.21504,0.46308 -0.18177,0.70275c0.17587,1.2668 0.53565,1.37484 0.00584,2.67302c0,0 -0.24183,0.57957 -0.8214,0.33775c-0.57957,-0.24183 -0.33775,-0.8214 -0.33775,-0.8214c0.66816,-1.55793 -0.39483,-2.67025 -0.43813,-4.19902c-0.02968,-1.04837 0.46377,-2.04505 0.99519,-2.85243c0.02113,-0.03212 0.0388,-0.0624 0.05335,-0.0911c-0.13269,-0.02202 -0.22753,-0.07455 -0.22753,-0.07455c-0.20077,-0.11123 -0.40149,-0.22246 -0.60224,-0.33367l-0.33287,-0.49307c0,0 -0.17324,-0.60363 0.43039,-0.77687c0.40352,-0.11581 0.61468,0.11556 0.71038,0.28168c0.00608,0.00338 0.01218,0.00673 0.01823,0.01009c0.06996,-0.11577 0.14128,-0.23136 0.15441,-0.36132c0.03626,-0.36025 -0.20678,-0.68729 -0.33316,-1.03362c-0.13405,0.13798 -0.30618,0.18736 -0.30618,0.18736l-0.7151,-1.0325c0.2004,-0.18414 0.40081,-0.36826 0.60122,-0.55239z" fill="#a00000" fill-rule="nonzero" stroke="none" stroke-width="0.5" stroke-linecap="butt" stroke-linejoin="miter"/><path d="M347.40187,186.01925c0.55795,-0.28824 0.8462,0.26969 0.8462,0.26969l0.2448,0.48439c0.15387,0.22546 0.30775,0.45094 0.46163,0.6764c0.30458,0.64323 1.00184,1.34402 1.11218,2.05407c0.09571,0.61584 -0.16222,1.46816 -0.18854,2.0989c-0.07292,1.74875 -0.09414,3.73316 0.07153,5.4659c0.14712,1.53877 1.1366,3.47827 1.57236,4.99668c0,0 0.17324,0.60363 -0.43039,0.77687c-0.60363,0.17324 -0.77687,-0.43039 -0.77687,-0.43039c-0.46489,-1.61996 -1.44637,-3.58105 -1.61609,-5.23123c-0.18343,-1.78364 -0.15214,-3.84017 -0.07521,-5.6349c0.0025,-0.05807 0.22118,-1.69652 0.20814,-1.81367c-0.05399,-0.48488 -0.7538,-1.21375 -0.96522,-1.65496c-0.1364,-0.19772 -0.2728,-0.39546 -0.40923,-0.59319l-0.3249,-0.61835c0,0 -0.28826,-0.55796 0.26969,-0.8462z" fill="#a00000" fill-rule="nonzero" stroke="none" stroke-width="0.5" stroke-linecap="butt" stroke-linejoin="miter"/><path d="M356.05842,176.62274c0.54934,0.30435 0.245,0.85369 0.245,0.85369l-0.26698,0.42008c0.33901,2.14131 0.68108,4.34614 0.91823,6.5065c0.18647,1.69853 1.59001,3.03379 -0.0167,4.43209c0,0 -0.49614,0.38503 -0.88117,-0.1111c-0.38503,-0.49613 0.1111,-0.88115 0.1111,-0.88115c0.75973,-0.45147 -0.03814,-1.7764 -0.23902,-2.4904c-0.68225,-2.42478 -0.91348,-5.19136 -1.12443,-7.70034l0.40034,-0.78442c0,0 0.30434,-0.54931 0.85369,-0.245z" fill="#a00000" fill-rule="nonzero" stroke="none" stroke-width="0.5" stroke-linecap="butt" stroke-linejoin="miter"/><path d="M357.65413,176.73319c0.60363,-0.17324 0.77687,0.43039 0.77687,0.43039l0.15457,0.56954c0.26224,2.28415 0.83548,4.46092 0.91462,6.76316c0.04938,1.43597 -0.44282,2.91763 -0.26636,4.32035c0,0 0.07164,0.62391 -0.55227,0.69554c-0.62391,0.07164 -0.69554,-0.55227 -0.69554,-0.55227c-0.15687,-1.47491 0.31007,-2.94827 0.25837,-4.44068c-0.07828,-2.2601 -0.64882,-4.39741 -0.90664,-6.64284l-0.11402,-0.36636c0,0 -0.17324,-0.60363 0.43039,-0.77687z" fill="#a00000" fill-rule="nonzero" stroke="none" stroke-width="0.5" stroke-linecap="butt" stroke-linejoin="miter"/><path d="M342.97647,196.15081c0.5629,-0.27842 0.84134,0.28449 0.84134,0.28449l0.04644,0.09389c0.71006,1.84444 0.64146,1.91934 -1.03913,2.72505c0,0 -0.56693,0.27013 -0.83706,-0.29685c-0.27013,-0.56693 0.29685,-0.83706 0.29685,-0.83706c0.309,-0.14618 1.04283,-0.01239 0.96559,-0.34539c-0.06463,-0.27872 -0.34139,-0.45929 -0.51209,-0.68892l-0.04644,-0.09389c0,0 -0.27842,-0.5629 0.28449,-0.84134z" fill="#a00000" fill-rule="nonzero" stroke="none" stroke-width="0.5" stroke-linecap="butt" stroke-linejoin="miter"/><path d="M343.00293,194.00032c0.17324,0.60363 -0.43039,0.77687 -0.43039,0.77687l-0.11702,0.03356c-0.46797,0.13429 -0.93593,0.26859 -1.40389,0.40288c0,0 -0.60363,0.17324 -0.77687,-0.43039c-0.17324,-0.60363 0.43039,-0.77687 0.43039,-0.77687c0.46794,-0.1343 1.05293,-0.30216 1.52084,-0.43647c0,0 0.60363,-0.17324 0.77687,0.43039z" fill="#a00000" fill-rule="nonzero" stroke="none" stroke-width="0.5" stroke-linecap="butt" stroke-linejoin="miter"/><path d="M344.24967,191.95191c-0.30436,0.54933 -0.85369,0.245 -0.85369,0.245l-0.47367,-0.65929c0.01084,-0.25637 0.02168,-0.51274 0.03254,-0.76907c0,0 0.02656,-0.62744 0.65401,-0.60088c0.62744,0.02654 0.60089,0.65398 0.60089,0.65398c-0.00609,0.14442 -0.01222,0.28885 -0.01832,0.43327c0.12411,0.14221 0.23476,0.37839 0.05825,0.69703z" fill="#a00000" fill-rule="nonzero" stroke="none" stroke-width="0.5" stroke-linecap="butt" stroke-linejoin="miter"/><path d="M322.57838,170.59533c0.37899,-0.50075 0.87973,-0.12179 0.87973,-0.12179l0.03466,0.24409c0.37302,-0.04166 0.73214,-0.11433 1.09073,-0.18897c0.07276,-0.09084 0.14655,-0.14145 0.14655,-0.14145c0.19347,-0.13119 0.37049,-0.29073 0.58038,-0.39358c0.07994,-0.03916 0.2984,0.06183 0.26623,-0.02116c-0.09583,-0.24695 -0.62312,-0.36901 -0.51069,-0.60888c0.20587,-0.43927 0.76499,-0.60361 1.18925,-0.83884c0.23831,-0.13212 0.93576,0.15088 0.81226,-0.092c-0.09904,-0.19473 -0.48679,-0.31652 -0.40185,-0.51781c0.35916,-0.85128 1.69277,-1.569 2.40451,-0.38589c0.20754,0.34502 -0.2415,0.76817 -0.36228,1.1523l-0.49309,0.33288c0,0 -0.1172,0.03363 -0.26312,0.01962c-0.11693,0.14303 -0.27948,0.29194 -0.49461,0.43929c-0.22126,0.15156 -0.50337,0.20892 -0.7706,0.2313c-0.13438,0.01122 -0.45473,-0.24804 -0.38145,-0.13484c0.11559,0.17849 0.55384,0.1486 0.52697,0.35958c-0.03724,0.29224 -0.19285,0.53715 -0.39831,0.74845c0.02098,0.05441 0.03645,0.11684 0.04465,0.18836c0.07164,0.62391 -0.55227,0.69554 -0.55227,0.69554c-0.7834,0.08748 -1.50546,0.3117 -2.28994,0.40391l-0.93588,-0.49039c0,0 -0.50075,-0.37899 -0.12179,-0.87973z" fill="#a00000" fill-rule="nonzero" stroke="none" stroke-width="0.5" stroke-linecap="butt" stroke-linejoin="miter"/><path d="M322.50837,166.62418c0.30436,-0.54933 0.85369,-0.245 0.85369,-0.245l0.57585,0.34045c0.17293,0.1614 0.34588,0.32281 0.51884,0.48423c0,0 0.45912,0.42851 0.03063,0.8876c-0.42851,0.45912 -0.8876,0.03063 -0.8876,0.03063c-0.17295,-0.16141 -0.3459,-0.32284 -0.51884,-0.48423l-0.32753,-0.16003c0,0 -0.54933,-0.30436 -0.245,-0.85369z" fill="#a00000" fill-rule="nonzero" stroke="none" stroke-width="0.5" stroke-linecap="butt" stroke-linejoin="miter"/><path d="M323.70494,163.84963l0.31844,0.66837c0,0 0.27013,0.56693 -0.29685,0.83706c-0.56693,0.27013 -0.83706,-0.29685 -0.83706,-0.29685l-0.31844,-0.66837c0,0 -0.27013,-0.56693 0.29685,-0.83706c0.56693,-0.27013 0.83706,0.29685 0.83706,0.29685z" fill="#a00000" fill-rule="nonzero" stroke="none" stroke-width="0.5" stroke-linecap="butt" stroke-linejoin="miter"/><path d="M317.57557,167.06999c0.11499,-0.61738 0.73239,-0.50239 0.73239,-0.50239l0.58103,0.20812c0.17295,0.16141 0.3459,0.32284 0.51884,0.48423c0,0 0.13933,0.13004 0.19284,0.3236c0.2316,0.03848 0.43206,0.20581 0.50116,0.44649c0.09566,0.3334 -0.09702,0.6812 -0.43039,0.77687c-0.3334,0.09566 -0.6812,-0.09702 -0.77687,-0.43039c-0.0027,-0.0094 -0.00516,-0.01883 -0.00739,-0.02823c-0.19688,-0.04002 -0.3363,-0.17013 -0.3363,-0.17013c-0.17295,-0.16141 -0.3459,-0.32284 -0.51884,-0.48423l0.04593,0.10843c0,0 -0.61737,-0.11502 -0.50239,-0.73239z" fill="#a00000" fill-rule="nonzero" stroke="none" stroke-width="0.5" stroke-linecap="butt" stroke-linejoin="miter"/><path d="M327.61139,168.83182c0.54933,0.30436 0.245,0.85369 0.245,0.85369l-0.24774,0.34234c-0.00794,0.00616 -0.01587,0.01232 -0.02383,0.01847c0.11592,0.1383 0.30424,0.45456 0.00182,0.81121c-0.40616,0.47896 -0.88515,0.07282 -0.88515,0.07282l-0.23288,-0.21346c-0.40446,-0.22733 -0.76415,-0.35644 -0.92687,-0.58905c-0.09843,-0.00418 -0.19337,-0.03161 -0.27763,-0.07826l-0.60225,-0.33368v0c-0.1406,-0.07789 -0.25146,-0.20939 -0.29932,-0.3761c-0.06784,-0.23638 0.00931,-0.48002 0.17878,-0.63589l-0.27171,-0.33302c-0.05657,-0.06622 -0.10022,-0.14533 -0.12583,-0.23453c-0.09566,-0.3334 0.09702,-0.6812 0.43039,-0.77687c0.10139,-0.02912 0.20411,-0.0315 0.30066,-0.0114l0.79024,0.1472l-0.00135,0.00728l0.02496,-0.00241c0.50333,0.13721 0.99575,0.32993 1.45364,0.57994c0,0 0.43801,0.24266 0.3151,0.68573c0.04891,0.01474 0.10024,0.03633 0.15389,0.06605zM326.5784,169.19981c0.00712,0.00703 0.01426,0.01403 0.02139,0.02106c0.00354,-0.00275 0.00708,-0.00551 0.01063,-0.00826c-0.01191,-0.00445 -0.02264,-0.0088 -0.03204,-0.01282z" fill="#ffffff" fill-rule="nonzero" stroke="none" stroke-width="0.5" stroke-linecap="butt" stroke-linejoin="miter"/><path d="M345.30137,187.02163c-0.22361,0.58685 -0.81043,0.36326 -0.81043,0.36326l-0.20915,-0.46593c-0.02913,0.19051 -0.06457,0.36618 -0.09684,0.49382c0,0 -0.16201,0.60673 -0.76876,0.44473c-0.60672,-0.16202 -0.44473,-0.76876 -0.44473,-0.76876c0.36403,-1.26814 -0.428,-3.14143 1.74293,-2.08562c0.2071,0.1007 0.33875,0.31128 0.50516,0.47127l0.55106,0.30531l-0.1224,0.22091l0.41734,0.51613c-0.21316,0.068 -0.42733,0.13585 -0.63952,0.20895l-0.02314,0.22817l-0.07661,-0.00778c-0.00684,0.0245 -0.01513,0.04967 -0.02498,0.07555z" fill="#8da900" fill-rule="nonzero" stroke="none" stroke-width="0.5" stroke-linecap="butt" stroke-linejoin="miter"/><path d="M352.7664,183.68309c0,0 -0.30166,0.54447 -0.8464,0.24899c-0.05657,0.20334 -0.21427,0.37342 -0.43203,0.43589c-0.16668,0.04782 -0.33699,0.02359 -0.47758,-0.0543v0l-0.30415,-0.16851c-0.1466,0.02592 -0.28641,0.07213 -0.41391,0.1484l-0.39033,0.43643c0,0 -0.36037,0.38612 -0.77424,0.11969c-0.12657,0.11642 -0.37497,0.27224 -0.68961,0.10662c-0.30113,0.35559 -0.73027,0.80828 -0.85862,0.94668l-0.40288,0.20871c0,0 -0.16343,0.04688 -0.34461,0.00684c0.00185,0.06393 0.00088,0.12726 -0.00543,0.18938c0,0 -0.06335,0.62479 -0.68813,0.56144c-0.62481,-0.06333 -0.56144,-0.68813 -0.56144,-0.68813c0.00998,-0.09836 0.03304,-0.34553 0.06205,-0.61468c-0.12165,-0.07956 -0.21638,-0.20151 -0.25963,-0.35217c-0.03612,-0.12586 -0.03115,-0.25376 0.00698,-0.36937c-0.07804,-0.22873 0.02519,-0.43589 0.09645,-0.54208c-0.00358,-0.0013 -0.00714,-0.00261 -0.01071,-0.00398c-0.27655,0.00411 -0.53264,-0.17625 -0.6126,-0.45487c-0.09566,-0.3334 0.09702,-0.6812 0.43039,-0.77687c0.14426,-0.0414 0.29124,-0.02882 0.41933,0.02583c0.13029,-0.00868 0.26226,-0.0096 0.39434,-0.00269c0.02279,-0.00876 0.04688,-0.01686 0.07238,-0.02417c0.28294,-0.08121 0.47133,0.0083 0.59165,0.12629c0.2106,0.05482 0.4146,0.13085 0.60519,0.22812l0.07822,-0.0182c0,0 0.22133,0.04122 0.37424,0.20683c0.18149,0.02491 0.35134,0.08877 0.49794,0.20131c0.26031,-0.61638 -0.16907,-1.47819 0.41946,-1.93457c0.82043,-0.63623 1.8774,0.25142 2.47706,0.80192c0.12045,-0.19702 0.23759,-0.39568 0.32984,-0.60687c0.14507,-0.33216 0.04171,-0.87699 0.37434,-1.02091c0.40258,-0.1742 1.47523,0.49685 1.86476,0.71579l0.04242,0.06701l0.01688,-0.01811l0.51131,0.4772c0.08433,0.07602 0.14909,0.17579 0.1827,0.29293c0.09566,0.3334 -0.09702,0.6812 -0.43039,0.77687c-0.03254,0.00933 -0.06523,0.01592 -0.09782,0.01991l-0.8418,0.11654l-0.00203,-0.01471c-0.20251,0.07139 -0.40658,0.13804 -0.61281,0.19774l0.20926,0.00183zM349.81063,183.15162c0.01132,-0.00619 0.0226,-0.01241 0.03391,-0.0187c-0.0158,-0.01413 -0.03133,-0.02802 -0.04652,-0.04163c0.00479,0.01938 0.00897,0.03954 0.01257,0.06033z" fill="#8da900" fill-rule="nonzero" stroke="none" stroke-width="0.5" stroke-linecap="butt" stroke-linejoin="miter"/><path d="M349.10141,181.33006c-0.91893,0.99429 -1.19941,1.05802 -2.05489,0.84189c-0.25781,0.3371 -0.93733,0.32244 -1.53355,0.19384l-0.09912,0.31757c-0.55002,0.23529 -1.20225,0.30522 -1.78615,0.17514c0,0 -0.60672,-0.16202 -0.44474,-0.76878c0.16202,-0.60675 0.76878,-0.44474 0.76878,-0.44474c0.02729,0.00962 0.05518,0.01795 0.08357,0.02504c0.0304,-0.23829 0.19687,-0.44773 0.44046,-0.5217c0.13966,-0.19775 0.31641,-0.25127 0.46862,-0.25025l0.51119,-0.27537c0.18872,0.01217 0.41593,-0.04225 0.62869,-0.07168c0.22898,-0.56264 0.80287,-0.34397 0.80287,-0.34397l0.17184,0.19987c0.48467,-0.13744 0.99221,-0.24323 1.50113,-0.28543l-0.02925,-0.25469l0.72524,-0.08329c0.30337,-0.04031 0.59858,0.1465 0.68553,0.44951c0.07794,0.27154 -0.03547,0.55266 -0.26035,0.69929l-0.57991,0.39779z" fill="#8da900" fill-rule="nonzero" stroke="none" stroke-width="0.5" stroke-linecap="butt" stroke-linejoin="miter"/><path d="M343.0128,184.85226c0.24183,-0.57957 0.8214,-0.33775 0.8214,-0.33775l1.09594,0.77098c-0.26494,0.3745 -0.52992,0.74903 -0.79485,1.12353c0,0 -0.46246,0.4249 -0.88731,-0.03754c-0.30083,-0.32743 -0.15683,-0.63603 -0.04712,-0.78834c-0.15265,-0.11683 -0.34632,-0.3515 -0.18804,-0.73089z" fill="#a00000" fill-rule="nonzero" stroke="none" stroke-width="0.5" stroke-linecap="butt" stroke-linejoin="miter"/><path d="M344.27459,184.01195c-0.17324,-0.60363 0.43039,-0.77687 0.43039,-0.77687l0.23398,-0.06714c0.29696,-0.08094 0.60872,-0.08662 0.92059,-0.04585l0.01792,-0.17675l0.63755,0.06462c0.25382,0.0198 0.4805,0.19394 0.55484,0.45304c0.07438,0.25912 -0.02548,0.52692 -0.23017,0.67832l-0.50626,0.39287l-0.02752,-0.03546l-0.07325,0.09933c-0.27097,0.08168 -0.54197,0.16341 -0.81295,0.24509c0,0 -0.58971,0.16923 -0.77067,-0.40967c-0.14967,-0.04889 -0.3009,-0.16513 -0.37448,-0.42153z" fill="#a00000" fill-rule="nonzero" stroke="none" stroke-width="0.5" stroke-linecap="butt" stroke-linejoin="miter"/><path d="M346.68921,181.71952c0.02656,-0.62744 0.65401,-0.60088 0.65401,-0.60088l0.35726,0.01572c0.17024,0.0065 0.35602,-0.03082 0.53602,-0.05184c0.10651,-0.28428 0.42782,-0.37651 0.42782,-0.37651l0.9359,-0.26859c0.10198,-0.02927 0.20534,-0.03156 0.30237,-0.01106c0.01722,-0.0082 0.03455,-0.01635 0.05191,-0.02444l0.23262,-0.12025c0,0 0.55795,-0.28824 0.8462,0.2697c0.06821,0.13206 0.08906,0.249 0.08107,0.3506c-0.00603,0.26542 -0.19873,0.4228 -0.31629,0.49431c0.09204,0.07756 0.16284,0.18235 0.19854,0.30674c0.07438,0.25912 -0.02548,0.52692 -0.23017,0.67832l-0.50626,0.39287l-0.01464,-0.01884l-0.04095,0.05734c-0.5649,0.27035 -1.15894,0.48201 -1.76053,0.65602c0,0 -0.60363,0.17324 -0.77687,-0.43039c-0.01108,-0.03864 -0.01897,-0.07547 -0.02408,-0.11063c-0.06597,-0.04369 -0.12934,-0.10673 -0.18549,-0.19569c-0.1053,-0.07921 -0.18668,-0.19204 -0.22585,-0.32847c-0.00367,-0.01274 -0.0069,-0.02551 -0.00972,-0.03831c-0.16165,-0.02779 -0.55403,-0.1468 -0.53293,-0.64571z" fill="#a00000" fill-rule="nonzero" stroke="none" stroke-width="0.5" stroke-linecap="butt" stroke-linejoin="miter"/><path d="M352.12517,180.85237c0.3334,-0.09566 0.6812,0.09702 0.77687,0.43039c0.09566,0.3334 -0.09702,0.6812 -0.43039,0.77687c-0.3334,0.09566 -0.6812,-0.09702 -0.77687,-0.43039c-0.09566,-0.3334 0.09702,-0.6812 0.43039,-0.77687z" fill="#a00000" fill-rule="nonzero" stroke="none" stroke-width="0.5" stroke-linecap="butt" stroke-linejoin="miter"/><path d="M346.81586,183.15641c-0.0865,-0.30141 0.02069,-0.49552 0.14973,-0.61431c0.00055,-0.01343 0.00148,-0.0268 0.00286,-0.04008c-0.09275,0.03204 -0.19097,0.05652 -0.29609,0.07085c-0.22664,0.03089 -0.4609,-0.00863 -0.6923,-0.03213c-0.65577,0.19292 -1.31506,0.36643 -1.94995,0.54866l-0.81893,0.23501c-0.3334,0.09566 -0.6812,-0.09702 -0.77687,-0.43039c-0.08695,-0.30297 0.06428,-0.6179 0.34284,-0.74461l0.50952,-0.24277c-0.05499,-0.36033 0.28105,-0.59084 0.28105,-0.59084c1.94084,-1.33131 3.58553,-1.57278 5.8655,-1.83455l0.72524,-0.08329c0.30337,-0.04031 0.59858,0.1465 0.68553,0.44951c0.02599,0.09056 0.03069,0.18218 0.01709,0.26952c0.19068,-0.00928 0.50762,0.04188 0.62549,0.45247c0.10901,0.3799 -0.08962,0.58929 -0.2519,0.69236c-0.00216,0.0073 -0.00444,0.01466 -0.00691,0.02211c0.09666,0.16047 0.21593,0.48128 -0.11259,0.78311c-0.46246,0.42489 -0.88734,-0.03754 -0.88734,-0.03754c-0.07226,-0.11796 -0.17772,-0.22884 -0.27966,-0.34046c-0.0577,0.13223 -0.17482,0.25863 -0.40231,0.32393c-0.54906,0.15756 -0.74205,-0.32761 -0.77244,-0.41664c-0.11545,-0.006 -0.22245,0.0078 -0.32383,0.03613c-0.05199,0.02515 -0.10426,0.04991 -0.1568,0.07425c-0.00922,0.09367 -0.03944,0.18334 -0.08717,0.26261c0.03286,0.25153 0.08482,0.5009 0.1562,0.74349l-0.76916,0.87408c0,0 -0.60363,0.17324 -0.77687,-0.43039zM349.10989,181.66505c-0.0885,-0.03064 -0.17212,-0.05044 -0.25167,-0.06092z" fill="#000000" fill-rule="nonzero" stroke="none" stroke-width="0.5" stroke-linecap="butt" stroke-linejoin="miter"/><path d="M349.22867,181.87735l-0.63861,0.32994" fill="none" fill-rule="nonzero" stroke="#001026" stroke-width="1.2" stroke-linecap="round" stroke-linejoin="miter"/><path d="M348.19356,182.61436l1.99302,-1.23191" fill="none" fill-rule="nonzero" stroke="#a00000" stroke-width="1.2" stroke-linecap="round" stroke-linejoin="miter"/><path d="M348.38559,181.23933l-0.2686,2.13032" fill="none" fill-rule="nonzero" stroke="#000000" stroke-width="1.2" stroke-linecap="round" stroke-linejoin="miter"/><path d="M349.14026,180.80276l2.06436,1.82745" fill="none" fill-rule="nonzero" stroke="#000000" stroke-width="1.2" stroke-linecap="round" stroke-linejoin="miter"/><path d="M338.80789,179.58699c0.1055,0.61905 -0.51358,0.72459 -0.51358,0.72459l-0.69499,0.11491c-0.02125,-0.01966 -0.04248,-0.03932 -0.06373,-0.05896l-0.00252,0.05966l-0.65361,-0.02765c-0.20258,-0.00383 -0.3919,-0.10625 -0.50611,-0.27299c-0.78334,-0.16314 -1.7534,-0.97693 -1.16292,-2.01008c0.59397,-1.03921 2.95309,-0.91374 3.28168,0.36203c0.05933,0.23032 0.03592,0.44328 -0.04614,0.63312c0.1558,0.05884 0.3133,0.19026 0.36188,0.47534z" fill="#a00000" fill-rule="nonzero" stroke="none" stroke-width="0.5" stroke-linecap="butt" stroke-linejoin="miter"/><path d="M336.71771,178.65467c0.3334,-0.09566 0.6812,0.09702 0.77687,0.43039c0.09566,0.3334 -0.09702,0.6812 -0.43039,0.77687c-0.3334,0.09566 -0.6812,-0.09702 -0.77687,-0.43039c-0.09566,-0.3334 0.09702,-0.6812 0.43039,-0.77687z" fill="#ffffff" fill-rule="nonzero" stroke="none" stroke-width="0.5" stroke-linecap="butt" stroke-linejoin="miter"/><path d="M348.17351,182.0335l1.7609,-1.01867l0.78535,0.94791" fill="none" fill-rule="nonzero" stroke="#000000" stroke-width="1.2" stroke-linecap="round" stroke-linejoin="miter"/><path d="M337.09431,174.06692c-0.09566,-0.3334 0.09702,-0.6812 0.43039,-0.77687c0.038,-0.01092 0.07619,-0.01805 0.11414,-0.02167c-0.13815,-0.07822 -0.24692,-0.20857 -0.29421,-0.37324c-0.09566,-0.3334 0.09702,-0.6812 0.43039,-0.77687c0.1113,-0.03195 0.22422,-0.03177 0.32883,-0.00488c0.00715,-0.26649 0.18484,-0.50918 0.45471,-0.5866c0.05238,-0.01503 0.10512,-0.02294 0.15714,-0.02433c-0.02879,-0.29563 0.15626,-0.57892 0.452,-0.6638c0.3334,-0.09566 0.6812,0.09702 0.77687,0.43039c0.00743,0.02592 0.01313,0.05191 0.01713,0.07789c0.31497,-0.05939 0.62909,0.12984 0.71927,0.44408c0.09566,0.3334 -0.09702,0.6812 -0.43039,0.77687c-0.02592,0.00743 -0.05192,0.01312 -0.07789,0.01716c0.05939,0.31497 -0.12984,0.62909 -0.44408,0.71927c-0.05792,0.01665 -0.11629,0.02452 -0.17371,0.02453c-0.00324,0.27009 -0.1819,0.5175 -0.45489,0.59585c-0.08097,0.02324 -0.16276,0.02947 -0.2416,0.0208c0.00702,0.27901 -0.17396,0.53845 -0.45476,0.61903c-0.06599,0.01894 -0.13254,0.02656 -0.19761,0.02407c-0.02935,0.24305 -0.20031,0.45675 -0.45045,0.52857c-0.3334,0.09566 -0.6812,-0.09702 -0.77687,-0.43039c-0.06053,-0.21095 -0.00562,-0.42766 0.12736,-0.58265c-0.00432,-0.01217 -0.00826,-0.02453 -0.01189,-0.03712zM338.1215,173.32548c-0.038,0.01092 -0.07619,0.01805 -0.11414,0.02167c0.00943,0.00534 0.01872,0.01092 0.02784,0.01674c0.00728,-0.00237 0.01463,-0.00462 0.02201,-0.00674c0.08097,-0.02324 0.16276,-0.02947 0.2416,-0.0208c-0.00084,-0.0326 0.00093,-0.06492 0.00508,-0.09674c-0.05438,0.03735 -0.11557,0.06669 -0.18246,0.08589zM338.65663,172.75397c-0.02721,-0.00327 -0.05406,-0.00839 -0.08038,-0.0151c-0.00058,0.02163 -0.00227,0.04311 -0.00507,0.06437c0.02688,-0.01844 0.05537,-0.03494 0.08544,-0.04922zM339.4566,172.05951c-0.03329,0.00626 -0.06656,0.00979 -0.09955,0.01065c0.00109,0.01129 0.00188,0.02257 0.00238,0.03381c0.00753,-0.00245 0.01511,-0.0048 0.02278,-0.00702c0.02592,-0.00743 0.05191,-0.01313 0.07789,-0.01713c-0.00129,-0.00677 -0.00244,-0.01355 -0.00349,-0.0203z" fill="#e93e3e" fill-rule="nonzero" stroke="none" stroke-width="0.5" stroke-linecap="butt" stroke-linejoin="miter"/><path d="M328.66441,176.63275c-0.09566,-0.3334 0.09702,-0.6812 0.43039,-0.77687c0.08822,-0.02532 0.17744,-0.03046 0.26276,-0.01811c0.07915,-0.10474 0.19166,-0.18566 0.32756,-0.22463c0.13923,-0.03998 0.28096,-0.02961 0.40582,0.02027c0.07603,-0.15101 0.21246,-0.27104 0.38773,-0.32134c0.16439,-0.04719 0.33223,-0.02424 0.47166,0.05108c0.05078,-0.21341 0.21208,-0.39395 0.43795,-0.45877c0.17758,-0.05095 0.35926,-0.02011 0.50475,0.07027c0.0623,-0.1919 0.21578,-0.35038 0.42432,-0.41022c0.26357,-0.07565 0.53616,0.02896 0.68603,0.24082c0.07957,-0.11318 0.19691,-0.2009 0.34024,-0.24203c0.17736,-0.0509 0.35879,-0.02018 0.50417,0.06991c0.01597,-0.25784 0.19126,-0.48949 0.45374,-0.56479c0.13923,-0.03998 0.28096,-0.02961 0.40582,0.02027c0.07605,-0.151 0.21246,-0.27104 0.38773,-0.32134c0.07132,-0.02047 0.14329,-0.02773 0.2133,-0.02325c0.057,-0.04092 0.12186,-0.07295 0.19318,-0.09341c0.05498,-0.01577 0.11033,-0.0237 0.16488,-0.02446c0.07561,-0.08271 0.17429,-0.1462 0.28993,-0.17937c0.19513,-0.05599 0.39522,-0.01321 0.5468,0.0988c0.07738,-0.0911 0.18156,-0.16114 0.3051,-0.1966c0.3334,-0.09566 0.6812,0.09702 0.77687,0.43039c0.09566,0.3334 -0.09702,0.6812 -0.43039,0.77687c-0.19513,0.05599 -0.39522,0.01321 -0.5468,-0.0988c-0.07738,0.0911 -0.18156,0.16114 -0.3051,0.1966c-0.05498,0.01577 -0.11033,0.0237 -0.16488,0.02446c-0.07563,0.08271 -0.17429,0.1462 -0.28993,0.17937c-0.07132,0.02047 -0.14331,0.02775 -0.21331,0.02326c-0.057,0.04092 -0.12186,0.07293 -0.1932,0.09339c-0.13923,0.03998 -0.28096,0.02961 -0.40582,-0.02027c-0.07605,0.15099 -0.21245,0.27101 -0.38772,0.32133c-0.17736,0.0509 -0.35879,0.02018 -0.50417,-0.06991c-0.01599,0.25784 -0.19126,0.48949 -0.45374,0.56479c-0.26357,0.07563 -0.53616,-0.02896 -0.68603,-0.24082c-0.07957,0.11318 -0.19691,0.2009 -0.34024,0.24203c-0.17758,0.05095 -0.35926,0.02011 -0.50475,-0.07027c-0.0623,0.1919 -0.21578,0.35038 -0.42432,0.41022c-0.16439,0.04719 -0.33223,0.02422 -0.47166,-0.05108c-0.05078,0.21339 -0.21208,0.39395 -0.43795,0.45877c-0.13923,0.03998 -0.28096,0.02961 -0.40582,-0.02027c-0.07605,0.15099 -0.21246,0.27104 -0.38773,0.32134c-0.08822,0.02532 -0.17744,0.03046 -0.26276,0.01811c-0.07915,0.10474 -0.19166,0.18566 -0.32756,0.22463c-0.3334,0.09566 -0.6812,-0.09702 -0.77687,-0.43039z" fill="#e93e3e" fill-rule="nonzero" stroke="none" stroke-width="0.5" stroke-linecap="butt" stroke-linejoin="miter"/><path d="M340.76668,172.0663c0.3334,-0.09566 0.6812,0.09702 0.77687,0.43039c0.0902,0.31423 -0.07581,0.64124 -0.37432,0.75792c0.01035,0.02416 0.01934,0.04921 0.02676,0.07512c0.09566,0.3334 -0.09702,0.6812 -0.43039,0.77687c-0.12904,0.03701 -0.26025,0.03085 -0.37815,-0.00996c0.00577,0.0154 0.01098,0.03118 0.0156,0.0473c0.09566,0.3334 -0.09702,0.6812 -0.43039,0.77687c-0.11991,0.03442 -0.24169,0.03151 -0.35291,-0.00181c-0.0304,0.24183 -0.20096,0.45408 -0.45006,0.52557c-0.08823,0.02533 -0.17747,0.03044 -0.26282,0.01807c-0.02016,0.25346 -0.19416,0.47972 -0.45298,0.55397c-0.3334,0.09566 -0.6812,-0.09702 -0.77687,-0.43039c-0.09566,-0.3334 0.09702,-0.6812 0.43039,-0.77687c0.08823,-0.02533 0.17747,-0.03044 0.26282,-0.01807c0.02016,-0.25346 0.19416,-0.47972 0.45298,-0.55397c0.1199,-0.03441 0.24168,-0.03152 0.35291,0.00181c0.0304,-0.24183 0.20097,-0.45408 0.45006,-0.52557c0.12904,-0.03701 0.26025,-0.03085 0.37815,0.00996c-0.00577,-0.0154 -0.01098,-0.03118 -0.0156,-0.0473c-0.0902,-0.31423 0.07583,-0.64124 0.37434,-0.75791c-0.01036,-0.02417 -0.01933,-0.04921 -0.02676,-0.07513c-0.09566,-0.3334 0.09702,-0.6812 0.43039,-0.77687z" fill="#e93e3e" fill-rule="nonzero" stroke="none" stroke-width="0.5" stroke-linecap="butt" stroke-linejoin="miter"/><path d="M326.45565,177.13596c0.06665,-0.01915 0.13622,0.01939 0.15538,0.08607c0.01915,0.06665 -0.01939,0.13622 -0.08607,0.15538c-0.06665,0.01915 -0.13622,-0.01939 -0.15538,-0.08607c-0.01915,-0.06665 0.01939,-0.13622 0.08607,-0.15538z" fill="#a00000" fill-rule="nonzero" stroke="none" stroke-width="0.5" stroke-linecap="butt" stroke-linejoin="miter"/><path d="M327.84234,179.2894c0.0958,0.08123 0.01456,0.17702 0.01456,0.17702l-0.0038,0.0045c-0.10831,0.12772 -0.21662,0.25546 -0.32491,0.38317c0,0 -0.08123,0.0958 -0.17702,0.01456c-0.0958,-0.08123 -0.01456,-0.17702 -0.01456,-0.17702c0.10833,-0.12772 0.22041,-0.25992 0.32873,-0.38767c0,0 0.08123,-0.0958 0.17702,-0.01456z" fill="#a00000" fill-rule="nonzero" stroke="none" stroke-width="0.5" stroke-linecap="butt" stroke-linejoin="miter"/><path d="M326.18821,179.10325c-0.0328,-0.11429 -0.00912,-0.2314 0.0545,-0.32149c-0.10916,-0.01335 -0.24103,-0.07286 -0.29724,-0.2688c-0.10394,-0.36221 0.25824,-0.46614 0.25824,-0.46614l0.07738,-0.01688c0.03914,-0.01829 0.07705,-0.03709 0.11399,-0.05632c0.00103,-0.04427 0.00989,-0.08748 0.02563,-0.12783c-0.03774,0.00648 -0.0933,0.00166 -0.12864,-0.0667c-0.0115,-0.02227 -0.01628,-0.04237 -0.01651,-0.06033c-0.00466,-0.00885 -0.00877,-0.01892 -0.01203,-0.03042c-0.03465,-0.12075 0.08607,-0.15538 0.08607,-0.15538l0.06775,-0.01945c0.0608,-0.01504 0.12529,-0.02169 0.18978,-0.01981c0.07528,-0.03087 0.15462,-0.0626 0.23315,-0.09567c-0.00186,-0.00659 -0.00385,-0.01332 -0.00593,-0.02018l0.05918,-0.18271c0,0 0.00964,-0.01739 0.02813,-0.0345c-0.00419,-0.00777 -0.00759,-0.01612 -0.01013,-0.02495c-0.01915,-0.06665 0.01939,-0.13622 0.08607,-0.15538c0.03265,-0.00935 0.066,-0.0049 0.09377,0.00992c-0.00059,-0.00483 -0.00092,-0.00966 -0.00094,-0.01446c-0.0134,-0.01847 -0.02399,-0.04292 -0.02175,-0.07296c-0.00516,-0.00881 -0.00929,-0.01842 -0.01224,-0.0287c-0.01915,-0.06665 0.01939,-0.13622 0.08607,-0.15538c0.05098,-0.01463 0.10361,0.00444 0.13413,0.044c0.0032,0.00034 0.0064,0.00077 0.00954,0.00132c0.04576,0.0081 0.08521,0.04139 0.0989,0.08907c0.00092,0.00318 0.0017,0.00636 0.00234,0.00953c0.0523,0.02392 0.10498,0.04574 0.15771,0.0674c0.04911,-0.04512 0.09824,-0.09026 0.14737,-0.1354c0,0 0.09249,-0.08499 0.17746,0.00752c0.05622,0.06122 0.03473,0.11912 0.01378,0.15131c0.01539,0.01755 0.0299,0.03534 0.04353,0.05333c0.05968,-0.01714 0.11942,-0.03429 0.17908,-0.0514l-0.02368,-0.0825c0,0 -0.01414,-0.04927 0.00712,-0.0939c-0.03655,0.00359 -0.10788,-0.00163 -0.13322,-0.08991c-0.03465,-0.12075 0.08607,-0.15538 0.08607,-0.15538l0.06775,-0.01945c0.06775,-0.01945 0.13547,-0.03888 0.20326,-0.05833c0,0 0.12075,-0.03465 0.15538,0.08607c0.03465,0.12075 -0.08607,0.15538 -0.08607,0.15538c-0.02863,0.0082 -0.06938,0.01992 -0.112,0.03215c0.03961,0.02689 0.05314,0.07406 0.05314,0.07406l0.01739,0.06062l0.06099,0.00509c0.00026,0.00028 0.00054,0.00059 0.00079,0.00087c0.05417,-0.01555 0.10832,-0.03107 0.16251,-0.04664c0,0 0.12075,-0.03465 0.15538,0.08607c0.03465,0.12075 -0.08607,0.15538 -0.08607,0.15538c-0.0299,0.00857 -0.06049,0.01737 -0.09167,0.02631c-0.00371,0.02294 -0.01569,0.04754 -0.0418,0.07155c-0.04057,0.0373 -0.07973,0.04042 -0.11087,0.03217c0.04749,0.07762 0.06437,0.14812 0.06281,0.21028c0.10749,0.04064 0.19514,0.12972 0.22925,0.24866c0.05741,0.20004 -0.05822,0.40873 -0.25824,0.46614c-0.10036,0.02878 -0.2029,0.01404 -0.28745,-0.03309c-0.00451,0.00187 -0.00917,0.00352 -0.01398,0.00491c-0.06665,0.01915 -0.13622,-0.01939 -0.15538,-0.08607c-0.00521,-0.01813 -0.00612,-0.03646 -0.00341,-0.05396c-0.08206,0.10385 -0.20788,0.13994 -0.20788,0.13994c-0.16059,0.04225 -0.30032,0.10784 -0.43295,0.18398c0.01488,0.00104 0.02946,-0.00136 0.04338,-0.00824c0,0 0.08214,-0.02357 0.13035,0.03593c0.03077,-0.00885 0.06155,-0.01767 0.09234,-0.0265l-0.02691,-0.02733c0,0 0.06088,-0.10987 0.17074,-0.04899c0.10987,0.06088 0.04899,0.17074 0.04899,0.17074l-0.12353,0.14707c-0.11292,0.0324 -0.22584,0.0648 -0.33874,0.09723c0,0 -0.12075,0.03465 -0.15538,-0.08607c-0.00733,-0.02552 -0.00769,-0.04721 -0.00375,-0.0655c-0.02578,-0.012 -0.05095,-0.02559 -0.07525,-0.04022c-0.12096,0.07892 -0.24304,0.16023 -0.37747,0.23332c0.09591,0.04436 0.17273,0.1286 0.20415,0.23813c0.05741,0.20004 -0.05822,0.40873 -0.25824,0.46614c-0.20004,0.05741 -0.40873,-0.05822 -0.46614,-0.25824zM327.25077,177.09578c-0.03265,0.00935 -0.066,0.0049 -0.09377,-0.00992c0.00231,0.01867 0.00031,0.0372 -0.0053,0.05434c0.00494,0.0041 0.00956,0.00862 0.01384,0.01347l0.05286,0.05754c0.04804,-0.03051 0.09048,-0.06226 0.125,-0.09554c-0.02278,-0.00965 -0.04559,-0.0195 -0.0683,-0.02968c-0.00762,0.00403 -0.01572,0.00734 -0.02437,0.00981z" fill="#a00000" fill-rule="nonzero" stroke="none" stroke-width="0.5" stroke-linecap="butt" stroke-linejoin="miter"/><path d="M325.51133,179.81084l-0.00111,-0.01758c-0.06795,-0.1516 -0.13593,-0.3032 -0.20386,-0.45481c0,0 -0.01382,-0.0308 -0.02394,-0.07812c-0.00528,-0.01286 -0.00992,-0.02613 -0.01384,-0.03984c-0.05741,-0.20004 0.05822,-0.40873 0.25824,-0.46614c0.20004,-0.05741 0.40873,0.05822 0.46614,0.25824c0.00309,0.01082 0.00573,0.0217 0.00783,0.03256c0.06571,0.14661 0.13143,0.29319 0.19714,0.43984l0.03779,0.11792c0,0 0.10394,0.36221 -0.25824,0.46614c-0.36221,0.10394 -0.46614,-0.25824 -0.46614,-0.25824z" fill="#a00000" fill-rule="nonzero" stroke="none" stroke-width="0.5" stroke-linecap="butt" stroke-linejoin="miter"/><path d="M318.69631,179.5453c0.92324,-0.07608 2.49454,1.16296 3.43264,0.69674c0.04055,-0.10705 0.13652,-0.23949 0.36302,-0.22992c0.24956,0.01055 0.32666,0.17954 0.35033,0.29228c0.06058,0.12278 0.04127,0.22756 0.00095,0.30621l-0.00173,0.03868c-0.19082,1.87396 -0.18054,3.76284 -0.5302,5.60717c-0.08973,0.47333 0.15014,1.94062 -0.83448,1.79967c-0.39094,-0.05595 -0.71079,-1.78382 -0.79914,-2.0917c-0.30457,-1.06128 -0.61857,-2.12032 -0.9138,-3.18424c-0.04668,-0.16819 -0.24692,-0.77391 -0.46003,-0.83575c-0.10386,-0.03013 -0.72746,0.53928 -0.82552,0.61539c-0.8966,0.6958 -2.04752,0.80107 -2.94152,1.50414c-0.61745,0.47297 -2.68993,1.06133 -2.01664,-0.52366c0.16111,-0.37926 0.99839,-0.85794 1.25773,-1.24157c1.00656,-1.48891 1.80505,-2.48641 3.30096,-3.51331c0,0 0.31073,-0.21314 0.52385,0.09758c0.21314,0.31073 -0.09758,0.52385 -0.09758,0.52385c-0.03234,0.0222 -0.06446,0.0443 -0.09626,0.06636c0.11133,-0.02271 0.21141,0.00917 0.21141,0.00917z" fill="#ffffff" fill-rule="nonzero" stroke="none" stroke-width="0.5" stroke-linecap="butt" stroke-linejoin="miter"/><path d="M313.9505,184.83389c-0.00943,-0.00345 -0.01879,-0.007 -0.02806,-0.01068l0.07843,-0.15045c-0.0018,-0.00562 -0.00356,-0.01136 -0.00522,-0.01719c-0.02305,-0.08045 -0.02319,-0.14812 -0.00937,-0.20478c-0.11278,0.04083 -0.23095,0.07876 -0.35758,0.11545c0,0 -0.36221,0.10394 -0.46614,-0.25824c-0.10394,-0.36221 0.25824,-0.46614 0.25824,-0.46614c0.02401,-0.0068 0.04759,-0.01364 0.07072,-0.0205l0.4167,-0.31352c0.03047,-0.0401 0.07074,-0.07769 0.11973,-0.11257c-0.08224,-0.02764 -0.17273,-0.05917 -0.2733,-0.09451l0.62279,-0.61207c0.10707,0.00661 0.2141,0.01321 0.32115,0.01981c0.08783,-0.26349 0.23324,-0.45693 0.52019,-0.48241c0.32442,-0.0288 0.61942,0.20167 0.92914,0.30254l-0.25993,0.26668c0.09544,0.02579 0.19084,0.05161 0.28624,0.07739l-0.28148,0.29735c0.07503,0.00481 0.1495,0.01164 0.22312,0.02034l-0.46034,0.71005c-0.12842,0.05104 -0.26906,0.07559 -0.41115,0.07795c-0.09952,0.25994 -0.23698,0.5071 -0.40832,0.72211l0.07363,0.06462c-0.0663,0.04453 -0.14047,0.07803 -0.21912,0.10149c-0.06043,0.06265 -0.12413,0.12149 -0.19105,0.17593l-0.54901,-0.20867z" fill="#a00000" fill-rule="nonzero" stroke="none" stroke-width="0.5" stroke-linecap="butt" stroke-linejoin="miter"/><path d="M320.60043,186.20661c-0.10394,-0.36221 0.25824,-0.46614 0.25824,-0.46614l0.0553,-0.01384c0.0423,-0.10274 0.12948,-0.18585 0.24456,-0.21889c0.07959,-0.02285 0.16058,-0.01829 0.23284,0.00809l0.5697,-0.36592c0.03201,-0.02161 0.06791,-0.03866 0.10708,-0.04989c0.20004,-0.05741 0.40873,0.05822 0.46614,0.25824c0.04464,0.15546 -0.01527,0.31614 -0.1381,0.407l-0.18209,0.14133l0.11754,0.02314c-0.0837,0.12423 -0.16506,0.23384 -0.24334,0.32858c0.04051,0.04259 0.07166,0.09528 0.08902,0.1557c0.04464,0.15546 -0.01527,0.31614 -0.1381,0.407l-0.14219,0.11034c0.09571,0.04441 0.17234,0.12856 0.20372,0.23792c0.01333,0.0465 0.01733,0.09349 0.01309,0.13891c0.06616,0.11823 0.07513,0.2263 -0.04061,0.27989c0.00321,0.0087 0.0061,0.01754 0.0087,0.02657c0.05741,0.20004 -0.05822,0.40873 -0.25824,0.46614c-0.02263,0.00648 -0.04538,0.0108 -0.06802,0.01297l-0.29482,0.03383l-0.02093,0.0604c-0.01989,-0.01726 -0.03922,-0.03436 -0.05801,-0.05131l-0.03895,0.00446c-0.18201,0.02416 -0.35913,-0.08791 -0.41132,-0.2697c-0.02318,-0.08081 -0.01816,-0.16295 0.00926,-0.23603c-0.12302,-0.20385 -0.13277,-0.36122 -0.05173,-0.46384c-0.06013,-0.23016 0.0556,-0.46465 0.13475,-0.69823c-0.09889,0.01459 -0.34144,0.01881 -0.42341,-0.26679z" fill="#a00000" fill-rule="nonzero" stroke="none" stroke-width="0.5" stroke-linecap="butt" stroke-linejoin="miter"/><path d="M311.90609,180.09675c0.20004,-0.05741 0.40873,0.05822 0.46614,0.25824c0.05741,0.20004 -0.05822,0.40873 -0.25824,0.46614c-0.20004,0.05741 -0.40873,-0.05822 -0.46614,-0.25824c-0.05741,-0.20004 0.05822,-0.40873 0.25824,-0.46614z" fill="#a00000" fill-rule="nonzero" stroke="none" stroke-width="0.5" stroke-linecap="butt" stroke-linejoin="miter"/><path d="M309.95093,177.42804l0.18014,0.2002c0.3385,0.29042 0.6321,0.63262 0.90643,0.9843c0,0 0.23103,0.29769 -0.06664,0.52869c-0.29769,0.23103 -0.52869,-0.06664 -0.52869,-0.06664c-0.24103,-0.31238 -0.49832,-0.61801 -0.79976,-0.87264l-0.2464,-0.26401c0,0 -0.25492,-0.27747 0.02254,-0.53241c0.27747,-0.25492 0.53241,0.02254 0.53241,0.02254z" fill="#a00000" fill-rule="nonzero" stroke="none" stroke-width="0.5" stroke-linecap="butt" stroke-linejoin="miter"/><path d="M309.20069,176.54668c0.20004,-0.05741 0.40873,0.05822 0.46614,0.25824c0.05741,0.20004 -0.05822,0.40873 -0.25824,0.46614c-0.20004,0.05741 -0.40873,-0.05822 -0.46614,-0.25824c-0.05741,-0.20004 0.05822,-0.40873 0.25824,-0.46614z" fill="#a00000" fill-rule="nonzero" stroke="none" stroke-width="0.5" stroke-linecap="butt" stroke-linejoin="miter"/><path d="M308.72463,175.14338c0.20004,-0.05741 0.40873,0.05822 0.46614,0.25824c0.05741,0.20004 -0.05822,0.40873 -0.25824,0.46614c-0.20004,0.05741 -0.40873,-0.05822 -0.46614,-0.25824c-0.05741,-0.20004 0.05822,-0.40873 0.25824,-0.46614z" fill="#a00000" fill-rule="nonzero" stroke="none" stroke-width="0.5" stroke-linecap="butt" stroke-linejoin="miter"/><path d="M313.09793,180.92801c0.20004,-0.05741 0.40873,0.05822 0.46614,0.25824c0.05741,0.20004 -0.05822,0.40873 -0.25824,0.46614c-0.20004,0.05741 -0.40873,-0.05822 -0.46614,-0.25824c-0.05741,-0.20004 0.05822,-0.40873 0.25824,-0.46614z" fill="#a00000" fill-rule="nonzero" stroke="none" stroke-width="0.5" stroke-linecap="butt" stroke-linejoin="miter"/><path d="M318.87391,185.72345c0.20004,-0.05741 0.40873,0.05822 0.46614,0.25824c0.05741,0.20004 -0.05822,0.40873 -0.25824,0.46614c-0.20004,0.05741 -0.40873,-0.05822 -0.46614,-0.25824c-0.05741,-0.20004 0.05822,-0.40873 0.25824,-0.46614z" fill="#a00000" fill-rule="nonzero" stroke="none" stroke-width="0.5" stroke-linecap="butt" stroke-linejoin="miter"/><path d="M317.5177,185.086c0.20004,-0.05741 0.40873,0.05822 0.46614,0.25824c0.05741,0.20004 -0.05822,0.40873 -0.25824,0.46614c-0.20004,0.05741 -0.40873,-0.05822 -0.46614,-0.25824c-0.05741,-0.20004 0.05822,-0.40873 0.25824,-0.46614z" fill="#a00000" fill-rule="nonzero" stroke="none" stroke-width="0.5" stroke-linecap="butt" stroke-linejoin="miter"/><path d="M316.30639,184.18702c0.20004,-0.05741 0.40873,0.05822 0.46614,0.25824c0.05741,0.20004 -0.05822,0.40873 -0.25824,0.46614c-0.20004,0.05741 -0.40873,-0.05822 -0.46614,-0.25824c-0.05741,-0.20004 0.05822,-0.40873 0.25824,-0.46614z" fill="#a00000" fill-rule="nonzero" stroke="none" stroke-width="0.5" stroke-linecap="butt" stroke-linejoin="miter"/><path d="M342.03659,206.05542c0.09598,0.33441 0.04685,0.67607 -0.11004,0.95774c0.17653,0.21195 0.29347,0.51864 0.23182,0.96017c-0.09835,0.70423 -0.5397,0.95409 -0.90416,1.03835c-0.00013,0.50614 -0.30861,0.97488 -0.79268,1.16645l-1.25802,0.5173l-0.07081,-0.17218l-0.35566,0.2655c-2.28606,-0.66309 -6.58142,-2.27226 -2.46649,-4.70276c0.14157,-0.08363 0.28288,-0.15055 0.4239,-0.20291c0.15394,-0.29245 0.42233,-0.52403 0.76507,-0.62241c0.61407,-0.17622 1.25262,0.13674 1.49918,0.70816c0.19932,0.06034 0.39846,0.12674 0.5975,0.19294c0.08765,-0.44823 0.4175,-0.8325 0.88664,-0.96717c0.66677,-0.19134 1.36239,0.19404 1.55375,0.86082z" fill="#ffffff" fill-rule="nonzero" stroke="none" stroke-width="0.5" stroke-linecap="butt" stroke-linejoin="miter"/><path d="M335.62065,204.21974c0.62763,-0.18011 1.28083,0.15079 1.51493,0.74634c0.11348,-0.08113 0.24251,-0.14461 0.38426,-0.18529c0.50668,-0.1454 1.03,0.0422 1.33603,0.43324c0.26532,-0.02057 0.52468,0.04462 0.74423,0.17687c0.15817,-0.2081 0.38241,-0.36878 0.65297,-0.44643c0.66677,-0.19134 1.36239,0.19404 1.55375,0.86082c0.19134,0.66677 -0.19404,1.36239 -0.86082,1.55375c-0.34924,0.10022 -0.70638,0.04223 -0.99486,-0.13155c-0.15817,0.2081 -0.38241,0.36878 -0.65297,0.44643c-0.50668,0.1454 -1.03,-0.0422 -1.33603,-0.43324c-0.54327,0.04214 -1.06132,-0.27529 -1.26433,-0.79167c-0.11348,0.08113 -0.24251,0.14461 -0.38426,0.18529c-0.66677,0.19134 -1.36239,-0.19404 -1.55375,-0.86082c-0.19134,-0.66677 0.19404,-1.36239 0.86082,-1.55375z" fill="#a00000" fill-rule="nonzero" stroke="none" stroke-width="0.5" stroke-linecap="butt" stroke-linejoin="miter"/></g></g></g></svg>