<svg version="1.1" xmlns="http://www.w3.org/2000/svg" xmlns:xlink="http://www.w3.org/1999/xlink" width="980.48048" height="630.63063" viewBox="0,0,980.48048,630.63063"><g transform="translate(145.24024,130.31528)"><g data-paper-data="{&quot;isPaintingLayer&quot;:true}" stroke-miterlimit="10" stroke-dasharray="" stroke-dashoffset="0" style="mix-blend-mode: normal"><path d="M-145.24024,500.31535v-630.63063h980.48048v630.63063z" fill="#000000" fill-rule="nonzero" stroke="#ff3838" stroke-width="0" stroke-linecap="butt" stroke-linejoin="miter"/><text transform="translate(304.71471,259.28905) scale(0.5,0.5)" font-size="40" xml:space="preserve" fill="#ffffff" fill-rule="nonzero" stroke="none" stroke-width="1" stroke-linecap="butt" stroke-linejoin="miter" stroke-miterlimit="10" stroke-dasharray="" stroke-dashoffset="0" font-family="Marker" font-weight="normal" text-anchor="start" style="mix-blend-mode: normal"><tspan x="0" dy="0">Loading</tspan></text><g><path d="M332.79475,189.45256c0.40078,0.32701 -0.16347,4.06742 0.74902,5.54256c0.67979,1.02704 1.59265,2.23167 3.06584,2.94247c3.30994,1.65529 2.37903,2.03525 2.10591,4.19932c-0.25455,2.21076 -1.35946,3.50764 -5.49576,-1.44191c-1.43466,-1.69965 -2.14157,-3.47311 -2.67161,-4.93845c-0.1488,-0.37335 -1.10572,-3.72375 0.03461,-5.47631c1.1403,-1.75257 1.87655,-1.12662 2.21206,-0.82766z" fill="#000000" fill-rule="evenodd" stroke="#001026" stroke-width="1.2" stroke-linecap="round" stroke-linejoin="round"/><path d="M326.53913,188.71775c0.2438,-1.01662 1.30901,-2.41475 3.16439,-1.42358c2.18171,1.1315 1.31068,3.96655 0.98267,5.17899c-0.32798,1.21245 -0.56197,1.84655 -0.78879,4.26257c-0.10378,0.96081 -0.06787,2.13634 -0.0313,2.77081c0.04634,0.25192 0.13935,0.4853 0.32572,0.68143c0.35409,0.34561 -0.2166,-4.66559 -0.51651,-3.51846c-0.43057,1.20611 0.74388,1.38977 -1.12422,0.72198c-0.21462,-0.0767 0.35139,0.19444 0.11651,0.13815c-2.20974,-0.52957 -1.13784,0.95992 -1.23266,-0.41339c-0.22976,-2.88304 -1.84212,-2.92218 -0.40579,-2.57529c0.22389,0.01889 0.87226,-0.3477 0.84451,-0.55296l-1.92841,1.60054c-0.04411,-0.60435 -0.29117,0.85704 -0.29008,0.27817c0.0012,-0.64255 0.27655,-2.28198 0.31839,-2.87548c0.1794,-2.54521 0.40959,-3.53677 0.56563,-4.2735z" fill="#000000" fill-rule="evenodd" stroke="#001026" stroke-width="1.2" stroke-linecap="round" stroke-linejoin="round"/><path d="M333.69494,177.79009c1.01629,0.51436 1.3221,2.23132 0.03397,2.79886c-1.2134,0.48365 -2.86412,0.00589 -3.83405,-0.25651c-0.96994,-0.26238 -4.76519,-1.7783 -4.60203,-5.57517c0.16056,-1.63247 1.50908,-5.84771 3.71883,-4.78149c2.20978,1.06619 0.91022,3.369 0.37668,4.87972c-0.46799,1.26823 4.02694,2.77567 4.30666,2.93461z" fill="#000000" fill-rule="evenodd" stroke="#001026" stroke-width="1.2" stroke-linecap="round" stroke-linejoin="round"/><g fill-rule="evenodd"><path d="M327.65004,184.33449c0.19681,-0.72746 0.6736,-1.56654 1.44934,-2.74108c0.64491,-0.96014 2.11121,-2.30182 2.11121,-2.30182c0.9993,-0.88507 3.12782,-2.05803 3.69503,-0.49934c0.36261,1.04532 0.87466,1.9229 1.74049,3.41666c1.6762,2.57693 2.25417,2.94146 0.8058,4.87093c-1.73783,2.15299 -2.0877,6.02427 -7.54247,3.60138c0,0 -2.68497,-1.57993 -6.48932,-3.25443c-2.5642,-1.14129 -6.34967,-3.0397 -7.64561,-3.71295c-0.2797,-0.15895 -0.48465,-0.40174 -0.64293,-0.66315c-2.22447,-4.3595 -3.09717,-7.90574 -1.0904,-8.70564c3.36019,-1.33939 4.85363,5.79939 4.85363,5.79939c0,0 2.67585,1.42129 3.9532,2.04789z" fill="#000000" stroke="#001026" stroke-width="1.2" stroke-linecap="round" stroke-linejoin="round"/><path d="M329.9584,181.03469c0,0 0.81329,-1.35179 2.87327,0.15273c2.19053,1.56063 1.01336,2.9493 0.22814,4.23581c-1.07472,1.51006 -2.14678,0.85572 -3.35889,0.2572c-0.99766,-0.46768 -1.83676,-0.94445 -1.83676,-0.94445c0,0 0.40336,-1.8374 2.09422,-3.70124z" fill="#a00000" stroke="none" stroke-width="1" stroke-linecap="butt" stroke-linejoin="miter"/></g><g fill-rule="evenodd"><path d="M357.91601,168.40586c0.61454,0.99897 1.15436,2.08183 1.58189,3.42577c0.781,2.23067 0.82474,4.64703 0.82474,4.64703l5.93777,4.17737c0.16774,0.14945 0.12075,0.43864 -0.08451,0.46637l-8.74446,2.34982c0.26172,-0.42882 -4.00178,7.32811 -10.64291,6.13529c-6.6411,-1.19281 -11.83022,-7.29115 -13.60078,-16.75328c-1.77054,-9.46212 2.45123,-13.52468 5.33462,-14.025c2.88338,-0.50034 5.18422,2.42256 5.18422,2.42256c0,0 2.11872,-0.79045 5.28081,-0.32019c1.89353,0.27283 5.27756,2.38534 5.27756,2.38534l5.4773,-0.77709c0.20528,-0.02773 0.34497,0.187 0.30742,0.36424z" fill="#000000" stroke="#001026" stroke-width="1.2" stroke-linecap="butt" stroke-linejoin="miter"/><path d="M343.57572,161.4662c2.46793,3.61341 -0.32338,5.15877 0.78264,8.61196c1.2826,4.03184 7.66882,7.70597 3.92156,12.82329c-3.70058,5.09875 -12.56028,2.41056 -14.72863,-9.81357c-1.78,-9.3502 2.134,-13.50637 5.0174,-14.00672c2.88337,-0.50035 5.007,2.38502 5.007,2.38502z" fill="#000000" stroke="none" stroke-width="1" stroke-linecap="butt" stroke-linejoin="miter"/><path d="M344.44197,178.15753c-2.23099,1.05155 -5.38525,1.82208 -7.54477,-2.23878c-2.23326,-4.78864 0.56001,-7.95728 1.65265,-8.8796c0.19613,-0.18634 0.50393,-0.09268 0.55024,0.15927c0.13904,0.75585 0.59431,2.30507 1.73885,4.76941c1.30287,2.72571 3.0541,4.94825 3.73424,5.70475c0.12109,0.16806 0.05548,0.41054 -0.1312,0.48494z" fill="#000000" stroke="#001026" stroke-width="1.2" stroke-linecap="round" stroke-linejoin="round"/><path d="M340.03306,159.36286c0,0 -1.29273,-3.37878 -0.3936,-6.27915" fill="none" stroke="#001026" stroke-width="1.2" stroke-linecap="round" stroke-linejoin="round"/><path d="M337.20518,160.27372c0,0 -1.61221,-1.46665 -2.55086,-4.49983" fill="none" stroke="#001026" stroke-width="1.2" stroke-linecap="round" stroke-linejoin="round"/><path d="M345.89519,172.1698c-0.74672,0.29764 -2.69474,-1.19741 -2.93626,-2.07465c-0.25097,-0.76533 0.77672,-1.98621 1.44869,-2.20001c0.34529,-0.08355 0.84788,0.90597 1.23857,1.88605c0.37204,0.93339 0.82766,2.21206 0.24902,2.38861z" fill="#001026" stroke="#000000" stroke-width="1.2" stroke-linecap="round" stroke-linejoin="round"/><path d="M349.71299,185.9539c2.09784,1.05675 5.00441,4.54943 5.00441,4.54943" fill="none" stroke="#001026" stroke-width="1.2" stroke-linecap="round" stroke-linejoin="round"/><path d="M349.92029,192.03694c0,0 -1.88996,-3.2489 -1.8965,-5.57192" fill="none" stroke="#001026" stroke-width="1.2" stroke-linecap="round" stroke-linejoin="round"/><g fill="#a00000"><path d="M353.08617,166.05839c-0.31918,1.64162 -2.71793,2.54366 -5.3575,2.02735c-2.65819,-0.56297 -4.49398,-2.31908 -4.17482,-3.96066c0.31918,-1.64162 2.71793,-2.54366 5.3575,-2.02735c2.63963,0.51631 4.54066,2.3005 4.17482,3.96066z" stroke="#001026" stroke-width="1.2" stroke-linecap="round" stroke-linejoin="round"/><path d="M346.32561,163.34473c0.51334,-0.20462 1.08221,0.0013 1.26823,0.46799c0.18604,0.46672 -0.08519,1.00749 -0.59854,1.21211c-0.51334,0.20462 -1.08221,-0.0013 -1.26823,-0.46799c-0.18604,-0.46672 0.08519,-1.00749 0.59854,-1.21211" stroke="none" stroke-width="1" stroke-linecap="butt" stroke-linejoin="miter"/></g><g><path d="M352.21806,174.19256c2.61156,0.58155 4.60592,2.32855 4.1092,4.20316c-0.45004,1.85601 -3.14739,2.823 -5.77754,2.1948c-2.61156,-0.58155 -4.08342,-2.37458 -3.81059,-4.2681c0.38444,-1.61352 2.86737,-2.71144 5.47891,-2.12985z" fill="#ffffff" stroke="#001026" stroke-width="1.2" stroke-linecap="round" stroke-linejoin="round"/><path d="M349.62289,175.55154c0.51334,-0.20462 1.03554,0.01991 1.26823,0.46799c0.18604,0.46672 -0.08519,1.00749 -0.59854,1.21211c-0.51334,0.20462 -1.08221,-0.0013 -1.26823,-0.46799c-0.18604,-0.46672 0.08519,-1.00749 0.59854,-1.21211" fill="#001026" stroke="none" stroke-width="1" stroke-linecap="butt" stroke-linejoin="miter"/></g></g><path d="M348.0207,175.52474c0,0 -0.11389,-0.10146 -0.17941,-0.26053c-0.17059,0.05388 -0.35756,0.13938 -0.59194,0.28431c-0.73128,0.29382 -1.46338,0.5856 -2.19548,0.87744l-0.41036,0.28145c0,0 -0.52644,0.34243 -0.86887,-0.18401c-0.34241,-0.52645 0.18401,-0.86887 0.18401,-0.86887l0.63014,-0.39533c0.70001,-0.27902 1.39993,-0.55826 2.1008,-0.8351c1.37199,-0.81564 3.54581,-1.09285 5.00431,-1.18637c1.17808,-0.07556 2.05089,0.88496 3.32147,0.77245c0.4703,-0.04163 0.79898,-0.54622 1.26041,-0.64606c0.23646,-0.05117 0.48221,0.16782 0.71736,0.1108c1.24296,-0.30125 1.3146,-0.67002 2.65912,-0.27222c0,0 0.60079,0.18286 0.41794,0.78366c-0.18286,0.60079 -0.78366,0.41794 -0.78366,0.41794c-1.61676,-0.50955 -2.61761,0.659 -4.13444,0.85446c-1.04021,0.13402 -2.08109,-0.25763 -2.93741,-0.70594c-0.03406,-0.01782 -0.06595,-0.03238 -0.09596,-0.044c-0.00869,0.13422 -0.0515,0.23384 -0.0515,0.23384c-0.09067,0.21086 -0.18134,0.42165 -0.27198,0.6325l-0.45744,0.38035c0,0 -0.58336,0.23253 -0.8159,-0.35081c-0.15545,-0.38996 0.05372,-0.62313 0.20947,-0.73491c0.00276,-0.00639 0.00549,-0.01279 0.00823,-0.01914c-0.12216,-0.05808 -0.2443,-0.11751 -0.37491,-0.11763c-0.36206,-0.00018 -0.66325,0.27425 -0.99526,0.43452c0.15064,0.11963 0.21694,0.28597 0.21694,0.28597l-0.95609,0.81445c-0.20319,-0.18105 -0.40638,-0.3621 -0.60957,-0.54317z" fill="#a00000" fill-rule="nonzero" stroke="none" stroke-width="0.5" stroke-linecap="butt" stroke-linejoin="miter"/><path d="M342.62427,174.62349c-0.34241,-0.52645 0.18401,-0.86887 0.18401,-0.86887l0.45758,-0.29186c0.209,-0.17558 0.41801,-0.35115 0.62702,-0.52675c0.60966,-0.36717 1.23749,-1.13081 1.93299,-1.31136c0.60323,-0.15662 1.47701,0.01508 2.10724,-0.02159c1.74732,-0.10174 3.72395,-0.2784 5.43155,-0.61595c1.51645,-0.29975 3.34767,-1.47761 4.81508,-2.06254c0,0 0.58336,-0.23253 0.8159,0.35081c0.23253,0.58336 -0.35081,0.8159 -0.35081,0.8159c-1.56555,0.62403 -3.41906,1.79609 -5.0441,2.12944c-1.75646,0.3603 -3.80588,0.53414 -5.59936,0.63645c-0.05802,0.0033 -1.71011,-0.051 -1.82539,-0.02635c-0.47708,0.10205 -1.13257,0.87102 -1.55052,1.12538c-0.18314,0.15544 -0.3663,0.31084 -0.54945,0.46631l-0.58289,0.38491c0,0 -0.52644,0.34243 -0.86887,-0.18401z" fill="#a00000" fill-rule="nonzero" stroke="none" stroke-width="0.5" stroke-linecap="butt" stroke-linejoin="miter"/><path d="M332.41176,166.94658c0.24809,-0.57695 0.82501,-0.32886 0.82501,-0.32886l0.44461,0.22378c2.09685,-0.55074 4.25661,-1.11087 6.38259,-1.56216c1.67149,-0.35483 2.8602,-1.88446 4.41167,-0.42513c0,0 0.43256,0.4553 -0.02273,0.88784c-0.45527,0.43257 -0.88783,-0.02273 -0.88783,-0.02273c-0.52494,-0.71095 -1.76377,0.21501 -2.45418,0.48604c-2.34471,0.92053 -5.07447,1.42634 -7.54993,1.88632l-0.82041,-0.32015c0,0 -0.57691,-0.24807 -0.32886,-0.82501z" fill="#a00000" fill-rule="nonzero" stroke="none" stroke-width="0.5" stroke-linecap="butt" stroke-linejoin="miter"/><path d="M332.36261,165.34781c-0.23253,-0.58336 0.35081,-0.8159 0.35081,-0.8159l0.55129,-0.21056c2.24664,-0.48859 4.35544,-1.27593 6.63832,-1.58414c1.42391,-0.19226 2.94724,0.14983 4.32539,-0.16557c0,0 0.61366,-0.13347 0.74712,0.48021c0.13347,0.61366 -0.48021,0.74712 -0.48021,0.74712c-1.45192,0.30311 -2.96451,-0.01468 -4.44432,0.18552c-2.24105,0.30316 -4.31085,1.08387 -6.51939,1.56421l-0.35316,0.14997c0,0 -0.58336,0.23253 -0.8159,-0.35081z" fill="#a00000" fill-rule="nonzero" stroke="none" stroke-width="0.5" stroke-linecap="butt" stroke-linejoin="miter"/><path d="M353.14645,178.01705c-0.33313,-0.53235 0.19921,-0.8655 0.19921,-0.8655l0.08879,-0.05557c1.76449,-0.89036 1.84585,-0.82956 2.81506,0.76235c0,0 0.3253,0.53719 -0.21195,0.86248c-0.53719,0.3253 -0.86248,-0.21195 -0.86248,-0.21195c-0.17625,-0.29289 -0.11627,-1.03641 -0.43991,-0.92635c-0.27089,0.09209 -0.42298,0.38546 -0.63444,0.5782l-0.08879,0.05557c0,0 -0.53235,0.33313 -0.8655,-0.19921z" fill="#a00000" fill-rule="nonzero" stroke="none" stroke-width="0.5" stroke-linecap="butt" stroke-linejoin="miter"/><path d="M351.00403,178.20506c0.58336,-0.23253 0.8159,0.35081 0.8159,0.35081l0.04506,0.1131c0.18025,0.45226 0.36054,0.9045 0.54079,1.35675c0,0 0.23253,0.58336 -0.35081,0.8159c-0.58336,0.23253 -0.8159,-0.35081 -0.8159,-0.35081c-0.18026,-0.45221 -0.40561,-1.01756 -0.58588,-1.46978c0,0 -0.23253,-0.58336 0.35081,-0.8159z" fill="#a00000" fill-rule="nonzero" stroke="none" stroke-width="0.5" stroke-linecap="butt" stroke-linejoin="miter"/><path d="M348.84157,177.1687c0.57692,0.2481 0.32886,0.82501 0.32886,0.82501l-0.60879,0.53702c-0.25617,0.01476 -0.51234,0.02953 -0.76848,0.04428c0,0 -0.62697,0.0361 -0.66308,-0.59087c-0.03614,-0.62697 0.59083,-0.66307 0.59083,-0.66307c0.1443,-0.00834 0.28864,-0.01663 0.43293,-0.02495c0.12913,-0.13767 0.35309,-0.27131 0.68776,-0.12742z" fill="#a00000" fill-rule="nonzero" stroke="none" stroke-width="0.5" stroke-linecap="butt" stroke-linejoin="miter"/><path d="M329.75127,200.86065c-0.53602,-0.32719 -0.20886,-0.86321 -0.20886,-0.86321l0.23942,-0.05881c-0.07864,-0.36701 -0.18672,-0.7171 -0.29674,-1.06647c-0.09764,-0.06334 -0.15534,-0.13172 -0.15534,-0.13172c-0.14982,-0.17942 -0.3262,-0.33967 -0.44947,-0.53825c-0.04693,-0.07563 0.03177,-0.30308 -0.04758,-0.2628c-0.23618,0.11995 -0.30506,0.6568 -0.55494,0.56884c-0.45761,-0.16106 -0.67686,-0.70102 -0.95319,-1.09972c-0.15522,-0.22396 0.05686,-0.94613 -0.1725,-0.79904c-0.18389,0.11796 -0.26642,0.5159 -0.47518,0.45145c-0.88283,-0.27253 -1.72991,-1.52797 -0.62362,-2.35408c0.32261,-0.24089 0.78842,0.16373 1.18266,0.24562l0.38036,0.45746c0,0 0.04516,0.11327 0.04574,0.25986c0.15397,0.1021 0.31833,0.24898 0.4864,0.44837c0.17285,0.20505 0.25806,0.48004 0.30695,0.74371c0.02455,0.1326 -0.20149,0.47719 -0.09616,0.39298c0.16608,-0.13281 0.09266,-0.5659 0.30527,-0.56019c0.29449,0.00792 0.5537,0.13835 0.78442,0.32174c0.05205,-0.02629 0.11264,-0.04792 0.18297,-0.0632c0.61366,-0.13347 0.74712,0.48021 0.74712,0.48021c0.16513,0.77077 0.46019,1.46689 0.63013,2.23829l-0.39467,0.9801c0,0 -0.32719,0.53602 -0.86321,0.20886z" fill="#a00000" fill-rule="nonzero" stroke="none" stroke-width="0.5" stroke-linecap="butt" stroke-linejoin="miter"/><path d="M325.80687,201.32613c-0.57692,-0.2481 -0.32886,-0.82501 -0.32886,-0.82501l0.28135,-0.60691c0.14336,-0.18815 0.28674,-0.37633 0.43011,-0.56452c0,0 0.38062,-0.49954 0.88013,-0.11894c0.49954,0.38062 0.11894,0.88013 0.11894,0.88013c-0.14337,0.18817 -0.28676,0.37636 -0.43011,0.56452l-0.12658,0.34185c0,0 -0.2481,0.57692 -0.82501,0.32886z" fill="#a00000" fill-rule="nonzero" stroke="none" stroke-width="0.5" stroke-linecap="butt" stroke-linejoin="miter"/><path d="M322.92687,200.41205l0.6333,-0.38347c0,0 0.53719,-0.3253 0.86248,0.21195c0.3253,0.53719 -0.21195,0.86248 -0.21195,0.86248l-0.6333,0.38347c0,0 -0.53719,0.3253 -0.86248,-0.21195c-0.3253,-0.53719 0.21195,-0.86248 0.21195,-0.86248z" fill="#a00000" fill-rule="nonzero" stroke="none" stroke-width="0.5" stroke-linecap="butt" stroke-linejoin="miter"/><path d="M326.74212,206.18994c-0.62578,-0.05288 -0.57288,-0.67868 -0.57288,-0.67868l0.14917,-0.59888c0.14337,-0.18817 0.28676,-0.37636 0.43011,-0.56452c0,0 0.11552,-0.15159 0.30277,-0.22412c0.0152,-0.23428 0.16172,-0.45043 0.39432,-0.54316c0.32221,-0.12841 0.68749,0.02864 0.8159,0.35081c0.12841,0.32221 -0.02864,0.68749 -0.35081,0.8159c-0.00908,0.00362 -0.01822,0.00702 -0.02735,0.01016c-0.0202,0.19987 -0.13576,0.35159 -0.13576,0.35159c-0.14337,0.18817 -0.28676,0.37636 -0.43011,0.56452l0.10331,-0.0565c0,0 -0.05292,0.62576 -0.67868,0.57288z" fill="#a00000" fill-rule="nonzero" stroke="none" stroke-width="0.5" stroke-linecap="butt" stroke-linejoin="miter"/><path d="M327.49492,196.02847c0.2481,-0.57692 0.82501,-0.32886 0.82501,-0.32886l0.36532,0.21238c0.00692,0.0073 0.01384,0.01458 0.02076,0.02188c0.12605,-0.12913 0.42197,-0.34803 0.80699,-0.08267c0.51706,0.35639 0.16067,0.87349 0.16067,0.87349l-0.18918,0.253c-0.18589,0.4251 -0.2785,0.79586 -0.49374,0.98096c0.00566,0.09835 -0.01218,0.19555 -0.05019,0.28405l-0.272,0.63251v0c-0.06349,0.14765 -0.18328,0.27109 -0.34441,0.33532c-0.22844,0.09106 -0.47856,0.03857 -0.65054,-0.11452l-0.30429,0.30356c-0.06025,0.06288 -0.13462,0.11421 -0.22083,0.14858c-0.32221,0.12841 -0.68749,-0.02864 -0.8159,-0.35081c-0.03908,-0.09798 -0.05168,-0.19996 -0.04131,-0.29803l0.06772,-0.80098l0.00738,0.00062l-0.00489,-0.02459c0.08636,-0.5145 0.22904,-1.02368 0.43217,-1.5042c0,0 0.1978,-0.46001 0.65092,-0.38188c0.00978,-0.05014 0.02616,-0.10336 0.05039,-0.15972zM327.96402,197.01966c0.00629,-0.00779 0.01253,-0.01559 0.01881,-0.02339c-0.00309,-0.00325 -0.00619,-0.0065 -0.00928,-0.00976c-0.00324,0.01228 -0.0065,0.02339 -0.00957,0.03316z" fill="#ffffff" fill-rule="nonzero" stroke="none" stroke-width="0.5" stroke-linecap="butt" stroke-linejoin="miter"/><path d="M343.831,176.61362c0.60622,0.164 0.44223,0.77018 0.44223,0.77018l-0.44277,0.25455c0.19247,0.00999 0.3708,0.02776 0.50102,0.04714c0,0 0.61985,0.10073 0.51913,0.72061c-0.10075,0.61984 -0.72061,0.51913 -0.72061,0.51913c-1.2981,-0.23581 -3.08313,0.73898 -2.24895,-1.52638c0.07955,-0.21611 0.27597,-0.36809 0.41858,-0.54962l0.24887,-0.57874l0.23202,0.09978l0.47196,-0.4667c0.08891,0.20532 0.17777,0.41167 0.27166,0.61551l0.22933,0.00028l-0.0001,0.07701c0.02506,0.00437 0.05093,0.0101 0.07767,0.01734z" fill="#8da900" fill-rule="nonzero" stroke="none" stroke-width="0.5" stroke-linecap="butt" stroke-linejoin="miter"/><path d="M339.76505,169.51851c0,0 0.57182,0.24589 0.3321,0.81737c0.20796,0.03601 0.39292,0.17599 0.4768,0.38643c0.06419,0.16109 0.05705,0.33297 -0.00643,0.48061v0l-0.13735,0.31943c0.0404,0.14329 0.10032,0.27779 0.18891,0.39707l0.47316,0.34489c0,0 0.4201,0.3201 0.19626,0.75845c0.12845,0.11434 0.30826,0.34597 0.17483,0.67554c0.38382,0.26419 0.87705,0.64607 1.02753,0.75999l0.24783,0.38008c0,0 0.06294,0.15795 0.04115,0.3422c0.06342,-0.00822 0.12655,-0.01355 0.18897,-0.01347c0,0 0.628,0.00076 0.62724,0.62875c-0.00075,0.628 -0.62875,0.62724 -0.62875,0.62724c-0.09886,-0.00013 -0.3471,0.00157 -0.6178,-0.00048c-0.06704,0.12898 -0.17894,0.23539 -0.32454,0.29343c-0.12162,0.04847 -0.24938,0.05629 -0.36823,0.02986c-0.2198,0.10046 -0.43623,0.01838 -0.54899,-0.04195c-0.00094,0.0037 -0.00188,0.00737 -0.00289,0.01105c0.03165,0.27475 -0.12229,0.54755 -0.39155,0.65489c-0.32221,0.12841 -0.68749,-0.02864 -0.8159,-0.35081c-0.05557,-0.13942 -0.05771,-0.28692 -0.01609,-0.41982c-0.02162,-0.12877 -0.03569,-0.25999 -0.04197,-0.39211c-0.01098,-0.0218 -0.02145,-0.04496 -0.03125,-0.06961c-0.10899,-0.27343 -0.03873,-0.46981 0.0667,-0.60128c0.03356,-0.21501 0.08888,-0.42557 0.16667,-0.62491l-0.0259,-0.07602c0,0 0.01894,-0.22434 0.1685,-0.393c0.00669,-0.18307 0.05332,-0.35844 0.15068,-0.51553c-0.63926,-0.19758 -1.45398,0.31555 -1.96675,-0.22455c-0.71483,-0.75293 0.06305,-1.89311 0.55104,-2.54465c-0.20804,-0.10021 -0.41738,-0.19697 -0.63673,-0.26771c-0.34497,-0.11124 -0.87679,0.0459 -1.05313,-0.27072c-0.21347,-0.38321 0.34735,-1.51741 0.52636,-1.92682l0.06244,-0.04889l-0.01971,-0.01499l0.42386,-0.55631c0.06724,-0.09148 0.16006,-0.16588 0.27327,-0.21099c0.32221,-0.12841 0.68749,0.02864 0.8159,0.35081c0.01253,0.03144 0.02235,0.06332 0.02955,0.09535l0.19986,0.82599l-0.01444,0.00349c0.09122,0.19439 0.17788,0.3908 0.25783,0.59006l-0.01903,-0.2084zM339.53084,172.51253c-0.00728,-0.01066 -0.01461,-0.02125 -0.02198,-0.03188c-0.01249,0.01712 -0.02476,0.03398 -0.03679,0.05042c0.0188,-0.0067 0.03844,-0.01287 0.05878,-0.01853z" fill="#8da900" fill-rule="nonzero" stroke="none" stroke-width="0.5" stroke-linecap="butt" stroke-linejoin="miter"/><path d="M337.78904,173.39978c1.08093,0.81526 1.17231,1.08799 1.04249,1.96074c0.3611,0.22293 0.41424,0.90053 0.34574,1.5066l0.32587,0.06698c0.28894,0.52383 0.42353,1.16586 0.3523,1.7598c0,0 -0.10075,0.61984 -0.72062,0.51916c-0.61988,-0.10074 -0.51916,-0.72062 -0.51916,-0.72062c0.00685,-0.0281 0.01236,-0.05668 0.01658,-0.08566c-0.24013,-0.00649 -0.46512,-0.15128 -0.56301,-0.38627c-0.21068,-0.11925 -0.28156,-0.28978 -0.29571,-0.44133l-0.32495,-0.4812c-0.0067,-0.18901 -0.0835,-0.40964 -0.13398,-0.6184c-0.58267,-0.17177 -0.42227,-0.76458 -0.42227,-0.76458l0.18174,-0.1909c-0.18505,-0.46857 -0.34091,-0.96302 -0.43363,-1.4652l-0.25051,0.05449l-0.15516,-0.71332c-0.07034,-0.29783 0.0861,-0.6102 0.37894,-0.72692c0.26242,-0.10462 0.55344,-0.01979 0.72176,0.18936l0.45361,0.53738z" fill="#8da900" fill-rule="nonzero" stroke="none" stroke-width="0.5" stroke-linecap="butt" stroke-linejoin="miter"/><path d="M341.90053,179.10701c-0.60079,-0.18286 -0.41794,-0.78366 -0.41794,-0.78366l0.65791,-1.16732c0.39905,0.22629 0.79812,0.45263 1.19716,0.67891c0,0 0.46888,0.4178 0.05108,0.88664c-0.29582,0.33197 -0.61724,0.21944 -0.77972,0.12546c-0.10103,0.16354 -0.31523,0.37963 -0.70852,0.25995z" fill="#a00000" fill-rule="nonzero" stroke="none" stroke-width="0.5" stroke-linecap="butt" stroke-linejoin="miter"/><path d="M340.93865,177.93526c-0.58336,0.23253 -0.8159,-0.35081 -0.8159,-0.35081l-0.09013,-0.22612c-0.11013,-0.28741 -0.14685,-0.59706 -0.13739,-0.91144l-0.17767,-0.00021l0.00075,-0.64082c-0.00559,-0.25454 0.14507,-0.49743 0.3955,-0.59723c0.25041,-0.09984 0.52683,-0.02717 0.69787,0.16142l0.44138,0.46458l-0.03254,0.03092l0.10613,0.06299c0.10828,0.26148 0.21661,0.52299 0.32489,0.78447c0,0 0.22716,0.56991 -0.33082,0.80766c-0.03373,0.1538 -0.13431,0.31587 -0.3821,0.41463z" fill="#a00000" fill-rule="nonzero" stroke="none" stroke-width="0.5" stroke-linecap="butt" stroke-linejoin="miter"/><path d="M338.41697,175.76115c-0.62697,0.0361 -0.66308,-0.59087 -0.66308,-0.59087l-0.01996,-0.35705c-0.01049,-0.17004 -0.06616,-0.35119 -0.10501,-0.52819c-0.29348,-0.07765 -0.41728,-0.38816 -0.41728,-0.38816l-0.36054,-0.90447c-0.03929,-0.09855 -0.05188,-0.20118 -0.04114,-0.29976c-0.00987,-0.01632 -0.01971,-0.03276 -0.0295,-0.04922l-0.14282,-0.21947c0,0 -0.34241,-0.52645 0.18402,-0.86886c0.12459,-0.08103 0.23889,-0.11344 0.34079,-0.11561c0.2647,-0.02045 0.4405,0.15561 0.52337,0.26545c0.068,-0.09932 0.16521,-0.1802 0.28542,-0.22813c0.25041,-0.09984 0.52683,-0.02717 0.69787,0.16142l0.44138,0.46458l-0.01729,0.01644l0.06114,0.03502c0.32531,0.53514 0.59514,1.10513 0.82822,1.68637c0,0 0.23253,0.58336 -0.35081,0.8159c-0.03734,0.01487 -0.0732,0.0264 -0.10767,0.03498c-0.0369,0.07 -0.09331,0.13933 -0.17623,0.20406c-0.06832,0.11267 -0.17248,0.20489 -0.30433,0.25746c-0.01232,0.00492 -0.0247,0.00942 -0.03714,0.0135c-0.01154,0.16361 -0.09085,0.5659 -0.58938,0.59463z" fill="#a00000" fill-rule="nonzero" stroke="none" stroke-width="0.5" stroke-linecap="butt" stroke-linejoin="miter"/><path d="M337.01234,170.43868c-0.12841,-0.32221 0.02864,-0.68749 0.35081,-0.8159c0.32221,-0.12841 0.68749,0.02864 0.8159,0.35081c0.12841,0.32221 -0.02864,0.68749 -0.35081,0.8159c-0.32221,0.12841 -0.68749,-0.02864 -0.8159,-0.35081z" fill="#a00000" fill-rule="nonzero" stroke="none" stroke-width="0.5" stroke-linecap="butt" stroke-linejoin="miter"/><path d="M339.83409,175.49192c-0.29129,0.11611 -0.49511,0.0288 -0.62617,-0.08776c-0.01343,0.00078 -0.02681,0.00119 -0.04017,0.00114c0.04112,0.08909 0.07528,0.18438 0.10001,0.28756c0.05331,0.22244 0.03735,0.45948 0.03703,0.69205c0.25732,0.63327 0.49567,1.27201 0.74028,1.88555l0.31547,0.79144c0.12841,0.32221 -0.02864,0.68749 -0.35081,0.8159c-0.29279,0.11672 -0.62122,-0.00237 -0.77507,-0.26693l-0.29235,-0.48277c-0.35306,0.09064 -0.6159,-0.22077 -0.6159,-0.22077c-1.51813,-1.79848 -1.92232,-3.41092 -2.41002,-5.65345l-0.15516,-0.71332c-0.07034,-0.29783 0.0861,-0.6102 0.37894,-0.72692c0.08752,-0.03489 0.17821,-0.04869 0.26648,-0.04387c-0.02824,-0.1888 -0.00892,-0.50925 0.38787,-0.66748c0.36714,-0.14633 0.59528,0.03045 0.71402,0.18164c0.00749,0.00143 0.01503,0.00295 0.02268,0.00468c0.15004,-0.11217 0.45735,-0.26282 0.79042,0.03397c0.46887,0.41781 0.05108,0.88666 0.05108,0.88666c-0.11018,0.08366 -0.20998,0.19964 -0.31089,0.31221c0.13733,0.04424 0.27477,0.14817 0.36242,0.36802c0.2115,0.53062 -0.25202,0.77101 -0.33758,0.81011c0.00554,0.11547 0.02993,0.22056 0.06822,0.31862c0.03019,0.04923 0.06006,0.09877 0.0895,0.14862c0.09412,-0.00016 0.18636,0.02097 0.26998,0.06057c0.24701,-0.05777 0.48996,-0.13431 0.72422,-0.22954l0.94639,0.67821c0,0 0.23253,0.58336 -0.35081,0.8159zM338.12151,173.35795c-0.02166,0.09111 -0.03303,0.17629 -0.03554,0.25649z" fill="#000000" fill-rule="nonzero" stroke="none" stroke-width="0.5" stroke-linecap="butt" stroke-linejoin="miter"/><path d="M338.32092,173.21861l0.39195,0.60254" fill="none" fill-rule="nonzero" stroke="#001026" stroke-width="1.2" stroke-linecap="round" stroke-linejoin="miter"/><path d="M339.15743,174.17511l-1.42442,-1.86031" fill="none" fill-rule="nonzero" stroke="#a00000" stroke-width="1.2" stroke-linecap="round" stroke-linejoin="miter"/><path d="M337.77009,174.12107l2.14648,0.05493" fill="none" fill-rule="nonzero" stroke="#000000" stroke-width="1.2" stroke-linecap="round" stroke-linejoin="miter"/><path d="M337.2605,173.41367l1.61261,-2.23623" fill="none" fill-rule="nonzero" stroke="#000000" stroke-width="1.2" stroke-linecap="round" stroke-linejoin="miter"/><path d="M337.08059,183.81578c0.60545,-0.16668 0.77218,0.4388 0.77218,0.4388l0.18361,0.68008c-0.01744,0.02311 -0.03488,0.0462 -0.0523,0.06927l0.05961,-0.00343l0.03763,0.65311c0.01639,0.20195 -0.06666,0.40054 -0.22119,0.5308c-0.08424,0.7957 -0.7973,1.84205 -1.88416,1.35747c-1.09324,-0.48743 -1.20352,-2.84731 0.03315,-3.30142c0.22327,-0.08199 0.43749,-0.07992 0.63458,-0.0172c0.04302,-0.16089 0.15809,-0.3307 0.43691,-0.40746z" fill="#a00000" fill-rule="nonzero" stroke="none" stroke-width="0.5" stroke-linecap="butt" stroke-linejoin="miter"/><path d="M336.36124,185.98846c-0.12841,-0.32221 0.02864,-0.68749 0.35081,-0.8159c0.32221,-0.12841 0.68749,0.02864 0.8159,0.35081c0.12841,0.32221 -0.02864,0.68749 -0.35081,0.8159c-0.32221,0.12841 -0.68749,-0.02864 -0.8159,-0.35081z" fill="#ffffff" fill-rule="nonzero" stroke="none" stroke-width="0.5" stroke-linecap="butt" stroke-linejoin="miter"/><path d="M338.58146,174.25293l-1.18911,-1.65061l0.86491,-0.87591" fill="none" fill-rule="nonzero" stroke="#000000" stroke-width="1.2" stroke-linecap="round" stroke-linejoin="miter"/><path d="M331.7588,186.07099c-0.32221,0.12841 -0.68749,-0.02864 -0.8159,-0.35081c-0.01465,-0.03672 -0.02555,-0.07401 -0.03293,-0.1114c-0.06406,0.14526 -0.18292,0.26648 -0.34206,0.32996c-0.32221,0.12841 -0.68749,-0.02864 -0.8159,-0.35081c-0.04288,-0.10756 -0.05396,-0.21994 -0.03764,-0.32671c-0.26588,0.01945 -0.52507,-0.13317 -0.629,-0.39398c-0.02017,-0.05062 -0.0333,-0.10232 -0.03988,-0.15393c-0.29129,0.05811 -0.5916,-0.09778 -0.70554,-0.38359c-0.12841,-0.32221 0.02864,-0.68749 0.35081,-0.8159c0.02505,-0.00998 0.05035,-0.01823 0.0758,-0.02481c-0.09048,-0.30749 0.0665,-0.6389 0.37019,-0.75995c0.32221,-0.12841 0.68749,0.02864 0.8159,0.35081c0.00998,0.02505 0.01824,0.05036 0.02484,0.07579c0.30749,-0.09048 0.6389,0.0665 0.75995,0.37019c0.02234,0.05597 0.03599,0.11327 0.04172,0.17041c0.26908,-0.02369 0.53305,0.12941 0.63823,0.39322c0.03119,0.07825 0.04555,0.15902 0.04476,0.23833c0.27691,-0.0348 0.55311,0.11943 0.66128,0.3908c0.02542,0.06378 0.03965,0.12923 0.04364,0.19423c0.24477,0.00498 0.47444,0.15379 0.57084,0.39553c0.12841,0.32221 -0.02864,0.68749 -0.35081,0.8159c-0.20387,0.08125 -0.42496,0.04822 -0.59245,-0.06865c-0.01167,0.00551 -0.02359,0.01066 -0.03575,0.01554zM330.91866,185.12283c0.01465,0.03672 0.02555,0.07401 0.03293,0.1114c0.00437,-0.00992 0.009,-0.0197 0.01388,-0.02937c-0.00307,-0.007 -0.00605,-0.01409 -0.0089,-0.02123c-0.03119,-0.07825 -0.04555,-0.15902 -0.04476,-0.23833c-0.03235,0.00408 -0.06469,0.00554 -0.09676,0.00459c0.04259,0.05039 0.07788,0.10835 0.10365,0.17299zM330.29666,184.64733c-0.00054,0.0274 -0.00295,0.05462 -0.00701,0.08148c0.02157,-0.00157 0.04312,-0.00204 0.06456,-0.00139c-0.02103,-0.02491 -0.04028,-0.05161 -0.05749,-0.08011zM329.52594,183.92054c0.00955,0.0325 0.01638,0.06527 0.02052,0.09799c0.01112,-0.00221 0.02227,-0.00412 0.0334,-0.00573c-0.00318,-0.00725 -0.0063,-0.01456 -0.00926,-0.02196c-0.00998,-0.02505 -0.01823,-0.05035 -0.02481,-0.0758c-0.00661,0.00196 -0.01324,0.00378 -0.01984,0.00548z" fill="#e93e3e" fill-rule="nonzero" stroke="none" stroke-width="0.5" stroke-linecap="butt" stroke-linejoin="miter"/><path d="M335.15205,194.20319c-0.32221,0.12841 -0.68749,-0.02864 -0.8159,-0.35081c-0.03399,-0.08525 -0.048,-0.17352 -0.04421,-0.25964c-0.11211,-0.06831 -0.20385,-0.1722 -0.25616,-0.30354c-0.05366,-0.13455 -0.05747,-0.27661 -0.02028,-0.40582c-0.15784,-0.06059 -0.29088,-0.18438 -0.35839,-0.35377c-0.06335,-0.15887 -0.05722,-0.32816 0.00382,-0.4744c-0.2174,-0.02925 -0.41312,-0.17175 -0.50014,-0.39004c-0.0684,-0.17163 -0.05583,-0.35547 0.01962,-0.50924c-0.19716,-0.04287 -0.37014,-0.17978 -0.45047,-0.38132c-0.10154,-0.2547 -0.02462,-0.53639 0.17124,-0.70661c-0.12055,-0.06789 -0.21953,-0.17591 -0.27474,-0.31442c-0.06832,-0.17141 -0.05583,-0.35499 0.01931,-0.50863c-0.25815,0.0098 -0.50611,-0.14152 -0.6072,-0.39519c-0.05366,-0.13455 -0.05747,-0.27661 -0.02028,-0.40582c-0.15783,-0.06062 -0.29088,-0.18438 -0.35839,-0.35377c-0.02747,-0.06893 -0.04188,-0.13982 -0.04438,-0.20992c-0.04641,-0.05264 -0.08473,-0.11398 -0.11221,-0.1829c-0.02117,-0.05313 -0.03458,-0.10742 -0.04077,-0.16163c-0.08983,-0.06698 -0.16284,-0.15885 -0.20738,-0.27061c-0.07516,-0.18858 -0.05254,-0.39195 0.04381,-0.55393c-0.09837,-0.06792 -0.17843,-0.16459 -0.22604,-0.28399c-0.12841,-0.32221 0.02864,-0.68749 0.35081,-0.8159c0.32221,-0.12841 0.68749,0.02864 0.8159,0.35081c0.07516,0.18858 0.05254,0.39195 -0.04381,0.55393c0.09837,0.06792 0.17843,0.16459 0.22604,0.28399c0.02117,0.05313 0.03458,0.10742 0.04077,0.16163c0.08984,0.06701 0.16284,0.15885 0.20738,0.27061c0.02747,0.06893 0.04191,0.13983 0.0444,0.20992c0.04641,0.05264 0.0847,0.11398 0.11217,0.18293c0.05366,0.13455 0.05747,0.27661 0.02028,0.40582c0.15782,0.06062 0.29083,0.18438 0.35838,0.35376c0.06832,0.17141 0.05583,0.35499 -0.01931,0.50863c0.25817,-0.0098 0.50611,0.14152 0.6072,0.39519c0.10152,0.25473 0.02462,0.53639 -0.17124,0.70661c0.12055,0.06789 0.21953,0.17591 0.27474,0.31442c0.0684,0.17163 0.05583,0.35547 -0.01962,0.50924c0.19716,0.04287 0.37014,0.17978 0.45047,0.38132c0.06335,0.15887 0.05721,0.32816 -0.00382,0.4744c0.21738,0.02927 0.41312,0.17175 0.50014,0.39004c0.05366,0.13455 0.05747,0.27661 0.02028,0.40582c0.15782,0.06062 0.29088,0.18438 0.35839,0.35377c0.03399,0.08525 0.048,0.17352 0.04421,0.25964c0.11211,0.06831 0.20385,0.1722 0.25616,0.30354c0.12841,0.32221 -0.02864,0.68749 -0.35081,0.8159z" fill="#e93e3e" fill-rule="nonzero" stroke="none" stroke-width="0.5" stroke-linecap="butt" stroke-linejoin="miter"/><path d="M329.40212,182.61631c-0.12841,-0.32221 0.02864,-0.68749 0.35081,-0.8159c0.30367,-0.12107 0.64561,0.01151 0.79145,0.29693c0.02301,-0.01271 0.04704,-0.02414 0.07208,-0.03412c0.32221,-0.12841 0.68749,0.02864 0.8159,0.35081c0.04969,0.12471 0.05664,0.25588 0.02777,0.37726c0.01476,-0.00728 0.02994,-0.01404 0.04551,-0.02023c0.32221,-0.12841 0.68749,0.02864 0.8159,0.35081c0.0462,0.11589 0.05544,0.23734 0.03338,0.35134c0.24366,0.00616 0.47185,0.15469 0.56781,0.39544c0.03399,0.08528 0.04798,0.17356 0.04418,0.2597c0.25421,-0.00521 0.49669,0.14538 0.59636,0.39551c0.12841,0.32221 -0.02864,0.68749 -0.35081,0.8159c-0.32221,0.12841 -0.68749,-0.02864 -0.8159,-0.35081c-0.03399,-0.08528 -0.04798,-0.17356 -0.04418,-0.2597c-0.25421,0.00521 -0.49669,-0.14538 -0.59636,-0.39551c-0.04619,-0.11587 -0.05544,-0.23734 -0.03338,-0.35134c-0.24366,-0.00616 -0.47185,-0.15471 -0.56781,-0.39544c-0.04969,-0.12471 -0.05664,-0.25588 -0.02777,-0.37726c-0.01476,0.00728 -0.02994,0.01404 -0.04551,0.02023c-0.30367,0.12107 -0.6456,-0.01155 -0.79143,-0.29694c-0.02302,0.01272 -0.04703,0.02414 -0.07209,0.03412c-0.32221,0.12841 -0.68749,-0.02864 -0.8159,-0.35081z" fill="#e93e3e" fill-rule="nonzero" stroke="none" stroke-width="0.5" stroke-linecap="butt" stroke-linejoin="miter"/><path d="M335.87289,196.3508c-0.02569,-0.06441 0.00573,-0.13747 0.07016,-0.16318c0.06441,-0.02569 0.13747,0.00573 0.16318,0.07016c0.02569,0.06441 -0.00573,0.13747 -0.07016,0.16318c-0.06441,0.02569 -0.13747,-0.00573 -0.16318,-0.07016z" fill="#a00000" fill-rule="nonzero" stroke="none" stroke-width="0.5" stroke-linecap="butt" stroke-linejoin="miter"/><path d="M337.87741,194.75638c0.07129,-0.10341 0.17468,-0.03213 0.17468,-0.03213l0.00485,0.00333c0.13789,0.09504 0.27577,0.19009 0.41364,0.2851c0,0 0.10341,0.07129 0.03213,0.17468c-0.07129,0.10341 -0.17468,0.03213 -0.17468,0.03213c-0.13787,-0.09504 -0.2806,-0.1934 -0.4185,-0.28846c0,0 -0.10341,-0.07129 -0.03213,-0.17468z" fill="#a00000" fill-rule="nonzero" stroke="none" stroke-width="0.5" stroke-linecap="butt" stroke-linejoin="miter"/><path d="M337.85705,196.42084c-0.11045,0.04402 -0.22933,0.03215 -0.32532,-0.02219c-0.00239,0.10995 -0.04846,0.2471 -0.23783,0.32255c-0.35005,0.13952 -0.48955,-0.21049 -0.48955,-0.21049l-0.02451,-0.07531c-0.0221,-0.03713 -0.04459,-0.07299 -0.06739,-0.10782c-0.04415,0.00339 -0.08803,-0.00112 -0.12974,-0.01276c0.0102,0.03691 0.01095,0.09267 -0.05355,0.13465c-0.02102,0.01366 -0.04054,0.02043 -0.05838,0.02244c-0.00833,0.00551 -0.01796,0.01061 -0.02907,0.015c-0.1167,0.0465 -0.16318,-0.07016 -0.16318,-0.07016l-0.0261,-0.06547c-0.02102,-0.05901 -0.03407,-0.1225 -0.03862,-0.18686c-0.03822,-0.07183 -0.07771,-0.14762 -0.11842,-0.22245c-0.00638,0.00251 -0.01288,0.00517 -0.0195,0.00792l-0.1877,-0.04067c0,0 -0.01826,-0.00786 -0.03713,-0.02455c-0.00731,0.00495 -0.01528,0.00916 -0.02382,0.01258c-0.06441,0.02569 -0.13747,-0.00573 -0.16318,-0.07016c-0.01256,-0.03156 -0.01146,-0.06519 0.00053,-0.09429c-0.00475,0.00107 -0.00951,0.00188 -0.01429,0.00238c-0.01705,0.01519 -0.04032,0.02815 -0.07043,0.02892c-0.00824,0.00601 -0.0174,0.01108 -0.02733,0.01505c-0.06441,0.02569 -0.13747,-0.00573 -0.16318,-0.07016c-0.01964,-0.04926 -0.0059,-0.10353 0.03042,-0.13785c0.00001,-0.00323 0.00012,-0.00646 0.00037,-0.00963c0.0035,-0.04634 0.03269,-0.0889 0.07878,-0.10729c0.00307,-0.00123 0.00615,-0.00233 0.00924,-0.00329c0.01859,-0.05442 0.03506,-0.10902 0.05135,-0.16365c-0.04978,-0.04437 -0.09961,-0.08876 -0.14943,-0.13314c0,0 -0.09378,-0.08356 -0.0102,-0.17733c0.05531,-0.06204 0.11506,-0.04642 0.14917,-0.0288c0.01593,-0.01705 0.03218,-0.03327 0.04873,-0.04864c-0.023,-0.05767 -0.04602,-0.11541 -0.06899,-0.17306l-0.07973,0.03179c0,0 -0.04763,0.01897 -0.09414,0.00228c0.00721,0.03601 0.00913,0.1075 -0.07618,0.14152c-0.1167,0.0465 -0.16318,-0.07016 -0.16318,-0.07016l-0.0261,-0.06547c-0.0261,-0.06547 -0.05219,-0.13092 -0.07829,-0.19642c0,0 -0.0465,-0.1167 0.07016,-0.16318c0.1167,-0.0465 0.16318,0.07016 0.16318,0.07016c0.01101,0.02766 0.02673,0.06705 0.04316,0.10824c0.02281,-0.04209 0.0684,-0.06027 0.0684,-0.06027l0.05859,-0.02334l-0.00101,-0.06119c0.00025,-0.00028 0.00055,-0.00061 0.00078,-0.00087c-0.02086,-0.05235 -0.0417,-0.10467 -0.0626,-0.15706c0,0 -0.0465,-0.1167 0.07016,-0.16318c0.1167,-0.0465 0.16318,0.07016 0.16318,0.07016c0.0115,0.0289 0.02331,0.05846 0.03531,0.0886c0.02318,0.00141 0.04887,0.01087 0.07537,0.03447c0.04116,0.03666 0.04816,0.0753 0.04306,0.1071c0.0725,-0.05498 0.14097,-0.07882 0.20298,-0.08345c0.02973,-0.11101 0.10963,-0.2071 0.22458,-0.25289c0.19332,-0.07707 0.4125,0.01719 0.48955,0.21049c0.03864,0.09699 0.03419,0.20049 -0.00427,0.28932c0.00232,0.0043 0.00442,0.00877 0.00628,0.01341c0.02569,0.06441 -0.00573,0.13747 -0.07016,0.16318c-0.01753,0.00698 -0.03566,0.00972 -0.05336,0.00878c0.11151,0.07131 0.15996,0.19289 0.15996,0.19289c0.05804,0.15558 0.13723,0.28807 0.22621,0.41245c-0.00045,-0.01491 -0.00429,-0.02918 -0.01253,-0.04234c0,0 -0.03166,-0.07939 0.02276,-0.13328c-0.01187,-0.02974 -0.02373,-0.05948 -0.03557,-0.08924l-0.02452,0.02949c0,0 -0.1154,-0.04962 -0.06576,-0.16501c0.04962,-0.1154 0.16501,-0.06576 0.16501,-0.06576l0.15865,0.10826c0.0435,0.10913 0.08699,0.21826 0.13051,0.32736c0,0 0.0465,0.1167 -0.07016,0.16318c-0.02466,0.00984 -0.04621,0.01236 -0.06481,0.01026c-0.00936,0.02684 -0.02038,0.05323 -0.03251,0.07889c0.09057,0.1125 0.18365,0.22587 0.26978,0.35235c0.03458,-0.09986 0.11073,-0.18469 0.2166,-0.22687c0.19332,-0.07707 0.4125,0.01719 0.48955,0.21049c0.07707,0.19332 -0.01719,0.4125 -0.21049,0.48955zM335.75366,195.56365c0.01256,0.03156 0.01146,0.06519 -0.00053,0.09429c0.01834,-0.00416 0.03697,-0.00401 0.0546,-0.00014c0.00359,-0.00532 0.00761,-0.01038 0.01202,-0.01511l0.05198,-0.05833c-0.03514,-0.04476 -0.07096,-0.08383 -0.10752,-0.11486c-0.00732,0.02363 -0.01486,0.0473 -0.02273,0.07092c0.00477,0.00716 0.00888,0.01491 0.0122,0.02327z" fill="#a00000" fill-rule="nonzero" stroke="none" stroke-width="0.5" stroke-linecap="butt" stroke-linejoin="miter"/><path d="M338.62858,197.0238l-0.01738,0.00286c-0.14408,0.08272 -0.28813,0.16548 -0.43222,0.24817c0,0 -0.02927,0.01683 -0.07535,0.03161c-0.01229,0.00653 -0.02503,0.01248 -0.03826,0.01774c-0.19332,0.07707 -0.4125,-0.01719 -0.48955,-0.21049c-0.07707,-0.19332 0.01719,-0.4125 0.21049,-0.48955c0.01045,-0.00415 0.02102,-0.00787 0.03162,-0.01102c0.13932,-0.07999 0.27865,-0.15999 0.418,-0.24l0.11357,-0.04934c0,0 0.35005,-0.13952 0.48955,0.21049c0.13952,0.35005 -0.21049,0.48955 -0.21049,0.48955z" fill="#a00000" fill-rule="nonzero" stroke="none" stroke-width="0.5" stroke-linecap="butt" stroke-linejoin="miter"/><path d="M339.04361,203.83137c-0.16771,-0.91107 0.90855,-2.59804 0.35114,-3.48499c-0.11056,-0.02967 -0.25191,-0.11196 -0.26497,-0.3383c-0.01438,-0.24937 0.14609,-0.34291 0.25592,-0.37771c0.11613,-0.07251 0.22231,-0.06373 0.30459,-0.03147l0.03865,-0.00213c1.88364,0.0031 3.76209,-0.19539 5.63209,-0.03129c0.47991,0.04212 1.916,-0.34281 1.87388,0.65095c-0.01672,0.39458 -1.7041,0.88505 -2.00164,1.00364c-1.02564,0.40882 -2.04811,0.82682 -3.07731,1.22662c-0.16269,0.0632 -0.74545,0.32282 -0.78573,0.54104c-0.01962,0.10635 0.6091,0.67008 0.69462,0.76008c0.78169,0.82279 1.00116,1.95748 1.78983,2.77696c0.53216,0.56722 1.32415,2.57075 -0.32006,2.0588c-0.39343,-0.12251 -0.95318,-0.90792 -1.36074,-1.12772c-1.58181,-0.85315 -2.65395,-1.54824 -3.82482,-2.93436c0,0 -0.24305,-0.28793 0.04489,-0.53097c0.28793,-0.24305 0.53097,0.04489 0.53097,0.04489c0.02531,0.02996 0.0505,0.05972 0.07564,0.08917c-0.0337,-0.10851 -0.01194,-0.21127 -0.01194,-0.21127z" fill="#ffffff" fill-rule="nonzero" stroke="none" stroke-width="0.5" stroke-linecap="butt" stroke-linejoin="miter"/><path d="M344.77887,208.02644c-0.00249,0.00973 -0.00509,0.01938 -0.00785,0.029l-0.15752,-0.06304c-0.0054,0.00235 -0.01095,0.00468 -0.01658,0.0069c-0.07774,0.03095 -0.14507,0.03783 -0.20283,0.02974c0.05187,0.10813 0.10138,0.22194 0.15052,0.34429c0,0 0.13952,0.35005 -0.21049,0.48955c-0.35005,0.13952 -0.48955,-0.21049 -0.48955,-0.21049c-0.00917,-0.02321 -0.01832,-0.046 -0.02744,-0.06832l-0.35348,-0.38338c-0.04292,-0.02633 -0.08435,-0.06264 -0.12394,-0.1079c-0.01931,0.08458 -0.04167,0.17777 -0.0668,0.28136l-0.6711,-0.55869c-0.0041,-0.1072 -0.0082,-0.21435 -0.0123,-0.32152c-0.27093,-0.06113 -0.4779,-0.18654 -0.53186,-0.46951c-0.06099,-0.31994 0.13894,-0.63644 0.20843,-0.95466l0.29126,0.23205c0.01614,-0.09753 0.03234,-0.19503 0.04848,-0.29253l0.32393,0.25045c-0.0027,-0.07514 -0.00332,-0.14992 -0.002,-0.22403l0.7524,0.38727c0.06359,0.12269 0.10203,0.2602 0.11853,0.40134c0.26857,0.07311 0.52818,0.18527 0.7592,0.33432l0.05696,-0.07971c0.05093,0.06153 0.09164,0.13199 0.12282,0.20791c0.06835,0.05389 0.13325,0.11141 0.1941,0.17256l-0.15291,0.56708z" fill="#a00000" fill-rule="nonzero" stroke="none" stroke-width="0.5" stroke-linecap="butt" stroke-linejoin="miter"/><path d="M345.48196,201.27279c-0.35005,0.13952 -0.48955,-0.21049 -0.48955,-0.21049l-0.01927,-0.05364c-0.10644,-0.03185 -0.19782,-0.11031 -0.24217,-0.22153c-0.03068,-0.07692 -0.0342,-0.15795 -0.01516,-0.2325l-0.42088,-0.5304c-0.0247,-0.0297 -0.04524,-0.06373 -0.06033,-0.10158c-0.07707,-0.19332 0.01719,-0.4125 0.21049,-0.48955c0.15024,-0.05991 0.31609,-0.01632 0.41873,0.09684l0.15877,0.1671l0.01131,-0.11927c0.13195,0.07091 0.24914,0.14093 0.35119,0.20939c0.03835,-0.04455 0.08765,-0.0808 0.14606,-0.10411c0.15024,-0.05991 0.31609,-0.01632 0.41873,0.09684l0.12397,0.13049c0.03465,-0.09966 0.11074,-0.1843 0.21642,-0.22642c0.04494,-0.0179 0.0913,-0.02657 0.13691,-0.02685c0.11104,-0.07761 0.21769,-0.09731 0.28254,0.01252c0.00834,-0.00407 0.01683,-0.00782 0.02557,-0.01131c0.19332,-0.07707 0.4125,0.01719 0.48955,0.21049c0.0087,0.02187 0.01528,0.04409 0.01969,0.06639l0.06304,0.28997l0.06218,0.01481c-0.01519,0.0215 -0.03027,0.04244 -0.04527,0.06284l0.00831,0.03831c0.04219,0.1787 -0.05167,0.3661 -0.22735,0.43616c-0.07809,0.03113 -0.16032,0.03431 -0.23579,0.0143c-0.19057,0.14272 -0.3462,0.16811 -0.45637,0.0977c-0.22303,0.08277 -0.46789,-0.00902 -0.70818,-0.06448c0.02438,0.09694 0.05275,0.33787 -0.22326,0.44789z" fill="#a00000" fill-rule="nonzero" stroke="none" stroke-width="0.5" stroke-linecap="butt" stroke-linejoin="miter"/><path d="M340.26908,210.53281c-0.07707,-0.19332 0.01719,-0.4125 0.21049,-0.48955c0.19332,-0.07707 0.4125,0.01719 0.48955,0.21049c0.07707,0.19332 -0.01719,0.4125 -0.21049,0.48955c-0.19332,0.07707 -0.4125,-0.01719 -0.48955,-0.21049z" fill="#a00000" fill-rule="nonzero" stroke="none" stroke-width="0.5" stroke-linecap="butt" stroke-linejoin="miter"/><path d="M337.80853,212.74422l0.18124,-0.1992c0.25525,-0.36577 0.56649,-0.692 0.88906,-1.00002c0,0 0.27317,-0.25955 0.53271,0.01361c0.25955,0.27317 -0.01361,0.53271 -0.01361,0.53271c-0.28681,0.27096 -0.56527,0.55744 -0.78858,0.88276l-0.23813,0.27148c0,0 -0.25067,0.28132 -0.532,0.03064c-0.28132,-0.25067 -0.03064,-0.532 -0.03064,-0.532z" fill="#a00000" fill-rule="nonzero" stroke="none" stroke-width="0.5" stroke-linecap="butt" stroke-linejoin="miter"/><path d="M337.00631,213.57858c-0.07707,-0.19332 0.01719,-0.4125 0.21049,-0.48955c0.19332,-0.07707 0.4125,0.01719 0.48955,0.21049c0.07707,0.19332 -0.01719,0.4125 -0.21049,0.48955c-0.19332,0.07707 -0.4125,-0.01719 -0.48955,-0.21049z" fill="#a00000" fill-rule="nonzero" stroke="none" stroke-width="0.5" stroke-linecap="butt" stroke-linejoin="miter"/><path d="M335.65747,214.19214c-0.07707,-0.19332 0.01719,-0.4125 0.21049,-0.48955c0.19332,-0.07707 0.4125,0.01719 0.48955,0.21049c0.07707,0.19332 -0.01719,0.4125 -0.21049,0.48955c-0.19332,0.07707 -0.4125,-0.01719 -0.48955,-0.21049z" fill="#a00000" fill-rule="nonzero" stroke="none" stroke-width="0.5" stroke-linecap="butt" stroke-linejoin="miter"/><path d="M340.97742,209.26405c-0.07707,-0.19332 0.01719,-0.4125 0.21049,-0.48955c0.19332,-0.07707 0.4125,0.01719 0.48955,0.21049c0.07707,0.19332 -0.01719,0.4125 -0.21049,0.48955c-0.19332,0.07707 -0.4125,-0.01719 -0.48955,-0.21049z" fill="#a00000" fill-rule="nonzero" stroke="none" stroke-width="0.5" stroke-linecap="butt" stroke-linejoin="miter"/><path d="M345.17329,203.03888c-0.07707,-0.19332 0.01719,-0.4125 0.21049,-0.48955c0.19332,-0.07707 0.4125,0.01719 0.48955,0.21049c0.07707,0.19332 -0.01719,0.4125 -0.21049,0.48955c-0.19332,0.07707 -0.4125,-0.01719 -0.48955,-0.21049z" fill="#a00000" fill-rule="nonzero" stroke="none" stroke-width="0.5" stroke-linecap="butt" stroke-linejoin="miter"/><path d="M344.67418,204.45186c-0.07707,-0.19332 0.01719,-0.4125 0.21049,-0.48955c0.19332,-0.07707 0.4125,0.01719 0.48955,0.21049c0.07707,0.19332 -0.01719,0.4125 -0.21049,0.48955c-0.19332,0.07707 -0.4125,-0.01719 -0.48955,-0.21049z" fill="#a00000" fill-rule="nonzero" stroke="none" stroke-width="0.5" stroke-linecap="butt" stroke-linejoin="miter"/><path d="M343.90041,205.74676c-0.07707,-0.19332 0.01719,-0.4125 0.21049,-0.48955c0.19332,-0.07707 0.4125,0.01719 0.48955,0.21049c0.07707,0.19332 -0.01719,0.4125 -0.21049,0.48955c-0.19332,0.07707 -0.4125,-0.01719 -0.48955,-0.21049z" fill="#a00000" fill-rule="nonzero" stroke="none" stroke-width="0.5" stroke-linecap="butt" stroke-linejoin="miter"/><path d="M363.09541,177.96507c0.32317,-0.12883 0.66804,-0.11399 0.96395,0.01405c0.1933,-0.19676 0.4868,-0.3437 0.93228,-0.32637c0.71053,0.02767 1.00313,0.44191 1.1233,0.79618c0.50363,-0.05031 1.00078,0.20991 1.23965,0.67247l0.64011,1.2002l-0.16427,0.08763l0.29962,0.32742c-0.43194,2.34077 -1.60499,6.77513 -4.43352,2.92293c-0.09733,-0.13252 -0.178,-0.26648 -0.24414,-0.40156c-0.30635,-0.12402 -0.56351,-0.36801 -0.69557,-0.69923c-0.23655,-0.59345 0.01121,-1.26002 0.5552,-1.56229c0.04017,-0.20434 0.0864,-0.40911 0.13242,-0.61376c-0.45473,-0.04254 -0.86996,-0.33243 -1.05071,-0.78583c-0.25684,-0.64439 0.05728,-1.37494 0.70167,-1.63181z" fill="#ffffff" fill-rule="nonzero" stroke="none" stroke-width="0.5" stroke-linecap="butt" stroke-linejoin="miter"/><path d="M361.90835,184.53203c-0.24177,-0.60655 0.02237,-1.28948 0.59163,-1.58178c-0.09204,-0.10482 -0.16806,-0.22689 -0.22268,-0.36388c-0.19517,-0.48966 -0.06067,-1.02908 0.29792,-1.37256c-0.04691,-0.26194 -0.0079,-0.52652 0.10181,-0.75816c-0.22282,-0.13665 -0.40505,-0.34376 -0.50929,-0.60523c-0.25684,-0.64439 0.05728,-1.37494 0.70167,-1.63181c0.64439,-0.25684 1.37494,0.05728 1.63181,0.70167c0.13453,0.33751 0.11242,0.69864 -0.03173,1.00301c0.22282,0.13665 0.40505,0.34376 0.50929,0.60523c0.19517,0.48966 0.06067,1.02908 -0.29792,1.37256c0.09608,0.53636 -0.16814,1.08348 -0.6617,1.33694c0.09204,0.10482 0.16806,0.22689 0.22268,0.36388c0.25684,0.64439 -0.05728,1.37494 -0.70167,1.63181c-0.64439,0.25684 -1.37494,-0.05728 -1.63181,-0.70167z" fill="#a00000" fill-rule="nonzero" stroke="none" stroke-width="0.5" stroke-linecap="butt" stroke-linejoin="miter"/></g></g></g></svg>