<svg version="1.1" xmlns="http://www.w3.org/2000/svg" xmlns:xlink="http://www.w3.org/1999/xlink" width="980.48048" height="630.63063" viewBox="0,0,980.48048,630.63063"><g transform="translate(145.24024,130.31528)"><g data-paper-data="{&quot;isPaintingLayer&quot;:true}" stroke-miterlimit="10" stroke-dasharray="" stroke-dashoffset="0" style="mix-blend-mode: normal"><path d="M-145.24024,500.31535v-630.63063h980.48048v630.63063z" fill="#000000" fill-rule="nonzero" stroke="#ff3838" stroke-width="0" stroke-linecap="butt" stroke-linejoin="miter"/><text transform="translate(304.71471,259.28905) scale(0.5,0.5)" font-size="40" xml:space="preserve" fill="#ffffff" fill-rule="nonzero" stroke="none" stroke-width="1" stroke-linecap="butt" stroke-linejoin="miter" stroke-miterlimit="10" stroke-dasharray="" stroke-dashoffset="0" font-family="Marker" font-weight="normal" text-anchor="start" style="mix-blend-mode: normal"><tspan x="0" dy="0">Loading</tspan></text><g><path d="M348.92998,179.86591c-0.20644,-0.47427 2.00859,-3.54064 1.87323,-5.26991c-0.13379,-1.22436 -0.39339,-2.71331 -1.37731,-4.02001c-2.18394,-2.98766 -1.18238,-2.89896 0.05177,-4.69749c1.23901,-1.84854 2.81526,-2.49518 4.22464,3.79931c0.49667,2.16807 0.31264,4.0683 0.1125,5.61366c-0.03875,0.40005 -0.72298,3.81658 -2.53943,4.85206c-1.81646,1.03549 -2.18417,0.14179 -2.34546,-0.27763z" fill="#000000" fill-rule="evenodd" stroke="#001026" stroke-width="1.2" stroke-linecap="round" stroke-linejoin="round"/><path d="M354.15398,183.38477c-0.68241,0.79199 -2.26977,1.54681 -3.46496,-0.18416c-1.421,-2.00522 0.65202,-4.12629 1.49897,-5.05378c0.84697,-0.92749 1.34544,-1.38395 2.65384,-3.42768c0.53239,-0.80652 1.03899,-1.86791 1.29713,-2.44862c0.07422,-0.24518 0.09844,-0.49523 0.02264,-0.75494c-0.15643,-0.46942 -1.94476,4.24648 -1.15266,3.36418c0.93526,-0.87487 -0.02459,-1.57613 1.33007,-0.12677c0.15563,0.16649 -0.22326,-0.33379 -0.04028,-0.17618c1.72162,1.483 1.45117,-0.33202 0.90632,0.93216c-1.11648,2.66801 0.29879,3.4414 -0.81903,2.47506c-0.19034,-0.11938 -0.93463,-0.09052 -1.00401,0.10466l2.44738,-0.53932c-0.23766,0.5574 0.65145,-0.62845 0.38527,-0.11438c-0.29545,0.57061 -1.29119,1.90178 -1.60026,2.41017c-1.32542,2.18026 -1.98426,2.95621 -2.46046,3.53962z" fill="#000000" fill-rule="evenodd" stroke="#001026" stroke-width="1.2" stroke-linecap="round" stroke-linejoin="round"/><path d="M342.78725,189.82034c-0.66775,-0.92277 -0.15305,-2.58907 1.25196,-2.50347c1.30016,0.12593 2.54862,1.30682 3.2906,1.98438c0.74199,0.67756 3.42114,3.76366 1.53677,7.06396c-0.89056,1.37753 -4.02025,4.50675 -5.49608,2.5467c-1.47586,-1.96004 0.73424,-3.41169 1.90059,-4.51014c0.99698,-0.91295 -2.30805,-4.31204 -2.48386,-4.58144z" fill="#000000" fill-rule="evenodd" stroke="#001026" stroke-width="1.2" stroke-linecap="round" stroke-linejoin="round"/><g fill-rule="evenodd"><path d="M351.15854,186.77217c-0.50819,0.55649 -1.3164,1.08393 -2.54401,1.77262c-1.01308,0.55805 -2.93111,1.07895 -2.93111,1.07895c-1.29373,0.32897 -3.7231,0.39654 -3.51328,-1.24881c0.15654,-1.09529 0.1034,-2.10996 0.01805,-3.83437c-0.30949,-3.05849 -0.65626,-3.6473 1.51507,-4.6989c2.53105,-1.1177 4.61546,-4.39862 8.3543,0.25391c0,0 1.66293,2.63436 4.27754,5.86562c1.75651,2.18915 4.25175,5.61076 5.09532,6.8029c0.1758,0.2694 0.24676,0.57912 0.26771,0.884c-0.01974,4.8942 -0.8685,8.44622 -3.01877,8.23796c-3.60046,-0.34871 -1.65773,-7.37853 -1.65773,-7.37853c0,0 -1.72747,-2.48918 -2.57587,-3.63134z" fill="#000000" stroke="#001026" stroke-width="1.2" stroke-linecap="round" stroke-linejoin="round"/><path d="M347.595,188.64791c0,0 -1.34219,0.82904 -2.4841,-1.452c-1.23224,-2.39073 0.45029,-3.08586 1.73763,-3.86974c1.64707,-0.84998 2.30028,0.22279 3.10355,1.31008c0.67259,0.87275 1.20003,1.68095 1.20003,1.68095c0,0 -1.20027,1.44849 -3.55709,2.33068z" fill="#a00000" stroke="none" stroke-width="1" stroke-linecap="butt" stroke-linejoin="miter"/></g><g fill-rule="evenodd"><path d="M316.9582,187.06637c-0.08864,-1.16951 -0.07242,-2.37935 0.1632,-3.76985c0.32763,-2.3406 1.39569,-4.50857 1.39569,-4.50857l-3.36447,-6.43336c-0.08064,-0.20971 0.0936,-0.44521 0.28877,-0.37583l8.84942,1.91707c-0.4291,0.26129 6.91418,-4.68074 12.27104,-0.57817c5.35685,4.10256 7.17584,11.90053 4.4151,21.12251c-2.76075,9.22198 -8.37453,10.8992 -11.16676,10.02307c-2.79224,-0.87613 -3.4985,-4.52829 -3.4985,-4.52829c0,0 -2.24545,-0.26795 -4.8408,-2.13452c-1.55818,-1.10994 -3.59852,-4.53798 -3.59852,-4.53798l-5.22475,-1.81839c-0.19518,-0.06939 -0.22097,-0.32426 -0.10642,-0.46459z" fill="#000000" stroke="#001026" stroke-width="1.2" stroke-linecap="butt" stroke-linejoin="miter"/><path d="M326.52625,199.80429c-0.53845,-4.34254 2.6507,-4.43749 3.24943,-8.01372c0.70687,-4.17147 -3.28676,-10.36292 2.38843,-13.19512c5.62517,-2.83705 12.26911,3.6111 8.59673,15.47045c-2.70106,9.12682 -8.08417,11.02827 -10.87641,10.15213c-2.79223,-0.87613 -3.35817,-4.41375 -3.35817,-4.41375z" fill="#000000" stroke="none" stroke-width="1" stroke-linecap="butt" stroke-linejoin="miter"/><path d="M333.40253,184.57052c2.46484,0.08729 5.62165,0.84732 5.68099,5.44631c-0.20851,5.2797 -4.14301,6.81671 -5.53678,7.13601c-0.25971,0.0758 -0.49039,-0.14845 -0.41615,-0.39364c0.22266,-0.73556 0.52767,-2.32123 0.63918,-5.03611c0.09056,-3.01974 -0.44801,-5.79758 -0.70603,-6.78161c-0.03064,-0.20486 0.13876,-0.39036 0.33878,-0.37098z" fill="#000000" stroke="#001026" stroke-width="1.2" stroke-linecap="round" stroke-linejoin="round"/><path d="M328.71177,203.29685c0,0 -0.39872,3.59561 -2.52659,5.76187" fill="none" stroke="#001026" stroke-width="1.2" stroke-linecap="round" stroke-linejoin="round"/><path d="M331.64276,203.78262c0,0 0.76124,2.04225 0.20609,5.16845" fill="none" stroke="#001026" stroke-width="1.2" stroke-linecap="round" stroke-linejoin="round"/><path d="M329.36777,189.2273c0.8001,0.07749 1.84683,2.29884 1.65965,3.18927c-0.12751,0.79526 -1.60032,1.40973 -2.29556,1.29193c-0.3452,-0.08392 -0.33867,-1.19374 -0.23696,-2.24388c0.09687,-1.00013 0.27763,-2.34545 0.87286,-2.23732z" fill="#001026" stroke="#000000" stroke-width="1.2" stroke-linecap="round" stroke-linejoin="round"/><path d="M332.28858,175.22565c-1.38067,-1.90035 -2.36434,-6.3365 -2.36434,-6.3365" fill="none" stroke="#001026" stroke-width="1.2" stroke-linecap="round" stroke-linejoin="round"/><path d="M334.89096,169.72349c0,0 0.19168,3.75373 -0.86669,5.82168" fill="none" stroke="#001026" stroke-width="1.2" stroke-linecap="round" stroke-linejoin="round"/><g fill="#a00000"><path d="M320.17606,191.36559c1.03572,-1.31301 3.5812,-1.01598 5.69102,0.65215c2.10498,1.71813 2.93233,4.12013 1.89662,5.43312c-1.03572,1.31301 -3.5812,1.01598 -5.69102,-0.65215c-2.10984,-1.66814 -2.98234,-4.12497 -1.89662,-5.43312z" stroke="#001026" stroke-width="1.2" stroke-linecap="round" stroke-linejoin="round"/><path d="M324.9424,196.87476c-0.55005,-0.05327 -0.96138,-0.49691 -0.91295,-0.99698c0.04843,-0.50007 0.53724,-0.85653 1.08731,-0.80325c0.55005,0.05327 0.96138,0.49691 0.91295,0.99698c-0.04843,0.50007 -0.53724,0.85653 -1.08731,0.80325" stroke="none" stroke-width="1" stroke-linecap="butt" stroke-linejoin="miter"/></g><g><path d="M324.67396,184.53276c-2.05501,-1.71329 -3.02751,-4.17981 -1.72722,-5.6186c1.25028,-1.44364 4.09094,-1.06757 6.14109,0.69573c2.05501,1.71329 2.54197,3.98137 1.43203,5.53955c-1.08089,1.25815 -3.79091,1.09664 -5.84589,-0.61665z" fill="#ffffff" stroke="#001026" stroke-width="1.2" stroke-linecap="round" stroke-linejoin="round"/><path d="M327.60337,184.51361c-0.55005,-0.05327 -0.91137,-0.49208 -0.91295,-0.99698c0.04843,-0.50007 0.53724,-0.85653 1.08731,-0.80325c0.55005,0.05327 0.96138,0.49691 0.91295,0.99698c-0.04843,0.50007 -0.53724,0.85653 -1.08731,0.80325" fill="#001026" stroke="none" stroke-width="1" stroke-linecap="butt" stroke-linejoin="miter"/></g></g><path d="M329.01528,185.27141c0,0 0.05475,0.14238 0.04013,0.31377c0.17633,0.03024 0.3817,0.03991 0.65643,0.01846c0.78465,0.07384 1.56906,0.14981 2.35352,0.2258l0.4937,-0.06221c0,0 0.62481,-0.06323 0.68804,0.56159c0.06322,0.62481 -0.56159,0.68804 -0.56159,0.68804l-0.74123,0.06274c-0.75007,-0.07265 -1.50014,-0.14506 -2.24997,-0.22006c-1.5932,0.09652 -3.65252,-0.6529 -4.99181,-1.2379c-1.08179,-0.47252 -1.41765,-1.72615 -2.5986,-2.20818c-0.43711,-0.17841 -0.96044,0.11953 -1.41635,-0.00308c-0.23363,-0.06284 -0.35176,-0.37006 -0.58689,-0.42713c-1.24288,-0.3016 -1.47549,-0.00666 -2.48841,-0.97616c0,0 -0.45027,-0.43777 -0.01252,-0.88804c0.43777,-0.45027 0.88804,-0.01252 0.88804,-0.01252c1.20373,1.19359 2.6287,0.61333 4.06652,1.13445c0.98603,0.35738 1.73187,1.18234 2.28768,1.97313c0.02211,0.03145 0.04378,0.059 0.06516,0.08307c0.0692,-0.11533 0.15289,-0.18424 0.15289,-0.18424c0.17718,-0.14589 0.35435,-0.29176 0.53151,-0.43764l0.58087,-0.12855c0,0 0.62507,0.06054 0.56454,0.68562c-0.04046,0.41785 -0.33321,0.5293 -0.52286,0.55731c-0.00537,0.00441 -0.01073,0.00885 -0.01609,0.01325c0.08199,0.10758 0.16331,0.21638 0.27939,0.27629c0.32177,0.16602 0.71521,0.06007 1.08375,0.06969c-0.0791,-0.17535 -0.06183,-0.35359 -0.06183,-0.35359l1.22297,-0.28599c0.09769,0.25402 0.19535,0.50805 0.29303,0.76207z" fill="#a00000" fill-rule="nonzero" stroke="none" stroke-width="0.5" stroke-linecap="butt" stroke-linejoin="miter"/><path d="M333.39933,188.54462c0.06322,0.62481 -0.56159,0.68804 -0.56159,0.68804l-0.54044,0.04982c-0.26621,0.06033 -0.53244,0.12066 -0.79865,0.18099c-0.71013,0.04709 -1.61802,0.43828 -2.31899,0.28018c-0.60797,-0.13712 -1.30601,-0.69003 -1.88302,-0.94612c-1.5998,-0.71002 -3.43777,-1.45846 -5.11029,-1.94067c-1.48529,-0.42825 -3.65263,-0.22011 -5.22499,-0.37238c0,0 -0.62507,-0.06054 -0.56454,-0.68562c0.06054,-0.62507 0.68562,-0.56454 0.68562,-0.56454c1.67749,0.16247 3.862,-0.03029 5.45921,0.41784c1.72638,0.48437 3.62775,1.26866 5.26883,1.9993c0.05309,0.02364 1.49676,0.82872 1.61052,0.85961c0.47082,0.12785 1.40577,-0.25542 1.89378,-0.29004c0.23401,-0.05427 0.46802,-0.10852 0.70202,-0.16281l0.69446,-0.07513c0,0 0.62481,-0.06323 0.68804,0.56159z" fill="#a00000" fill-rule="nonzero" stroke="none" stroke-width="0.5" stroke-linecap="butt" stroke-linejoin="miter"/><path d="M338.96047,200.04697c-0.48482,0.39919 -0.88401,-0.08561 -0.88401,-0.08561l-0.29269,-0.40259c-2.11618,-0.47101 -4.2926,-0.9625 -6.38911,-1.53526c-1.64833,-0.4503 -3.40571,0.36486 -4.11632,-1.6431c0,0 -0.17593,-0.60286 0.42691,-0.7788c0.60286,-0.17594 0.77879,0.42692 0.77879,0.42692c0.14094,0.87245 1.66629,0.61686 2.40418,0.6922c2.50591,0.25586 5.16411,1.05673 7.57527,1.78185l0.58261,0.66042c0,0 0.39919,0.4848 -0.08561,0.88401z" fill="#a00000" fill-rule="nonzero" stroke="none" stroke-width="0.5" stroke-linecap="butt" stroke-linejoin="miter"/><path d="M338.27176,201.49064c-0.06054,0.62507 -0.68562,0.56454 -0.68562,0.56454l-0.58651,-0.06538c-2.22087,-0.59485 -4.45606,-0.86104 -6.62652,-1.63285c-1.35377,-0.48139 -2.55118,-1.48328 -3.92068,-1.83428c0,0 -0.60662,-0.16248 -0.44415,-0.76911c0.16248,-0.60662 0.76911,-0.44415 0.76911,-0.44415c1.42948,0.39572 2.62842,1.37107 4.03555,1.87103c2.13094,0.75715 4.32843,1.01134 6.51167,1.5961l0.38264,0.02848c0,0 0.62507,0.06054 0.56454,0.68562z" fill="#a00000" fill-rule="nonzero" stroke="none" stroke-width="0.5" stroke-linecap="butt" stroke-linejoin="miter"/><path d="M325.60072,180.70788c0.05225,0.62582 -0.57357,0.67809 -0.57357,0.67809l-0.10439,0.00872c-1.97633,-0.01687 -2.0208,-0.10818 -2.15307,-1.96722c0,0 -0.04306,-0.62652 0.58348,-0.66958c0.62652,-0.04306 0.66958,0.58348 0.66958,0.58348c0.02249,0.34108 -0.37142,0.97451 -0.03333,1.02496c0.28298,0.04224 0.55256,-0.14888 0.82883,-0.22332l0.10439,-0.00872c0,0 0.62582,-0.05225 0.67809,0.57357z" fill="#a00000" fill-rule="nonzero" stroke="none" stroke-width="0.5" stroke-linecap="butt" stroke-linejoin="miter"/><path d="M327.59126,181.52222c-0.62507,-0.06054 -0.56454,-0.68562 -0.56454,-0.68562l0.01174,-0.12116c0.04694,-0.48458 0.09387,-0.96916 0.14081,-1.45375c0,0 0.06054,-0.62507 0.68562,-0.56454c0.62507,0.06054 0.56454,0.68562 0.56454,0.68562c-0.04693,0.48458 -0.1056,1.09031 -0.15251,1.57487c0,0 -0.06054,0.62507 -0.68562,0.56454z" fill="#a00000" fill-rule="nonzero" stroke="none" stroke-width="0.5" stroke-linecap="butt" stroke-linejoin="miter"/><path d="M329.03872,183.43406c-0.39918,-0.48482 0.08561,-0.88401 0.08561,-0.88401l0.78717,-0.19847c0.23447,0.10423 0.46895,0.20845 0.70339,0.31268c0,0 0.57386,0.25511 0.31875,0.82896c-0.25509,0.57385 -0.82895,0.31876 -0.82895,0.31876c-0.13209,-0.05871 -0.26418,-0.11744 -0.39627,-0.17614c-0.17785,0.06321 -0.43817,0.07941 -0.66973,-0.20178z" fill="#a00000" fill-rule="nonzero" stroke="none" stroke-width="0.5" stroke-linecap="butt" stroke-linejoin="miter"/><path d="M356.86135,171.11945c0.3266,0.53639 -0.20978,0.863 -0.20978,0.863l-0.23977,-0.0574c-0.09823,0.36226 -0.16253,0.72297 -0.22477,1.08392c0.05778,0.10103 0.07776,0.18826 0.07776,0.18826c0.05097,0.22812 0.13438,0.45137 0.15294,0.68438c0.00707,0.08874 -0.16709,0.25485 -0.07809,0.25539c0.26489,0.00154 0.57206,-0.44407 0.75388,-0.25142c0.33297,0.35279 0.28052,0.9332 0.34351,1.4142c0.03537,0.27018 -0.48397,0.81498 -0.21271,0.78929c0.2175,-0.02061 0.47316,-0.33654 0.62919,-0.18362c0.65991,0.64667 0.83776,2.15067 -0.52407,2.37821c-0.39713,0.06635 -0.62583,-0.50673 -0.93875,-0.76011l-0.12855,-0.58089c0,0 0.01176,-0.12137 0.07838,-0.25195c-0.0901,-0.16129 -0.1689,-0.36715 -0.22697,-0.62136c-0.05972,-0.26145 -0.00948,-0.54491 0.06785,-0.8017c0.0389,-0.12912 0.3977,-0.33188 0.26549,-0.30528c-0.20846,0.04197 -0.34161,0.46057 -0.52796,0.35811c-0.25816,-0.14196 -0.4288,-0.37662 -0.54989,-0.64534c-0.05832,-0.00046 -0.12205,-0.009 -0.1916,-0.02763c-0.60662,-0.16248 -0.44415,-0.76911 -0.44415,-0.76911c0.20631,-0.76077 0.26292,-1.51474 0.46523,-2.27829l0.79979,-0.69042c0,0 0.53639,-0.3266 0.863,0.20978z" fill="#a00000" fill-rule="nonzero" stroke="none" stroke-width="0.5" stroke-linecap="butt" stroke-linejoin="miter"/><path d="M360.58076,172.51262c0.39918,0.48482 -0.08561,0.88401 -0.08561,0.88401l-0.52813,0.41059c-0.21364,0.10159 -0.42727,0.20317 -0.64093,0.30477c0,0 -0.56715,0.26969 -0.83684,-0.29745c-0.26969,-0.56715 0.29745,-0.83684 0.29745,-0.83684c0.21365,-0.10159 0.4273,-0.20318 0.64093,-0.30477l0.26913,-0.24589c0,0 0.48482,-0.39918 0.88401,0.08561z" fill="#a00000" fill-rule="nonzero" stroke="none" stroke-width="0.5" stroke-linecap="butt" stroke-linejoin="miter"/><path d="M362.72205,174.64447l-0.73861,0.05075c0,0 -0.62652,0.04306 -0.66958,-0.58348c-0.04306,-0.62652 0.58348,-0.66958 0.58348,-0.66958l0.73861,-0.05075c0,0 0.62652,-0.04306 0.66958,0.58348c0.04306,0.62652 -0.58348,0.66958 -0.58348,0.66958z" fill="#a00000" fill-rule="nonzero" stroke="none" stroke-width="0.5" stroke-linecap="butt" stroke-linejoin="miter"/><path d="M361.97753,167.76076c0.53201,0.33368 0.19833,0.86571 0.19833,0.86571l-0.40694,0.46401c-0.21365,0.10159 -0.4273,0.20318 -0.64093,0.30477c0,0 -0.17212,0.08184 -0.37181,0.06054c-0.12083,0.20129 -0.3501,0.3263 -0.59934,0.30218c-0.34523,-0.03344 -0.59798,-0.3404 -0.56454,-0.68562c0.03344,-0.34523 0.3404,-0.59798 0.68562,-0.56454c0.00974,0.00095 0.0194,0.00211 0.02899,0.00348c0.10952,-0.16843 0.28173,-0.25032 0.28173,-0.25032c0.21365,-0.10159 0.4273,-0.20318 0.64093,-0.30477l-0.11772,0.0029c0,0 0.3337,-0.532 0.86571,-0.19833z" fill="#a00000" fill-rule="nonzero" stroke="none" stroke-width="0.5" stroke-linecap="butt" stroke-linejoin="miter"/><path d="M356.65341,176.44842c-0.48482,0.39918 -0.88401,-0.08561 -0.88401,-0.08561l-0.22745,-0.35614c-0.00282,-0.00964 -0.00562,-0.01929 -0.00844,-0.02894c-0.17121,0.05704 -0.53453,0.11605 -0.7552,-0.29621c-0.29636,-0.55368 0.25732,-0.85005 0.25732,-0.85005l0.28407,-0.13823c0.35996,-0.29271 0.61215,-0.57988 0.88827,-0.6458c0.04003,-0.09002 0.1004,-0.16825 0.17475,-0.22949l0.53152,-0.43764v0c0.12408,-0.10216 0.2871,-0.15699 0.45974,-0.14029c0.24477,0.02371 0.44306,0.18493 0.52582,0.3998l0.40953,-0.13044c0.08237,-0.0283 0.17199,-0.03986 0.26435,-0.03092c0.34523,0.03344 0.59798,0.3404 0.56454,0.68562c-0.01016,0.105 -0.04564,0.20141 -0.09979,0.28384l-0.42711,0.68097l-0.00627,-0.00393l-0.00692,0.0241c-0.31247,0.41777 -0.67254,0.80504 -1.07323,1.13911c0,0 -0.38655,0.31829 -0.75352,0.04127c-0.03168,0.04008 -0.0706,0.07989 -0.11795,0.11888zM356.69048,175.35248c-0.00914,0.00405 -0.01829,0.00811 -0.02745,0.01217c0.00126,0.00431 0.00251,0.00861 0.00377,0.01292c0.00852,-0.00943 0.0165,-0.01783 0.02367,-0.0251z" fill="#ffffff" fill-rule="nonzero" stroke="none" stroke-width="0.5" stroke-linecap="butt" stroke-linejoin="miter"/><path d="M333.23833,186.22278c-0.46374,-0.42348 -0.04027,-0.88721 -0.04027,-0.88721l0.51018,-0.02344c-0.16649,-0.09705 -0.31689,-0.19452 -0.42376,-0.27142c0,0 -0.50485,-0.3735 -0.13135,-0.87836c0.37351,-0.50485 0.87836,-0.13135 0.87836,-0.13135c1.04585,0.80428 3.07913,0.7555 1.29986,2.38704c-0.16973,0.15564 -0.41393,0.20079 -0.62385,0.2968l-0.48634,0.40045l-0.16052,-0.19496l-0.63331,0.19866c0.01502,-0.22324 0.03055,-0.44735 0.0405,-0.67158l-0.20373,-0.10532l0.03536,-0.0684c-0.02027,-0.01535 -0.04064,-0.03232 -0.06111,-0.05099z" fill="#8da900" fill-rule="nonzero" stroke="none" stroke-width="0.5" stroke-linecap="butt" stroke-linejoin="miter"/><path d="M333.6023,194.39223c0,0 -0.39566,-0.48053 0.07923,-0.87868c-0.16836,-0.12729 -0.26863,-0.33643 -0.24678,-0.56192c0.01672,-0.1726 0.10182,-0.32209 0.2259,-0.42426v0l0.26842,-0.22102c0.02973,-0.14588 0.03808,-0.29288 0.01396,-0.43949l-0.26261,-0.52332c0,0 -0.22682,-0.47699 0.17298,-0.7641c-0.0618,-0.16049 -0.11552,-0.44876 0.15406,-0.68059c-0.22016,-0.41066 -0.48364,-0.97608 -0.56524,-1.14629l-0.0462,-0.45138c0,0 0.0164,-0.16923 0.12018,-0.32305c-0.06013,-0.02176 -0.11868,-0.04591 -0.17416,-0.07459c0,0 -0.55788,-0.28837 -0.26952,-0.84623c0.28835,-0.55789 0.84623,-0.26952 0.84623,-0.26952c0.08783,0.04541 0.30926,0.15761 0.54896,0.28344c0.11868,-0.08393 0.2669,-0.12727 0.42292,-0.11216c0.13033,0.01262 0.24747,0.06422 0.34101,0.14214c0.24141,0.01141 0.39618,0.18349 0.46879,0.28877c0.00252,-0.00284 0.00505,-0.00568 0.00764,-0.0085c0.09773,-0.25875 0.35953,-0.43069 0.64806,-0.40276c0.34523,0.03344 0.59798,0.3404 0.56454,0.68562c-0.01447,0.14939 -0.08015,0.28148 -0.17801,0.38054c-0.03976,0.12438 -0.08738,0.24746 -0.14231,0.36779c-0.00021,0.02442 -0.00154,0.0498 -0.00409,0.07621c-0.02838,0.293 -0.18079,0.43534 -0.33473,0.50393c-0.12833,0.17575 -0.27395,0.33757 -0.43442,0.47915l-0.01179,0.07944c0,0 -0.11961,0.19071 -0.32981,0.27214c-0.08981,0.15967 -0.21159,0.29418 -0.37011,0.38922c0.47771,0.46847 1.437,0.38557 1.64539,1.10056c0.29049,0.99674 -0.92329,1.6539 -1.65552,2.00951c0.13902,0.1844 0.28078,0.36629 0.44333,0.52964c0.25568,0.25692 0.8004,0.36083 0.81211,0.72309c0.01418,0.43842 -1.00386,1.1897 -1.35055,1.47161l-0.0779,0.01485l0.01063,0.02235l-0.63161,0.30034c-0.10167,0.05052 -0.21825,0.07411 -0.33955,0.06236c-0.34523,-0.03344 -0.59798,-0.3404 -0.56454,-0.68562c0.00327,-0.0337 0.00914,-0.06652 0.0174,-0.09829l0.20072,-0.82578l0.01444,0.00352c0.00796,-0.21458 0.02092,-0.42886 0.04112,-0.6426l-0.07855,0.19396zM335.18205,191.83814c0.00159,0.0128 0.00324,0.02559 0.00494,0.03841c0.01895,-0.0095 0.03757,-0.01885 0.0558,-0.02799c-0.01978,-0.00266 -0.04006,-0.00617 -0.06072,-0.01045z" fill="#8da900" fill-rule="nonzero" stroke="none" stroke-width="0.5" stroke-linecap="butt" stroke-linejoin="miter"/><path d="M337.1368,191.84739c-0.58737,-1.21984 -0.54364,-1.50414 -0.02846,-2.22049c-0.21887,-0.36359 0.04431,-0.99025 0.38285,-1.4976l-0.25898,-0.2088c-0.01689,-0.598 0.15759,-1.23034 0.49301,-1.72567c0,0 0.37351,-0.50485 0.87838,-0.13135c0.50485,0.37352 0.13135,0.87838 0.13135,0.87838c-0.01898,0.02185 -0.03696,0.04474 -0.05397,0.06855c0.21049,0.11578 0.34414,0.34753 0.32349,0.60127c0.13265,0.20252 0.11752,0.38658 0.06068,0.52777l0.06841,0.57659c-0.08062,0.17106 -0.11344,0.40238 -0.16419,0.6111c0.43924,0.41958 0.02512,0.87308 0.02512,0.87308l-0.24902,0.08644c-0.05014,0.50127 -0.13811,1.0122 -0.28576,1.50107l0.24764,0.06632l-0.18887,0.70517c-0.07393,0.29697 -0.35608,0.50296 -0.66984,0.47257c-0.28119,-0.02723 -0.50103,-0.23593 -0.55483,-0.49895l-0.15704,-0.68546z" fill="#8da900" fill-rule="nonzero" stroke="none" stroke-width="0.5" stroke-linecap="butt" stroke-linejoin="miter"/><path d="M336.09656,184.89074c0.45027,0.43777 0.01252,0.88804 0.01252,0.88804l-1.11958,0.73625c-0.25105,-0.38396 -0.50209,-0.76794 -0.75314,-1.1519c0,0 -0.2254,-0.58618 0.36076,-0.81154c0.41502,-0.15959 0.64919,0.08769 0.75056,0.24567c0.16474,-0.09909 0.45411,-0.19305 0.74888,0.09349z" fill="#a00000" fill-rule="nonzero" stroke="none" stroke-width="0.5" stroke-linecap="butt" stroke-linejoin="miter"/><path d="M336.41478,186.37296c0.62507,0.06054 0.56454,0.68562 0.56454,0.68562l-0.02347,0.2423c-0.03375,0.30594 -0.14298,0.598 -0.29542,0.87311l0.15783,0.08158l-0.29423,0.56927c-0.11163,0.22882 -0.35683,0.37571 -0.62513,0.3497c-0.26832,-0.02598 -0.48076,-0.21718 -0.54641,-0.46318l-0.17952,-0.61516l0.04309,-0.01257l-0.06548,-0.1046c0.02353,-0.28205 0.04703,-0.56412 0.07057,-0.84617c0,0 0.05914,-0.61065 0.66406,-0.56637c0.10042,-0.12125 0.2641,-0.21924 0.5296,-0.19352z" fill="#a00000" fill-rule="nonzero" stroke="none" stroke-width="0.5" stroke-linecap="butt" stroke-linejoin="miter"/><path d="M337.66036,189.46071c0.57386,0.25511 0.31875,0.82896 0.31875,0.82896l-0.14582,0.32653c-0.06856,0.15596 -0.10206,0.34247 -0.14862,0.51761c0.22531,0.20347 0.19309,0.53619 0.19309,0.53619l-0.09386,0.96916c-0.01022,0.10561 -0.04605,0.20257 -0.10075,0.28531c0.0013,0.01904 0.00252,0.03813 0.00366,0.05727l0.02642,0.26052c0,0 0.06322,0.62481 -0.56159,0.68805c-0.14789,0.01496 -0.26432,-0.00861 -0.35587,-0.05334c-0.24465,-0.10307 -0.32027,-0.34011 -0.34364,-0.47573c-0.10593,0.05714 -0.2294,0.0845 -0.35821,0.07203c-0.26832,-0.02598 -0.48076,-0.21718 -0.54641,-0.46318l-0.17952,-0.61516l0.0229,-0.00669l-0.0383,-0.05914c-0.04402,-0.62471 -0.02276,-1.25497 0.03631,-1.87843c0,0 0.06054,-0.62507 0.68562,-0.56454c0.03999,0.00387 0.07717,0.01005 0.11174,0.01823c0.06487,-0.04533 0.14677,-0.08111 0.25014,-0.10067c0.11234,-0.06887 0.24717,-0.10311 0.38846,-0.08945c0.0132,0.00127 0.02628,0.00295 0.03919,0.00502c0.08522,-0.14014 0.33999,-0.46141 0.79629,-0.25857z" fill="#a00000" fill-rule="nonzero" stroke="none" stroke-width="0.5" stroke-linecap="butt" stroke-linejoin="miter"/><path d="M336.47073,194.83531c-0.03344,0.34523 -0.3404,0.59798 -0.68562,0.56454c-0.34523,-0.03344 -0.59798,-0.3404 -0.56454,-0.68562c0.03344,-0.34523 0.3404,-0.59798 0.68562,-0.56454c0.34523,0.03344 0.59798,0.3404 0.56454,0.68562z" fill="#a00000" fill-rule="nonzero" stroke="none" stroke-width="0.5" stroke-linecap="butt" stroke-linejoin="miter"/><path d="M336.27736,189.05084c0.31212,0.03022 0.4533,0.20121 0.51642,0.36485c0.0123,0.00543 0.02438,0.01121 0.03623,0.01738c0.00426,-0.09803 0.01756,-0.19839 0.04283,-0.30141c0.05449,-0.22215 0.17729,-0.42553 0.28412,-0.63212c0.06137,-0.68079 0.14209,-1.35774 0.20574,-2.0152l0.08213,-0.84802c0.03344,-0.34523 0.3404,-0.59798 0.68562,-0.56454c0.31375,0.03039 0.55111,0.28669 0.56669,0.59233l0.03869,0.56308c0.35535,0.08118 0.44635,0.47839 0.44635,0.47839c0.52557,2.29413 0.14619,3.91258 -0.44757,6.12938l-0.18887,0.70517c-0.07393,0.29697 -0.35608,0.50296 -0.66984,0.47257c-0.09378,-0.00909 -0.18073,-0.03834 -0.25696,-0.08308c-0.06138,0.18076 -0.22537,0.45679 -0.65055,0.41562c-0.39339,-0.0381 -0.5152,-0.29977 -0.55149,-0.48855c-0.00601,-0.00468 -0.01201,-0.00952 -0.01803,-0.01454c-0.18476,0.03096 -0.52695,0.02411 -0.68705,-0.39229c-0.22539,-0.58617 0.36077,-0.81157 0.36077,-0.81157c0.13625,-0.0239 0.27812,-0.08128 0.41938,-0.13511c-0.10179,-0.1022 -0.17638,-0.25758 -0.15357,-0.49317c0.05506,-0.56857 0.57722,-0.56988 0.67119,-0.56546c0.04798,-0.1052 0.07443,-0.20978 0.0853,-0.31447c-0.00431,-0.0576 -0.00814,-0.1153 -0.01148,-0.17312c-0.08373,-0.04297 -0.15604,-0.10402 -0.21226,-0.17752c-0.24601,-0.0618 -0.49706,-0.10505 -0.7489,-0.12774l-0.53057,-1.03639c0,0 0.06054,-0.62507 0.68562,-0.56454zM336.8221,191.73226c0.06099,-0.07107 0.11012,-0.14157 0.1491,-0.21172z" fill="#000000" fill-rule="nonzero" stroke="none" stroke-width="0.5" stroke-linecap="butt" stroke-linejoin="miter"/><path d="M336.58101,191.76477l-0.07237,-0.71515" fill="none" fill-rule="nonzero" stroke="#001026" stroke-width="1.2" stroke-linecap="round" stroke-linejoin="miter"/><path d="M336.27559,190.53135l0.41397,2.30615" fill="none" fill-rule="nonzero" stroke="#a00000" stroke-width="1.2" stroke-linecap="round" stroke-linejoin="miter"/><path d="M337.48404,191.2149l-1.88285,-1.03213" fill="none" fill-rule="nonzero" stroke="#000000" stroke-width="1.2" stroke-linecap="round" stroke-linejoin="miter"/><path d="M335.15513,193.32622l2.45786,-1.24906" fill="none" fill-rule="nonzero" stroke="#000000" stroke-width="1.2" stroke-linecap="round" stroke-linejoin="miter"/><path d="M342.53808,182.91315c-0.61456,-0.1292 -0.48536,-0.74378 -0.48536,-0.74378l0.14833,-0.68863c0.02609,-0.01254 0.05217,-0.02507 0.07825,-0.03762l-0.05457,-0.02426l0.26574,-0.59779c0.07795,-0.18702 0.24274,-0.3255 0.43976,-0.37051c0.4394,-0.66871 1.55256,-1.27214 2.29668,-0.34353c0.74849,0.93407 -0.23454,3.08232 -1.54184,2.91946c-0.23602,-0.02941 -0.42552,-0.12937 -0.57196,-0.27541c-0.11194,0.12331 -0.29201,0.22153 -0.57503,0.16204z" fill="#a00000" fill-rule="nonzero" stroke="none" stroke-width="0.5" stroke-linecap="butt" stroke-linejoin="miter"/><path d="M344.17283,181.31135c-0.03344,0.34523 -0.3404,0.59798 -0.68562,0.56454c-0.34523,-0.03344 -0.59798,-0.3404 -0.56454,-0.68562c0.03344,-0.34523 0.3404,-0.59798 0.68562,-0.56454c0.34523,0.03344 0.59798,0.3404 0.56454,0.68562z" fill="#ffffff" fill-rule="nonzero" stroke="none" stroke-width="0.5" stroke-linecap="butt" stroke-linejoin="miter"/><path d="M336.82326,190.72601l0.30085,2.01194l-1.17007,0.38239" fill="none" fill-rule="nonzero" stroke="#000000" stroke-width="1.2" stroke-linecap="round" stroke-linejoin="miter"/><path d="M348.30177,183.34636c0.34523,0.03344 0.59798,0.3404 0.56454,0.68562c-0.0038,0.03934 -0.01118,0.07748 -0.02174,0.11412c0.12349,-0.09978 0.28467,-0.15308 0.4552,-0.13658c0.34523,0.03344 0.59798,0.3404 0.56454,0.68562c-0.01115,0.11525 -0.0528,0.22022 -0.11621,0.30765c0.24525,0.10452 0.40572,0.3589 0.37866,0.63835c-0.00525,0.05423 -0.01726,0.1062 -0.03509,0.1551c0.28555,0.08178 0.4811,0.35793 0.45145,0.66418c-0.03344,0.34523 -0.3404,0.59798 -0.68562,0.56454c-0.02683,-0.0026 -0.0531,-0.00686 -0.07873,-0.01265c-0.06043,0.31476 -0.35179,0.53746 -0.67718,0.50595c-0.34523,-0.03344 -0.59798,-0.3404 -0.56454,-0.68562c0.0026,-0.02683 0.00686,-0.05311 0.01264,-0.07874c-0.31476,-0.06043 -0.53746,-0.35179 -0.50595,-0.67718c0.0058,-0.05998 0.0199,-0.11718 0.04098,-0.17058c-0.25004,-0.1022 -0.41455,-0.35924 -0.38717,-0.64191c0.00812,-0.08384 0.03236,-0.16221 0.06938,-0.23237c-0.2621,-0.09593 -0.43694,-0.35953 -0.40878,-0.65029c0.00662,-0.06834 0.02397,-0.13304 0.05018,-0.19264c-0.21529,-0.11657 -0.3513,-0.35404 -0.32622,-0.61307c0.03344,-0.34523 0.3404,-0.59798 0.68562,-0.56454c0.21843,0.02116 0.39985,0.15182 0.49518,0.33241c0.01291,0.00046 0.02586,0.00131 0.03889,0.00257zM348.61418,184.57407c0.0038,-0.03934 0.01118,-0.07748 0.02174,-0.11412c-0.00843,0.00681 -0.01703,0.01341 -0.02579,0.01976c-0.00047,0.00764 -0.00108,0.0153 -0.00181,0.02297c-0.00812,0.08384 -0.03236,0.16221 -0.06938,0.23237c0.03063,0.0112 0.06005,0.02471 0.08811,0.04026c-0.01476,-0.06429 -0.01959,-0.13198 -0.01288,-0.20125zM348.94925,185.28167c0.01305,-0.02412 0.02764,-0.04721 0.04357,-0.06921c-0.01991,-0.00848 -0.03926,-0.01795 -0.058,-0.02835c0.00729,0.03177 0.01216,0.06434 0.0144,0.09756zM349.30142,186.28079c0.00639,-0.03327 0.01533,-0.06549 0.02665,-0.09651c-0.0109,-0.00313 -0.02168,-0.00654 -0.03232,-0.01021c-0.00048,0.0079 -0.00108,0.01582 -0.00185,0.02377c-0.0026,0.02683 -0.00686,0.0531 -0.01265,0.07873c0.00677,0.0013 0.01349,0.0027 0.02015,0.00421z" fill="#e93e3e" fill-rule="nonzero" stroke="none" stroke-width="0.5" stroke-linecap="butt" stroke-linejoin="miter"/><path d="M349.01081,174.56321c0.34523,0.03344 0.59798,0.3404 0.56454,0.68562c-0.00885,0.09135 -0.03684,0.17623 -0.07965,0.25106c0.06835,0.11207 0.10229,0.24644 0.08864,0.38716c-0.01396,0.14418 -0.07564,0.27221 -0.16786,0.37003c0.11253,0.12618 0.17407,0.29713 0.1565,0.47865c-0.01648,0.17021 -0.09945,0.31792 -0.2207,0.41994c0.17985,0.1256 0.28856,0.34192 0.2659,0.57582c-0.01782,0.18388 -0.11323,0.34155 -0.25071,0.44368c0.1556,0.12843 0.24665,0.32938 0.22574,0.54531c-0.02642,0.27294 -0.22382,0.48807 -0.47592,0.54967c0.07604,0.11557 0.11455,0.25693 0.10018,0.40534c-0.01779,0.18365 -0.11299,0.34113 -0.25017,0.44328c0.23395,0.10954 0.38505,0.35764 0.35871,0.62945c-0.01396,0.14418 -0.07564,0.27221 -0.16786,0.37003c0.11252,0.12619 0.17407,0.29713 0.1565,0.47865c-0.00714,0.07384 -0.02683,0.14346 -0.0567,0.20694c0.01713,0.06804 0.02309,0.14013 0.01594,0.21398c-0.00552,0.05693 -0.01847,0.11133 -0.03779,0.16235c0.04916,0.10071 0.07199,0.2158 0.06038,0.33554c-0.01958,0.20207 -0.13286,0.37246 -0.29269,0.47232c0.05632,0.10543 0.0832,0.22805 0.07082,0.35597c-0.03344,0.34523 -0.3404,0.59798 -0.68562,0.56454c-0.34523,-0.03344 -0.59798,-0.3404 -0.56454,-0.68562c0.01958,-0.20207 0.13286,-0.37246 0.29269,-0.47232c-0.05632,-0.10543 -0.0832,-0.22805 -0.07082,-0.35597c0.00552,-0.05693 0.01847,-0.11133 0.03779,-0.16235c-0.04916,-0.10072 -0.07199,-0.2158 -0.06038,-0.33554c0.00714,-0.07384 0.02681,-0.14346 0.0567,-0.20695c-0.01713,-0.06804 -0.02308,-0.14014 -0.01592,-0.214c0.01396,-0.14418 0.07564,-0.27221 0.16786,-0.37003c-0.11251,-0.12618 -0.17406,-0.29712 -0.1565,-0.47863c0.01779,-0.18365 0.11299,-0.34113 0.25017,-0.44328c-0.23395,-0.10955 -0.38505,-0.35764 -0.35871,-0.62945c0.02644,-0.27293 0.22382,-0.48807 0.47592,-0.54967c-0.07604,-0.11557 -0.11455,-0.25693 -0.10018,-0.40534c0.01782,-0.18388 0.11323,-0.34155 0.25071,-0.44368c-0.1556,-0.12843 -0.24665,-0.32938 -0.22574,-0.54531c0.01648,-0.17021 0.09946,-0.31791 0.22071,-0.41995c-0.17984,-0.12559 -0.28856,-0.34192 -0.2659,-0.57582c0.01396,-0.14418 0.07564,-0.27221 0.16786,-0.37003c-0.11251,-0.12618 -0.17407,-0.29713 -0.1565,-0.47865c0.00885,-0.09135 0.03684,-0.17623 0.07965,-0.25106c-0.06835,-0.11207 -0.10229,-0.24644 -0.08864,-0.38716c0.03344,-0.34523 0.3404,-0.59798 0.68562,-0.56454z" fill="#e93e3e" fill-rule="nonzero" stroke="none" stroke-width="0.5" stroke-linecap="butt" stroke-linejoin="miter"/><path d="M348.81402,187.49684c-0.03344,0.34523 -0.3404,0.59798 -0.68562,0.56454c-0.32539,-0.03151 -0.56861,-0.30599 -0.56751,-0.62649c-0.02627,0.00076 -0.05287,-0.00009 -0.0797,-0.00269c-0.34523,-0.03344 -0.59798,-0.3404 -0.56454,-0.68562c0.01295,-0.13362 0.06687,-0.25339 0.14812,-0.34807c-0.01645,-0.0003 -0.03303,-0.00124 -0.04972,-0.00286c-0.34523,-0.03344 -0.59798,-0.3404 -0.56454,-0.68562c0.01203,-0.12417 0.05944,-0.23638 0.13128,-0.32759c-0.21377,-0.11708 -0.34856,-0.35367 -0.32358,-0.61162c0.00885,-0.09138 0.03685,-0.17626 0.07968,-0.25109c-0.22835,-0.11182 -0.37489,-0.35676 -0.34892,-0.62475c0.03344,-0.34523 0.3404,-0.59798 0.68562,-0.56454c0.34523,0.03344 0.59798,0.3404 0.56454,0.68562c-0.00885,0.09138 -0.03685,0.17626 -0.07968,0.25109c0.22835,0.11182 0.37489,0.35676 0.34892,0.62475c-0.01202,0.12416 -0.05944,0.23637 -0.13128,0.32759c0.21377,0.11708 0.34855,0.35368 0.32358,0.61162c-0.01295,0.13362 -0.06687,0.25339 -0.14812,0.34807c0.01645,0.0003 0.03303,0.00124 0.04972,0.00286c0.32539,0.03151 0.56859,0.30601 0.5675,0.6265c0.02628,-0.00077 0.05288,0.0001 0.0797,0.0027c0.34523,0.03344 0.59798,0.3404 0.56454,0.68562z" fill="#e93e3e" fill-rule="nonzero" stroke="none" stroke-width="0.5" stroke-linecap="butt" stroke-linejoin="miter"/><path d="M349.35388,172.32398c-0.00667,0.06904 -0.06808,0.11958 -0.13712,0.11291c-0.06904,-0.00667 -0.11958,-0.06808 -0.11291,-0.13712c0.00667,-0.06904 0.06808,-0.11958 0.13712,-0.11291c0.06904,0.00667 0.11958,0.06808 0.11291,0.13712z" fill="#a00000" fill-rule="nonzero" stroke="none" stroke-width="0.5" stroke-linecap="butt" stroke-linejoin="miter"/><path d="M346.84166,172.82299c-0.11074,0.05927 -0.17,-0.05146 -0.17,-0.05146l-0.00277,-0.00518c-0.07902,-0.14764 -0.15806,-0.29529 -0.23708,-0.44293c0,0 -0.05927,-0.11074 0.05146,-0.17c0.11074,-0.05927 0.17,0.05146 0.17,0.05146c0.07902,0.14765 0.16083,0.30046 0.23986,0.44812c0,0 0.05927,0.11074 -0.05146,0.17z" fill="#a00000" fill-rule="nonzero" stroke="none" stroke-width="0.5" stroke-linecap="butt" stroke-linejoin="miter"/><path d="M347.62224,171.35279c0.11834,0.01146 0.21857,0.0765 0.27902,0.16876c0.0525,-0.09664 0.15627,-0.19743 0.35918,-0.17776c0.37506,0.03633 0.33872,0.41137 0.33872,0.41137l-0.01272,0.07817c0.00265,0.04311 0.00622,0.08529 0.01052,0.1267c0.0408,0.01721 0.07773,0.04132 0.10948,0.07078c0.00781,-0.03748 0.03273,-0.08739 0.10928,-0.09515c0.02494,-0.00252 0.04539,0.00043 0.06219,0.00679c0.00994,-0.00109 0.02081,-0.0012 0.03271,-0.00003c0.12503,0.0121 0.11291,0.13712 0.11291,0.13712l-0.00679,0.07016c-0.00833,0.06207 -0.02584,0.12449 -0.05127,0.18379c0.00107,0.08135 0.00145,0.1668 0.00337,0.252c0.00683,0.00069 0.0138,0.00132 0.02095,0.0019l0.14821,0.12213c0,0 0.01262,0.01534 0.02175,0.03883c0.00876,-0.00104 0.01778,-0.00115 0.02693,-0.00026c0.06904,0.00667 0.11958,0.06808 0.11291,0.13712c-0.00328,0.03381 -0.01967,0.06318 -0.04366,0.08358c0.00472,0.00123 0.00933,0.00269 0.0138,0.00444c0.0221,-0.00568 0.04873,-0.00655 0.07585,0.00656c0.0101,-0.00155 0.02054,-0.00187 0.03119,-0.00085c0.06904,0.00667 0.11958,0.06808 0.11291,0.13712c-0.00511,0.05278 -0.04218,0.09473 -0.09019,0.10859c-0.00149,0.00285 -0.00306,0.00566 -0.00473,0.00839c-0.02435,0.03959 -0.06979,0.06405 -0.11916,0.05928c-0.00329,-0.00032 -0.00653,-0.00075 -0.00972,-0.00132c-0.04145,0.03987 -0.0811,0.08085 -0.12063,0.12194c0.02393,0.06226 0.04789,0.12453 0.07183,0.18679c0,0 0.04509,0.11724 -0.07216,0.1623c-0.07759,0.02982 -0.12356,-0.01143 -0.1458,-0.04275c-0.02198,0.00787 -0.04384,0.01484 -0.0656,0.02091c-0.00598,0.06181 -0.01197,0.12365 -0.01796,0.18544l0.08544,0.00828c0,0 0.05102,0.00494 0.08473,0.0411c0.01009,-0.03531 0.04113,-0.09974 0.13254,-0.09089c0.12503,0.0121 0.11291,0.13712 0.11291,0.13712l-0.00679,0.07016c-0.00679,0.07016 -0.01359,0.14029 -0.02039,0.21047c0,0 -0.0121,0.12503 -0.13712,0.11291c-0.12503,-0.0121 -0.11291,-0.13712 -0.11291,-0.13712c0.00288,-0.02966 0.00695,-0.07185 0.01122,-0.11598c-0.03957,0.02697 -0.08841,0.02223 -0.08841,0.02223l-0.06277,-0.00608l-0.02714,0.05486c-0.00036,0.00014 -0.00074,0.00029 -0.00111,0.00042c-0.00543,0.05609 -0.01087,0.11217 -0.0163,0.16829c0,0 -0.0121,0.12503 -0.13712,0.11291c-0.12503,-0.0121 -0.11291,-0.13712 -0.11291,-0.13712c0.003,-0.03096 0.00607,-0.06265 0.00918,-0.09492c-0.01998,-0.01188 -0.03845,-0.03205 -0.05119,-0.06515c-0.01978,-0.05145 -0.00831,-0.089 0.01079,-0.11494c-0.08963,0.01568 -0.1614,0.00549 -0.21864,-0.0188c-0.07726,0.08506 -0.19231,0.13385 -0.31548,0.12191c-0.20714,-0.02006 -0.35879,-0.20424 -0.33872,-0.41137c0.01008,-0.10394 0.06145,-0.19389 0.13632,-0.25521c-0.00009,-0.00487 0.00009,-0.00981 0.00057,-0.0148c0.00667,-0.06904 0.06808,-0.11958 0.13712,-0.11291c0.01877,0.00182 0.03618,0.00768 0.05144,0.01664c-0.06645,-0.11446 -0.05383,-0.24476 -0.05383,-0.24476c0.01967,-0.16488 0.00996,-0.31895 -0.01213,-0.47025c-0.00643,0.01345 -0.00956,0.0279 -0.00827,0.04338c0,0 -0.00824,0.08506 -0.08129,0.10805c-0.00308,0.03187 -0.00617,0.06374 -0.00925,0.09562l0.0353,-0.01499c0,0 0.07984,0.09697 -0.01712,0.1768c-0.09697,0.07984 -0.1768,-0.01712 -0.1768,-0.01712l-0.09142,-0.1689c0.01133,-0.11693 0.02266,-0.23386 0.03396,-0.35078c0,0 0.0121,-0.12503 0.13712,-0.11291c0.02642,0.00256 0.04673,0.01017 0.0623,0.02056c0.02064,-0.01957 0.04252,-0.03801 0.06505,-0.05523c-0.02899,-0.1415 -0.05979,-0.28489 -0.07841,-0.43678c-0.07648,0.07292 -0.18304,0.11344 -0.29647,0.10245c-0.20714,-0.02006 -0.35879,-0.20424 -0.33872,-0.41137c0.02006,-0.20714 0.20424,-0.35879 0.41137,-0.33872zM349.09928,173.07829c0.00328,-0.03381 0.01967,-0.06318 0.04366,-0.08358c-0.01822,-0.00472 -0.0347,-0.01336 -0.04859,-0.02488c-0.00563,0.00309 -0.01153,0.00573 -0.0176,0.00792l-0.07293,0.02804c0.01073,0.05589 0.02469,0.10703 0.04296,0.15135c0.01734,-0.01765 0.03487,-0.03524 0.05269,-0.05262c-0.00096,-0.00856 -0.00105,-0.01732 -0.00018,-0.02625z" fill="#a00000" fill-rule="nonzero" stroke="none" stroke-width="0.5" stroke-linecap="butt" stroke-linejoin="miter"/><path d="M347.21265,170.46337l0.01675,0.00542c0.16597,-0.00753 0.33193,-0.01508 0.4979,-0.0226c0,0 0.03373,-0.00154 0.08145,0.00642c0.0139,-0.00019 0.02795,0.00038 0.04213,0.00175c0.20714,0.02006 0.35879,0.20424 0.33872,0.41137c-0.02006,0.20714 -0.20424,0.35879 -0.41137,0.33872c-0.01121,-0.00109 -0.02228,-0.00265 -0.03315,-0.00468c-0.16049,0.00728 -0.32098,0.01458 -0.48149,0.02185l-0.12356,-0.00816c0,0 -0.37506,-0.03633 -0.33872,-0.41137c0.03633,-0.37506 0.41137,-0.33872 0.41137,-0.33872z" fill="#a00000" fill-rule="nonzero" stroke="none" stroke-width="0.5" stroke-linecap="butt" stroke-linejoin="miter"/><path d="M349.96226,164.22199c-0.26827,0.88668 -1.99775,1.89319 -1.9086,2.93694c0.08468,0.07702 0.17263,0.21494 0.08055,0.4221c-0.10146,0.22823 -0.28696,0.23792 -0.4005,0.21852c-0.13645,0.01126 -0.22681,-0.04518 -0.28515,-0.11157l-0.03535,-0.01582c-1.67296,-0.86565 -3.43366,-1.54973 -5.02071,-2.55223c-0.40731,-0.25728 -1.86016,-0.57299 -1.36749,-1.43706c0.19561,-0.34308 1.92021,-0.00608 2.23902,0.0248c1.09898,0.10643 2.19933,0.20327 3.29734,0.31935c0.17357,0.01834 0.81051,0.05452 0.9463,-0.12099c0.06616,-0.08553 -0.23447,-0.87468 -0.26924,-0.99383c-0.31795,-1.08948 0.00679,-2.19863 -0.31886,-3.28835c-0.21318,-0.748 0.00063,-2.89173 1.22763,-1.68344c0.2936,0.28912 0.43135,1.24369 0.69295,1.6258c1.01525,1.48299 1.64985,2.592 2.05565,4.3605c0,0 0.08414,0.36729 -0.28314,0.45142c-0.36729,0.08414 -0.45142,-0.28314 -0.45142,-0.28314c-0.00877,-0.03825 -0.01753,-0.07623 -0.02637,-0.1139c-0.01974,0.11189 -0.08616,0.19328 -0.08616,0.19328l-0.08646,0.04761z" fill="#ffffff" fill-rule="nonzero" stroke="none" stroke-width="0.5" stroke-linecap="butt" stroke-linejoin="miter"/><path d="M346.78593,157.86567c0.00667,-0.0075 0.01342,-0.0149 0.02023,-0.02218l0.11114,0.1282c0.00589,0.00038 0.01188,0.00085 0.01792,0.00145c0.08329,0.00808 0.14629,0.03282 0.1939,0.06649c0.00344,-0.11989 0.01154,-0.24374 0.02392,-0.37498c0,0 0.03633,-0.37506 0.41137,-0.33872c0.37506,0.03633 0.33872,0.41137 0.33872,0.41137c-0.00248,0.02482 -0.00479,0.04926 -0.0069,0.0733l0.13859,0.50272c0.02612,0.04307 0.04628,0.09433 0.06073,0.15271c0.0559,-0.06635 0.11847,-0.13893 0.18827,-0.21949l0.3406,0.80405c-0.04546,0.09715 -0.09091,0.19429 -0.13635,0.29143c0.21282,0.17845 0.33935,0.38475 0.25768,0.66101c-0.09234,0.31235 -0.41505,0.50208 -0.62259,0.75312l-0.1526,-0.33972c-0.05904,0.07929 -0.11808,0.15855 -0.1771,0.23783l-0.1732,-0.37101c-0.03202,0.06802 -0.06573,0.13479 -0.10085,0.20006l-0.4914,-0.68892c-0.00031,-0.13819 0.02851,-0.27802 0.07848,-0.41105c-0.20523,-0.18802 -0.38464,-0.40663 -0.52171,-0.64496l-0.08715,0.04475c-0.01708,-0.07803 -0.021,-0.15931 -0.01392,-0.24108c-0.03609,-0.0792 -0.06742,-0.16008 -0.09347,-0.24232l0.3957,-0.43402z" fill="#a00000" fill-rule="nonzero" stroke="none" stroke-width="0.5" stroke-linecap="butt" stroke-linejoin="miter"/><path d="M343.06711,163.54692c0.37506,0.03633 0.33872,0.41137 0.33872,0.41137l-0.00744,0.05652c0.08002,0.07708 0.12531,0.18868 0.11378,0.30785c-0.00798,0.08243 -0.04197,0.15608 -0.09303,0.2136l0.13114,0.66427c0.00835,0.03771 0.01101,0.07735 0.00708,0.1179c-0.02006,0.20714 -0.20424,0.35879 -0.41137,0.33872c-0.16099,-0.01558 -0.28845,-0.13031 -0.32785,-0.27791l-0.06459,-0.22127l-0.06469,0.10083c-0.08482,-0.12348 -0.15689,-0.2394 -0.21627,-0.34701c-0.05449,0.02205 -0.11494,0.03165 -0.1775,0.02562c-0.16099,-0.01558 -0.28845,-0.13031 -0.32785,-0.27791l-0.05042,-0.17277c-0.07645,0.07271 -0.18285,0.11309 -0.2961,0.10211c-0.04816,-0.00467 -0.09332,-0.01821 -0.134,-0.03884c-0.13427,0.01813 -0.23807,-0.01323 -0.24542,-0.14057c-0.00926,-0.00021 -0.01856,-0.00077 -0.02792,-0.00167c-0.20714,-0.02006 -0.35879,-0.20424 -0.33872,-0.41137c0.00227,-0.02344 0.00664,-0.04617 0.01291,-0.06803l0.07679,-0.28666l-0.04848,-0.04165c0.02336,-0.01215 0.04637,-0.02386 0.06903,-0.03512l0.01014,-0.03787c0.04437,-0.17817 0.21365,-0.30177 0.4019,-0.28354c0.08365,0.00811 0.15823,0.04296 0.21614,0.09529c0.23477,-0.03957 0.38473,0.00914 0.45043,0.12221c0.23616,0.02858 0.41177,0.22235 0.59997,0.38175c0.02276,-0.09733 0.10788,-0.32451 0.40364,-0.29586z" fill="#a00000" fill-rule="nonzero" stroke="none" stroke-width="0.5" stroke-linecap="butt" stroke-linejoin="miter"/><path d="M351.94285,157.70366c-0.02006,0.20714 -0.20424,0.35879 -0.41137,0.33872c-0.20714,-0.02006 -0.35879,-0.20424 -0.33872,-0.41137c0.02006,-0.20714 0.20424,-0.35879 0.41137,-0.33872c0.20714,0.02006 0.35879,0.20424 0.33872,0.41137z" fill="#a00000" fill-rule="nonzero" stroke="none" stroke-width="0.5" stroke-linecap="butt" stroke-linejoin="miter"/><path d="M355.14308,156.86511l-0.25237,0.09403c-0.39445,0.20818 -0.82054,0.35561 -1.24838,0.48164c0,0 -0.36171,0.10557 -0.46728,-0.25613c-0.10557,-0.36171 0.25613,-0.46728 0.25613,-0.46728c0.37907,-0.10947 0.75784,-0.23656 1.10535,-0.42342l0.33606,-0.13223c0,0 0.3517,-0.13523 0.48693,0.21647c0.13523,0.3517 -0.21647,0.48693 -0.21647,0.48693z" fill="#a00000" fill-rule="nonzero" stroke="none" stroke-width="0.5" stroke-linecap="butt" stroke-linejoin="miter"/><path d="M356.23836,156.49096c-0.02006,0.20714 -0.20424,0.35879 -0.41137,0.33872c-0.20714,-0.02006 -0.35879,-0.20424 -0.33872,-0.41137c0.02006,-0.20714 0.20424,-0.35879 0.41137,-0.33872c0.20714,0.02006 0.35879,0.20424 0.33872,0.41137z" fill="#a00000" fill-rule="nonzero" stroke="none" stroke-width="0.5" stroke-linecap="butt" stroke-linejoin="miter"/><path d="M357.71844,156.56348c-0.02006,0.20714 -0.20424,0.35879 -0.41137,0.33872c-0.20714,-0.02006 -0.35879,-0.20424 -0.33872,-0.41137c0.02006,-0.20714 0.20424,-0.35879 0.41137,-0.33872c0.20714,0.02006 0.35879,0.20424 0.33872,0.41137z" fill="#a00000" fill-rule="nonzero" stroke="none" stroke-width="0.5" stroke-linecap="butt" stroke-linejoin="miter"/><path d="M350.732,158.507c-0.02006,0.20714 -0.20424,0.35879 -0.41137,0.33872c-0.20714,-0.02006 -0.35879,-0.20424 -0.33872,-0.41137c0.02006,-0.20714 0.20424,-0.35879 0.41137,-0.33872c0.20714,0.02006 0.35879,0.20424 0.33872,0.41137z" fill="#a00000" fill-rule="nonzero" stroke="none" stroke-width="0.5" stroke-linecap="butt" stroke-linejoin="miter"/><path d="M344.15054,162.11843c-0.02006,0.20714 -0.20424,0.35879 -0.41137,0.33872c-0.20714,-0.02006 -0.35879,-0.20424 -0.33872,-0.41137c0.02006,-0.20714 0.20424,-0.35879 0.41137,-0.33872c0.20714,0.02006 0.35879,0.20424 0.33872,0.41137z" fill="#a00000" fill-rule="nonzero" stroke="none" stroke-width="0.5" stroke-linecap="butt" stroke-linejoin="miter"/><path d="M345.24147,161.09106c-0.02006,0.20714 -0.20424,0.35879 -0.41137,0.33872c-0.20714,-0.02006 -0.35879,-0.20424 -0.33872,-0.41137c0.02006,-0.20714 0.20424,-0.35879 0.41137,-0.33872c0.20714,0.02006 0.35879,0.20424 0.33872,0.41137z" fill="#a00000" fill-rule="nonzero" stroke="none" stroke-width="0.5" stroke-linecap="butt" stroke-linejoin="miter"/><path d="M346.52246,160.29453c-0.02006,0.20714 -0.20424,0.35879 -0.41137,0.33872c-0.20714,-0.02006 -0.35879,-0.20424 -0.33872,-0.41137c0.02006,-0.20714 0.20424,-0.35879 0.41137,-0.33872c0.20714,0.02006 0.35879,0.20424 0.33872,0.41137z" fill="#a00000" fill-rule="nonzero" stroke="none" stroke-width="0.5" stroke-linecap="butt" stroke-linejoin="miter"/><path d="M316.73327,176.19648c-0.34629,-0.03353 -0.64605,-0.20469 -0.85041,-0.45406c-0.26197,0.08637 -0.59018,0.08251 -0.9782,-0.13698c-0.61891,-0.35008 -0.68924,-0.85236 -0.63378,-1.2223c-0.47074,-0.18599 -0.79343,-0.64506 -0.79387,-1.16565l-0.01919,-1.36009l0.18616,-0.00263l-0.11635,-0.4283c1.45624,-1.88283 4.53034,-5.28718 5.27994,-0.56721c0.0258,0.16239 0.03614,0.31839 0.03307,0.4688c0.21548,0.25057 0.33233,0.58525 0.29797,0.94018c-0.06158,0.63588 -0.58718,1.1149 -1.20921,1.1344c-0.12932,0.16323 -0.26421,0.32407 -0.39888,0.4849c0.38473,0.24613 0.62103,0.69405 0.574,1.17987c-0.06687,0.69044 -0.68079,1.19595 -1.37125,1.12909z" fill="#ffffff" fill-rule="nonzero" stroke="none" stroke-width="0.5" stroke-linecap="butt" stroke-linejoin="miter"/><path d="M320.79676,170.90291c-0.06294,0.64992 -0.6106,1.13596 -1.25053,1.13501c0.03379,0.13535 0.04545,0.27867 0.03124,0.42544c-0.05081,0.52467 -0.4175,0.94253 -0.89361,1.0836c-0.07829,0.25435 -0.23417,0.47163 -0.43781,0.62727c0.13547,0.22353 0.20259,0.49111 0.17545,0.77128c-0.06687,0.69044 -0.68079,1.19595 -1.37125,1.12909c-0.69044,-0.06687 -1.19595,-0.68079 -1.12909,-1.37125c0.03503,-0.36164 0.22013,-0.67254 0.4877,-0.87704c-0.13547,-0.22353 -0.20259,-0.49111 -0.17545,-0.77128c0.05081,-0.52467 0.4175,-0.94253 0.89361,-1.0836c0.1603,-0.52079 0.6458,-0.88608 1.20064,-0.88526c-0.03379,-0.13535 -0.04545,-0.27867 -0.03124,-0.42544c0.06687,-0.69044 0.68079,-1.19595 1.37125,-1.12909c0.69044,0.06687 1.19595,0.68079 1.12909,1.37125z" fill="#a00000" fill-rule="nonzero" stroke="none" stroke-width="0.5" stroke-linecap="butt" stroke-linejoin="miter"/></g></g></g></svg>