<svg version="1.1" xmlns="http://www.w3.org/2000/svg" xmlns:xlink="http://www.w3.org/1999/xlink" width="109.99801" height="105.10713" viewBox="0,0,109.99801,105.10713"><g transform="translate(-277.50201,-130.50077)"><g data-paper-data="{&quot;isPaintingLayer&quot;:true}" stroke-miterlimit="10" stroke-dasharray="" stroke-dashoffset="0" style="mix-blend-mode: normal"><g fill-rule="evenodd"><path d="M329.53301,202.17747c0.6,0.8 3.3,2 -0.2,4.2c-3.6,2.1 -12.7,5 -21.6,-2.9c-9.6,-8.6 -4.5,-20.3 -0.1,-20.7c4.3,-0.4 2.6,6.6 5.7,14.4c4.4,11.3 15.6,4.2 16.2,5z" fill="#ffab19" stroke="#001026" stroke-width="1.2" stroke-linecap="round" stroke-linejoin="round"/><path d="M310.43301,187.97747c0.5,4.4 1.5,7.4 1.5,7.4c0,0 -1.6,-2 -4,-1.6c-2.9,0.5 -3.8,2.9 -3.9,3.6c-0.7,-1.7 -1.3,-3.8 -1.1,-7.4c0.5,-3.5 2.7,-7.1 5.2,-6.7c2,0.4 1.9,2 2.3,4.7z" fill="#ffffff" stroke="none" stroke-width="1" stroke-linecap="butt" stroke-linejoin="miter"/></g><path d="M334.23301,212.57747c-0.7,0.9 -2.7,4.4 -7.5,7.4c-3.3,2.1 -11.8,-1.4 -11.8,-1.4c0.9,9.2 -6.6,9 -8,6c-1.1,-2.4 -0.9,-12.7 1.3,-13.5c3.4,-1.2 8,0.8 12.1,0.8c1.2,0 2.5,-2.6 5.3,-5.4c2,-2 4.6,-5.7 8.8,-3.1c3.6,2.3 1.7,6.5 -0.2,9.2z" fill="#ffab19" fill-rule="evenodd" stroke="#001026" stroke-width="1.2" stroke-linecap="round" stroke-linejoin="round"/><path d="M351.43301,191.37747c0.3,2.2 0.5,10.6 2.9,11.9c2.3,1.2 9.3,-0.8 9.7,4.1c0.4,4.8 -6.1,4.9 -11.5,3.4c-7,-1.9 -10.2,-12.6 -6.2,-19.2c1.5,-2.3 4.8,-2.5 5.1,-0.2z" fill="#ffab19" fill-rule="evenodd" stroke="#001026" stroke-width="1.2" stroke-linecap="round" stroke-linejoin="round"/><g fill-rule="evenodd"><path d="M350.03973,214.59881c0.6,3.3 -4.2,10.8 -4.2,10.8c0,0 6,4.1 2.2,8.3c-2.8,3.1 -5,0.6 -12.3,-6.5c-1.1,-1.1 -1.1,-2.7 -0.2,-3.8c2.1,-2.4 5.1,-6.5 3.1,-8.4c-2.8,-2 -6,-4 -8,-5.2c-8.2,-4.8 -2.2,-10.7 2.3,-19c2.4,-4.5 3.6,-3.3 9.6,-2.1c3.4,0.5 5.4,0.8 7.6,0.7c3.3,-0.1 2.7,4.7 1.8,7.2c0,0 -1.4,3.7 -2.7,5.6c-1.6,2.4 -3.4,4.8 -4.6,5.7c0,0 4.7,3.5 5.4,6.7z" fill="#ffab19" stroke="#001026" stroke-width="1.2" stroke-linecap="round" stroke-linejoin="round"/><path d="M343.86813,207.80171c0,0 -1.5,-1.2 -3.1,-2.7c-2,-1.8 -4,-3.3 -2,-6.4c1.8,-2.4 3.5,-5.6 8,-2.7c4.3,2.7 2.4,5.2 2.4,5.2c-2.2,4.5 -5.3,6.6 -5.3,6.6z" fill="#ffffff" stroke="none" stroke-width="1" stroke-linecap="butt" stroke-linejoin="miter"/></g><text transform="translate(341.29855,205.02403) scale(0.22662,0.22662)" font-size="40" xml:space="preserve" fill="#000000" fill-rule="nonzero" stroke="none" stroke-width="1" stroke-linecap="butt" stroke-linejoin="miter" stroke-miterlimit="10" stroke-dasharray="" stroke-dashoffset="0" font-family="Sans Serif" font-weight="normal" text-anchor="start" style="mix-blend-mode: normal"><tspan x="0" dy="0">#</tspan></text><path d="M353.70002,131c0.3,-0.2 0.8,-0.1 0.9,0.3l2.6,10.7c0,0 6.4,4.7 8.3,8c3.2,5.5 3.3,10 3.3,10c0,0 7.1,2.1 8.3,7.8c1.2,5.7 -3.2,16.5 -22,20.2c-18.8,3.7 -33.9,-1.4 -41,-12.8c-6.71857,-10.78756 2.94943,-23.54509 3.4992,-24.20683l-0.80747,-6.88268c2.42432,-0.08018 5.00151,-0.24126 5.48826,-0.5194c1.47815,-0.84466 2.42356,-2.42033 3.38117,-3.82794c0.16782,-0.24668 0.32244,-0.49622 0.46428,-0.74819l2.27455,1.48504c0,0 4.5,-1.7 9.2,-1.9c2.8,-0.2 5.2,0 7.5,0.4zM317.59922,150.99317l0.0008,0.00683c0.03223,-0.04298 0.03041,-0.0444 -0.0008,-0.00683z" fill="#ffab19" fill-rule="nonzero" stroke="#001026" stroke-width="1.2" stroke-linecap="butt" stroke-linejoin="miter"/><path d="M368.50002,160.4c0,0 6.9,1.8 8.1,7.5c1.2,5.7 -3.6,16 -22.2,19.6c-24.2,5 -35.7,-9.4 -29,-20c6.7,-10.7 18.2,-1.6 26.6,-2.2c7.2,-0.5 8,-6.8 16.5,-4.9z" fill="#ffffff" fill-rule="evenodd" stroke="none" stroke-width="1" stroke-linecap="butt" stroke-linejoin="miter"/><path d="M361.90375,182.79063c0,0.4155 -0.4155,0.72713 -0.83101,0.62326c-1.97365,-0.72713 -7.58296,-2.38915 -13.81553,-2.80466c-5.60931,-0.31163 -8.93335,0 -10.4915,0.31163c-0.51938,0.10388 -0.93489,-0.4155 -0.72713,-0.93489c0.93489,-2.80466 4.88218,-10.59537 15.78918,-9.97211c9.45273,1.03876 10.38762,7.68684 10.07599,12.77677z" data-paper-data="{&quot;index&quot;:null}" fill="#ffffff" fill-rule="evenodd" stroke="#001026" stroke-width="1.2" stroke-linecap="round" stroke-linejoin="round"/><path d="M386.90002,161.5c-4.7,3.8 -11.9,3.9 -11.9,3.9" fill="none" fill-rule="evenodd" stroke="#001026" stroke-width="1.2" stroke-linecap="round" stroke-linejoin="round"/><path d="M385.60002,172.7c-6.3,0.5 -10.2,-1.4 -10.2,-1.4" fill="none" fill-rule="evenodd" stroke="#001026" stroke-width="1.2" stroke-linecap="round" stroke-linejoin="round"/><path d="M351.60002,162.7c2.1,0 4.3,0.2 4.4,0.9c0.1,1.4 -1.4,4.2 -3,4.3c-1.8,0.2 -6,-2.3 -6,-3.9c-0.1,-1.2 2.6,-1.3 4.6,-1.3z" fill="#001026" fill-rule="evenodd" stroke="#001026" stroke-width="1.2" stroke-linecap="round" stroke-linejoin="round"/><path d="M306.60002,161.2c0,0 8.6,2.8 12.1,5.9" fill="none" fill-rule="evenodd" stroke="#001026" stroke-width="1.2" stroke-linecap="round" stroke-linejoin="round"/><path d="M319.00002,170.6c-4.3,1.7 -11.7,0.6 -11.7,0.6" fill="none" fill-rule="evenodd" stroke="#001026" stroke-width="1.2" stroke-linecap="round" stroke-linejoin="round"/><g fill-rule="evenodd"><path d="M363.40002,151c2.9,4.5 3,9.6 0.2,11.4c-2.8,1.8 -7.4,-0.3 -10.4,-4.8c-2.9,-4.5 -3,-9.6 -0.2,-11.4c2.8,-1.9 7.5,0.3 10.4,4.8z" fill="#ffffff" stroke="#001026" stroke-width="1.2" stroke-linecap="round" stroke-linejoin="round"/><path d="M363.00002,156.7c0,1.1 -0.8,2 -1.8,2c-1,0 -1.8,-0.9 -1.8,-2c0,-1.1 0.8,-2 1.8,-2c1,0 1.8,0.9 1.8,2" fill="#001026" stroke="none" stroke-width="1" stroke-linecap="butt" stroke-linejoin="miter"/></g><g fill-rule="evenodd"><path d="M338.60002,153.8c3,4.4 2.8,9.8 0.1,11.7c-3.3,1.9 -7.7,0.5 -10.7,-3.9c-3.1,-4.4 -3.3,-10.1 -0.2,-12.3c3.1,-2.3 7.8,0.1 10.8,4.5z" fill="#ffffff" stroke="#001026" stroke-width="1.2" stroke-linecap="round" stroke-linejoin="round"/><path d="M338.00002,159.6c0,1.1 -0.8,2 -1.8,2c-1,0 -1.8,-0.9 -1.8,-2c0,-1.1 0.8,-2 1.8,-2c1,0.1 1.8,0.9 1.8,2" fill="#001026" stroke="none" stroke-width="1" stroke-linecap="butt" stroke-linejoin="miter"/></g><path d="M360.62365,183.00885c-0.75,0 -0.75,-0.75 -0.75,-0.75l0.03849,-0.00509c-0.64344,-1.99635 -2.82076,-3.5808 -4.97683,-4.12706c-0.05265,1.16533 -0.18238,2.33602 -0.59684,3.5255l0.00968,0.8489c0,0 0,0.75 -0.75,0.75c-0.75,0 -0.75,-0.75 -0.75,-0.75l0.00968,-1.08917c0.37893,-1.17849 0.513,-2.33725 0.57799,-3.49024c-0.02671,-0.00029 -0.05336,-0.00038 -0.07993,-0.00028c-2.39063,0 -4.79517,0.08383 -7.14564,-0.25194c-0.62518,-0.08931 -1.30348,-0.26778 -1.99074,-0.40241c-0.19938,0.71356 -0.31721,1.41377 -0.28848,2.08468v0.24226c0,0 0,0.75 -0.75,0.75c-0.75,0 -0.75,-0.75 -0.75,-0.75v-0.24226c0.02051,-0.75623 0.16294,-1.50795 0.3728,-2.25696c-0.30709,-0.0052 -0.6098,0.01729 -0.90404,0.0798c-1.84378,0.39168 -2.83076,2.52099 -4.53806,3.13094c0,0 -0.71151,0.23717 -0.94868,-0.47434c-0.23717,-0.71151 0.47434,-0.94868 0.47434,-0.94868c1.74567,-0.51708 2.70228,-2.71743 4.66777,-3.16779c0.56453,-0.12935 1.14605,-0.13649 1.72995,-0.08176c0.54737,-1.48738 1.2215,-2.96856 1.5909,-4.45764c0,0 0.1819,-0.72761 0.90951,-0.54571c0.72761,0.1819 0.54571,0.90951 0.54571,0.90951c-0.34278,1.36162 -1.06909,2.84473 -1.63425,4.31575c0.60011,0.11967 1.19007,0.25349 1.75355,0.33399c2.2683,0.32405 4.59608,0.23257 6.90537,0.23257c0.04653,0.00016 0.09315,0.00079 0.13986,0.00188c0.05847,-1.76412 0.13381,-3.5289 0.85959,-5.34463c0,0 0.27854,-0.69636 0.9749,-0.41781c0.69636,0.27854 0.41781,0.9749 0.41781,0.9749c-0.67338,1.68222 -0.73545,3.32556 -0.77062,4.96789c2.75259,0.59476 5.47385,2.5904 6.35773,5.17578l0.03849,0.47943c0,0 0,0.75 -0.75,0.75z" fill="#000000" fill-rule="nonzero" stroke="none" stroke-width="0.5" stroke-linecap="butt" stroke-linejoin="miter"/><path d="M282.10859,171.35721c0,-0.75 0.75,-0.75 0.75,-0.75l0.29349,0.02473c5.69596,-1.49404 11.9182,-0.38782 17.29824,-3.09492c0,0 0.67082,-0.33541 1.00623,0.33541c0.33541,0.67082 -0.33541,1.00623 -0.33541,1.00623c-5.53795,2.75307 -11.75904,1.66197 -17.58701,3.20381l-0.67554,0.02473c0,0 -0.75,0 -0.75,-0.75z" fill="#000000" fill-rule="nonzero" stroke="none" stroke-width="0.5" stroke-linecap="butt" stroke-linejoin="miter"/><path d="M278.20986,186.42306c-0.53033,-0.53033 0,-1.06066 0,-1.06066l0.34694,-0.32944c2.21698,-1.52816 4.70344,-3.03384 7.1442,-4.1852c3.56691,-1.68258 7.76878,-1.83889 11.00085,-4.27635c0,0 0.6,-0.45 1.05,0.15c0.45,0.6 -0.15,1.05 -0.15,1.05c-3.36861,2.51401 -7.59941,2.69252 -11.28695,4.44497c-2.35958,1.12136 -4.75893,2.57107 -6.9068,4.0516l-0.13758,0.15508c0,0 -0.53033,0.53033 -1.06066,0z" fill="#000000" fill-rule="nonzero" stroke="none" stroke-width="0.5" stroke-linecap="butt" stroke-linejoin="miter"/><path d="M277.51589,156.21387c0.1233,-0.7398 0.86309,-0.6165 0.86309,-0.6165l1.42651,0.23826c6.35372,0.58496 12.06414,1.77857 18.26401,3.41011c0,0 0.72531,0.19087 0.53444,0.91618c-0.19087,0.72531 -0.91618,0.53444 -0.91618,0.53444c-6.14499,-1.6171 -11.78142,-2.78812 -18.0748,-3.37313l-1.48059,-0.24626c0,0 -0.7398,-0.1233 -0.6165,-0.86309z" fill="#000000" fill-rule="nonzero" stroke="none" stroke-width="0.5" stroke-linecap="butt" stroke-linejoin="miter"/><text transform="translate(336.61081,146.9924) scale(0.22662,0.22662)" font-size="40" xml:space="preserve" fill="#000000" fill-rule="nonzero" stroke="none" stroke-width="1" stroke-linecap="butt" stroke-linejoin="miter" stroke-miterlimit="10" stroke-dasharray="" stroke-dashoffset="0" font-family="Sans Serif" font-weight="normal" text-anchor="start" style="mix-blend-mode: normal"><tspan x="0" dy="0">#</tspan></text><path d="M326.44131,135.68845c1.95217,1.56174 0.39044,3.51391 0.39044,3.51391l-0.81571,1.01541c-0.68029,0.91601 -1.0467,2.18811 -2.04087,2.74802c-0.12115,0.06823 -0.24409,0.13213 -0.36865,0.19216l0.05058,0.07226l-2.18835,1.53184c-0.41054,0.29546 -0.91432,0.46948 -1.45875,0.46948c-0.81228,0 -1.53409,-0.38739 -1.99074,-0.98751c-0.03907,0.03212 -0.07816,0.06312 -0.11711,0.09291c0,0 -2.04808,1.43365 -3.48173,-0.61443c-1.43365,-2.04808 0.61442,-3.48173 0.61442,-3.48173c0.93235,-0.61746 1.68727,-1.7149 2.79706,-1.85238c0.98156,-0.1216 1.96046,0.03049 2.93878,0.24204c0.33309,-0.47529 0.86611,-0.87911 1.20167,-1.35352l0.95504,-1.19802c0,0 1.56174,-1.95218 3.51391,-0.39044z" fill="#a00000" fill-rule="nonzero" stroke="none" stroke-width="0.5" stroke-linecap="butt" stroke-linejoin="miter"/><path d="M306.22147,145.16632c0,-1.38071 1.11929,-2.5 2.5,-2.5c1.38071,0 2.5,1.11929 2.5,2.5c0,1.38071 -1.11929,2.5 -2.5,2.5c-1.38071,0 -2.5,-1.11929 -2.5,-2.5z" fill="#a00000" fill-rule="nonzero" stroke="none" stroke-width="0.5" stroke-linecap="butt" stroke-linejoin="miter"/><path d="M328.39763,201.49881c2.2,2.8 5.6,6.3 1.3,9.2c-4.69029,2.62338 -8.74861,-3.15841 -10.71803,-7.39802c1.04451,-0.38994 1.78831,-1.39669 1.78831,-2.57716c0,-0.2645 -0.03734,-0.52027 -0.10704,-0.76234c0.60639,-0.50444 0.99241,-1.2647 0.99241,-2.11513c0,-0.39385 -0.08279,-0.76835 -0.23192,-1.10707c0.67778,-0.50086 1.1173,-1.30565 1.1173,-2.21309c0,-0.41962 -0.09398,-0.81729 -0.26205,-1.17311c4.09052,-2.95726 7.57043,-5.49805 11.42102,-4.05408c5,1.8 1.4,5.8 -1.1,7.6c-1.5,1.1 -3,2.3 -4.1,3c-0.3,0.5 -0.4,1.1 -0.1,1.6z" fill="#ffab19" fill-rule="evenodd" stroke="#001026" stroke-width="1.2" stroke-linecap="round" stroke-linejoin="round"/></g></g></svg>