<svg version="1.1" xmlns="http://www.w3.org/2000/svg" xmlns:xlink="http://www.w3.org/1999/xlink" width="56" height="32" viewBox="0,0,56,32"><defs><linearGradient x1="240" y1="165" x2="240" y2="195" gradientUnits="userSpaceOnUse" id="color-1"><stop offset="0" stop-color="#79a963"/><stop offset="1" stop-color="#215e05"/></linearGradient></defs><g transform="translate(-212,-164)"><g data-paper-data="{&quot;isPaintingLayer&quot;:true}" fill-rule="nonzero" stroke-linecap="butt" stroke-linejoin="miter" stroke-miterlimit="10" stroke-dasharray="" stroke-dashoffset="0" style="mix-blend-mode: normal"><path d="M213,192.04468c0,-6.30775 0,-20.79394 0,-24.22222c0,-1.42304 1.37663,-2.82245 2.97348,-2.82245c5.56527,0 37.8833,0 48,0c1.90818,0 3.02652,1.46224 3.02652,2.93356c0,3.46595 0,17.83484 0,24.11111c0,1.81667 -1.28933,2.95532 -2.8043,2.95532c-5.45902,0 -38.12259,0 -48.22222,0c-1.876,0 -2.97348,-1.13836 -2.97348,-2.95532z" fill="url(#color-1)" stroke="#165915" stroke-width="2"/><text transform="translate(218.78,185.06287) scale(0.5,0.43882)" font-size="40" xml:space="preserve" fill="#ffffff" fill-rule="nonzero" stroke="none" stroke-width="1" stroke-linecap="butt" stroke-linejoin="miter" stroke-miterlimit="10" stroke-dasharray="" stroke-dashoffset="0" font-family="Marker" font-weight="normal" text-anchor="start" style="mix-blend-mode: normal"><tspan x="0" dy="0">Easy</tspan></text></g></g></svg>