<svg version="1.1" xmlns="http://www.w3.org/2000/svg" xmlns:xlink="http://www.w3.org/1999/xlink" width="157.0967" height="100.7285" viewBox="0,0,157.0967,100.7285"><g transform="translate(-198.03619,-133.77367)"><g data-paper-data="{&quot;isPaintingLayer&quot;:true}" stroke-miterlimit="10" stroke-dasharray="" stroke-dashoffset="0" style="mix-blend-mode: normal"><path d="M244.35001,188.5c0.3,2.2 0.5,10.6 2.9,11.9c2.3,1.2 9.3,-0.8 9.7,4.1c0.4,4.8 -6.1,4.9 -11.5,3.4c-7,-1.9 -10.2,-12.6 -6.2,-19.2c1.5,-2.3 4.8,-2.5 5.1,-0.2z" fill="#ffab19" fill-rule="evenodd" stroke="#001026" stroke-width="1.2" stroke-linecap="round" stroke-linejoin="round"/><g fill-rule="evenodd"><path d="M227.37686,204.21235c0.72472,0.68905 3.58671,1.4232 0.50143,4.17475c-3.20052,2.66958 -11.69134,7.04292 -21.78146,0.73345c-10.89681,-6.88327 -7.8141,-19.26862 -3.54194,-20.39497c4.17355,-1.10971 3.66165,6.07555 8.01595,13.25121c6.21839,10.41065 16.0813,1.54651 16.80602,2.23555z" fill="#ffab19" stroke="#001026" stroke-width="1.2" stroke-linecap="round" stroke-linejoin="round"/><path d="M206.18087,193.38738c1.22495,4.25553 2.71005,7.04738 2.71005,7.04738c0,0 -1.9104,-1.70598 -4.21042,-0.91233c-2.77642,0.97543 -3.26466,3.49171 -3.24682,4.19859c-0.97303,-1.55987 -1.914,-3.53081 -2.31563,-7.11392c-0.08917,-3.53441 1.48133,-7.45021 4.01304,-7.47165c2.03867,0.06174 2.20622,1.65608 3.04978,4.25192z" fill="#ffffff" stroke="none" stroke-width="1" stroke-linecap="butt" stroke-linejoin="miter"/></g><path d="M233.74137,213.68564c-0.54054,1.0039 -1.93047,4.78783 -6.16456,8.54449c-2.9047,2.61968 -11.86848,0.58237 -11.86848,0.58237c2.41783,8.92211 -5.01094,9.97248 -6.89047,7.24716c-1.4839,-2.18358 -3.00004,-12.37335 -0.96377,-13.52816c3.15302,-1.74885 8.02162,-0.5419 12.06449,-1.22392c1.18328,-0.19961 2.03267,-2.97964 4.3279,-6.20639c1.63945,-2.30482 3.58775,-6.38577 8.16173,-4.52064c3.93244,1.66911 2.75756,6.12665 1.33316,9.10509z" fill="#ffab19" fill-rule="evenodd" stroke="#001026" stroke-width="1.2" stroke-linecap="round" stroke-linejoin="round"/><g fill-rule="evenodd"><path d="M248.53598,213.01529c1.14058,3.15422 -2.34496,11.34818 -2.34496,11.34818c0,0 6.59842,3.04481 3.55001,7.8184c-2.24532,3.52258 -4.83053,1.42336 -13.20987,-4.3634c-1.26765,-0.9017 -1.53381,-2.4794 -0.82932,-3.71379c1.67151,-2.71589 3.9477,-7.2578 1.65951,-8.79864c-3.09368,-1.50637 -6.58179,-2.9462 -8.75353,-3.79679c-8.88421,-3.3691 -3.94924,-10.18497 -0.8926,-19.11788c1.61801,-4.83653 3.00091,-3.85286 9.11693,-3.66765c3.4358,-0.07254 5.45784,-0.10941 7.61056,-0.57397c3.23739,-0.64754 3.4442,4.18539 2.9726,6.80027c0,0 -0.76502,3.88133 -1.73085,5.97111c-1.17848,2.63271 -2.55417,5.2987 -3.58775,6.38577c0,0 5.21672,2.66942 6.43928,5.70839z" fill="#ffab19" stroke="#001026" stroke-width="1.2" stroke-linecap="round" stroke-linejoin="round"/><path d="M241.3197,207.3395c0,0 -1.67872,-0.93376 -3.50594,-2.14671c-2.27156,-1.44223 -4.49321,-2.58864 -3.03674,-5.97814c1.37569,-2.66598 2.51971,-6.10419 7.43941,-3.99314c4.68922,1.9471 3.23156,4.72832 3.23156,4.72832c-1.4208,4.80326 -4.12828,7.38967 -4.12828,7.38967z" fill="#ffffff" stroke="none" stroke-width="1" stroke-linecap="butt" stroke-linejoin="miter"/></g><path d="M253.04542,134.2729c0.3,-0.2 0.8,-0.1 0.9,0.3l2.6,10.7c0,0 6.4,4.7 8.3,8c3.2,5.5 3.3,10 3.3,10c0,0 7.1,2.1 8.3,7.8c1.2,5.7 -3.2,16.5 -22,20.2c-18.8,3.7 -33.9,-1.4 -41,-12.8c-6.71857,-10.78756 2.94943,-23.54509 3.4992,-24.20683l-0.973,-8.2937c2.54322,-0.51721 5.43943,-1.39774 6.22577,-1.82784c1.06596,-0.58304 1.68659,-1.54797 2.06567,-2.64525l3.48237,2.27361c0,0 4.5,-1.7 9.2,-1.9c2.8,-0.2 5.2,0 7.5,0.4zM216.94462,154.26607l0.0008,0.00683c0.03223,-0.04298 0.03041,-0.0444 -0.0008,-0.00683z" fill="#ffab19" fill-rule="nonzero" stroke="#001026" stroke-width="1.2" stroke-linecap="butt" stroke-linejoin="miter"/><path d="M257.10839,187.33475c0.03289,0.39865 -0.34109,0.73052 -0.74795,0.66375c-1.95113,-0.54139 -7.46441,-1.69194 -13.47698,-1.59721c-5.40638,0.14505 -8.57088,0.70717 -10.04113,1.1295c-0.49008,0.14078 -0.92984,-0.32464 -0.77164,-0.83939c0.67493,-2.76486 3.84535,-10.55193 14.35913,-10.81737c9.15141,0.24833 10.57463,6.55265 10.67857,11.46072z" fill="#ffffff" fill-rule="evenodd" stroke="#001026" stroke-width="1.2" stroke-linecap="round" stroke-linejoin="round"/><path d="M286.24542,164.7729c-4.7,3.8 -11.9,3.9 -11.9,3.9" fill="#000000" fill-rule="evenodd" stroke="#001026" stroke-width="1.2" stroke-linecap="round" stroke-linejoin="round"/><path d="M284.94542,175.9729c-6.3,0.5 -10.2,-1.4 -10.2,-1.4" fill="#000000" fill-rule="evenodd" stroke="#001026" stroke-width="1.2" stroke-linecap="round" stroke-linejoin="round"/><path d="M250.94542,165.9729c2.1,0 4.3,0.2 4.4,0.9c0.1,1.4 -1.4,4.2 -3,4.3c-1.8,0.2 -6,-2.3 -6,-3.9c-0.1,-1.2 2.6,-1.3 4.6,-1.3z" fill="#000000" fill-rule="evenodd" stroke="#001026" stroke-width="1.2" stroke-linecap="round" stroke-linejoin="round"/><path d="M205.94542,164.4729c0,0 8.6,2.8 12.1,5.9" fill="#000000" fill-rule="evenodd" stroke="#001026" stroke-width="1.2" stroke-linecap="round" stroke-linejoin="round"/><path d="M218.34542,173.8729c-4.3,1.7 -11.7,0.6 -11.7,0.6" fill="#000000" fill-rule="evenodd" stroke="#001026" stroke-width="1.2" stroke-linecap="round" stroke-linejoin="round"/><g fill-rule="evenodd"><path d="M262.74542,154.2729c2.9,4.5 3,9.6 0.2,11.4c-2.8,1.8 -7.4,-0.3 -10.4,-4.8c-2.9,-4.5 -3,-9.6 -0.2,-11.4c2.8,-1.9 7.5,0.3 10.4,4.8z" fill="#ffffff" stroke="#001026" stroke-width="1.2" stroke-linecap="round" stroke-linejoin="round"/><path d="M262.34542,159.9729c0,1.1 -0.8,2 -1.8,2c-1,0 -1.8,-0.9 -1.8,-2c0,-1.1 0.8,-2 1.8,-2c1,0 1.8,0.9 1.8,2" fill="#000000" stroke="none" stroke-width="1" stroke-linecap="butt" stroke-linejoin="miter"/></g><g fill-rule="evenodd"><path d="M237.94542,157.0729c3,4.4 2.8,9.8 0.1,11.7c-3.3,1.9 -7.7,0.5 -10.7,-3.9c-3.1,-4.4 -3.3,-10.1 -0.2,-12.3c3.1,-2.3 7.8,0.1 10.8,4.5z" fill="#ffffff" stroke="#001026" stroke-width="1.2" stroke-linecap="round" stroke-linejoin="round"/><path d="M237.34542,162.8729c0,1.1 -0.8,2 -1.8,2c-1,0 -1.8,-0.9 -1.8,-2c0,-1.1 0.8,-2 1.8,-2c1,0.1 1.8,0.9 1.8,2" fill="#000000" stroke="none" stroke-width="1" stroke-linecap="butt" stroke-linejoin="miter"/></g><path d="M203.20184,154.89009c-1.94454,-1.94454 0,-3.88909 0,-3.88909l0.69616,-0.49659c1.48473,-2.9625 3.0582,-5.58575 5.23526,-8.09107c0,0 0.56176,-0.64201 1.4171,-0.89799c-0.10322,-0.28907 -0.15944,-0.60047 -0.15944,-0.925c0,-1.39125 1.03313,-2.54121 2.37405,-2.72452l3.05824,-0.4705c0.15181,-0.02597 0.30786,-0.0395 0.46707,-0.0395c0.86107,0 1.62971,0.39575 2.13395,1.01529c0.38967,-0.18716 0.77934,-0.37433 1.16901,-0.56149c0,0 2.53846,-1.05769 3.59615,1.48077c0.74616,1.79079 -0.2974,2.84463 -0.97687,3.31007c-0.49313,0.73821 -1.33397,1.2244 -2.28837,1.2244c-0.18534,0 -0.36639,-0.01833 -0.54145,-0.05329c-0.38635,0.14701 -0.7727,0.29402 -1.15905,0.44103c-0.46645,0.36425 -1.05344,0.5813 -1.69113,0.5813c-0.02776,0 -0.05543,-0.00041 -0.083,-0.00123c-0.00442,0.00672 -0.00885,0.01344 -0.01329,0.02015c-0.63386,0.95716 -2.02302,1.08589 -3.03453,1.62883l-0.48452,0.24226c0,0 -0.10909,0.05454 -0.2928,0.11768c-1.54628,1.90891 -2.68826,3.91916 -3.80705,6.1625l-1.72642,1.926c0,0 -1.94454,1.94454 -3.88909,0z" fill="#a00000" fill-rule="nonzero" stroke="none" stroke-width="0.5" stroke-linecap="butt" stroke-linejoin="miter"/><path d="M232.49761,194.95343c0,2.07383 -1.51848,3.75501 -3.39162,3.75501c-1.87314,0 -3.39162,-1.68118 -3.39162,-3.75501c0,-2.07383 1.51848,-3.75501 3.39162,-3.75501c1.87314,0 3.39162,1.68118 3.39162,3.75501z" fill="#a00000" fill-rule="nonzero" stroke="#001026" stroke-width="1.2" stroke-linecap="butt" stroke-linejoin="miter"/><path d="M227.65322,194.85631c0,-0.41421 0.33579,-0.75 0.75,-0.75c0.41421,0 0.75,0.33579 0.75,0.75c0,0.41421 -0.33579,0.75 -0.75,0.75c-0.41421,0 -0.75,-0.33579 -0.75,-0.75z" fill="#ffffff" fill-rule="nonzero" stroke="none" stroke-width="0.5" stroke-linecap="butt" stroke-linejoin="miter"/><path d="M217.96287,191.70694c0,-0.75 0.75,-0.75 0.75,-0.75c0.32301,0 1.85732,0 2.18033,0c0,0 0.04511,0 0.1132,0.01106c0.04193,-0.00727 0.08505,-0.01106 0.12906,-0.01106c0.41421,0 0.75,0.33579 0.75,0.75c0,0.41421 -0.33579,0.75 -0.75,0.75c-0.04401,0 -0.08713,-0.00379 -0.12906,-0.01106c-0.06809,0.01106 -0.1132,0.01106 -0.1132,0.01106c-0.32301,0 -0.64602,0 -0.96903,0h-1.21129c0,0 -0.75,0 -0.75,-0.75z" fill="#a00000" fill-rule="nonzero" stroke="none" stroke-width="0.5" stroke-linecap="butt" stroke-linejoin="miter"/><path d="M216.26706,190.98017c0,-0.41421 0.33579,-0.75 0.75,-0.75c0.41421,0 0.75,0.33579 0.75,0.75c0,0.41421 -0.33579,0.75 -0.75,0.75c-0.41421,0 -0.75,-0.33579 -0.75,-0.75z" fill="#a00000" fill-rule="nonzero" stroke="none" stroke-width="0.5" stroke-linecap="butt" stroke-linejoin="miter"/><path d="M204.15412,189.0421c0,-0.75 0.75,-0.75 0.75,-0.75h0.92259c1.43219,0.00332 2.73727,0.24604 4.16485,0.24226c0,0 0.35169,0 0.57341,0.24083c0.3787,-0.0839 0.6837,0.2211 0.6837,0.2211l-0.10617,0.04498c0.96396,0.24099 1.92792,0.48198 2.89188,0.72297c0.09521,0.02161 0.18353,0.06132 0.26117,0.11534c0.18788,0.12007 0.39992,0.35293 0.30592,0.77198c-0.00395,0.01867 -0.00859,0.03708 -0.01389,0.0552c-0.11491,0.4111 -0.41049,0.5163 -0.63215,0.53381c-0.02878,0.00335 -0.05805,0.00508 -0.08773,0.00508c-0.06861,0 -0.13508,-0.00921 -0.19822,-0.02647c-0.9636,-0.2409 -1.92719,-0.4818 -2.89079,-0.7227l-0.59069,-0.43954c0,0 -0.01492,-0.01492 -0.03724,-0.04224c-0.09303,0.01966 -0.1592,0.01966 -0.1592,0.01966c-1.43119,-0.00342 -2.73599,-0.24592 -4.16485,-0.24226h-0.92259c0,0 -0.75,0 -0.75,-0.75z" fill="#a00000" fill-rule="nonzero" stroke="none" stroke-width="0.5" stroke-linecap="butt" stroke-linejoin="miter"/><path d="M212.39092,193.64501c0,-0.75 0.75,-0.75 0.75,-0.75l1.06067,0.00562c0.00725,0.00181 0.01451,0.00362 0.02177,0.00541c0.04186,-0.00725 0.08491,-0.01103 0.12885,-0.01103c0.15207,0 0.29356,0.04526 0.41175,0.12303c0.50354,0.08537 1.01693,0.12178 1.52632,0.11922c0,0 0.75,0 0.75,0.75c0,0.75 -0.75,0.75 -0.75,0.75c-0.76181,-0.00329 -1.5329,-0.06311 -2.27197,-0.24788l-0.8774,0.00562c0,0 -0.75,0 -0.75,-0.75z" fill="#a00000" fill-rule="nonzero" stroke="none" stroke-width="0.5" stroke-linecap="butt" stroke-linejoin="miter"/><path d="M217.96287,194.12953c0,-0.41421 0.33579,-0.75 0.75,-0.75c0.41421,0 0.75,0.33579 0.75,0.75c0,0.41421 -0.33579,0.75 -0.75,0.75c-0.41421,0 -0.75,-0.33579 -0.75,-0.75z" fill="#a00000" fill-rule="nonzero" stroke="none" stroke-width="0.5" stroke-linecap="butt" stroke-linejoin="miter"/><path d="M203.91186,192.67598c0,-0.75 0.75,-0.75 0.75,-0.75h1.21129c1.78581,0.0011 3.54287,0.24323 5.32969,0.24226c0,0 0.75,0 0.75,0.75c0,0.75 -0.75,0.75 -0.75,0.75c-1.7871,-0.00093 -3.54454,-0.24343 -5.32969,-0.24226h-1.21129c0,0 -0.75,0 -0.75,-0.75z" fill="#a00000" fill-rule="nonzero" stroke="none" stroke-width="0.5" stroke-linecap="butt" stroke-linejoin="miter"/><text transform="translate(281.45788,193.40275) scale(0.5,0.5)" font-size="40" xml:space="preserve" fill="#a00000" fill-rule="nonzero" stroke="none" stroke-width="1" stroke-linecap="butt" stroke-linejoin="miter" stroke-miterlimit="10" stroke-dasharray="" stroke-dashoffset="0" font-family="Sans Serif" font-weight="normal" text-anchor="start" style="mix-blend-mode: normal"><tspan x="0" dy="0">AHHHH</tspan></text><path d="M252.00505,178.55648c-0.62258,-0.97569 -1.52947,-1.17073 -2.52054,-1.24972c-0.05257,1.26576 -0.20926,2.50688 -0.36194,3.75074c1.45102,0.31616 2.91114,0.92242 4.23318,1.7186c0.10786,-0.88081 0.21915,-1.76344 0.21915,-2.69758c0,0 0,-0.21955 0.11879,-0.42108c-0.58142,-0.17514 -1.12003,-0.31176 -1.68864,-1.10097zM247.93454,177.18902c-1.70935,-0.22128 -3.1871,-0.39932 -4.58327,-0.39551c0.09521,0.18846 0.09521,0.37791 0.09521,0.37791c0,1.6884 -0.7837,3.8039 -0.97002,5.55007c1.44612,-0.55839 2.93839,-1.01682 4.36334,-1.90723c0.26685,-0.00388 0.53688,0.00472 0.80906,0.02511c0.14842,-1.20844 0.29476,-2.41485 0.33993,-3.64352c-0.01809,-0.00221 -0.03617,-0.00448 -0.05425,-0.00682zM238.56013,186.40061c1.05064,-0.508 1.99225,-0.42341 2.90189,-0.26162c-0.00006,-0.00263 -0.00006,-0.004 -0.00006,-0.004l0.12596,-0.31075c-0.24638,-0.36958 -0.4089,-0.75854 -0.50745,-1.16305c-0.20143,0.02537 -0.39061,0.04027 -0.56432,0.04347c-1.19476,0.02199 -2.41629,-0.76746 -3.61066,-0.5821c0,0.79795 0,1.5959 0,2.39385c0.55708,0.03527 1.1123,0.02057 1.65464,-0.11581zM243.6428,186.41065c-0.00034,-0.01096 -0.00051,-0.02209 -0.00051,-0.0334c0,-0.75 0.75,-0.75 0.75,-0.75l0.47569,0.03725c0.09059,0.02967 0.30922,0.09904 0.59673,0.19072c0.54917,-0.25851 1.08555,-0.5055 1.81152,-0.49135c0.0024,-1.05306 0.09002,-2.08345 0.20363,-3.10566c-0.06874,-0.00379 -0.13721,-0.00657 -0.20538,-0.00832c-1.07532,0.79563 -3.02866,1.6439 -4.72318,2.10579c0.06368,0.23085 0.15651,0.44422 0.28471,0.63651l0.12596,1.1428c0,0 0,0.11354 -0.04418,0.25228c0.24049,0.02551 0.48166,0.0366 0.72501,0.02338zM233.03933,188.10277c-0.38992,0.39518 -0.63456,0.97927 -1.48789,0.6797c-0.96357,-0.33828 -0.79764,-2.46254 -0.73917,-3.00987c0.17034,-1.59472 1.60346,-4.78789 2.52491,-6.08837c0.75816,-1.07002 1.43091,-0.83914 2.04573,-1.83184c4.3849,-3.01453 7.75154,-2.75069 12.7349,-2.15212c0.11732,0.01409 0.23354,0.02692 0.34866,0.03892c0.08065,-0.02806 0.17532,-0.04454 0.28647,-0.04454c0.18445,0 0.32354,0.04536 0.42842,0.11378c1.6116,0.15336 2.98236,0.33138 4.07175,1.91601c0.74896,1.29705 2.45925,0.66439 3.21121,2.29294c0.29931,0.64823 0.21322,1.41225 0.29669,2.12135c0.16723,1.42069 2.21097,4.18568 0.75905,5.7379c-0.43,0.45971 -2.37306,0.2597 -2.97784,0.42975c-1.68471,0.47369 -2.785,1.14473 -4.69813,0.50701c-5.5043,0 -11.1675,-0.63908 -16.80478,-0.71061zM255.30965,186.24159c-0.03973,0.2792 -0.23321,0.50888 -0.49198,0.60055c0.31909,-0.00001 0.68992,0.00467 0.99873,0.00455c-0.15568,-0.20371 -0.32512,-0.4058 -0.50676,-0.6051zM235.4055,184.86699c-0.48966,0.40503 -0.92206,0.91161 -1.37202,1.38945c0.44719,-0.00717 0.90674,0.03908 1.37202,0.09571c0,-0.4814 0,-0.97984 0,-1.48516z" fill="#000000" fill-rule="nonzero" stroke="none" stroke-width="0.5" stroke-linecap="butt" stroke-linejoin="miter"/></g></g></svg>