<svg version="1.1" xmlns="http://www.w3.org/2000/svg" xmlns:xlink="http://www.w3.org/1999/xlink" width="980.48048" height="630.63063" viewBox="0,0,980.48048,630.63063"><g transform="translate(145.24024,130.31528)"><g data-paper-data="{&quot;isPaintingLayer&quot;:true}" stroke-miterlimit="10" stroke-dasharray="" stroke-dashoffset="0" style="mix-blend-mode: normal"><path d="M-145.24024,500.31535v-630.63063h980.48048v630.63063z" fill="#000000" fill-rule="nonzero" stroke="#ff3838" stroke-width="0" stroke-linecap="butt" stroke-linejoin="miter"/><text transform="translate(304.71471,259.28905) scale(0.5,0.5)" font-size="40" xml:space="preserve" fill="#ffffff" fill-rule="nonzero" stroke="none" stroke-width="1" stroke-linecap="butt" stroke-linejoin="miter" stroke-miterlimit="10" stroke-dasharray="" stroke-dashoffset="0" font-family="Marker" font-weight="normal" text-anchor="start" style="mix-blend-mode: normal"><tspan x="0" dy="0">Loading</tspan></text><g><path d="M330.46853,184.45764c0.19659,0.47845 -2.08146,3.49831 -1.98193,5.23c0.10841,1.22686 0.33713,2.72089 1.29377,4.04768c2.1216,3.03224 1.12211,2.92282 -0.14899,4.69541c-1.27702,1.82249 -2.86632,2.43636 -4.14509,-3.88596c-0.45168,-2.17786 -0.22833,-4.0739 0.00374,-5.61478c0.04703,-0.39915 0.80183,-3.80079 2.63936,-4.79843c1.83751,-0.99767 2.18664,-0.09656 2.33921,0.32613z" fill="#000000" fill-rule="evenodd" stroke="#001026" stroke-width="1.2" stroke-linecap="round" stroke-linejoin="round"/><path d="M325.31848,180.83138c0.69867,-0.7777 2.30131,-1.4995 3.46041,0.25587c1.37917,2.03422 -0.73729,4.11191 -1.60329,5.02166c-0.86598,0.90976 -1.3738,1.35581 -2.72423,3.37199c-0.54898,0.79532 -1.07743,1.846 -1.34754,2.42126c-0.07927,0.24357 -0.10868,0.49307 -0.03825,0.75431c0.14668,0.47256 2.03226,-4.2053 1.22207,-3.33959c-0.95317,0.85532 -0.00805,1.57631 -1.3324,0.09921c-0.15216,-0.16968 0.21631,0.33836 0.03663,0.17697c-1.69057,-1.51833 -1.45773,0.30192 -0.88684,-0.95071c1.17148,-2.64431 -0.2275,-3.44685 0.87009,-2.45759c0.18785,0.12328 0.93256,0.10984 1.00595,-0.08385l-2.45802,0.48854c0.24913,-0.55238 -0.66431,0.61482 -0.38757,0.10638c0.30717,-0.56437 1.33029,-1.87463 1.64982,-2.37652c1.37028,-2.15235 2.04505,-2.9145 2.53322,-3.48791z" fill="#000000" fill-rule="evenodd" stroke="#001026" stroke-width="1.2" stroke-linecap="round" stroke-linejoin="round"/><path d="M336.81603,174.63253c0.64851,0.9364 0.09942,2.59169 -1.30351,2.47702c-1.29727,-0.15283 -2.52102,-1.3593 -3.24881,-2.05208c-0.7278,-0.69278 -3.34249,-3.83368 -1.3902,-7.09426c0.91889,-1.35882 4.11269,-4.42254 5.54762,-2.43236c1.43496,1.99017 -0.80471,3.39575 -1.99353,4.46983c-1.01566,0.89211 2.21826,4.35889 2.38848,4.63189z" fill="#000000" fill-rule="evenodd" stroke="#001026" stroke-width="1.2" stroke-linecap="round" stroke-linejoin="round"/><g fill-rule="evenodd"><path d="M328.38343,177.50674c0.5196,-0.54584 1.33855,-1.05644 2.58016,-1.71957c1.02443,-0.53695 2.95283,-1.01803 2.95283,-1.01803c1.30026,-0.30211 3.73052,-0.31937 3.48666,1.32129c-0.17918,1.09182 -0.14705,2.10736 -0.09742,3.8332c0.24611,3.06425 0.58061,3.66011 -1.61204,4.66653c-2.55364,1.06506 -4.70554,4.30212 -8.34725,-0.42682c0,0 -1.60802,-2.66824 -4.15517,-5.95291c-1.7108,-2.22504 -4.13468,-5.69758 -4.95337,-6.90691c-0.17019,-0.273 -0.23473,-0.58411 -0.24935,-0.88935c0.12106,-4.89274 1.0432,-8.42644 3.18868,-8.1737c3.59246,0.42317 1.5046,7.41127 1.5046,7.41127c0,0 1.67557,2.52441 2.50014,3.68388z" fill="#000000" stroke="#001026" stroke-width="1.2" stroke-linecap="round" stroke-linejoin="round"/><path d="M331.98503,175.70518c0,0 1.35906,-0.80107 2.4535,1.50312c1.18248,2.41572 -0.51408,3.07588 -1.81736,3.83293c-1.66432,0.81569 -2.29518,-0.27036 -3.07576,-1.37405c-0.65437,-0.88649 -1.16499,-1.70543 -1.16499,-1.70543c0,0 1.22999,-1.42333 3.60457,-2.25654z" fill="#a00000" stroke="none" stroke-width="1" stroke-linecap="butt" stroke-linejoin="miter"/></g><g fill-rule="evenodd"><path d="M362.58253,177.92064c0.06441,1.17109 0.02315,2.38034 -0.2412,3.76565c-0.37602,2.33333 -1.48872,4.47871 -1.48872,4.47871l3.23054,6.50163c0.07628,0.21132 -0.10281,0.44319 -0.29649,0.36978l-8.80783,-2.09986c0.4344,-0.25234 -7.00961,4.53661 -12.2804,0.324c-5.27078,-4.21259 -6.92793,-12.04653 -3.97687,-21.20939c2.95108,-9.16285 8.59838,-10.72349 11.37189,-9.78973c2.77351,0.93374 3.404,4.59976 3.404,4.59976c0,0 2.23941,0.31438 4.79557,2.23427c1.53486,1.14196 3.5038,4.6115 3.5038,4.6115l5.186,1.92617c0.1937,0.07342 0.21422,0.32876 0.09677,0.46671z" fill="#000000" stroke="#001026" stroke-width="1.2" stroke-linecap="butt" stroke-linejoin="miter"/><path d="M353.28023,164.98735c0.44843,4.35274 -2.74198,4.38167 -3.41464,7.94472c-0.79309,4.15594 3.0715,10.42874 -2.66111,13.14283c-5.6827,2.71999 -12.19174,-3.86432 -8.2746,-15.64512c2.88943,-9.06894 8.31074,-10.85853 11.08427,-9.92478c2.7735,0.93373 3.26606,4.48232 3.26606,4.48232z" fill="#000000" stroke="none" stroke-width="1" stroke-linecap="butt" stroke-linejoin="miter"/><path d="M346.09006,180.07551c-2.46251,-0.1383 -5.6029,-0.96353 -5.56701,-5.56275c0.31778,-5.27424 4.28325,-6.72947 5.68332,-7.01986c0.26122,-0.07039 0.48722,0.15859 0.40791,0.40217c-0.23784,0.7308 -0.57561,2.30981 -0.74332,5.02178c-0.15302,3.01721 0.32789,5.80562 0.56549,6.79477c0.0264,0.20545 -0.14681,0.38739 -0.34638,0.36387z" fill="#000000" stroke="#001026" stroke-width="1.2" stroke-linecap="round" stroke-linejoin="round"/><path d="M351.16747,161.4503c0,0 0.47306,-3.58658 2.64534,-5.70831" fill="none" stroke="#001026" stroke-width="1.2" stroke-linecap="round" stroke-linejoin="round"/><path d="M348.24718,160.90395c0,0 -0.71879,-2.05758 -0.09905,-5.17161" fill="none" stroke="#001026" stroke-width="1.2" stroke-linecap="round" stroke-linejoin="round"/><path d="M350.22035,175.50325c-0.79833,-0.09404 -1.79884,-2.33658 -1.59327,-3.22293c0.14395,-0.79246 1.62915,-1.3763 2.32182,-1.24415c0.34339,0.09103 0.31388,1.20049 0.19046,2.24832c-0.11756,0.99791 -0.32613,2.3392 -0.919,2.21877z" fill="#001026" stroke="#000000" stroke-width="1.2" stroke-linecap="round" stroke-linejoin="round"/><path d="M347.01028,189.44142c1.34104,1.92854 2.23265,6.38409 2.23265,6.38409" fill="none" stroke="#001026" stroke-width="1.2" stroke-linecap="round" stroke-linejoin="round"/><path d="M344.29457,194.88855c0,0 -0.11392,-3.7569 0.98703,-5.80248" fill="none" stroke="#001026" stroke-width="1.2" stroke-linecap="round" stroke-linejoin="round"/><g fill="#a00000"><path d="M359.45435,173.55573c-1.0627,1.29129 -3.60148,0.94162 -5.67629,-0.76982c-2.06895,-1.76135 -2.84641,-4.17994 -1.78375,-5.47122c1.0627,-1.29129 3.60148,-0.94162 5.67629,0.76982c2.07487,1.71148 2.89631,4.18584 1.78375,5.47122z" stroke="#001026" stroke-width="1.2" stroke-linecap="round" stroke-linejoin="round"/><path d="M354.80308,167.94906c0.54882,0.06464 0.95089,0.51671 0.89211,1.01566c-0.05877,0.49898 -0.55487,0.84523 -1.1037,0.78058c-0.54882,-0.06464 -0.95089,-0.51671 -0.89211,-1.01566c0.05877,-0.49898 0.55487,-0.84523 1.1037,-0.78058" stroke="none" stroke-width="1" stroke-linecap="butt" stroke-linejoin="miter"/></g><g><path d="M354.81594,180.29395c2.0191,1.75547 2.94033,4.24159 1.61052,5.65316c-1.2799,1.41746 -4.11216,0.98263 -6.12538,-0.82271c-2.0191,-1.75547 -2.459,-4.03314 -1.31704,-5.56801c1.1067,-1.2355 3.81281,-1.01795 5.83187,0.73754z" fill="#ffffff" stroke="#001026" stroke-width="1.2" stroke-linecap="round" stroke-linejoin="round"/><path d="M351.88678,180.25246c0.54882,0.06464 0.90099,0.51084 0.89211,1.01566c-0.05877,0.49898 -0.55487,0.84523 -1.1037,0.78058c-0.54882,-0.06464 -0.95089,-0.51671 -0.89211,-1.01566c0.05877,-0.49898 0.55487,-0.84523 1.1037,-0.78058" fill="#001026" stroke="none" stroke-width="1" stroke-linecap="butt" stroke-linejoin="miter"/></g></g><path d="M350.49085,179.4656c0,0 -0.0518,-0.14347 -0.03362,-0.31454c-0.17566,-0.03389 -0.38077,-0.0478 -0.6559,-0.03203c-0.78294,-0.09006 -1.56563,-0.18228 -2.34834,-0.27447l-0.49488,0.05197c0,0 -0.626,0.05027 -0.67627,-0.57572c-0.05026,-0.62599 0.57572,-0.67627 0.57572,-0.67627l0.74237,-0.04739c0.7484,0.08817 1.49681,0.17609 2.24493,0.26659c1.59486,-0.06351 3.63821,0.72837 4.96511,1.34098c1.07179,0.4948 1.3816,1.75513 2.55233,2.26151c0.43333,0.18744 0.96271,-0.09962 1.41598,0.03243c0.23228,0.06766 0.34402,0.37728 0.57794,0.43918c1.23636,0.32728 1.47503,0.03718 2.46766,1.02746c0,0 0.44111,0.44699 -0.00587,0.88812c-0.44699,0.44111 -0.88812,-0.00587 -0.88812,-0.00587c-1.17875,-1.21824 -2.61542,-0.66762 -4.04218,-1.21839c-0.97842,-0.37772 -1.70701,-1.21795 -2.24634,-2.02007c-0.02146,-0.03189 -0.04256,-0.05989 -0.06341,-0.08441c-0.07159,0.11387 -0.15668,0.18106 -0.15668,0.18106c-0.18017,0.1422 -0.36032,0.28434 -0.54046,0.42654l-0.5834,0.11649c0,0 -0.62369,-0.07346 -0.55023,-0.69714c0.04911,-0.41692 0.34409,-0.52228 0.53429,-0.54636c0.00547,-0.00431 0.01092,-0.00863 0.01635,-0.01291c-0.07974,-0.10926 -0.15881,-0.2197 -0.2736,-0.28203c-0.31825,-0.17265 -0.7138,-0.07485 -1.08207,-0.0921c0.07546,0.17695 0.0545,0.35479 0.0545,0.35479l-1.22862,0.26061c-0.0924,-0.25599 -0.18479,-0.51197 -0.27718,-0.76797z" fill="#a00000" fill-rule="nonzero" stroke="none" stroke-width="0.5" stroke-linecap="butt" stroke-linejoin="miter"/><path d="M346.17552,176.10232c-0.05026,-0.62599 0.57572,-0.67627 0.57572,-0.67627l0.54136,-0.03862c0.2674,-0.0548 0.53482,-0.1096 0.80223,-0.16442c0.71095,-0.03238 1.62675,-0.4047 2.32428,-0.2321c0.60499,0.14967 1.29145,0.71691 1.86303,0.98491c1.58476,0.74297 3.40683,1.52933 5.06901,2.04605c1.47611,0.45889 3.6473,0.29568 5.21615,0.48048c0,0 0.62369,0.07346 0.55023,0.69714c-0.07346,0.62369 -0.69714,0.55023 -0.69714,0.55023c-1.67377,-0.19717 -3.86179,-0.04968 -5.44938,-0.53076c-1.71597,-0.52 -3.6007,-1.34351 -5.22631,-2.10796c-0.05259,-0.02474 -1.47928,-0.85954 -1.59238,-0.89278c-0.46808,-0.13756 -1.41074,0.22626 -1.89939,0.25079c-0.23507,0.04941 -0.47015,0.0988 -0.70525,0.14824l-0.69587,0.06073c0,0 -0.626,0.05027 -0.67627,-0.57572z" fill="#a00000" fill-rule="nonzero" stroke="none" stroke-width="0.5" stroke-linecap="butt" stroke-linejoin="miter"/><path d="M340.8537,164.48731c0.49298,-0.38908 0.88205,0.10389 0.88205,0.10389l0.2843,0.40856c2.10599,0.51472 4.27175,1.05115 6.35596,1.66719c1.63866,0.48432 3.41253,-0.29426 4.0814,1.72795c0,0 0.16342,0.60638 -0.44295,0.76979c-0.60636,0.16343 -0.76978,-0.44295 -0.76978,-0.44295c-0.12284,-0.87517 -1.65318,-0.65122 -2.38933,-0.74183c-2.50008,-0.30767 -5.14113,-1.16341 -7.53675,-1.9383l-0.56881,-0.67234c0,0 -0.38905,-0.49295 0.10389,-0.88205z" fill="#a00000" fill-rule="nonzero" stroke="none" stroke-width="0.5" stroke-linecap="butt" stroke-linejoin="miter"/><path d="M341.57215,163.05821c0.07346,-0.62369 0.69714,-0.55023 0.69714,-0.55023l0.58502,0.07751c2.20807,0.64072 4.43728,0.95311 6.59128,1.76969c1.34353,0.50931 2.51992,1.53581 3.88187,1.91505c0,0 0.60313,0.175 0.42812,0.77814c-0.175,0.60313 -0.77814,0.42812 -0.77814,0.42812c-1.42097,-0.4252 -2.59948,-1.4252 -3.99595,-1.95417c-2.11482,-0.8011 -4.30657,-1.10073 -6.47722,-1.73056l-0.38196,-0.03639c0,0 -0.62369,-0.07346 -0.55023,-0.69714z" fill="#a00000" fill-rule="nonzero" stroke="none" stroke-width="0.5" stroke-linecap="butt" stroke-linejoin="miter"/><path d="M353.81021,184.09883c-0.03929,-0.62676 0.58748,-0.66607 0.58748,-0.66607l0.10454,-0.00656c1.97555,0.05778 2.01813,0.14999 2.11189,2.01138c0,0 0.03009,0.62728 -0.59723,0.65734c-0.62728,0.03009 -0.65734,-0.59723 -0.65734,-0.59723c-0.01543,-0.34148 0.39152,-0.96663 0.05454,-1.02405c-0.28204,-0.04809 -0.55554,0.1374 -0.83328,0.20612l-0.10454,0.00656c0,0 -0.62676,0.03929 -0.66607,-0.58748z" fill="#a00000" fill-rule="nonzero" stroke="none" stroke-width="0.5" stroke-linecap="butt" stroke-linejoin="miter"/><path d="M351.83696,183.24348c0.62369,0.07346 0.55023,0.69714 0.55023,0.69714l-0.01426,0.12091c-0.05697,0.48351 -0.11391,0.96702 -0.17088,1.45052c0,0 -0.07346,0.62369 -0.69714,0.55023c-0.62369,-0.07346 -0.55023,-0.69714 -0.55023,-0.69714c0.05694,-0.48348 0.12815,-1.08789 0.18508,-1.57138c0,0 0.07346,-0.62369 0.69714,-0.55023z" fill="#a00000" fill-rule="nonzero" stroke="none" stroke-width="0.5" stroke-linecap="butt" stroke-linejoin="miter"/><path d="M350.4294,181.30208c0.38905,0.49298 -0.10389,0.88205 -0.10389,0.88205l-0.79111,0.18214c-0.23227,-0.10906 -0.46453,-0.21812 -0.69676,-0.32718c0,0 -0.56845,-0.26694 -0.30151,-0.8354c0.26692,-0.56846 0.83536,-0.30152 0.83536,-0.30152c0.13085,0.06142 0.2617,0.12289 0.39254,0.18431c0.17912,-0.05952 0.4397,-0.07032 0.6654,0.21562z" fill="#a00000" fill-rule="nonzero" stroke="none" stroke-width="0.5" stroke-linecap="butt" stroke-linejoin="miter"/><path d="M322.35778,193.03802c-0.31541,-0.54304 0.2276,-0.85846 0.2276,-0.85846l0.23852,0.06235c0.1057,-0.36015 0.17746,-0.71945 0.24717,-1.07904c-0.05567,-0.10221 -0.07383,-0.18982 -0.07383,-0.18982c-0.04625,-0.22913 -0.12499,-0.45405 -0.13876,-0.68738c-0.00523,-0.08886 0.17232,-0.25134 0.08336,-0.25373c-0.2648,-0.00705 -0.58112,0.43214 -0.75892,0.23576c-0.32561,-0.35961 -0.26114,-0.93881 -0.31416,-1.42101c-0.02978,-0.27086 0.50074,-0.80478 0.229,-0.78472c-0.21788,0.01611 -0.48003,0.32667 -0.63286,0.17056c-0.64638,-0.6602 -0.79306,-2.16756 0.57318,-2.36687c0.39841,-0.0581 0.6152,0.51956 0.92282,0.77938l0.11648,0.58342c0,0 -0.01426,0.1211 -0.08358,0.25026c0.08673,0.16311 0.16127,0.37057 0.21405,0.62594c0.05429,0.26263 -0.0018,0.545 -0.08443,0.80012c-0.04158,0.12828 -0.40449,0.32357 -0.27176,0.29971c0.20929,-0.03765 0.35106,-0.45341 0.53528,-0.3471c0.25515,0.14726 0.42091,0.38543 0.53641,0.65658c0.05829,0.00168 0.12186,0.01153 0.19098,0.0316c0.60313,0.175 0.42812,0.77814 0.42812,0.77814c-0.22201,0.75635 -0.29422,1.50897 -0.51229,2.26816l-0.81392,0.67371c0,0 -0.54304,0.31541 -0.85846,-0.2276z" fill="#a00000" fill-rule="nonzero" stroke="none" stroke-width="0.5" stroke-linecap="butt" stroke-linejoin="miter"/><path d="M318.668,191.56816c-0.38905,-0.49298 0.10389,-0.88205 0.10389,-0.88205l0.53651,-0.39958c0.21568,-0.09713 0.43139,-0.19428 0.6471,-0.29144c0,0 0.57263,-0.25788 0.8305,0.31472c0.25788,0.57263 -0.31472,0.8305 -0.31472,0.8305c-0.2157,0.09714 -0.43143,0.19429 -0.6471,0.29144l-0.27415,0.24026c0,0 -0.49298,0.38905 -0.88205,-0.10389z" fill="#a00000" fill-rule="nonzero" stroke="none" stroke-width="0.5" stroke-linecap="butt" stroke-linejoin="miter"/><path d="M316.5713,189.39244l0.7395,-0.03545c0,0 0.62728,-0.03009 0.65734,0.59723c0.03009,0.62728 -0.59723,0.65734 -0.59723,0.65734l-0.7395,0.03545c0,0 -0.62728,0.03009 -0.65734,-0.59723c-0.03009,-0.62728 0.59723,-0.65734 0.59723,-0.65734z" fill="#a00000" fill-rule="nonzero" stroke="none" stroke-width="0.5" stroke-linecap="butt" stroke-linejoin="miter"/><path d="M317.17316,196.2901c-0.52501,-0.34462 -0.18037,-0.86963 -0.18037,-0.86963l0.41646,-0.45548c0.2157,-0.09714 0.43143,-0.19429 0.6471,-0.29144c0,0 0.17378,-0.07825 0.37298,-0.05282c0.12498,-0.19874 0.35677,-0.31898 0.60547,-0.28971c0.34447,0.0406 0.59081,0.3527 0.55023,0.69714c-0.0406,0.34447 -0.3527,0.59081 -0.69714,0.55023c-0.00971,-0.00114 -0.01937,-0.00251 -0.02889,-0.00409c-0.11298,0.16611 -0.28686,0.24445 -0.28686,0.24445c-0.2157,0.09714 -0.43143,0.19429 -0.6471,0.29144l0.11775,-0.00046c0,0 -0.34464,0.52498 -0.86963,0.18037z" fill="#a00000" fill-rule="nonzero" stroke="none" stroke-width="0.5" stroke-linecap="butt" stroke-linejoin="miter"/><path d="M322.67599,187.71451c0.49298,-0.38905 0.88205,0.10389 0.88205,0.10389l0.22002,0.36077c0.00261,0.00971 0.00523,0.01941 0.00783,0.02912c0.17234,-0.05348 0.53681,-0.10497 0.74891,0.31177c0.28483,0.55968 -0.27486,0.84454 -0.27486,0.84454l-0.28687,0.13232c-0.36596,0.2852 -0.62401,0.56707 -0.90144,0.62727c-0.04188,0.08917 -0.10387,0.16613 -0.17945,0.22583l-0.54048,0.42654v0c-0.12616,0.09957 -0.29029,0.15103 -0.46256,0.13075c-0.24423,-0.02877 -0.43914,-0.19407 -0.51742,-0.41061l-0.41215,0.12193c-0.08293,0.02658 -0.17277,0.03628 -0.26494,0.02543c-0.34447,-0.0406 -0.59081,-0.3527 -0.55023,-0.69714c0.01232,-0.10477 0.04982,-0.20043 0.10566,-0.28172l0.44113,-0.67198l0.00619,0.00406l0.00742,-0.02395c0.32104,-0.41122 0.68906,-0.79093 1.09658,-1.11665c0,0 0.39306,-0.31022 0.75423,-0.02566c0.03249,-0.03942 0.07224,-0.07841 0.12039,-0.11642zM322.61624,188.80947c0.00924,-0.00386 0.01845,-0.00773 0.02768,-0.0116c-0.00117,-0.00433 -0.00235,-0.00866 -0.00351,-0.013c-0.0087,0.00926 -0.01686,0.01747 -0.02421,0.0246z" fill="#ffffff" fill-rule="nonzero" stroke="none" stroke-width="0.5" stroke-linecap="butt" stroke-linejoin="miter"/><path d="M346.28841,178.427c0.45487,0.433 0.0219,0.88785 0.0219,0.88785l-0.51056,0.01287c0.16446,0.10048 0.31279,0.20105 0.41805,0.28013c0,0 0.497,0.38386 0.11313,0.88089c-0.38388,0.49699 -0.88089,0.11313 -0.88089,0.11313c-1.02898,-0.82575 -3.06282,-0.81908 -1.25017,-2.41344c0.1729,-0.15211 0.418,-0.19216 0.62987,-0.28382l0.49453,-0.39028l0.15647,0.19826l0.6373,-0.1855c-0.01964,0.22288 -0.03982,0.44664 -0.05438,0.67059l0.2015,0.1095l-0.03678,0.06766c0.01996,0.01578 0.03997,0.03315 0.06003,0.05224z" fill="#8da900" fill-rule="nonzero" stroke="none" stroke-width="0.5" stroke-linecap="butt" stroke-linejoin="miter"/><path d="M346.09365,170.25175c0,0 0.38562,0.48861 -0.0974,0.87687c0.16569,0.13074 0.26162,0.34192 0.23512,0.56691c-0.0203,0.17221 -0.10846,0.31993 -0.23461,0.4195v0l-0.27294,0.21542c-0.03274,0.14523 -0.04414,0.29203 -0.02306,0.43911l0.25171,0.52865c0,0 0.21687,0.48157 -0.18877,0.76035c0.05847,0.16172 0.10621,0.45104 -0.16812,0.67724c0.21161,0.41514 0.46333,0.98587 0.54137,1.15773l0.03683,0.45224c0,0 -0.01991,0.16886 -0.12685,0.32048c0.05968,0.02299 0.11772,0.04837 0.17257,0.07818c0,0 0.55179,0.29985 0.25195,0.85163c-0.29984,0.5518 -0.85163,0.25195 -0.85163,0.25195c-0.08686,-0.04721 -0.30593,-0.16398 -0.54296,-0.29474c-0.12038,0.08146 -0.26947,0.12172 -0.42514,0.10338c-0.13003,-0.01532 -0.24608,-0.06932 -0.33798,-0.14917c-0.24111,-0.01639 -0.3923,-0.19166 -0.46271,-0.29842c-0.00259,0.00281 -0.00517,0.00558 -0.00781,0.00833c-0.10307,0.25665 -0.36838,0.42317 -0.65625,0.38926c-0.34447,-0.0406 -0.59081,-0.3527 -0.55023,-0.69714c0.01756,-0.14905 0.08595,-0.27976 0.18585,-0.37678c0.04234,-0.12352 0.09248,-0.24559 0.1499,-0.36475c0.00073,-0.0244 0.00256,-0.04975 0.00568,-0.07609c0.03443,-0.29234 0.18977,-0.43152 0.3451,-0.49689c0.13194,-0.17306 0.28089,-0.33183 0.44425,-0.47004l0.01344,-0.07917c0,0 0.12353,-0.18822 0.33538,-0.26526c0.0931,-0.15778 0.21764,-0.28975 0.37808,-0.38148c-0.46793,-0.47826 -1.42871,-0.41524 -1.62224,-1.1344c-0.2698,-1.00255 0.95732,-1.63444 1.69677,-1.97481c-0.13517,-0.18722 -0.27314,-0.37202 -0.43229,-0.53871c-0.25031,-0.26215 -0.79276,-0.37735 -0.79697,-0.73974c-0.00512,-0.43863 1.0283,-1.16867 1.38073,-1.44335l0.07819,-0.01324l-0.01019,-0.02257l0.6377,-0.2872c0.1027,-0.0484 0.21975,-0.06959 0.34078,-0.05532c0.34447,0.0406 0.59081,0.3527 0.55023,0.69714c-0.00397,0.03361 -0.01052,0.06632 -0.01944,0.09791l-0.21778,0.82145l-0.01436,-0.00381c-0.01241,0.21437 -0.02978,0.42834 -0.05441,0.64162l0.08255,-0.1923zM344.46136,172.7726c-0.00133,-0.01284 -0.00272,-0.02564 -0.00413,-0.0385c-0.01914,0.00911 -0.03795,0.01808 -0.05637,0.02681c0.01972,0.00306 0.03993,0.007 0.06051,0.01172z" fill="#8da900" fill-rule="nonzero" stroke="none" stroke-width="0.5" stroke-linecap="butt" stroke-linejoin="miter"/><path d="M342.50724,172.72289c0.56199,1.23175 0.5124,1.51508 -0.01751,2.22059c0.21129,0.36803 -0.0648,0.98912 -0.41377,1.48935l0.2546,0.21414c0.00449,0.59822 -0.18304,1.22682 -0.52862,1.7151c0,0 -0.38388,0.49699 -0.88092,0.11315c-0.49702,-0.38389 -0.11315,-0.88092 -0.11315,-0.88092c0.01941,-0.02145 0.03788,-0.04395 0.05538,-0.06741c-0.20804,-0.12011 -0.33688,-0.35459 -0.31099,-0.60783c-0.12843,-0.20522 -0.1095,-0.38892 -0.04974,-0.52891l-0.05646,-0.57789c0.08415,-0.16937 0.12174,-0.39995 0.17681,-0.60755c-0.43047,-0.42861 -0.00702,-0.87342 -0.00702,-0.87342l0.25074,-0.08126c0.06052,-0.50014 0.15905,-1.00912 0.31677,-1.49483l-0.24621,-0.07143l0.2034,-0.70109c0.08004,-0.29538 0.3664,-0.49548 0.67948,-0.4586c0.28057,0.03304 0.49603,0.24626 0.54438,0.51034l0.14281,0.68858z" fill="#8da900" fill-rule="nonzero" stroke="none" stroke-width="0.5" stroke-linecap="butt" stroke-linejoin="miter"/><path d="M343.40323,179.69957c-0.44111,-0.44699 0.00587,-0.88812 0.00587,-0.88812l1.13457,-0.71291c0.24305,0.38907 0.48609,0.77819 0.72914,1.16725c0,0 0.21321,0.59072 -0.37748,0.80389c-0.41824,0.15095 -0.64724,-0.10111 -0.74532,-0.26115c-0.16674,0.09566 -0.45802,0.18361 -0.74679,-0.10898z" fill="#a00000" fill-rule="nonzero" stroke="none" stroke-width="0.5" stroke-linecap="butt" stroke-linejoin="miter"/><path d="M343.11575,178.21109c-0.62369,-0.07346 -0.55023,-0.69714 -0.55023,-0.69714l0.02848,-0.24175c0.04009,-0.30517 0.15532,-0.59491 0.31342,-0.86681l-0.15611,-0.08482l0.30595,-0.56307c0.11634,-0.22646 0.36453,-0.36824 0.63225,-0.33669c0.26773,0.03152 0.47615,0.2271 0.53669,0.47439l0.16674,0.61875l-0.04334,0.01168l0.06331,0.10595c-0.02937,0.28149 -0.0587,0.56302 -0.08807,0.84451c0,0 -0.07178,0.6093 -0.67564,0.55251c-0.10292,0.11916 -0.26857,0.21373 -0.53349,0.18252z" fill="#a00000" fill-rule="nonzero" stroke="none" stroke-width="0.5" stroke-linecap="butt" stroke-linejoin="miter"/><path d="M341.93437,175.09822c-0.56845,-0.26694 -0.30151,-0.8354 -0.30151,-0.8354l0.15255,-0.32344c0.07178,-0.15451 0.10914,-0.34029 0.1593,-0.51442c-0.22105,-0.20808 -0.18196,-0.54008 -0.18196,-0.54008l0.1139,-0.967c0.0124,-0.10537 0.05023,-0.2016 0.10664,-0.28316c-0.00091,-0.01905 -0.00173,-0.03819 -0.00249,-0.05733l-0.02102,-0.26101c0,0 -0.05026,-0.62599 0.57572,-0.67626c0.14815,-0.01188 0.26408,0.01407 0.3547,0.0607c0.24247,0.10812 0.31317,0.34667 0.3337,0.48273c0.1071,-0.05493 0.23111,-0.07973 0.35963,-0.0646c0.26773,0.03152 0.47615,0.2271 0.53669,0.47439l0.16674,0.61875l-0.02304,0.00621l0.03707,0.05992c0.03108,0.62549 -0.00323,1.25518 -0.0752,1.87727c0,0 -0.07346,0.62369 -0.69714,0.55023c-0.03991,-0.00472 -0.07694,-0.01166 -0.11133,-0.02054c-0.06579,0.04396 -0.14842,0.07805 -0.25216,0.09546c-0.11375,0.06651 -0.24926,0.09798 -0.39023,0.08138c-0.01318,-0.00154 -0.0262,-0.00349 -0.03909,-0.00583c-0.08809,0.13835 -0.34948,0.45428 -0.80148,0.24203z" fill="#a00000" fill-rule="nonzero" stroke="none" stroke-width="0.5" stroke-linecap="butt" stroke-linejoin="miter"/><path d="M343.23502,169.74939c0.0406,-0.34447 0.3527,-0.59081 0.69714,-0.55023c0.34447,0.0406 0.59081,0.3527 0.55023,0.69714c-0.0406,0.34447 -0.3527,0.59081 -0.69714,0.55023c-0.34447,-0.0406 -0.59081,-0.3527 -0.55023,-0.69714z" fill="#a00000" fill-rule="nonzero" stroke="none" stroke-width="0.5" stroke-linecap="butt" stroke-linejoin="miter"/><path d="M343.3086,175.53662c-0.31143,-0.03668 -0.44904,-0.21055 -0.50874,-0.37548c-0.01218,-0.00571 -0.02414,-0.01172 -0.03586,-0.01814c-0.00629,0.09792 -0.02165,0.19798 -0.04907,0.30047c-0.05909,0.22097 -0.18606,0.42177 -0.29714,0.62611c-0.07545,0.67938 -0.17018,1.35452 -0.24741,2.0105l-0.09967,0.84614c-0.0406,0.34447 -0.3527,0.59081 -0.69714,0.55023c-0.31303,-0.03686 -0.54507,-0.29804 -0.5543,-0.60393l-0.02705,-0.56374c-0.3536,-0.08851 -0.43635,-0.48752 -0.43635,-0.48752c-0.47798,-2.30451 -0.06518,-3.91477 0.57436,-6.11881l0.2034,-0.70109c0.08004,-0.29538 0.3664,-0.49548 0.67948,-0.4586c0.09357,0.01102 0.17988,0.04209 0.25519,0.08838c0.06512,-0.17945 0.23477,-0.452 0.65902,-0.40208c0.39251,0.04625 0.50888,0.31036 0.54125,0.49986c0.0059,0.00482 0.01181,0.00975 0.01772,0.01492c0.18536,-0.02715 0.52733,-0.0132 0.67878,0.40643c0.2132,0.59072 -0.3775,0.80391 -0.3775,0.80391c-0.13673,0.02107 -0.27973,0.07549 -0.42208,0.12639c0.09967,0.10432 0.171,0.26118 0.14332,0.49623c-0.06683,0.56729 -0.58889,0.55783 -0.68275,0.55145c-0.05014,0.10417 -0.07876,0.20818 -0.09181,0.31264c0.0031,0.05767 0.00575,0.11546 0.00789,0.17331c0.08283,0.0447 0.15386,0.10722 0.20852,0.18187c0.2447,0.06688 0.49477,0.11532 0.74611,0.14321l0.50899,1.04717c0,0 -0.07346,0.62369 -0.69714,0.55023zM342.81948,172.8445c-0.06245,0.06979 -0.11303,0.13926 -0.15344,0.20858z" fill="#000000" fill-rule="nonzero" stroke="none" stroke-width="0.5" stroke-linecap="butt" stroke-linejoin="miter"/><path d="M343.11875,173.53349l-0.05756,-0.7165" fill="none" fill-rule="nonzero" stroke="#001026" stroke-width="1.2" stroke-linecap="round" stroke-linejoin="miter"/><path d="M343.34099,174.05649l-0.36613,-2.31424" fill="none" fill-rule="nonzero" stroke="#a00000" stroke-width="1.2" stroke-linecap="round" stroke-linejoin="miter"/><path d="M344.00803,174.41894l-1.86108,-1.07089" fill="none" fill-rule="nonzero" stroke="#000000" stroke-width="1.2" stroke-linecap="round" stroke-linejoin="miter"/><path d="M342.03591,172.4833l2.48319,-1.1979" fill="none" fill-rule="nonzero" stroke="#000000" stroke-width="1.2" stroke-linecap="round" stroke-linejoin="miter"/><path d="M336.92214,181.54341c0.61174,0.14189 0.46987,0.75367 0.46987,0.75367l-0.16255,0.68542c-0.02634,0.01201 -0.05268,0.024 -0.07899,0.03599l0.05405,0.02538l-0.27806,0.59216c-0.0818,0.18537 -0.24943,0.32041 -0.44735,0.36132c-0.45314,0.65946 -1.57857,1.23974 -2.30331,0.29591c-0.72899,-0.94938 0.2983,-3.0768 1.60195,-2.8869c0.23536,0.03428 0.42272,0.13816 0.56613,0.28719c0.11447,-0.12096 0.29654,-0.21545 0.57826,-0.15011z" fill="#a00000" fill-rule="nonzero" stroke="none" stroke-width="0.5" stroke-linecap="butt" stroke-linejoin="miter"/><path d="M335.25459,183.11099c0.0406,-0.34447 0.3527,-0.59081 0.69714,-0.55023c0.34447,0.0406 0.59081,0.3527 0.55023,0.69714c-0.0406,0.34447 -0.3527,0.59081 -0.69714,0.55023c-0.34447,-0.0406 -0.59081,-0.3527 -0.55023,-0.69714z" fill="#ffffff" fill-rule="nonzero" stroke="none" stroke-width="0.5" stroke-linecap="butt" stroke-linejoin="miter"/><path d="M342.79751,173.85052l-0.25914,-2.01775l1.17774,-0.35808" fill="none" fill-rule="nonzero" stroke="#000000" stroke-width="1.2" stroke-linecap="round" stroke-linejoin="miter"/><path d="M331.16868,180.99094c-0.34447,-0.0406 -0.59081,-0.3527 -0.55023,-0.69714c0.00462,-0.03926 0.01279,-0.07724 0.02412,-0.11364c-0.12553,0.0972 -0.28778,0.14715 -0.45794,0.12715c-0.34447,-0.0406 -0.59081,-0.3527 -0.55023,-0.69714c0.01354,-0.115 0.05734,-0.21908 0.12255,-0.30518c-0.24303,-0.10957 -0.39822,-0.36723 -0.36534,-0.64606c0.00638,-0.05412 0.01946,-0.10583 0.03827,-0.15434c-0.28379,-0.08768 -0.47357,-0.36782 -0.43759,-0.67339c0.0406,-0.34447 0.3527,-0.59081 0.69714,-0.55023c0.02678,0.00316 0.05295,0.00795 0.07847,0.0143c0.06693,-0.31346 0.36284,-0.53006 0.68752,-0.49181c0.34447,0.0406 0.59081,0.3527 0.55023,0.69714c-0.00316,0.02678 -0.00796,0.05296 -0.01427,0.07847c0.31346,0.06693 0.53006,0.36284 0.49181,0.68752c-0.00702,0.05985 -0.02231,0.11673 -0.0445,0.16971c0.24787,0.10736 0.40702,0.36773 0.37381,0.64979c-0.00986,0.08366 -0.03571,0.16151 -0.07418,0.23087c0.26005,0.10133 0.42942,0.36851 0.39523,0.65864c-0.00803,0.06818 -0.02671,0.13251 -0.05416,0.19156c0.21284,0.12099 0.34388,0.36124 0.31346,0.61971c-0.0406,0.34447 -0.3527,0.59081 -0.69714,0.55023c-0.21795,-0.02568 -0.39661,-0.16006 -0.48819,-0.34261c-0.01289,-0.00072 -0.02582,-0.00187 -0.03883,-0.00337zM330.88172,179.75705c-0.00462,0.03926 -0.01279,0.07724 -0.02412,0.11364c0.00857,-0.00664 0.0173,-0.01304 0.0262,-0.01921c0.00063,-0.00762 0.00139,-0.01528 0.00229,-0.0229c0.00986,-0.08366 0.03571,-0.16151 0.07418,-0.23087c-0.03039,-0.01182 -0.05952,-0.02595 -0.08726,-0.04206c0.01344,0.06459 0.01685,0.13236 0.00872,0.20148zM330.56137,179.04265c-0.01353,0.02383 -0.02862,0.04662 -0.04498,0.0683c0.01972,0.00889 0.03889,0.01875 0.05742,0.02954c-0.00662,-0.03192 -0.01083,-0.06457 -0.01238,-0.09783zM330.22997,178.03647c-0.00709,0.03313 -0.01669,0.06519 -0.02864,0.09594c0.01083,0.00336 0.02154,0.00699 0.0321,0.01087c0.00066,-0.00789 0.0014,-0.0158 0.00232,-0.02372c0.00316,-0.02678 0.00795,-0.05295 0.0143,-0.07847c-0.00674,-0.00143 -0.01344,-0.00299 -0.02006,-0.00463z" fill="#e93e3e" fill-rule="nonzero" stroke="none" stroke-width="0.5" stroke-linecap="butt" stroke-linejoin="miter"/><path d="M330.27792,189.75755c-0.34447,-0.0406 -0.59081,-0.3527 -0.55023,-0.69714c0.01073,-0.09115 0.04046,-0.17543 0.08482,-0.24935c-0.06602,-0.11347 -0.09719,-0.24852 -0.08062,-0.38891c0.01692,-0.14386 0.08125,-0.27058 0.1755,-0.36647c-0.10991,-0.12847 -0.1679,-0.30069 -0.14657,-0.48178c0.01999,-0.16986 0.10602,-0.31579 0.22936,-0.41529c-0.17721,-0.12929 -0.2814,-0.34782 -0.25392,-0.5812c0.02163,-0.18348 0.12026,-0.33913 0.25986,-0.43839c-0.15292,-0.13161 -0.23979,-0.3344 -0.2144,-0.54987c0.03206,-0.27232 0.23389,-0.48333 0.48719,-0.53969c-0.07365,-0.11713 -0.10921,-0.25925 -0.09177,-0.40733c0.02159,-0.18326 0.12003,-0.33872 0.25929,-0.438c-0.23164,-0.11436 -0.37757,-0.36554 -0.3456,-0.63673c0.01692,-0.14386 0.08125,-0.27058 0.1755,-0.36647c-0.10989,-0.12849 -0.1679,-0.30069 -0.14657,-0.48178c0.00868,-0.07369 0.02979,-0.14288 0.06098,-0.20571c-0.01572,-0.06839 -0.02019,-0.14058 -0.01152,-0.21427c0.0067,-0.0568 0.02077,-0.11092 0.04115,-0.16153c-0.04707,-0.10169 -0.06749,-0.21724 -0.05342,-0.33672c0.02376,-0.20161 0.14053,-0.36964 0.30241,-0.46616c-0.05413,-0.10658 -0.07847,-0.22972 -0.06345,-0.35738c0.0406,-0.34447 0.3527,-0.59081 0.69714,-0.55023c0.34447,0.0406 0.59081,0.3527 0.55023,0.69714c-0.02376,0.20161 -0.14053,0.36964 -0.30241,0.46616c0.05413,0.10658 0.07847,0.22972 0.06345,0.35738c-0.0067,0.0568 -0.02077,0.11092 -0.04115,0.16153c0.04707,0.10172 0.06749,0.21724 0.05342,0.33672c-0.00868,0.07369 -0.02977,0.14291 -0.06097,0.20572c0.01572,0.06839 0.02018,0.14056 0.01148,0.21428c-0.01692,0.14386 -0.08125,0.27058 -0.1755,0.36647c0.10988,0.12848 0.16787,0.30067 0.14656,0.48177c-0.02159,0.18326 -0.12003,0.33872 -0.25929,0.438c0.23165,0.11438 0.37757,0.36554 0.3456,0.63673c-0.03209,0.27233 -0.23389,0.48333 -0.48719,0.53969c0.07365,0.11713 0.10921,0.25925 0.09177,0.40733c-0.02163,0.18348 -0.12026,0.33913 -0.25986,0.43839c0.15292,0.13161 0.23979,0.3344 0.2144,0.54987c-0.01999,0.16986 -0.10603,0.31579 -0.22936,0.41529c0.17719,0.12929 0.2814,0.34782 0.25392,0.5812c-0.01692,0.14386 -0.08125,0.27058 -0.1755,0.36647c0.10988,0.12848 0.1679,0.30069 0.14657,0.48178c-0.01073,0.09115 -0.04046,0.17543 -0.08482,0.24935c0.06602,0.11347 0.09719,0.24852 0.08062,0.38891c-0.0406,0.34447 -0.3527,0.59081 -0.69714,0.55023z" fill="#e93e3e" fill-rule="nonzero" stroke="none" stroke-width="0.5" stroke-linecap="butt" stroke-linejoin="miter"/><path d="M330.74244,176.83076c0.0406,-0.34447 0.3527,-0.59081 0.69714,-0.55023c0.32468,0.03822 0.56215,0.31769 0.55441,0.63812c0.02629,-0.00021 0.05286,0.00118 0.07963,0.00434c0.34447,0.0406 0.59081,0.3527 0.55023,0.69714c-0.01573,0.13332 -0.0721,0.25196 -0.15531,0.34493c0.01644,0.00063 0.03301,0.00192 0.04965,0.0039c0.34447,0.0406 0.59081,0.3527 0.55023,0.69714c-0.01459,0.1239 -0.06432,0.23509 -0.13803,0.32481c0.2113,0.12149 0.34117,0.3608 0.31085,0.61818c-0.01074,0.09117 -0.0405,0.17545 -0.08488,0.24939c0.22599,0.11653 0.36744,0.36444 0.33591,0.63185c-0.0406,0.34447 -0.3527,0.59081 -0.69714,0.55023c-0.34447,-0.0406 -0.59081,-0.3527 -0.55023,-0.69714c0.01074,-0.09117 0.0405,-0.17545 0.08488,-0.24939c-0.22599,-0.11653 -0.36744,-0.36444 -0.33591,-0.63185c0.01459,-0.12388 0.06432,-0.23509 0.13803,-0.32481c-0.2113,-0.12149 -0.34116,-0.36081 -0.31085,-0.61818c0.01573,-0.13332 0.0721,-0.25196 0.15531,-0.34493c-0.01644,-0.00063 -0.03301,-0.00192 -0.04965,-0.0039c-0.32468,-0.03822 -0.56213,-0.31772 -0.55439,-0.63812c-0.0263,0.00022 -0.05285,-0.00118 -0.07964,-0.00435c-0.34447,-0.0406 -0.59081,-0.3527 -0.55023,-0.69714z" fill="#e93e3e" fill-rule="nonzero" stroke="none" stroke-width="0.5" stroke-linecap="butt" stroke-linejoin="miter"/><path d="M329.88858,191.9892c0.00809,-0.06887 0.07052,-0.11814 0.13942,-0.11005c0.06887,0.00809 0.11814,0.07052 0.11005,0.13942c-0.00809,0.06887 -0.07052,0.11814 -0.13942,0.11005c-0.06887,-0.00809 -0.11814,-0.07052 -0.11005,-0.13942z" fill="#a00000" fill-rule="nonzero" stroke="none" stroke-width="0.5" stroke-linecap="butt" stroke-linejoin="miter"/><path d="M332.41059,191.54229c0.11194,-0.05696 0.16889,0.05496 0.16889,0.05496l0.00268,0.00524c0.07596,0.14925 0.15191,0.29851 0.22786,0.44773c0,0 0.05696,0.11194 -0.05496,0.16889c-0.11194,0.05696 -0.16889,-0.05496 -0.16889,-0.05496c-0.07594,-0.14925 -0.15457,-0.30372 -0.23053,-0.45299c0,0 -0.05696,-0.11194 0.05496,-0.16889z" fill="#a00000" fill-rule="nonzero" stroke="none" stroke-width="0.5" stroke-linecap="butt" stroke-linejoin="miter"/><path d="M331.59974,192.99603c-0.11809,-0.01391 -0.21695,-0.08099 -0.27546,-0.17449c-0.05448,0.09553 -0.16033,0.19417 -0.36277,0.17029c-0.37424,-0.04409 -0.33015,-0.41829 -0.33015,-0.41829l0.01433,-0.07789c-0.00174,-0.04317 -0.00443,-0.08541 -0.00789,-0.1269c-0.04043,-0.01805 -0.07686,-0.04292 -0.108,-0.07303c-0.00861,0.03731 -0.03452,0.0867 -0.11123,0.09288c-0.02499,0.002 -0.04537,-0.00135 -0.06202,-0.00808c-0.00996,0.00088 -0.02084,0.00077 -0.0327,-0.00066c-0.12476,-0.01471 -0.11005,-0.13942 -0.11005,-0.13942l0.00824,-0.07c0.00963,-0.0619 0.0284,-0.12394 0.05506,-0.1827c0.00061,-0.08136 0.002,-0.16681 0.00185,-0.252c-0.0068,-0.00083 -0.01378,-0.00159 -0.02091,-0.00233l-0.14566,-0.12519c0,0 -0.01231,-0.01561 -0.02095,-0.03928c-0.00879,0.00087 -0.0178,0.00077 -0.02693,-0.00029c-0.06887,-0.00809 -0.11814,-0.07052 -0.11005,-0.13942c0.00399,-0.03373 0.02098,-0.06277 0.04538,-0.08265c-0.00469,-0.00132 -0.00926,-0.00288 -0.0137,-0.00472c-0.02222,0.00523 -0.04886,0.00554 -0.0757,-0.00813c-0.01011,0.00136 -0.02058,0.00145 -0.0312,0.00021c-0.06887,-0.00809 -0.11814,-0.07052 -0.11005,-0.13942c0.0062,-0.05267 0.04413,-0.09384 0.09241,-0.10671c0.00155,-0.00283 0.00318,-0.00562 0.00491,-0.00829c0.02516,-0.03908 0.0711,-0.06259 0.12037,-0.0568c0.00329,0.00038 0.00652,0.00089 0.00969,0.00151c0.04227,-0.03899 0.08276,-0.07915 0.12311,-0.11942c-0.02263,-0.06273 -0.0453,-0.12549 -0.06795,-0.18825c0,0 -0.04265,-0.11815 0.07551,-0.16077c0.07819,-0.0282 0.12328,0.014 0.14488,0.04575c0.02213,-0.00741 0.04414,-0.01392 0.06602,-0.01955c0.00725,-0.06166 0.01452,-0.1234 0.02179,-0.18503l-0.08524,-0.01003c0,0 -0.05091,-0.00601 -0.08386,-0.04285c-0.01082,0.0351 -0.04319,0.09887 -0.1344,0.08813c-0.12476,-0.01471 -0.11005,-0.13942 -0.11005,-0.13942l0.00824,-0.07c0.00824,-0.07 0.01648,-0.13997 0.02474,-0.21c0,0 0.01471,-0.12476 0.13942,-0.11005c0.12476,0.01471 0.11005,0.13942 0.11005,0.13942c-0.0035,0.02957 -0.00844,0.07169 -0.01362,0.11573c0.04011,-0.02614 0.08885,-0.0204 0.08885,-0.0204l0.06263,0.00739l0.02826,-0.05428c0.00035,-0.00013 0.00077,-0.00027 0.0011,-0.0004c0.0066,-0.05597 0.0132,-0.1119 0.01978,-0.16791c0,0 0.01471,-0.12476 0.13942,-0.11005c0.12476,0.01471 0.11005,0.13942 0.11005,0.13942c-0.00366,0.03089 -0.00736,0.0625 -0.01116,0.09472c0.01971,0.01228 0.03779,0.03284 0.04984,0.06621c0.01872,0.05184 0.00647,0.08915 -0.01316,0.11468c0.08994,-0.01381 0.16149,-0.00214 0.21822,0.02333c0.07902,-0.08344 0.19505,-0.12986 0.31793,-0.11536c0.20668,0.02434 0.35449,0.21163 0.33015,0.41829c-0.01223,0.10369 -0.06545,0.19256 -0.14159,0.25235c-0.00001,0.00488 -0.00029,0.00982 -0.00087,0.01479c-0.00809,0.06887 -0.07052,0.11814 -0.13942,0.11005c-0.01874,-0.00221 -0.03599,-0.00844 -0.0511,-0.0177c0.06407,0.11582 0.04875,0.2458 0.04875,0.2458c-0.02309,0.16444 -0.01658,0.31865 0.00239,0.47041c0.00671,-0.01333 0.01013,-0.02769 0.00916,-0.0432c0,0 0.00999,-0.08488 0.0835,-0.10634c0.00373,-0.0318 0.00748,-0.0636 0.01124,-0.09541l-0.03561,0.01425c0,0 -0.07782,-0.09861 0.02079,-0.17641c0.09861,-0.07782 0.17641,0.02079 0.17641,0.02079l0.08791,0.17076c-0.01375,0.11667 -0.02749,0.23334 -0.04121,0.35c0,0 -0.01471,0.12476 -0.13942,0.11005c-0.02637,-0.0031 -0.04651,-0.01115 -0.06187,-0.02185c-0.02102,0.01914 -0.04328,0.03709 -0.06617,0.05387c0.02604,0.14206 0.05387,0.28608 0.06934,0.43832c0.07797,-0.07132 0.18535,-0.10963 0.29852,-0.09628c0.20668,0.02434 0.35449,0.21163 0.33015,0.41829c-0.02434,0.20668 -0.21163,0.35449 -0.41829,0.33015zM330.15875,191.24031c-0.00399,0.03373 -0.02098,0.06277 -0.04538,0.08265c0.01811,0.00508 0.03442,0.01409 0.04807,0.02589c0.00569,-0.00297 0.01164,-0.0055 0.01777,-0.00756l0.0735,-0.02652c-0.00957,-0.0561 -0.02246,-0.10751 -0.03982,-0.15221c-0.0177,0.01728 -0.0356,0.03451 -0.05377,0.05152c0.00078,0.00857 0.0007,0.01734 -0.00036,0.02627z" fill="#a00000" fill-rule="nonzero" stroke="none" stroke-width="0.5" stroke-linecap="butt" stroke-linejoin="miter"/><path d="M331.99083,193.89373l-0.01664,-0.00576c-0.16609,0.00409 -0.33217,0.00822 -0.49825,0.01229c0,0 -0.03375,0.00085 -0.08131,-0.0081c-0.01391,-0.00011 -0.02795,-0.00095 -0.04209,-0.00263c-0.20668,-0.02434 -0.35449,-0.21163 -0.33015,-0.41829c0.02434,-0.20668 0.21163,-0.35449 0.41829,-0.33015c0.01117,0.00133 0.02223,0.0031 0.03305,0.00537c0.16061,-0.00396 0.32121,-0.00792 0.48185,-0.01188l0.12336,0.01072c0,0 0.37424,0.04409 0.33015,0.41829c-0.04409,0.37424 -0.41829,0.33015 -0.41829,0.33015z" fill="#a00000" fill-rule="nonzero" stroke="none" stroke-width="0.5" stroke-linecap="butt" stroke-linejoin="miter"/><path d="M329.1126,200.07685c0.28658,-0.88093 2.03653,-1.85143 1.96899,-2.89681c-0.08307,-0.07876 -0.16815,-0.21845 -0.0718,-0.42367c0.10616,-0.2261 0.29182,-0.2319 0.40495,-0.21018c0.13665,-0.00843 0.22583,0.04987 0.28279,0.11744l0.035,0.01654c1.65467,0.9001 3.40082,1.62048 4.9668,2.65563c0.40189,0.26566 1.84791,0.61137 1.33745,1.46506c-0.20267,0.33896 -1.91993,-0.03368 -2.23803,-0.07116c-1.09653,-0.12917 -2.19465,-0.24876 -3.29002,-0.38756c-0.17316,-0.02194 -0.80921,-0.0713 -0.94858,0.10137c-0.06792,0.08415 0.21631,0.87933 0.24862,0.9992c0.2953,1.09582 -0.0523,2.19803 0.25071,3.29426c0.19766,0.75224 -0.06048,2.8911 -1.26222,1.65767c-0.28756,-0.29514 -0.40553,-1.25236 -0.65915,-1.63978c-0.98433,-1.50369 -1.59584,-2.6256 -1.96495,-4.40212c0,0 -0.07652,-0.36895 0.29242,-0.44546c0.36895,-0.07652 0.44546,0.29242 0.44546,0.29242c0.00798,0.0384 0.01595,0.07657 0.02402,0.11444c0.02207,-0.11146 0.09015,-0.19144 0.09015,-0.19144z" fill="#ffffff" fill-rule="nonzero" stroke="none" stroke-width="0.5" stroke-linecap="butt" stroke-linejoin="miter"/><path d="M332.15665,206.49756c-0.00683,0.00737 -0.01371,0.01462 -0.02071,0.02176l-0.10846,-0.13047c-0.00587,-0.00051 -0.01185,-0.0011 -0.01787,-0.00183c-0.0831,-0.00982 -0.14557,-0.03585 -0.1925,-0.07048c-0.00591,0.11979 -0.01659,0.24343 -0.03168,0.37442c0,0 -0.04409,0.37424 -0.41829,0.33015c-0.37424,-0.04409 -0.33015,-0.41829 -0.33015,-0.41829c0.003,-0.02478 0.00581,-0.04917 0.00842,-0.07315l-0.12815,-0.50548c-0.0252,-0.0436 -0.04432,-0.09526 -0.05757,-0.15392c-0.05727,0.06517 -0.12132,0.13645 -0.19277,0.21555l-0.32389,-0.81092c0.04747,-0.09621 0.09491,-0.19237 0.14236,-0.28855c-0.20909,-0.18282 -0.33132,-0.39168 -0.24395,-0.66619c0.09879,-0.31036 0.42536,-0.49338 0.63806,-0.74006l0.14553,0.34279c0.06066,-0.07806 0.12135,-0.15607 0.18199,-0.23411l0.16549,0.37452c0.03342,-0.06735 0.0685,-0.13339 0.10497,-0.19793l0.47703,0.69895c-0.00254,0.13817 -0.03425,0.27738 -0.08698,0.40934c0.2013,0.19223 0.37613,0.41452 0.50824,0.65563l0.08805,-0.04295c0.01546,0.07836 0.01769,0.15971 0.00894,0.24131c0.03442,0.07994 0.06408,0.16144 0.08845,0.24419l-0.4046,0.42574z" fill="#a00000" fill-rule="nonzero" stroke="none" stroke-width="0.5" stroke-linecap="butt" stroke-linejoin="miter"/><path d="M335.99228,200.89453c-0.37424,-0.04409 -0.33015,-0.41829 -0.33015,-0.41829l0.00861,-0.05635c-0.07842,-0.07871 -0.12138,-0.19123 -0.10738,-0.31014c0.00967,-0.08224 0.04518,-0.15517 0.09744,-0.21164l-0.11737,-0.66685c-0.00757,-0.03788 -0.00941,-0.07758 -0.00465,-0.11805c0.02434,-0.20668 0.21163,-0.35449 0.41829,-0.33015c0.16064,0.0189 0.28569,0.13624 0.32203,0.28463l0.05999,0.22256l0.06676,-0.09947c0.08224,0.1252 0.15191,0.2426 0.20903,0.35141c0.05494,-0.0209 0.11556,-0.02928 0.17801,-0.02195c0.16064,0.0189 0.28569,0.13624 0.32203,0.28463l0.04683,0.17379c0.07794,-0.07112 0.18517,-0.10928 0.29815,-0.09597c0.04804,0.00567 0.09293,0.02014 0.13317,0.04161c0.1346,-0.01534 0.23776,0.01815 0.24245,0.14561c0.00927,0.0004 0.01852,0.00115 0.02787,0.00224c0.20668,0.02434 0.35449,0.21163 0.33015,0.41829c-0.00277,0.02337 -0.00757,0.04604 -0.01432,0.06776l-0.08272,0.28499l0.04762,0.04265c-0.0236,0.01167 -0.04684,0.02289 -0.06974,0.03368l-0.01094,0.03764c-0.04804,0.17722 -0.21984,0.29727 -0.40769,0.27517c-0.08349,-0.00984 -0.1573,-0.04621 -0.21412,-0.09975c-0.23555,0.0347 -0.38447,-0.01712 -0.4478,-0.13151c-0.23552,-0.03348 -0.40708,-0.23083 -0.59194,-0.39407c-0.02475,0.09685 -0.11458,0.32219 -0.40967,0.28744z" fill="#a00000" fill-rule="nonzero" stroke="none" stroke-width="0.5" stroke-linecap="butt" stroke-linejoin="miter"/><path d="M326.99748,206.55276c0.02434,-0.20668 0.21163,-0.35449 0.41829,-0.33015c0.20668,0.02434 0.35449,0.21163 0.33015,0.41829c-0.02434,0.20668 -0.21163,0.35449 -0.41829,0.33015c-0.20668,-0.02434 -0.35449,-0.21163 -0.33015,-0.41829z" fill="#a00000" fill-rule="nonzero" stroke="none" stroke-width="0.5" stroke-linecap="butt" stroke-linejoin="miter"/><path d="M323.78057,207.32487l0.25425,-0.0888c0.39867,-0.19999 0.82774,-0.33855 1.2581,-0.45569c0,0 0.36383,-0.09806 0.46189,0.26575c0.09806,0.36383 -0.26575,0.46189 -0.26575,0.46189c-0.38125,0.1016 -0.76256,0.22082 -1.11389,0.40046l-0.33871,0.12525c0,0 -0.35442,0.12792 -0.48234,-0.22651c-0.12792,-0.35442 0.22651,-0.48234 0.22651,-0.48234z" fill="#a00000" fill-rule="nonzero" stroke="none" stroke-width="0.5" stroke-linecap="butt" stroke-linejoin="miter"/><path d="M322.67776,207.67629c0.02434,-0.20668 0.21163,-0.35449 0.41829,-0.33015c0.20668,0.02434 0.35449,0.21163 0.33015,0.41829c-0.02434,0.20668 -0.21163,0.35449 -0.41829,0.33015c-0.20668,-0.02434 -0.35449,-0.21163 -0.33015,-0.41829z" fill="#a00000" fill-rule="nonzero" stroke="none" stroke-width="0.5" stroke-linecap="butt" stroke-linejoin="miter"/><path d="M321.19951,207.57315c0.02434,-0.20668 0.21163,-0.35449 0.41829,-0.33015c0.20668,0.02434 0.35449,0.21163 0.33015,0.41829c-0.02434,0.20668 -0.21163,0.35449 -0.41829,0.33015c-0.20668,-0.02434 -0.35449,-0.21163 -0.33015,-0.41829z" fill="#a00000" fill-rule="nonzero" stroke="none" stroke-width="0.5" stroke-linecap="butt" stroke-linejoin="miter"/><path d="M328.22471,205.77469c0.02434,-0.20668 0.21163,-0.35449 0.41829,-0.33015c0.20668,0.02434 0.35449,0.21163 0.33015,0.41829c-0.02434,0.20668 -0.21163,0.35449 -0.41829,0.33015c-0.20668,-0.02434 -0.35449,-0.21163 -0.33015,-0.41829z" fill="#a00000" fill-rule="nonzero" stroke="none" stroke-width="0.5" stroke-linecap="butt" stroke-linejoin="miter"/><path d="M334.87952,202.30027c0.02434,-0.20668 0.21163,-0.35449 0.41829,-0.33015c0.20668,0.02434 0.35449,0.21163 0.33015,0.41829c-0.02434,0.20668 -0.21163,0.35449 -0.41829,0.33015c-0.20668,-0.02434 -0.35449,-0.21163 -0.33015,-0.41829z" fill="#a00000" fill-rule="nonzero" stroke="none" stroke-width="0.5" stroke-linecap="butt" stroke-linejoin="miter"/><path d="M333.76755,203.30483c0.02434,-0.20668 0.21163,-0.35449 0.41829,-0.33015c0.20668,0.02434 0.35449,0.21163 0.33015,0.41829c-0.02434,0.20668 -0.21163,0.35449 -0.41829,0.33015c-0.20668,-0.02434 -0.35449,-0.21163 -0.33015,-0.41829z" fill="#a00000" fill-rule="nonzero" stroke="none" stroke-width="0.5" stroke-linecap="butt" stroke-linejoin="miter"/><path d="M332.47033,204.07471c0.02434,-0.20668 0.21163,-0.35449 0.41829,-0.33015c0.20668,0.02434 0.35449,0.21163 0.33015,0.41829c-0.02434,0.20668 -0.21163,0.35449 -0.41829,0.33015c-0.20668,-0.02434 -0.35449,-0.21163 -0.33015,-0.41829z" fill="#a00000" fill-rule="nonzero" stroke="none" stroke-width="0.5" stroke-linecap="butt" stroke-linejoin="miter"/><path d="M362.58237,188.79284c0.34552,0.04069 0.64166,0.21803 0.84083,0.47158c0.26369,-0.08091 0.59175,-0.07028 0.97517,0.15719c0.61153,0.36282 0.67145,0.86644 0.60834,1.23516c0.46677,0.1957 0.77991,0.66133 0.76957,1.18183l-0.00898,1.36019l-0.18617,-0.00121l0.10745,0.43062c-1.49492,1.85229 -4.63884,5.19226 -5.29056,0.45778c-0.02244,-0.16289 -0.02955,-0.31909 -0.02335,-0.46938c-0.21026,-0.25499 -0.32013,-0.59202 -0.27845,-0.94615c0.07474,-0.63447 0.61013,-1.1025 1.23243,-1.10911c0.13267,-0.16052 0.27086,-0.31854 0.40882,-0.47655c-0.37954,-0.25404 -0.60652,-0.70674 -0.54945,-1.19149c0.08117,-0.68892 0.70539,-1.1816 1.39433,-1.10045z" fill="#ffffff" fill-rule="nonzero" stroke="none" stroke-width="0.5" stroke-linecap="butt" stroke-linejoin="miter"/><path d="M358.41016,194.00117c0.07639,-0.64848 0.63398,-1.12309 1.27374,-1.10889c-0.03099,-0.13601 -0.03967,-0.27956 -0.02243,-0.42602c0.06168,-0.5235 0.43691,-0.9337 0.91583,-1.06486c0.08355,-0.25265 0.24389,-0.46669 0.4507,-0.61809c-0.13081,-0.2263 -0.19237,-0.49521 -0.15945,-0.77476c0.08117,-0.68892 0.70539,-1.1816 1.39433,-1.10045c0.68892,0.08117 1.1816,0.70539 1.10045,1.39433c-0.04251,0.36084 -0.23399,0.66783 -0.50574,0.86676c0.13081,0.2263 0.19237,0.49521 0.15945,0.77476c-0.06168,0.5235 -0.43691,0.9337 -0.91583,1.06486c-0.17105,0.51736 -0.664,0.87252 -1.21871,0.86024c0.03099,0.13601 0.03967,0.27956 0.02243,0.42602c-0.08117,0.68892 -0.70539,1.1816 -1.39433,1.10045c-0.68892,-0.08117 -1.1816,-0.70539 -1.10045,-1.39433z" fill="#a00000" fill-rule="nonzero" stroke="none" stroke-width="0.5" stroke-linecap="butt" stroke-linejoin="miter"/></g></g></g></svg>