<svg version="1.1" xmlns="http://www.w3.org/2000/svg" xmlns:xlink="http://www.w3.org/1999/xlink" width="263.86815" height="237.19956" viewBox="0,0,263.86815,237.19956"><g transform="translate(-107.76592,-61.70022)"><g data-paper-data="{&quot;isPaintingLayer&quot;:true}" stroke-miterlimit="10" stroke-dasharray="" stroke-dashoffset="0" style="mix-blend-mode: normal"><path d="M259.16647,225.39955c1.87291,-1.38042 17.53846,5.26102 24.98595,2.93502c5.23502,-1.8133 11.50413,-4.44326 16.24853,-10.06688c10.91349,-12.56994 11.52789,-8.08907 20.65113,-4.47882c9.34736,3.5814 13.76206,9.8457 -12.42835,22.33186c-9.00975,4.34995 -17.52693,5.44655 -24.50405,6.11703c-1.79308,0.23086 -17.46057,0.65308 -23.82102,-6.27497c-6.36049,-6.92808 -2.80985,-9.43591 -1.13221,-10.56332z" fill="#000000" fill-rule="evenodd" stroke="#001026" stroke-width="1.2" stroke-linecap="round" stroke-linejoin="round"/><path d="M248.96912,251.83278c-4.15661,-2.19903 -9.05684,-8.40372 -2.66362,-15.37887c7.36963,-8.24014 18.74768,-1.27456 23.66328,1.51035c4.91564,2.78487 7.41673,4.51353 17.68949,8.20366c4.07008,1.52661 9.23193,2.68486 12.03702,3.2351c1.14956,0.07987 2.27023,-0.06442 3.33321,-0.657c1.90181,-1.15626 -20.56976,-4.27392 -15.90714,-1.68431c4.77335,3.22474 6.88692,-1.68681 1.8884,5.70558c-0.57422,0.84925 1.24006,-1.31342 0.73224,-0.35319c-4.77846,9.03526 2.90972,6.031 -3.17966,4.90818c-12.81812,-2.22313 -14.79172,4.7578 -11.67399,-1.11206c0.33286,-0.95426 -0.53937,-4.18919 -1.46476,-4.29789l4.81676,10.19184c-2.68242,-0.48377 3.40849,2.2271 0.88753,1.57492c-2.79819,-0.72392 -9.63308,-3.75689 -12.17208,-4.60286c-10.88856,-3.62798 -14.9513,-5.73981 -17.98661,-7.2435z" fill="#000000" fill-rule="evenodd" stroke="#001026" stroke-width="1.2" stroke-linecap="round" stroke-linejoin="round"/><path d="M209.36105,208.43503c3.37745,-3.85266 11.20013,-3.26488 12.23228,2.98212c0.75031,5.82756 -3.17738,12.48527 -5.40531,16.41776c-2.22789,3.93249 -13.07696,18.77266 -29.43701,13.8156c-6.93285,-2.52519 -23.79022,-13.1145 -16.6736,-21.54991c7.11661,-8.43541 15.69635,-0.19809 21.68164,3.81617c5.00221,3.45728 16.59676,-14.44092 17.60203,-15.48175z" fill="#000000" fill-rule="evenodd" stroke="#001026" stroke-width="1.2" stroke-linecap="round" stroke-linejoin="round"/><g fill-rule="evenodd"><path d="M231.11414,242.09075c-2.94934,-1.67095 -6.07187,-4.68672 -10.3218,-9.38014c-3.46209,-3.88345 -7.66774,-11.7725 -7.66774,-11.7725c-2.73865,-5.34368 -5.46867,-15.92912 1.9567,-16.65731c4.95984,-0.41075 9.35604,-1.66029 16.83239,-3.76216c13.10194,-4.42114 15.33657,-6.5317 22.12319,1.93648c7.43688,9.97942 23.91235,15.83298 7.25593,36.8893c0,0 -9.8861,9.93126 -21.43641,24.63384c-7.84004,9.89567 -20.34461,24.26539 -24.72733,29.15888c-1.00523,1.04083 -2.29234,1.66226 -3.60831,2.05954c-21.48158,4.81644 -37.90802,4.65285 -39.14891,-4.98503c-2.07778,-16.1379 30.69526,-14.66116 30.69526,-14.66116c0,0 9.18487,-10.06882 13.34343,-14.93344z" fill="#000000" stroke="#001026" stroke-width="1.2" stroke-linecap="round" stroke-linejoin="round"/><path d="M219.31867,228.34326c0,0 -4.98006,-5.05513 3.87865,-12.34772c9.24929,-7.79859 13.98307,-1.11679 18.71014,3.74304c5.37734,6.3711 1.32747,10.3103 -2.63582,14.92194c-3.15333,3.82376 -6.1691,6.94629 -6.1691,6.94629c0,0 -7.55424,-3.81226 -13.78388,-13.26355z" fill="#a00000" stroke="none" stroke-width="1" stroke-linecap="butt" stroke-linejoin="miter"/></g><g fill-rule="evenodd"><path d="M195.56217,92.41186c5.03972,-1.56027 10.36127,-2.70115 16.69484,-3.06089c10.59214,-0.90804 21.1689,1.60367 21.1689,1.60367l24.84078,-21.19864c0.83883,-0.56368 2.04607,-0.03556 1.93737,0.88984l0.45873,40.72654c-1.57569,-1.61993 27.45237,25.6306 14.82846,53.23114c-12.62391,27.60054 -44.99687,43.38907 -88.20238,40.52133c-43.20551,-2.86774 -56.18423,-25.80477 -55.13948,-38.92689c1.04474,-13.12213 16.35246,-19.87791 16.35246,-19.87791c0,0 -1.07449,-10.11503 4.51071,-23.36602c3.30629,-7.94482 16.29474,-20.3262 16.29474,-20.3262l2.73975,-24.73297c0.10873,-0.9254 1.20054,-1.29385 1.93067,-0.93214z" fill="#000000" stroke="#001026" stroke-width="1.2" stroke-linecap="butt" stroke-linejoin="miter"/><path d="M149.28966,147.12998c18.50334,-6.71154 22.11451,7.17821 38.39666,6.22113c19.00066,-1.07925 42.15032,-24.79439 60.25533,-2.74522c18.07615,21.82505 -3.54403,57.41944 -59.22811,53.19626c-42.72836,-2.70133 -56.45933,-24.40223 -55.41458,-37.52435c1.04475,-13.12209 15.99075,-19.14778 15.99075,-19.14778z" fill="#000000" stroke="none" stroke-width="1" stroke-linecap="butt" stroke-linejoin="miter"/><path d="M222.98071,162.02238c2.08646,10.89614 1.91613,25.50064 -18.19175,30.36809c-23.36123,4.37489 -34.0428,-11.33878 -36.83921,-17.13074c-0.59258,-1.06298 0.15967,-2.29908 1.30923,-2.21925c3.44861,0.23955 10.70757,-0.0115 22.72441,-2.24225c13.33277,-2.62802 24.97446,-7.77255 29.03106,-9.88981c0.86768,-0.33956 1.8508,0.21743 1.96623,1.11397z" fill="#000000" stroke="#001026" stroke-width="1.2" stroke-linecap="round" stroke-linejoin="round"/><path d="M136.1637,160.21263c0,0 -16.16672,1.85365 -27.79778,-5.30723" fill="none" stroke="#001026" stroke-width="1.2" stroke-linecap="round" stroke-linejoin="round"/><path d="M136.96979,173.55217c0,0 -8.19304,5.38407 -22.45795,6.08143" fill="none" stroke="#001026" stroke-width="1.2" stroke-linecap="round" stroke-linejoin="round"/><path d="M198.51804,148.99446c0.46173,3.5862 -8.23057,10.40167 -12.32278,10.47283c-3.61505,0.2376 -7.78511,-5.60538 -7.965,-8.77214c0.02216,-1.59781 4.89546,-2.68098 9.60232,-3.287c4.48273,-0.57716 10.56328,-1.1322 10.68545,1.58631z" fill="#001026" stroke="#000000" stroke-width="1.2" stroke-linecap="round" stroke-linejoin="round"/><path d="M262.84345,147.77585c6.95017,-7.95826 25.41794,-16.7159 25.41794,-16.7159" fill="none" stroke="#001026" stroke-width="1.2" stroke-linecap="round" stroke-linejoin="round"/><path d="M289.57825,153.67567c0,0 -16.26871,4.60099 -26.39718,2.03157" fill="none" stroke="#001026" stroke-width="1.2" stroke-linecap="round" stroke-linejoin="round"/><g fill="#a00000"><path d="M179.9331,110.82955c6.79526,3.22642 8.04289,14.68628 2.84153,25.60933c-5.42549,10.95191 -15.12976,16.98628 -21.92506,13.75982c-6.79526,-3.22642 -8.04289,-14.68628 -2.84153,-25.60933c5.20136,-10.92306 15.10091,-17.21041 21.92506,-13.75982z" stroke="#001026" stroke-width="1.2" stroke-linecap="round" stroke-linejoin="round"/><path d="M160.54949,137.24973c-0.31744,-2.46549 1.21596,-4.7136 3.45732,-5.00218c2.24141,-0.28859 4.29421,1.49779 4.61164,3.96329c0.31744,2.46549 -1.21596,4.7136 -3.45732,5.00218c-2.24141,0.28859 -4.29421,-1.49779 -4.61164,-3.96329" stroke="none" stroke-width="1" stroke-linecap="butt" stroke-linejoin="miter"/></g><g><path d="M214.40207,123.70838c5.45434,-10.72779 15.29617,-17.46339 22.90817,-13.20284c7.58311,4.03643 8.77976,16.86993 3.10125,27.62658c-5.45434,10.72779 -14.91238,15.13545 -22.8572,11.82916c-6.60003,-3.47944 -8.60661,-15.5251 -3.15227,-26.25289z" fill="#ffffff" stroke="#001026" stroke-width="1.2" stroke-linecap="round" stroke-linejoin="round"/><path d="M217.42063,136.53519c-0.31744,-2.46549 1.24481,-4.48948 3.45732,-5.00218c2.24141,-0.28859 4.29421,1.49779 4.61164,3.96329c0.31744,2.46549 -1.21596,4.7136 -3.45732,5.00218c-2.24141,0.28859 -4.29421,-1.49779 -4.61164,-3.96329" fill="#001026" stroke="none" stroke-width="1" stroke-linecap="butt" stroke-linejoin="miter"/></g></g><path d="M215.51207,143.48577c0,0 -0.56951,0.38274 -1.33577,0.49023c0.04401,0.80355 0.20741,1.71379 0.57663,2.89703c0.4623,3.51478 0.9149,7.0307 1.3676,10.54671l0.76739,2.10259c0,0 0.90317,2.67652 -1.77339,3.57973c-2.67656,0.90317 -3.57973,-1.77339 -3.57973,-1.77339l-1.01772,-3.18752c-0.43286,-3.36196 -0.86676,-6.72366 -1.28903,-10.08698c-2.01932,-6.8897 -0.79597,-16.67091 0.42758,-23.12996c0.98832,-5.21722 6.14922,-7.94589 7.07992,-13.6074c0.34447,-2.0955 -1.48638,-4.09189 -1.40541,-6.21399c0.04153,-1.08753 1.27041,-1.91325 1.28507,-3.00146c0.07751,-5.75236 -1.44892,-6.47696 1.78774,-11.88993c0,0 1.46853,-2.41309 3.88166,-0.94457c2.41309,1.46857 0.94457,3.88166 0.94457,3.88166c-4.0282,6.47434 -0.05613,12.14173 -0.90091,18.96879c-0.57933,4.68186 -3.44974,8.77899 -6.36067,12.0085c-0.11575,0.12848 -0.21481,0.25114 -0.29897,0.36894c0.57507,0.18792 0.96107,0.48589 0.96107,0.48589c0.8172,0.63077 1.63439,1.26154 2.45159,1.89231l1.14561,2.41843c0,0 0.36073,2.80172 -2.44099,3.16244c-1.87286,0.24113 -2.65494,-0.93091 -2.96768,-1.73452c-0.02474,-0.01913 -0.04951,-0.03821 -0.07424,-0.0573c-0.38961,0.46732 -0.7853,0.93291 -0.93169,1.50202c-0.40566,1.57732 0.45309,3.19648 0.78012,4.82226c0.68967,-0.52251 1.48862,-0.62538 1.48862,-0.62538l2.47929,5.07639c-1.01608,0.68282 -2.03216,1.36564 -3.04821,2.04846z" fill="#a00000" fill-rule="nonzero" stroke="none" stroke-width="0.5" stroke-linecap="butt" stroke-linejoin="miter"/><path d="M205.55049,165.98957c-2.67656,0.90317 -3.57973,-1.77339 -3.57973,-1.77339l-0.75987,-2.32001c-0.53122,-1.10694 -1.0625,-2.21395 -1.59372,-3.32089c-0.91791,-3.06684 -3.54286,-6.65613 -3.55176,-9.88845c-0.00772,-2.80339 1.71751,-6.41834 2.26246,-9.20515c1.51088,-7.72667 2.9516,-16.53625 3.3907,-24.35357c0.38995,-6.94221 -2.69403,-16.23783 -3.60142,-23.2854c0,0 -0.36073,-2.80172 2.44099,-3.16244c2.80172,-0.36073 3.16244,2.44099 3.16244,2.44099c0.96806,7.51879 4.00176,16.90508 3.63676,24.35802c-0.39452,8.05572 -1.92897,17.17917 -3.48893,25.10753c-0.05048,0.2565 -2.13458,7.39375 -2.15609,7.9235c-0.08902,2.1927 2.52835,5.90863 3.16913,8.01401c0.4724,0.9718 0.94477,1.9436 1.41717,2.91539l1.02523,2.97006c0,0 0.90317,2.67652 -1.77339,3.57973z" fill="#a00000" fill-rule="nonzero" stroke="none" stroke-width="0.5" stroke-linecap="butt" stroke-linejoin="miter"/><path d="M160.68203,201.89911c-2.2362,-1.72605 -0.51014,-3.96222 -0.51014,-3.96222l1.47224,-1.68685c-0.05454,-9.75168 -0.07956,-19.788 0.33174,-29.55526c0.32339,-7.67928 -5.01179,-14.56905 3.08158,-19.69678c0,0 2.46736,-1.37546 3.84282,1.09189c1.37546,2.46732 -1.0919,3.84278 -1.0919,3.84278c-3.68469,1.49209 -1.03573,7.92495 -0.6269,11.23611c1.38845,11.24508 0.53951,23.70402 -0.22481,35.00376l-2.31241,3.21638c0,0 -1.72602,2.23616 -3.96222,0.51014z" fill="#a00000" fill-rule="nonzero" stroke="none" stroke-width="0.5" stroke-linecap="butt" stroke-linejoin="miter"/><path d="M153.66143,200.32519c-2.80172,0.36073 -3.16244,-2.44099 -3.16244,-2.44099l-0.30082,-2.63745c0.38359,-10.33476 -0.68829,-20.40311 0.52186,-30.69408c0.75479,-6.41877 3.94857,-12.67327 4.11588,-19.03038c0,0 0.10477,-2.82289 2.92767,-2.71812c2.82289,0.10477 2.71812,2.92767 2.71812,2.92767c-0.30328,6.66492 -3.37918,12.89953 -4.16198,19.5709c-1.18547,10.10304 -0.09864,19.99396 -0.47575,30.15359l0.25847,1.70645c0,0 0.36073,2.80172 -2.44099,3.16244z" fill="#a00000" fill-rule="nonzero" stroke="none" stroke-width="0.5" stroke-linecap="butt" stroke-linejoin="miter"/><path d="M232.10317,123.94064c-2.692,0.8561 -3.5481,-1.8359 -3.5481,-1.8359l-0.14283,-0.4491c-1.90591,-8.6834 -1.55,-8.96984 6.46956,-11.41227c0,0 2.70429,-0.81641 3.5207,1.88788c0.81641,2.70429 -1.88788,3.5207 -1.88788,3.5207c-1.47322,0.4403 -4.64545,-0.65247 -4.52801,0.88066c0.09832,1.28328 1.20641,2.2739 1.80959,3.41084l0.14283,0.4491c0,0 0.8561,2.692 -1.8359,3.5481z" fill="#a00000" fill-rule="nonzero" stroke="none" stroke-width="0.5" stroke-linecap="butt" stroke-linejoin="miter"/><path d="M230.52633,133.48532c-0.36073,-2.80172 2.44099,-3.16244 2.44099,-3.16244l0.543,-0.06991c2.17199,-0.27965 4.34398,-0.5593 6.51593,-0.83894c0,0 2.80172,-0.36073 3.16244,2.44099c0.36073,2.80172 -2.44099,3.16244 -2.44099,3.16244c-2.17195,0.27964 -4.88693,0.6292 -7.05888,0.90884c0,0 -2.80172,0.36073 -3.16244,-2.44099z" fill="#a00000" fill-rule="nonzero" stroke="none" stroke-width="0.5" stroke-linecap="butt" stroke-linejoin="miter"/><path d="M223.59258,141.74794c1.72606,-2.23616 3.96222,-0.51014 3.96222,-0.51014l1.65887,3.25302c-0.22219,1.1326 -0.44434,2.2652 -0.66653,3.39777c0,0 -0.54377,2.77202 -3.31579,2.22825c-2.77201,-0.54373 -2.22825,-3.31575 -2.22825,-3.31575c0.12515,-0.63806 0.2503,-1.27612 0.37546,-1.91415c-0.45533,-0.71654 -0.78718,-1.84193 0.21398,-3.13899z" fill="#a00000" fill-rule="nonzero" stroke="none" stroke-width="0.5" stroke-linecap="butt" stroke-linejoin="miter"/><path d="M305.46666,251.41757c-2.02493,1.9696 -3.99453,-0.05534 -3.99453,-0.05534l0.01152,-1.10895c-1.68697,-0.06789 -3.33317,0.01153 -4.97829,0.10016c-0.3852,0.35464 -0.74763,0.52963 -0.74763,0.52963c-0.94932,0.45206 -1.84468,1.04143 -2.84788,1.35624c-0.38203,0.11991 -1.28498,-0.47743 -1.1981,-0.08655c0.25858,1.16316 2.52045,2.06372 1.85777,3.05404c-1.2135,1.81351 -3.81119,2.16503 -5.85738,2.92307c-1.14932,0.42577 -4.05868,-1.30584 -3.67424,-0.14201c0.30826,0.93313 1.94979,1.73765 1.43555,2.57512c-2.17464,3.5416 -8.59176,5.82828 -10.95378,0.08439c-0.68879,-1.67502 1.59519,-3.25201 2.39278,-4.87801l2.41847,-1.14561c0,0 0.54399,-0.07 1.18339,0.09131c0.61706,-0.55667 1.44078,-1.10849 2.49742,-1.61779c1.0867,-0.52379 2.38,-0.58747 3.58355,-0.50563c0.60517,0.04118 1.85378,1.41145 1.60464,0.85837c-0.39286,-0.87213 -2.36188,-1.03662 -2.09928,-1.95639c0.36384,-1.27434 1.22195,-2.25762 2.27905,-3.05782c-0.05634,-0.25618 -0.08281,-0.54419 -0.07079,-0.86793c0.10477,-2.82289 2.92767,-2.71812 2.92767,-2.71812c3.54278,0.14253 6.90576,-0.3645 10.45665,-0.24232l3.82879,2.81551c0,0 1.9696,2.02493 -0.05534,3.99453z" fill="#a00000" fill-rule="nonzero" stroke="none" stroke-width="0.5" stroke-linecap="butt" stroke-linejoin="miter"/><path d="M303.08347,269.12346c-1.72606,2.23616 -3.96222,0.51014 -3.96222,0.51014l-2.32953,-1.90463c-0.65951,-0.83506 -1.31903,-1.67015 -1.97855,-2.50521c0,0 -1.75079,-2.21686 0.46607,-3.96766c2.21686,-1.75079 3.96766,0.46607 3.96766,0.46607c0.65952,0.8351 1.31904,1.67019 1.97855,2.50525l1.34788,0.93385c0,0 2.23616,1.72606 0.51014,3.96222z" fill="#a00000" fill-rule="nonzero" stroke="none" stroke-width="0.5" stroke-linecap="butt" stroke-linejoin="miter"/><path d="M295.88013,280.64904l-0.96246,-3.18803c0,0 -0.81641,-2.70429 1.88788,-3.5207c2.70429,-0.81641 3.5207,1.88788 3.5207,1.88788l0.96246,3.18803c0,0 0.81641,2.70429 -1.88788,3.5207c-2.70429,0.81641 -3.5207,-1.88788 -3.5207,-1.88788z" fill="#a00000" fill-rule="nonzero" stroke="none" stroke-width="0.5" stroke-linecap="butt" stroke-linejoin="miter"/><path d="M325.32046,270.48812c-0.93032,2.66726 -3.59758,1.73693 -3.59758,1.73693l-2.44244,-1.31964c-0.65952,-0.8351 -1.31904,-1.67019 -1.97855,-2.50525c0,0 -0.53134,-0.67279 -0.63795,-1.5698c-1.00373,-0.32819 -1.78162,-1.20838 -1.92545,-2.32547c-0.19922,-1.54735 0.89365,-2.96322 2.44099,-3.16244c1.54735,-0.19922 2.96322,0.89365 3.16244,2.44099c0.00562,0.04363 0.01018,0.08717 0.01376,0.13056c0.84828,0.31149 1.3799,0.98462 1.3799,0.98462c0.65952,0.8351 1.31904,1.67019 1.97855,2.50525l-0.13063,-0.51329c0,0 2.66722,0.93033 1.73693,3.59758z" fill="#a00000" fill-rule="nonzero" stroke="none" stroke-width="0.5" stroke-linecap="butt" stroke-linejoin="miter"/><path d="M281.88999,255.8444c-2.23616,-1.72606 -0.51014,-3.96222 -0.51014,-3.96222l1.33382,-1.35421c0.03944,-0.02202 0.07896,-0.04398 0.11839,-0.06601c-0.42164,-0.69359 -1.04439,-2.22775 0.5424,-3.60839c2.13108,-1.85425 3.98533,0.27683 3.98533,0.27683l0.8907,1.10721c1.64417,1.28529 3.15616,2.10348 3.72179,3.24822c0.43486,0.08534 0.83841,0.27169 1.1814,0.53643l2.45163,1.8923v0c0.57228,0.44176 0.97605,1.10178 1.07566,1.87548c0.14126,1.09716 -0.36712,2.12822 -1.22648,2.70631l0.98227,1.66522c0.20669,0.33287 0.34706,0.71427 0.40036,1.12827c0.19922,1.54735 -0.89365,2.96322 -2.44099,3.16244c-0.47054,0.06058 -0.92894,0.00167 -1.34469,-0.15319l-3.41404,-1.1908l0.01097,-0.03141l-0.11264,-0.00627c-2.14496,-0.95171 -4.20395,-2.14275 -6.07034,-3.56512c0,0 -1.78296,-1.37621 -0.93587,-3.26299c-0.20751,-0.09878 -0.42108,-0.22956 -0.63947,-0.39813zM286.73302,254.90893c-0.02695,-0.03602 -0.05394,-0.07208 -0.08087,-0.10818c-0.01765,0.00984 -0.03527,0.01963 -0.05291,0.02947c0.04992,0.02793 0.09473,0.05451 0.13378,0.07867z" fill="#ffffff" fill-rule="nonzero" stroke="none" stroke-width="0.5" stroke-linecap="butt" stroke-linejoin="miter"/><path d="M215.5708,162.95759c1.39244,-2.4578 3.85024,-1.06537 3.85024,-1.06537l0.61388,2.21369c0.25875,-0.82736 0.53557,-1.58447 0.76565,-2.13015c0,0 1.13211,-2.58804 3.72016,-1.45589c2.58805,1.13215 1.45589,3.72016 1.45589,3.72016c-2.47918,5.39192 -0.22828,14.25928 -9.16534,8.0914c-0.85255,-0.58839 -1.2952,-1.61396 -1.92651,-2.43833l-2.24332,-1.73155l0.69406,-0.8992l-1.50558,-2.57815c0.99397,-0.15774 1.99236,-0.31419 2.9855,-0.49518l0.2577,-0.99893l0.33538,0.08653c0.04699,-0.10426 0.10097,-0.21061 0.16237,-0.31904z" fill="#8da900" fill-rule="nonzero" stroke="none" stroke-width="0.5" stroke-linecap="butt" stroke-linejoin="miter"/><path d="M180.11115,172.73778c0,0 1.71081,-2.2164 3.93255,-0.53281c0.38949,-0.86581 1.20623,-1.51497 2.21692,-1.6451c0.77365,-0.09961 1.51447,0.12384 2.08675,0.56556v0l1.23808,0.95563c0.66945,-0.01578 1.32247,-0.12642 1.94119,-0.37906l2.03176,-1.67581c0,0 1.86442,-1.47244 3.52396,-0.00691c0.64187,-0.43178 1.85219,-0.95612 3.13882,-0.0062c1.5803,-1.3768 3.79571,-3.09868 4.46043,-3.62698l1.93306,-0.65477c0,0 0.75854,-0.09766 1.53706,0.20335c0.03516,-0.28549 0.08245,-0.56647 0.15262,-0.83848c0,0 0.70561,-2.7353 3.44091,-2.02969c2.73529,0.70557 2.02968,3.44087 2.02968,3.44087c-0.11109,0.43069 -0.38134,1.51404 -0.69302,2.69125c0.48693,0.43638 0.82552,1.04288 0.91556,1.74225c0.07521,0.58412 -0.03367,1.14952 -0.28168,1.63779c0.19174,1.07008 -0.40776,1.92113 -0.79667,2.34496c0.01499,0.00818 0.02999,0.01648 0.04495,0.02498c1.23258,0.16936 2.24885,1.14513 2.41534,2.43828c0.19922,1.54735 -0.89365,2.96322 -2.44099,3.16244c-0.6696,0.08621 -1.31462,-0.06954 -1.84705,-0.39939c-0.58527,-0.04976 -1.17268,-0.13526 -1.75541,-0.25557c-0.1073,0.02354 -0.21997,0.04315 -0.3383,0.05838c-1.31327,0.16909 -2.09019,-0.35662 -2.54507,-0.96296c-0.89923,-0.38669 -1.75473,-0.86309 -2.5363,-1.42499l-0.36018,0.02788c0,0 -0.95612,-0.33351 -1.52379,-1.17363c-0.79014,-0.23385 -1.50199,-0.63313 -2.07753,-1.23305c-1.57574,2.56417 -0.25116,6.68778 -3.17778,8.31783c-4.07983,2.27235 -8.17754,-2.39191 -10.4705,-5.24662c-0.6693,0.7944 -1.32495,1.5982 -1.87842,2.47463c-0.87053,1.37852 -0.78043,3.87136 -2.3573,4.28558c-1.90839,0.50131 -6.22268,-3.2102 -7.80624,-4.44809l-0.14317,-0.32672l-0.08736,0.069l-1.94977,-2.46881c-0.32342,-0.39516 -0.54363,-0.88279 -0.61364,-1.42651c-0.19922,-1.54735 0.89365,-2.96322 2.44099,-3.16244c0.15106,-0.01945 0.30085,-0.02658 0.44842,-0.02218l3.82228,0.05296l-0.00093,0.06683c0.94891,-0.18004 1.90152,-0.3379 2.85903,-0.46342l-0.92926,-0.15012zM192.89384,177.10649c-0.05451,0.0198 -0.10898,0.03986 -0.16351,0.06012c0.06066,0.07353 0.12031,0.14584 0.1786,0.21662c-0.00811,-0.0894 -0.01307,-0.18188 -0.01509,-0.27674z" fill="#8da900" fill-rule="nonzero" stroke="none" stroke-width="0.5" stroke-linecap="butt" stroke-linejoin="miter"/><path d="M194.81152,185.68766c4.76076,-3.79767 6.05123,-3.89078 9.7087,-2.34926c1.37512,-1.32397 4.38674,-0.7977 6.95075,0.17858l0.65618,-1.34483c2.60543,-0.67308 5.55306,-0.54152 8.06128,0.43322c0,0 2.58805,1.13215 1.45589,3.7202c-1.13216,2.58801 -3.7202,1.45589 -3.7202,1.45589c-0.11476,-0.06135 -0.23322,-0.11732 -0.35467,-0.16801c-0.29681,1.03902 -1.17926,1.85724 -2.31264,2.02092c-0.7553,0.78459 -1.5775,0.90261 -2.25362,0.79487l-2.45989,0.87759c-0.83086,-0.18217 -1.87819,-0.09434 -2.84425,-0.10782c-1.39997,2.34651 -3.80343,0.98483 -3.80343,0.98483l-0.62852,-1.00543c-2.24836,0.28226 -4.577,0.40836 -6.86873,0.25068l-0.04275,1.15243l-3.28146,-0.12178c-1.37631,-0.0267 -2.56227,-1.05761 -2.74333,-2.46388c-0.16227,-1.26033 0.53265,-2.43346 1.63218,-2.93292l2.84855,-1.37529z" fill="#8da900" fill-rule="nonzero" stroke="none" stroke-width="0.5" stroke-linecap="butt" stroke-linejoin="miter"/><path d="M224.27534,174.15693c-1.46853,2.41309 -3.88166,0.94457 -3.88166,0.94457l-4.35018,-4.17198c1.43226,-1.48555 2.86453,-2.97107 4.29675,-4.45662c0,0 2.34465,-1.57565 3.92022,0.76896c1.11561,1.6601 0.26586,2.93469 -0.32539,3.53741c0.59957,0.62312 1.30152,1.79799 0.34025,3.37758z" fill="#a00000" fill-rule="nonzero" stroke="none" stroke-width="0.5" stroke-linecap="butt" stroke-linejoin="miter"/><path d="M218.09444,177.03731c0.36073,2.80172 -2.44099,3.16244 -2.44099,3.16244l-1.08599,0.13982c-1.3754,0.15848 -2.76548,-0.02793 -4.12466,-0.4208l-0.19962,0.77388l-2.79108,-0.71997c-1.1152,-0.26029 -2.00496,-1.18839 -2.15979,-2.391c-0.15484,-1.20261 0.47077,-2.32582 1.4837,-2.86011l2.51768,-1.40348l0.09829,0.17631l0.39314,-0.39192c1.2604,-0.17942 2.52085,-0.35884 3.78125,-0.53826c0,0 2.73701,-0.3524 3.14888,2.34465c0.63228,0.31892 1.22594,0.93843 1.37917,2.12852z" fill="#a00000" fill-rule="nonzero" stroke="none" stroke-width="0.5" stroke-linecap="butt" stroke-linejoin="miter"/><path d="M205.802,185.5926c-0.54377,2.77202 -3.31579,2.22825 -3.31579,2.22825l-1.57795,-0.31224c-0.7526,-0.14438 -1.60401,-0.10447 -2.41865,-0.13312c-0.66649,1.19185 -2.15782,1.3839 -2.15782,1.3839l-4.34394,0.55929c-0.47335,0.06094 -0.93444,0.00099 -1.35211,-0.15594c-0.0822,0.02479 -0.16467,0.04927 -0.24745,0.07344l-1.11593,0.37685c0,0 -2.67656,0.90317 -3.57977,-1.77338c-0.21374,-0.6335 -0.227,-1.16765 -0.12264,-1.61399c0.2069,-1.17607 1.17061,-1.74514 1.74188,-1.98349c-0.35667,-0.40725 -0.60036,-0.92131 -0.67469,-1.49864c-0.15484,-1.20261 0.47077,-2.32582 1.4837,-2.86011l2.51768,-1.40348l0.05225,0.09368l0.2209,-0.22721c2.69537,-0.81885 5.48041,-1.35706 8.27356,-1.72258c0,0 2.80172,-0.36073 3.16244,2.44099c0.02308,0.17924 0.03321,0.34845 0.03197,0.50824c0.26379,0.23901 0.50272,0.56236 0.69209,0.99605c0.41459,0.42357 0.69984,0.98065 0.78136,1.61384c0.00762,0.05916 0.01336,0.11815 0.01725,0.17686c0.6999,0.23335 2.36398,1.02867 1.93159,3.23284z" fill="#a00000" fill-rule="nonzero" stroke="none" stroke-width="0.5" stroke-linecap="butt" stroke-linejoin="miter"/><path d="M181.04178,185.76011c-1.54735,0.19922 -2.96322,-0.89365 -3.16244,-2.44099c-0.19922,-1.54735 0.89365,-2.96322 2.44099,-3.16244c1.54735,-0.19922 2.96322,0.89365 3.16244,2.44099c0.19922,1.54735 -0.89365,2.96322 -2.44099,3.16244z" fill="#a00000" fill-rule="nonzero" stroke="none" stroke-width="0.5" stroke-linecap="butt" stroke-linejoin="miter"/><path d="M206.21385,179.11734c0.18013,1.39902 -0.42823,2.18939 -1.08261,2.63012c-0.01147,0.05934 -0.02474,0.11815 -0.03992,0.17631c0.43413,-0.07956 0.88751,-0.12172 1.36466,-0.11413c1.02867,0.01641 2.04363,0.35118 3.0566,0.61263c3.04689,-0.41291 6.09628,-0.73712 9.04307,-1.11652l3.80098,-0.48938c1.54735,-0.19922 2.96322,0.89365 3.16244,2.44099c0.18106,1.40627 -0.7051,2.70392 -2.02975,3.07842l-2.43042,0.73374c-0.00002,1.63963 -1.65069,2.43658 -1.65069,2.43658c-9.53365,4.60289 -17.01085,4.56069 -27.32669,4.17776l-3.28146,-0.12178c-1.37631,-0.0267 -2.56227,-1.05761 -2.74333,-2.46388c-0.05411,-0.4203 -0.0129,-0.83091 0.10686,-1.21006c-0.85415,-0.08814 -2.22888,-0.5307 -2.47424,-2.43641c-0.22701,-1.76319 0.79842,-2.55959 1.58986,-2.90779c0.01454,-0.03102 0.02978,-0.0622 0.04566,-0.09359c-0.32087,-0.77921 -0.63361,-2.28658 1.03195,-3.40587c2.34461,-1.57561 3.92022,0.769 3.92022,0.769c0.24127,0.57355 0.635,1.13817 1.01259,1.7037c0.34611,-0.54877 0.95281,-1.03149 2.00881,-1.16745c2.54847,-0.32812 3.07731,1.96029 3.15208,2.3767c0.50943,0.105 0.99454,0.11624 1.46444,0.05902c0.2482,-0.07662 0.49744,-0.15118 0.74764,-0.22373c0.10457,-0.41024 0.29982,-0.78841 0.56577,-1.10859c0.02457,-1.14071 -0.03735,-2.28487 -0.19008,-3.41201l4.01325,-3.36488c0,0 2.80172,-0.36073 3.16244,2.44099zM195.00114,184.19235c0.37274,0.19626 0.73111,0.34109 1.0778,0.44176z" fill="#000000" fill-rule="nonzero" stroke="none" stroke-width="0.5" stroke-linecap="butt" stroke-linejoin="miter"/><path d="M197.68059,182.13393l-3.06354,1.03376" fill="none" fill-rule="nonzero" stroke="#001026" stroke-width="1.2" stroke-linecap="round" stroke-linejoin="miter"/><path d="M190.02167,184.71835l9.69813,-4.12565" fill="none" fill-rule="nonzero" stroke="#a00000" stroke-width="1.2" stroke-linecap="round" stroke-linejoin="miter"/><path d="M200.57272,177.28624l-2.63982,9.29056" fill="none" fill-rule="nonzero" stroke="#000000" stroke-width="1.2" stroke-linecap="round" stroke-linejoin="miter"/><path d="M194.28096,188.006l-7.93959,-9.52676" fill="none" fill-rule="nonzero" stroke="#000000" stroke-width="1.2" stroke-linecap="round" stroke-linejoin="miter"/><path d="M239.40053,200.42283c-0.04914,-2.82442 2.77529,-2.87353 2.77529,-2.87353l3.16841,-0.03939c0.08109,0.10182 0.16226,0.20367 0.24335,0.30549l0.05172,-0.26361l2.88763,0.56648c0.89817,0.15447 1.67057,0.73839 2.06531,1.55728c3.37256,1.25694 7.1339,5.53373 3.8072,9.72717c-3.34616,4.21799 -13.75142,2.05932 -14.34692,-3.83651c-0.10748,-1.06445 0.14107,-1.99557 0.63471,-2.78404c-0.65287,-0.3673 -1.26404,-1.05861 -1.28666,-2.35927z" fill="#a00000" fill-rule="nonzero" stroke="none" stroke-width="0.5" stroke-linecap="butt" stroke-linejoin="miter"/><path d="M248.06232,205.98671c-1.54735,0.19922 -2.96322,-0.89365 -3.16244,-2.44099c-0.19922,-1.54735 0.89365,-2.96322 2.44099,-3.16244c1.54735,-0.19922 2.96322,0.89365 3.16244,2.44099c0.19922,1.54735 -0.89365,2.96322 -2.44099,3.16244z" fill="#ffffff" fill-rule="nonzero" stroke="none" stroke-width="0.5" stroke-linecap="butt" stroke-linejoin="miter"/><path d="M199.41483,183.18929l-8.52132,3.33481l-2.84898,-4.74787" fill="none" fill-rule="nonzero" stroke="#000000" stroke-width="1.2" stroke-linecap="round" stroke-linejoin="miter"/><path d="M243.2748,226.13147c0.19922,1.54735 -0.89365,2.96322 -2.44099,3.16244c-0.17632,0.0227 -0.35093,0.02862 -0.52222,0.01902c0.56129,0.44159 0.95649,1.095 1.05489,1.85927c0.19922,1.54735 -0.89365,2.96322 -2.44099,3.16244c-0.5166,0.06651 -1.01859,-0.01099 -1.46551,-0.20137c-0.21263,1.18017 -1.16742,2.13872 -2.41997,2.29999c-0.24307,0.0313 -0.48292,0.03071 -0.71529,0.00149c-0.07256,1.33408 -1.08758,2.46831 -2.46028,2.64505c-1.54735,0.19922 -2.96322,-0.89365 -3.16244,-2.44099c-0.01548,-0.12027 -0.02315,-0.23976 -0.02342,-0.35793c-1.44074,0.05035 -2.70928,-1.00428 -2.89706,-2.46269c-0.19922,-1.54735 0.89365,-2.96322 2.44099,-3.16244c0.1203,-0.01549 0.2398,-0.02315 0.35797,-0.02343c-0.05035,-1.44074 1.00428,-2.70928 2.46269,-2.89706c0.26886,-0.03462 0.53379,-0.0302 0.78904,0.00882c0.19767,-1.19886 1.16,-2.17776 2.42702,-2.34089c0.37576,-0.04838 0.74376,-0.02056 1.08845,0.07145c0.15809,-1.24545 1.13891,-2.27622 2.44208,-2.44401c0.3063,-0.03944 0.60743,-0.02822 0.89501,0.0271c0.2955,-1.0609 1.20058,-1.89523 2.36154,-2.04471c1.54735,-0.19922 2.96322,0.89365 3.16244,2.44099c0.12606,0.9791 -0.26519,1.90555 -0.96159,2.50444c0.01093,0.05704 0.02017,0.11472 0.02769,0.17312zM238.20413,228.73132c0.17632,-0.0227 0.35093,-0.02862 0.52222,-0.01902c-0.03831,-0.03012 -0.07583,-0.06123 -0.11254,-0.09329c-0.03394,0.00561 -0.06816,0.01063 -0.10256,0.01506c-0.37576,0.04838 -0.74376,0.02056 -1.08845,-0.07145c-0.01848,0.14552 -0.04818,0.28809 -0.08832,0.42671c0.26708,-0.12912 0.55917,-0.21807 0.86961,-0.25804zM235.43687,230.90953c0.1188,0.03308 0.23472,0.07386 0.34717,0.12176c0.01727,-0.0958 0.03941,-0.19014 0.06621,-0.28269c-0.13196,0.06378 -0.26997,0.11776 -0.41335,0.16089zM231.40835,233.45472c0.15226,-0.00532 0.3026,0.00165 0.44994,0.0202c0.00278,-0.05097 0.00691,-0.10161 0.0124,-0.15192c-0.03511,0.00587 -0.07049,0.01112 -0.10611,0.01571c-0.12027,0.01548 -0.23976,0.02315 -0.35793,0.02342c0.00109,0.03094 0.00167,0.06182 0.00173,0.09258z" fill="#e93e3e" fill-rule="nonzero" stroke="none" stroke-width="0.5" stroke-linecap="butt" stroke-linejoin="miter"/><path d="M282.50065,220.44183c0.19922,1.54735 -0.89365,2.96322 -2.44099,3.16244c-0.40948,0.05272 -0.80972,0.01496 -1.18067,-0.09775c-0.42298,0.41201 -0.97818,0.69539 -1.60893,0.7766c-0.64621,0.0832 -1.26948,-0.05895 -1.79079,-0.36544c-0.44058,0.61984 -1.12856,1.06099 -1.9422,1.16575c-0.76287,0.09822 -1.49379,-0.11758 -2.06268,-0.54712c-0.3706,0.91445 -1.21033,1.60788 -2.25869,1.74286c-0.82424,0.10612 -1.61117,-0.15436 -2.19677,-0.65489c-0.40728,0.81101 -1.19727,1.41156 -2.16509,1.53617c-1.22335,0.15751 -2.36445,-0.49259 -2.88719,-1.53635c-0.43066,0.44917 -1.0119,0.75968 -1.67714,0.84533c-0.82313,0.10598 -1.60911,-0.15369 -2.19447,-0.65295c-0.24596,1.13566 -1.18254,2.04674 -2.40088,2.20361c-0.64621,0.0832 -1.26948,-0.05895 -1.79079,-0.36544c-0.44058,0.6198 -1.12856,1.06099 -1.9422,1.16575c-0.33099,0.04262 -0.65596,0.02609 -0.96432,-0.04134c-0.28119,0.14333 -0.59142,0.24164 -0.9224,0.28426c-0.25515,0.03285 -0.50668,0.03057 -0.74981,-0.00306c-0.39236,0.31642 -0.87427,0.53184 -1.41089,0.60093c-0.90573,0.11661 -1.76639,-0.20946 -2.36439,-0.81027c-0.40589,0.35256 -0.91677,0.59337 -1.49003,0.66717c-1.54735,0.19922 -2.96322,-0.89365 -3.16244,-2.44099c-0.19922,-1.54735 0.89365,-2.96322 2.44099,-3.16244c0.90573,-0.11661 1.76639,0.20946 2.36439,0.81027c0.40593,-0.35256 0.91677,-0.59337 1.49003,-0.66717c0.25515,-0.03285 0.50668,-0.03057 0.74981,0.00306c0.39235,-0.31646 0.87427,-0.53184 1.41089,-0.60093c0.33099,-0.04262 0.65595,-0.02612 0.96432,0.0413c0.28119,-0.14333 0.59142,-0.2416 0.92241,-0.28422c0.64621,-0.0832 1.26948,0.05895 1.79079,0.36544c0.44054,-0.6198 1.12853,-1.06099 1.94217,-1.16574c0.82313,-0.10598 1.60911,0.15369 2.19447,0.65295c0.246,-1.13567 1.18254,-2.04674 2.40088,-2.20361c1.22331,-0.1575 2.36445,0.49259 2.88719,1.53635c0.43066,-0.44917 1.0119,-0.75968 1.67714,-0.84533c0.82424,-0.10612 1.61117,0.15436 2.19677,0.65489c0.40724,-0.811 1.19727,-1.41156 2.16509,-1.53617c0.76287,-0.09822 1.49379,0.11762 2.06268,0.54716c0.37061,-0.91441 1.21033,-1.60788 2.25869,-1.74286c0.64621,-0.0832 1.26948,0.05895 1.79079,0.36544c0.44054,-0.6198 1.12856,-1.06099 1.9422,-1.16575c0.40948,-0.05272 0.80972,-0.01496 1.18067,0.09775c0.42298,-0.41201 0.97818,-0.69539 1.60893,-0.7766c1.54735,-0.19922 2.96322,0.89365 3.16244,2.44099z" fill="#e93e3e" fill-rule="nonzero" stroke="none" stroke-width="0.5" stroke-linecap="butt" stroke-linejoin="miter"/><path d="M225.58756,232.5357c-1.54735,0.19922 -2.96322,-0.89365 -3.16244,-2.44099c-0.18777,-1.45841 0.77221,-2.8 2.17876,-3.11625c-0.02971,-0.11438 -0.05252,-0.23193 -0.06801,-0.35219c-0.19922,-1.54735 0.89365,-2.96322 2.44099,-3.16244c0.59893,-0.07711 1.17813,0.03936 1.67473,0.30082c-0.01516,-0.07248 -0.02761,-0.14611 -0.03723,-0.22081c-0.19922,-1.54735 0.89365,-2.96322 2.44099,-3.16244c0.55655,-0.07166 1.0961,0.02383 1.56811,0.24749c0.29927,-1.0547 1.20169,-1.88279 2.35786,-2.03165c0.40955,-0.05273 0.80988,-0.01494 1.18091,0.09784c0.26156,-1.11343 1.1889,-2.00131 2.3901,-2.15597c1.54735,-0.19922 2.96322,0.89365 3.16244,2.44099c0.19922,1.54735 -0.89365,2.96322 -2.44099,3.16244c-0.40955,0.05273 -0.80988,0.01494 -1.18091,-0.09784c-0.26156,1.11343 -1.1889,2.00131 -2.3901,2.15597c-0.55652,0.07165 -1.09606,-0.02383 -1.56807,-0.2475c-0.29927,1.0547 -1.20172,1.88279 -2.35789,2.03165c-0.59893,0.07711 -1.17813,-0.03936 -1.67473,-0.30082c0.01516,0.07248 0.02761,0.14611 0.03723,0.22081c0.18777,1.45841 -0.77222,2.79997 -2.17876,3.11621c0.02971,0.11442 0.05253,0.23196 0.06801,0.35223c0.19922,1.54735 -0.89365,2.96322 -2.44099,3.16244z" fill="#e93e3e" fill-rule="nonzero" stroke="none" stroke-width="0.5" stroke-linecap="butt" stroke-linejoin="miter"/><path d="M292.66364,219.703c-0.30949,0.03985 -0.59265,-0.17875 -0.6325,-0.4882c-0.03985,-0.30949 0.17875,-0.59265 0.4882,-0.6325c0.30949,-0.03985 0.59265,0.17875 0.6325,0.4882c0.03985,0.30949 -0.17875,0.59265 -0.4882,0.6325z" fill="#a00000" fill-rule="nonzero" stroke="none" stroke-width="0.5" stroke-linecap="butt" stroke-linejoin="miter"/><path d="M287.95867,209.18639c-0.37081,-0.42624 0.05538,-0.79708 0.05538,-0.79708l0.01993,-0.01731c0.56829,-0.49445 1.13657,-0.98894 1.70485,-1.4834c0,0 0.42624,-0.37081 0.79708,0.05538c0.37081,0.42624 -0.05538,0.79708 -0.05538,0.79708c-0.56828,0.49449 -1.15649,1.00629 -1.72478,1.50075c0,0 -0.42624,0.37081 -0.79708,-0.05538z" fill="#a00000" fill-rule="nonzero" stroke="none" stroke-width="0.5" stroke-linecap="butt" stroke-linejoin="miter"/><path d="M295.18769,211.13654c0.06829,0.53039 -0.11646,1.03507 -0.46053,1.39256c0.47637,0.13342 1.02226,0.48747 1.13937,1.39704c0.21643,1.68102 -1.46458,1.89745 -1.46458,1.89745l-0.3555,0.02253c-0.18635,0.0548 -0.36775,0.1127 -0.54509,0.17298c-0.03461,0.1962 -0.10334,0.38228 -0.20064,0.55096c0.17225,-0.0033 0.41602,0.05596 0.52669,0.38389c0.03603,0.10681 0.04356,0.19953 0.03255,0.27951c0.01477,0.04245 0.02607,0.09006 0.03294,0.14342c0.07215,0.56035 -0.4882,0.6325 -0.4882,0.6325l-0.31447,0.04049c-0.28048,0.02565 -0.57176,0.01139 -0.85735,-0.04071c-0.35564,0.08617 -0.72994,0.1735 -1.10167,0.26723c0.00383,0.03062 0.00804,0.06185 0.01258,0.09377l-0.38709,0.77227c0,0 -0.05463,0.07073 -0.14852,0.13424c0.01331,0.03739 0.02286,0.07677 0.02814,0.11779c0.03985,0.30949 -0.17875,0.59265 -0.4882,0.6325c-0.15152,0.01951 -0.29677,-0.02298 -0.41021,-0.1077c-0.00061,0.02193 -0.00249,0.0436 -0.00561,0.06496c0.04703,0.09123 0.07755,0.20716 0.04722,0.33916c0.01693,0.04272 0.02881,0.08821 0.03494,0.13587c0.03985,0.30949 -0.17875,0.59265 -0.4882,0.6325c-0.23654,0.03046 -0.45766,-0.09005 -0.5666,-0.28668c-0.01405,-0.0036 -0.0279,-0.00772 -0.04154,-0.01233c-0.19796,-0.06712 -0.35082,-0.24189 -0.37931,-0.46317c-0.00189,-0.0147 -0.00324,-0.02938 -0.00397,-0.044c-0.21637,-0.14181 -0.4358,-0.27461 -0.65557,-0.40683c-0.24906,0.16737 -0.49813,0.33475 -0.74719,0.50212c0,0 -0.46892,0.31512 -0.78404,-0.1538c-0.20854,-0.31036 -0.07367,-0.55332 0.04138,-0.68217c-0.05652,-0.08846 -0.10897,-0.17741 -0.1574,-0.26668c-0.27706,0.03567 -0.55416,0.07135 -0.83122,0.10702l0.04931,0.38301c0,0 0.02945,0.22872 -0.09541,0.41272c0.1649,0.00888 0.47859,0.08048 0.53134,0.49015c0.07215,0.56035 -0.4882,0.6325 -0.4882,0.6325l-0.31447,0.04049c-0.31447,0.04049 -0.6289,0.08097 -0.94336,0.12146c0,0 -0.56035,0.07215 -0.6325,-0.4882c-0.07215,-0.56035 0.4882,-0.6325 0.4882,-0.6325c0.13291,-0.01711 0.32202,-0.04146 0.51979,-0.06692c-0.15792,-0.14651 -0.1861,-0.3654 -0.1861,-0.3654l-0.03622,-0.28135l-0.26778,-0.06408c-0.001,-0.00145 -0.00196,-0.00295 -0.00296,-0.00441c-0.25143,0.03237 -0.50286,0.06474 -0.75429,0.09712c0,0 -0.56035,0.07215 -0.6325,-0.4882c-0.07215,-0.56035 0.4882,-0.6325 0.4882,-0.6325c0.13876,-0.01787 0.28082,-0.03616 0.42547,-0.05478c0.03213,-0.09949 0.10201,-0.20075 0.23443,-0.28972c0.20579,-0.13829 0.38195,-0.12561 0.51486,-0.06779c-0.15854,-0.3774 -0.18581,-0.70226 -0.13664,-0.97762c-0.45042,-0.25354 -0.77962,-0.70919 -0.8507,-1.26126c-0.11953,-0.9284 0.53618,-1.77792 1.46458,-1.89745c0.46587,-0.05998 0.91182,0.07523 1.25571,0.34214c0.02132,-0.00533 0.04314,-0.00945 0.06543,-0.01232c0.30949,-0.03985 0.59265,0.17875 0.6325,0.4882c0.01083,0.08415 0.00258,0.16632 -0.02143,0.24222c0.43529,-0.40607 1.01937,-0.48127 1.01937,-0.48127c0.74269,-0.07895 1.40858,-0.27582 2.04992,-0.52432c-0.06543,-0.0147 -0.13194,-0.01401 -0.19851,0.00714c0,0 -0.38123,0.04908 -0.55527,-0.24819c-0.14286,0.01839 -0.28572,0.03679 -0.42858,0.05518l0.10112,0.13981c0,0 -0.34521,0.44724 -0.79245,0.10203c-0.44724,-0.34521 -0.10203,-0.79245 -0.10203,-0.79245l0.64903,-0.57009c0.52412,-0.06748 1.04821,-0.13496 1.57229,-0.20244c0,0 0.56035,-0.07215 0.6325,0.4882c0.01525,0.11844 0.00221,0.21509 -0.02776,0.2938c0.10652,0.07087 0.20927,0.1484 0.30735,0.22988c0.5915,-0.26891 1.18941,-0.54759 1.83678,-0.78135c-0.39639,-0.26235 -0.68078,-0.68898 -0.74624,-1.19742c-0.11953,-0.9284 0.53618,-1.77792 1.46458,-1.89745c0.9284,-0.11953 1.77792,0.53618 1.89745,1.46458zM289.10082,219.34216c0.15152,-0.01951 0.29677,0.02298 0.41021,0.1077c0.00242,-0.08462 0.02378,-0.16551 0.06046,-0.23798c-0.01915,-0.02162 -0.03665,-0.04477 -0.05238,-0.06923l-0.19599,-0.2917c-0.2343,0.10305 -0.4446,0.21556 -0.62068,0.33995c0.09483,0.05832 0.18943,0.11756 0.28354,0.17833c0.03653,-0.01277 0.07496,-0.02197 0.11487,-0.0271z" fill="#a00000" fill-rule="nonzero" stroke="none" stroke-width="0.5" stroke-linecap="butt" stroke-linejoin="miter"/><path d="M298.67759,208.44934l-0.00702,0.07888c0.19932,0.72024 0.39856,1.44046 0.59787,2.1607c0,0 0.04049,0.14631 0.05344,0.36352c0.01478,0.06079 0.02637,0.12299 0.03455,0.18649c0.11953,0.9284 -0.53618,1.77792 -1.46458,1.89745c-0.9284,0.11953 -1.77792,-0.53618 -1.89745,-1.46458c-0.00647,-0.05028 -0.01068,-0.10035 -0.01268,-0.15008c-0.19271,-0.6965 -0.38546,-1.393 -0.57817,-2.08951l-0.08799,-0.55001c0,0 -0.21643,-1.68102 1.46458,-1.89745c1.68102,-0.21643 1.89745,1.46458 1.89745,1.46458z" fill="#a00000" fill-rule="nonzero" stroke="none" stroke-width="0.5" stroke-linecap="butt" stroke-linejoin="miter"/><path d="M328.80164,214.25423c-4.15698,-0.28805 -10.30322,-6.86385 -14.79096,-5.4273c-0.25287,0.44848 -0.76957,0.97234 -1.77025,0.77606c-1.10246,-0.21626 -1.33079,-1.01998 -1.35945,-1.53732c-0.18607,-0.58703 -0.02908,-1.03988 0.20355,-1.36221l0.03398,-0.17084c2.12005,-8.20341 3.35598,-16.60963 6.16222,-24.57345c0.72018,-2.04377 0.64917,-8.7311 4.93179,-7.43634c1.70045,0.51411 1.9503,8.41437 2.13427,9.84331c0.63421,4.92582 1.31193,9.84808 1.90287,14.77932c0.09341,0.77951 0.57289,3.60883 1.4786,4.0285c0.44136,0.20448 3.60072,-1.90445 4.08834,-2.17628c4.45898,-2.48573 9.64819,-2.17277 14.10051,-4.69247c3.06651,-1.68415 12.6813,-2.8942 8.612,3.69688c-0.97367,1.5771 -5.0216,3.1375 -6.43514,4.66743c-5.48607,5.93772 -9.71353,9.83153 -17.06215,13.38271c0,0 -1.52629,0.73693 -2.26323,-0.7894c-0.73693,-1.52629 0.7894,-2.26323 0.7894,-2.26323c0.15901,-0.07672 0.3167,-0.15327 0.47308,-0.22973c-0.51045,0.02557 -0.93388,-0.18419 -0.93388,-0.18419l-0.29542,-0.33148z" fill="#ffffff" fill-rule="nonzero" stroke="none" stroke-width="0.5" stroke-linecap="butt" stroke-linejoin="miter"/><path d="M353.49299,193.95782c0.03959,0.02177 0.07881,0.0439 0.1175,0.06648l-0.45083,0.61579c0.00422,0.02621 0.00812,0.05288 0.01162,0.08007c0.04806,0.37329 0.00256,0.67439 -0.09732,0.91691c0.52921,-0.10504 1.08039,-0.19357 1.66831,-0.27074c0,0 1.68102,-0.21643 1.89745,1.46458c0.21643,1.68102 -1.46458,1.89745 -1.46458,1.89745c-0.11134,0.01403 -0.22075,0.02838 -0.32832,0.0432l-2.06568,1.11131c-0.16271,0.15772 -0.36727,0.29748 -0.60884,0.4193c0.34697,0.17865 0.72789,0.3803 1.15114,0.60572l-3.18468,2.29908c-0.47152,-0.10201 -0.94303,-0.20398 -1.41454,-0.30595c-0.56934,1.11202 -1.34726,1.8735 -2.64054,1.79214c-1.4622,-0.092 -2.6175,-1.3171 -3.92622,-1.97565l1.33682,-1.00952c-0.40679,-0.17948 -0.81358,-0.35892 -1.22033,-0.53837l1.45349,-1.1312c-0.33033,-0.07224 -0.65689,-0.15326 -0.97829,-0.24186l2.52873,-2.84503c0.60561,-0.13978 1.2478,-0.15348 1.88111,-0.06767c0.61886,-1.08836 1.39784,-2.09408 2.30562,-2.93389l-0.28351,-0.3373c0.3251,-0.15311 0.67756,-0.25169 1.04319,-0.30259c0.31109,-0.23759 0.63445,-0.45607 0.96905,-0.65264l2.29964,1.30038z" fill="#a00000" fill-rule="nonzero" stroke="none" stroke-width="0.5" stroke-linecap="butt" stroke-linejoin="miter"/><path d="M324.85437,183.34171c0.21643,1.68102 -1.46458,1.89745 -1.46458,1.89745l-0.25529,0.02399c-0.25788,0.42808 -0.70181,0.73856 -1.236,0.80734c-0.36949,0.04757 -0.72646,-0.02765 -1.02991,-0.19395l-2.78159,1.24054c-0.15703,0.07442 -0.32823,0.12576 -0.5099,0.14915c-0.9284,0.11953 -1.77792,-0.53618 -1.89745,-1.46458c-0.09291,-0.72159 0.2825,-1.39546 0.89023,-1.71607l0.90562,-0.50488l-0.507,-0.18268c0.45652,-0.49574 0.89261,-0.92789 1.30499,-1.29599c-0.15133,-0.21681 -0.25402,-0.47231 -0.29013,-0.75271c-0.09291,-0.72159 0.2825,-1.39546 0.89023,-1.71607l0.70712,-0.3942c-0.39543,-0.26244 -0.67907,-0.68859 -0.74443,-1.19623c-0.02779,-0.21585 -0.01365,-0.42744 0.03603,-0.62655c-0.21396,-0.5707 -0.18048,-1.05725 0.3706,-1.21699c-0.0083,-0.04082 -0.01522,-0.0822 -0.02062,-0.12416c-0.11953,-0.9284 0.53618,-1.77792 1.46458,-1.89745c0.10508,-0.01353 0.20911,-0.01712 0.31121,-0.0115l1.33397,0.04953l0.13411,-0.25429c0.07663,0.09027 0.15104,0.17944 0.22318,0.26755l0.17618,0.00654c0.82576,0.01606 1.53735,0.6346 1.64598,1.47835c0.04827,0.37492 -0.02989,0.73694 -0.20134,1.04325c0.40868,0.98988 0.34537,1.69626 -0.08466,2.09764c0.11124,1.06427 -0.56249,2.02841 -1.07299,3.01337c0.44965,0.00233 1.53109,0.14799 1.70177,1.47364z" fill="#a00000" fill-rule="nonzero" stroke="none" stroke-width="0.5" stroke-linecap="butt" stroke-linejoin="miter"/><path d="M359.36961,216.40936c-0.9284,0.11953 -1.77792,-0.53618 -1.89745,-1.46458c-0.11953,-0.9284 0.53618,-1.77792 1.46458,-1.89745c0.9284,-0.11953 1.77792,0.53618 1.89745,1.46458c0.11953,0.9284 -0.53618,1.77792 -1.46458,1.89745z" fill="#a00000" fill-rule="nonzero" stroke="none" stroke-width="0.5" stroke-linecap="butt" stroke-linejoin="miter"/><path d="M366.25277,229.60282l-0.66518,-1.01249c-1.30811,-1.52116 -2.38141,-3.24187 -3.3627,-4.99179c0,0 -0.8253,-1.48044 0.65511,-2.3057c1.48044,-0.8253 2.3057,0.65511 2.3057,0.65511c0.85987,1.55258 1.79653,3.08632 2.9641,4.42294l0.9165,1.34119c0,0 0.94537,1.40677 -0.4614,2.35213c-1.40677,0.94537 -2.35213,-0.4614 -2.35213,-0.4614z" fill="#a00000" fill-rule="nonzero" stroke="none" stroke-width="0.5" stroke-linecap="butt" stroke-linejoin="miter"/><path d="M368.99075,234.03098c-0.9284,0.11953 -1.77792,-0.53618 -1.89745,-1.46458c-0.11953,-0.9284 0.53618,-1.77792 1.46458,-1.89745c0.9284,-0.11953 1.77792,0.53618 1.89745,1.46458c0.11953,0.9284 -0.53618,1.77792 -1.46458,1.89745z" fill="#a00000" fill-rule="nonzero" stroke="none" stroke-width="0.5" stroke-linecap="butt" stroke-linejoin="miter"/><path d="M370.15543,240.59403c-0.9284,0.11953 -1.77792,-0.53618 -1.89745,-1.46458c-0.11953,-0.9284 0.53618,-1.77792 1.46458,-1.89745c0.9284,-0.11953 1.77792,0.53618 1.89745,1.46458c0.11953,0.9284 -0.53618,1.77792 -1.46458,1.89745z" fill="#a00000" fill-rule="nonzero" stroke="none" stroke-width="0.5" stroke-linecap="butt" stroke-linejoin="miter"/><path d="M354.63391,211.90442c-0.9284,0.11953 -1.77792,-0.53618 -1.89745,-1.46458c-0.11953,-0.9284 0.53618,-1.77792 1.46458,-1.89745c0.9284,-0.11953 1.77792,0.53618 1.89745,1.46458c0.11953,0.9284 -0.53618,1.77792 -1.46458,1.89745z" fill="#a00000" fill-rule="nonzero" stroke="none" stroke-width="0.5" stroke-linecap="butt" stroke-linejoin="miter"/><path d="M332.20386,186.66169c-0.9284,0.11953 -1.77792,-0.53618 -1.89745,-1.46458c-0.11953,-0.9284 0.53618,-1.77792 1.46458,-1.89745c0.9284,-0.11953 1.77792,0.53618 1.89745,1.46458c0.11953,0.9284 -0.53618,1.77792 -1.46458,1.89745z" fill="#a00000" fill-rule="nonzero" stroke="none" stroke-width="0.5" stroke-linecap="butt" stroke-linejoin="miter"/><path d="M337.80195,190.41628c-0.9284,0.11953 -1.77792,-0.53618 -1.89745,-1.46458c-0.11953,-0.9284 0.53618,-1.77792 1.46458,-1.89745c0.9284,-0.11953 1.77792,0.53618 1.89745,1.46458c0.11953,0.9284 -0.53618,1.77792 -1.46458,1.89745z" fill="#a00000" fill-rule="nonzero" stroke="none" stroke-width="0.5" stroke-linecap="butt" stroke-linejoin="miter"/><path d="M342.5781,195.23566c-0.9284,0.11953 -1.77792,-0.53618 -1.89745,-1.46458c-0.11953,-0.9284 0.53618,-1.77792 1.46458,-1.89745c0.9284,-0.11953 1.77792,0.53618 1.89745,1.46458c0.11953,0.9284 -0.53618,1.77792 -1.46458,1.89745z" fill="#a00000" fill-rule="nonzero" stroke="none" stroke-width="0.5" stroke-linecap="butt" stroke-linejoin="miter"/><path d="M243.00298,80.5361c-0.19984,-1.55213 0.25037,-3.03806 1.13921,-4.18407c-0.64113,-1.06225 -0.95301,-2.50538 -0.37926,-4.4268c0.91513,-3.0647 3.04719,-3.87634 4.72501,-4.00369c0.34399,-2.25058 2.03384,-4.1255 4.31622,-4.64898l5.94494,-1.44667l0.19799,0.81368l1.76154,-0.93935c9.71535,4.49962 27.72353,14.56951 7.77673,22.58514c-0.68627,0.27582 -1.35996,0.47748 -2.02266,0.61461c-0.88289,1.1959 -2.23351,2.04366 -3.82426,2.24848c-2.8501,0.36696 -5.4772,-1.45797 -6.1859,-4.16613c-0.84534,-0.40351 -1.68573,-0.83391 -2.52592,-1.26334c-0.6939,1.93368 -2.4214,3.41868 -4.59885,3.69904c-3.09469,0.39845 -5.92644,-1.78729 -6.32489,-4.88198z" fill="#ffffff" fill-rule="nonzero" stroke="none" stroke-width="0.5" stroke-linecap="butt" stroke-linejoin="miter"/><path d="M270.28684,93.05201c-2.91302,0.37506 -5.59309,-1.53956 -6.22999,-4.34672c-0.55962,0.2838 -1.17647,0.47845 -1.83434,0.56315c-2.35157,0.30277 -4.55133,-0.88659 -5.64698,-2.83308c-1.19384,-0.08853 -2.30277,-0.55438 -3.18928,-1.29146c-0.84449,0.818 -1.95063,1.38039 -3.2064,1.54207c-3.09469,0.39845 -5.92644,-1.78729 -6.32489,-4.88198c-0.39845,-3.09469 1.78729,-5.92644 4.88198,-6.32489c1.62094,-0.2087 3.16971,0.29155 4.33447,1.26002c0.84449,-0.818 1.95063,-1.38039 3.2064,-1.54207c2.35157,-0.30277 4.55133,0.88659 5.64698,2.83308c2.44431,0.18124 4.53254,1.94421 5.0848,4.37816c0.55962,-0.2838 1.17647,-0.47845 1.83434,-0.56315c3.09469,-0.39845 5.92644,1.78729 6.32489,4.88198c0.39845,3.09469 -1.78729,5.92644 -4.88198,6.32489z" fill="#a00000" fill-rule="nonzero" stroke="none" stroke-width="0.5" stroke-linecap="butt" stroke-linejoin="miter"/></g></g></svg>