<svg version="1.1" xmlns="http://www.w3.org/2000/svg" xmlns:xlink="http://www.w3.org/1999/xlink" width="746" height="546" viewBox="0,0,746,546"><g transform="translate(142.5,93)"><g data-paper-data="{&quot;isPaintingLayer&quot;:true}" stroke-miterlimit="10" stroke-dasharray="" stroke-dashoffset="0" style="mix-blend-mode: normal"><path d="M-123.5,453v-546h727v546z" fill="#580000" fill-rule="nonzero" stroke="none" stroke-width="NaN" stroke-linecap="butt" stroke-linejoin="miter"/><path d="M-94.5,-56.79165v-6.41667h20.16666v6.41667z" fill="#000000" fill-rule="nonzero" stroke="none" stroke-width="0" stroke-linecap="butt" stroke-linejoin="miter"/><path d="M-142.5,-7.99999v-13h1v13z" fill="#000000" fill-rule="nonzero" stroke="none" stroke-width="0" stroke-linecap="butt" stroke-linejoin="miter"/><g><path d="M254.97317,227.97647c1.98204,-1.10117 16.29706,7.2676 23.78488,5.94621c5.28555,-1.10117 11.67224,-2.86299 16.95776,-7.70807c12.11268,-10.79132 12.14891,-6.38389 20.51767,-1.75907c8.58898,4.62482 12.07645,11.22897 -14.79168,20.03817c-9.24968,3.08321 -17.61842,3.08322 -24.44558,2.863c-1.76182,0 -16.95776,-1.54164 -22.24327,-9.02946c-5.28555,-7.48785 -1.5416,-9.46994 0.22022,-10.35085z" fill="#000000" fill-rule="evenodd" stroke="#001026" stroke-width="1.2" stroke-linecap="round" stroke-linejoin="round"/><path d="M241.82746,252.25645c-3.74391,-2.64274 -7.70807,-9.24968 -0.6607,-15.1959c8.14855,-7.04738 18.27914,1.10113 22.68375,4.40461c4.40464,3.30344 6.60694,5.28552 16.07684,10.1306c3.74394,1.98204 8.58898,3.74391 11.23176,4.62482c1.10117,0.22026 2.2023,0.22026 3.30347,-0.22022c1.98208,-0.88091 -19.34979,-6.69074 -15.16541,-3.60753c4.21237,3.71089 6.86645,-0.77335 1.1152,5.74972c-0.66069,0.74939 1.36203,-1.11516 0.75171,-0.25025c-5.743,8.13837 2.06185,6.19135 -3.6841,4.3483c-12.11268,-3.74391 -14.889,2.75788 -11.14508,-2.52763c0.44047,-0.88092 0,-4.11617 -0.88092,-4.33639l3.38731,10.45033c-2.53249,-0.8014 3.01732,2.57677 0.66185,1.63269c-2.61449,-1.04793 -8.84331,-4.83 -11.1921,-5.96363c-10.07283,-4.86165 -13.73685,-7.40842 -16.48351,-9.23954z" fill="#000000" fill-rule="evenodd" stroke="#001026" stroke-width="1.2" stroke-linecap="round" stroke-linejoin="round"/><path d="M208.94498,205.38141c3.74391,-3.30347 11.23176,-1.76186 11.45199,4.40461c0,5.72599 -4.62482,11.67221 -7.2676,15.1959c-2.64274,3.52369 -14.97567,16.51731 -30.17157,9.69016c-6.38668,-3.30347 -21.36236,-15.63637 -13.43407,-22.90397c7.92829,-7.2676 15.19593,1.76187 20.48145,6.38669c4.40464,3.96413 17.83867,-11.89246 18.93984,-12.77337z" fill="#000000" fill-rule="evenodd" stroke="#001026" stroke-width="1.2" stroke-linecap="round" stroke-linejoin="round"/><g fill-rule="evenodd"><path d="M225.78211,240.61835c-2.64274,-1.98208 -5.28552,-5.28556 -8.80921,-10.35085c-2.863,-4.18438 -5.94621,-12.3329 -5.94621,-12.3329c-1.98204,-5.50574 -3.30343,-16.07681 3.96417,-15.85658c4.84504,0.22022 9.24968,-0.44044 16.7375,-1.54161c13.21384,-2.64278 15.63636,-4.40464 21.14214,4.62482c5.94621,10.57107 21.1421,18.27911 2.42252,36.55825c0,0 -10.79129,8.36877 -23.78488,21.14214c-8.80925,8.58898 -22.68374,20.92188 -27.52882,25.10627c-1.10113,0.88092 -2.42252,1.32139 -3.74391,1.54161c-21.36236,1.98205 -37.21894,-0.22026 -37.21894,-9.69016c0,-15.85662 31.49295,-10.35085 31.49295,-10.35085c0,0 10.13063,-8.58898 14.75546,-12.77337z" fill="#000000" stroke="#001026" stroke-width="1.2" stroke-linecap="round" stroke-linejoin="round"/><path d="M216.09203,225.86286c0,0 -4.18438,-5.50577 5.28552,-11.45198c9.91037,-6.38668 13.65428,0.66069 17.61845,5.94621c4.40461,6.82716 0,10.1306 -4.4046,14.09476c-3.52369,3.30344 -6.82716,5.94621 -6.82716,5.94621c0,0 -6.82712,-4.62482 -11.6722,-14.5352z" fill="#a00000" stroke="none" stroke-width="1" stroke-linecap="butt" stroke-linejoin="miter"/></g><path d="M210.04619,91.52224c5.06529,-0.88092 10.35082,-1.32139 16.51728,-0.88091c10.35081,0.44048 20.26119,4.18439 20.26119,4.18439l26.64788,-17.3982c0.88092,-0.44044 1.98204,0.22026 1.76182,1.10117l-4.62482,39.42125c-1.32139,-1.76183 23.34445,28.18952 7.70808,53.29579c-15.63637,25.10627 -48.89119,36.33799 -90.29451,28.18948c-41.40333,-8.14851 -51.09348,-31.93339 -48.45071,-44.48655c2.64278,-12.55316 18.27915,-17.17798 18.27915,-17.17798c0,0 0.22021,-9.91037 7.2676,-22.02305c4.18438,-7.2676 18.27915,-17.61845 18.27915,-17.61845l5.72599,-23.56466c0.22026,-0.88092 1.32138,-1.10117 1.98208,-0.6607z" fill="#000000" fill-rule="evenodd" stroke="#001026" stroke-width="1.2" stroke-linecap="butt" stroke-linejoin="miter"/><path d="M158.51219,138.65156c18.71958,-4.18438 20.48144,9.69012 36.33803,10.79129c18.49937,1.32139 43.82585,-18.71958 58.58131,4.84508c14.75545,23.34444 -10.57103,55.05761 -63.86682,44.0461c-40.96285,-7.92829 -51.53393,-30.61201 -48.89115,-43.16515c2.64278,-12.55311 17.83867,-16.51728 17.83867,-16.51728z" fill="#000000" fill-rule="evenodd" stroke="none" stroke-width="1" stroke-linecap="butt" stroke-linejoin="miter"/><path d="M227.88486,162.21626c0.6607,10.79128 -1.32138,24.88605 -21.36235,27.08835c-23.12419,1.32135 -31.49296,-15.19593 -33.47504,-21.14214c-0.44047,-1.10117 0.44044,-2.2023 1.54161,-1.98208c3.30344,0.6607 10.35082,1.32139 22.24328,0.6607c13.21381,-0.88091 25.10627,-4.40461 29.29065,-5.94621c0.88091,-0.22022 1.76182,0.44047 1.76182,1.32138z" fill="#000000" fill-rule="evenodd" stroke="#001026" stroke-width="1.2" stroke-linecap="round" stroke-linejoin="round"/><path d="M144.19725,149.6631c0,0 -15.85659,-0.22022 -26.20744,-8.58898" fill="none" fill-rule="evenodd" stroke="#001026" stroke-width="1.2" stroke-linecap="round" stroke-linejoin="round"/><path d="M143.31634,162.65673c0,0 -8.58899,4.18438 -22.46349,3.08321" fill="none" fill-rule="evenodd" stroke="#001026" stroke-width="1.2" stroke-linecap="round" stroke-linejoin="round"/><path d="M205.86177,146.57989c0,3.52369 -9.24968,9.02946 -13.21385,8.58899c-3.52369,-0.22022 -6.82713,-6.38668 -6.60691,-9.4699c0.22026,-1.54161 5.06534,-1.98208 9.69016,-1.98208c4.40461,0 10.35082,0.22022 10.1306,2.86299z" fill="#001026" fill-rule="evenodd" stroke="#000000" stroke-width="1.2" stroke-linecap="round" stroke-linejoin="round"/><path d="M268.18702,153.40701c7.70803,-6.82712 26.64788,-12.99359 26.64788,-12.99359" fill="none" fill-rule="evenodd" stroke="#001026" stroke-width="1.2" stroke-linecap="round" stroke-linejoin="round"/><path d="M293.29329,162.43648c0,0 -16.29707,2.42252 -25.76697,-1.32139" fill="none" fill-rule="evenodd" stroke="#001026" stroke-width="1.2" stroke-linecap="round" stroke-linejoin="round"/><g fill="#a00000" fill-rule="evenodd"><path d="M192.64796,107.37886c6.16643,3.96413 5.9462,15.1959 -0.44048,25.10627c-6.60691,9.91037 -16.7375,14.53524 -22.90396,10.57107c-6.16643,-3.96413 -5.94621,-15.1959 0.44047,-25.10627c6.38669,-9.91038 16.73751,-14.75545 22.90397,-10.57107z" stroke="#001026" stroke-width="1.2" stroke-linecap="round" stroke-linejoin="round"/><path d="M170.62491,130.50304c0,-2.42252 1.76186,-4.4046 3.96416,-4.4046c2.20234,0 3.96417,1.98208 3.96417,4.4046c0,2.42252 -1.76186,4.40461 -3.96416,4.40461c-2.20234,0 -3.96417,-1.98209 -3.96417,-4.40461" stroke="none" stroke-width="1" stroke-linecap="butt" stroke-linejoin="miter"/></g><path d="M222.97285,143.3703c0,0 -0.59809,0.29906 -1.3521,0.3076c-0.05747,0.78215 -0.0128,1.68228 0.19682,2.87188c0.00944,3.45473 0.00937,6.90936 0.00937,10.36409l0.48006,2.12775c0,0 0.53987,2.69938 -2.15954,3.23929c-2.69941,0.53987 -3.23929,-2.15954 -3.23929,-2.15954l-0.587,-3.20754c0,-3.30336 -0.00105,-6.60661 0.00937,-9.90996c-1.09438,-6.91052 1.30527,-16.21229 3.29168,-22.30301c1.60451,-4.91971 6.93234,-6.91484 8.53645,-12.27114c0.59372,-1.98253 -0.92745,-4.13998 -0.5851,-6.18102c0.17548,-1.04599 1.46601,-1.69115 1.6156,-2.74113c0.79076,-5.55029 -0.59443,-6.44061 3.20758,-11.26972c0,0 1.7197,-2.14961 3.86936,-0.42991c2.14962,1.71974 0.42991,3.86935 0.42991,3.86935c-4.69915,5.75647 -1.56523,11.72858 -3.23135,18.22213c-1.14259,4.45315 -4.42684,8.05602 -7.64229,10.81525c-0.12787,0.10977 -0.23888,0.216 -0.33488,0.3194c0.53245,0.2532 0.86845,0.58924 0.86845,0.58924c0.71137,0.71137 1.42273,1.42273 2.1341,2.1341l0.80632,2.4801c0,0 0,2.75288 -2.75289,2.75288c-1.84022,0 -2.45028,-1.23016 -2.65256,-2.04582c-0.02153,-0.02157 -0.04309,-0.04309 -0.06462,-0.06463c-0.43473,0.4032 -0.87514,0.80398 -1.08744,1.33583c-0.58838,1.47407 0.04015,3.14594 0.15392,4.75803c0.73163,-0.41921 1.51664,-0.41921 1.51664,-0.41921l1.76462,5.21511c-1.06707,0.53353 -2.13413,1.06707 -3.20116,1.6006z" fill="#a00000" fill-rule="nonzero" stroke="none" stroke-width="0.5" stroke-linecap="butt" stroke-linejoin="miter"/><path d="M210.54402,163.88163c-2.69941,0.53987 -3.23929,-2.15955 -3.23929,-2.15955l-0.44574,-2.33696c-0.3757,-1.13602 -0.75144,-2.27211 -1.12714,-3.40813c-0.50555,-3.07847 -2.59602,-6.87436 -2.20238,-9.99966c0.34141,-2.71058 2.45879,-5.9899 3.33232,-8.61567c2.42189,-7.28017 4.91071,-15.61577 6.30795,-23.11695c1.24083,-6.66146 -0.58319,-16.0299 -0.58319,-22.95463c0,0 0,-2.75289 2.75288,-2.75289c2.75288,0 2.75288,2.75289 2.75288,2.75289c0,7.38774 1.76414,16.83758 0.48387,23.99577c-1.38381,7.73714 -4.0023,16.36444 -6.49671,23.83346c-0.08071,0.24164 -2.98329,6.88078 -3.07001,7.39014c-0.35891,2.10827 1.70847,6.02561 2.06581,8.1403c0.33567,0.99808 0.67129,1.99615 1.00695,2.99423l0.62133,2.99829c0,0 0.53987,2.69938 -2.15954,3.23929z" fill="#a00000" fill-rule="nonzero" stroke="none" stroke-width="0.5" stroke-linecap="butt" stroke-linejoin="miter"/><path d="M162.70773,193.00628c-1.9466,-1.9466 0,-3.89316 0,-3.89316l1.63291,-1.4472c1.16083,-9.43225 2.38562,-19.13595 3.99864,-28.52529c1.26821,-7.38215 -3.03109,-14.70539 5.42965,-18.6544c0,0 2.55599,-1.0224 3.57839,1.53359c1.0224,2.55595 -1.53358,3.57835 -1.53358,3.57835c-3.74712,0.98363 -1.98731,7.53095 -2.00421,10.78222c-0.05739,11.0417 -2.42837,22.97822 -4.57333,33.80485l-2.63532,2.82102c0,0 -1.94656,1.94656 -3.89316,0z" fill="#a00000" fill-rule="nonzero" stroke="none" stroke-width="0.5" stroke-linecap="butt" stroke-linejoin="miter"/><path d="M156.11784,190.61133c-2.75288,0 -2.75288,-2.75289 -2.75288,-2.75289l0.03746,-2.58666c1.65687,-9.9413 1.8738,-19.80624 4.32412,-29.60236c1.52832,-6.11013 5.39362,-11.75795 6.34643,-17.88158c0,0 0.45256,-2.71542 3.16799,-2.26286c2.71543,0.45256 2.26286,3.16799 2.26286,3.16799c-1.12255,6.40422 -4.87143,12.04749 -6.45826,18.39828c-2.40308,9.61755 -2.58348,19.31285 -4.21229,29.0857l0.03746,1.68153c0,0 -0.00001,2.75289 -2.75289,2.75289z" fill="#a00000" fill-rule="nonzero" stroke="none" stroke-width="0.5" stroke-linecap="butt" stroke-linejoin="miter"/><path d="M241.44124,126.54366c-2.70848,0.49245 -3.20094,-2.21603 -3.20094,-2.21603l-0.08216,-0.45186c-0.76155,-8.6301 -0.38189,-8.86268 7.67334,-10.22541c0,0 2.71542,-0.45256 3.16799,2.26286c0.45256,2.71542 -2.26286,3.16799 -2.26286,3.16799c-1.47874,0.24223 -4.40886,-1.20874 -4.48613,0.28772c-0.06466,1.25258 0.88307,2.34797 1.32459,3.52193l0.08217,0.45186c0,0 0.49245,2.70848 -2.21604,3.20093z" fill="#a00000" fill-rule="nonzero" stroke="none" stroke-width="0.5" stroke-linecap="butt" stroke-linejoin="miter"/><path d="M238.72936,135.57282c0,-2.75288 2.75288,-2.75289 2.75288,-2.75289h0.53354c2.13413,0 4.26827,0 6.40236,0c0,0 2.75288,0 2.75288,2.75289c0,2.75288 -2.75288,2.75288 -2.75288,2.75288c-2.13409,0 -4.80176,0 -6.93586,0c0,0 -2.75288,0 -2.75288,-2.75288z" fill="#a00000" fill-rule="nonzero" stroke="none" stroke-width="0.5" stroke-linecap="butt" stroke-linejoin="miter"/><path d="M230.99931,142.69617c1.9466,-1.94656 3.89316,0 3.89316,0l1.19855,3.35063c-0.3557,1.06707 -0.71136,2.13413 -1.06706,3.20116c0,0 -0.87054,2.61162 -3.48216,1.74108c-2.61162,-0.8705 -1.74108,-3.48212 -1.74108,-3.48212c0.20037,-0.60114 0.40073,-1.20229 0.6011,-1.80339c-0.35092,-0.74923 -0.53163,-1.87828 0.59745,-3.00736z" fill="#a00000" fill-rule="nonzero" stroke="none" stroke-width="0.5" stroke-linecap="butt" stroke-linejoin="miter"/><path d="M296.48672,258.88596c-2.20231,1.65172 -3.85402,-0.55059 -3.85402,-0.55059l0.14914,-1.07043c-1.62209,-0.27555 -3.2231,-0.40364 -4.82422,-0.52271c-0.41645,0.29485 -0.78852,0.41887 -0.78852,0.41887c-0.97382,0.3188 -1.91257,0.77704 -2.92139,0.95647c-0.38417,0.06835 -1.18259,-0.62137 -1.14725,-0.23275c0.10519,1.15643 2.17932,2.30834 1.41557,3.18306c-1.39859,1.60183 -3.95312,1.61832 -6.02521,2.09637c-1.16386,0.2685 -3.7604,-1.76723 -3.53365,-0.5945c0.18183,0.94028 1.66832,1.92215 1.06706,2.66762c-2.54263,3.15251 -9.02965,4.56411 -10.59786,-1.28158c-0.4573,-1.7047 1.94653,-2.9447 2.91978,-4.41706l2.48014,-0.80633c0,0 0.5345,0.00004 1.13243,0.23552c0.6657,-0.46126 1.53053,-0.89211 2.61521,-1.25288c1.11554,-0.37104 2.37349,-0.27164 3.5266,-0.04276c0.5798,0.11511 1.61613,1.59492 1.44415,1.02934c-0.27119,-0.89184 -2.15387,-1.29586 -1.7856,-2.15219c0.51025,-1.18643 1.46202,-2.03003 2.58334,-2.67192c-0.02258,-0.25462 -0.01231,-0.5363 0.03959,-0.84771c0.45256,-2.71543 3.16799,-2.26286 3.16799,-2.26286c3.40653,0.57864 6.72012,0.50708 10.13702,1.06707l3.35033,3.1978c0,0 1.65172,2.2023 -0.55059,3.85402z" fill="#a00000" fill-rule="nonzero" stroke="none" stroke-width="0.5" stroke-linecap="butt" stroke-linejoin="miter"/><path d="M291.97985,275.70298c-1.9466,1.94657 -3.89316,0 -3.89316,0l-2.01458,-2.13081c-0.53353,-0.88919 -1.06706,-1.77843 -1.60059,-2.66763c0,0 -1.41636,-2.36058 0.94423,-3.77693c2.36058,-1.41635 3.77693,0.94423 3.77693,0.94423c0.53353,0.88923 1.06707,1.77847 1.60059,2.66766l1.18658,1.07035c0,0 1.94657,1.94659 0,3.89316z" fill="#a00000" fill-rule="nonzero" stroke="none" stroke-width="0.5" stroke-linecap="butt" stroke-linejoin="miter"/><path d="M283.58317,285.94659l-0.53353,-3.20116c0,0 -0.45256,-2.71542 2.26286,-3.16799c2.71542,-0.45256 3.16799,2.26286 3.16799,2.26286l0.53353,3.20116c0,0 0.45256,2.71542 -2.26286,3.16799c-2.71542,0.45256 -3.16798,-2.26286 -3.16798,-2.26286z" fill="#a00000" fill-rule="nonzero" stroke="none" stroke-width="0.5" stroke-linecap="butt" stroke-linejoin="miter"/><path d="M313.30314,279.78926c-1.23113,2.46226 -3.69339,1.23113 -3.69339,1.23113l-2.19652,-1.57944c-0.53353,-0.88923 -1.06707,-1.77847 -1.6006,-2.66766c0,0 -0.42984,-0.7164 -0.42126,-1.59668c-0.92931,-0.44212 -1.57165,-1.38967 -1.57165,-2.4873c0,-1.52038 1.23251,-2.75288 2.75289,-2.75288c1.52038,0 2.75288,1.23251 2.75288,2.75288c0,0.04287 -0.001,0.08552 -0.00294,0.1279c0.78114,0.40663 1.2112,1.12341 1.2112,1.12341c0.53353,0.88923 1.06707,1.77847 1.6006,2.66766l-0.06239,-0.51237c0,0 2.46222,1.23112 1.23113,3.69338z" fill="#a00000" fill-rule="nonzero" stroke="none" stroke-width="0.5" stroke-linecap="butt" stroke-linejoin="miter"/><path d="M273.14784,260.23071c-1.94656,-1.9466 0,-3.89316 0,-3.89316l1.45773,-1.14292c0.04086,-0.01638 0.08178,-0.03269 0.12264,-0.04907c-0.32123,-0.72286 -0.73222,-2.2832 0.9733,-3.42019c2.29055,-1.52702 3.81757,0.76353 3.81757,0.76353l0.72312,1.18102c1.42922,1.4469 2.78882,2.42587 3.19307,3.60272c0.40969,0.1366 0.77655,0.36693 1.07512,0.66551l2.13413,2.1341v0c0.49816,0.4982 0.80629,1.18639 0.80629,1.9466c0,1.07803 -0.61969,2.01134 -1.52224,2.46316l0.74219,1.73175c0.15835,0.34746 0.24656,0.73356 0.24656,1.14035c0,1.52038 -1.23251,2.75289 -2.75289,2.75289c-0.46234,0 -0.89808,-0.11399 -1.28064,-0.3154l-3.15164,-1.57583l0.01451,-0.02899l-0.10809,-0.02008c-1.95477,-1.1868 -3.79667,-2.59424 -5.42361,-4.20129c0,0 -1.55205,-1.55205 -0.49849,-3.2703c-0.18827,-0.1213 -0.37842,-0.27429 -0.56853,-0.46439zM277.94527,259.92922c-0.02157,-0.03817 -0.04317,-0.07637 -0.0647,-0.11462c-0.01828,0.00732 -0.03653,0.01458 -0.05481,0.0219c0.04478,0.03321 0.08477,0.06448 0.11951,0.09269z" fill="#ffffff" fill-rule="nonzero" stroke="none" stroke-width="0.5" stroke-linecap="butt" stroke-linejoin="miter"/><path d="M220.60644,162.19805c1.65172,-2.2023 3.85402,-0.55059 3.85402,-0.55059l0.31787,2.21604c0.35305,-0.76748 0.71483,-1.46482 1.00512,-1.96362c0,0 1.41632,-2.36058 3.7769,-0.94423c2.36058,1.41635 0.94423,3.77689 0.94423,3.77689c-3.06725,4.90303 -1.99514,13.75387 -9.86567,6.68015c-0.75081,-0.6748 -1.05102,-1.72115 -1.55862,-2.59651l-1.95279,-1.95279l0.78274,-0.78275l-1.13438,-2.67927c0.98036,-0.02876 1.96481,-0.05575 2.94725,-0.10709l0.37338,-0.93345l0.31339,0.12537c0.05839,-0.09492 0.12381,-0.191 0.19664,-0.28816z" fill="#8da900" fill-rule="nonzero" stroke="none" stroke-width="0.5" stroke-linecap="butt" stroke-linejoin="miter"/><path d="M185.11589,167.23831c0,0 1.92939,-1.92936 3.8673,-0.0256c0.48421,-0.78838 1.35441,-1.31419 2.34749,-1.31419c0.76017,0 1.4484,0.30817 1.94656,0.80633v0l1.07774,1.07774c0.64901,0.06806 1.29396,0.04238 1.92343,-0.12481l2.17234,-1.36691c0,0 1.98529,-1.19117 3.40694,0.43186c0.67413,-0.33746 1.90921,-0.69364 3.0346,0.38461c1.69877,-1.13408 4.05434,-2.52267 4.76258,-2.95057l1.94988,-0.3923c0,0 0.74532,0 1.46034,0.38782c0.06951,-0.27156 0.15018,-0.53726 0.25186,-0.79144c0,0 1.02241,-2.55599 3.57839,-1.53359c2.55599,1.02237 1.53358,3.57836 1.53358,3.57836c-0.16097,0.40246 -0.557,1.41594 -1.00475,2.51498c0.41633,0.48238 0.66812,1.11072 0.66812,1.7979c0,0.57395 -0.17559,1.10688 -0.47607,1.54795c0.05216,1.05814 -0.63319,1.80611 -1.06184,2.16738c0.01347,0.00977 0.02693,0.01967 0.04033,0.02974c1.17028,0.31708 2.03111,1.38669 2.03111,2.65729c0,1.52038 -1.23251,2.75288 -2.75289,2.75288c-0.65794,0 -1.26199,-0.23082 -1.73556,-0.61588c-0.5595,-0.12093 -1.11661,-0.27667 -1.66488,-0.46547c-0.10664,0.0094 -0.21798,0.01432 -0.33424,0.01432c-1.29038,0 -1.97589,-0.60479 -2.3401,-1.24747c-0.82102,-0.48566 -1.58862,-1.05259 -2.27413,-1.69295l-0.3516,-0.01787c0,0 -0.88263,-0.44134 -1.32676,-1.324c-0.73461,-0.32436 -1.37296,-0.79887 -1.85459,-1.45034c-1.84213,2.2823 -1.07501,6.43281 -4.10658,7.64412c-4.22613,1.68862 -7.60632,-3.32955 -9.46732,-6.37411c-0.74577,0.68454 -1.47952,1.37986 -2.12354,2.15808c-1.01297,1.22407 -1.23609,3.64473 -2.81177,3.84886c-1.90694,0.24705 -5.61503,-3.87719 -6.99156,-5.27074l-0.09772,-0.33361l-0.09302,0.05581l-1.57731,-2.62886c-0.26343,-0.42219 -0.41559,-0.92091 -0.41559,-1.45515c0,-1.52038 1.23251,-2.75289 2.75289,-2.75289c0.14843,0 0.29409,0.01176 0.43618,0.03437l3.68783,0.52686l-0.00922,0.06447c0.93957,-0.05594 1.87996,-0.08996 2.82106,-0.09213l-0.87949,-0.26074zM196.9273,173.05161c-0.05515,0.01235 -0.1103,0.02496 -0.16552,0.03776c0.04948,0.07862 0.09814,0.15592 0.14567,0.23159c0.00329,-0.08742 0.01,-0.17742 0.01985,-0.26935z" fill="#8da900" fill-rule="nonzero" stroke="none" stroke-width="0.5" stroke-linecap="butt" stroke-linejoin="miter"/><path d="M197.71296,181.58437c5.07411,-3.07818 6.33299,-3.00758 9.67628,-1.06248c1.49388,-1.10855 4.33927,-0.2251 6.69601,1.03759l0.80158,-1.21818c2.60204,-0.32634 5.4347,0.16764 7.7377,1.42191c0,0 2.36058,1.41636 0.94423,3.77694c-1.41635,2.36055 -3.77693,0.94423 -3.77693,0.94423c-0.10328,-0.07358 -0.21081,-0.14242 -0.32189,-0.20652c-0.41619,0.96733 -1.37094,1.64836 -2.48677,1.66553c-0.82767,0.66436 -1.63705,0.6761 -2.27715,0.48782l-2.48681,0.54212c-0.78039,-0.27947 -1.80361,-0.32492 -2.73568,-0.45816c-1.64515,2.0938 -3.79876,0.47857 -3.79876,0.47857l-0.48238,-1.05001c-2.20827,-0.00698 -4.47471,-0.17489 -6.67015,-0.61249l-0.18473,1.10856l-3.15654,-0.52607c-1.32695,-0.19708 -2.34494,-1.34109 -2.34494,-2.72285c0,-1.23837 0.81767,-2.28577 1.94257,-2.6317l2.92441,-0.97479z" fill="#8da900" fill-rule="nonzero" stroke="none" stroke-width="0.5" stroke-linecap="butt" stroke-linejoin="miter"/><path d="M227.6261,174.10599c-1.7197,2.14962 -3.86935,0.42991 -3.86935,0.42991l-3.68547,-4.57378c1.56922,-1.25762 3.13843,-2.5152 4.70761,-3.77282c0,0 2.4623,-1.23117 3.69339,1.23109c0.87169,1.74339 -0.10825,2.8696 -0.75472,3.37858c0.50197,0.67689 1.03423,1.89982 -0.09145,3.30695z" fill="#a00000" fill-rule="nonzero" stroke="none" stroke-width="0.5" stroke-linecap="butt" stroke-linejoin="miter"/><path d="M221.29352,176.12084c0,2.75288 -2.75289,2.75288 -2.75289,2.75288h-1.06707c-1.34912,-0.01799 -2.66949,-0.37115 -3.93432,-0.92002l-0.28924,0.72316l-2.60812,-1.04323c-1.0455,-0.39037 -1.78999,-1.39814 -1.78999,-2.57979c0,-1.18166 0.74446,-2.18943 1.78999,-2.57979l2.60812,-1.04322l0.07306,0.18265l0.42875,-0.32987c1.24057,-0.01657 2.48118,-0.03314 3.72174,-0.04971c0,0 2.68931,0 2.75177,2.65807c0.57145,0.38693 1.06815,1.05961 1.06815,2.22895z" fill="#a00000" fill-rule="nonzero" stroke="none" stroke-width="0.5" stroke-linecap="butt" stroke-linejoin="miter"/><path d="M208.34761,182.8602c-0.87054,2.61162 -3.48216,1.74108 -3.48216,1.74108l-1.48631,-0.49816c-0.70946,-0.2332 -1.53735,-0.30059 -2.32118,-0.42965c-0.79252,1.06904 -2.25786,1.06909 -2.25786,1.06909h-4.26823c-0.4651,0 -0.9033,-0.11533 -1.28747,-0.31898c-0.08254,0.01373 -0.1653,0.02712 -0.24832,0.04018l-1.1255,0.22537c0,0 -2.69942,0.53988 -3.23933,-2.15954c-0.12776,-0.6389 -0.07411,-1.15684 0.08231,-1.57527c0.34634,-1.11098 1.34863,-1.54108 1.93044,-1.70037c-0.29406,-0.43802 -0.46563,-0.9652 -0.46563,-1.53247c0,-1.18166 0.74447,-2.18942 1.79,-2.57979l2.60811,-1.04322l0.03884,0.09705l0.24179,-0.19212c2.70711,-0.45604 5.46595,-0.62965 8.21115,-0.63536c0,0 2.75289,0 2.75289,2.75289c0,0.17612 -0.01127,0.34092 -0.03235,0.49522c0.22522,0.26384 0.41593,0.6061 0.54499,1.04885c0.34802,0.46099 0.55439,1.03494 0.55439,1.65709c0,0.05813 -0.00179,0.11586 -0.00534,0.17309c0.64745,0.31265 2.15689,1.28845 1.46467,3.36508z" fill="#a00000" fill-rule="nonzero" stroke="none" stroke-width="0.5" stroke-linecap="butt" stroke-linejoin="miter"/><path d="M184.39482,179.94083c-1.52038,0 -2.75289,-1.23251 -2.75289,-2.75289c0,-1.52038 1.23251,-2.75289 2.75289,-2.75289c1.52038,0 2.75288,1.23251 2.75288,2.75289c0,1.52038 -1.23251,2.75289 -2.75288,2.75289z" fill="#a00000" fill-rule="nonzero" stroke="none" stroke-width="0.5" stroke-linecap="butt" stroke-linejoin="miter"/><path d="M209.5515,176.6528c0,1.37464 -0.68637,2.06287 -1.3737,2.40741c-0.01847,0.05594 -0.03862,0.11112 -0.06052,0.16545c0.42951,-0.02287 0.87296,-0.0072 1.33321,0.05952c0.99222,0.14388 1.93156,0.59375 2.87811,0.97251c2.99635,-0.01993 5.98409,0.04619 8.8795,0.04619h3.73473c1.52038,0 2.75288,1.23251 2.75288,2.75289c0,1.38176 -1.01799,2.52572 -2.34494,2.72285l-2.44044,0.40675c-0.20407,1.58478 -1.89869,2.14965 -1.89869,2.14965c-9.78754,3.2625 -17.00936,2.29121 -26.93246,0.63734l-3.15653,-0.52607c-1.32695,-0.19708 -2.34495,-1.34109 -2.34495,-2.72285c0,-0.41297 0.09093,-0.80472 0.25387,-1.15628c-0.81461,-0.19149 -2.08827,-0.79032 -2.08827,-2.66282c0,-1.73246 1.09024,-2.37461 1.89854,-2.61266c0.01791,-0.02817 0.03653,-0.05642 0.05578,-0.08478c-0.21317,-0.79308 -0.32787,-2.28894 1.42128,-3.16351c2.46226,-1.23113 3.69339,1.23113 3.69339,1.23113c0.16182,0.58439 0.47212,1.17911 0.7667,1.77272c0.40283,-0.48734 1.0493,-0.87841 2.08689,-0.87841c2.50405,0 2.73043,2.27767 2.75088,2.68945c0.47932,0.16488 0.94681,0.23612 1.40811,0.23929c0.24944,-0.04317 0.49961,-0.08422 0.75046,-0.12321c0.15212,-0.3835 0.3879,-0.72472 0.6848,-1.0011c0.16571,-1.09949 0.24824,-2.21309 0.24089,-3.32153l4.29774,-2.75289c0,0 2.75288,0 2.75288,2.75289zM198.08232,180.16268c0.33586,0.23607 0.66421,0.42067 0.98677,0.56111z" fill="#000000" fill-rule="nonzero" stroke="none" stroke-width="0.5" stroke-linecap="butt" stroke-linejoin="miter"/><path d="M197.83859,179.12449l3.08971,-0.61793" fill="none" fill-rule="nonzero" stroke="#001026" stroke-width="1.2" stroke-linecap="round" stroke-linejoin="miter"/><path d="M203.09108,177.27066l-9.88712,2.78076" fill="none" fill-rule="nonzero" stroke="#a00000" stroke-width="1.2" stroke-linecap="round" stroke-linejoin="miter"/><path d="M204.32696,174.18095l-3.70768,8.65126" fill="none" fill-rule="nonzero" stroke="#000000" stroke-width="1.2" stroke-linecap="round" stroke-linejoin="miter"/><path d="M190.4232,173.56302l6.48844,10.19611" fill="none" fill-rule="nonzero" stroke="#000000" stroke-width="1.2" stroke-linecap="round" stroke-linejoin="miter"/><path d="M238.97667,201.37549c0.30399,-2.73606 3.04004,-2.43203 3.04004,-2.43203l3.06732,0.35622c0.06571,0.10851 0.13149,0.21704 0.1972,0.32555l0.0828,-0.24835l2.72053,0.90688c0.8489,0.26108 1.5228,0.92158 1.80242,1.7622c3.10333,1.63459 6.20661,6.23639 2.46935,9.87556c-3.75913,3.66048 -13.54769,0.27913 -13.38956,-5.49357c0.02858,-1.04222 0.38469,-1.91126 0.95995,-2.61192c-0.58532,-0.43626 -1.09001,-1.1805 -0.95002,-2.44047z" fill="#a00000" fill-rule="nonzero" stroke="none" stroke-width="0.5" stroke-linecap="butt" stroke-linejoin="miter"/><path d="M246.65631,207.83117c-1.52038,0 -2.75288,-1.23251 -2.75288,-2.75289c0,-1.52038 1.23251,-2.75289 2.75288,-2.75289c1.52038,0 2.75289,1.23251 2.75289,2.75289c0,1.52038 -1.23251,2.75289 -2.75289,2.75289z" fill="#ffffff" fill-rule="nonzero" stroke="none" stroke-width="0.5" stroke-linecap="butt" stroke-linejoin="miter"/><path d="M202.47319,179.74243l-8.65126,2.16283l-2.16282,-4.94358" fill="none" fill-rule="nonzero" stroke="#000000" stroke-width="1.2" stroke-linecap="round" stroke-linejoin="miter"/><path d="M239.52203,226.70627c0,1.52038 -1.23251,2.75289 -2.75289,2.75289c-0.17324,0 -0.34275,-0.01601 -0.50711,-0.0466c0.48756,0.49667 0.78823,1.17739 0.78823,1.92835c0,1.52038 -1.23251,2.75289 -2.75289,2.75289c-0.5076,0 -0.98315,-0.13739 -1.39142,-0.37701c-0.35238,1.11423 -1.39452,1.9219 -2.62524,1.9219c-0.23884,0 -0.47058,-0.03042 -0.69155,-0.08758c-0.23615,1.28042 -1.35837,2.2504 -2.70714,2.2504c-1.52038,0 -2.75288,-1.23252 -2.75288,-2.75289c0,-0.11817 0.00746,-0.23462 0.0219,-0.34887c-1.39881,-0.13063 -2.49367,-1.30785 -2.49367,-2.74084c0,-1.52038 1.23251,-2.75288 2.75288,-2.75288c0.1182,0 0.23466,0.00746 0.34891,0.0219c0.13063,-1.39881 1.30785,-2.49367 2.74084,-2.49367c0.26417,0 0.51969,0.03723 0.76155,0.10671c0.34025,-1.13415 1.39221,-1.96055 2.63715,-1.96055c0.36921,0 0.72144,0.07269 1.04315,0.20452c0.30779,-1.18411 1.38407,-2.05835 2.66453,-2.05835c0.30096,0 0.59063,0.04832 0.8617,0.13757c0.41764,-0.98863 1.39628,-1.68242 2.53699,-1.68242c1.52038,0 2.75289,1.23252 2.75289,2.75289c0,0.96203 -0.49346,1.8088 -1.24109,2.301c0.00347,0.05649 0.00522,0.11339 0.00522,0.17078zM234.29744,228.58813c0.17324,0 0.34275,0.01601 0.50711,0.0466c-0.03329,-0.03388 -0.06567,-0.06862 -0.09716,-0.10418c-0.0335,0.00119 -0.06719,0.0018 -0.101,0.0018c-0.36921,0 -0.72144,-0.07269 -1.04315,-0.20452c-0.03597,0.13835 -0.08243,0.27246 -0.13846,0.40144c0.27421,-0.09157 0.5676,-0.14119 0.87263,-0.14119zM231.35169,230.3491c0.1107,0.04675 0.21768,0.10059 0.3204,0.16089c0.02862,-0.09044 0.06175,-0.17888 0.09918,-0.26499c-0.13548,0.04522 -0.2756,0.08022 -0.41954,0.10407zM227.14118,232.30783c0.14783,0.0138 0.29227,0.03925 0.43238,0.07552c0.00903,-0.04891 0.01933,-0.09735 0.0309,-0.1453c-0.03466,0.00131 -0.06951,0.00198 -0.10451,0.00198c-0.11817,0 -0.23462,-0.00746 -0.34887,-0.02191c-0.00279,0.03003 -0.00608,0.05996 -0.00985,0.0897z" fill="#e93e3e" fill-rule="nonzero" stroke="none" stroke-width="0.5" stroke-linecap="butt" stroke-linejoin="miter"/><path d="M278.14374,226.08841c0,1.52038 -1.23251,2.75289 -2.75288,2.75289c-0.40234,0 -0.78449,-0.0863 -1.12901,-0.24141c-0.4601,0.34559 -1.03199,0.5504 -1.65175,0.5504c-0.63495,0 -1.21967,-0.21496 -1.68541,-0.57607c-0.50297,0.54428 -1.22285,0.88506 -2.02231,0.88506c-0.74957,0 -1.42918,-0.29955 -1.92559,-0.78551c-0.47201,0.83775 -1.36993,1.40347 -2.40002,1.40347c-0.80987,0 -1.53807,-0.34969 -2.04179,-0.90636c-0.49458,0.73319 -1.33288,1.21535 -2.28382,1.21535c-1.20202,0 -2.22406,-0.77035 -2.59942,-1.84425c-0.47215,0.38055 -1.07259,0.60835 -1.72623,0.60835c-0.80879,0 -1.53616,-0.3488 -2.03981,-0.9042c-0.37906,1.06707 -1.39769,1.83111 -2.5948,1.83111c-0.63495,0 -1.21967,-0.21496 -1.68541,-0.57607c-0.50297,0.54424 -1.22285,0.88505 -2.02231,0.88505c-0.32521,0 -0.63726,-0.05641 -0.92692,-0.15995c-0.28962,0.10354 -0.60171,0.15995 -0.92692,0.15995c-0.25071,0 -0.49353,-0.0335 -0.72435,-0.09626c-0.41861,0.25701 -0.91121,0.40525 -1.43848,0.40525c-0.88995,0 -1.68124,-0.42227 -2.18447,-1.0774c-0.43618,0.29026 -0.95994,0.45943 -1.52321,0.45943c-1.52038,0 -2.75288,-1.23251 -2.75288,-2.75288c0,-1.52038 1.23251,-2.75288 2.75288,-2.75288c0.88995,0 1.68123,0.42226 2.18447,1.0774c0.43622,-0.29026 0.95995,-0.45943 1.52321,-0.45943c0.25071,0 0.49354,0.03351 0.72435,0.09627c0.41861,-0.25705 0.91121,-0.40525 1.43847,-0.40525c0.32521,0 0.63726,0.05638 0.92692,0.15992c0.28962,-0.10354 0.6017,-0.15992 0.92692,-0.15992c0.63495,0 1.21967,0.21496 1.68541,0.57607c0.50294,-0.54424 1.22281,-0.88505 2.02228,-0.88505c0.80879,0 1.53616,0.34879 2.03981,0.90419c0.3791,-1.06707 1.39769,-1.83111 2.5948,-1.83111c1.20199,0 2.22405,0.77035 2.59942,1.84425c0.47215,-0.38055 1.07259,-0.60835 1.72623,-0.60835c0.80987,0 1.53806,0.34969 2.04178,0.90636c0.49454,-0.73319 1.33288,-1.21534 2.28383,-1.21534c0.74957,0 1.42918,0.29958 1.92559,0.78554c0.47201,-0.8377 1.36993,-1.40348 2.40002,-1.40348c0.63495,0 1.21967,0.21496 1.68541,0.57606c0.50294,-0.54424 1.22285,-0.88505 2.02231,-0.88505c0.40234,0 0.78449,0.0863 1.129,0.24141c0.4601,-0.34559 1.03199,-0.5504 1.65175,-0.5504c1.52038,0 2.75289,1.23251 2.75289,2.75289z" fill="#e93e3e" fill-rule="nonzero" stroke="none" stroke-width="0.5" stroke-linecap="butt" stroke-linejoin="miter"/><path d="M221.62948,230.69518c-1.52038,0 -2.75289,-1.23251 -2.75289,-2.75289c0,-1.43299 1.09482,-2.61024 2.49367,-2.74087c-0.01448,-0.11425 -0.0219,-0.2307 -0.0219,-0.34887c0,-1.52038 1.23251,-2.75288 2.75289,-2.75288c0.58849,0 1.13382,0.18466 1.58127,0.49917c-0.00564,-0.07194 -0.00851,-0.14466 -0.00851,-0.21805c0,-1.52038 1.23251,-2.75289 2.75289,-2.75289c0.54685,0 1.05647,0.15944 1.48486,0.43436c0.42051,-0.98218 1.39579,-1.67026 2.53181,-1.67026c0.40241,0 0.78465,0.08634 1.12923,0.24152c0.39137,-1.04363 1.39818,-1.78641 2.57845,-1.78641c1.52038,0 2.75289,1.23251 2.75289,2.75288c0,1.52038 -1.23251,2.75288 -2.75289,2.75288c-0.40241,0 -0.78465,-0.08634 -1.12923,-0.24152c-0.39137,1.04363 -1.39818,1.78642 -2.57845,1.78642c-0.54682,0 -1.05644,-0.15944 -1.48482,-0.43436c-0.42051,0.98218 -1.39583,1.67026 -2.53185,1.67026c-0.58849,0 -1.13382,-0.18466 -1.58127,-0.49917c0.00564,0.07194 0.00851,0.14466 0.00851,0.21805c0,1.43299 -1.09482,2.61021 -2.49367,2.74084c0.01448,0.11429 0.0219,0.23074 0.0219,0.34891c0,1.52038 -1.23251,2.75289 -2.75288,2.75289z" fill="#e93e3e" fill-rule="nonzero" stroke="none" stroke-width="0.5" stroke-linecap="butt" stroke-linejoin="miter"/><path d="M288.0587,226.63903c-0.3041,0 -0.55058,-0.24652 -0.55058,-0.55058c0,-0.30409 0.24652,-0.55058 0.55058,-0.55058c0.3041,0 0.55059,0.24652 0.55059,0.55058c0,0.30409 -0.24653,0.55058 -0.55059,0.55058z" fill="#a00000" fill-rule="nonzero" stroke="none" stroke-width="0.5" stroke-linecap="butt" stroke-linejoin="miter"/><path d="M284.81986,215.88872c-0.30536,-0.45812 0.15272,-0.76352 0.15272,-0.76352l0.02142,-0.01426c0.61081,-0.40719 1.22161,-0.81442 1.83242,-1.22161c0,0 0.45812,-0.30537 0.76353,0.15272c0.30536,0.45812 -0.15272,0.76353 -0.15272,0.76353c-0.61081,0.40723 -1.24303,0.82871 -1.85384,1.23591c0,0 -0.45812,0.30537 -0.76353,-0.15272z" fill="#a00000" fill-rule="nonzero" stroke="none" stroke-width="0.5" stroke-linecap="butt" stroke-linejoin="miter"/><path d="M291.56437,218.67324c0,0.52114 -0.24138,0.98595 -0.61842,1.28867c0.44383,0.18824 0.92741,0.59839 0.92741,1.4921c0,1.65172 -1.65172,1.65171 -1.65172,1.65171l-0.34641,-0.02246c-0.18694,0.02978 -0.36948,0.06317 -0.54838,0.09937c-0.05787,0.18534 -0.14746,0.35664 -0.2625,0.50756c0.1669,0.01825 0.39514,0.10585 0.4613,0.43659c0.02153,0.10772 0.01728,0.19828 -0.00332,0.27421c0.00899,0.04287 0.01399,0.09029 0.01399,0.14272c0,0.55059 -0.55058,0.55059 -0.55058,0.55059h-0.30898c-0.27429,-0.01011 -0.55406,-0.06015 -0.82361,-0.14604c-0.35447,0.03903 -0.7271,0.07686 -1.09807,0.12119c-0.00011,0.03008 0.00008,0.06078 0.00049,0.0922l-0.47025,0.69826c0,0 -0.0616,0.06157 -0.16026,0.11127c0.00821,0.03779 0.01254,0.07706 0.01254,0.11735c0,0.30409 -0.24653,0.55059 -0.55059,0.55059c-0.14887,0 -0.28398,-0.05914 -0.38308,-0.15515c-0.00332,0.02112 -0.00784,0.04183 -0.01351,0.06209c0.03411,0.09403 0.04917,0.20988 0.00343,0.33369c0.01105,0.0434 0.01687,0.08884 0.01687,0.13567c0,0.30409 -0.24653,0.55058 -0.55059,0.55058c-0.23242,0 -0.43115,-0.14398 -0.51197,-0.3476c-0.01313,-0.00522 -0.02601,-0.01093 -0.03862,-0.01709c-0.18298,-0.08952 -0.30899,-0.27746 -0.30899,-0.49488c0,-0.01444 0.00052,-0.02881 0.00164,-0.04302c-0.19149,-0.16399 -0.38705,-0.31965 -0.58301,-0.4748c-0.26157,0.13078 -0.52312,0.26156 -0.78468,0.39234c0,0 -0.49245,0.24623 -0.73868,-0.24622c-0.16294,-0.32593 -0.00235,-0.54397 0.12489,-0.6542c-0.04362,-0.09253 -0.08325,-0.18503 -0.11896,-0.27734c-0.27224,0 -0.5445,0 -0.81673,0v0.37633c0,0 0,0.22473 -0.14358,0.38704c0.15828,0.0291 0.45256,0.13735 0.45256,0.53987c0,0.55059 -0.55058,0.55059 -0.55058,0.55059h-0.30899c-0.30899,0 -0.61793,0 -0.92692,0c0,0 -0.55058,0 -0.55058,-0.55059c0,-0.55059 0.55058,-0.55059 0.55058,-0.55059c0.13059,0 0.31641,0 0.51074,0c-0.1344,-0.16126 -0.1344,-0.37633 -0.1344,-0.37633v-0.27645l-0.25086,-0.09526c-0.00079,-0.00153 -0.00153,-0.0031 -0.00232,-0.00463c-0.24705,0 -0.4941,0 -0.74114,0c0,0 -0.55058,0 -0.55058,-0.55059c0,-0.55059 0.55058,-0.55058 0.55058,-0.55058c0.13634,0 0.27593,0 0.41805,0c0.04343,-0.09216 0.12358,-0.18134 0.26264,-0.25086c0.21612,-0.10806 0.38481,-0.07388 0.50607,-0.00146c-0.10627,-0.38451 -0.0922,-0.70188 -0.01041,-0.96191c-0.4038,-0.30111 -0.66528,-0.78249 -0.66528,-1.32494c0,-0.91222 0.7395,-1.65171 1.65172,-1.65171c0.45775,0 0.87196,0.18618 1.17113,0.48696c0.02127,-0.0025 0.04287,-0.00377 0.06477,-0.00377c0.3041,0 0.55059,0.24653 0.55059,0.55059c0,0.08268 -0.01821,0.16108 -0.05086,0.23145c0.47126,-0.33831 1.04516,-0.33831 1.04516,-0.33831c0.72767,0.01612 1.39578,-0.0913 2.04659,-0.25167c-0.06142,-0.02235 -0.12578,-0.02997 -0.19275,-0.0178c0,0 -0.37459,0 -0.50581,-0.30899c-0.14037,0 -0.28073,0 -0.42111,0l0.08033,0.14772c0,0 -0.38932,0.38932 -0.77864,0c-0.38932,-0.38932 0,-0.77863 0,-0.77863l0.69826,-0.47025c0.51499,0 1.02994,0 1.54489,0c0,0 0.55058,0 0.55058,0.55058c0,0.11638 -0.02463,0.20817 -0.0634,0.28052c0.09414,0.08175 0.18381,0.16947 0.26847,0.26044c0.60517,-0.1863 1.21776,-0.38126 1.87257,-0.52663c-0.35048,-0.30291 -0.57226,-0.75065 -0.57226,-1.25023c0,-0.91222 0.7395,-1.65171 1.65172,-1.65171c0.91222,0 1.65172,0.7395 1.65172,1.65171zM284.65997,225.84689c0.14887,0 0.28399,0.05914 0.38309,0.15515c0.01287,-0.08149 0.04359,-0.15701 0.08806,-0.2225c-0.01582,-0.02328 -0.02985,-0.04784 -0.04201,-0.07343l-0.15313,-0.30634c-0.23928,0.07045 -0.45656,0.15302 -0.64222,0.25134c0.0844,0.06817 0.16847,0.1372 0.25186,0.20764c0.0369,-0.0078 0.07518,-0.0119 0.1144,-0.0119z" fill="#a00000" fill-rule="nonzero" stroke="none" stroke-width="0.5" stroke-linecap="butt" stroke-linejoin="miter"/><path d="M295.27194,216.51023l-0.0166,0.07537c0.10302,0.72096 0.20596,1.44187 0.30899,2.16282c0,0 0.02093,0.14645 0.00642,0.35801c0.00671,0.0606 0.01018,0.12216 0.01018,0.18455c0,0.91222 -0.73949,1.65171 -1.65171,1.65171c-0.91222,0 -1.65172,-0.7395 -1.65172,-1.65171c0,-0.04941 0.00216,-0.09832 0.00642,-0.14664c-0.09958,-0.69718 -0.19922,-1.39437 -0.29881,-2.09156l-0.0166,-0.54256c0,0 -0.00001,-1.65171 1.65171,-1.65171c1.65172,0 1.65172,1.65171 1.65172,1.65171z" fill="#a00000" fill-rule="nonzero" stroke="none" stroke-width="0.5" stroke-linecap="butt" stroke-linejoin="miter"/><path d="M323.66589,225.86973c-3.98208,-0.79573 -9.10438,-7.91643 -13.62077,-7.08641c-0.30021,0.40201 -0.86484,0.84405 -1.80761,0.52981c-1.03867,-0.34623 -1.15934,-1.15147 -1.12266,-1.65508c-0.10679,-0.59054 0.10131,-1.00871 0.36626,-1.29131l0.0541,-0.16089c3.07,-7.66517 5.3107,-15.63637 9.01413,-22.98456c0.95043,-1.88578 1.71399,-8.35825 5.69222,-6.57385c1.57959,0.70853 0.83793,8.3756 0.83793,9.77963c0,4.83997 0.0425,9.68191 0,14.52173c-0.00671,0.76505 0.10462,3.55939 0.92782,4.07774c0.40115,0.25257 3.71727,-1.39265 4.22241,-1.59471c4.61915,-1.84768 9.59583,-0.89942 14.21278,-2.78075c3.17351,-1.24621 12.61726,-1.21927 7.86386,4.64494c-1.13736,1.40318 -5.24406,2.40763 -6.8007,3.71048c-6.04147,5.05638 -10.61208,8.29385 -18.15679,10.81173c0,0 -1.56695,0.52234 -2.08929,-1.04464c-0.52234,-1.56695 1.04464,-2.08928 1.04464,-2.08928c0.16324,-0.05436 0.32518,-0.10873 0.48585,-0.16317c-0.49656,-0.0388 -0.87972,-0.29424 -0.87972,-0.29424l-0.24428,-0.35716z" fill="#ffffff" fill-rule="nonzero" stroke="none" stroke-width="0.5" stroke-linecap="butt" stroke-linejoin="miter"/><path d="M350.05706,209.32498c0.03556,0.02597 0.07071,0.05223 0.1053,0.07888l-0.51238,0.53909c0.00082,0.02586 0.00127,0.05213 0.00127,0.07884c0,0.36678 -0.08146,0.65214 -0.20817,0.87412c0.52458,-0.03567 1.06833,-0.05264 1.64619,-0.05406c0,0 1.65172,0 1.65172,1.65172c0,1.65172 -1.65172,1.65171 -1.65172,1.65171c-0.10937,-0.00029 -0.2169,-0.00003 -0.32272,0.0009l-2.13487,0.81707c-0.1769,0.13219 -0.39201,0.24183 -0.64066,0.32951c0.31313,0.21585 0.65622,0.45816 1.03726,0.72871l-3.36426,1.82585c-0.44305,-0.15727 -0.88609,-0.31451 -1.32915,-0.47174c-0.68868,1.00397 -1.53534,1.64318 -2.77524,1.40359c-1.40184,-0.27089 -2.36604,-1.59877 -3.54903,-2.39816l1.41773,-0.80939c-0.37085,-0.2241 -0.74169,-0.44816 -1.11251,-0.67222l1.54564,-0.91248c-0.31029,-0.11093 -0.61584,-0.22988 -0.91546,-0.35551l2.79818,-2.43517c0.60275,-0.05973 1.22516,0.00694 1.8266,0.16869c0.73361,-0.97494 1.61168,-1.85007 2.5936,-2.54882l-0.23204,-0.3613c0.33328,-0.10754 0.68621,-0.15895 1.04594,-0.16264c0.33026,-0.19093 0.66998,-0.36186 1.01785,-0.51021l2.06088,1.54307z" fill="#a00000" fill-rule="nonzero" stroke="none" stroke-width="0.5" stroke-linecap="butt" stroke-linejoin="miter"/><path d="M323.69757,195.50006c0,1.65172 -1.65171,1.65172 -1.65171,1.65172l-0.24974,-0.00858c-0.30253,0.38167 -0.77024,0.62651 -1.29512,0.62651c-0.36305,0 -0.69871,-0.11712 -0.97132,-0.31562l-2.84292,0.85289c-0.16104,0.05239 -0.3329,0.08071 -0.51141,0.08071c-0.91222,0 -1.65172,-0.7395 -1.65172,-1.65172c0,-0.70901 0.44671,-1.31363 1.074,-1.54788l0.93815,-0.37529l-0.4673,-0.23966c0.50294,-0.42234 0.97822,-0.78576 1.42262,-1.09024c-0.11929,-0.22839 -0.18675,-0.48813 -0.18675,-0.76364c0,-0.70901 0.44671,-1.31363 1.07401,-1.54787l0.73252,-0.29302c-0.34954,-0.30286 -0.57066,-0.75006 -0.57066,-1.24885c0,-0.21209 0.04,-0.41484 0.1128,-0.60111c-0.13578,-0.57824 -0.04287,-1.04434 0.50966,-1.13016c-0.00295,-0.04048 -0.00448,-0.08134 -0.00448,-0.12257c0,-0.91222 0.7395,-1.65172 1.65172,-1.65172c0.10325,0 0.20425,0.00948 0.30223,0.02761l1.28318,0.21388l0.16127,-0.2291c0.06283,0.09679 0.12365,0.19223 0.18242,0.28637l0.16947,0.02825c0.79614,0.11828 1.40695,0.80468 1.40695,1.63373c0,0.36839 -0.12059,0.70856 -0.32443,0.9833c0.27182,1.00762 0.12272,1.68251 -0.34287,2.01694c-0.02492,1.04252 -0.7961,1.89055 -1.41209,2.77904c0.43432,0.05821 1.46146,0.33357 1.46146,1.63612z" fill="#a00000" fill-rule="nonzero" stroke="none" stroke-width="0.5" stroke-linecap="butt" stroke-linejoin="miter"/><path d="M352.94312,231.7568c-0.91222,0 -1.65171,-0.7395 -1.65171,-1.65172c0,-0.91222 0.7395,-1.65171 1.65171,-1.65171c0.91222,0 1.65172,0.7395 1.65172,1.65171c0,0.91222 -0.7395,1.65172 -1.65172,1.65172z" fill="#a00000" fill-rule="nonzero" stroke="none" stroke-width="0.5" stroke-linecap="butt" stroke-linejoin="miter"/><path d="M357.95416,245.36549l-0.51693,-1.0614c-1.07505,-1.63306 -1.89831,-3.42978 -2.62901,-5.24328c0,0 -0.61346,-1.53363 0.92013,-2.14705c1.53362,-0.61346 2.14704,0.92013 2.14704,0.92013c0.6379,1.60765 1.35236,3.20665 2.31454,4.64386l0.71894,1.41038c0,0 0.73868,1.47735 -0.73868,2.21603c-1.47735,0.73868 -2.21603,-0.73868 -2.21603,-0.73868z" fill="#a00000" fill-rule="nonzero" stroke="none" stroke-width="0.5" stroke-linecap="butt" stroke-linejoin="miter"/><path d="M360.04949,249.98624c-0.91222,0 -1.65172,-0.7395 -1.65172,-1.65172c0,-0.91222 0.73951,-1.65172 1.65172,-1.65172c0.91222,0 1.65171,0.7395 1.65171,1.65172c0,0.91222 -0.73949,1.65172 -1.65171,1.65172z" fill="#a00000" fill-rule="nonzero" stroke="none" stroke-width="0.5" stroke-linecap="butt" stroke-linejoin="miter"/><path d="M360.35847,256.47468c-0.91222,0 -1.65172,-0.7395 -1.65172,-1.65172c0,-0.91222 0.7395,-1.65172 1.65172,-1.65172c0.91222,0 1.65172,0.7395 1.65172,1.65172c0,0.91222 -0.7395,1.65172 -1.65172,1.65172z" fill="#a00000" fill-rule="nonzero" stroke="none" stroke-width="0.5" stroke-linecap="butt" stroke-linejoin="miter"/><path d="M348.92645,226.81321c-0.91222,0 -1.65172,-0.7395 -1.65172,-1.65172c0,-0.91222 0.7395,-1.65172 1.65172,-1.65172c0.91222,0 1.65172,0.7395 1.65172,1.65172c0,0.91222 -0.7395,1.65172 -1.65172,1.65172z" fill="#a00000" fill-rule="nonzero" stroke="none" stroke-width="0.5" stroke-linecap="butt" stroke-linejoin="miter"/><path d="M330.38806,199.62359c-0.91222,0 -1.65172,-0.7395 -1.65172,-1.65172c0,-0.91222 0.7395,-1.65172 1.65172,-1.65172c0.91222,0 1.65172,0.7395 1.65172,1.65172c0,0.91222 -0.7395,1.65172 -1.65172,1.65172z" fill="#a00000" fill-rule="nonzero" stroke="none" stroke-width="0.5" stroke-linecap="butt" stroke-linejoin="miter"/><path d="M335.33164,203.94924c-0.91222,0 -1.65172,-0.7395 -1.65172,-1.65171c0,-0.91222 0.7395,-1.65172 1.65172,-1.65172c0.91222,0 1.65172,0.7395 1.65172,1.65172c0,0.91222 -0.7395,1.65171 -1.65172,1.65171z" fill="#a00000" fill-rule="nonzero" stroke="none" stroke-width="0.5" stroke-linecap="butt" stroke-linejoin="miter"/><path d="M339.34827,209.20177c-0.91222,0 -1.65172,-0.7395 -1.65172,-1.65172c0,-0.91222 0.73951,-1.65172 1.65172,-1.65172c0.91222,0 1.65171,0.7395 1.65171,1.65172c0,0.91222 -0.73949,1.65172 -1.65171,1.65172z" fill="#a00000" fill-rule="nonzero" stroke="none" stroke-width="0.5" stroke-linecap="butt" stroke-linejoin="miter"/><path d="M257.3779,85.94751c0,-1.52508 0.62006,-2.90527 1.62179,-3.90234c-0.48748,-1.1065 -0.60935,-2.54017 0.18433,-4.32591c1.2659,-2.84829 3.42764,-3.36746 5.06518,-3.28175c0.61256,-2.13249 2.4792,-3.7344 4.75038,-3.95633l5.9261,-0.65845l0.09011,0.8111l1.81951,-0.68872c8.8304,5.55812 24.98303,17.53218 4.70598,22.79741c-0.69763,0.18119 -1.37388,0.29227 -2.03148,0.34234c-1.00218,1.04602 -2.41312,1.69735 -3.97615,1.69735c-2.80042,0 -5.11253,-2.09081 -5.46051,-4.79657c-0.76685,-0.49521 -1.52556,-1.01579 -2.2842,-1.53541c-0.91132,1.78265 -2.76583,3.00299 -4.90533,3.00299c-3.04075,0 -5.50578,-2.46502 -5.50578,-5.50577z" fill="#ffffff" fill-rule="nonzero" stroke="none" stroke-width="0.5" stroke-linecap="butt" stroke-linejoin="miter"/><path d="M282.19152,101.44008c-2.86225,0 -5.2144,-2.18409 -5.48066,-4.9766c-0.57621,0.20466 -1.19666,0.31604 -1.84306,0.31604c-2.31058,0 -4.28874,-1.42333 -5.10552,-3.44105c-1.14288,-0.23413 -2.15675,-0.82241 -2.92187,-1.64515c-0.91804,0.68554 -2.05716,1.09147 -3.29105,1.09147c-3.04075,0 -5.50577,-2.46502 -5.50577,-5.50577c0,-3.04076 2.46501,-5.50577 5.50577,-5.50577c1.59269,0 3.0274,0.67625 4.03268,1.75727c0.91804,-0.68554 2.05716,-1.09147 3.29104,-1.09147c2.31058,0 4.28875,1.42333 5.10552,3.44105c2.33999,0.47935 4.13898,2.44323 4.36987,4.86449c0.57621,-0.20466 1.19665,-0.31604 1.84306,-0.31604c3.04075,0 5.50577,2.46501 5.50577,5.50577c0,3.04076 -2.46502,5.50578 -5.50577,5.50578z" fill="#a00000" fill-rule="nonzero" stroke="none" stroke-width="0.5" stroke-linecap="butt" stroke-linejoin="miter"/><path d="M220.36117,125.11636c6.6069,-9.69016 16.95772,-14.97567 23.78488,-9.91037c6.82712,4.84508 6.38669,17.39819 -0.44047,27.08835c-6.6069,9.69016 -16.29707,12.77337 -23.56466,8.58899c-5.94625,-4.18438 -6.38668,-16.07681 0.22022,-25.76696z" fill="#ffffff" fill-rule="evenodd" stroke="#001026" stroke-width="1.2" stroke-linecap="round" stroke-linejoin="round"/><path d="M229,132.99999c0,-1.38071 1.11929,-2.5 2.5,-2.5c1.38071,0 2.5,1.11929 2.5,2.5c0,1.38071 -1.11929,2.5 -2.5,2.5c-1.38071,0 -2.5,-1.11929 -2.5,-2.5z" fill="#000000" fill-rule="nonzero" stroke="none" stroke-width="0.5" stroke-linecap="butt" stroke-linejoin="miter"/></g></g></g></svg>