<svg version="1.1" xmlns="http://www.w3.org/2000/svg" xmlns:xlink="http://www.w3.org/1999/xlink" width="30.94536" height="31.06151" viewBox="-1.28738,-1,30.94536,31.06151"><g transform="translate(-325.81731,-165.46926)"><g data-paper-data="{&quot;isPaintingLayer&quot;:true}" fill="#ffffff" fill-rule="nonzero" stroke="#000000" stroke-width="2.5" stroke-linecap="butt" stroke-linejoin="miter" stroke-miterlimit="10" stroke-dasharray="" stroke-dashoffset="0" style="mix-blend-mode: normal"><path d="M336.39505,194.28075l-0.68049,-4.49721c-0.16202,-0.03394 -0.42935,-0.16122 -0.802,-0.38184c-0.37265,-0.22062 -0.74259,-0.46103 -1.10984,-0.72125l-3.9857,1.93465l-3.67786,-6.82217l3.66165,-2.78318c-0.0216,-0.13576 -0.03781,-0.29416 -0.04861,-0.47517c-0.0108,-0.18102 -0.0162,-0.35072 -0.0162,-0.50912c0,-0.12445 0.0054,-0.28567 0.0162,-0.48366c0.0108,-0.19799 0.027,-0.37618 0.04861,-0.53457l-3.66165,-2.81712l3.67786,-6.73732l4.08291,1.91767c0.19442,-0.16971 0.46716,-0.35921 0.8182,-0.56851c0.35104,-0.20931 0.68319,-0.36487 0.99642,-0.46669l0.68049,-4.616h7.2099l0.68049,4.56509c0.28084,0.11314 0.60218,0.27153 0.96402,0.47518c0.36185,0.20365 0.66158,0.40729 0.89921,0.61094l4.0667,-1.91767l3.64545,6.73732l-3.74266,2.78318c0.0108,0.15839 0.0297,0.33093 0.05671,0.5176c0.027,0.18668 0.0405,0.36487 0.0405,0.53457c0,0.16971 -0.0135,0.34507 -0.0405,0.52609c-0.027,0.18102 -0.04591,0.34507 -0.05671,0.49215l3.72646,2.74924l-3.67786,6.82217l-4.0505,-1.95162c-0.21603,0.20365 -0.48876,0.41012 -0.8182,0.61943c-0.32944,0.20931 -0.66698,0.37618 -1.01263,0.50063l-0.68049,4.49721zM339.89469,184.35295c1.14494,0 2.11976,-0.42144 2.92446,-1.26431c0.8047,-0.84287 1.20705,-1.86394 1.20705,-3.06319c0,-1.19925 -0.40235,-2.22032 -1.20705,-3.06319c-0.8047,-0.84287 -1.77952,-1.26431 -2.92446,-1.26431c-1.15574,0 -2.13326,0.42144 -2.93257,1.26431c-0.7993,0.84287 -1.19895,1.86394 -1.19895,3.06319c0,1.19925 0.39965,2.22032 1.19895,3.06319c0.7993,0.84287 1.77682,1.26431 2.93257,1.26431z"/></g></g></svg>