<svg version="1.1" xmlns="http://www.w3.org/2000/svg" xmlns:xlink="http://www.w3.org/1999/xlink" width="65.99892" height="59.65633" viewBox="0,0,65.99892,59.65633"><g transform="translate(-307.30054,-150.47184)"><g data-paper-data="{&quot;isPaintingLayer&quot;:true}" stroke-miterlimit="10" stroke-dasharray="" stroke-dashoffset="0" style="mix-blend-mode: normal"><path d="M335.9871,192.85797c0.47218,0.23609 1.47558,0.7673 0.05902,2.77409c-1.41655,2.00678 -5.48915,2.41995 -5.96133,2.41995c-1.82972,0.05902 -4.07259,0.05902 -6.55156,-0.7673c-7.20082,-2.36092 -6.26616,-4.13087 -3.96426,-5.37035c2.24288,-1.23948 2.25259,-2.4207 5.49886,0.47144c1.41655,1.29851 3.12822,1.77069 4.54478,2.06581c2.00678,0.35414 5.84329,-1.88874 6.37449,-1.59362z" fill="#000000" fill-rule="evenodd" stroke="#001026" stroke-width="1.2" stroke-linecap="round" stroke-linejoin="round"/><path d="M339.51021,199.36516c-0.73612,0.49075 -1.7181,1.1733 -4.41768,2.47625c-0.62949,0.30382 -2.29885,1.31744 -2.99955,1.59829c-0.63128,0.25302 0.8561,-0.65235 0.17738,-0.43757l0.90782,-2.80075c-0.23609,0.05902 -0.35414,0.92609 -0.23609,1.16218c1.00339,1.41655 0.25932,-0.32597 -2.98695,0.67742c-1.53995,0.49395 0.5518,1.01576 -0.98736,-1.16537c-0.16357,-0.2318 0.37853,0.26791 0.20146,0.06707c-1.54137,-1.74822 -0.83006,-0.54642 0.29888,-1.54096c1.12144,-0.82632 -4.59563,0.73075 -4.06442,0.96684c0.29512,0.11805 0.59023,0.11805 0.88535,0.05902c0.70828,-0.23609 2.00678,-0.70828 3.01018,-1.23948c2.53799,-1.29851 3.12822,-1.82972 4.30869,-2.71506c1.18046,-0.88535 3.89552,-3.0692 6.07938,-1.18046c1.88874,1.59362 0.82632,3.36432 -0.17707,4.07259z" fill="#000000" fill-rule="evenodd" stroke="#001026" stroke-width="1.2" stroke-linecap="round" stroke-linejoin="round"/><path d="M348.32292,186.80238c0.29512,0.23609 3.89552,4.48575 5.07599,3.42334c1.41655,-1.23948 3.36432,-3.65943 5.48915,-1.71167c2.12483,1.94776 -1.88874,5.25305 -3.60041,6.1384c-4.07259,1.82972 -7.37789,-1.65265 -8.08616,-2.59702c-0.70828,-0.94437 -1.94776,-2.53799 -1.94776,-4.07259c0.05902,-1.65265 2.06581,-2.06581 3.0692,-1.18046z" fill="#000000" fill-rule="evenodd" stroke="#001026" stroke-width="1.2" stroke-linecap="round" stroke-linejoin="round"/><g fill-rule="evenodd"><path d="M348.2372,200.55476c1.23948,1.12144 3.95455,3.42334 3.95455,3.42334c0,0 8.4403,-1.47558 8.4403,2.77409c0,2.53799 -4.24966,3.12822 -9.9749,2.59702c-0.35414,-0.05902 -0.70828,-0.17707 -1.00339,-0.41316c-1.29851,-1.12144 -5.01696,-4.42673 -7.37789,-6.72863c-3.48236,-3.42334 -6.37449,-5.66622 -6.37449,-5.66622c-5.01696,-4.89892 -0.94437,-6.96472 0.64925,-9.79783c1.47558,-2.41995 2.12483,-1.94776 5.66622,-1.23948c2.00678,0.29512 3.18725,0.47218 4.48575,0.41316c1.94776,-0.05902 1.59362,2.77409 1.06242,4.24966c0,0 -0.82632,2.18385 -1.59362,3.30529c-0.94437,1.35753 -1.65265,2.24288 -2.36092,2.77409z" fill="#000000" stroke="#001026" stroke-width="1.2" stroke-linecap="round" stroke-linejoin="round"/><path d="M343.27926,196.18705c0,0 -0.88535,-0.70828 -1.82972,-1.59362c-1.18046,-1.06242 -2.36092,-1.94776 -1.18046,-3.77748c1.06242,-1.41655 2.06581,-3.30529 4.72185,-1.59362c2.53799,1.59362 1.41655,3.0692 1.41655,3.0692c-1.29851,2.65604 -3.12822,3.89552 -3.12822,3.89552z" fill="#a00000" stroke="none" stroke-width="1" stroke-linecap="butt" stroke-linejoin="miter"/></g><path d="M353.10379,151.5656c0.17707,-0.11805 0.47218,-0.05902 0.53121,0.17707l1.5346,6.31547c0,0 3.77748,2.77409 4.89892,4.72185c1.88874,3.24627 1.94776,5.90231 1.94776,5.90231c0,0 4.19064,1.23948 4.89892,4.6038c0.70828,3.36432 -1.88874,9.73881 -12.98508,11.92266c-11.09634,2.18385 -20.00883,-0.82632 -24.19947,-7.55495c-4.19064,-6.72863 2.41995,-14.75577 2.06581,-14.28359l-1.23948,-10.56513c-0.05902,-0.23609 0.23609,-0.41316 0.47218,-0.29512l7.14179,4.66282c0,0 2.65604,-1.00339 5.43012,-1.12144c1.65265,-0.11805 3.0692,0 4.42673,0.23609z" fill="#000000" fill-rule="evenodd" stroke="#001026" stroke-width="1.2" stroke-linecap="butt" stroke-linejoin="miter"/><path d="M361.83921,168.91839c0,0 4.07259,1.06242 4.78087,4.42673c0.70828,3.36432 -2.12483,9.44369 -13.10312,11.56852c-14.28359,2.95115 -21.07124,-5.54817 -17.11669,-11.80462c3.95455,-6.31547 10.7422,-0.94437 15.70014,-1.29851c4.24966,-0.29512 4.72185,-4.01357 9.73881,-2.89213z" fill="#000000" fill-rule="evenodd" stroke="none" stroke-width="1" stroke-linecap="butt" stroke-linejoin="miter"/><path d="M343.24694,175.23386c0,-0.23609 0.23609,-0.41316 0.47218,-0.35414c1.12144,0.41316 4.30869,1.35753 7.85007,1.59362c3.18725,0.17707 5.07599,0 5.96133,-0.17707c0.29512,-0.05902 0.53121,0.23609 0.41316,0.53121c-0.53121,1.59362 -2.77409,6.02035 -8.97151,5.66622c-5.3711,-0.59023 -5.90231,-4.36771 -5.72524,-7.25984z" fill="#000000" fill-rule="evenodd" stroke="#001026" stroke-width="1.2" stroke-linecap="round" stroke-linejoin="round"/><path d="M372.69946,169.56764c-2.77409,2.24288 -7.02375,2.3019 -7.02375,2.3019" fill="none" fill-rule="evenodd" stroke="#001026" stroke-width="1.2" stroke-linecap="round" stroke-linejoin="round"/><path d="M371.93215,176.17823c-3.71845,0.29512 -6.02035,-0.82632 -6.02035,-0.82632" fill="none" fill-rule="evenodd" stroke="#001026" stroke-width="1.2" stroke-linecap="round" stroke-linejoin="round"/><path d="M351.86431,170.27592c1.23948,0 2.53799,0.11805 2.59702,0.53121c0.05902,0.82632 -0.82632,2.47897 -1.77069,2.53799c-1.06242,0.11805 -3.54139,-1.35753 -3.54139,-2.3019c-0.05902,-0.70828 1.5346,-0.7673 2.71506,-0.7673z" fill="#001026" fill-rule="evenodd" stroke="#000000" stroke-width="1.2" stroke-linecap="round" stroke-linejoin="round"/><path d="M325.30392,169.39057c0,0 5.07599,1.65265 7.14179,3.48236" fill="none" fill-rule="evenodd" stroke="#001026" stroke-width="1.2" stroke-linecap="round" stroke-linejoin="round"/><path d="M332.62278,174.93874c-2.53799,1.00339 -6.9057,0.35414 -6.9057,0.35414" fill="none" fill-rule="evenodd" stroke="#001026" stroke-width="1.2" stroke-linecap="round" stroke-linejoin="round"/><g fill="#a00000" fill-rule="evenodd"><path d="M358.82903,163.37022c1.71167,2.65604 1.77069,5.66622 0.11805,6.72863c-1.65265,1.06242 -4.36771,-0.17707 -6.1384,-2.83311c-1.71167,-2.65604 -1.77069,-5.66622 -0.11805,-6.72863c1.65265,-1.12144 4.42673,0.17707 6.1384,2.83311z" stroke="#001026" stroke-width="1.2" stroke-linecap="round" stroke-linejoin="round"/><path d="M358.59294,166.73453c0,0.64925 -0.47218,1.18046 -1.06242,1.18046c-0.59023,0 -1.06242,-0.53121 -1.06242,-1.18046c0,-0.64925 0.47218,-1.18046 1.06242,-1.18046c0.59023,0 1.06242,0.53121 1.06242,1.18046" stroke="none" stroke-width="1" stroke-linecap="butt" stroke-linejoin="miter"/></g><g fill-rule="evenodd"><path d="M344.19131,165.02286c1.77069,2.59702 1.65265,5.78426 0.05902,6.9057c-1.94776,1.12144 -4.54478,0.29512 -6.31547,-2.3019c-1.82972,-2.59702 -1.94776,-5.96133 -0.11805,-7.25984c1.82972,-1.35753 4.6038,0.05902 6.37449,2.65604z" fill="#ffffff" stroke="#001026" stroke-width="1.2" stroke-linecap="round" stroke-linejoin="round"/><path d="M343.83717,168.4462c0,0.64925 -0.47218,1.18046 -1.06242,1.18046c-0.59023,0 -1.06242,-0.53121 -1.06242,-1.18046c0,-0.64925 0.47218,-1.18046 1.06242,-1.18046c0.59023,0.05902 1.06242,0.53121 1.06242,1.18046" fill="#001026" stroke="none" stroke-width="1" stroke-linecap="butt" stroke-linejoin="miter"/></g><path d="M344.56337,170.18303c-0.28597,-0.14299 -0.57195,-0.28598 -0.85793,-0.42897l0.47293,-1.39768c0,0 0.21039,0 0.40647,0.11235c0.03049,-0.43205 0.19894,-0.88012 0.04125,-1.27518c-0.0569,-0.14254 -0.17493,-0.24995 -0.29144,-0.35801c-0.00577,0.00577 -0.01155,0.01154 -0.01732,0.01732c-0.05421,0.2186 -0.21771,0.54829 -0.7109,0.54829c-0.73779,0 -0.73779,-0.73779 -0.73779,-0.73779l0.2161,-0.66468c0.19065,-0.19065 0.3813,-0.3813 0.57195,-0.57195c0,0 0.09005,-0.09006 0.23275,-0.15792c-0.02573,-0.02771 -0.05548,-0.05618 -0.08975,-0.0856c-0.86176,-0.73949 -1.74196,-1.70508 -2.04818,-2.89855c-0.44653,-1.74031 0.39338,-3.34087 -0.86602,-4.88364c0,0 -0.46089,-0.57611 0.11522,-1.03701c0.57612,-0.46089 1.03701,0.11522 1.03701,0.11522c1.01896,1.29423 0.64772,1.53284 0.85965,3.02035c0.04009,0.2814 0.38596,0.45431 0.43299,0.73464c0.09175,0.54701 -0.31593,1.12522 -0.15681,1.65655c0.42991,1.43552 1.8578,1.97023 2.28782,3.28874c0.53237,1.63235 1.17549,4.12528 0.88219,5.97734c0.00279,0.88532 0.00251,1.77061 0.00251,2.65593l-0.15732,0.85964c0,0 -0.14469,0.72346 -0.86815,0.57877c-0.72346,-0.1447 -0.57877,-0.86815 -0.57877,-0.86815l0.12866,-0.57025c0,-0.92589 -0.00002,-1.85175 0.00251,-2.77764c0.05618,-0.31882 0.06815,-0.56006 0.05275,-0.76968c-0.20208,-0.00229 -0.36237,-0.08244 -0.36237,-0.08244z" fill="#a00000" fill-rule="nonzero" stroke="none" stroke-width="0.5" stroke-linecap="butt" stroke-linejoin="miter"/><path d="M347.89438,175.68017c-0.72346,-0.1447 -0.57877,-0.86815 -0.57877,-0.86815l0.16652,-0.80356c0.08996,-0.26749 0.17991,-0.53498 0.26987,-0.80247c0.09577,-0.56675 0.64984,-1.61662 0.55365,-2.18165c-0.02324,-0.13651 -0.80115,-1.91584 -0.82278,-1.9806c-0.66852,-2.00174 -1.37029,-4.31391 -1.74116,-6.38751c-0.34312,-1.91844 0.12968,-4.45105 0.12968,-6.43101c0,0 0,-0.73779 0.73779,-0.73779c0.73779,0 0.73779,0.73779 0.73779,0.73779c0,1.85587 -0.48885,4.36667 -0.1563,6.15198c0.37447,2.01036 1.04149,4.24435 1.69057,6.19548c0.23411,0.70372 0.80158,1.5826 0.89308,2.30905c0.1055,0.8376 -0.45476,1.85492 -0.59025,2.67997c-0.10069,0.30446 -0.20139,0.60894 -0.30208,0.9134l-0.11946,0.62632c0,0 -0.14469,0.72346 -0.86815,0.57877z" fill="#a00000" fill-rule="nonzero" stroke="none" stroke-width="0.5" stroke-linecap="butt" stroke-linejoin="miter"/><path d="M360.71479,183.48576c-0.5217,0.52169 -1.04339,0 -1.04339,0l-0.70628,-0.75605c-0.57486,-2.9016 -1.2103,-6.10066 -1.22568,-9.0599c-0.00453,-0.87136 0.46711,-2.62608 -0.53714,-2.8897c0,0 -0.68502,-0.27401 -0.41101,-0.95902c0.27401,-0.68502 0.95903,-0.41101 0.95903,-0.41101c2.26753,1.05836 1.11529,3.02103 1.45518,4.99949c0.4323,2.5164 0.76055,5.11705 1.07166,7.64495l0.43763,0.38786c0,0 0.5217,0.52169 0,1.04339z" fill="#a00000" fill-rule="nonzero" stroke="none" stroke-width="0.5" stroke-linecap="butt" stroke-linejoin="miter"/><path d="M362.48092,182.84392c-0.73779,0 -0.73779,-0.73779 -0.73779,-0.73779l0.01004,-0.45066c-0.43653,-2.61918 -0.48488,-5.21758 -1.12892,-7.79514c-0.42528,-1.70205 -1.43,-3.21448 -1.73085,-4.93085c0,0 -0.12129,-0.72775 0.60646,-0.84904c0.72775,-0.12129 0.84904,0.60646 0.84904,0.60646c0.25536,1.64117 1.29128,3.15482 1.70088,4.79237c0.6567,2.62542 0.71484,5.26928 1.15889,7.93361l0.01004,0.69324c0,0 0,0.73779 -0.73779,0.73779z" fill="#a00000" fill-rule="nonzero" stroke="none" stroke-width="0.5" stroke-linecap="butt" stroke-linejoin="miter"/><path d="M339.61375,165.67339c-0.72589,-0.13198 -0.59391,-0.85787 -0.59391,-0.85787l0.02202,-0.1211c0.11833,-0.31463 0.37233,-0.6082 0.355,-0.9439c-0.02071,-0.40106 -0.806,-0.01219 -1.20231,-0.07711c0,0 -0.72775,-0.12129 -0.60646,-0.84904c0.12129,-0.72775 0.84904,-0.60646 0.84904,-0.60646c2.15885,0.36522 2.2606,0.42755 2.0565,2.74047l-0.02202,0.1211c0,0 -0.13198,0.72589 -0.85787,0.59391z" fill="#a00000" fill-rule="nonzero" stroke="none" stroke-width="0.5" stroke-linecap="butt" stroke-linejoin="miter"/><path d="M340.34053,168.09326c0,0.73779 -0.73779,0.73779 -0.73779,0.73779c-0.57195,0 -1.2869,0 -1.85885,0c0,0 -0.73779,0 -0.73779,-0.73779c0,-0.73779 0.73779,-0.73779 0.73779,-0.73779c0.57195,0 1.14391,0 1.71587,0h0.14299c0,0 0.73779,0 0.73779,0.73779z" fill="#a00000" fill-rule="nonzero" stroke="none" stroke-width="0.5" stroke-linecap="butt" stroke-linejoin="miter"/><path d="M342.41225,170.00236c0.3026,0.3026 0.25417,0.60519 0.16012,0.80599c0.0537,0.1611 0.1074,0.32221 0.1611,0.48332c0,0 0.23331,0.69993 -0.46662,0.93323c-0.69993,0.23331 -0.93324,-0.46662 -0.93324,-0.46662c-0.09533,-0.28597 -0.19065,-0.57195 -0.28598,-0.85793l0.32122,-0.89799c0,0 0.52169,-0.52169 1.04339,0z" fill="#a00000" fill-rule="nonzero" stroke="none" stroke-width="0.5" stroke-linecap="butt" stroke-linejoin="miter"/><path d="M324.86121,201.14189c-0.59023,-0.44267 -0.14756,-1.0329 -0.14756,-1.0329l0.89791,-0.85703c0.91575,-0.15008 1.80381,-0.1309 2.71678,-0.28598c0,0 0.72775,-0.12129 0.84904,0.60646c0.01391,0.08346 0.01666,0.15895 0.01061,0.22719c0.30052,0.17203 0.5556,0.39812 0.69235,0.71609c0.0987,0.2295 -0.40587,0.33778 -0.47855,0.5768c-0.04609,0.15158 0.23165,-0.24502 0.38704,-0.27587c0.30904,-0.06134 0.64618,-0.08798 0.94515,0.01146c0.2907,0.09669 0.52248,0.21216 0.70089,0.33578c0.16025,-0.06311 0.3035,-0.06312 0.3035,-0.06312l0.66469,0.2161c0.26084,0.3946 0.90508,0.72693 0.78252,1.1838c-0.42029,1.56668 -2.15885,1.18836 -2.84029,0.34347c-0.16114,-0.19979 0.23725,-0.46294 0.28598,-0.71494c0.06077,-0.3143 -0.63512,0.23129 -0.94704,0.15933c-0.55533,-0.12812 -1.23996,-0.13254 -1.61479,-0.56184c-0.20469,-0.23443 0.35119,-0.54315 0.37938,-0.85308c0.00947,-0.10415 -0.20451,0.0807 -0.30747,0.06238c-0.27037,-0.04809 -0.52196,-0.1709 -0.78295,-0.25634c0,0 -0.09972,-0.03324 -0.21133,-0.11226c-0.42911,0.03191 -0.85819,0.06624 -1.29292,0.14009l0.03997,0.28688c0,0 -0.44267,0.59023 -1.0329,0.14756z" fill="#a00000" fill-rule="nonzero" stroke="none" stroke-width="0.5" stroke-linecap="butt" stroke-linejoin="miter"/><path d="M326.06909,205.64899c-0.52169,-0.52169 0,-1.04339 0,-1.04339l0.31801,-0.28686c0.14299,-0.23831 0.28598,-0.47663 0.42897,-0.71495c0,0 0.37959,-0.63265 1.01224,-0.25306c0.63265,0.37959 0.25306,1.01224 0.25306,1.01224c-0.14299,0.23831 -0.28598,0.47663 -0.42897,0.71494l-0.53992,0.57107c0,0 -0.52169,0.52169 -1.04339,0z" fill="#a00000" fill-rule="nonzero" stroke="none" stroke-width="0.5" stroke-linecap="butt" stroke-linejoin="miter"/><path d="M327.47041,209.00079c-0.72775,-0.12129 -0.60646,-0.84904 -0.60646,-0.84904l0.14299,-0.85793c0,0 0.12129,-0.72775 0.84904,-0.60646c0.72775,0.12129 0.60646,0.84904 0.60646,0.84904l-0.14299,0.85793c0,0 -0.12129,0.72775 -0.84904,0.60646z" fill="#a00000" fill-rule="nonzero" stroke="none" stroke-width="0.5" stroke-linecap="butt" stroke-linejoin="miter"/><path d="M320.35433,206.74414c-0.32994,-0.6599 0.32995,-0.98985 0.32995,-0.98985l-0.01672,0.13732c0.14299,-0.23831 0.28598,-0.47663 0.42897,-0.71495c0,0 0.11526,-0.1921 0.32461,-0.30108c-0.00052,-0.01136 -0.00079,-0.02279 -0.00079,-0.03428c0,-0.40747 0.33032,-0.73779 0.73779,-0.73779c0.40747,0 0.73779,0.33032 0.73779,0.73779c0,0.29417 -0.17215,0.54812 -0.42121,0.66661c0.0023,0.23592 -0.1129,0.42792 -0.1129,0.42792c-0.14299,0.23831 -0.28598,0.47663 -0.42897,0.71495l-0.58868,0.4233c0,0 -0.6599,0.32995 -0.98985,-0.32995z" fill="#a00000" fill-rule="nonzero" stroke="none" stroke-width="0.5" stroke-linecap="butt" stroke-linejoin="miter"/><path d="M331.11616,201.50232c-0.05095,0.05095 -0.10191,0.09195 -0.15237,0.12446c0.28236,0.4605 -0.1336,0.87646 -0.1336,0.87646c-0.43603,0.4307 -0.92967,0.8079 -1.45356,1.12597l-0.02897,0.00538l0.00389,0.00777l-0.84466,0.42233c-0.10253,0.05398 -0.21931,0.08453 -0.34322,0.08453c-0.40747,0 -0.73779,-0.33032 -0.73779,-0.73779c0,-0.10902 0.02364,-0.2125 0.06608,-0.30562l0.19891,-0.46412c-0.24189,-0.12109 -0.40797,-0.37122 -0.40797,-0.66014c0,-0.20374 0.08258,-0.38818 0.21609,-0.5217v0l0.57196,-0.57195c0.08002,-0.08002 0.17834,-0.14175 0.28814,-0.17836c0.10834,-0.3154 0.47272,-0.57777 0.85576,-0.96555l0.1938,-0.31652c0,0 0.40925,-0.61388 1.02313,-0.20463c0.45709,0.30472 0.34694,0.7229 0.26085,0.91663c0.01095,0.00439 0.02192,0.00876 0.03287,0.01315l0.39068,0.30631c0,0 0.52169,0.52169 0,1.04339zM329.83044,201.42151c0.00931,-0.00756 0.02003,-0.01594 0.03203,-0.02484c-0.0049,-0.00196 -0.00979,-0.00391 -0.01469,-0.00587c-0.00577,0.01025 -0.01156,0.02049 -0.01734,0.03072z" fill="#ffffff" fill-rule="nonzero" stroke="none" stroke-width="0.5" stroke-linecap="butt" stroke-linejoin="miter"/><path d="M345.19757,175.22898c0.01952,0.02604 0.03705,0.05179 0.0527,0.07723l0.08399,-0.0336l0.10007,0.25017c0.2633,0.01376 0.52714,0.02099 0.78988,0.0287l-0.30402,0.71806l0.20978,0.20978l-0.52336,0.52336c-0.13604,0.2346 -0.2165,0.51503 -0.41772,0.69588c-2.10935,1.8958 -1.82202,-0.47628 -2.64406,-1.79032c0,0 -0.37959,-0.63264 0.25306,-1.01223c0.63265,-0.37959 1.01223,0.25306 1.01223,0.25306c0.0778,0.13368 0.17476,0.32057 0.26938,0.52626l0.08519,-0.59391c0,0 0.59023,-0.44267 1.0329,0.14756z" fill="#8da900" fill-rule="nonzero" stroke="none" stroke-width="0.5" stroke-linecap="butt" stroke-linejoin="miter"/><path d="M354.70927,176.57984l-0.23571,0.06988c0.25222,0.00058 0.50425,0.0097 0.75606,0.02469l-0.00247,-0.01728l0.98836,-0.1412c0.03808,-0.00606 0.07712,-0.00921 0.1169,-0.00921c0.40747,0 0.73779,0.33032 0.73779,0.73779c0,0.14318 -0.04078,0.27684 -0.11138,0.38999l-0.42273,0.70455l-0.02493,-0.01496l-0.02619,0.08941c-0.36892,0.37348 -1.36271,1.4788 -1.87378,1.41259c-0.42229,-0.05471 -0.48209,-0.70346 -0.75357,-1.03152c-0.1726,-0.20857 -0.36925,-0.39492 -0.56912,-0.57838c-0.49876,0.81596 -1.40467,2.16086 -2.5373,1.7083c-0.81248,-0.32464 -0.60689,-1.437 -1.10059,-2.04867c-0.12908,0.1746 -0.30016,0.30177 -0.49704,0.3887c-0.11903,0.23656 -0.35558,0.35484 -0.35558,0.35484l-0.09423,0.00479c-0.18372,0.17162 -0.38944,0.32356 -0.60948,0.45372c-0.09761,0.17224 -0.28133,0.33433 -0.62716,0.33433c-0.03116,0 -0.061,-0.00132 -0.08958,-0.00384c-0.14694,0.0506 -0.29625,0.09234 -0.4462,0.12475c-0.12692,0.1032 -0.28881,0.16506 -0.46514,0.16506c-0.40747,0 -0.73779,-0.33032 -0.73779,-0.73779c0,-0.34053 0.23071,-0.62719 0.54435,-0.71217c0.00359,-0.0027 0.0072,-0.00535 0.01081,-0.00797c-0.11488,-0.09682 -0.29856,-0.29728 -0.28458,-0.58087c-0.08053,-0.11821 -0.12759,-0.26104 -0.12759,-0.41486c0,-0.18417 0.06748,-0.35257 0.17906,-0.48185c-0.12,-0.29455 -0.22614,-0.56617 -0.26928,-0.67403c0,0 -0.27401,-0.68502 0.41101,-0.95902c0.68502,-0.27401 0.95903,0.41101 0.95903,0.41101c0.02725,0.06812 0.04887,0.13933 0.0675,0.21211c0.19163,-0.10394 0.39138,-0.10394 0.39138,-0.10394l0.52258,0.10514c0.18981,0.11468 0.82112,0.48683 1.2764,0.79077c0.30161,-0.28898 0.63262,-0.19352 0.81329,-0.10308c0.38101,-0.43498 0.91308,-0.11574 0.91308,-0.11574l0.5822,0.36634c0.1687,0.04481 0.34155,0.05169 0.51549,0.03345l0.28884,-0.28884v0c0.13351,-0.13351 0.31796,-0.2161 0.52169,-0.2161c0.26615,0 0.49937,0.14092 0.62914,0.35221c0.51937,-0.51022 1.03646,0.00686 1.03646,0.00686zM351.54906,178.20999c0.01274,-0.02028 0.02578,-0.041 0.03904,-0.06207c-0.0148,-0.00343 -0.02958,-0.00681 -0.04436,-0.01012c0.00264,0.02464 0.00444,0.04876 0.00532,0.07219z" fill="#8da900" fill-rule="nonzero" stroke="none" stroke-width="0.5" stroke-linecap="butt" stroke-linejoin="miter"/><path d="M351.33317,180.42463l0.78376,0.26125c0.30148,0.09271 0.52062,0.37342 0.52062,0.70531c0,0.37032 -0.27283,0.67692 -0.62846,0.72974l-0.84597,0.14099l-0.04951,-0.2971c-0.58839,0.11728 -1.19581,0.16228 -1.78764,0.16415l-0.12928,0.28141c0,0 -0.57718,0.43289 -1.01809,-0.12826c-0.2498,0.03571 -0.52403,0.04789 -0.73318,0.12279l-0.66648,-0.14529c-0.17155,0.05046 -0.38847,0.04731 -0.61029,-0.13074c-0.29905,-0.0046 -0.55493,-0.18712 -0.66647,-0.44637c-0.02977,0.01718 -0.05859,0.03563 -0.08627,0.05535c0,0 -0.63265,0.37958 -1.01224,-0.25306c-0.37959,-0.63265 0.25306,-1.01224 0.25306,-1.01224c0.61722,-0.33615 1.37639,-0.46854 2.07375,-0.38108l0.21483,0.32648c0.63162,-0.33841 1.3942,-0.57518 1.79457,-0.27808c0.89602,-0.5213 1.23341,-0.54022 2.5933,0.28475z" fill="#8da900" fill-rule="nonzero" stroke="none" stroke-width="0.5" stroke-linecap="butt" stroke-linejoin="miter"/><path d="M343.31628,178.42036c-0.30169,-0.37712 -0.15904,-0.70487 -0.02451,-0.88628c-0.17326,-0.13641 -0.43589,-0.43824 -0.20227,-0.90548c0.32994,-0.6599 0.98985,-0.32994 0.98985,-0.32994c0.42055,0.33705 0.84111,0.67409 1.26167,1.01114l-0.98773,1.2258c0,0 -0.57612,0.46089 -1.03701,-0.11522z" fill="#a00000" fill-rule="nonzero" stroke="none" stroke-width="0.5" stroke-linecap="butt" stroke-linejoin="miter"/><path d="M345.01346,178.96039c0,-0.31339 0.13312,-0.49367 0.28627,-0.59737c0.01674,-0.71238 0.73749,-0.71238 0.73749,-0.71238c0.33248,0.00444 0.66497,0.00888 0.99745,0.01332l0.11491,0.08841l0.01958,-0.04895l0.69899,0.27959c0.28021,0.10462 0.47973,0.37471 0.47973,0.6914c0,0.31669 -0.19953,0.58678 -0.47973,0.6914l-0.69899,0.27959l-0.07752,-0.19381c-0.33898,0.1471 -0.69285,0.24175 -1.05442,0.24657h-0.28598c0,0 -0.73779,0 -0.73779,-0.73779z" fill="#a00000" fill-rule="nonzero" stroke="none" stroke-width="0.5" stroke-linecap="butt" stroke-linejoin="miter"/><path d="M348.48305,180.76657c-0.18552,-0.55655 0.21902,-0.81807 0.39254,-0.90186c-0.00095,-0.01534 -0.00143,-0.03081 -0.00143,-0.04639c0,-0.16674 0.05531,-0.32056 0.14858,-0.44411c0.03459,-0.11866 0.0857,-0.21039 0.14606,-0.2811c-0.00565,-0.04135 -0.00867,-0.08552 -0.00867,-0.13272c0,-0.73779 0.73779,-0.73779 0.73779,-0.73779c0.73573,0.00153 1.47512,0.04806 2.20064,0.17028l0.0648,0.05149l0.01041,-0.02601l0.69899,0.27959c0.28021,0.10462 0.47973,0.37471 0.47973,0.6914c0,0.15203 -0.04598,0.29332 -0.12479,0.41071c0.15593,0.04269 0.42455,0.15796 0.51737,0.45571c0.04192,0.11214 0.0563,0.25095 0.02206,0.42218c-0.1447,0.72346 -0.86816,0.57877 -0.86816,0.57877l-0.30164,-0.0604c-0.02225,-0.0035 -0.04443,-0.00709 -0.06655,-0.01077c-0.10296,0.05458 -0.2204,0.08549 -0.34505,0.08549h-1.14391c0,0 -0.39272,-0.00001 -0.60512,-0.28652c-0.21007,0.03459 -0.43195,0.05265 -0.62209,0.11515l-0.39834,0.13351c0,0 -0.69993,0.23331 -0.93324,-0.46662z" fill="#a00000" fill-rule="nonzero" stroke="none" stroke-width="0.5" stroke-linecap="butt" stroke-linejoin="miter"/><path d="M354.16473,179.24636c0,-0.40747 0.33032,-0.73779 0.73779,-0.73779c0.40747,0 0.73779,0.33032 0.73779,0.73779c0,0.40747 -0.33032,0.73779 -0.73779,0.73779c-0.40747,0 -0.73779,-0.33032 -0.73779,-0.73779z" fill="#a00000" fill-rule="nonzero" stroke="none" stroke-width="0.5" stroke-linecap="butt" stroke-linejoin="miter"/><path d="M348.16034,179.10292c0,-0.73779 0.73779,-0.73779 0.73779,-0.73779l1.15182,0.73779c-0.00197,0.29707 0.02015,0.59552 0.06456,0.89019c0.07957,0.07407 0.14276,0.16552 0.18353,0.2683c0.06723,0.01045 0.13428,0.02145 0.20113,0.03302c0.12363,-0.00085 0.24892,-0.01994 0.37738,-0.06413c0.00548,-0.11036 0.06615,-0.72079 0.73725,-0.72079c0.27808,0 0.45134,0.10481 0.5593,0.23542c0.07895,-0.15909 0.16211,-0.31848 0.20548,-0.4751c0,0 0.32995,-0.6599 0.98985,-0.32995c0.46878,0.23439 0.43804,0.63529 0.38091,0.84784c0.00516,0.0076 0.01015,0.01517 0.01495,0.02272c0.21663,0.0638 0.50882,0.2359 0.50882,0.70021c0,0.50184 -0.34135,0.66233 -0.55967,0.71365c0.04367,0.09422 0.06804,0.19921 0.06804,0.30989c0,0.37032 -0.27283,0.67692 -0.62846,0.72974l-0.84597,0.14099c-2.65945,0.44325 -4.59494,0.70356 -7.21806,-0.17081c0,0 -0.45417,-0.15139 -0.50886,-0.57612l-0.65405,-0.10901c-0.35563,-0.05283 -0.62846,-0.35942 -0.62846,-0.72974c0,-0.40747 0.33032,-0.73779 0.73779,-0.73779h1.00093c0.77599,0 1.57672,-0.01772 2.37976,-0.01238c0.25368,-0.10151 0.50543,-0.22208 0.77135,-0.26064c0.12335,-0.01788 0.2422,-0.02208 0.35731,-0.01595c-0.00587,-0.01456 -0.01127,-0.02935 -0.01622,-0.04434c-0.18421,-0.09234 -0.36816,-0.27679 -0.36816,-0.6452zM350.96973,180.19399c0.08645,-0.03764 0.17445,-0.08711 0.26446,-0.15038z" fill="#000000" fill-rule="nonzero" stroke="none" stroke-width="0.5" stroke-linecap="butt" stroke-linejoin="miter"/><path d="M350.47145,179.59976l0.82806,0.16561" fill="none" fill-rule="nonzero" stroke="#001026" stroke-width="1.2" stroke-linecap="round" stroke-linejoin="miter"/><path d="M349.89181,179.26853l2.64981,0.74526" fill="none" fill-rule="nonzero" stroke="#a00000" stroke-width="1.2" stroke-linecap="round" stroke-linejoin="miter"/><path d="M349.56059,178.44047l0.99368,2.31859" fill="none" fill-rule="nonzero" stroke="#000000" stroke-width="1.2" stroke-linecap="round" stroke-linejoin="miter"/><path d="M353.28688,178.27486l-1.73894,2.73262" fill="none" fill-rule="nonzero" stroke="#000000" stroke-width="1.2" stroke-linecap="round" stroke-linejoin="miter"/><path d="M340.27425,185.72879c0.03752,0.33768 -0.09774,0.53714 -0.25461,0.65406c0.15417,0.18778 0.24961,0.42069 0.25727,0.70001c0.04238,1.54712 -2.58101,2.45334 -3.58848,1.47231c-1.00161,-0.97532 -0.16991,-2.20863 0.6618,-2.64671c0.07494,-0.22529 0.25555,-0.40231 0.48306,-0.47228l0.72912,-0.24305l0.02219,0.06656c0.01761,-0.02908 0.03524,-0.05817 0.05285,-0.08725l0.82206,-0.09547c0,0 0.73328,-0.08148 0.81475,0.6518z" fill="#a00000" fill-rule="nonzero" stroke="none" stroke-width="0.5" stroke-linecap="butt" stroke-linejoin="miter"/><path d="M337.47828,186.72114c0,-0.40747 0.33032,-0.73779 0.73779,-0.73779c0.40747,0 0.73779,0.33032 0.73779,0.73779c0,0.40747 -0.33032,0.73779 -0.73779,0.73779c-0.40747,0 -0.73779,-0.33032 -0.73779,-0.73779z" fill="#ffffff" fill-rule="nonzero" stroke="none" stroke-width="0.5" stroke-linecap="butt" stroke-linejoin="miter"/><path d="M352.95565,179.18572l-0.57965,1.32491l-2.31859,-0.57965" fill="none" fill-rule="nonzero" stroke="#000000" stroke-width="1.2" stroke-linecap="round" stroke-linejoin="miter"/><path d="M340.12809,192.5176c0,-0.01538 0.00047,-0.03063 0.0014,-0.04577c-0.20037,-0.13191 -0.33262,-0.35885 -0.33262,-0.61668c0,-0.40747 0.33032,-0.73779 0.73779,-0.73779c0.30572,0 0.568,0.18594 0.67993,0.4509c0.07265,-0.02392 0.15028,-0.03687 0.23094,-0.03687c0.34317,0 0.63162,0.2343 0.71411,0.55165c0.08622,-0.03533 0.18062,-0.05481 0.27957,-0.05481c0.33365,0 0.61558,0.22148 0.70677,0.52544c0.06482,-0.01862 0.1333,-0.0286 0.2041,-0.0286c0.38405,0 0.69955,0.29343 0.73456,0.66832c0.03062,-0.00387 0.06183,-0.00587 0.09351,-0.00587c0.40747,0 0.73779,0.33032 0.73779,0.73779c0,0.38405 -0.29343,0.69955 -0.66832,0.73456c0.00387,0.03062 0.00587,0.06183 0.00587,0.0935c0,0.40747 -0.33032,0.73779 -0.73779,0.73779c-0.36148,0 -0.66224,-0.25996 -0.72553,-0.60312c-0.05922,0.01532 -0.12133,0.02347 -0.18534,0.02347c-0.32984,0 -0.60914,-0.21646 -0.70358,-0.51508c-0.10942,0.06422 -0.23687,0.10104 -0.37291,0.10104c-0.40747,0 -0.73779,-0.33032 -0.73779,-0.73779c0,-0.20126 0.08058,-0.3837 0.21125,-0.51681c-0.04405,0.0082 -0.08948,0.01249 -0.13591,0.01249c-0.40747,0 -0.73779,-0.33032 -0.73779,-0.73779zM341.52833,193.02191c0.08175,0 0.16038,0.0133 0.23387,0.03784c-0.01502,-0.03457 -0.02747,-0.07051 -0.03711,-0.10759c-0.08622,0.03533 -0.18062,0.05481 -0.27957,0.05481c-0.00906,0 -0.01809,-0.00016 -0.02707,-0.00048c-0.00844,0.00953 -0.01712,0.01884 -0.02604,0.02792c0.04405,-0.0082 0.08948,-0.01249 0.13591,-0.01249zM342.31779,193.49386c-0.03858,-0.00639 -0.07613,-0.01577 -0.11244,-0.02789c0.01003,0.02308 0.01891,0.04678 0.02658,0.07102c0.02753,-0.01616 0.0562,-0.03059 0.08587,-0.04312zM343.44623,194.01882c-0.00101,-0.00797 -0.00189,-0.01599 -0.00264,-0.02404c-0.03062,0.00387 -0.06183,0.00587 -0.0935,0.00587c-0.00938,0 -0.01872,-0.00018 -0.02801,-0.00053c0.0031,0.01285 0.00586,0.02583 0.00828,0.03894c0.03755,-0.00972 0.07626,-0.01654 0.11588,-0.02024z" fill="#e93e3e" fill-rule="nonzero" stroke="none" stroke-width="0.5" stroke-linecap="butt" stroke-linejoin="miter"/><path d="M329.77726,192.35199c0,-0.40747 0.33032,-0.73779 0.73779,-0.73779c0.1661,0 0.31937,0.05489 0.44268,0.14751c0.09233,-0.04157 0.19475,-0.0647 0.30258,-0.0647c0.21426,0 0.4072,0.09134 0.54199,0.2372c0.12482,-0.09678 0.28153,-0.15439 0.4517,-0.15439c0.27607,0 0.51672,0.15163 0.64322,0.37614c0.13304,-0.13024 0.31518,-0.21053 0.51607,-0.21053c0.25486,0 0.47954,0.12922 0.61208,0.32572c0.135,-0.14919 0.33016,-0.24291 0.54721,-0.24291c0.17518,0 0.3361,0.06105 0.46264,0.16304c0.1006,-0.28781 0.37452,-0.49427 0.69666,-0.49427c0.32083,0 0.59382,0.20477 0.69542,0.49075c0.13498,-0.14885 0.32992,-0.24233 0.54668,-0.24233c0.21426,0 0.40719,0.09134 0.54198,0.2372c0.12482,-0.09678 0.28153,-0.15439 0.4517,-0.15439c0.08716,0 0.1708,0.01511 0.24842,0.04286c0.07763,-0.02775 0.16126,-0.04286 0.24842,-0.04286c0.14131,0 0.27333,0.03972 0.38552,0.10861c0.06186,-0.01682 0.12694,-0.0258 0.19413,-0.0258c0.15096,0 0.29132,0.04534 0.40823,0.12313c0.13487,-0.17558 0.34694,-0.28875 0.58545,-0.28875c0.40747,0 0.73779,0.33032 0.73779,0.73779c0,0.40747 -0.33032,0.73779 -0.73779,0.73779c-0.15096,0 -0.29133,-0.04534 -0.40823,-0.12313c-0.13487,0.17558 -0.34694,0.28875 -0.58545,0.28875c-0.14131,0 -0.27333,-0.03973 -0.38552,-0.10861c-0.06186,0.01682 -0.12694,0.0258 -0.19413,0.0258c-0.08716,0 -0.1708,-0.01512 -0.24842,-0.04287c-0.07763,0.02775 -0.16126,0.04287 -0.24842,0.04287c-0.21426,0 -0.40719,-0.09134 -0.54199,-0.2372c-0.12482,0.09678 -0.28153,0.15439 -0.4517,0.15439c-0.32083,0 -0.59383,-0.20477 -0.69542,-0.49075c-0.13498,0.14885 -0.32992,0.24233 -0.54668,0.24233c-0.17518,0 -0.3361,-0.06105 -0.46264,-0.16304c-0.1006,0.28781 -0.37451,0.49427 -0.69666,0.49427c-0.25486,0 -0.47953,-0.12922 -0.61208,-0.32572c-0.135,0.14919 -0.33016,0.24291 -0.54721,0.24291c-0.27607,0 -0.51672,-0.15162 -0.64322,-0.37614c-0.13304,0.13024 -0.31518,0.21052 -0.51607,0.21052c-0.21426,0 -0.40719,-0.09133 -0.54199,-0.2372c-0.12482,0.09678 -0.28153,0.15439 -0.4517,0.15439c-0.1661,0 -0.31937,-0.05489 -0.44268,-0.14751c-0.09233,0.04157 -0.19475,0.0647 -0.30258,0.0647c-0.40747,0 -0.73779,-0.33032 -0.73779,-0.73779z" fill="#e93e3e" fill-rule="nonzero" stroke="none" stroke-width="0.5" stroke-linecap="butt" stroke-linejoin="miter"/><path d="M344.18562,192.84883c0,-0.03167 0.00199,-0.06288 0.00587,-0.09351c-0.3749,-0.03501 -0.66832,-0.35051 -0.66832,-0.73456c0,-0.01967 0.00077,-0.03916 0.00228,-0.05844c-0.11992,0.08429 -0.26607,0.13378 -0.42379,0.13378c-0.30446,0 -0.56585,-0.18441 -0.67855,-0.44764c-0.11481,0.07368 -0.25139,0.11641 -0.39794,0.11641c-0.31632,0 -0.58615,-0.19907 -0.69104,-0.47877c-0.09235,0.04159 -0.19479,0.06473 -0.30264,0.06473c-0.40747,0 -0.73779,-0.33032 -0.73779,-0.73779c0,-0.40747 0.33032,-0.73779 0.73779,-0.73779c0.31632,0 0.58615,0.19907 0.69104,0.47877c0.09235,-0.04159 0.19479,-0.06473 0.30264,-0.06473c0.30446,0 0.56584,0.18441 0.67854,0.44764c0.11481,-0.07368 0.25139,-0.11641 0.39795,-0.11641c0.40747,0 0.73779,0.33032 0.73779,0.73779c0,0.01967 -0.00077,0.03916 -0.00228,0.05844c0.11992,-0.08429 0.26607,-0.13378 0.42379,-0.13378c0.40747,0 0.73779,0.33032 0.73779,0.73779c0,0.03167 -0.00199,0.06288 -0.00587,0.0935c0.3749,0.03501 0.66832,0.35052 0.66832,0.73457c0,0.40747 -0.33032,0.73779 -0.73779,0.73779c-0.40747,0 -0.73779,-0.33032 -0.73779,-0.73779z" fill="#e93e3e" fill-rule="nonzero" stroke="none" stroke-width="0.5" stroke-linecap="butt" stroke-linejoin="miter"/><path d="M326.97242,192.35199c0,-0.08149 0.06606,-0.14756 0.14756,-0.14756c0.08149,0 0.14756,0.06606 0.14756,0.14756c0,0.08149 -0.06606,0.14756 -0.14756,0.14756c-0.08149,0 -0.14756,-0.06606 -0.14756,-0.14756z" fill="#a00000" fill-rule="nonzero" stroke="none" stroke-width="0.5" stroke-linecap="butt" stroke-linejoin="miter"/><path d="M327.98801,189.61841c-0.08185,0.12277 -0.20463,0.04093 -0.20463,0.04093c-0.1637,-0.10913 -0.33314,-0.22209 -0.49684,-0.33123c0,0 -0.12277,-0.08185 -0.04093,-0.20463c0.08185,-0.12277 0.20463,-0.04093 0.20463,-0.04093c0.1637,0.10913 0.3274,0.21827 0.4911,0.3274l0.00574,0.00382c0,0 0.12277,0.08185 0.04093,0.20463z" fill="#a00000" fill-rule="nonzero" stroke="none" stroke-width="0.5" stroke-linecap="butt" stroke-linejoin="miter"/><path d="M326.18046,190.36463c0,-0.24448 0.19819,-0.44267 0.44267,-0.44267c0.24448,0 0.44267,0.19819 0.44267,0.44267c0,0.13389 -0.05944,0.25389 -0.15337,0.33507c0.17549,0.03896 0.33967,0.09121 0.50186,0.14114c0.02269,-0.02438 0.04672,-0.04789 0.07195,-0.0698c-0.01039,-0.01939 -0.01699,-0.04399 -0.01699,-0.07518c0,-0.14756 0.14756,-0.14756 0.14756,-0.14756c0.13801,0 0.27602,0 0.41404,0l0.18714,0.12603c0,0 0.10434,0.10434 0,0.20868c-0.10434,0.10434 -0.20868,0 -0.20868,0l0.02153,-0.03959c-0.03762,0 -0.07524,0 -0.11286,0c-0.03517,0.08281 -0.13556,0.08281 -0.13556,0.08281c-0.01795,-0.00326 -0.0352,-0.00122 -0.05166,0.00477c0.17442,0.04298 0.35348,0.07177 0.5485,0.06745c0,0 0.15381,0 0.28011,0.09067c-0.00875,-0.01886 -0.01363,-0.03987 -0.01363,-0.06203c0,-0.08149 0.06606,-0.14756 0.14756,-0.14756c0.00587,0 0.01166,0.00034 0.01736,0.00101c0.08018,-0.08061 0.19119,-0.13051 0.31387,-0.13051c0.24448,0 0.44267,0.19819 0.44267,0.44267c0,0.14538 -0.07008,0.27439 -0.1783,0.35509c0.02192,0.06969 0.02569,0.15475 -0.00279,0.2578c0.0325,-0.01941 0.07771,-0.02857 0.13563,0.00039c0.03727,0.01863 0.05875,0.04253 0.07039,0.06723c0.03809,0 0.0755,0 0.11204,0c0,0 0.14756,0 0.14756,0.14756c0,0.14756 -0.14756,0.14756 -0.14756,0.14756c-0.06621,0 -0.13242,0 -0.19863,0c-0.00021,0.00041 -0.00041,0.00083 -0.00062,0.00124l-0.06723,0.02553v0.07409c0,0 0,0.05764 -0.03602,0.10086c0.05208,0 0.10188,0 0.13688,0c0,0 0.14756,0 0.14756,0.14756c0,0.14756 -0.14756,0.14756 -0.14756,0.14756c-0.08281,0 -0.16561,0 -0.24842,0h-0.08281c0,0 -0.14756,0 -0.14756,-0.14756c0,-0.10788 0.07887,-0.13689 0.12129,-0.14469c-0.03848,-0.0435 -0.03848,-0.10373 -0.03848,-0.10373v-0.10086c-0.07296,0 -0.14593,0 -0.21889,0c-0.00957,0.02474 -0.02019,0.04953 -0.03188,0.07433c0.0341,0.02954 0.07714,0.08798 0.03347,0.17533c-0.06599,0.13198 -0.19797,0.06599 -0.19797,0.06599c-0.0701,-0.03505 -0.1402,-0.0701 -0.2103,-0.10515c-0.05252,0.04158 -0.10493,0.0833 -0.15625,0.12725c0.0003,0.00381 0.00044,0.00766 0.00044,0.01153c0,0.05827 -0.03377,0.10864 -0.08281,0.13263c-0.00338,0.00165 -0.00683,0.00318 -0.01035,0.00458c-0.02166,0.05457 -0.07492,0.09316 -0.13721,0.09316c-0.08149,0 -0.14756,-0.06606 -0.14756,-0.14756c0,-0.01255 0.00156,-0.02473 0.00452,-0.03636c-0.01226,-0.03318 -0.00822,-0.06423 0.00092,-0.08943c-0.00152,-0.00543 -0.00273,-0.01098 -0.00362,-0.01664c-0.02656,0.02573 -0.06277,0.04158 -0.10267,0.04158c-0.08149,0 -0.14756,-0.06606 -0.14756,-0.14756c0,-0.0108 0.00116,-0.02132 0.00336,-0.03145c-0.02644,-0.01332 -0.04295,-0.02982 -0.04295,-0.02982l-0.12603,-0.18714c0.00011,-0.00842 0.00016,-0.01665 0.00013,-0.02471c-0.09942,-0.01188 -0.19929,-0.02202 -0.29429,-0.03248c-0.07224,0.02302 -0.14722,0.03643 -0.22073,0.03914h-0.08281c0,0 -0.14756,0 -0.14756,-0.14756c0,-0.01405 0.00134,-0.02676 0.00375,-0.03825c-0.00552,-0.02035 -0.00666,-0.04462 -0.00089,-0.07349c0.01773,-0.08864 0.0789,-0.11212 0.12363,-0.11701c-0.03083,-0.04045 -0.05484,-0.08636 -0.07035,-0.13603c-0.04795,-0.0097 -0.09687,-0.01865 -0.14697,-0.02663l-0.09284,0.00602c0,0 -0.44267,0 -0.44267,-0.44267c0,-0.23952 0.1296,-0.34944 0.24855,-0.39989c-0.10105,-0.08113 -0.16574,-0.2057 -0.16574,-0.34537zM328.03085,192.28724c0.01051,0 0.02077,0.0011 0.03066,0.00319c0.02235,-0.01888 0.04488,-0.03738 0.0675,-0.05565c-0.04976,-0.02635 -0.10799,-0.04848 -0.17212,-0.06736l-0.04104,0.0821c-0.00326,0.00686 -0.00702,0.01344 -0.01126,0.01968c0.01192,0.01755 0.02015,0.03779 0.0236,0.05963c0.02656,-0.02573 0.06277,-0.04158 0.10267,-0.04158z" fill="#a00000" fill-rule="nonzero" stroke="none" stroke-width="0.5" stroke-linecap="butt" stroke-linejoin="miter"/><path d="M325.62946,189.3423c0.44267,0 0.44267,0.44267 0.44267,0.44267l-0.00445,0.14541c-0.02669,0.18685 -0.05339,0.3737 -0.08008,0.56055c0.00114,0.01295 0.00172,0.02606 0.00172,0.0393c0,0.24448 -0.19819,0.44267 -0.44267,0.44267c-0.24448,0 -0.44267,-0.19819 -0.44267,-0.44267c0,-0.01672 0.00093,-0.03322 0.00273,-0.04946c-0.00389,-0.0567 0.00172,-0.09595 0.00172,-0.09595c0.02761,-0.19322 0.0552,-0.38643 0.08281,-0.57965l-0.00445,-0.0202c0,0 0,-0.44267 0.44267,-0.44267z" fill="#a00000" fill-rule="nonzero" stroke="none" stroke-width="0.5" stroke-linecap="butt" stroke-linejoin="miter"/><path d="M317.577,192.29337l-0.06547,0.09572c0,0 -0.10269,0.06846 -0.23577,0.07886c0.04306,0.01459 0.08646,0.02916 0.13021,0.04373c0,0 0.41996,0.13999 0.27997,0.55994c-0.13999,0.41996 -0.55994,0.27997 -0.55994,0.27997c-2.02203,-0.67481 -3.24698,-1.54247 -4.86613,-2.89761c-0.41719,-0.34917 -1.51781,-0.61837 -1.82263,-0.99443c-1.27394,-1.57164 1.25704,-1.57886 2.10756,-1.24487c1.23737,0.50421 2.57115,0.25007 3.80911,0.74526c0.13538,0.05415 1.02412,0.49508 1.13163,0.42739c0.22062,-0.13892 0.25046,-0.88782 0.24866,-1.09286c-0.01139,-1.2971 0,-2.59477 0,-3.89191c0,-0.37629 -0.19877,-2.43111 0.22457,-2.621c1.06619,-0.47823 1.27083,1.25643 1.52555,1.76183c0.99254,1.96936 1.59306,4.10569 2.41584,6.16l0.0145,0.04312c0.07101,0.07574 0.12678,0.18781 0.09816,0.34608c0.00983,0.13497 -0.02251,0.35078 -0.30088,0.44357c-0.25267,0.08422 -0.40399,-0.03425 -0.48445,-0.14199c-1.21042,-0.22245 -2.58323,1.68594 -3.65045,1.8992z" fill="#ffffff" fill-rule="nonzero" stroke="none" stroke-width="0.5" stroke-linecap="butt" stroke-linejoin="miter"/><path d="M310.50406,187.85929l0.55233,-0.41355c0.09323,0.03976 0.18428,0.08557 0.27279,0.13674c0.09641,0.00099 0.191,0.01477 0.28032,0.04359l-0.06219,0.09683c0.26316,0.18727 0.49849,0.42181 0.6951,0.6831c0.16119,-0.04335 0.328,-0.06122 0.48954,-0.04521l0.74993,0.65264c-0.0803,0.03367 -0.16219,0.06555 -0.24535,0.09528l0.41424,0.24455c-0.09938,0.06005 -0.19877,0.1201 -0.29816,0.18016l0.37996,0.21692c-0.31705,0.21424 -0.57546,0.57012 -0.95116,0.64272c-0.3323,0.06421 -0.55921,-0.1071 -0.74378,-0.37617c-0.11874,0.04214 -0.23748,0.08428 -0.35622,0.12643l-0.90164,-0.48934c0.10212,-0.07251 0.19407,-0.13745 0.27799,-0.1953c-0.06664,-0.0235 -0.12429,-0.05288 -0.1717,-0.08831l-0.57216,-0.21898c-0.02836,-0.00025 -0.05718,-0.00032 -0.08649,-0.00024c0,0 -0.44267,0 -0.44267,-0.44267c0,-0.44267 0.44267,-0.44267 0.44267,-0.44267c0.15487,0.00038 0.3006,0.00493 0.44119,0.01449c-0.03396,-0.05949 -0.05579,-0.13597 -0.05579,-0.23427c0,-0.00716 0.00012,-0.0142 0.00034,-0.02113l-0.13732,-0.14448c0.00927,-0.00714 0.01869,-0.01418 0.02822,-0.02114z" fill="#a00000" fill-rule="nonzero" stroke="none" stroke-width="0.5" stroke-linecap="butt" stroke-linejoin="miter"/><path d="M317.56857,184.15413c0,-0.34909 0.27528,-0.42289 0.39168,-0.43849c-0.16509,-0.23812 -0.37177,-0.4654 -0.37845,-0.7448c-0.12478,-0.08963 -0.16474,-0.2705 -0.09189,-0.54055c-0.05463,-0.07363 -0.08695,-0.1648 -0.08695,-0.26353c0,-0.22219 0.1637,-0.40615 0.37707,-0.43785l0.04542,-0.00757c0.01575,-0.02523 0.03205,-0.05081 0.04889,-0.07675l0.04322,0.0614l0.3439,-0.05732c0.02626,-0.00486 0.05333,-0.0074 0.081,-0.0074c0.24448,0 0.44267,0.19819 0.44267,0.44267c0,0.01105 -0.00041,0.022 -0.0012,0.03285c0.14808,0.023 0.17298,0.14792 0.13659,0.30289c0.01951,0.04992 0.03023,0.10426 0.03023,0.1611c0,0.13368 -0.05926,0.25353 -0.15294,0.3347l0.19632,0.07853c0.16812,0.06278 0.28784,0.22482 0.28784,0.41484c0,0.07384 -0.01808,0.14345 -0.05005,0.20466c0.1191,0.0816 0.24648,0.179 0.38127,0.29219l-0.12524,0.06423l0.25143,0.10058c0.16812,0.06278 0.28784,0.22482 0.28784,0.41484c0,0.24448 -0.19819,0.44267 -0.44267,0.44267c-0.04784,0 -0.0939,-0.00759 -0.13706,-0.02163l-0.76192,-0.22858c-0.07306,0.0532 -0.16302,0.08459 -0.26032,0.08459c-0.14067,0 -0.26602,-0.06562 -0.3471,-0.16791l-0.06693,0.0023c0,0 -0.44267,0 -0.44267,-0.44267z" fill="#a00000" fill-rule="nonzero" stroke="none" stroke-width="0.5" stroke-linecap="butt" stroke-linejoin="miter"/><path d="M309.2879,193.42847c0,-0.24448 0.19819,-0.44267 0.44267,-0.44267c0.24448,0 0.44267,0.19819 0.44267,0.44267c0,0.24448 -0.19819,0.44267 -0.44267,0.44267c-0.24448,0 -0.44267,-0.19819 -0.44267,-0.44267z" fill="#a00000" fill-rule="nonzero" stroke="none" stroke-width="0.5" stroke-linecap="butt" stroke-linejoin="miter"/><path d="M307.79367,197.71632c-0.39594,-0.19797 -0.19797,-0.59391 -0.19797,-0.59391l0.19268,-0.37799c0.25787,-0.38518 0.44935,-0.81372 0.62031,-1.24458c0,0 0.1644,-0.41101 0.57542,-0.2466c0.41101,0.1644 0.2466,0.57542 0.2466,0.57542c-0.19583,0.48603 -0.41647,0.96756 -0.70459,1.40523l-0.13854,0.28446c0,0 -0.19797,0.39594 -0.59391,0.19797z" fill="#a00000" fill-rule="nonzero" stroke="none" stroke-width="0.5" stroke-linecap="butt" stroke-linejoin="miter"/><path d="M307.38335,198.31407c0,-0.24448 0.19819,-0.44267 0.44267,-0.44267c0.24448,0 0.44267,0.19819 0.44267,0.44267c0,0.24448 -0.19819,0.44267 -0.44267,0.44267c-0.24448,0 -0.44267,-0.19819 -0.44267,-0.44267z" fill="#a00000" fill-rule="nonzero" stroke="none" stroke-width="0.5" stroke-linecap="butt" stroke-linejoin="miter"/><path d="M307.30054,200.05301c0,-0.24448 0.19819,-0.44267 0.44267,-0.44267c0.24448,0 0.44267,0.19819 0.44267,0.44267c0,0.24448 -0.19819,0.44267 -0.44267,0.44267c-0.24448,0 -0.44267,-0.19819 -0.44267,-0.44267z" fill="#a00000" fill-rule="nonzero" stroke="none" stroke-width="0.5" stroke-linecap="butt" stroke-linejoin="miter"/><path d="M310.36439,192.10356c0,-0.24448 0.19819,-0.44267 0.44267,-0.44267c0.24448,0 0.44267,0.19819 0.44267,0.44267c0,0.24448 -0.19819,0.44267 -0.44267,0.44267c-0.24448,0 -0.44267,-0.19819 -0.44267,-0.44267z" fill="#a00000" fill-rule="nonzero" stroke="none" stroke-width="0.5" stroke-linecap="butt" stroke-linejoin="miter"/><path d="M315.33279,184.81658c0,-0.24448 0.19819,-0.44267 0.44267,-0.44267c0.24448,0 0.44267,0.19819 0.44267,0.44267c0,0.24448 -0.19819,0.44267 -0.44267,0.44267c-0.24448,0 -0.44267,-0.19819 -0.44267,-0.44267z" fill="#a00000" fill-rule="nonzero" stroke="none" stroke-width="0.5" stroke-linecap="butt" stroke-linejoin="miter"/><path d="M314.00788,185.97588c0,-0.24448 0.19819,-0.44267 0.44267,-0.44267c0.24448,0 0.44267,0.19819 0.44267,0.44267c0,0.24448 -0.19819,0.44267 -0.44267,0.44267c-0.24448,0 -0.44267,-0.19819 -0.44267,-0.44267z" fill="#a00000" fill-rule="nonzero" stroke="none" stroke-width="0.5" stroke-linecap="butt" stroke-linejoin="miter"/><path d="M312.9314,187.38359c0,-0.24448 0.19819,-0.44267 0.44267,-0.44267c0.24448,0 0.44267,0.19819 0.44267,0.44267c0,0.24448 -0.19819,0.44267 -0.44267,0.44267c-0.24448,0 -0.44267,-0.19819 -0.44267,-0.44267z" fill="#a00000" fill-rule="nonzero" stroke="none" stroke-width="0.5" stroke-linecap="butt" stroke-linejoin="miter"/><path d="M335.34264,154.79336c0,0.81494 -0.66064,1.47558 -1.47558,1.47558c-0.5734,0 -1.07042,-0.32706 -1.31466,-0.80482c-0.20332,0.13926 -0.40666,0.27878 -0.61218,0.4115c-0.09326,0.72516 -0.71292,1.28551 -1.46345,1.28551c-0.4189,0 -0.79704,-0.17456 -1.06563,-0.4549c-0.17624,-0.01342 -0.35748,-0.04319 -0.54445,-0.09175c-5.43437,-1.41111 -1.10537,-4.62023 1.26123,-6.10984l0.48764,0.18458l0.02415,-0.21738l1.58823,0.17647c0.60869,0.05948 1.10896,0.4888 1.27313,1.06032c0.43887,-0.02297 1.01823,0.11617 1.3575,0.87953c0.21271,0.47859 0.18005,0.86282 0.0494,1.15937c0.26847,0.26722 0.43465,0.63712 0.43465,1.04585z" fill="#ffffff" fill-rule="nonzero" stroke="none" stroke-width="0.5" stroke-linecap="butt" stroke-linejoin="miter"/><path d="M327.21684,157.4699c0,-0.81494 0.66064,-1.47558 1.47558,-1.47558c0.17324,0 0.33952,0.02985 0.49395,0.0847c0.06188,-0.64891 0.54402,-1.17524 1.17115,-1.30371c0.2189,-0.54076 0.74906,-0.92222 1.36831,-0.92222c0.33069,0 0.63598,0.10879 0.88202,0.29252c0.26942,-0.28972 0.65393,-0.47096 1.08078,-0.47096c0.81494,0 1.47558,0.66064 1.47558,1.47558c0,0.81494 -0.66064,1.47558 -1.47558,1.47558c-0.33069,0 -0.63598,-0.10879 -0.88202,-0.29252c-0.20506,0.2205 -0.47678,0.37816 -0.78308,0.44091c-0.2189,0.54076 -0.74906,0.92222 -1.36831,0.92222c-0.17324,0 -0.33952,-0.02985 -0.49395,-0.0847c-0.07136,0.74841 -0.70175,1.33376 -1.46885,1.33376c-0.81494,0 -1.47558,-0.66064 -1.47558,-1.47558z" fill="#a00000" fill-rule="nonzero" stroke="none" stroke-width="0.5" stroke-linecap="butt" stroke-linejoin="miter"/></g></g></svg>