<svg version="1.1" xmlns="http://www.w3.org/2000/svg" xmlns:xlink="http://www.w3.org/1999/xlink" width="980.48048" height="630.63063" viewBox="0,0,980.48048,630.63063"><g transform="translate(145.24024,130.31528)"><g data-paper-data="{&quot;isPaintingLayer&quot;:true}" stroke-miterlimit="10" stroke-dasharray="" stroke-dashoffset="0" style="mix-blend-mode: normal"><path d="M-145.24024,500.31535v-630.63063h980.48048v630.63063z" fill="#000000" fill-rule="nonzero" stroke="#ff3838" stroke-width="0" stroke-linecap="butt" stroke-linejoin="miter"/><text transform="translate(304.71471,259.28905) scale(0.5,0.5)" font-size="40" xml:space="preserve" fill="#ffffff" fill-rule="nonzero" stroke="none" stroke-width="1" stroke-linecap="butt" stroke-linejoin="miter" stroke-miterlimit="10" stroke-dasharray="" stroke-dashoffset="0" font-family="Marker" font-weight="normal" text-anchor="start" style="mix-blend-mode: normal"><tspan x="0" dy="0">Loading</tspan></text><g><path d="M329.76652,181.48734c0.05813,0.51399 -2.95945,2.79505 -3.33767,4.48786c-0.23151,1.20969 -0.42043,2.70927 0.13655,4.24722c1.21069,3.49713 0.27931,3.11833 -1.42841,4.47535c-1.72706,1.40339 -3.42369,1.55884 -2.92325,-4.87207c0.16163,-2.21833 0.89539,-3.98084 1.54033,-5.39937c0.15448,-0.37104 1.81147,-3.43621 3.85188,-3.89284c2.0404,-0.45666 2.12957,0.5056 2.16063,0.9539z" fill="#000000" fill-rule="evenodd" stroke="#001026" stroke-width="1.2" stroke-linecap="round" stroke-linejoin="round"/><path d="M325.8056,176.59001c0.88484,-0.55678 2.62384,-0.81239 3.25825,1.19319c0.76976,2.33402 -1.83454,3.75311 -2.91647,4.39111c-1.08191,0.63801 -1.69242,0.92804 -3.5431,2.49763c-0.74569,0.6147 -1.54153,1.48063 -1.95877,1.96c-0.14291,0.21257 -0.23948,0.4445 -0.24324,0.71504c0.01174,0.49466 3.10563,-3.48851 2.08943,-2.8776c-1.15087,0.56178 -0.43917,1.51392 -1.30868,-0.26925c-0.09991,-0.20485 0.11544,0.38464 -0.0132,0.18024c-1.21046,-1.92305 -1.4847,-0.10858 -0.59277,-1.15713c1.85048,-2.22272 0.72457,-3.3775 1.50949,-2.12561c0.14694,0.16999 0.86689,0.36088 0.99049,0.19467l-2.49788,-0.20286c0.3908,-0.4631 -0.80722,0.40953 -0.40189,-0.00376c0.44991,-0.45875 1.79257,-1.43896 2.23726,-1.83423c1.90704,-1.69513 2.76464,-2.2435 3.39111,-2.66141z" fill="#000000" fill-rule="evenodd" stroke="#001026" stroke-width="1.2" stroke-linecap="round" stroke-linejoin="round"/><path d="M338.56072,173.77466c0.36746,1.07814 -0.61371,2.51994 -1.93168,2.02568c-1.20591,-0.50205 -2.05273,-1.99739 -2.56312,-2.8629c-0.5104,-0.86552 -2.16561,-4.60212 0.60454,-7.20387c1.2557,-1.05544 5.16608,-3.12806 6.00152,-0.82114c0.83547,2.30692 -1.70338,3.04585 -3.14078,3.75354c-1.22105,0.58007 0.94056,4.79958 1.02956,5.10874z" fill="#000000" fill-rule="evenodd" stroke="#001026" stroke-width="1.2" stroke-linecap="round" stroke-linejoin="round"/><g fill-rule="evenodd"><path d="M329.66345,174.23117c0.64915,-0.38279 1.57658,-0.64975 2.95228,-0.94774c1.13227,-0.23607 3.11871,-0.17099 3.11871,-0.17099c1.3333,0.0653 3.67549,0.71385 2.9919,2.22512c-0.47116,1.00109 -0.71821,1.98665 -1.14282,3.66017c-0.60195,3.01461 -0.44331,3.67926 -2.82769,4.04714c-2.74764,0.32548 -5.70333,2.84997 -7.91171,-2.69511c0,0 -0.81634,-3.00646 -2.36724,-6.86285c-1.0365,-2.60832 -2.41741,-6.61166 -2.87386,-7.99889c-0.08897,-0.30915 -0.0659,-0.62605 0.00358,-0.92364c1.45555,-4.67279 3.30963,-7.81918 5.30402,-6.98888c3.33947,1.39025 -0.58127,7.54008 -0.58127,7.54008c0,0 0.92068,2.88661 1.39642,4.22749z" fill="#000000" stroke="#001026" stroke-width="1.2" stroke-linecap="round" stroke-linejoin="round"/><path d="M333.62061,173.48414c0,0 1.52642,-0.39852 1.94842,2.11723c0.47616,2.64712 -1.3363,2.81773 -2.79702,3.18918c-1.82402,0.32903 -2.13355,-0.88821 -2.58225,-2.1634c-0.38676,-1.03174 -0.65374,-1.95916 -0.65374,-1.95916c0,0 1.57258,-1.03234 4.08454,-1.18383z" fill="#a00000" stroke="none" stroke-width="1" stroke-linecap="butt" stroke-linejoin="miter"/></g><g fill-rule="evenodd"><path d="M362.44344,183.98935c-0.25857,1.144 -0.62922,2.29579 -1.26263,3.55585c-1.00028,2.14132 -2.65767,3.90025 -2.65767,3.90025l1.32773,7.13756c0.01553,0.22413 -0.22018,0.39813 -0.38637,0.27451l-7.8968,-4.43033c0.48688,-0.12381 -7.9836,2.4449 -11.90017,-3.04944c-3.91657,-5.49432 -3.36634,-13.48269 1.97986,-21.48799c5.34621,-8.00529 11.20502,-7.96071 13.61706,-6.30351c2.41205,1.65718 2.0151,5.35578 2.0151,5.35578c0,0 2.06786,0.91529 4.00095,3.46148c1.16371,1.51844 2.10787,5.39439 2.10787,5.39439l4.4608,3.272c0.16621,0.12363 0.11606,0.37484 -0.03466,0.47537z" fill="#000000" stroke="#001026" stroke-width="1.2" stroke-linecap="butt" stroke-linejoin="miter"/><path d="M357.0361,169.00391c-0.76001,4.30927 -3.83652,3.4639 -5.45868,6.7068c-1.90026,3.78019 0.09994,10.87119 -6.15661,11.91267c-6.21016,1.06081 -10.66858,-7.05357 -3.67668,-17.31245c5.26121,-7.93184 10.96532,-8.16932 13.37739,-6.51213c2.41204,1.65717 1.91457,5.20507 1.91457,5.20507z" fill="#000000" stroke="none" stroke-width="1" stroke-linecap="butt" stroke-linejoin="miter"/><path d="M345.99093,181.54805c-2.33063,-0.80699 -5.12525,-2.46022 -3.83196,-6.874c1.74917,-4.98588 5.96152,-5.30022 7.38761,-5.19633c0.27051,0.00379 0.42521,0.28588 0.28226,0.49846c-0.42877,0.6378 -1.18581,2.06407 -2.08937,4.62659c-0.97297,2.86012 -1.27359,5.67369 -1.31579,6.69009c-0.03084,0.20483 -0.24723,0.33242 -0.43274,0.25517z" fill="#000000" stroke="#001026" stroke-width="1.2" stroke-linecap="round" stroke-linejoin="round"/><path d="M355.97208,165.02367c0,0 1.43662,-3.32016 4.10666,-4.76634" fill="none" stroke="#001026" stroke-width="1.2" stroke-linecap="round" stroke-linejoin="round"/><path d="M353.31282,163.69891c0,0 -0.1282,-2.17574 1.32017,-5.00125" fill="none" stroke="#001026" stroke-width="1.2" stroke-linecap="round" stroke-linejoin="round"/><path d="M351.21492,178.28081c-0.74211,-0.30895 -1.09065,-2.73969 -0.65034,-3.53594c0.35534,-0.7228 1.94363,-0.87786 2.57368,-0.56118c0.30536,0.18154 -0.02667,1.24056 -0.43216,2.2146c-0.38619,0.92763 -0.9539,2.16062 -1.49117,1.88253z" fill="#001026" stroke="#000000" stroke-width="1.2" stroke-linecap="round" stroke-linejoin="round"/><path d="M344.31263,190.8082c0.762,2.22194 0.40011,6.75139 0.40011,6.75139" fill="none" stroke="#001026" stroke-width="1.2" stroke-linecap="round" stroke-linejoin="round"/><path d="M340.20976,195.30407c0,0 0.91867,-3.64463 2.53744,-5.31078" fill="none" stroke="#001026" stroke-width="1.2" stroke-linecap="round" stroke-linejoin="round"/><g fill="#a00000"><path d="M360.62936,178.93494c-1.37554,0.95113 -3.72168,-0.08004 -5.24886,-2.29399c-1.50788,-2.26035 -1.5937,-4.79938 -0.2182,-5.75051c1.37554,-0.95113 3.72168,0.08004 5.24886,2.29399c1.52722,2.21401 1.64008,4.81871 0.2182,5.75051z" stroke="#001026" stroke-width="1.2" stroke-linecap="round" stroke-linejoin="round"/><path d="M357.6902,172.26933c0.51017,0.21238 0.77316,0.75723 0.58007,1.22105c-0.19309,0.46384 -0.76502,0.66109 -1.2752,0.4487c-0.51017,-0.21238 -0.77316,-0.75723 -0.58007,-1.22105c0.19309,-0.46384 0.76502,-0.66109 1.2752,-0.4487" stroke="none" stroke-width="1" stroke-linecap="butt" stroke-linejoin="miter"/></g><g><path d="M354.32385,184.14637c1.46154,2.24106 1.66716,4.88438 0.00179,5.87809c-1.61898,1.01304 -4.22409,-0.18036 -5.66632,-2.46777c-1.46154,-2.24106 -1.26126,-4.55215 0.25718,-5.71587c1.40259,-0.88543 3.94583,0.06446 5.40733,2.30552z" fill="#ffffff" stroke="#001026" stroke-width="1.2" stroke-linecap="round" stroke-linejoin="round"/><path d="M351.51789,183.30477c0.51017,0.21238 0.72677,0.73793 0.58007,1.22105c-0.19309,0.46384 -0.76502,0.66109 -1.2752,0.4487c-0.51017,-0.21238 -0.77316,-0.75723 -0.58007,-1.22105c0.19309,-0.46384 0.76502,-0.66109 1.2752,-0.4487" fill="#001026" stroke="none" stroke-width="1" stroke-linecap="butt" stroke-linejoin="miter"/></g></g><path d="M350.39062,182.1659c0,0 -0.01055,-0.15217 0.05375,-0.31173c-0.15968,-0.08067 -0.35315,-0.15019 -0.62209,-0.21032c-0.7284,-0.30091 -1.45596,-0.60382 -2.18355,-0.90672l-0.49021,-0.08546c0,0 -0.61586,-0.12298 -0.49288,-0.73883c0.12299,-0.61584 0.73883,-0.49288 0.73883,-0.49288l0.72699,0.1576c0.69569,0.28963 1.39146,0.57903 2.08625,0.87083c1.55135,0.37542 3.29994,1.69631 4.40851,2.6487c0.89544,0.76925 0.84848,2.06625 1.83591,2.87371c0.36548,0.29888 0.95322,0.16767 1.35304,0.41874c0.20489,0.12865 0.22763,0.45703 0.43567,0.58059c1.09958,0.65317 1.40853,0.43947 2.09223,1.66361c0,0 0.30193,0.55065 -0.24872,0.8526c-0.55065,0.30193 -0.8526,-0.24872 -0.8526,-0.24872c-0.80032,-1.49434 -2.33283,-1.35795 -3.55437,-2.27819c-0.83768,-0.63108 -1.30849,-1.63864 -1.60769,-2.55775c-0.01191,-0.03655 -0.02454,-0.06925 -0.03789,-0.09854c-0.10002,0.08993 -0.20025,0.13126 -0.20025,0.13126c-0.21221,0.08746 -0.42438,0.17487 -0.63656,0.26233l-0.59301,-0.04763c0,0 -0.57977,-0.24135 -0.33842,-0.82112c0.16134,-0.38756 0.4739,-0.40816 0.66343,-0.37927c0.00644,-0.00265 0.01286,-0.00531 0.01926,-0.00794c-0.04679,-0.12691 -0.09261,-0.25478 -0.18596,-0.34614c-0.25885,-0.25316 -0.66606,-0.26736 -1.01555,-0.38474c0.02415,0.19085 -0.04468,0.35616 -0.04468,0.35616l-1.25303,-0.08561c-0.01881,-0.27151 -0.03761,-0.543 -0.05641,-0.81451z" fill="#a00000" fill-rule="nonzero" stroke="none" stroke-width="0.5" stroke-linecap="butt" stroke-linejoin="miter"/><path d="M347.16057,177.74996c0.12299,-0.61584 0.73883,-0.49288 0.73883,-0.49288l0.53126,0.11102c0.27219,0.02048 0.5444,0.04096 0.8166,0.06142c0.69267,0.16344 1.6754,0.05598 2.29906,0.4129c0.54093,0.30954 1.04592,1.043 1.52233,1.4572c1.3209,1.14834 2.85818,2.40336 4.31547,3.35528c1.29415,0.84537 3.42711,1.28263 4.88548,1.88976c0,0 0.57977,0.24135 0.33842,0.82112c-0.24135,0.57977 -0.82112,0.33842 -0.82112,0.33842c-1.5559,-0.64774 -3.70074,-1.10473 -5.09604,-2.00196c-1.50813,-0.9698 -3.0955,-2.2777 -4.44982,-3.45788c-0.04381,-0.03819 -1.18755,-1.23159 -1.28723,-1.29452c-0.41256,-0.26042 -1.4188,-0.16849 -1.8955,-0.27864c-0.23962,-0.01681 -0.47924,-0.03365 -0.71889,-0.05044l-0.68592,-0.13204c0,0 -0.61586,-0.12298 -0.49288,-0.73883z" fill="#a00000" fill-rule="nonzero" stroke="none" stroke-width="0.5" stroke-linecap="butt" stroke-linejoin="miter"/><path d="M345.22091,165.1219c0.58065,-0.2393 0.81994,0.34134 0.81994,0.34134l0.16162,0.47077c1.8847,1.07146 3.82095,2.18017 5.65697,3.34312c1.44354,0.91432 3.36277,0.65096 3.45263,2.77903c0,0 -0.00878,0.62795 -0.63672,0.61917c-0.62794,-0.00877 -0.61916,-0.63672 -0.61916,-0.63672c0.12138,-0.87537 -1.41182,-1.07882 -2.09506,-1.36745c-2.32041,-0.98018 -4.62641,-2.52608 -6.71847,-3.92705l-0.36307,-0.80235c0,0 -0.23928,-0.58061 0.34134,-0.81994z" fill="#a00000" fill-rule="nonzero" stroke="none" stroke-width="0.5" stroke-linecap="butt" stroke-linejoin="miter"/><path d="M346.30306,163.944c0.24135,-0.57977 0.82112,-0.33842 0.82112,-0.33842l0.54147,0.23467c1.9484,1.22059 4.00699,2.13117 5.85525,3.50611c1.15283,0.85758 2.00336,2.16685 3.20951,2.90437c0,0 0.5322,0.33339 0.1988,0.8656c-0.33339,0.5322 -0.8656,0.1988 -0.8656,0.1988c-1.25034,-0.79788 -2.11016,-2.08224 -3.30853,-2.97322c-1.81481,-1.34932 -3.84087,-2.23738 -5.75626,-3.43726l-0.35742,-0.13954c0,0 -0.57977,-0.24135 -0.33842,-0.82112z" fill="#a00000" fill-rule="nonzero" stroke="none" stroke-width="0.5" stroke-linecap="butt" stroke-linejoin="miter"/><path d="M352.31515,187.53071c0.13375,-0.61358 0.74735,-0.47985 0.74735,-0.47985l0.10234,0.0223c1.8843,0.59627 1.90002,0.69661 1.48075,2.51259c0,0 -0.14274,0.61156 -0.75433,0.46878c-0.61156,-0.14274 -0.46878,-0.75433 -0.46878,-0.75433c0.07862,-0.33266 0.64113,-0.82256 0.33273,-0.97002c-0.25811,-0.12345 -0.57193,-0.01989 -0.85788,-0.02981l-0.10234,-0.0223c0,0 -0.61358,-0.13375 -0.47985,-0.74735z" fill="#a00000" fill-rule="nonzero" stroke="none" stroke-width="0.5" stroke-linecap="butt" stroke-linejoin="miter"/><path d="M350.65135,186.16795c0.57977,0.24135 0.33842,0.82112 0.33842,0.82112l-0.04681,0.11239c-0.18713,0.44946 -0.37423,0.89892 -0.56135,1.34837c0,0 -0.24135,0.57977 -0.82112,0.33842c-0.57977,-0.24135 -0.33842,-0.82112 -0.33842,-0.82112c0.18709,-0.44944 0.42101,-1.01128 0.60809,-1.46072c0,0 0.24135,-0.57977 0.82112,-0.33842z" fill="#a00000" fill-rule="nonzero" stroke="none" stroke-width="0.5" stroke-linecap="butt" stroke-linejoin="miter"/><path d="M349.82888,183.91544c0.23927,0.58064 -0.34134,0.81994 -0.34134,0.81994l-0.81075,-0.04134c-0.19355,-0.16847 -0.3871,-0.33693 -0.58061,-0.50539c0,0 -0.47368,-0.41233 -0.06135,-0.88602c0.41231,-0.4737 0.88599,-0.06137 0.88599,-0.06137c0.10904,0.09489 0.21807,0.18982 0.32711,0.28471c0.18857,-0.00822 0.44216,0.05271 0.58098,0.3895z" fill="#a00000" fill-rule="nonzero" stroke="none" stroke-width="0.5" stroke-linecap="butt" stroke-linejoin="miter"/><path d="M319.61707,187.52024c-0.15474,-0.60863 0.45387,-0.76339 0.45387,-0.76339l0.21235,0.12525c0.20024,-0.31747 0.36759,-0.64341 0.53306,-0.97019c-0.02557,-0.11354 -0.01906,-0.20278 -0.01906,-0.20278c0.01823,-0.23304 0.00405,-0.47092 0.05467,-0.69911c0.01929,-0.0869 0.23453,-0.19458 0.14962,-0.22123c-0.25276,-0.07925 -0.67721,0.25659 -0.79447,0.01905c-0.21475,-0.435 0.00578,-0.97443 0.08676,-1.45273c0.04549,-0.26867 0.70188,-0.637 0.43503,-0.69208c-0.21397,-0.04414 -0.55111,0.18282 -0.65538,-0.00916c-0.44101,-0.8119 -0.16953,-2.30185 1.19909,-2.11962c0.3991,0.05316 0.44951,0.6681 0.67427,1.00219l-0.04764,0.59302c0,0 -0.04686,0.11257 -0.14888,0.21783c0.03878,0.18062 0.05369,0.40056 0.03456,0.66062c-0.01966,0.26746 -0.1509,0.5237 -0.30019,0.74646c-0.0751,0.112 -0.4776,0.20051 -0.34341,0.21389c0.2116,0.02107 0.46175,-0.34001 0.60984,-0.18734c0.2051,0.21147 0.29935,0.48591 0.33623,0.77832c0.0556,0.01757 0.11405,0.04444 0.17504,0.08266c0.5322,0.33339 0.1988,0.8656 0.1988,0.8656c-0.42054,0.66671 -0.69598,1.37083 -1.11351,2.04134l-0.96723,0.42522c0,0 -0.60863,0.15474 -0.76339,-0.45387z" fill="#a00000" fill-rule="nonzero" stroke="none" stroke-width="0.5" stroke-linecap="butt" stroke-linejoin="miter"/><path d="M316.47047,185.09663c-0.23927,-0.58064 0.34134,-0.81994 0.34134,-0.81994l0.62539,-0.23748c0.23403,-0.03439 0.46809,-0.06879 0.70216,-0.1032c0,0 0.62135,-0.09131 0.71265,0.53001c0.09131,0.62135 -0.53001,0.71265 -0.53001,0.71265c-0.23405,0.0344 -0.46813,0.06879 -0.70216,0.1032l-0.32944,0.15605c0,0 -0.58064,0.23927 -0.81994,-0.34134z" fill="#a00000" fill-rule="nonzero" stroke="none" stroke-width="0.5" stroke-linecap="butt" stroke-linejoin="miter"/><path d="M315.04931,182.43013l0.72097,0.1683c0,0 0.61156,0.14274 0.46878,0.75433c-0.14274,0.61156 -0.75433,0.46878 -0.75433,0.46878l-0.72097,-0.1683c0,0 -0.61156,-0.14274 -0.46878,-0.75433c0.14274,-0.61156 0.75433,-0.46878 0.75433,-0.46878z" fill="#a00000" fill-rule="nonzero" stroke="none" stroke-width="0.5" stroke-linecap="butt" stroke-linejoin="miter"/><path d="M313.74034,189.22914c-0.41064,-0.47515 0.06453,-0.88579 0.06453,-0.88579l0.52522,-0.32411c0.23405,-0.0344 0.46813,-0.06879 0.70216,-0.1032c0,0 0.18856,-0.0277 0.37319,0.05128c0.1746,-0.15695 0.43045,-0.20915 0.66164,-0.11294c0.32021,0.13333 0.47172,0.50093 0.33842,0.82112c-0.13333,0.32021 -0.50093,0.47172 -0.82112,0.33842c-0.00903,-0.00376 -0.01794,-0.00771 -0.02667,-0.01184c-0.15413,0.12885 -0.34281,0.1566 -0.34281,0.1566c-0.23405,0.0344 -0.46813,0.06879 -0.70216,0.1032l0.11338,0.03178c0,0 -0.47516,0.41061 -0.88579,-0.06453z" fill="#a00000" fill-rule="nonzero" stroke="none" stroke-width="0.5" stroke-linecap="butt" stroke-linejoin="miter"/><path d="M321.38014,182.48708c0.58064,-0.23927 0.81994,0.34134 0.81994,0.34134l0.11288,0.40721c-0.00015,0.01005 -0.00028,0.0201 -0.00044,0.03015c0.1804,-0.00427 0.54504,0.04596 0.63498,0.50484c0.12077,0.61627 -0.49551,0.73707 -0.49551,0.73707l-0.31213,0.04875c-0.43004,0.17415 -0.75539,0.37463 -1.0387,0.3566c-0.06469,0.0743 -0.14537,0.13136 -0.23441,0.16809l-0.63658,0.26233v0c-0.1486,0.06124 -0.32054,0.06581 -0.48068,-0.00084c-0.22703,-0.09452 -0.36926,-0.30685 -0.38528,-0.53655l-0.42978,0.00447c-0.08704,0.00287 -0.1761,-0.01239 -0.26178,-0.04805c-0.32021,-0.13333 -0.47172,-0.50093 -0.33842,-0.82112c0.04052,-0.0974 0.10277,-0.17914 0.17873,-0.24204l0.6082,-0.52559l0.00484,0.0056l0.01369,-0.02101c0.42133,-0.30765 0.87922,-0.57214 1.36033,-0.77389c0,0 0.46296,-0.1908 0.73245,0.18175c0.04204,-0.02902 0.09094,-0.05565 0.14766,-0.07902zM321.02299,183.52388c0.00994,-0.00118 0.01986,-0.00239 0.0298,-0.00358c0.00006,-0.00448 0.00011,-0.00897 0.00018,-0.01347c-0.0109,0.00653 -0.021,0.01219 -0.03002,0.01703z" fill="#ffffff" fill-rule="nonzero" stroke="none" stroke-width="0.5" stroke-linecap="butt" stroke-linejoin="miter"/><path d="M346.6329,180.01677c0.31899,0.54096 -0.22193,0.85994 -0.22193,0.85994l-0.49459,-0.12736c0.13068,0.14165 0.24582,0.27898 0.32542,0.38385c0,0 0.37296,0.50523 -0.13228,0.87822c-0.50525,0.37295 -0.87822,-0.13228 -0.87822,-0.13228c-0.76369,-1.07585 -2.72169,-1.62608 -0.54189,-2.66345c0.20793,-0.09898 0.45463,-0.07042 0.6835,-0.10059l0.58246,-0.24003l0.09623,0.23351l0.66374,-0.00399c-0.07989,0.20899 -0.16054,0.41869 -0.23584,0.6301l0.16384,0.16047l-0.05389,0.05501c0.01488,0.02064 0.02937,0.04282 0.04344,0.06667z" fill="#8da900" fill-rule="nonzero" stroke="none" stroke-width="0.5" stroke-linecap="butt" stroke-linejoin="miter"/><path d="M348.68309,172.10038c0,0 0.23717,0.5755 -0.33367,0.81673c0.12358,0.1711 0.15805,0.40047 0.07098,0.60961c-0.06666,0.16008 -0.19188,0.27803 -0.34047,0.33927v0l-0.32148,0.13249c-0.07124,0.13072 -0.12238,0.2688 -0.14236,0.41603l0.09741,0.57736c0,0 0.07679,0.52254 -0.38966,0.67965c0.01198,0.17155 -0.02129,0.46289 -0.34706,0.60537c0.08991,0.45721 0.17581,1.07504 0.20384,1.26169l-0.08835,0.44505c0,0 -0.06536,0.15696 -0.20972,0.27353c0.05111,0.03845 0.09999,0.07874 0.14458,0.12243c0,0 0.44865,0.43942 0.00924,0.88807c-0.43942,0.44867 -0.88807,0.00924 -0.88807,0.00924c-0.07062,-0.06918 -0.24937,-0.24145 -0.44156,-0.43209c-0.13808,0.0454 -0.29249,0.04332 -0.4372,-0.01692c-0.12087,-0.05032 -0.21771,-0.13402 -0.28425,-0.23598c-0.22742,-0.08176 -0.32487,-0.29171 -0.36337,-0.41367c-0.00326,0.00199 -0.0065,0.00395 -0.00979,0.00588c-0.16938,0.21864 -0.47013,0.30619 -0.73773,0.19479c-0.32021,-0.13333 -0.47172,-0.50093 -0.33842,-0.82112c0.05768,-0.13855 0.15924,-0.24555 0.28188,-0.31153c0.07453,-0.10722 0.15617,-0.2109 0.24401,-0.3098c0.00738,-0.02327 0.01608,-0.04715 0.02629,-0.07163c0.11313,-0.27175 0.30063,-0.3631 0.46792,-0.38347c0.17427,-0.13034 0.36098,-0.24228 0.55593,-0.3305l0.0346,-0.07247c0,0 0.17033,-0.14722 0.39517,-0.16334c0.13273,-0.12627 0.28863,-0.21912 0.46805,-0.26344c-0.31917,-0.58807 -1.26051,-0.79041 -1.24982,-1.53508c0.01489,-1.03811 1.3681,-1.31002 2.17247,-1.43501c-0.07877,-0.21707 -0.16089,-0.43257 -0.26834,-0.63646c-0.169,-0.32065 -0.65921,-0.57991 -0.56408,-0.92962c0.11513,-0.42328 1.30889,-0.84261 1.72305,-1.01034l0.07883,0.00867l-0.00362,-0.0245l0.69196,-0.1017c0.11202,-0.01844 0.23041,-0.00679 0.34291,0.04006c0.32021,0.13333 0.47172,0.50093 0.33842,0.82112c-0.01302,0.03124 -0.02827,0.06091 -0.0455,0.08885l-0.43429,0.73048l-0.01277,-0.00759c-0.07061,0.20279 -0.14588,0.40383 -0.22794,0.60223l0.13203,-0.16236zM346.42318,174.07822c0.00223,-0.01271 0.0044,-0.02541 0.00656,-0.03816c-0.0209,0.00352 -0.04145,0.007 -0.06156,0.01036c0.01813,0.00834 0.03649,0.01766 0.05499,0.02783z" fill="#8da900" fill-rule="nonzero" stroke="none" stroke-width="0.5" stroke-linecap="butt" stroke-linejoin="miter"/><path d="M344.55728,173.49558c0.20341,1.33853 0.07817,1.59747 -0.6246,2.13101c0.10249,0.41181 -0.33304,0.93362 -0.8056,1.31923l0.18627,0.27565c-0.15941,0.57661 -0.51182,1.12988 -0.97785,1.50493c0,0 -0.50525,0.37295 -0.87825,-0.13227c-0.37298,-0.50526 0.13227,-0.87825 0.13227,-0.87825c0.02454,-0.01532 0.04846,-0.03191 0.07172,-0.04968c-0.16722,-0.17246 -0.22697,-0.43325 -0.13276,-0.66974c-0.06736,-0.23254 0.00113,-0.40404 0.09692,-0.52233l0.10386,-0.57128c0.12729,-0.13987 0.22656,-0.35136 0.33634,-0.53596c-0.29673,-0.53006 0.2323,-0.84199 0.2323,-0.84199l0.26341,-0.00953c0.19509,-0.46448 0.42917,-0.92706 0.7138,-1.35105l-0.21726,-0.13609l0.38752,-0.61865c0.15783,-0.26219 0.48802,-0.37628 0.77905,-0.25512c0.26081,0.10857 0.40969,0.37262 0.38392,0.63985l-0.0511,0.70138z" fill="#8da900" fill-rule="nonzero" stroke="none" stroke-width="0.5" stroke-linecap="butt" stroke-linejoin="miter"/><path d="M343.50959,180.4511c-0.30193,-0.55065 0.24872,-0.8526 0.24872,-0.8526l1.28637,-0.37516c0.12728,0.44073 0.25454,0.88152 0.38183,1.32224c0,0 0.04339,0.62652 -0.58309,0.66988c-0.44359,0.03072 -0.59485,-0.27439 -0.64539,-0.45517c-0.18655,0.04637 -0.49078,0.05124 -0.68845,-0.30921z" fill="#a00000" fill-rule="nonzero" stroke="none" stroke-width="0.5" stroke-linecap="butt" stroke-linejoin="miter"/><path d="M343.64047,178.94077c-0.57977,-0.24135 -0.33842,-0.82112 -0.33842,-0.82112l0.09356,-0.22472c0.12208,-0.28255 0.31221,-0.52969 0.53869,-0.74793l-0.12693,-0.12431l0.44838,-0.45783c0.17388,-0.18597 0.4514,-0.25441 0.70026,-0.15079c0.24888,0.10359 0.39581,0.34875 0.38636,0.60317l-0.00897,0.64076l-0.04488,-0.00063l0.0319,0.11923c-0.10529,0.2627 -0.21055,0.52546 -0.31584,0.78816c0,0 -0.2358,0.56639 -0.80106,0.3465c-0.1316,0.08644 -0.31681,0.13206 -0.56308,0.02954z" fill="#a00000" fill-rule="nonzero" stroke="none" stroke-width="0.5" stroke-linecap="butt" stroke-linejoin="miter"/><path d="M343.35618,175.62342c-0.47368,-0.41233 -0.06135,-0.88602 -0.06135,-0.88602l0.23525,-0.26934c0.11133,-0.12896 0.19811,-0.29742 0.29401,-0.45118c-0.15566,-0.26064 -0.0272,-0.56926 -0.0272,-0.56926l0.37421,-0.8989c0.04077,-0.09795 0.10349,-0.18015 0.18007,-0.24316c0.00434,-0.01857 0.00879,-0.03721 0.0133,-0.05582l0.05122,-0.2568c0,0 0.12299,-0.61584 0.73883,-0.49287c0.14575,0.02912 0.25015,0.08581 0.32454,0.15546c0.20362,0.17035 0.20633,0.41915 0.18884,0.55563c0.11804,-0.02352 0.24411,-0.01343 0.36358,0.0363c0.24888,0.10359 0.39581,0.34875 0.38636,0.60317l-0.00897,0.64076l-0.02386,-0.00033l0.01925,0.06778c-0.1413,0.61011 -0.34664,1.20637 -0.58613,1.78501c0,0 -0.24135,0.57977 -0.82112,0.33842c-0.0371,-0.01546 -0.07081,-0.03227 -0.10146,-0.05023c-0.07531,0.02428 -0.16412,0.03445 -0.26866,0.0228c-0.12761,0.03284 -0.26656,0.02602 -0.3976,-0.02853c-0.01225,-0.00509 -0.02424,-0.01053 -0.036,-0.01631c-0.12259,0.10896 -0.46047,0.34128 -0.83712,0.01343z" fill="#a00000" fill-rule="nonzero" stroke="none" stroke-width="0.5" stroke-linecap="butt" stroke-linejoin="miter"/><path d="M346.0711,170.83481c0.13333,-0.32021 0.50093,-0.47172 0.82112,-0.33842c0.32021,0.13333 0.47172,0.50093 0.33842,0.82112c-0.13333,0.32021 -0.50093,0.47172 -0.82112,0.33842c-0.32021,-0.13333 -0.47172,-0.50093 -0.33842,-0.82112z" fill="#a00000" fill-rule="nonzero" stroke="none" stroke-width="0.5" stroke-linecap="butt" stroke-linejoin="miter"/><path d="M344.55794,176.4212c-0.2895,-0.12052 -0.37427,-0.32541 -0.38655,-0.50038c-0.01015,-0.00882 -0.02001,-0.01788 -0.02953,-0.02726c-0.03285,0.09246 -0.07501,0.18449 -0.12943,0.27557c-0.11731,0.19636 -0.29439,0.35474 -0.45716,0.52088c-0.25851,0.63279 -0.5344,1.25622 -0.78822,1.86602l-0.32745,0.78655c-0.13333,0.32021 -0.50093,0.47172 -0.82112,0.33842c-0.29099,-0.12113 -0.44269,-0.43584 -0.36784,-0.73258l0.12828,-0.54962c-0.31587,-0.18191 -0.28626,-0.58833 -0.28626,-0.58833c0.171,-2.34734 1.00876,-3.78313 2.22711,-5.72798l0.38752,-0.61865c0.15783,-0.26219 0.48802,-0.37628 0.77905,-0.25512c0.08698,0.03621 0.16149,0.08971 0.22126,0.15485c0.11175,-0.15477 0.34952,-0.37049 0.7439,-0.20636c0.36487,0.15191 0.40451,0.43779 0.38377,0.62891c0.00436,0.00625 0.00869,0.01261 0.01296,0.0192c0.18571,0.02462 0.51081,0.13163 0.54162,0.57669c0.04338,0.62652 -0.58311,0.6699 -0.58311,0.6699c-0.13727,-0.01716 -0.28971,-0.00395 -0.44055,0.00604c0.06731,0.12761 0.09299,0.29801 0.00203,0.51651c-0.21954,0.52734 -0.71908,0.37535 -0.80761,0.34353c-0.07674,0.08647 -0.13273,0.17868 -0.17387,0.27557c-0.0128,0.05632 -0.02607,0.11262 -0.03984,0.16885c0.06743,0.06566 0.11864,0.14524 0.15078,0.232c0.21705,0.1313 0.44432,0.24633 0.67842,0.34195l0.20295,1.14649c0,0 -0.24135,0.57977 -0.82112,0.33842zM344.82432,173.69801c-0.07917,0.05003 -0.14683,0.10301 -0.20467,0.15862z" fill="#000000" fill-rule="nonzero" stroke="none" stroke-width="0.5" stroke-linecap="butt" stroke-linejoin="miter"/><path d="M345.06433,173.7377l-0.14074,0.7049" fill="none" fill-rule="nonzero" stroke="#001026" stroke-width="1.2" stroke-linecap="round" stroke-linejoin="miter"/><path d="M344.9942,175.00645l0.28124,-2.32608" fill="none" fill-rule="nonzero" stroke="#a00000" stroke-width="1.2" stroke-linecap="round" stroke-linejoin="miter"/><path d="M345.53657,175.53763l-1.49692,-1.53937" fill="none" fill-rule="nonzero" stroke="#000000" stroke-width="1.2" stroke-linecap="round" stroke-linejoin="miter"/><path d="M344.16952,173.13614l2.71623,-0.47253" fill="none" fill-rule="nonzero" stroke="#000000" stroke-width="1.2" stroke-linecap="round" stroke-linejoin="miter"/><path d="M336.77132,180.4507c0.54955,0.3039 0.24565,0.85349 0.24565,0.85349l-0.34394,0.61476c-0.02862,0.00434 -0.05724,0.00866 -0.08583,0.013l0.04504,0.0392l-0.42951,0.49345c-0.12941,0.1559 -0.3276,0.23991 -0.52916,0.22509c-0.61633,0.51026 -1.8576,0.76036 -2.29635,-0.34579c-0.44132,-1.11265 1.12901,-2.87768 2.33091,-2.33823c0.21699,0.09739 0.36877,0.24858 0.46591,0.43117c0.1432,-0.08501 0.34418,-0.12606 0.59726,0.01389z" fill="#a00000" fill-rule="nonzero" stroke="none" stroke-width="0.5" stroke-linecap="butt" stroke-linejoin="miter"/><path d="M334.7384,181.50203c0.13333,-0.32021 0.50093,-0.47172 0.82112,-0.33842c0.32021,0.13333 0.47172,0.50093 0.33842,0.82112c-0.13333,0.32021 -0.50093,0.47172 -0.82112,0.33842c-0.32021,-0.13333 -0.47172,-0.50093 -0.33842,-0.82112z" fill="#ffffff" fill-rule="nonzero" stroke="none" stroke-width="0.5" stroke-linecap="butt" stroke-linejoin="miter"/><path d="M344.52784,174.6596l0.303,-2.01163l1.23078,-0.02207" fill="none" fill-rule="nonzero" stroke="#000000" stroke-width="1.2" stroke-linecap="round" stroke-linejoin="miter"/><path d="M331.38875,178.34464c-0.32021,-0.13333 -0.47172,-0.50093 -0.33842,-0.82112c0.01519,-0.0365 0.03344,-0.07079 0.0543,-0.1027c-0.14734,0.05913 -0.31707,0.06277 -0.47525,-0.00304c-0.32021,-0.13333 -0.47172,-0.50093 -0.33842,-0.82112c0.0445,-0.1069 0.11511,-0.19502 0.2014,-0.25999c-0.20376,-0.1719 -0.28251,-0.4622 -0.17457,-0.72138c0.02095,-0.05031 0.04768,-0.09646 0.07905,-0.13797c-0.24896,-0.162 -0.35482,-0.48339 -0.23658,-0.76744c0.13333,-0.32021 0.50093,-0.47172 0.82112,-0.33842c0.02489,0.01037 0.04875,0.02214 0.07156,0.03523c0.15017,-0.28317 0.49406,-0.41051 0.79587,-0.28486c0.32021,0.13333 0.47172,0.50093 0.33842,0.82112c-0.01037,0.02489 -0.02215,0.04876 -0.0352,0.07157c0.28317,0.15017 0.41051,0.49406 0.28486,0.79587c-0.02313,0.05564 -0.05341,0.10617 -0.08925,0.15105c0.20902,0.1711 0.29083,0.46509 0.18169,0.72729c-0.03238,0.07777 -0.07855,0.14557 -0.13453,0.20175c0.22239,0.16864 0.31216,0.47197 0.19987,0.74166c-0.02638,0.06338 -0.06196,0.12014 -0.10452,0.16942c0.1716,0.17462 0.23188,0.44156 0.13188,0.68184c-0.13333,0.32021 -0.50093,0.47172 -0.82112,0.33842c-0.2026,-0.08435 -0.33766,-0.2625 -0.37578,-0.46314c-0.0122,-0.00422 -0.02432,-0.00886 -0.03642,-0.01387zM331.45046,177.07932c-0.01519,0.0365 -0.03344,0.07079 -0.0543,0.1027c0.01006,-0.00404 0.02021,-0.00781 0.03046,-0.01131c0.00269,-0.00716 0.00552,-0.01432 0.00847,-0.0214c0.03238,-0.07777 0.07855,-0.14557 0.13453,-0.20175c-0.02599,-0.01969 -0.05014,-0.04125 -0.07242,-0.06434c-0.00475,0.0658 -0.02002,0.13192 -0.04676,0.19617zM331.33787,176.30452c-0.01954,0.01922 -0.04029,0.03701 -0.06196,0.05338c0.01653,0.01395 0.03227,0.02868 0.04714,0.04413c0.00237,-0.03251 0.00726,-0.06507 0.01487,-0.09748zM331.2945,175.24606c-0.01589,0.02992 -0.03389,0.05813 -0.05381,0.08444c0.0095,0.0062 0.0188,0.01262 0.0279,0.01924c0.00279,-0.00741 0.00567,-0.01481 0.00872,-0.02218c0.01037,-0.02489 0.02214,-0.04875 0.03523,-0.07156c-0.00609,-0.00322 -0.01211,-0.00655 -0.01803,-0.00994z" fill="#e93e3e" fill-rule="nonzero" stroke="none" stroke-width="0.5" stroke-linecap="butt" stroke-linejoin="miter"/><path d="M328.13264,186.53272c-0.32021,-0.13333 -0.47172,-0.50093 -0.33842,-0.82112c0.03527,-0.08473 0.08693,-0.15766 0.14983,-0.21661c-0.03244,-0.12721 -0.02546,-0.26563 0.0289,-0.39613c0.05565,-0.13374 0.1522,-0.23801 0.2691,-0.30444c-0.07055,-0.15365 -0.07919,-0.33516 -0.00911,-0.5035c0.06572,-0.1579 0.1884,-0.27472 0.33426,-0.33666c-0.13506,-0.17286 -0.17546,-0.41156 -0.08515,-0.6285c0.07102,-0.17055 0.20849,-0.29327 0.36992,-0.35053c-0.11106,-0.16844 -0.13911,-0.38726 -0.05572,-0.58756c0.10537,-0.25315 0.35724,-0.40086 0.6163,-0.38574c-0.03878,-0.13281 -0.03409,-0.27924 0.02322,-0.41689c0.07092,-0.17035 0.20815,-0.29294 0.36927,-0.35031c-0.1915,-0.17339 -0.26311,-0.45492 -0.15813,-0.70701c0.05565,-0.13374 0.1522,-0.23801 0.2691,-0.30444c-0.07053,-0.15366 -0.07919,-0.33516 -0.00911,-0.5035c0.02852,-0.0685 0.06776,-0.12927 0.11495,-0.18117c0.0036,-0.07008 0.01906,-0.14074 0.04756,-0.20924c0.02199,-0.0528 0.05034,-0.101 0.08379,-0.1441c-0.01744,-0.11069 -0.00546,-0.22742 0.04078,-0.33848c0.07803,-0.18741 0.23633,-0.31706 0.41845,-0.36559c-0.02289,-0.11732 -0.0126,-0.24243 0.03679,-0.3611c0.13333,-0.32021 0.50093,-0.47172 0.82112,-0.33842c0.32021,0.13333 0.47172,0.50093 0.33842,0.82112c-0.07803,0.18741 -0.23633,0.31706 -0.41845,0.36559c0.02289,0.11732 0.0126,0.24243 -0.03679,0.3611c-0.02199,0.0528 -0.05034,0.101 -0.08379,0.1441c0.01743,0.11072 0.00546,0.22742 -0.04078,0.33848c-0.02852,0.0685 -0.06775,0.1293 -0.11495,0.18118c-0.0036,0.07008 -0.01906,0.14072 -0.04761,0.20924c-0.05565,0.13374 -0.1522,0.23801 -0.2691,0.30444c0.07052,0.15365 0.07917,0.33513 0.00911,0.50349c-0.07092,0.17035 -0.20815,0.29294 -0.36927,0.35031c0.1915,0.17341 0.26311,0.45492 0.15813,0.70701c-0.1054,0.25315 -0.35724,0.40086 -0.6163,0.38574c0.03878,0.13281 0.03409,0.27924 -0.02322,0.41689c-0.07102,0.17055 -0.20849,0.29327 -0.36992,0.35053c0.11106,0.16844 0.13911,0.38726 0.05572,0.58756c-0.06572,0.1579 -0.18841,0.27471 -0.33426,0.33666c0.13504,0.17285 0.17546,0.41156 0.08515,0.6285c-0.05565,0.13374 -0.1522,0.23801 -0.2691,0.30444c0.07052,0.15365 0.07919,0.33516 0.00911,0.5035c-0.03527,0.08473 -0.08693,0.15766 -0.14983,0.21661c0.03244,0.12721 0.02546,0.26563 -0.0289,0.39613c-0.13333,0.32021 -0.50093,0.47172 -0.82112,0.33842z" fill="#e93e3e" fill-rule="nonzero" stroke="none" stroke-width="0.5" stroke-linecap="butt" stroke-linejoin="miter"/><path d="M332.1174,174.22665c0.13333,-0.32021 0.50093,-0.47172 0.82112,-0.33842c0.30182,0.12562 0.45373,0.45942 0.35859,0.76549c0.02534,0.00699 0.05052,0.0156 0.0754,0.02597c0.32021,0.13333 0.47172,0.50093 0.33842,0.82112c-0.05162,0.12392 -0.13831,0.22261 -0.24378,0.28925c0.01564,0.00511 0.03122,0.01088 0.04669,0.01734c0.32021,0.13333 0.47172,0.50093 0.33842,0.82112c-0.04794,0.11518 -0.12621,0.20851 -0.22166,0.27463c0.16998,0.17468 0.22939,0.4404 0.12979,0.67965c-0.03528,0.08475 -0.08697,0.15767 -0.1499,0.21664c0.18547,0.17393 0.25367,0.45109 0.15015,0.69966c-0.13333,0.32021 -0.50093,0.47172 -0.82112,0.33842c-0.32021,-0.13333 -0.47172,-0.50093 -0.33842,-0.82112c0.03528,-0.08475 0.08697,-0.15767 0.1499,-0.21664c-0.18547,-0.17393 -0.25367,-0.45109 -0.15015,-0.69966c0.04794,-0.11516 0.12621,-0.20851 0.22166,-0.27463c-0.16998,-0.17468 -0.22938,-0.44041 -0.12979,-0.67965c0.05162,-0.12392 0.13831,-0.22261 0.24378,-0.28925c-0.01564,-0.00511 -0.03122,-0.01088 -0.04669,-0.01734c-0.30182,-0.12562 -0.45371,-0.45944 -0.35857,-0.76549c-0.02535,-0.00699 -0.05051,-0.0156 -0.07541,-0.02598c-0.32021,-0.13333 -0.47172,-0.50093 -0.33842,-0.82112z" fill="#e93e3e" fill-rule="nonzero" stroke="none" stroke-width="0.5" stroke-linecap="butt" stroke-linejoin="miter"/><path d="M327.14737,188.57259c0.02663,-0.06403 0.10016,-0.09433 0.16422,-0.06769c0.06403,0.02663 0.09433,0.10016 0.06769,0.16422c-0.02663,0.06403 -0.10016,0.09433 -0.16422,0.06769c-0.06403,-0.02663 -0.09433,-0.10016 -0.06769,-0.16422z" fill="#a00000" fill-rule="nonzero" stroke="none" stroke-width="0.5" stroke-linecap="butt" stroke-linejoin="miter"/><path d="M329.6954,188.83301c0.12326,-0.02415 0.1474,0.09909 0.1474,0.09909l0.00114,0.00577c0.03221,0.16434 0.06441,0.32869 0.09662,0.493c0,0 0.02415,0.12326 -0.09909,0.1474c-0.12326,0.02415 -0.1474,-0.09909 -0.1474,-0.09909c-0.03219,-0.16434 -0.06554,-0.33443 -0.09775,-0.49879c0,0 -0.02415,-0.12326 0.09909,-0.1474z" fill="#a00000" fill-rule="nonzero" stroke="none" stroke-width="0.5" stroke-linecap="butt" stroke-linejoin="miter"/><path d="M328.51763,190.00931c-0.10977,-0.0457 -0.1865,-0.13728 -0.21719,-0.24322c-0.07855,0.07697 -0.20735,0.14287 -0.39553,0.0645c-0.34788,-0.14483 -0.20306,-0.49268 -0.20306,-0.49268l0.0351,-0.07099c0.01014,-0.042 0.01911,-0.08336 0.02714,-0.12421c-0.03395,-0.02843 -0.06218,-0.06232 -0.08389,-0.0998c-0.01849,0.03353 -0.05693,0.07394 -0.1324,0.05889c-0.02458,-0.00492 -0.04327,-0.01372 -0.05744,-0.02475c-0.00982,-0.00188 -0.02026,-0.00496 -0.03127,-0.00958c-0.11597,-0.04829 -0.06769,-0.16422 -0.06769,-0.16422l0.02708,-0.06507c0.0262,-0.0569 0.06124,-0.11143 0.10296,-0.16065c0.02286,-0.07809 0.04758,-0.15989 0.07075,-0.24187c-0.00631,-0.00266 -0.01282,-0.0053 -0.01947,-0.00796l-0.10583,-0.16028c0,0 -0.00757,-0.01838 -0.0094,-0.04351c-0.00869,-0.00157 -0.01733,-0.00413 -0.02582,-0.00765c-0.06403,-0.02663 -0.09433,-0.10016 -0.06769,-0.16422c0.01307,-0.03135 0.03736,-0.05463 0.06627,-0.06707c-0.00415,-0.00255 -0.00812,-0.00531 -0.01188,-0.00829c-0.0228,-0.00105 -0.04851,-0.00804 -0.07058,-0.02854c-0.0101,-0.00146 -0.02019,-0.00424 -0.03007,-0.00834c-0.06403,-0.02663 -0.09433,-0.10016 -0.06769,-0.16422c0.02038,-0.04896 0.06813,-0.07818 0.11809,-0.07734c0.00227,-0.0023 0.0046,-0.00453 0.00699,-0.00663c0.03489,-0.0307 0.08552,-0.04074 0.13132,-0.02169c0.00306,0.00127 0.00603,0.00264 0.00891,0.00411c0.05133,-0.02593 0.10126,-0.05348 0.15109,-0.08117c-0.0046,-0.06653 -0.00922,-0.1331 -0.01383,-0.19966c0,0 -0.00868,-0.12531 0.11663,-0.13396c0.08292,-0.00572 0.11474,0.04721 0.12683,0.08366c0.02331,-0.00107 0.04627,-0.00131 0.06885,-0.00073c0.02385,-0.05732 0.04774,-0.11471 0.0716,-0.172l-0.07924,-0.03298c0,0 -0.04732,-0.01971 -0.06893,-0.06417c-0.02001,0.0308 -0.0686,0.08327 -0.15339,0.04798c-0.11597,-0.04829 -0.06769,-0.16422 -0.06769,-0.16422l0.02708,-0.06507c0.02708,-0.06507 0.05416,-0.13011 0.08127,-0.19521c0,0 0.04829,-0.11597 0.16422,-0.06769c0.11597,0.04829 0.06769,0.16422 0.06769,0.16422c-0.01146,0.02748 -0.02774,0.06664 -0.04477,0.10758c0.04573,-0.01416 0.09104,0.0047 0.09104,0.0047l0.05822,0.02425l0.04204,-0.04447c0.00037,-0.00003 0.00081,-0.00005 0.00117,-0.00008c0.02167,-0.05203 0.04332,-0.10402 0.06498,-0.15609c0,0 0.04829,-0.11597 0.16422,-0.06769c0.11597,0.04829 0.06769,0.16422 0.06769,0.16422c-0.01197,0.02871 -0.02418,0.0581 -0.03666,0.08805c0.0156,0.01721 0.02736,0.04193 0.02982,0.07732c0.00382,0.05498 -0.01818,0.08752 -0.04405,0.1067c0.09029,0.01133 0.15591,0.04214 0.2035,0.08216c0.09884,-0.05863 0.22315,-0.07152 0.33736,-0.02394c0.19213,0.07998 0.28303,0.30057 0.20306,0.49268c-0.04014,0.09638 -0.11565,0.1673 -0.20525,0.20396c-0.00135,0.00469 -0.00297,0.00936 -0.00489,0.01399c-0.02663,0.06403 -0.10016,0.09433 -0.16422,0.06769c-0.01742,-0.00725 -0.03231,-0.01797 -0.0443,-0.03101c0.02993,0.12893 -0.02039,0.24976 -0.02039,0.24976c-0.06721,0.15184 -0.10316,0.30195 -0.12645,0.4531c0.0101,-0.01098 0.01732,-0.02386 0.02063,-0.03904c0,0 0.03284,-0.0789 0.10942,-0.07943c0.01229,-0.02956 0.0246,-0.05912 0.03692,-0.08869l-0.03815,0.00396c0,0 -0.04786,-0.11614 0.06828,-0.16398c0.11614,-0.04786 0.16398,0.06828 0.16398,0.06828l0.03782,0.1883c-0.04516,0.10845 -0.09031,0.21691 -0.13543,0.32536c0,0 -0.04829,0.11597 -0.16422,0.06769c-0.02451,-0.0102 -0.04168,-0.02345 -0.05353,-0.03795c-0.02546,0.01266 -0.05178,0.02383 -0.07839,0.0337c-0.01383,0.14376 -0.02648,0.2899 -0.05327,0.44056c0.09451,-0.04726 0.20828,-0.05471 0.31347,-0.0109c0.19213,0.07998 0.28303,0.30057 0.20306,0.49268c-0.07998,0.19213 -0.30057,0.28303 -0.49268,0.20306zM327.6122,187.92624c-0.01307,0.03135 -0.03736,0.05463 -0.06627,0.06707c0.01603,0.00984 0.02925,0.02297 0.03915,0.03806c0.00629,-0.0013 0.0127,-0.0021 0.01916,-0.00241l0.07795,-0.00539c0.00615,-0.05658 0.00782,-0.10955 0.00336,-0.1573c-0.02175,0.01178 -0.04369,0.02345 -0.06582,0.03484c-0.0016,0.00846 -0.00407,0.01687 -0.00754,0.02517z" fill="#a00000" fill-rule="nonzero" stroke="none" stroke-width="0.5" stroke-linecap="butt" stroke-linejoin="miter"/><path d="M328.64809,190.97978l-0.01443,-0.0101c-0.16087,-0.04152 -0.32174,-0.08301 -0.48259,-0.12455c0,0 -0.03269,-0.00842 -0.07599,-0.03005c-0.01335,-0.00391 -0.02662,-0.00856 -0.03976,-0.01405c-0.19213,-0.07998 -0.28303,-0.30057 -0.20306,-0.49268c0.07998,-0.19213 0.30057,-0.28303 0.49268,-0.20306c0.01038,0.00434 0.02053,0.00906 0.03032,0.01421c0.15556,0.04015 0.31111,0.08029 0.4667,0.12045l0.11572,0.04407c0,0 0.34788,0.14483 0.20306,0.49268c-0.14483,0.34788 -0.49268,0.20306 -0.49268,0.20306z" fill="#a00000" fill-rule="nonzero" stroke="none" stroke-width="0.5" stroke-linecap="butt" stroke-linejoin="miter"/><path d="M324.18748,196.13905c0.51674,-0.76886 2.46549,-1.22335 2.68665,-2.2473c-0.05834,-0.09849 -0.10194,-0.25613 0.0469,-0.42714c0.16399,-0.18841 0.34415,-0.14318 0.44701,-0.09132c0.13374,0.02929 0.20356,0.10977 0.23985,0.19035l0.02914,0.02549c1.34514,1.3186 2.82745,2.48939 4.05032,3.91361c0.31384,0.36551 1.61002,1.09379 0.8854,1.77517c-0.2877,0.27055 -1.8374,-0.55787 -2.1331,-0.68098c-1.01931,-0.42435 -2.04277,-0.83992 -3.05832,-1.27322c-0.16054,-0.06849 -0.7588,-0.29005 -0.94011,-0.16212c-0.08836,0.06235 -0.03262,0.90496 -0.03435,1.02909c-0.01589,1.1348 -0.65189,2.09979 -0.66048,3.23709c-0.01577,0.77762 -0.84945,2.76415 -1.66772,1.24891c-0.1958,-0.36257 -0.04728,-1.31553 -0.18519,-1.75757c-0.53519,-1.71568 -0.81629,-2.96212 -0.68509,-4.77183c0,0 0.02738,-0.37581 0.40317,-0.34842c0.37581,0.02738 0.34842,0.40317 0.34842,0.40317c-0.00284,0.03912 -0.00562,0.07801 -0.00822,0.11664c0.05173,-0.10116 0.1391,-0.15946 0.1391,-0.15946z" fill="#ffffff" fill-rule="nonzero" stroke="none" stroke-width="0.5" stroke-linecap="butt" stroke-linejoin="miter"/><path d="M325.35799,203.14774c-0.00859,0.00522 -0.01719,0.01031 -0.02587,0.01526l-0.06861,-0.15517c-0.00551,-0.0021 -0.0111,-0.0043 -0.01669,-0.00665c-0.07724,-0.03219 -0.1302,-0.07432 -0.16586,-0.12048c-0.03847,0.1136 -0.08258,0.2296 -0.13295,0.35145c0,0 -0.14483,0.34788 -0.49268,0.20306c-0.34788,-0.14483 -0.20306,-0.49268 -0.20306,-0.49268c0.00967,-0.02301 0.01904,-0.0457 0.02812,-0.06805l0.01509,-0.52125c-0.01231,-0.04883 -0.01656,-0.10375 -0.01324,-0.1638c-0.07292,0.04701 -0.15403,0.09804 -0.2444,0.15456l-0.08958,-0.8686c0.07199,-0.07954 0.14394,-0.15905 0.2159,-0.23857c-0.15107,-0.23307 -0.21147,-0.46741 -0.0523,-0.70752c0.17996,-0.27147 0.54415,-0.35812 0.81625,-0.53717l0.04615,0.36953c0.07971,-0.05848 0.15943,-0.1169 0.23911,-0.17536l0.05667,0.40551c0.05058,-0.05563 0.10239,-0.10955 0.15513,-0.16164l0.26752,0.80282c-0.04026,0.1322 -0.10886,0.25741 -0.19569,0.3699c0.141,0.23998 0.24832,0.50164 0.30939,0.7697l0.09644,-0.01721c-0.00658,0.0796 -0.0267,0.15845 -0.05745,0.23454c0.01123,0.08631 0.01745,0.17281 0.01824,0.25907l-0.50567,0.29875z" fill="#a00000" fill-rule="nonzero" stroke="none" stroke-width="0.5" stroke-linecap="butt" stroke-linejoin="miter"/><path d="M330.58068,198.80844c-0.34788,-0.14483 -0.20306,-0.49268 -0.20306,-0.49268l0.0237,-0.05184c-0.05388,-0.09717 -0.06441,-0.21715 -0.0184,-0.32769c0.03181,-0.07645 0.08592,-0.13688 0.15164,-0.17689l0.06962,-0.67351c0.00309,-0.0385 0.01218,-0.07719 0.02784,-0.11481c0.07998,-0.19213 0.30057,-0.28303 0.49268,-0.20306c0.14933,0.06214 0.23749,0.20923 0.23183,0.3619l-0.00321,0.23048l0.09144,-0.0774c0.04483,0.14293 0.07971,0.27491 0.10487,0.3952c0.05856,-0.00507 0.11916,0.00347 0.17722,0.02761c0.14933,0.06214 0.23749,0.20923 0.23183,0.3619l-0.00252,0.17997c0.09443,-0.04707 0.20801,-0.05443 0.31303,-0.0107c0.04465,0.0186 0.08387,0.04481 0.1167,0.07647c0.13366,0.02209 0.22371,0.08253 0.19334,0.20641c0.00881,0.00292 0.0175,0.00618 0.02619,0.00978c0.19213,0.07998 0.28303,0.30057 0.20306,0.49268c-0.00906,0.02172 -0.01988,0.04221 -0.03232,0.06125l-0.15756,0.25147l0.03413,0.05405c-0.02589,0.00477 -0.05132,0.0092 -0.0763,0.01331l-0.02082,0.03321c-0.09471,0.1573 -0.29281,0.22575 -0.46743,0.15308c-0.07761,-0.03232 -0.13865,-0.0875 -0.17864,-0.15454c-0.23605,-0.03109 -0.3651,-0.12169 -0.39471,-0.24905c-0.21736,-0.09666 -0.32836,-0.33343 -0.46148,-0.54103c-0.05031,0.08638 -0.19839,0.27853 -0.4727,0.16434z" fill="#a00000" fill-rule="nonzero" stroke="none" stroke-width="0.5" stroke-linecap="butt" stroke-linejoin="miter"/><path d="M320.38071,201.7888c0.07998,-0.19213 0.30057,-0.28303 0.49268,-0.20306c0.19213,0.07998 0.28303,0.30057 0.20306,0.49268c-0.07998,0.19213 -0.30057,0.28303 -0.49268,0.20306c-0.19213,-0.07998 -0.28303,-0.30057 -0.20306,-0.49268z" fill="#a00000" fill-rule="nonzero" stroke="none" stroke-width="0.5" stroke-linecap="butt" stroke-linejoin="miter"/><path d="M317.07531,201.65098l0.26885,-0.01582c0.43818,-0.08324 0.88879,-0.09908 1.33478,-0.09396c0,0 0.37678,0.00526 0.37152,0.38202c-0.00526,0.37678 -0.38202,0.37152 -0.38202,0.37152c-0.3945,-0.00662 -0.79388,0.00368 -1.18096,0.08031l-0.36006,0.02776c0,0 -0.3759,0.02603 -0.40193,-0.34988c-0.02603,-0.3759 0.34988,-0.40193 0.34988,-0.40193z" fill="#a00000" fill-rule="nonzero" stroke="none" stroke-width="0.5" stroke-linecap="butt" stroke-linejoin="miter"/><path d="M315.91843,201.68715c0.07998,-0.19213 0.30057,-0.28303 0.49268,-0.20306c0.19213,0.07998 0.28303,0.30057 0.20306,0.49268c-0.07998,0.19213 -0.30057,0.28303 -0.49268,0.20306c-0.19213,-0.07998 -0.28303,-0.30057 -0.20306,-0.49268z" fill="#a00000" fill-rule="nonzero" stroke="none" stroke-width="0.5" stroke-linecap="butt" stroke-linejoin="miter"/><path d="M314.52485,201.18336c0.07998,-0.19213 0.30057,-0.28303 0.49268,-0.20306c0.19213,0.07998 0.28303,0.30057 0.20306,0.49268c-0.07998,0.19213 -0.30057,0.28303 -0.49268,0.20306c-0.19213,-0.07998 -0.28303,-0.30057 -0.20306,-0.49268z" fill="#a00000" fill-rule="nonzero" stroke="none" stroke-width="0.5" stroke-linecap="butt" stroke-linejoin="miter"/><path d="M321.77403,201.37632c0.07998,-0.19213 0.30057,-0.28303 0.49268,-0.20306c0.19213,0.07998 0.28303,0.30057 0.20306,0.49268c-0.07998,0.19213 -0.30057,0.28303 -0.49268,0.20306c-0.19213,-0.07998 -0.28303,-0.30057 -0.20306,-0.49268z" fill="#a00000" fill-rule="nonzero" stroke="none" stroke-width="0.5" stroke-linecap="butt" stroke-linejoin="miter"/><path d="M329.12567,199.85595c0.07998,-0.19213 0.30057,-0.28303 0.49268,-0.20306c0.19213,0.07998 0.28303,0.30057 0.20306,0.49268c-0.07998,0.19213 -0.30057,0.28303 -0.49268,0.20306c-0.19213,-0.07998 -0.28303,-0.30057 -0.20306,-0.49268z" fill="#a00000" fill-rule="nonzero" stroke="none" stroke-width="0.5" stroke-linecap="butt" stroke-linejoin="miter"/><path d="M327.78121,200.51781c0.07998,-0.19213 0.30057,-0.28303 0.49268,-0.20306c0.19213,0.07998 0.28303,0.30057 0.20306,0.49268c-0.07998,0.19213 -0.30057,0.28303 -0.49268,0.20306c-0.19213,-0.07998 -0.28303,-0.30057 -0.20306,-0.49268z" fill="#a00000" fill-rule="nonzero" stroke="none" stroke-width="0.5" stroke-linecap="butt" stroke-linejoin="miter"/><path d="M326.32282,200.90325c0.07998,-0.19213 0.30057,-0.28303 0.49268,-0.20306c0.19213,0.07998 0.28303,0.30057 0.20306,0.49268c-0.07998,0.19213 -0.30057,0.28303 -0.49268,0.20306c-0.19213,-0.07998 -0.28303,-0.30057 -0.20306,-0.49268z" fill="#a00000" fill-rule="nonzero" stroke="none" stroke-width="0.5" stroke-linecap="butt" stroke-linejoin="miter"/><path d="M359.46764,194.44637c0.32119,0.1337 0.55749,0.38532 0.67966,0.6837c0.27577,-0.00565 0.58839,0.09436 0.89491,0.41809c0.48888,0.51634 0.40867,1.01713 0.24706,1.3545c0.39539,0.31598 0.56913,0.84954 0.41673,1.34733l-0.38091,1.3058l-0.17873,-0.05212l-0.01451,0.44359c-1.9448,1.37241 -5.8828,3.72438 -5.21384,-1.00769c0.023,-0.16281 0.05891,-0.31499 0.10601,-0.45785c-0.13244,-0.3028 -0.14588,-0.65703 -0.00886,-0.98623c0.24554,-0.58979 0.88858,-0.89341 1.48893,-0.72945c0.17154,-0.11808 0.3477,-0.23224 0.52364,-0.34646c-0.29552,-0.34822 -0.38993,-0.84576 -0.20237,-1.29638c0.26662,-0.6404 1.00185,-0.94342 1.64228,-0.67681z" fill="#ffffff" fill-rule="nonzero" stroke="none" stroke-width="0.5" stroke-linecap="butt" stroke-linejoin="miter"/><path d="M354.02925,198.31392c0.25096,-0.60281 0.91716,-0.90669 1.5286,-0.71793c0.00742,-0.1393 0.03836,-0.27974 0.09503,-0.41589c0.2026,-0.48663 0.67578,-0.77847 1.17231,-0.77354c0.14951,-0.22014 0.36231,-0.38212 0.60266,-0.47113c-0.06388,-0.25346 -0.04949,-0.52895 0.05869,-0.78882c0.26662,-0.6404 1.00185,-0.94342 1.64228,-0.67681c0.6404,0.26662 0.94342,1.00185 0.67681,1.64228c-0.13965,0.33543 -0.40784,0.57829 -0.72366,0.69525c0.06388,0.25346 0.04949,0.52895 -0.05869,0.78882c-0.2026,0.48663 -0.67578,0.77847 -1.17231,0.77354c-0.30612,0.45079 -0.87745,0.65747 -1.40762,0.49384c-0.00742,0.1393 -0.03836,0.27974 -0.09503,0.41589c-0.26662,0.6404 -1.00185,0.94342 -1.64228,0.67681c-0.6404,-0.26662 -0.94342,-1.00185 -0.67681,-1.64228z" fill="#a00000" fill-rule="nonzero" stroke="none" stroke-width="0.5" stroke-linecap="butt" stroke-linejoin="miter"/></g></g></g></svg>