<svg version="1.1" xmlns="http://www.w3.org/2000/svg" xmlns:xlink="http://www.w3.org/1999/xlink" width="837.19946" height="733.95454" viewBox="0,0,837.19946,733.95454"><g transform="translate(142.5,103.57232)"><g data-paper-data="{&quot;isPaintingLayer&quot;:true}" stroke-miterlimit="10" stroke-dasharray="" stroke-dashoffset="0" style="mix-blend-mode: normal"><path d="M-123.5,453v-546h727v546z" fill="#580000" fill-rule="nonzero" stroke="none" stroke-width="none" stroke-linecap="butt" stroke-linejoin="miter"/><g data-paper-data="{&quot;index&quot;:null}"><path d="M338.47317,422.77386c6.59638,-3.66476 54.2377,24.18705 79.15766,19.78938c17.59067,-3.66476 38.84599,-9.52823 56.43654,-25.65298c40.31179,-35.91425 40.43237,-21.246 68.28419,-5.85429c28.58472,15.39171 40.19122,37.37075 -49.22771,66.68837c-30.78355,10.26114 -58.63525,10.26114 -81.35649,9.52824c-5.86347,0 -56.43653,-5.1307 -74.02708,-30.05065c-17.59067,-24.92008 -5.13057,-31.51658 0.7329,-34.44832z" fill="#000000" fill-rule="evenodd" stroke="#001026" stroke-width="1.2" stroke-linecap="round" stroke-linejoin="round"/><path d="M294.72336,503.57925c-12.45998,-8.79521 -25.65298,-30.78356 -2.19884,-50.57294c27.11892,-23.45415 60.83421,3.66465 75.49302,14.65882c14.65893,10.99405 21.98834,17.59054 53.5048,33.71529c12.4601,6.59638 28.58472,12.45997 37.38006,15.39171c3.66476,0.73303 7.32941,0.73303 10.99417,-0.7329c6.5965,-2.93174 -64.39739,-22.26725 -50.47148,-12.0061c14.01905,12.35008 22.85201,-2.57373 3.71146,19.13546c-2.19883,2.49401 4.5329,-3.71133 2.50171,-0.83287c-19.11311,27.08502 6.86199,20.60524 -12.26092,14.47143c-40.3118,-12.45998 -49.55157,9.17843 -37.09159,-8.41212c1.46593,-2.93174 0,-13.69891 -2.93174,-14.43181l11.2732,34.77938c-8.42827,-2.66711 10.04184,8.57567 2.20268,5.4337c-8.70121,-3.48756 -29.43112,-16.07458 -37.24805,-19.84738c-33.52307,-16.17988 -45.71717,-24.65571 -54.85822,-30.74978z" fill="#000000" fill-rule="evenodd" stroke="#001026" stroke-width="1.2" stroke-linecap="round" stroke-linejoin="round"/><path d="M185.2883,347.57601c12.45998,-10.99417 37.38006,-5.86359 38.11296,14.65882c0,19.05648 -15.39172,38.84587 -24.18706,50.57294c-8.79522,11.72708 -49.84003,54.97073 -100.41297,32.24948c-21.25531,-10.99417 -71.09535,-52.03888 -44.70947,-76.22593c26.38589,-24.18705 50.57306,5.8636 68.16361,21.25531c14.65893,13.19288 59.36828,-39.57889 63.03304,-42.51063z" fill="#000000" fill-rule="evenodd" stroke="#001026" stroke-width="1.2" stroke-linecap="round" stroke-linejoin="round"/><g fill-rule="evenodd"><path d="M241.32337,464.84688c-8.79522,-6.5965 -17.59055,-17.59068 -29.31762,-34.44832c-9.52824,-13.92591 -19.78938,-41.0447 -19.78938,-41.0447c-6.59638,-18.32346 -10.99404,-53.50468 13.19301,-52.77177c16.12462,0.73291 30.78355,-1.4658 55.70351,-5.13057c43.97656,-8.79534 52.03887,-14.65894 70.36245,15.39171c19.78938,35.18122 70.36232,60.83408 8.06231,121.66829c0,0 -35.91413,27.85182 -79.15766,70.36245c-29.31775,28.58472 -75.49302,69.62941 -91.61776,83.55533c-3.66464,2.93174 -8.06231,4.39766 -12.45998,5.13057c-71.09535,6.59638 -123.86712,-0.73302 -123.86712,-32.24948c0,-52.77189 104.81064,-34.44832 104.81064,-34.44832c0,0 33.71542,-28.58472 49.10714,-42.51063z" fill="#000000" stroke="#001026" stroke-width="1.2" stroke-linecap="round" stroke-linejoin="round"/><path d="M209.07413,415.73963c0,0 -13.92591,-18.32358 17.59055,-38.11296c32.98239,-21.25531 45.44236,2.19883 58.63537,19.78938c14.65881,22.72125 0,33.7153 -14.65881,46.9083c-11.72708,10.99405 -22.72125,19.78938 -22.72125,19.78938c0,0 -22.72112,-15.39171 -38.84586,-48.3741z" fill="#a00000" stroke="none" stroke-width="1" stroke-linecap="butt" stroke-linejoin="miter"/></g><g fill-rule="evenodd"><path d="M188.95319,-31.35488c16.85764,-2.93174 34.4482,-4.39766 54.97061,-2.93173c34.44819,1.46593 67.43058,13.92591 67.43058,13.92591l88.6859,-57.90234c2.93174,-1.46581 6.59638,0.73302 5.86347,3.66477l-15.39171,131.19653c-4.39767,-5.86348 77.69185,93.8166 25.65298,177.37192c-52.03887,83.55533 -162.71311,120.93526 -300.50614,93.81647c-137.79303,-27.11879 -170.04251,-106.27645 -161.24718,-148.05418c8.79534,-41.77773 60.83421,-57.16944 60.83421,-57.16944c0,0 0.7329,-32.98239 24.18705,-73.29418c13.92591,-24.18705 60.83421,-58.63537 60.83421,-58.63537l19.05648,-78.42475c0.73303,-2.93174 4.39767,-3.66476 6.5965,-2.19883z" fill="#000000" stroke="#001026" stroke-width="1.2" stroke-linecap="butt" stroke-linejoin="miter"/><path d="M17.44462,125.49463c62.30002,-13.92591 68.16361,32.24937 120.93539,35.91413c61.56711,4.39767 145.85534,-62.30002 194.96247,16.12474c49.10713,77.69185 -35.18109,183.2354 -212.55302,146.58837c-136.3271,-26.38588 -171.50832,-101.87879 -162.71298,-143.65651c8.79534,-41.7776 59.36828,-54.9706 59.36828,-54.9706z" fill="#000000" stroke="none" stroke-width="1" stroke-linecap="butt" stroke-linejoin="miter"/><path d="M248.32146,203.91951c2.19884,35.91412 -4.39767,82.82242 -71.09535,90.15183c-76.95882,4.39754 -104.81064,-50.57306 -111.40714,-70.36244c-1.46593,-3.66476 1.46581,-7.32941 5.13057,-6.59651c10.99405,2.19884 34.4482,4.39767 74.02709,2.19884c43.97644,-2.93174 83.55533,-14.65881 97.48124,-19.78938c2.93174,-0.7329 5.86347,1.46592 5.86347,4.39766z" fill="#000000" stroke="#001026" stroke-width="1.2" stroke-linecap="round" stroke-linejoin="round"/><path d="M-30.19646,162.14178c0,0 -52.77177,-0.73291 -87.22009,-28.58472" fill="none" stroke="#001026" stroke-width="1.2" stroke-linecap="round" stroke-linejoin="round"/><path d="M-33.1282,205.38544c0,0 -28.58472,13.92591 -74.75999,10.26114" fill="none" stroke="#001026" stroke-width="1.2" stroke-linecap="round" stroke-linejoin="round"/><path d="M175.02716,151.88064c0,11.72707 -30.78356,30.05065 -43.97656,28.58472c-11.72707,-0.7329 -22.72112,-21.25531 -21.98822,-31.51645c0.73303,-5.13057 16.85777,-6.59651 32.24948,-6.59651c14.65881,0 34.4482,0.73291 33.71529,9.52824z" fill="#001026" stroke="#000000" stroke-width="1.2" stroke-linecap="round" stroke-linejoin="round"/><path d="M382.44973,174.60176c25.65286,-22.72112 88.6859,-43.24354 88.6859,-43.24354" fill="none" stroke="#001026" stroke-width="1.2" stroke-linecap="round" stroke-linejoin="round"/><path d="M466.00506,204.65241c0,0 -54.2377,8.06231 -85.75416,-4.39767" fill="none" stroke="#001026" stroke-width="1.2" stroke-linecap="round" stroke-linejoin="round"/><g fill="#a00000"><path d="M131.05072,21.41701c20.52229,13.19288 19.78938,50.57294 -1.46594,83.55533c-21.98822,32.98239 -55.70351,48.37423 -76.22592,35.18122c-20.52229,-13.19288 -19.78939,-50.57294 1.46593,-83.55533c21.25532,-32.98239 55.70352,-49.10713 76.22593,-35.18122z" stroke="#001026" stroke-width="1.2" stroke-linecap="round" stroke-linejoin="round"/><path d="M57.75654,98.37584c0,-8.06231 5.8636,-14.65881 13.19301,-14.65881c7.32953,0 13.19301,6.5965 13.19301,14.65881c0,8.06231 -5.8636,14.65882 -13.193,14.65882c-7.32953,0 -13.193,-6.59651 -13.193,-14.65882" stroke="none" stroke-width="1" stroke-linecap="butt" stroke-linejoin="miter"/></g><g><path d="M236.59439,77.12052c21.98822,-32.24948 56.43641,-49.84003 79.15766,-32.98238c22.72112,16.12474 21.25531,57.90235 -1.46593,90.15183c-21.98822,32.24948 -54.23771,42.51063 -78.42475,28.58472c-19.78951,-13.92591 -21.25531,-53.50468 0.73291,-85.75416z" fill="#ffffff" stroke="#001026" stroke-width="1.2" stroke-linecap="round" stroke-linejoin="round"/><path d="M240.99193,119.63115c0,-8.06231 5.8636,-13.9259 13.19301,-14.65881c7.32953,0 13.19301,6.5965 13.19301,14.65881c0,8.06231 -5.86361,14.65881 -13.19301,14.65881c-7.32953,0 -13.193,-6.5965 -13.193,-14.65881" fill="#001026" stroke="none" stroke-width="1" stroke-linecap="butt" stroke-linejoin="miter"/></g></g><path d="M231.97395,141.1989c0,0 -1.99047,0.99529 -4.49987,1.02373c-0.19124,2.60304 -0.04259,5.59873 0.65505,9.55779c0.03142,11.49759 0.03116,22.99481 0.03116,34.4924l1.59769,7.0813c0,0 1.79674,8.98372 -7.18709,10.78059c-8.98384,1.79674 -10.78059,-7.1871 -10.78059,-7.1871l-1.95358,-10.6749c0,-10.9938 -0.00348,-21.98722 0.03117,-32.98102c-3.64217,-22.99866 4.34402,-53.95557 10.95493,-74.2259c5.33993,-16.3731 23.0713,-23.01307 28.40988,-40.83919c1.97593,-6.598 -3.08659,-13.77813 -1.94725,-20.57084c0.58401,-3.4811 4.87898,-5.62828 5.37681,-9.12267c2.63172,-18.47172 -1.97829,-21.43476 10.67504,-37.50635c0,0 5.72328,-7.15406 12.87747,-1.43079c7.15407,5.7234 1.43079,12.87747 1.43079,12.87747c-15.63908,19.15793 -5.20918,39.0335 -10.75414,60.64446c-3.80261,14.82037 -14.73282,26.81095 -25.43405,35.99385c-0.42556,0.36534 -0.795,0.71887 -1.11451,1.06297c1.77203,0.84267 2.89026,1.96103 2.89026,1.96103c2.36747,2.36747 4.73494,4.73494 7.10241,7.10241l2.6835,8.25391c0,0 0,9.16179 -9.16179,9.16179c-6.12437,0 -8.1547,-4.09405 -8.82788,-6.8086c-0.07165,-0.07178 -0.14342,-0.14343 -0.21507,-0.21508c-1.44681,1.34188 -2.9125,2.67569 -3.61907,4.44573c-1.95818,4.90581 0.13362,10.46989 0.51224,15.83503c2.4349,-1.39515 5.04749,-1.39515 5.04749,-1.39515l5.87279,17.35623c-3.55127,1.77563 -7.10253,3.55127 -10.65367,5.3269z" fill="#a00000" fill-rule="nonzero" stroke="none" stroke-width="0.5" stroke-linecap="butt" stroke-linejoin="miter"/><path d="M190.60998,209.46198c-8.98384,1.79674 -10.78059,-7.1871 -10.78059,-7.1871l-1.48344,-7.77757c-1.25036,-3.78075 -2.50083,-7.56174 -3.75119,-11.34249c-1.6825,-10.24537 -8.63974,-22.87833 -7.32966,-33.27955c1.13623,-9.02097 8.18301,-19.9348 11.09016,-28.67351c8.0602,-24.2289 16.34318,-51.97032 20.9933,-76.93473c4.12957,-22.16976 -1.94091,-53.34858 -1.94091,-76.39455c0,0 -0.00001,-9.16179 9.16178,-9.16179c9.16179,0 9.16179,9.16179 9.16179,9.16179c0,24.58691 5.87117,56.03656 1.61035,79.85952c-4.60542,25.74972 -13.31991,54.46197 -21.62151,79.31934c-0.2686,0.80418 -9.9286,22.89969 -10.21719,24.59486c-1.19448,7.01648 5.6859,20.05364 6.87516,27.09148c1.11712,3.32166 2.23409,6.64331 3.35121,9.96497l2.06783,9.97851c0,0 1.79674,8.98372 -7.1871,10.78059z" fill="#a00000" fill-rule="nonzero" stroke="none" stroke-width="0.5" stroke-linecap="butt" stroke-linejoin="miter"/><path d="M31.40766,306.39074c-6.47841,-6.47841 0,-12.95669 0,-12.95669l5.43444,-4.8164c3.86333,-31.39116 7.9395,-63.68573 13.30775,-94.93408c4.22071,-24.56828 -10.08767,-48.94048 18.07025,-62.08307c0,0 8.5065,-3.40263 11.90912,5.10387c3.40263,8.50637 -5.10388,11.909 -5.10388,11.909c-12.47065,3.2736 -6.61389,25.0635 -6.67014,35.88395c-0.19098,36.74749 -8.0818,76.47303 -15.22035,112.50476l-8.7705,9.38854c0,0 -6.47828,6.47829 -12.95669,0z" fill="#a00000" fill-rule="nonzero" stroke="none" stroke-width="0.5" stroke-linecap="butt" stroke-linejoin="miter"/><path d="M9.47606,298.4202c-9.16179,0 -9.16178,-9.16179 -9.16178,-9.16179l0.12467,-8.60858c5.51416,-33.08533 6.23613,-65.91647 14.39096,-98.51862c5.08637,-20.3349 17.9503,-39.13122 21.12133,-59.51108c0,0 1.50616,-9.03711 10.54328,-7.53095c9.03712,1.50616 7.53095,10.54328 7.53095,10.54328c-3.73592,21.31368 -16.21241,40.09486 -21.49349,61.23071c-7.99761,32.00784 -8.59801,64.27445 -14.01879,96.79912l0.12467,5.59625c0,0 0,9.16179 -9.16179,9.16179z" fill="#a00000" fill-rule="nonzero" stroke="none" stroke-width="0.5" stroke-linecap="butt" stroke-linejoin="miter"/><path d="M293.43799,85.19873c-9.01401,1.63891 -10.65293,-7.3751 -10.65293,-7.3751l-0.27344,-1.50381c-2.53449,-28.72156 -1.27097,-29.49557 25.53737,-34.03083c0,0 9.03711,-1.50616 10.54328,7.53095c1.50617,9.03712 -7.53095,10.54328 -7.53095,10.54328c-4.92133,0.80617 -14.67296,-4.02277 -14.93014,0.95754c-0.2152,4.16869 2.93894,7.8142 4.40834,11.72124l0.27345,1.5038c0,0 1.63891,9.01402 -7.37511,10.65292z" fill="#a00000" fill-rule="nonzero" stroke="none" stroke-width="0.5" stroke-linecap="butt" stroke-linejoin="miter"/><path d="M284.41267,115.24839c0,-9.16179 9.16179,-9.16179 9.16179,-9.16179h1.77564c7.10253,0 14.20506,0 21.30747,0c0,0 9.16179,0 9.16179,9.16179c0,9.16179 -9.16179,9.16179 -9.16179,9.16179c-7.1024,0 -15.98057,0 -23.08298,0c0,0 -9.16179,0 -9.16179,-9.16179z" fill="#a00000" fill-rule="nonzero" stroke="none" stroke-width="0.5" stroke-linecap="butt" stroke-linejoin="miter"/><path d="M258.68655,138.95536c6.47841,-6.47828 12.95669,0 12.95669,0l3.98888,11.15113c-1.18379,3.55127 -2.36747,7.10253 -3.55127,10.65367c0,0 -2.89722,8.69165 -11.58886,5.79443c-8.69165,-2.89709 -5.79443,-11.58874 -5.79443,-11.58874c0.66684,-2.00064 1.33368,-4.00129 2.00052,-6.00181c-1.1679,-2.49351 -1.7693,-6.25104 1.98835,-10.00869z" fill="#a00000" fill-rule="nonzero" stroke="none" stroke-width="0.5" stroke-linecap="butt" stroke-linejoin="miter"/><path d="M476.63303,525.64271c-7.32941,5.49703 -12.82643,-1.83238 -12.82643,-1.83238l0.49634,-3.56245c-5.39842,-0.91706 -10.72669,-1.34336 -16.05532,-1.73962c-1.38596,0.98126 -2.62427,1.39403 -2.62427,1.39403c-3.24095,1.06098 -6.36516,2.58603 -9.72258,3.1832c-1.27855,0.22749 -3.93572,-2.06795 -3.81813,-0.77463c0.35006,3.84867 7.25291,7.68232 4.7111,10.59344c-4.65459,5.331 -13.15625,5.38588 -20.05227,6.97686c-3.87338,0.89359 -12.51487,-5.88148 -11.76023,-1.97854c0.60512,3.12931 5.55228,6.39707 3.55127,8.87804c-8.46204,10.49175 -30.05127,15.18967 -35.27038,-4.26517c-1.52193,-5.67336 6.47816,-9.80019 9.71724,-14.70028l8.25404,-2.68351c0,0 1.77887,0.00013 3.76883,0.78382c2.21548,-1.5351 5.09369,-2.96899 8.70357,-4.16967c3.71258,-1.23483 7.89914,-0.90402 11.73676,-0.14231c1.92962,0.38309 5.37856,5.30802 4.80622,3.42572c-0.90253,-2.96812 -7.16822,-4.31273 -5.94257,-7.16263c1.69815,-3.94852 4.8657,-6.75607 8.59752,-8.89232c-0.07513,-0.8474 -0.04098,-1.78482 0.13175,-2.82122c1.50617,-9.03711 10.54328,-7.53095 10.54328,-7.53095c11.33715,1.92577 22.36498,1.68759 33.73665,3.55127l11.15014,10.6425c0,0 5.49703,7.3294 -1.83238,12.82643z" fill="#a00000" fill-rule="nonzero" stroke="none" stroke-width="0.5" stroke-linecap="butt" stroke-linejoin="miter"/><path d="M461.63384,581.61085c-6.47841,6.47829 -12.95669,0 -12.95669,0l-6.70466,-7.09148c-1.77564,-2.9593 -3.55126,-5.91873 -5.3269,-8.87804c0,0 -4.71371,-7.85617 3.14247,-12.56988c7.85617,-4.71371 12.56988,3.14247 12.56988,3.14247c1.77564,2.95943 3.55126,5.91886 5.32689,8.87816l3.94901,3.56219c0,0 6.47829,6.47841 0,12.9567z" fill="#a00000" fill-rule="nonzero" stroke="none" stroke-width="0.5" stroke-linecap="butt" stroke-linejoin="miter"/><path d="M433.68914,615.70228l-1.77564,-10.65367c0,0 -1.50617,-9.03712 7.53095,-10.54328c9.03712,-1.50617 10.54328,7.53095 10.54328,7.53095l1.77563,10.65367c0,0 1.50617,9.03712 -7.53095,10.54328c-9.03712,1.50617 -10.54327,-7.53095 -10.54327,-7.53095z" fill="#a00000" fill-rule="nonzero" stroke="none" stroke-width="0.5" stroke-linecap="butt" stroke-linejoin="miter"/><path d="M532.59917,595.2103c-4.09728,8.19456 -12.29184,4.09728 -12.29184,4.09728l-7.31016,-5.25649c-1.77564,-2.95943 -3.55126,-5.91886 -5.3269,-8.87816c0,0 -1.43054,-2.38423 -1.40198,-5.31386c-3.0928,-1.4714 -5.23054,-4.62491 -5.23054,-8.27788c0,-5.05992 4.10188,-9.16179 9.16179,-9.16179c5.05991,0 9.16179,4.10187 9.16179,9.16179c0,0.14268 -0.00336,0.28462 -0.00981,0.42568c2.59969,1.3533 4.03096,3.73878 4.03096,3.73878c1.77563,2.95943 3.55127,5.91886 5.3269,8.87816l-0.20763,-1.70522c0,0 8.19444,4.09727 4.09728,12.29183z" fill="#a00000" fill-rule="nonzero" stroke="none" stroke-width="0.5" stroke-linecap="butt" stroke-linejoin="miter"/><path d="M398.95968,530.11812c-6.47828,-6.47841 0,-12.95669 0,-12.95669l4.85141,-3.80372c0.13597,-0.05452 0.2722,-0.10878 0.40818,-0.1633c-1.06905,-2.40571 -2.43689,-7.59862 3.2392,-11.3826c7.62309,-5.08202 12.70511,2.54107 12.70511,2.54107l2.40658,3.9305c4.75655,4.8154 9.28137,8.07348 10.62673,11.99008c1.36349,0.45462 2.58441,1.22118 3.57809,2.21486l7.10253,7.1024v0c1.65791,1.65804 2.68338,3.94839 2.68338,6.47841c0,3.58777 -2.06236,6.69386 -5.06612,8.19754l2.47004,5.76339c0.52702,1.15635 0.82057,2.44135 0.82057,3.79515c0,5.05992 -4.10188,9.16179 -9.16179,9.16179c-1.5387,0 -2.98886,-0.37937 -4.26207,-1.04969l-10.48888,-5.24445l0.04831,-0.09648l-0.35975,-0.06681c-6.50561,-3.94975 -12.63556,-8.63378 -18.05014,-13.98216c0,0 -5.16534,-5.16534 -1.65903,-10.88378c-0.6266,-0.4037 -1.25942,-0.91284 -1.89211,-1.54553zM414.92584,529.11475c-0.07178,-0.12703 -0.14368,-0.25419 -0.21533,-0.38147c-0.06085,0.02434 -0.12157,0.04855 -0.18242,0.07289c0.14902,0.11052 0.28213,0.21458 0.39774,0.30846z" fill="#ffffff" fill-rule="nonzero" stroke="none" stroke-width="0.5" stroke-linecap="butt" stroke-linejoin="miter"/><path d="M224.0984,203.85891c5.49703,-7.32941 12.82643,-1.83238 12.82643,-1.83238l1.05788,7.37511c1.17498,-2.55424 2.37902,-4.87502 3.34513,-6.53504c0,0 4.71359,-7.85618 12.56976,-3.14247c7.85617,4.71371 3.14246,12.56975 3.14246,12.56975c-10.208,16.3176 -6.63996,45.7738 -32.83362,22.23198c-2.49873,-2.24578 -3.49787,-5.72812 -5.1872,-8.64136l-6.49902,-6.49902l2.60502,-2.60503l-3.77528,-8.91678c3.26268,-0.09574 6.53901,-0.18552 9.80864,-0.35639l1.24265,-3.10658l1.04298,0.41724c0.19434,-0.31591 0.41203,-0.63567 0.65442,-0.95904z" fill="#8da900" fill-rule="nonzero" stroke="none" stroke-width="0.5" stroke-linecap="butt" stroke-linejoin="miter"/><path d="M105.98349,220.63323c0,0 6.42117,-6.42103 12.87064,-0.08518c1.61147,-2.62377 4.50756,-4.37371 7.81258,-4.37371c2.5299,0 4.82038,1.0256 6.47829,2.6835v0l3.58678,3.58678c2.15996,0.2265 4.3064,0.14106 6.4013,-0.41538l7.22969,-4.54917c0,0 6.60718,-3.96428 11.33852,1.43725c2.24354,-1.12307 6.35398,-2.30848 10.09933,1.28003c5.65362,-3.77429 13.49314,-8.3956 15.85019,-9.81968l6.48933,-1.30562c0,0 2.48047,0 4.86011,1.29071c0.23135,-0.90377 0.49983,-1.78805 0.83821,-2.63396c0,0 3.40263,-8.5065 11.90912,-5.10387c8.5065,3.4025 5.10387,11.909 5.10387,11.909c-0.53571,1.33939 -1.85374,4.71234 -3.34388,8.37002c1.38558,1.60539 2.22355,3.69655 2.22355,5.98355c0,1.91012 -0.58438,3.68376 -1.5844,5.15168c0.1736,3.52158 -2.10731,6.01087 -3.53388,7.21318c0.04483,0.03253 0.08965,0.06544 0.13423,0.09897c3.89475,1.05527 6.75968,4.61498 6.75968,8.84364c0,5.05991 -4.10188,9.16179 -9.16179,9.16179c-2.18965,0 -4.19998,-0.76817 -5.77606,-2.0497c-1.86206,-0.40247 -3.71617,-0.92078 -5.54085,-1.54913c-0.35491,0.0313 -0.72545,0.04769 -1.11239,0.04769c-4.29448,0 -6.57589,-2.01281 -7.788,-4.15167c-2.73243,-1.61631 -5.28704,-3.50308 -7.56845,-5.63424l-1.17013,-0.05948c0,0 -2.93745,-1.46879 -4.41555,-4.40636c-2.44483,-1.07949 -4.56929,-2.65867 -6.17219,-4.82683c-6.13071,7.59564 -3.57771,21.4088 -13.66699,25.44014c-14.06486,5.61984 -25.31435,-11.08097 -31.50789,-21.21347c-2.48196,2.27819 -4.92394,4.59226 -7.06727,7.18225c-3.37121,4.07381 -4.11379,12.12991 -9.35774,12.80929c-6.34641,0.82219 -18.68718,-12.90354 -23.26838,-17.54137l-0.32522,-1.11029l-0.30958,0.18577l-5.24941,-8.74902c-0.8767,-1.40509 -1.3831,-3.06486 -1.3831,-4.84285c0,-5.05991 4.10187,-9.16179 9.16178,-9.16179c0.49398,0 0.97878,0.03912 1.45166,0.11437l12.27334,1.7534l-0.03068,0.21458c3.12695,-0.18615 6.25663,-0.2994 9.38867,-0.3066l-2.92702,-0.86776zM145.29266,239.98029c-0.18354,0.0411 -0.36707,0.08307 -0.55086,0.12566c0.16466,0.26164 0.32659,0.51895 0.48479,0.77078c0.01093,-0.29095 0.03328,-0.59047 0.06606,-0.89644z" fill="#8da900" fill-rule="nonzero" stroke="none" stroke-width="0.5" stroke-linecap="butt" stroke-linejoin="miter"/><path d="M147.90737,268.37787c16.88695,-10.24438 21.07662,-10.00943 32.20329,-3.53599c4.97174,-3.68935 14.44138,-0.74917 22.28476,3.45317l2.66773,-4.05419c8.65974,-1.08607 18.08702,0.55793 25.75158,4.7322c0,0 7.85617,4.71371 3.14246,12.56988c-4.71371,7.85605 -12.56987,3.14247 -12.56987,3.14247c-0.34373,-0.24488 -0.70161,-0.47399 -1.07129,-0.68733c-1.38509,3.21934 -4.56258,5.48585 -8.27614,5.54297c-2.75454,2.21101 -5.44822,2.25012 -7.57851,1.62351l-8.27626,1.80419c-2.5972,-0.9301 -6.00256,-1.08135 -9.10455,-1.52479c-5.47517,6.9683 -12.64252,1.59272 -12.64252,1.59272l-1.60539,-3.49451c-7.34928,-0.02322 -14.89214,-0.58203 -22.1987,-2.0384l-0.61481,3.68936l-10.50516,-1.7508c-4.41617,-0.65591 -7.80414,-4.46323 -7.80414,-9.06182c0,-4.12137 2.72125,-7.6072 6.465,-8.75846l9.73264,-3.24417z" fill="#8da900" fill-rule="nonzero" stroke="none" stroke-width="0.5" stroke-linecap="butt" stroke-linejoin="miter"/><path d="M247.46028,243.48934c-5.72328,7.15407 -12.87746,1.43078 -12.87746,1.43078l-12.26552,-15.22184c5.22246,-4.18544 10.44493,-8.37077 15.66727,-12.55622c0,0 8.19469,-4.09741 12.29184,4.09715c2.90106,5.80213 -0.36024,9.55022 -2.51176,11.24415c1.67058,2.25273 3.44199,6.32269 -0.30436,11.00572z" fill="#a00000" fill-rule="nonzero" stroke="none" stroke-width="0.5" stroke-linecap="butt" stroke-linejoin="miter"/><path d="M226.38503,250.19487c0,9.16179 -9.16179,9.16179 -9.16179,9.16179h-3.55127c-4.48994,-0.05986 -8.88425,-1.23521 -13.09367,-3.06188l-0.96263,2.40671l-8.67998,-3.47191c-3.47949,-1.29916 -5.95723,-4.65311 -5.95723,-8.58572c0,-3.93262 2.47762,-7.28656 5.95723,-8.58572l8.67998,-3.47191l0.24314,0.60786l1.42693,-1.09786c4.12869,-0.05514 8.25753,-0.11027 12.38622,-0.16541c0,0 8.95019,0 9.15806,8.84625c1.9018,1.28773 3.55487,3.52643 3.55487,7.41807z" fill="#a00000" fill-rule="nonzero" stroke="none" stroke-width="0.5" stroke-linecap="butt" stroke-linejoin="miter"/><path d="M183.3002,272.62392c-2.89721,8.69165 -11.58886,5.79443 -11.58886,5.79443l-4.94654,-1.65791c-2.36113,-0.77612 -5.11641,-1.00039 -7.72504,-1.42992c-2.63756,3.55784 -7.51431,3.55797 -7.51431,3.55797h-14.20494c-1.54789,0 -3.00624,-0.38383 -4.28479,-1.0616c-0.27469,0.0457 -0.55011,0.09027 -0.82641,0.13374l-3.74573,0.75004c0,0 -8.98384,1.79674 -10.7807,-7.18709c-0.42519,-2.12631 -0.24662,-3.85004 0.27394,-5.24258c1.15263,-3.69743 4.48832,-5.12883 6.42463,-5.65895c-0.97866,-1.45774 -1.54963,-3.21226 -1.54963,-5.10015c0,-3.93262 2.47762,-7.28656 5.95723,-8.58572l8.67997,-3.47191l0.12927,0.32299l0.80468,-0.6394c9.00942,-1.51772 18.19107,-2.09552 27.32728,-2.11452c0,0 9.16179,0 9.16179,9.16179c0,0.58613 -0.03751,1.13462 -0.10767,1.6481c0.74955,0.87807 1.38422,2.01716 1.81376,3.49067c1.15822,1.53423 1.84505,3.44435 1.84505,5.51491c0,0.19347 -0.00596,0.38557 -0.01776,0.57606c2.15475,1.0405 7.17828,4.28802 4.87452,11.19919z" fill="#a00000" fill-rule="nonzero" stroke="none" stroke-width="0.5" stroke-linecap="butt" stroke-linejoin="miter"/><path d="M103.58373,262.90805c-5.05992,0 -9.16179,-4.10188 -9.16179,-9.16179c0,-5.05991 4.10187,-9.16179 9.16179,-9.16179c5.05992,0 9.16179,4.10188 9.16179,9.16179c0,5.05992 -4.10187,9.16179 -9.16179,9.16179z" fill="#a00000" fill-rule="nonzero" stroke="none" stroke-width="0.5" stroke-linecap="butt" stroke-linejoin="miter"/><path d="M187.30683,251.96528c0,4.57487 -2.28427,6.86536 -4.57177,8.01202c-0.06147,0.18615 -0.12852,0.3698 -0.20141,0.5506c1.42942,-0.07612 2.90529,-0.02396 4.43703,0.19807c3.30217,0.47884 6.42836,1.97606 9.57853,3.2366c9.97206,-0.06631 19.91543,0.15373 29.55157,0.15373h12.42943c5.05991,0 9.16179,4.10187 9.16179,9.16179c0,4.59859 -3.38797,8.40579 -7.80414,9.06182l-8.12192,1.35367c-0.67914,5.27425 -6.31896,7.15419 -6.31896,7.15419c-32.57359,10.85782 -56.60827,7.62532 -89.63301,2.1211l-10.50516,-1.7508c-4.41617,-0.65591 -7.80414,-4.46323 -7.80414,-9.06182c0,-1.37441 0.30262,-2.67816 0.84491,-3.84817c-2.71107,-0.63729 -6.94992,-2.63024 -6.94992,-8.86203c0,-5.76574 3.62838,-7.90286 6.31847,-8.69512c0.05961,-0.09375 0.12157,-0.18776 0.18565,-0.28214c-0.70943,-2.63942 -1.09116,-7.61775 4.7301,-10.52838c8.19456,-4.09728 12.29184,4.09728 12.29184,4.09728c0.53857,1.94489 1.57124,3.92418 2.55163,5.89973c1.34063,-1.6219 3.49215,-2.92341 6.94532,-2.92341c8.33364,0 9.08704,7.58025 9.15509,8.95068c1.5952,0.54874 3.15104,0.7858 4.68626,0.79636c0.83014,-0.14367 1.66275,-0.28027 2.4976,-0.41004c0.50627,-1.27631 1.29096,-2.41193 2.27905,-3.33172c0.55148,-3.65918 0.82616,-7.36529 0.8017,-11.05427l14.30317,-9.16179c0,0 9.16179,0 9.16179,9.16179zM149.13662,263.64641c1.11774,0.78568 2.21051,1.39999 3.28403,1.8674z" fill="#000000" fill-rule="nonzero" stroke="none" stroke-width="0.5" stroke-linecap="butt" stroke-linejoin="miter"/><path d="M158.60823,258.13473l-10.28275,2.05653" fill="none" fill-rule="nonzero" stroke="#001026" stroke-width="1.2" stroke-linecap="round" stroke-linejoin="miter"/><path d="M132.90111,263.27611l32.90502,-9.25455" fill="none" fill-rule="nonzero" stroke="#a00000" stroke-width="1.2" stroke-linecap="round" stroke-linejoin="miter"/><path d="M169.91919,243.73881l-12.3394,28.79197" fill="none" fill-rule="nonzero" stroke="#000000" stroke-width="1.2" stroke-linecap="round" stroke-linejoin="miter"/><path d="M145.24051,275.61564l-21.59395,-33.93335" fill="none" fill-rule="nonzero" stroke="#000000" stroke-width="1.2" stroke-linecap="round" stroke-linejoin="miter"/><path d="M285.23573,334.24405c1.01169,-9.10579 10.11747,-8.09397 10.11747,-8.09397l10.20824,1.18553c0.21868,0.36111 0.4376,0.72235 0.65628,1.08346l0.27555,-0.82653l9.05412,3.01817c2.82519,0.86888 5.06799,3.06709 5.99858,5.86471c10.32808,5.44002 20.65603,20.75512 8.21816,32.86653c-12.51065,12.18232 -45.08759,0.92898 -44.56132,-18.28297c0.09512,-3.46857 1.28028,-6.36081 3.19475,-8.69264c-1.94799,-1.4519 -3.62763,-3.92877 -3.16171,-8.12204z" fill="#a00000" fill-rule="nonzero" stroke="none" stroke-width="0.5" stroke-linecap="butt" stroke-linejoin="miter"/><path d="M310.79409,355.72897c-5.05991,0 -9.16179,-4.10187 -9.16179,-9.16179c0,-5.05991 4.10188,-9.16179 9.16179,-9.16179c5.05991,0 9.16179,4.10188 9.16179,9.16179c0,5.05991 -4.10187,9.16179 -9.16179,9.16179z" fill="#ffffff" fill-rule="nonzero" stroke="none" stroke-width="0.5" stroke-linecap="butt" stroke-linejoin="miter"/><path d="M163.74973,262.24779l-28.79198,7.19802l-7.19802,-16.45257" fill="none" fill-rule="nonzero" stroke="#000000" stroke-width="1.2" stroke-linecap="round" stroke-linejoin="miter"/><path d="M287.05072,418.54656c0,5.05991 -4.10187,9.16179 -9.16179,9.16179c-0.57656,0 -1.14071,-0.05327 -1.68772,-0.1551c1.62264,1.65294 2.62328,3.91846 2.62328,6.41769c0,5.05991 -4.10187,9.16179 -9.16179,9.16179c-1.68933,0 -3.27199,-0.45723 -4.63076,-1.25471c-1.17275,3.70823 -4.64105,6.39621 -8.73697,6.39621c-0.79487,0 -1.56614,-0.10121 -2.30153,-0.29145c-0.78593,4.26132 -4.52073,7.48947 -9.00955,7.48947c-5.05991,0 -9.16179,-4.10188 -9.16179,-9.16179c0,-0.39328 0.02484,-0.78083 0.07289,-1.16107c-4.65534,-0.43475 -8.29912,-4.35259 -8.29912,-9.12168c0,-5.05991 4.10188,-9.16179 9.16179,-9.16179c0.3934,0 0.78096,0.02484 1.16119,0.07289c0.43475,-4.65534 4.3526,-8.29912 9.12168,-8.29912c0.87919,0 1.72956,0.12393 2.53448,0.35515c1.13238,-3.77454 4.63336,-6.52486 8.77659,-6.52486c1.22875,0 2.401,0.2419 3.47167,0.68063c1.02435,-3.94081 4.60629,-6.85032 8.86773,-6.85032c1.00162,0 1.96563,0.16082 2.86779,0.45785c1.38993,-3.29024 4.64689,-5.59922 8.44329,-5.59922c5.05991,0 9.16179,4.10188 9.16179,9.16179c0,3.2017 -1.64227,6.01981 -4.13044,7.65786c0.01155,0.188 0.01738,0.37738 0.01738,0.56837zM269.66296,424.80952c0.57656,0 1.1407,0.05327 1.68771,0.1551c-0.11077,-0.11275 -0.21855,-0.22837 -0.32336,-0.34671c-0.11151,0.00398 -0.22364,0.00596 -0.33615,0.00596c-1.22875,0 -2.401,-0.2419 -3.47167,-0.68063c-0.11971,0.46046 -0.27431,0.90676 -0.46082,1.33604c0.91259,-0.30473 1.88901,-0.4699 2.90417,-0.4699zM259.85929,430.67014c0.36844,0.1556 0.72446,0.33479 1.06632,0.53546c0.09524,-0.30101 0.20552,-0.59531 0.33007,-0.88192c-0.4509,0.15051 -0.91719,0.26698 -1.39627,0.34633zM245.84646,437.18891c0.492,0.04595 0.9727,0.13064 1.43899,0.25134c0.03005,-0.1628 0.06432,-0.32399 0.10282,-0.48356c-0.11536,0.00435 -0.23135,0.00659 -0.34783,0.00659c-0.39327,0 -0.78084,-0.02484 -1.16108,-0.0729c-0.00931,0.09996 -0.02024,0.19955 -0.03278,0.29852z" fill="#e93e3e" fill-rule="nonzero" stroke="none" stroke-width="0.5" stroke-linecap="butt" stroke-linejoin="miter"/><path d="M415.58635,416.49029c0,5.05991 -4.10187,9.16179 -9.16179,9.16179c-1.33902,0 -2.61086,-0.28723 -3.75741,-0.80344c-1.53125,1.15015 -3.43453,1.83177 -5.49714,1.83177c-2.11315,0 -4.05916,-0.7154 -5.60916,-1.9172c-1.67393,1.8114 -4.06971,2.94553 -6.73037,2.94553c-2.49463,0 -4.75642,-0.99691 -6.4085,-2.61422c-1.57086,2.78807 -4.55923,4.67086 -7.98743,4.67086c-2.6953,0 -5.11877,-1.16381 -6.79519,-3.01643c-1.64599,2.44011 -4.43591,4.04476 -7.60073,4.04476c-4.00042,0 -7.4018,-2.5638 -8.65104,-6.13779c-1.57136,1.2665 -3.56964,2.02461 -5.74501,2.02461c-2.6917,0 -5.11244,-1.16082 -6.78861,-3.00923c-1.26153,3.55127 -4.65161,6.09408 -8.63564,6.09408c-2.11315,0 -4.05916,-0.7154 -5.60916,-1.9172c-1.67393,1.81127 -4.06971,2.94552 -6.73037,2.94552c-1.08234,0 -2.12085,-0.18776 -3.08485,-0.53235c-0.96387,0.3446 -2.00251,0.53235 -3.08485,0.53235c-0.83436,0 -1.64252,-0.11151 -2.41069,-0.32038c-1.39316,0.85534 -3.03257,1.3487 -4.78734,1.3487c-2.96179,0 -5.59525,-1.40533 -7.27005,-3.58566c-1.45165,0.96598 -3.19475,1.52902 -5.06935,1.52902c-5.05991,0 -9.16179,-4.10188 -9.16179,-9.16179c0,-5.05991 4.10188,-9.16179 9.16179,-9.16179c2.96179,0 5.59525,1.40533 7.27005,3.58567c1.45177,-0.96598 3.19475,-1.52902 5.06935,-1.52902c0.83436,0 1.64252,0.11151 2.41069,0.32038c1.39316,-0.85547 3.03257,-1.3487 4.78734,-1.3487c1.08234,0 2.12085,0.18763 3.08485,0.53223c0.96387,-0.3446 2.0025,-0.53223 3.08485,-0.53223c2.11315,0 4.05915,0.71539 5.60915,1.91719c1.67381,-1.81127 4.06959,-2.94552 6.73025,-2.94552c2.6917,0 5.11244,1.16082 6.78861,3.00923c1.26166,-3.55127 4.65161,-6.09408 8.63565,-6.09408c4.00029,0 7.4018,2.5638 8.65104,6.13779c1.57136,-1.2665 3.56964,-2.02461 5.74501,-2.02461c2.6953,0 5.11878,1.16381 6.79519,3.01643c1.64587,-2.44011 4.43591,-4.04476 7.60073,-4.04476c2.49463,0 4.75642,0.99703 6.4085,2.61433c1.57086,-2.78794 4.55922,-4.67086 7.98743,-4.67086c2.11315,0 4.05915,0.71539 5.60915,1.91719c1.67381,-1.81127 4.06972,-2.94552 6.73037,-2.94552c1.33902,0 2.61085,0.28723 3.7574,0.80344c1.53125,-1.15015 3.43454,-1.83177 5.49715,-1.83177c5.05991,0 9.16179,4.10188 9.16179,9.16179z" fill="#e93e3e" fill-rule="nonzero" stroke="none" stroke-width="0.5" stroke-linecap="butt" stroke-linejoin="miter"/><path d="M227.50314,431.8219c-5.05991,0 -9.16179,-4.10188 -9.16179,-9.16179c0,-4.76909 3.64366,-8.68705 8.29912,-9.1218c-0.04818,-0.38024 -0.0729,-0.76779 -0.0729,-1.16107c0,-5.05991 4.10188,-9.16179 9.16179,-9.16179c1.95855,0 3.77342,0.61456 5.26257,1.66127c-0.01875,-0.23942 -0.02831,-0.48144 -0.02831,-0.7257c0,-5.05991 4.10188,-9.16179 9.16179,-9.16179c1.81996,0 3.516,0.53062 4.9417,1.44556c1.39949,-3.26876 4.64528,-5.55874 8.42603,-5.55874c1.33927,0 2.61136,0.28735 3.75815,0.80381c1.30251,-3.47328 4.65323,-5.94531 8.58125,-5.94531c5.05991,0 9.16179,4.10188 9.16179,9.16179c0,5.05991 -4.10187,9.16179 -9.16179,9.16179c-1.33927,0 -2.61136,-0.28735 -3.75815,-0.80381c-1.30251,3.47328 -4.65323,5.94531 -8.58125,5.94531c-1.81984,0 -3.51588,-0.53062 -4.94157,-1.44557c-1.3995,3.26876 -4.6454,5.55874 -8.42615,5.55874c-1.95855,0 -3.77343,-0.61456 -5.26257,-1.66126c0.01875,0.23942 0.02831,0.48144 0.02831,0.7257c0,4.76909 -3.64365,8.68693 -8.29911,9.12168c0.04818,0.38036 0.07289,0.76792 0.07289,1.16119c0,5.05991 -4.10187,9.16179 -9.16179,9.16179z" fill="#e93e3e" fill-rule="nonzero" stroke="none" stroke-width="0.5" stroke-linecap="butt" stroke-linejoin="miter"/><path d="M448.58401,418.32279c-1.01205,0 -1.83238,-0.82045 -1.83238,-1.83238c0,-1.01205 0.82045,-1.83238 1.83238,-1.83238c1.01205,0 1.83239,0.82045 1.83239,1.83238c0,1.01205 -0.82045,1.83238 -1.83239,1.83238z" fill="#a00000" fill-rule="nonzero" stroke="none" stroke-width="0.5" stroke-linecap="butt" stroke-linejoin="miter"/><path d="M437.80492,382.54502c-1.01628,-1.52467 0.50826,-2.54107 0.50826,-2.54107l0.07128,-0.04744c2.0328,-1.35516 4.06562,-2.71045 6.09842,-4.06561c0,0 1.52466,-1.01628 2.54107,0.50826c1.01628,1.52467 -0.50826,2.54107 -0.50826,2.54107c-2.0328,1.35529 -4.1369,2.75801 -6.1697,4.11318c0,0 -1.52467,1.01628 -2.54107,-0.50826z" fill="#a00000" fill-rule="nonzero" stroke="none" stroke-width="0.5" stroke-linecap="butt" stroke-linejoin="miter"/><path d="M460.25111,391.81211c0,1.7344 -0.80331,3.2813 -2.05814,4.28877c1.4771,0.62648 3.08646,1.99146 3.08646,4.96579c0,5.49703 -5.49702,5.49702 -5.49702,5.49702l-1.15288,-0.07475c-0.62214,0.09909 -1.22962,0.21023 -1.82505,0.33069c-0.1926,0.6168 -0.49075,1.1869 -0.8736,1.68921c0.55545,0.06072 1.31505,0.3523 1.53522,1.45302c0.07165,0.3585 0.0575,0.65988 -0.01105,0.91259c0.02992,0.14268 0.04656,0.30051 0.04656,0.47498c0,1.83238 -1.83238,1.83238 -1.83238,1.83238h-1.02832c-0.91284,-0.03365 -1.84393,-0.20017 -2.741,-0.48603c-1.1797,0.12989 -2.41987,0.25581 -3.65446,0.40333c-0.00038,0.10009 0.00025,0.20229 0.00162,0.30685l-1.56503,2.32388c0,0 -0.20502,0.2049 -0.53335,0.3703c0.02732,0.12579 0.04172,0.25643 0.04172,0.39054c0,1.01205 -0.82045,1.83238 -1.83238,1.83238c-0.49547,0 -0.94512,-0.19682 -1.27494,-0.51633c-0.01105,0.07029 -0.02608,0.13921 -0.04496,0.20664c0.1135,0.31293 0.16367,0.6985 0.01142,1.11053c0.03676,0.14442 0.05613,0.29567 0.05613,0.45151c0,1.01205 -0.82045,1.83238 -1.83238,1.83238c-0.77351,0 -1.43488,-0.4792 -1.70385,-1.15685c-0.04371,-0.01738 -0.08656,-0.03638 -0.12853,-0.05687c-0.60897,-0.29791 -1.02832,-0.9234 -1.02832,-1.64699c0,-0.04805 0.00174,-0.09587 0.00547,-0.14318c-0.63729,-0.54577 -1.28811,-1.06384 -1.94029,-1.58017c-0.8705,0.43525 -1.74099,0.87049 -2.61148,1.30574c0,0 -1.63891,0.81946 -2.45837,-0.81945c-0.54229,-1.0847 -0.00782,-1.8104 0.41563,-2.17723c-0.14517,-0.30797 -0.27705,-0.61581 -0.39589,-0.92302c-0.90601,0 -1.81214,0 -2.71815,0v1.25247c0,0 0,0.74792 -0.47784,1.2881c0.52677,0.09686 1.50617,0.45711 1.50617,1.79674c0,1.83238 -1.83238,1.83238 -1.83238,1.83238h-1.02832c-1.02832,0 -2.05653,0 -3.08485,0c0,0 -1.83238,0 -1.83238,-1.83238c0,-1.83238 1.83238,-1.83238 1.83238,-1.83238c0.43462,0 1.05304,0 1.69976,0c-0.44729,-0.5367 -0.44729,-1.25246 -0.44729,-1.25246v-0.92004l-0.83486,-0.31703c-0.00261,-0.00509 -0.00509,-0.01031 -0.0077,-0.0154c-0.82219,0 -1.64438,0 -2.46657,0c0,0 -1.83238,0 -1.83238,-1.83238c0,-1.83238 1.83238,-1.83238 1.83238,-1.83238c0.45375,0 0.9183,0 1.3913,0c0.14454,-0.30672 0.41128,-0.60351 0.8741,-0.83486c0.71925,-0.35962 1.28066,-0.24587 1.68424,-0.00484c-0.35366,-1.27967 -0.30685,-2.33593 -0.03465,-3.20133c-1.34386,-1.00212 -2.21411,-2.60415 -2.21411,-4.40946c0,-3.03593 2.4611,-5.49703 5.49703,-5.49703c1.52342,0 2.90194,0.61965 3.8976,1.62066c0.07078,-0.00832 0.14268,-0.01254 0.21558,-0.01254c1.01205,0 1.83238,0.82045 1.83238,1.83238c0,0.27518 -0.0606,0.53608 -0.16926,0.77028c1.56838,-1.12593 3.47838,-1.12593 3.47838,-1.12593c2.42174,0.05365 4.64528,-0.30386 6.8112,-0.83758c-0.2044,-0.07439 -0.41861,-0.09972 -0.6415,-0.05924c0,0 -1.24664,0 -1.68337,-1.02832c-0.46716,0 -0.93432,0 -1.40148,0l0.26736,0.49162c0,0 -1.29568,1.29568 -2.59136,0c-1.29568,-1.29568 0,-2.59136 0,-2.59136l2.32388,-1.56502c1.71391,0 3.42771,0 5.1415,0c0,0 1.83238,0 1.83238,1.83238c0,0.38732 -0.08196,0.69279 -0.21098,0.93358c0.31331,0.27207 0.61171,0.56402 0.89347,0.86677c2.01405,-0.62002 4.05282,-1.26886 6.23203,-1.75266c-1.16641,-1.00808 -1.90453,-2.49823 -1.90453,-4.16086c0,-3.03593 2.4611,-5.49702 5.49703,-5.49702c3.03593,0 5.49703,2.4611 5.49703,5.49702zM437.27281,415.68648c0.49547,0 0.94513,0.19683 1.27495,0.51634c0.04284,-0.27121 0.14504,-0.52254 0.29306,-0.74048c-0.05265,-0.07749 -0.09935,-0.1592 -0.13983,-0.24439l-0.50963,-1.01951c-0.79636,0.23445 -1.51945,0.50926 -2.13736,0.83647c0.28089,0.22688 0.56067,0.4566 0.83821,0.69105c0.12282,-0.02596 0.25022,-0.03961 0.38073,-0.03961z" fill="#a00000" fill-rule="nonzero" stroke="none" stroke-width="0.5" stroke-linecap="butt" stroke-linejoin="miter"/><path d="M472.59014,384.61346l-0.05526,0.25084c0.34286,2.39938 0.68547,4.79864 1.02832,7.19802c0,0 0.06967,0.4874 0.02136,1.1915c0.02235,0.20166 0.0339,0.40657 0.0339,0.61419c0,3.03593 -2.4611,5.49702 -5.49703,5.49702c-3.03593,0 -5.49703,-2.4611 -5.49703,-5.49702c0,-0.16442 0.0072,-0.32721 0.02136,-0.48802c-0.33143,-2.32028 -0.66299,-4.64056 -0.99443,-6.96085l-0.05526,-1.80569c0,0 0,-5.49702 5.49703,-5.49702c5.49703,0 5.49702,5.49702 5.49702,5.49702z" fill="#a00000" fill-rule="nonzero" stroke="none" stroke-width="0.5" stroke-linecap="butt" stroke-linejoin="miter"/><path d="M567.0871,415.76248c-13.25261,-2.64823 -30.3,-26.3464 -45.33085,-23.58404c-0.99914,1.3379 -2.87822,2.80905 -6.01584,1.76322c-3.45677,-1.15226 -3.85837,-3.83216 -3.7363,-5.5082c-0.3554,-1.96538 0.33715,-3.35705 1.21894,-4.29758l0.18006,-0.53546c10.21718,-25.51018 17.67437,-52.03887 29.99962,-76.49415c3.16309,-6.276 5.70427,-27.8168 18.94409,-21.8782c5.25698,2.35803 2.78868,27.87454 2.78868,32.54727c0,16.10773 0.14144,32.22204 0,48.32928c-0.02235,2.54616 0.3482,11.84591 3.08783,13.57101c1.33505,0.84057 12.37131,-4.63485 14.05245,-5.30728c15.37284,-6.14921 31.93556,-2.99333 47.30107,-9.25455c10.56165,-4.14745 41.99106,-4.05779 26.17143,15.45865c-3.78522,4.66987 -17.45258,8.01276 -22.6332,12.34871c-20.10641,16.82797 -35.31769,27.60247 -60.42702,35.98218c0,0 -5.21489,1.73838 -6.95327,-3.47663c-1.73838,-5.21489 3.47663,-6.95327 3.47663,-6.95327c0.54328,-0.18093 1.08222,-0.36186 1.61694,-0.54303c-1.65257,-0.12914 -2.92776,-0.97927 -2.92776,-0.97927l-0.813,-1.18864z" fill="#ffffff" fill-rule="nonzero" stroke="none" stroke-width="0.5" stroke-linecap="butt" stroke-linejoin="miter"/><path d="M654.91865,360.70047c0.11834,0.08643 0.23532,0.17385 0.35043,0.26252l-1.70522,1.79413c0.00273,0.08605 0.00422,0.17348 0.00422,0.26239c0,1.22068 -0.27109,2.17039 -0.6928,2.90913c1.74583,-0.11872 3.55549,-0.17521 5.47865,-0.17994c0,0 5.49703,0 5.49703,5.49703c0,5.49703 -5.49703,5.49702 -5.49703,5.49702c-0.36397,-0.00099 -0.72185,-0.00012 -1.07402,0.00298l-7.10501,2.71927c-0.58873,0.43996 -1.30462,0.8048 -2.13215,1.09662c1.04211,0.71837 2.18393,1.52479 3.45204,2.42521l-11.19646,6.07657c-1.4745,-0.52341 -2.94899,-1.0467 -4.4235,-1.56999c-2.29197,3.34128 -5.10971,5.46858 -9.23617,4.67123c-4.6654,-0.90154 -7.87431,-5.32081 -11.8114,-7.98122l4.7183,-2.69369c-1.23421,-0.74582 -2.46842,-1.49151 -3.70251,-2.2372l5.14398,-3.03679c-1.03267,-0.36919 -2.04957,-0.76506 -3.04672,-1.18318l9.31254,-8.10441c2.00599,-0.19881 4.07741,0.0231 6.07905,0.56142c2.44148,-3.24467 5.36378,-6.15716 8.63167,-8.48266l-0.77227,-1.20243c1.10916,-0.35789 2.28377,-0.529 3.48098,-0.54129c1.09911,-0.63542 2.22975,-1.20428 3.38747,-1.69802l6.85877,5.13542z" fill="#a00000" fill-rule="nonzero" stroke="none" stroke-width="0.5" stroke-linecap="butt" stroke-linejoin="miter"/><path d="M567.19253,314.69023c0,5.49703 -5.49702,5.49703 -5.49702,5.49703l-0.83113,-0.02856c-1.00684,1.27022 -2.56342,2.08509 -4.31025,2.08509c-1.20826,0 -2.32538,-0.3898 -3.23262,-1.05043l-9.46143,2.83848c-0.53595,0.17435 -1.10793,0.2686 -1.702,0.2686c-3.03593,0 -5.49703,-2.4611 -5.49703,-5.49703c0,-2.35965 1.48667,-4.37184 3.57436,-5.15143l3.12223,-1.24899l-1.55522,-0.7976c1.67381,-1.40558 3.2556,-2.61508 4.73457,-3.62838c-0.397,-0.7601 -0.62152,-1.62451 -0.62152,-2.54145c0,-2.35965 1.48667,-4.37184 3.57437,-5.15143l2.43788,-0.97518c-1.16331,-1.00796 -1.89919,-2.49624 -1.89919,-4.15626c0,-0.70583 0.13312,-1.38062 0.37539,-2.00052c-0.45188,-1.9244 -0.14268,-3.47564 1.69616,-3.76125c-0.00981,-0.13473 -0.0149,-0.27071 -0.0149,-0.40793c0,-3.03593 2.4611,-5.49703 5.49703,-5.49703c0.34361,0 0.67976,0.03154 1.00585,0.0919l4.27051,0.71179l0.5367,-0.76245c0.20911,0.32212 0.41153,0.63976 0.60711,0.95307l0.56402,0.09401c2.6496,0.39364 4.68241,2.67804 4.68241,5.43717c0,1.22602 -0.40134,2.35816 -1.07974,3.27249c0.90464,3.35345 0.40842,5.59947 -1.14108,6.71248c-0.08295,3.46956 -2.64948,6.29189 -4.69955,9.24884c1.44544,0.19372 4.86383,1.11016 4.86383,5.44512z" fill="#a00000" fill-rule="nonzero" stroke="none" stroke-width="0.5" stroke-linecap="butt" stroke-linejoin="miter"/><path d="M664.52364,435.35504c-3.03593,0 -5.49702,-2.4611 -5.49702,-5.49703c0,-3.03593 2.4611,-5.49702 5.49702,-5.49702c3.03593,0 5.49703,2.4611 5.49703,5.49702c0,3.03593 -2.4611,5.49703 -5.49703,5.49703z" fill="#a00000" fill-rule="nonzero" stroke="none" stroke-width="0.5" stroke-linecap="butt" stroke-linejoin="miter"/><path d="M681.20073,480.64566l-1.72037,-3.53239c-3.57784,-5.43493 -6.31772,-11.41452 -8.74952,-17.44998c0,0 -2.04162,-5.104 3.06225,-7.1455c5.104,-2.04163 7.14549,3.06225 7.14549,3.06225c2.12296,5.35037 4.50074,10.67193 7.70294,15.45505l2.39268,4.69384c0,0 2.45836,4.91673 -2.45837,7.3751c-4.91674,2.45837 -7.3751,-2.45837 -7.3751,-2.45837z" fill="#a00000" fill-rule="nonzero" stroke="none" stroke-width="0.5" stroke-linecap="butt" stroke-linejoin="miter"/><path d="M688.17411,496.02384c-3.03593,0 -5.49702,-2.4611 -5.49702,-5.49703c0,-3.03593 2.4611,-5.49703 5.49702,-5.49703c3.03593,0 5.49703,2.4611 5.49703,5.49703c0,3.03593 -2.4611,5.49703 -5.49703,5.49703z" fill="#a00000" fill-rule="nonzero" stroke="none" stroke-width="0.5" stroke-linecap="butt" stroke-linejoin="miter"/><path d="M689.20244,517.61779c-3.03593,0 -5.49702,-2.4611 -5.49702,-5.49703c0,-3.03593 2.4611,-5.49703 5.49702,-5.49703c3.03593,0 5.49703,2.4611 5.49703,5.49703c0,3.03593 -2.4611,5.49703 -5.49703,5.49703z" fill="#a00000" fill-rule="nonzero" stroke="none" stroke-width="0.5" stroke-linecap="butt" stroke-linejoin="miter"/><path d="M651.15591,418.90246c-3.03593,0 -5.49702,-2.4611 -5.49702,-5.49703c0,-3.03593 2.46109,-5.49703 5.49702,-5.49703c3.03593,0 5.49703,2.4611 5.49703,5.49703c0,3.03593 -2.4611,5.49703 -5.49703,5.49703z" fill="#a00000" fill-rule="nonzero" stroke="none" stroke-width="0.5" stroke-linecap="butt" stroke-linejoin="miter"/><path d="M589.45891,328.41361c-3.03593,0 -5.49702,-2.4611 -5.49702,-5.49702c0,-3.03593 2.46109,-5.49703 5.49702,-5.49703c3.03593,0 5.49703,2.4611 5.49703,5.49703c0,3.03593 -2.4611,5.49702 -5.49703,5.49702z" fill="#a00000" fill-rule="nonzero" stroke="none" stroke-width="0.5" stroke-linecap="butt" stroke-linejoin="miter"/><path d="M605.91149,342.80966c-3.03593,0 -5.49703,-2.4611 -5.49703,-5.49702c0,-3.03593 2.4611,-5.49703 5.49703,-5.49703c3.03593,0 5.49703,2.4611 5.49703,5.49703c0,3.03593 -2.4611,5.49702 -5.49703,5.49702z" fill="#a00000" fill-rule="nonzero" stroke="none" stroke-width="0.5" stroke-linecap="butt" stroke-linejoin="miter"/><path d="M619.27909,360.29043c-3.03593,0 -5.49702,-2.4611 -5.49702,-5.49702c0,-3.03593 2.4611,-5.49703 5.49702,-5.49703c3.03593,0 5.49703,2.4611 5.49703,5.49703c0,3.03593 -2.4611,5.49702 -5.49703,5.49702z" fill="#a00000" fill-rule="nonzero" stroke="none" stroke-width="0.5" stroke-linecap="butt" stroke-linejoin="miter"/><path d="M346.47625,-49.90794c0,-5.07556 2.0636,-9.66893 5.39743,-12.98724c-1.62239,-3.68252 -2.02796,-8.45385 0.61345,-14.39692c4.21301,-9.47931 11.40744,-11.20714 16.85728,-10.9219c2.03864,-7.09707 8.25093,-12.42831 15.80957,-13.16693l19.72245,-2.19138l0.29989,2.6994l6.05545,-2.29209c29.38815,18.4978 83.14517,58.34827 15.66181,75.87127c-2.32177,0.60301 -4.57239,0.97269 -6.76092,1.13934c-3.33532,3.48123 -8.03102,5.6489 -13.23287,5.6489c-9.31999,0 -17.01485,-6.95836 -18.17294,-15.96331c-2.55212,-1.6481 -5.07718,-3.38065 -7.60198,-5.10996c-3.03294,5.93276 -9.20488,9.99416 -16.32529,9.99416c-10.11983,0 -18.32358,-8.20375 -18.32358,-18.32358z" fill="#ffffff" fill-rule="nonzero" stroke="none" stroke-width="0.5" stroke-linecap="butt" stroke-linejoin="miter"/><path d="M429.05764,1.65234c-9.52576,0 -17.35386,-7.26881 -18.24,-16.56247c-1.91769,0.68112 -3.98254,1.0518 -6.13381,1.0518c-7.68977,0 -14.27323,-4.73692 -16.99151,-11.45202c-3.80359,-0.77922 -7.17779,-2.73702 -9.7242,-5.47517c-3.0553,2.28153 -6.84635,3.63248 -10.95282,3.63248c-10.11983,0 -18.32358,-8.20375 -18.32358,-18.32358c0,-10.11983 8.20375,-18.32357 18.32358,-18.32357c5.30057,0 10.07538,2.25061 13.421,5.84832c3.0553,-2.28153 6.84635,-3.63248 10.95282,-3.63248c7.68977,0 14.27324,4.73693 16.99151,11.45202c7.78762,1.59533 13.77478,8.13123 14.5432,16.18932c1.91769,-0.68112 3.98253,-1.0518 6.13381,-1.0518c10.11983,0 18.32358,8.20375 18.32358,18.32358c0,10.11983 -8.20375,18.32357 -18.32358,18.32357z" fill="#a00000" fill-rule="nonzero" stroke="none" stroke-width="0.5" stroke-linecap="butt" stroke-linejoin="miter"/></g><path d="M-94.5,-56.79166v-6.41667h20.16666v6.41667z" fill="#000000" fill-rule="nonzero" stroke="none" stroke-width="0" stroke-linecap="butt" stroke-linejoin="miter"/><path d="M-142.5,-8v-13h1v13z" fill="#000000" fill-rule="nonzero" stroke="none" stroke-width="0" stroke-linecap="butt" stroke-linejoin="miter"/></g></g></svg>