<svg version="1.1" xmlns="http://www.w3.org/2000/svg" xmlns:xlink="http://www.w3.org/1999/xlink" width="18.55521" height="55.38974" viewBox="0,0,18.55521,55.38974"><defs><linearGradient x1="343.85868" y1="192.59648" x2="343.85868" y2="200.05301" gradientUnits="userSpaceOnUse" id="color-1"><stop offset="0" stop-color="#cbcbcb"/><stop offset="1" stop-color="#5b5b5b"/></linearGradient><radialGradient cx="342.79569" cy="219.10687" r="4.44597" gradientUnits="userSpaceOnUse" id="color-2"><stop offset="0" stop-color="#fcb520"/><stop offset="1" stop-color="#927d1d"/></radialGradient><linearGradient x1="348.3099" y1="220.9289" x2="348.3099" y2="234.4451" gradientUnits="userSpaceOnUse" id="color-3"><stop offset="0" stop-color="#c08d66"/><stop offset="1" stop-color="#70481a"/></linearGradient><linearGradient x1="350.45532" y1="213.09808" x2="356.34243" y2="213.09808" gradientUnits="userSpaceOnUse" id="color-4"><stop offset="0" stop-color="#c08d66"/><stop offset="1" stop-color="#70481a"/></linearGradient></defs><g transform="translate(-338.79151,-178.38342)"><g data-paper-data="{&quot;isPaintingLayer&quot;:true}" fill-rule="nonzero" stroke-width="2" stroke-linecap="butt" stroke-linejoin="miter" stroke-miterlimit="10" stroke-dasharray="" stroke-dashoffset="0" style="mix-blend-mode: normal"><path d="M345.37792,206.03443l-4.12715,-3.35444l1.78316,-10.3831l2.97188,4.96707z" fill="url(#color-1)" stroke="#cacaca"/><path d="M342.83364,214.66106c1.65902,0.01416 2.98693,2.0161 2.96597,4.47145c-0.02096,2.45535 -1.38286,4.43433 -3.04188,4.42016c-1.65902,-0.01416 -2.98693,-2.01609 -2.96597,-4.47145c0.02096,-2.45535 1.38286,-4.43433 3.04188,-4.42016z" fill="url(#color-2)" stroke="#827723"/><path d="M348.52444,232.72875l-4.71994,-10.72714l10.5126,-1.07272l0.64362,11.37077z" fill="url(#color-3)" stroke="#834423"/><path d="M343.8045,222.21615l2.35997,-42.47948l5.21145,1.69662l4.96652,13.53592l-0.85817,35.61412l-7.21561,-7.84829z" fill="url(#color-4)" stroke="#834423"/></g></g></svg>