<svg version="1.1" xmlns="http://www.w3.org/2000/svg" xmlns:xlink="http://www.w3.org/1999/xlink" width="980.48048" height="630.63063" viewBox="0,0,980.48048,630.63063"><g transform="translate(145.24024,130.31528)"><g data-paper-data="{&quot;isPaintingLayer&quot;:true}" stroke-miterlimit="10" stroke-dasharray="" stroke-dashoffset="0" style="mix-blend-mode: normal"><path d="M-145.24024,500.31535v-630.63063h980.48048v630.63063z" fill="#000000" fill-rule="nonzero" stroke="#ff3838" stroke-width="0" stroke-linecap="butt" stroke-linejoin="miter"/><text transform="translate(304.71471,259.28905) scale(0.5,0.5)" font-size="40" xml:space="preserve" fill="#ffffff" fill-rule="nonzero" stroke="none" stroke-width="1" stroke-linecap="butt" stroke-linejoin="miter" stroke-miterlimit="10" stroke-dasharray="" stroke-dashoffset="0" font-family="Marker" font-weight="normal" text-anchor="start" style="mix-blend-mode: normal"><tspan x="0" dy="0">Loading</tspan></text><g><path d="M336.36097,173.456c-0.44876,0.25723 -3.73966,-1.60796 -5.44363,-1.28367c-1.20229,0.26732 -2.65377,0.68874 -3.84462,1.81008c-2.72999,2.49857 -2.75172,1.49334 -4.67481,0.46399c-1.97333,-1.0287 -2.78902,-2.52448 3.31282,-4.61602c2.10047,-0.73157 4.00943,-0.75714 5.56742,-0.72778c0.40188,-0.00537 3.87286,0.29984 5.1014,1.99172c1.22855,1.69187 0.38061,2.15542 -0.0186,2.36176z" fill="#000000" fill-rule="evenodd" stroke="#001026" stroke-width="1.2" stroke-linecap="round" stroke-linejoin="round"/><path d="M339.28537,167.87742c0.86209,0.5914 1.78652,2.08634 0.19714,3.46425c-1.8372,1.63244 -4.17291,-0.19531 -5.18773,-0.9354c-1.01483,-0.74009 -1.52323,-1.18546 -3.69817,-2.26171c-0.86007,-0.44068 -1.97064,-0.82775 -2.57618,-1.02062c-0.25183,-0.04687 -0.50303,-0.04352 -0.75286,0.06034c-0.44941,0.20699 4.43423,1.46707 3.47034,0.77657c-0.97221,-0.83362 -1.56392,0.19738 -0.27195,-1.30812c0.14841,-0.17297 -0.30729,0.25854 -0.17069,0.05938c1.28514,-1.87396 -0.48925,-1.40597 0.82707,-1.00314c2.7744,0.81699 3.38784,-0.6746 2.54999,0.5425c-0.09776,0.20231 0.01259,0.93892 0.21419,0.98645l-0.8046,-2.37343c0.58013,0.17505 -0.69613,-0.57855 -0.15596,-0.37041c0.59958,0.23104 2.03197,1.07472 2.57121,1.32614c2.31252,1.07819 3.15609,1.64791 3.78822,2.05722z" fill="#000000" fill-rule="evenodd" stroke="#001026" stroke-width="1.2" stroke-linecap="round" stroke-linejoin="round"/><path d="M346.9293,178.46939c-0.84393,0.76497 -2.55665,0.43621 -2.62573,-0.96969c-0.01748,-1.30613 1.01928,-2.67663 1.61132,-3.48847c0.59206,-0.81185 3.36555,-3.81346 6.85268,-2.30259c1.46694,0.73403 4.92065,3.50147 3.13438,5.18346c-1.78626,1.68201 -3.47165,-0.35546 -4.69146,-1.39422c-1.01683,-0.89079 -4.03275,2.76724 -4.28124,2.97157z" fill="#000000" fill-rule="evenodd" stroke="#001026" stroke-width="1.2" stroke-linecap="round" stroke-linejoin="round"/><g fill-rule="evenodd"><path d="M342.98099,170.48311c0.60888,0.44406 1.22183,1.18952 2.04106,2.33415c0.66583,0.94574 1.39405,2.79503 1.39405,2.79503c0.46894,1.24983 0.80265,3.65712 -0.85578,3.62908c-1.10586,-0.03541 -2.10856,0.12875 -3.81321,0.40279c-3.00607,0.64322 -3.55326,1.0525 -4.83678,-0.99034c-1.38868,-2.39313 -4.87849,-4.10496 -0.66431,-8.33171c0,0 2.436,-1.94194 5.36084,-4.89532c1.98319,-1.98611 5.11035,-4.84172 6.20273,-5.811c0.24849,-0.2043 0.54855,-0.30882 0.84929,-0.36309c4.86682,-0.5174 8.49053,-0.0635 8.51945,2.09663c0.04846,3.61698 -7.15208,2.45732 -7.15208,2.45732c0,0 -2.2846,1.99017 -3.32677,2.95876z" fill="#000000" stroke="#001026" stroke-width="1.2" stroke-linecap="round" stroke-linejoin="round"/><path d="M345.2364,173.81931c0,0 0.97131,1.24312 -1.17067,2.62841c-2.24108,1.48712 -3.11664,-0.10898 -4.03703,-1.30252c-1.02557,-1.54386 -0.03096,-2.31084 0.96163,-3.22856c0.79369,-0.76429 1.53912,-1.37724 1.53912,-1.37724c0,0 1.57144,1.03408 2.70691,3.27986z" fill="#a00000" stroke="none" stroke-width="1" stroke-linecap="butt" stroke-linejoin="miter"/></g><g fill-rule="evenodd"><path d="M347.02606,204.44466c-1.15272,0.21643 -2.35704,0.33306 -3.76498,0.25143c-2.36243,-0.06882 -4.63449,-0.89255 -4.63449,-0.89255l-6.02534,4.05005c-0.19959,0.10317 -0.45281,-0.04419 -0.40525,-0.24579l0.93448,-9.00634c0.30679,0.39783 -5.41114,-6.35883 -1.92112,-12.13352c3.49001,-5.77467 11.0413,-8.43831 20.51052,-6.70612c9.46922,1.73219 11.75229,7.12805 11.18782,9.99955c-0.56445,2.87152 -4.11708,3.97425 -4.11708,3.97425c0,0 -0.01995,2.26129 -1.59047,5.04579c-0.93227,1.67056 -4.11573,4.07473 -4.11573,4.07473l-1.23412,5.39274c-0.04756,0.20162 -0.29806,0.25522 -0.45012,0.15675z" fill="#000000" stroke="#001026" stroke-width="1.2" stroke-linecap="butt" stroke-linejoin="miter"/><path d="M358.63723,193.5367c-4.25722,1.01169 -4.70155,-2.14777 -8.32187,-2.3505c-4.22384,-0.24489 -9.9397,4.40398 -13.37751,-0.92618c-3.43715,-5.2799 2.24306,-12.59127 14.43376,-10.24232c9.36809,1.6833 11.84871,6.82527 11.28425,9.6968c-0.56445,2.87151 -4.01862,3.82219 -4.01862,3.82219z" fill="#000000" stroke="none" stroke-width="1" stroke-linecap="butt" stroke-linejoin="miter"/><path d="M342.74092,188.37349c-0.18369,-2.45954 0.22537,-5.68068 4.79006,-6.24429c5.27068,-0.37206 7.23014,3.37004 7.70045,4.72035c0.10383,0.24982 -0.09375,0.50372 -0.3456,0.45682c-0.75555,-0.1406 -2.36511,-0.26979 -5.07583,-0.08274c-3.01143,0.24135 -5.71342,1.08145 -6.66319,1.44588c-0.20026,0.05294 -0.40322,-0.09509 -0.4059,-0.29603z" fill="#000000" stroke="#001026" stroke-width="1.2" stroke-linecap="round" stroke-linejoin="round"/><path d="M361.86888,190.98115c0,0 3.61765,0.00177 6.0043,1.87911" fill="none" stroke="#001026" stroke-width="1.2" stroke-linecap="round" stroke-linejoin="round"/><path d="M362.03012,188.01456c0,0 1.9464,-0.98073 5.11463,-0.77197" fill="none" stroke="#001026" stroke-width="1.2" stroke-linecap="round" stroke-linejoin="round"/><path d="M347.81231,191.87291c-0.01077,-0.80378 2.08232,-2.08792 2.9879,-1.99957c0.80445,0.03947 1.57682,1.43597 1.53603,2.13993c-0.04553,0.35233 -1.14937,0.46761 -2.20434,0.48174c-1.00471,0.01345 -2.36175,-0.0186 -2.31959,-0.6221z" fill="#001026" stroke="#000000" stroke-width="1.2" stroke-linecap="round" stroke-linejoin="round"/><path d="M333.57472,190.50607c-1.7374,1.58086 -6.03882,3.04534 -6.03882,3.04534" fill="none" stroke="#001026" stroke-width="1.2" stroke-linecap="round" stroke-linejoin="round"/><path d="M327.82022,188.52314c0,0 3.71004,-0.6024 5.88162,0.22267" fill="none" stroke="#001026" stroke-width="1.2" stroke-linecap="round" stroke-linejoin="round"/><g fill="#a00000"><path d="M350.94625,200.77449c-1.41873,-0.8854 -1.40279,-3.4481 0.02375,-5.72822c1.47679,-2.28078 3.77349,-3.36671 5.1922,-2.48133c1.41873,0.8854 1.40279,3.4481 -0.02375,5.72822c-1.42658,2.28015 -3.77283,3.41695 -5.1922,2.48133z" stroke="#001026" stroke-width="1.2" stroke-linecap="round" stroke-linejoin="round"/><path d="M355.89915,195.43243c0.00741,0.55257 -0.38842,1.0101 -0.89079,1.01683c-0.50238,0.00674 -0.91031,-0.44002 -0.91771,-0.99261c-0.00741,-0.55257 0.38842,-1.0101 0.89079,-1.01683c0.50238,-0.00674 0.91031,0.44002 0.91771,0.99261" stroke="none" stroke-width="1" stroke-linecap="butt" stroke-linejoin="miter"/></g><g><path d="M343.66115,197.05347c-1.47746,2.23059 -3.82237,3.46786 -5.39516,2.33329c-1.57212,-1.08433 -1.51,-3.9491 0.01768,-6.18035c1.47746,-2.23059 3.6784,-2.96348 5.34896,-2.03122c1.36916,0.93631 1.506,3.64769 0.02852,5.87826z" fill="#ffffff" stroke="#001026" stroke-width="1.2" stroke-linecap="round" stroke-linejoin="round"/><path d="M343.32067,194.14387c0.00741,0.55257 -0.3891,0.95986 -0.89079,1.01683c-0.50238,0.00674 -0.91031,-0.44002 -0.91771,-0.99261c-0.00741,-0.55257 0.38842,-1.0101 0.89079,-1.01683c0.50238,-0.00674 0.91031,0.44002 0.91771,0.99261" fill="#001026" stroke="none" stroke-width="1" stroke-linecap="butt" stroke-linejoin="miter"/></g></g><path d="M343.91898,192.65732c0,0 0.1355,-0.07005 0.30748,-0.07432c0.01071,-0.17858 -0.00221,-0.38376 -0.0537,-0.65448c-0.0127,-0.78801 -0.02325,-1.57602 -0.03381,-2.36408l-0.116,-0.48389c0,0 -0.1314,-0.61412 0.4827,-0.74551c0.61411,-0.13139 0.74551,0.4827 0.74551,0.4827l0.1437,0.72986c0.01009,0.7535 0.02042,1.50698 0.02816,2.26053c0.27075,1.57299 -0.24818,3.7021 -0.6827,5.09749c-0.35096,1.12712 -1.56018,1.59849 -1.90972,2.82521c-0.12938,0.45405 0.2242,0.94152 0.15233,1.40815c-0.03682,0.23911 -0.32924,0.39024 -0.36016,0.63022c-0.16342,1.26847 0.15529,1.46731 -0.69722,2.58049c0,0 -0.38572,0.49559 -0.8813,0.10988c-0.49559,-0.38572 -0.10988,-0.8813 -0.10988,-0.8813c1.0543,-1.32742 0.32119,-2.68011 0.6814,-4.16646c0.24703,-1.01928 0.98518,-1.85114 1.7102,-2.49038c0.02883,-0.02543 0.05384,-0.05 0.07543,-0.07387c-0.12223,-0.05613 -0.19992,-0.13175 -0.19992,-0.13175c-0.16446,-0.16011 -0.32887,-0.3202 -0.49331,-0.48028l-0.19151,-0.56325c0,0 -0.00842,-0.62794 0.61952,-0.63636c0.41977,-0.00563 0.56266,0.27312 0.61132,0.45856c0.00498,0.00486 0.00998,0.0097 0.01494,0.01453c0.09794,-0.0933 0.19714,-0.18607 0.24398,-0.30801c0.12971,-0.33804 -0.01878,-0.71748 -0.04965,-1.08485c-0.16562,0.09788 -0.34467,0.10026 -0.34467,0.10026l-0.41845,-1.1842c0.24177,-0.12497 0.48354,-0.24991 0.72531,-0.37487z" fill="#a00000" fill-rule="nonzero" stroke="none" stroke-width="0.5" stroke-linecap="butt" stroke-linejoin="miter"/><path d="M346.69138,187.9406c0.61411,-0.13139 0.74551,0.4827 0.74551,0.4827l0.10882,0.53171c0.08917,0.25799 0.17835,0.51599 0.26753,0.77398c0.12473,0.70068 0.61318,1.56015 0.53294,2.27423c-0.06959,0.61934 -0.54256,1.37384 -0.7338,1.97547c-0.53018,1.66804 -1.07244,3.57704 -1.36822,5.29237c-0.26267,1.52331 0.18201,3.65474 0.20318,5.23429c0,0 0.00842,0.62794 -0.61952,0.63636c-0.62794,0.00842 -0.63636,-0.61952 -0.63636,-0.61952c-0.02257,-1.68519 -0.45386,-3.83535 -0.1837,-5.47209c0.29202,-1.76911 0.86296,-3.74504 1.4091,-5.45639c0.01768,-0.05537 0.65949,-1.57866 0.67771,-1.69512c0.07541,-0.48201 -0.40812,-1.36925 -0.49609,-1.85052c-0.07961,-0.22663 -0.15922,-0.45328 -0.23885,-0.67992l-0.15088,-0.68202c0,0 -0.1314,-0.61412 0.4827,-0.74551z" fill="#a00000" fill-rule="nonzero" stroke="none" stroke-width="0.5" stroke-linecap="butt" stroke-linejoin="miter"/><path d="M357.51408,181.15093c0.44998,0.43809 0.01191,0.88807 0.01191,0.88807l-0.36804,0.3351c-0.23596,2.1551 -0.48568,4.37229 -0.82493,6.51899c-0.26671,1.68779 0.73634,3.34512 -1.18151,4.27174c0,0 -0.57992,0.24102 -0.82095,-0.33889c-0.24103,-0.57991 0.33888,-0.82093 0.33888,-0.82093c0.85171,-0.23582 0.4303,-1.72392 0.42423,-2.46561c-0.02066,-2.51885 0.4837,-5.24888 0.9399,-7.72503l0.59251,-0.65155c0,0 0.43807,-0.44996 0.88807,-0.01191z" fill="#a00000" fill-rule="nonzero" stroke="none" stroke-width="0.5" stroke-linecap="butt" stroke-linejoin="miter"/><path d="M359.02459,181.67708c0.62794,-0.00842 0.63636,0.61952 0.63636,0.61952l-0.00063,0.59014c-0.34759,2.27273 -0.36689,4.52363 -0.8959,6.76567c-0.32994,1.39842 -1.19441,2.69852 -1.393,4.09828c0,0 -0.09493,0.62079 -0.71572,0.52585c-0.62079,-0.09493 -0.52585,-0.71572 -0.52585,-0.71572c0.23647,-1.46426 1.07439,-2.76299 1.41693,-4.21648c0.51875,-2.20115 0.53029,-4.41327 0.87196,-6.64748l-0.01368,-0.38345c0,0 -0.00842,-0.62794 0.61952,-0.63636z" fill="#a00000" fill-rule="nonzero" stroke="none" stroke-width="0.5" stroke-linecap="butt" stroke-linejoin="miter"/><path d="M339.75767,196.552c0.6163,-0.12061 0.73693,0.4957 0.73693,0.4957l0.02012,0.1028c0.20009,1.96624 0.11421,2.02047 -1.7191,2.35592c0,0 -0.61801,0.11155 -0.72955,-0.5065c-0.11155,-0.61801 0.5065,-0.72955 0.5065,-0.72955c0.33656,-0.05979 1.00939,0.26225 1.02243,-0.07934c0.01093,-0.28591 -0.20861,-0.5329 -0.31292,-0.79933l-0.02012,-0.1028c0,0 -0.12061,-0.6163 0.4957,-0.73693z" fill="#a00000" fill-rule="nonzero" stroke="none" stroke-width="0.5" stroke-linecap="butt" stroke-linejoin="miter"/><path d="M340.34866,194.48414c0.00842,0.62794 -0.61952,0.63636 -0.61952,0.63636l-0.12173,0.00161c-0.48681,0.00652 -0.97362,0.01304 -1.46042,0.01956c0,0 -0.62794,0.00842 -0.63636,-0.61952c-0.00842,-0.62794 0.61952,-0.63636 0.61952,-0.63636c0.48679,-0.00653 1.09533,-0.01467 1.58209,-0.02121c0,0 0.62794,-0.00842 0.63636,0.61952z" fill="#a00000" fill-rule="nonzero" stroke="none" stroke-width="0.5" stroke-linecap="butt" stroke-linejoin="miter"/><path d="M342.09015,192.83564c-0.43809,0.44997 -0.88807,0.01191 -0.88807,0.01191l-0.28365,-0.76064c0.07787,-0.2445 0.15574,-0.489 0.23362,-0.73345c0,0 0.19061,-0.59838 0.78899,-0.40777c0.59838,0.19059 0.40778,0.78897 0.40778,0.78897c-0.04385,0.13774 -0.08774,0.27547 -0.1316,0.41321c0.08235,0.16984 0.127,0.4268 -0.12708,0.68782z" fill="#a00000" fill-rule="nonzero" stroke="none" stroke-width="0.5" stroke-linecap="butt" stroke-linejoin="miter"/><path d="M326.79704,166.53223c0.49732,-0.38348 0.8808,0.11382 0.8808,0.11382l-0.03074,0.24461c0.37085,0.05789 0.73644,0.08221 1.10204,0.10448c0.09408,-0.06851 0.17859,-0.09794 0.17859,-0.09794c0.22116,-0.0757 0.4339,-0.18308 0.66345,-0.22712c0.08742,-0.01676 0.27164,0.13812 0.26242,0.04959c-0.02752,-0.26346 -0.50416,-0.51987 -0.33262,-0.72174c0.31413,-0.36968 0.89679,-0.38122 1.36797,-0.49662c0.26466,-0.06481 0.86316,0.39162 0.80787,0.12482c-0.04435,-0.21392 -0.38643,-0.43338 -0.25155,-0.60525c0.57036,-0.72689 2.04576,-1.06868 2.42137,0.25994c0.10952,0.38745 -0.43499,0.67764 -0.65252,1.01649l-0.56327,0.19151c0,0 -0.12192,0.00163 -0.25902,-0.05026c-0.15042,0.10725 -0.34641,0.20818 -0.59271,0.29378c-0.25333,0.08805 -0.54059,0.06921 -0.8043,0.02054c-0.1326,-0.02451 -0.37351,-0.35888 -0.33257,-0.2304c0.06459,0.2026 0.49528,0.289 0.41388,0.48549c-0.11277,0.27217 -0.3273,0.46754 -0.5811,0.61738c0.00594,0.05801 0.00445,0.12231 -0.00645,0.19347c-0.09493,0.62079 -0.71572,0.52585 -0.71572,0.52585c-0.77883,-0.12159 -1.53444,-0.09512 -2.31557,-0.21243l-0.774,-0.71922c0,0 -0.38348,-0.49732 0.11382,-0.8808z" fill="#a00000" fill-rule="nonzero" stroke="none" stroke-width="0.5" stroke-linecap="butt" stroke-linejoin="miter"/><path d="M327.77369,162.68241c0.43809,-0.44997 0.88807,-0.01191 0.88807,-0.01191l0.46607,0.47989c0.12441,0.20119 0.24883,0.4024 0.37326,0.60362c0,0 0.33029,0.53415 -0.20384,0.86442c-0.53415,0.33029 -0.86442,-0.20384 -0.86442,-0.20384c-0.12442,-0.20121 -0.24884,-0.40243 -0.37326,-0.60362l-0.27393,-0.24052c0,0 -0.44997,-0.43809 -0.01191,-0.88807z" fill="#a00000" fill-rule="nonzero" stroke="none" stroke-width="0.5" stroke-linecap="butt" stroke-linejoin="miter"/><path d="M329.6577,160.32013l0.13149,0.72858c0,0 0.11155,0.61801 -0.5065,0.72955c-0.61801,0.11155 -0.72955,-0.5065 -0.72955,-0.5065l-0.13149,-0.72858c0,0 -0.11155,-0.61801 0.5065,-0.72955c0.61801,-0.11155 0.72955,0.5065 0.72955,0.5065z" fill="#a00000" fill-rule="nonzero" stroke="none" stroke-width="0.5" stroke-linecap="butt" stroke-linejoin="miter"/><path d="M322.89725,161.81548c0.27328,-0.56542 0.83872,-0.29213 0.83872,-0.29213l0.50586,0.35357c0.12442,0.20121 0.24884,0.40243 0.37326,0.60362c0,0 0.10023,0.1621 0.10097,0.36292c0.21333,0.09802 0.36274,0.31218 0.36612,0.56256c0.00463,0.34682 -0.27272,0.63172 -0.61952,0.63636c-0.34682,0.00463 -0.63172,-0.27272 -0.63636,-0.61952c-0.00013,-0.00978 -0.00003,-0.01952 0.00029,-0.02918c-0.17943,-0.09038 -0.27973,-0.25257 -0.27973,-0.25257c-0.12442,-0.20121 -0.24884,-0.40243 -0.37326,-0.60362l0.0158,0.11669c0,0 -0.5654,-0.27331 -0.29213,-0.83872z" fill="#a00000" fill-rule="nonzero" stroke="none" stroke-width="0.5" stroke-linecap="butt" stroke-linejoin="miter"/><path d="M332.11665,166.15418c0.44997,0.43809 0.01191,0.88807 0.01191,0.88807l-0.32904,0.26515c-0.00928,0.00386 -0.01855,0.00771 -0.02785,0.01155c0.07548,0.16391 0.17401,0.51856 -0.21155,0.78314c-0.51781,0.35531 -0.87315,-0.16249 -0.87315,-0.16249l-0.16856,-0.26718c-0.33045,-0.32568 -0.64354,-0.54483 -0.73937,-0.81204c-0.09387,-0.02992 -0.17825,-0.08134 -0.24728,-0.14851l-0.49332,-0.4803v0c-0.11517,-0.11212 -0.18755,-0.26814 -0.18989,-0.44157c-0.0033,-0.2459 0.1352,-0.46068 0.33969,-0.56651l-0.17458,-0.39275c-0.03717,-0.07877 -0.05848,-0.16657 -0.05973,-0.25936c-0.00463,-0.34682 0.27272,-0.63172 0.61952,-0.63636c0.10548,-0.00143 0.20521,0.02328 0.29308,0.06806l0.72373,0.34981l-0.00322,0.00667l0.02471,0.00424c0.44954,0.26473 0.87396,0.58015 1.25,0.94176c0,0 0.35879,0.34929 0.1237,0.74445c0.04331,0.02708 0.08716,0.06141 0.13111,0.10419zM331.02325,166.2376c0.00502,0.00865 0.01007,0.01729 0.0151,0.02594c0.00414,-0.00172 0.00828,-0.00345 0.01243,-0.00517c-0.01032,-0.00743 -0.01953,-0.01444 -0.02754,-0.02079z" fill="#ffffff" fill-rule="nonzero" stroke="none" stroke-width="0.5" stroke-linecap="butt" stroke-linejoin="miter"/><path d="M344.40123,188.35539c-0.37005,0.5074 -0.87743,0.13738 -0.87743,0.13738l-0.07928,-0.50453c-0.0782,0.17615 -0.15858,0.33632 -0.22328,0.45098c0,0 -0.31585,0.54278 -0.85865,0.22694c-0.54277,-0.31585 -0.22694,-0.85865 -0.22694,-0.85865c0.68467,-1.1278 0.41308,-3.14343 2.23,-1.55394c0.17333,0.15161 0.24498,0.3894 0.36347,0.58752l0.45139,0.43947l-0.17618,0.18095l0.26694,0.6077c-0.22354,0.00956 -0.44801,0.01871 -0.67196,0.03344l-0.08232,0.21406l-0.07187,-0.02765c-0.01304,0.02184 -0.02766,0.04394 -0.04397,0.06632z" fill="#8da900" fill-rule="nonzero" stroke="none" stroke-width="0.5" stroke-linecap="butt" stroke-linejoin="miter"/><path d="M352.48142,187.09722c0,0 -0.43421,0.44599 -0.88209,0.01767c-0.10805,0.18131 -0.30492,0.30394 -0.53144,0.30695c-0.17339,0.00231 -0.33133,-0.06585 -0.4465,-0.17797v0l-0.24914,-0.24256c-0.14826,-0.01354 -0.2953,-0.00572 -0.43837,0.03434l-0.49135,0.31844c0,0 -0.44922,0.27777 -0.77847,-0.0881c-0.15273,0.07904 -0.43336,0.16406 -0.69338,-0.07846c-0.38403,0.2639 -0.91711,0.58782 -1.07733,0.6876l-0.44358,0.09543c0,0 -0.17001,0.00226 -0.33428,-0.08401c-0.01503,0.06217 -0.03261,0.12301 -0.05504,0.18129c0,0 -0.22541,0.58615 -0.81154,0.36074c-0.58617,-0.22539 -0.36074,-0.81154 -0.36074,-0.81154c0.03549,-0.09227 0.12273,-0.32468 0.22149,-0.57673c-0.09645,-0.10875 -0.15578,-0.25132 -0.15789,-0.40805c-0.00175,-0.13093 0.03667,-0.25302 0.10386,-0.35454c-0.01515,-0.2412 0.13892,-0.41393 0.23559,-0.49764c-0.00311,-0.00219 -0.0062,-0.00439 -0.00929,-0.00666c-0.2679,-0.06875 -0.46755,-0.3101 -0.47144,-0.59994c-0.00463,-0.34682 0.27272,-0.63172 0.61952,-0.63636c0.15007,-0.00201 0.28857,0.04877 0.39778,0.13518c0.12799,0.02588 0.25555,0.0597 0.38117,0.10109c0.02429,-0.00246 0.04966,-0.00394 0.07619,-0.00429c0.29434,-0.00395 0.45256,0.13194 0.53762,0.27742c0.18877,0.10827 0.3656,0.23526 0.52391,0.37922l0.08025,0.00301c0,0 0.2027,0.09797 0.30669,0.29796c0.16855,0.07175 0.31563,0.17803 0.42748,0.32516c0.41322,-0.52624 0.22556,-1.47063 0.91338,-1.7562c0.95885,-0.39811 1.74523,0.73623 2.17903,1.42503c0.16802,-0.15841 0.33327,-0.31928 0.47781,-0.49878c0.22731,-0.28233 0.27084,-0.83516 0.62961,-0.88655c0.43422,-0.06221 1.29267,0.86727 1.61093,1.18093l0.02331,0.07581l0.02105,-0.01303l0.36784,0.59485c0.06137,0.09552 0.09762,0.20881 0.09925,0.33066c0.00463,0.34682 -0.27272,0.63172 -0.61952,0.63636c-0.03385,0.00045 -0.06712,-0.00179 -0.09961,-0.00651l-0.84282,-0.10891l0.00191,-0.01473c-0.21416,0.01563 -0.42857,0.02627 -0.64324,0.02965l0.20141,0.05679zM349.76941,185.80725c0.01255,-0.003 0.02507,-0.00603 0.03763,-0.00913c-0.01153,-0.01779 -0.02286,-0.03527 -0.03394,-0.0524c-0.00047,0.01996 -0.00174,0.04051 -0.00373,0.06151z" fill="#8da900" fill-rule="nonzero" stroke="none" stroke-width="0.5" stroke-linecap="butt" stroke-linejoin="miter"/><path d="M349.56411,183.8633c-1.14804,0.71767 -1.4354,0.70541 -2.20395,0.27194c-0.33738,0.25745 -0.98913,0.06463 -1.53056,-0.21622l-0.17913,0.28033c-0.59253,0.08239 -1.2402,-0.02165 -1.76935,-0.30068c0,0 -0.54277,-0.31585 -0.22694,-0.85867c0.31586,-0.5428 0.85867,-0.22694 0.85867,-0.22694c0.0238,0.01646 0.04852,0.03183 0.07405,0.04613c0.09199,-0.22191 0.30767,-0.38021 0.56214,-0.38752c0.18674,-0.15407 0.37135,-0.15923 0.51793,-0.11822l0.56561,-0.13127c0.17888,0.06136 0.4124,0.0686 0.62542,0.09615c0.36886,-0.48263 0.86506,-0.12076 0.86506,-0.12076l0.11324,0.23802c0.50375,-0.00516 1.02125,0.02622 1.52336,0.11933l0.03875,-0.25342l0.72162,0.11034c0.30329,0.04088 0.53899,0.29874 0.54321,0.61395c0.0038,0.28248 -0.17954,0.52389 -0.43506,0.60623l-0.6641,0.23131z" fill="#8da900" fill-rule="nonzero" stroke="none" stroke-width="0.5" stroke-linecap="butt" stroke-linejoin="miter"/><path d="M342.76361,185.66059c0.38572,-0.49559 0.8813,-0.10988 0.8813,-0.10988l0.85465,1.03202c-0.35409,0.29166 -0.70822,0.58333 -1.06231,0.87499c0,0 -0.55791,0.28835 -0.84622,-0.26953c-0.20415,-0.39501 0.01593,-0.65489 0.16183,-0.77299c-0.11656,-0.15286 -0.24171,-0.43019 0.01076,-0.75462z" fill="#a00000" fill-rule="nonzero" stroke="none" stroke-width="0.5" stroke-linecap="butt" stroke-linejoin="miter"/><path d="M344.20196,185.18163c-0.00842,-0.62794 0.61952,-0.63636 0.61952,-0.63636l0.2434,-0.00325c0.30779,-0.00001 0.61008,0.07649 0.90025,0.19783l0.06377,-0.16582l0.59812,0.22999c0.23968,0.08584 0.4126,0.31346 0.41619,0.58299c0.00363,0.26956 -0.16313,0.50168 -0.40043,0.59393l-0.59175,0.24593l-0.01723,-0.04145l-0.09679,0.07657c-0.28291,0.00756 -0.56587,0.01515 -0.84879,0.0227c0,0 -0.61346,0.00821 -0.63583,-0.5979c-0.13155,-0.08652 -0.24689,-0.23844 -0.25046,-0.50516z" fill="#a00000" fill-rule="nonzero" stroke="none" stroke-width="0.5" stroke-linecap="butt" stroke-linejoin="miter"/><path d="M347.13439,183.60478c0.19061,-0.59838 0.78899,-0.40777 0.78899,-0.40777l0.34055,0.10911c0.16254,0.05103 0.3516,0.06388 0.53079,0.09093c0.17751,-0.24627 0.51177,-0.25077 0.51177,-0.25077l0.97359,-0.01305c0.10609,-0.00142 0.20641,0.02354 0.29464,0.06884c0.01877,-0.00338 0.03763,-0.00669 0.05651,-0.00993l0.25605,-0.05485c0,0 0.61411,-0.13139 0.74551,0.48271c0.03108,0.14535 0.02045,0.26366 -0.01397,0.35958c-0.07561,0.25449 -0.30291,0.35567 -0.43514,0.39375c0.06841,0.09903 0.10916,0.21875 0.1109,0.34815c0.00363,0.26956 -0.16313,0.50168 -0.40043,0.59393l-0.59175,0.24593l-0.00917,-0.02203l-0.05459,0.04455c-0.61611,0.1123 -1.2449,0.16031 -1.87107,0.17001c0,0 -0.62794,0.00842 -0.63636,-0.61952c-0.00053,-0.04019 0.00154,-0.0778 0.00586,-0.11307c-0.05216,-0.0595 -0.09673,-0.13698 -0.12751,-0.23758c-0.08077,-0.10411 -0.12961,-0.23437 -0.13153,-0.3763c-0.00019,-0.01326 0.00005,-0.02643 0.0007,-0.03952c-0.14865,-0.06932 -0.49594,-0.28731 -0.34439,-0.76312z" fill="#a00000" fill-rule="nonzero" stroke="none" stroke-width="0.5" stroke-linecap="butt" stroke-linejoin="miter"/><path d="M352.60708,184.1975c0.34682,-0.00463 0.63172,0.27272 0.63636,0.61952c0.00463,0.34682 -0.27272,0.63172 -0.61952,0.63636c-0.34682,0.00463 -0.63172,-0.27272 -0.63636,-0.61952c-0.00463,-0.34682 0.27272,-0.63172 0.61952,-0.63636z" fill="#a00000" fill-rule="nonzero" stroke="none" stroke-width="0.5" stroke-linecap="butt" stroke-linejoin="miter"/><path d="M346.87876,185.02441c-0.0042,-0.31355 0.15026,-0.47264 0.30599,-0.55332c0.00406,-0.01281 0.00848,-0.02547 0.0133,-0.03792c-0.09791,0.00652 -0.19911,0.00432 -0.3043,-0.0095c-0.22679,-0.02979 -0.44241,-0.12952 -0.65949,-0.21304c-0.68342,0.0137 -1.36514,0.00775 -2.0256,0.01662l-0.85191,0.01141c-0.34682,0.00463 -0.63172,-0.27272 -0.63636,-0.61952c-0.00423,-0.31517 0.22449,-0.57925 0.52657,-0.62826l0.55542,-0.10025c0.04169,-0.36211 0.42652,-0.49615 0.42652,-0.49615c2.2226,-0.77413 3.87291,-0.57464 6.14148,-0.22769l0.72162,0.11034c0.30329,0.04088 0.53899,0.29874 0.54321,0.61395c0.00126,0.09421 -0.01829,0.18384 -0.05438,0.26453c0.18641,0.04118 0.47875,0.17388 0.4845,0.60102c0.00528,0.3952 -0.24142,0.54499 -0.42509,0.60176c-0.004,0.00648 -0.00814,0.01298 -0.01248,0.01952c0.05106,0.18024 0.08178,0.52112 -0.31454,0.72595c-0.55791,0.28834 -0.84624,-0.26954 -0.84624,-0.26954c-0.0387,-0.13281 -0.11129,-0.26752 -0.1803,-0.40202c-0.09044,0.1124 -0.23667,0.20356 -0.47333,0.20675c-0.57117,0.00764 -0.62979,-0.5112 -0.6357,-0.60509c-0.10981,-0.03615 -0.21667,-0.05097 -0.32193,-0.05029c-0.05677,0.0106 -0.11371,0.02074 -0.17081,0.03041c-0.03353,0.08795 -0.08626,0.16652 -0.15316,0.23045c-0.03444,0.25132 -0.04987,0.50558 -0.04479,0.7584l-0.97193,0.64108c0,0 -0.62794,0.00842 -0.63636,-0.61952zM349.48421,184.18873c-0.07733,-0.05283 -0.1528,-0.09392 -0.2268,-0.12495z" fill="#000000" fill-rule="nonzero" stroke="none" stroke-width="0.5" stroke-linecap="butt" stroke-linejoin="miter"/><path d="M348.8401,184.5752l0.70289,-0.15041" fill="none" fill-rule="nonzero" stroke="#001026" stroke-width="1.2" stroke-linecap="round" stroke-linejoin="miter"/><path d="M348.35051,184.86369l2.24681,-0.66451" fill="none" fill-rule="nonzero" stroke="#a00000" stroke-width="1.2" stroke-linecap="round" stroke-linejoin="miter"/><path d="M348.89734,183.58754l-0.8193,1.98473" fill="none" fill-rule="nonzero" stroke="#000000" stroke-width="1.2" stroke-linecap="round" stroke-linejoin="miter"/><path d="M349.74025,183.36477l1.5112,2.30596" fill="none" fill-rule="nonzero" stroke="#000000" stroke-width="1.2" stroke-linecap="round" stroke-linejoin="miter"/><path d="M340.09114,179.47494c-0.06099,0.62501 -0.68603,0.56405 -0.68603,0.56405l-0.70075,-0.07188c-0.01533,-0.02456 -0.03065,-0.04911 -0.04598,-0.07364l-0.01812,0.0569l-0.62334,-0.19854c-0.19445,-0.05696 -0.35017,-0.20556 -0.41652,-0.39646c-0.71288,-0.36337 -1.43482,-1.4036 -0.59346,-2.24513c0.84632,-0.84646 3.08944,-0.10509 3.07101,1.21219c-0.00332,0.23782 -0.0819,0.43713 -0.21099,0.59871c0.13485,0.09774 0.25225,0.26595 0.22416,0.55377z" fill="#a00000" fill-rule="nonzero" stroke="none" stroke-width="0.5" stroke-linecap="butt" stroke-linejoin="miter"/><path d="M338.31966,178.02583c0.34682,-0.00463 0.63172,0.27272 0.63636,0.61952c0.00463,0.34682 -0.27272,0.63172 -0.61952,0.63636c-0.34682,0.00463 -0.63172,-0.27272 -0.63636,-0.61952c-0.00463,-0.34682 0.27272,-0.63172 0.61952,-0.63636z" fill="#ffffff" fill-rule="nonzero" stroke="none" stroke-width="0.5" stroke-linecap="butt" stroke-linejoin="miter"/><path d="M348.4839,184.298l1.96679,-0.5198l0.50847,1.12106" fill="none" fill-rule="nonzero" stroke="#000000" stroke-width="1.2" stroke-linecap="round" stroke-linejoin="miter"/><path d="M339.88934,173.69854c-0.00463,-0.34682 0.27272,-0.63172 0.61952,-0.63636c0.03953,-0.00054 0.07825,0.00262 0.11582,0.0091c-0.11272,-0.11179 -0.18339,-0.26616 -0.18571,-0.43747c-0.00463,-0.34682 0.27272,-0.63172 0.61952,-0.63636c0.11578,-0.00156 0.22468,0.0283 0.31854,0.08176c0.07697,-0.25523 0.31222,-0.44266 0.59295,-0.4464c0.05449,-0.00073 0.10745,0.00551 0.15801,0.01785c0.04996,-0.2928 0.30299,-0.51746 0.61064,-0.52159c0.34682,-0.00463 0.63172,0.27272 0.63636,0.61952c0.00035,0.02696 -0.00098,0.05354 -0.00395,0.07965c0.3195,0.02552 0.57281,0.29069 0.57719,0.61758c0.00463,0.34682 -0.27272,0.63172 -0.61952,0.63636c-0.02696,0.00035 -0.05354,-0.00099 -0.07966,-0.00392c-0.02552,0.3195 -0.29069,0.57281 -0.61758,0.57719c-0.06026,0.00083 -0.11865,-0.00692 -0.17405,-0.02201c-0.07414,0.25973 -0.31157,0.45146 -0.59556,0.45527c-0.08423,0.00113 -0.16478,-0.01436 -0.23857,-0.04346c-0.06659,0.27104 -0.30942,0.47376 -0.60153,0.47767c-0.06865,0.00092 -0.13486,-0.00923 -0.19698,-0.02874c-0.09223,0.22678 -0.31336,0.38801 -0.57358,0.39153c-0.34682,0.00463 -0.63172,-0.27272 -0.63636,-0.61952c-0.00293,-0.21944 0.10703,-0.41409 0.27608,-0.52866c-0.00097,-0.01288 -0.00152,-0.02584 -0.00171,-0.03894zM341.07534,173.25329c-0.03953,0.00054 -0.07825,-0.00262 -0.11582,-0.0091c0.00769,0.00763 0.01519,0.01546 0.02246,0.02347c0.00765,-0.00037 0.01533,-0.00061 0.02301,-0.00071c0.08423,-0.00113 0.16478,0.01436 0.23857,0.04346c0.00776,-0.03167 0.01797,-0.06239 0.03034,-0.092c-0.06229,0.02174 -0.12904,0.03395 -0.19862,0.03489zM341.74191,172.8426c-0.02539,-0.01031 -0.04995,-0.02231 -0.07358,-0.0357c-0.00625,0.02072 -0.01353,0.041 -0.02182,0.06077c0.03078,-0.01072 0.06261,-0.01915 0.09538,-0.02502zM342.69634,172.38292c-0.03377,-0.00271 -0.06679,-0.00806 -0.09885,-0.0159c-0.00192,0.01118 -0.00412,0.02227 -0.00659,0.03325c0.00791,-0.00038 0.01584,-0.00066 0.02382,-0.00078c0.02696,-0.00035 0.05354,0.00098 0.07965,0.00395c0.00054,-0.00687 0.00121,-0.01371 0.00197,-0.0205z" fill="#e93e3e" fill-rule="nonzero" stroke="none" stroke-width="0.5" stroke-linecap="butt" stroke-linejoin="miter"/><path d="M331.0814,173.95749c-0.00463,-0.34682 0.27272,-0.63172 0.61952,-0.63636c0.09177,-0.00123 0.17921,0.01727 0.25828,0.05162c0.1039,-0.08024 0.23373,-0.12873 0.3751,-0.13059c0.14484,-0.00196 0.27886,0.04531 0.38621,0.12626c0.11306,-0.12571 0.27625,-0.20564 0.45858,-0.20808c0.17101,-0.0023 0.32691,0.06397 0.44163,0.1733c0.10511,-0.19255 0.3082,-0.32432 0.54317,-0.32747c0.18473,-0.00246 0.35191,0.07506 0.46851,0.20052c0.11057,-0.16876 0.30032,-0.28131 0.51725,-0.28421c0.27419,-0.00368 0.50968,0.16892 0.59857,0.41273c0.10653,-0.08827 0.24281,-0.14205 0.39191,-0.14405c0.1845,-0.00247 0.35147,0.07487 0.46805,0.20002c0.08321,-0.24457 0.31324,-0.42197 0.58628,-0.42561c0.14484,-0.00196 0.27886,0.04531 0.38621,0.12626c0.11308,-0.12569 0.27625,-0.20564 0.45858,-0.20808c0.07419,-0.001 0.14554,0.01092 0.21191,0.03365c0.06575,-0.02449 0.13675,-0.03834 0.21094,-0.03933c0.05719,-0.00076 0.11268,0.00614 0.16551,0.01975c0.0947,-0.05992 0.2066,-0.09523 0.32689,-0.09682c0.20299,-0.00271 0.38479,0.09118 0.50158,0.2391c0.09861,-0.06755 0.21754,-0.10773 0.34606,-0.10946c0.34682,-0.00463 0.63172,0.27272 0.63636,0.61952c0.00463,0.34682 -0.27272,0.63172 -0.61952,0.63636c-0.20299,0.00271 -0.38479,-0.09118 -0.50158,-0.2391c-0.09861,0.06755 -0.21754,0.10773 -0.34606,0.10946c-0.05719,0.00076 -0.11268,-0.00614 -0.16551,-0.01975c-0.09472,0.05991 -0.2066,0.09523 -0.32689,0.09682c-0.07419,0.001 -0.14556,-0.01091 -0.21192,-0.03365c-0.06575,0.02449 -0.13675,0.03832 -0.21096,0.0393c-0.14484,0.00196 -0.27886,-0.04531 -0.38621,-0.12626c-0.11308,0.12568 -0.27623,0.20561 -0.45857,0.20807c-0.1845,0.00247 -0.35147,-0.07487 -0.46805,-0.20002c-0.08322,0.24456 -0.31324,0.42197 -0.58628,0.42561c-0.27418,0.00366 -0.50968,-0.16892 -0.59857,-0.41273c-0.10653,0.08827 -0.24281,0.14205 -0.39191,0.14405c-0.18473,0.00246 -0.35191,-0.07506 -0.46851,-0.20052c-0.11057,0.16876 -0.30032,0.28131 -0.51725,0.28421c-0.17101,0.0023 -0.32691,-0.06399 -0.44163,-0.1733c-0.1051,0.19253 -0.3082,0.32432 -0.54317,0.32747c-0.14484,0.00196 -0.27886,-0.04531 -0.38621,-0.12626c-0.11308,0.12568 -0.27625,0.20564 -0.45858,0.20808c-0.09177,0.00123 -0.17921,-0.01727 -0.25828,-0.05162c-0.1039,0.08024 -0.23373,0.12873 -0.3751,0.13059c-0.34682,0.00463 -0.63172,-0.27272 -0.63636,-0.61952z" fill="#e93e3e" fill-rule="nonzero" stroke="none" stroke-width="0.5" stroke-linecap="butt" stroke-linejoin="miter"/><path d="M343.95853,172.73395c0.34682,-0.00463 0.63172,0.27272 0.63636,0.61952c0.0044,0.32689 -0.24175,0.59874 -0.56044,0.63282c0.00363,0.02603 0.00572,0.05256 0.00607,0.07951c0.00463,0.34682 -0.27272,0.63172 -0.61952,0.63636c-0.13423,0.00178 -0.2592,-0.03867 -0.36222,-0.10904c0.00152,0.01638 0.0024,0.03297 0.00261,0.04974c0.00463,0.34682 -0.27272,0.63172 -0.61952,0.63636c-0.12474,0.00168 -0.24147,-0.03315 -0.34002,-0.09454c-0.09292,0.22533 -0.31329,0.38526 -0.57242,0.38873c-0.09179,0.00124 -0.17923,-0.0173 -0.25832,-0.05167c-0.0861,0.23924 -0.31347,0.41178 -0.5827,0.41537c-0.34682,0.00463 -0.63172,-0.27272 -0.63636,-0.61952c-0.00463,-0.34682 0.27272,-0.63172 0.61952,-0.63636c0.09179,-0.00124 0.17923,0.0173 0.25832,0.05167c0.0861,-0.23924 0.31347,-0.41178 0.5827,-0.41537c0.12473,-0.00167 0.24146,0.03314 0.34002,0.09454c0.09292,-0.22533 0.3133,-0.38526 0.57242,-0.38873c0.13423,-0.00178 0.2592,0.03867 0.36222,0.10904c-0.00152,-0.01638 -0.0024,-0.03297 -0.00261,-0.04974c-0.0044,-0.32689 0.24177,-0.59874 0.56046,-0.63281c-0.00364,-0.02604 -0.00571,-0.05256 -0.00606,-0.07952c-0.00463,-0.34682 0.27272,-0.63172 0.61952,-0.63636z" fill="#e93e3e" fill-rule="nonzero" stroke="none" stroke-width="0.5" stroke-linecap="butt" stroke-linejoin="miter"/><path d="M328.81805,173.86221c0.06934,-0.00095 0.12633,0.05453 0.12728,0.1239c0.00095,0.06934 -0.05453,0.12633 -0.1239,0.12728c-0.06934,0.00095 -0.12633,-0.05453 -0.12728,-0.1239c-0.00095,-0.06934 0.05453,-0.12633 0.1239,-0.12728z" fill="#a00000" fill-rule="nonzero" stroke="none" stroke-width="0.5" stroke-linecap="butt" stroke-linejoin="miter"/><path d="M329.58971,176.30449c0.07107,0.10356 -0.0325,0.17462 -0.0325,0.17462l-0.00485,0.00334c-0.13808,0.09475 -0.27617,0.18951 -0.41423,0.28425c0,0 -0.10356,0.07107 -0.17462,-0.0325c-0.07107,-0.10356 0.0325,-0.17462 0.0325,-0.17462c0.1381,-0.09474 0.281,-0.19282 0.4191,-0.28759c0,0 0.10356,-0.07107 0.17462,0.0325z" fill="#a00000" fill-rule="nonzero" stroke="none" stroke-width="0.5" stroke-linecap="butt" stroke-linejoin="miter"/><path d="M328.04274,175.68995c-0.00159,-0.11889 0.05205,-0.22565 0.13712,-0.29585c-0.10181,-0.04158 -0.21339,-0.13367 -0.2161,-0.3375c-0.00504,-0.37679 0.37172,-0.38183 0.37172,-0.38183l0.0791,0.00406c0.04257,-0.00736 0.08409,-0.01553 0.12479,-0.02436c0.01263,-0.04244 0.03254,-0.0818 0.05834,-0.11659c-0.03812,-0.00367 -0.09045,-0.02293 -0.10657,-0.09818c-0.00524,-0.02451 -0.00457,-0.04516 -0.00007,-0.06255c-0.00217,-0.00976 -0.00349,-0.02056 -0.00361,-0.03251c-0.00168,-0.12561 0.1239,-0.12728 0.1239,-0.12728l0.07048,-0.00095c0.06261,0.00148 0.12658,0.01202 0.18831,0.03079c0.08075,-0.00999 0.16564,-0.01974 0.2501,-0.031c-0.00006,-0.00685 -0.00021,-0.01386 -0.00041,-0.02103l0.10514,-0.16072c0,0 0.01387,-0.01424 0.03621,-0.02589c-0.002,-0.0086 -0.00308,-0.01755 -0.00321,-0.02674c-0.00095,-0.06934 0.05453,-0.12633 0.1239,-0.12728c0.03396,-0.00044 0.06496,0.01263 0.08786,0.03423c0.0007,-0.00482 0.00165,-0.00956 0.0029,-0.0142c-0.00807,-0.02134 -0.01186,-0.04772 -0.0018,-0.07611c-0.00266,-0.00986 -0.00412,-0.02021 -0.00426,-0.03091c-0.00095,-0.06934 0.05453,-0.12633 0.1239,-0.12728c0.05303,-0.00071 0.0988,0.03153 0.11784,0.07772c0.003,0.00117 0.00597,0.00242 0.00886,0.00378c0.04202,0.01985 0.07133,0.06234 0.072,0.11194c0.00005,0.00331 -0.00003,0.00658 -0.00025,0.00981c0.04417,0.03683 0.08926,0.07173 0.13444,0.1065c0.05925,-0.03062 0.11852,-0.06125 0.17779,-0.09188c0,0 0.11158,-0.05768 0.16924,0.05392c0.03814,0.07385 0.00219,0.12406 -0.02649,0.14961c0.01023,0.02098 0.01955,0.04196 0.02798,0.0629c0.06209,-0.00084 0.12423,-0.00168 0.18629,-0.0025l-0.00115,-0.08582c0,0 -0.00069,-0.05125 0.03156,-0.08872c-0.03621,-0.00615 -0.10366,-0.02994 -0.10489,-0.12178c-0.00168,-0.12561 0.1239,-0.12728 0.1239,-0.12728l0.07048,-0.00095c0.07048,-0.00095 0.14093,-0.00189 0.21144,-0.00283c0,0 0.12561,-0.00168 0.12728,0.1239c0.00168,0.12561 -0.1239,0.12728 -0.1239,0.12728c-0.02978,0.00038 -0.07218,0.00098 -0.11651,0.00157c0.03115,0.03636 0.0318,0.08543 0.0318,0.08543l0.00084,0.06306l0.05751,0.02095c0.00018,0.00034 0.00037,0.00071 0.00053,0.00105c0.05635,-0.00076 0.11268,-0.00149 0.16906,-0.00227c0,0 0.12561,-0.00168 0.12728,0.1239c0.00168,0.12561 -0.1239,0.12728 -0.1239,0.12728c-0.0311,0.00041 -0.06293,0.00085 -0.09536,0.00128c-0.00961,0.02116 -0.02764,0.04174 -0.05914,0.05804c-0.04895,0.02532 -0.08755,0.01803 -0.11543,0.00188c0.02541,0.08738 0.02316,0.15983 0.00531,0.2194c0.09302,0.06747 0.15416,0.17647 0.1558,0.30019c0.00279,0.2081 -0.16364,0.37904 -0.37172,0.38183c-0.1044,0.00138 -0.19945,-0.0398 -0.26863,-0.10751c-0.00484,0.00062 -0.00977,0.00099 -0.01478,0.00106c-0.06934,0.00095 -0.12633,-0.05453 -0.12728,-0.1239c-0.00026,-0.01886 0.00368,-0.03679 0.0109,-0.05296c-0.10648,0.07862 -0.23736,0.08035 -0.23736,0.08035c-0.16605,-0.00146 -0.31811,0.02508 -0.46609,0.06366c0.01408,0.00492 0.02878,0.00643 0.04402,0.00346c0,0 0.08545,-0.00114 0.11632,0.06894c0.03202,-0.00045 0.06403,-0.00086 0.09606,-0.00129l-0.01878,-0.03345c0,0 0.08763,-0.09 0.17761,-0.00237c0.09,0.08763 0.00237,0.17761 0.00237,0.17761l-0.15785,0.10941c-0.11747,0.00157 -0.23493,0.00314 -0.35239,0.00474c0,0 -0.12561,0.00168 -0.12728,-0.1239c-0.00036,-0.02655 0.00499,-0.04757 0.0136,-0.06418c-0.02172,-0.01836 -0.04243,-0.03809 -0.06203,-0.05859c-0.13746,0.04434 -0.27662,0.09069 -0.42554,0.12586c0.08087,0.06802 0.13284,0.16949 0.13435,0.28343c0.00279,0.2081 -0.16364,0.37904 -0.37172,0.38183c-0.2081,0.00279 -0.37904,-0.16364 -0.38183,-0.37172zM329.59576,174.03251c-0.03396,0.00044 -0.06496,-0.01263 -0.08786,-0.03423c-0.00268,0.01862 -0.00948,0.03597 -0.0194,0.05103c0.00369,0.00526 0.00696,0.01083 0.00981,0.01663l0.03587,0.06941c0.05437,-0.0168 0.10367,-0.03628 0.14572,-0.05931c-0.01944,-0.0153 -0.03886,-0.0308 -0.05809,-0.04659c-0.00841,0.00188 -0.0171,0.00295 -0.02609,0.00306z" fill="#a00000" fill-rule="nonzero" stroke="none" stroke-width="0.5" stroke-linecap="butt" stroke-linejoin="miter"/><path d="M327.20362,176.19466l0.00355,-0.01725c-0.0257,-0.16413 -0.05142,-0.32827 -0.0771,-0.49241c0,0 -0.00523,-0.03335 -0.00256,-0.08167c-0.00171,-0.0138 -0.0027,-0.02782 -0.00288,-0.04208c-0.00279,-0.2081 0.16364,-0.37904 0.37172,-0.38183c0.2081,-0.00279 0.37904,0.16364 0.38183,0.37172c0.00014,0.01125 -0.00018,0.02244 -0.00101,0.03347c0.02485,0.15873 0.04971,0.31743 0.07455,0.4762l0.00545,0.12371c0,0 0.00504,0.37679 -0.37172,0.38183c-0.37679,0.00504 -0.38183,-0.37172 -0.38183,-0.37172z" fill="#a00000" fill-rule="nonzero" stroke="none" stroke-width="0.5" stroke-linecap="butt" stroke-linejoin="miter"/><path d="M320.69823,174.14649c0.91076,0.16936 2.10097,1.77796 3.12864,1.57482c0.06727,-0.09262 0.19469,-0.19517 0.4107,-0.12638c0.238,0.0758 0.26796,0.25912 0.26115,0.37411c0.02616,0.13439 -0.02002,0.2304 -0.0796,0.29568l-0.01184,0.03686c-0.67685,1.75784 -1.16361,3.58296 -1.98592,5.27044c-0.21103,0.43308 -0.36542,1.91181 -1.27833,1.51692c-0.36247,-0.15678 -0.21673,-1.90795 -0.22102,-2.22823c-0.01479,-1.10402 -0.03928,-2.20836 -0.04437,-3.31247c-0.00081,-0.17454 -0.03474,-0.8116 -0.22409,-0.9273c-0.09228,-0.05638 -0.84366,0.32902 -0.95828,0.37667c-1.04801,0.43556 -2.18611,0.2345 -3.23352,0.67775c-0.72009,0.29397 -2.87434,0.31668 -1.80798,-1.0355c0.25516,-0.32355 1.18885,-0.56523 1.53994,-0.86717c1.36264,-1.17185 2.39532,-1.92429 4.10861,-2.52171c0,0 0.35584,-0.12393 0.47976,0.23189c0.12393,0.35584 -0.23189,0.47976 -0.23189,0.47976c-0.03704,0.01291 -0.07384,0.02579 -0.11032,0.03871c0.11338,0.00736 0.20156,0.06444 0.20156,0.06444z" fill="#ffffff" fill-rule="nonzero" stroke="none" stroke-width="0.5" stroke-linecap="butt" stroke-linejoin="miter"/><path d="M314.72882,178.00109c-0.00819,-0.00581 -0.01629,-0.0117 -0.02426,-0.01768l0.11523,-0.12453c-0.00026,-0.0059 -0.00045,-0.0119 -0.00052,-0.01796c-0.00109,-0.08368 0.01657,-0.14901 0.04481,-0.20004c-0.11955,0.00974 -0.24353,0.01526 -0.37535,0.01736c0,0 -0.37679,0.00504 -0.38183,-0.37172c-0.00504,-0.37679 0.37172,-0.38183 0.37172,-0.38183c0.02495,-0.00025 0.0495,-0.00065 0.07362,-0.00118l0.48448,-0.19292c0.03994,-0.03068 0.08868,-0.05636 0.14512,-0.07713c-0.07208,-0.04829 -0.15109,-0.10251 -0.23883,-0.16305l0.76181,-0.42677c0.10156,0.03453 0.20309,0.06904 0.30464,0.10356c0.15402,-0.23112 0.34518,-0.37952 0.62873,-0.32865c0.32058,0.05752 0.54459,0.35745 0.81689,0.53621l-0.32091,0.18895c0.0853,0.04998 0.17055,0.09997 0.25582,0.14993l-0.34976,0.21287c0.07112,0.02437 0.14118,0.05054 0.20992,0.07829l-0.63084,0.56402c-0.13732,0.01548 -0.27947,0.00218 -0.41718,-0.0329c-0.16437,0.22462 -0.36198,0.42694 -0.58383,0.58933l0.05405,0.08171c-0.07568,0.02553 -0.15604,0.03835 -0.2381,0.0403c-0.07478,0.04456 -0.15171,0.08457 -0.23059,0.1195l-0.47482,-0.34569z" fill="#a00000" fill-rule="nonzero" stroke="none" stroke-width="0.5" stroke-linecap="butt" stroke-linejoin="miter"/><path d="M320.7838,181.07407c-0.00504,-0.37679 0.37172,-0.38183 0.37172,-0.38183l0.05699,0.00119c0.06783,-0.088 0.17379,-0.14526 0.29351,-0.14688c0.0828,-0.00112 0.15974,0.02458 0.22252,0.06903l0.64587,-0.20324c0.03656,-0.01243 0.07568,-0.01944 0.11643,-0.01998c0.2081,-0.00279 0.37904,0.16364 0.38183,0.37172c0.00219,0.16173 -0.09786,0.301 -0.24026,0.35637l-0.21285,0.08848l0.10732,0.05323c-0.11342,0.09785 -0.22074,0.18221 -0.32117,0.25303c0.02789,0.05174 0.04408,0.11077 0.04495,0.17363c0.00219,0.16173 -0.09786,0.301 -0.24026,0.35637l-0.1662,0.06907c0.08067,0.06801 0.13247,0.16935 0.13399,0.28311c0.00063,0.04837 -0.00786,0.09476 -0.0239,0.13746c0.03274,0.13147 0.01298,0.23809 -0.11278,0.25936c0.00081,0.00924 0.00127,0.01853 0.00141,0.02792c0.00279,0.2081 -0.16364,0.37904 -0.37172,0.38183c-0.02354,0.0003 -0.04662,-0.00151 -0.06904,-0.00537l-0.29334,-0.04488l-0.03608,0.05277c-0.01465,-0.02188 -0.02881,-0.04346 -0.04248,-0.06476l-0.03875,-0.00594c-0.18196,-0.02455 -0.32338,-0.17925 -0.32593,-0.36836c-0.00112,-0.08406 0.02533,-0.16199 0.071,-0.22529c-0.06509,-0.22902 -0.03312,-0.38342 0.07205,-0.46112c0.0025,-0.23787 0.17582,-0.43368 0.3136,-0.63823c-0.09925,-0.01193 -0.33437,-0.07163 -0.33836,-0.36874z" fill="#a00000" fill-rule="nonzero" stroke="none" stroke-width="0.5" stroke-linecap="butt" stroke-linejoin="miter"/><path d="M314.00195,172.89308c0.2081,-0.00279 0.37904,0.16364 0.38183,0.37172c0.00279,0.2081 -0.16364,0.37904 -0.37172,0.38183c-0.2081,0.00279 -0.37904,-0.16364 -0.38183,-0.37172c-0.00279,-0.2081 0.16364,-0.37904 0.37172,-0.38183z" fill="#a00000" fill-rule="nonzero" stroke="none" stroke-width="0.5" stroke-linecap="butt" stroke-linejoin="miter"/><path d="M312.81732,169.80419l0.12116,0.24052c0.25022,0.36921 0.44351,0.77657 0.61572,1.188c0,0 0.14463,0.34796 -0.20331,0.49256c-0.34796,0.14463 -0.49256,-0.20331 -0.49256,-0.20331c-0.15041,-0.36477 -0.31828,-0.72729 -0.54216,-1.05222l-0.16831,-0.31951c0,0 -0.17299,-0.33474 0.16174,-0.50775c0.33474,-0.17299 0.50775,0.16174 0.50775,0.16174z" fill="#a00000" fill-rule="nonzero" stroke="none" stroke-width="0.5" stroke-linecap="butt" stroke-linejoin="miter"/><path d="M312.32523,168.75657c0.2081,-0.00279 0.37904,0.16364 0.38183,0.37172c0.00279,0.2081 -0.16364,0.37904 -0.37172,0.38183c-0.2081,0.00279 -0.37904,-0.16364 -0.38183,-0.37172c-0.00279,-0.2081 0.16364,-0.37904 0.37172,-0.38183z" fill="#a00000" fill-rule="nonzero" stroke="none" stroke-width="0.5" stroke-linecap="butt" stroke-linejoin="miter"/><path d="M312.23491,167.27747c0.2081,-0.00279 0.37904,0.16364 0.38183,0.37172c0.00279,0.2081 -0.16364,0.37904 -0.37172,0.38183c-0.2081,0.00279 -0.37904,-0.16364 -0.38183,-0.37172c-0.00279,-0.2081 0.16364,-0.37904 0.37172,-0.38183z" fill="#a00000" fill-rule="nonzero" stroke="none" stroke-width="0.5" stroke-linecap="butt" stroke-linejoin="miter"/><path d="M314.93328,174.00848c0.2081,-0.00279 0.37904,0.16364 0.38183,0.37172c0.00279,0.2081 -0.16364,0.37904 -0.37172,0.38183c-0.2081,0.00279 -0.37904,-0.16364 -0.38183,-0.37172c-0.00279,-0.2081 0.16364,-0.37904 0.37172,-0.38183z" fill="#a00000" fill-rule="nonzero" stroke="none" stroke-width="0.5" stroke-linecap="butt" stroke-linejoin="miter"/><path d="M319.24507,180.15393c0.2081,-0.00279 0.37904,0.16364 0.38183,0.37172c0.00279,0.2081 -0.16364,0.37904 -0.37172,0.38183c-0.2081,0.00279 -0.37904,-0.16364 -0.38183,-0.37172c-0.00279,-0.2081 0.16364,-0.37904 0.37172,-0.38183z" fill="#a00000" fill-rule="nonzero" stroke="none" stroke-width="0.5" stroke-linecap="butt" stroke-linejoin="miter"/><path d="M318.1042,179.18231c0.2081,-0.00279 0.37904,0.16364 0.38183,0.37172c0.00279,0.2081 -0.16364,0.37904 -0.37172,0.38183c-0.2081,0.00279 -0.37904,-0.16364 -0.38183,-0.37172c-0.00279,-0.2081 0.16364,-0.37904 0.37172,-0.38183z" fill="#a00000" fill-rule="nonzero" stroke="none" stroke-width="0.5" stroke-linecap="butt" stroke-linejoin="miter"/><path d="M317.1719,177.99646c0.2081,-0.00279 0.37904,0.16364 0.38183,0.37172c0.00279,0.2081 -0.16364,0.37904 -0.37172,0.38183c-0.2081,0.00279 -0.37904,-0.16364 -0.38183,-0.37172c-0.00279,-0.2081 0.16364,-0.37904 0.37172,-0.38183z" fill="#a00000" fill-rule="nonzero" stroke="none" stroke-width="0.5" stroke-linecap="butt" stroke-linejoin="miter"/><path d="M336.2465,205.86094c0.00467,0.34788 -0.13257,0.6646 -0.358,0.8951c0.11459,0.25091 0.14677,0.57756 -0.02881,0.98734c-0.28006,0.65359 -0.77158,0.77861 -1.14537,0.76407c-0.13321,0.4883 -0.55409,0.85943 -1.0715,0.91697l-1.34977,0.16831l-0.02304,-0.18474l-0.41296,0.16264c-2.03126,-1.24086 -5.75235,-3.92285 -1.14313,-5.18582c0.15858,-0.04346 0.31251,-0.07087 0.46234,-0.08431c0.22542,-0.24168 0.54526,-0.39454 0.90181,-0.39934c0.6388,-0.00855 1.17259,0.4613 1.26022,1.07744c0.17644,0.11063 0.35111,0.22705 0.52574,0.34326c0.20243,-0.40941 0.62171,-0.69343 1.10975,-0.7c0.69362,-0.00928 1.26343,0.54545 1.27273,1.23908z" fill="#ffffff" fill-rule="nonzero" stroke="none" stroke-width="0.5" stroke-linecap="butt" stroke-linejoin="miter"/><path d="M330.53901,202.40282c0.6529,-0.00874 1.19611,0.48227 1.26537,1.11842c0.13082,-0.04844 0.272,-0.07575 0.41946,-0.07773c0.52708,-0.00706 0.98266,0.31155 1.1751,0.7693c0.26139,0.04992 0.49448,0.18101 0.67153,0.36634c0.20732,-0.15919 0.46592,-0.25525 0.74738,-0.25903c0.69362,-0.00928 1.26343,0.54545 1.27273,1.23908c0.00928,0.69362 -0.54545,1.26343 -1.23908,1.27273c-0.3633,0.00486 -0.69263,-0.145 -0.92526,-0.38851c-0.20732,0.15919 -0.46592,0.25525 -0.74738,0.25903c-0.52708,0.00706 -0.98266,-0.31155 -1.1751,-0.7693c-0.53523,-0.10219 -0.95159,-0.54467 -1.01167,-1.09626c-0.13082,0.04844 -0.272,0.07575 -0.41946,0.07773c-0.69362,0.00928 -1.26343,-0.54545 -1.27273,-1.23908c-0.00928,-0.69362 0.54545,-1.26343 1.23908,-1.27273z" fill="#a00000" fill-rule="nonzero" stroke="none" stroke-width="0.5" stroke-linecap="butt" stroke-linejoin="miter"/></g></g></g></svg>