<svg version="1.1" xmlns="http://www.w3.org/2000/svg" xmlns:xlink="http://www.w3.org/1999/xlink" width="8085.6856" height="4210.64731" viewBox="0,0,8085.6856,4210.64731"><g transform="translate(2661.17135,-195.88072)"><g data-paper-data="{&quot;isPaintingLayer&quot;:true}" fill="none" fill-rule="nonzero" stroke="#000000" stroke-width="30.8829" stroke-linecap="butt" stroke-linejoin="miter" stroke-miterlimit="10" stroke-dasharray="" stroke-dashoffset="0" style="mix-blend-mode: normal"><path d="M-69.69285,211.75247c27.20373,4.79802 77.72085,-12.67216 92.65238,20.42254c15.60019,143.99189 -3.80786,290.38444 6.83631,435.03637c29.1358,25.92569 62.97184,57.49733 82.00096,95.08653c28.84095,-7.99438 43.85724,-46.81882 67.10258,-65.96325c26.36554,-16.31544 37.32198,-39.46242 31.49312,-71.07323c17.55172,-68.65286 -25.75867,-66.59402 -80.72817,-59.88654c-7.36195,-82.44495 -3.55392,-169.47274 -1.81267,-252.85625c92.04657,-8.48504 187.81013,-1.22493 281.28904,-3.64257c67.04247,-8.48216 23.1017,88.7004 35.63155,129.16437c-12.42714,39.35886 30.6887,137.5969 -34.10358,127.44502c-73.44506,-29.23035 -44.87645,50.94197 -49.86535,95.13132c-48.71321,57.73387 -103.13453,113.22876 -159.4616,164.55423c-16.16367,93.20768 -2.78494,193.61604 -6.30112,289.12658c152.09593,-0.08097 304.19178,-0.16195 456.28762,-0.24325c73.15134,21.20118 60.86511,-33.15197 58.62632,-85.59015c71.71804,-8.6234 147.2419,-1.12479 220.4012,-3.64256c56.99184,16.5672 25.01126,-45.71453 39.86112,-77.52969c15.22374,-17.85076 73.2202,-20.06342 67.75408,8.5944c-24.74476,64.84364 8.05776,79.29817 69.16151,68.93529c57.27945,13.74219 0.1522,-74.05567 45.1782,-87.33527c33.81155,-7.23895 71.68993,0.88471 50.10568,44.68548c-28.9014,68.50356 58.85056,34.79805 99.17046,42.64979c3.0286,-28.26195 -15.16239,-95.79566 35.51081,-88.38834c38.1199,-8.43352 38.7064,36.63405 35.7523,61.87184c-2.7366,55.67764 92.5382,13.34372 132.3063,26.51651c62.3823,-14.67159 22.27951,67.24754 40.20641,95.67348c16.7259,-54.97439 -4.0256,-122.17258 3.5908,-180.41927c172.2363,-8.52728 348.21671,-1.19475 521.88831,-3.64256c42.6494,13.00184 135.26701,-28.9013 141.69751,26.68914c7.6801,14.42156 -13.3307,59.34934 10.6688,61.61289c14.6448,-88.71067 2.1209,-185.11459 6.4565,-276.33441c76.434,-87.29057 161.69031,-168.93376 240.08141,-255.44575c194.6203,-6.73273 391.83731,-0.95351 587.45451,-2.88298c67.928,62.09658 129.08,134.11168 193.3474,201.01856c41.2438,34.32214 65.7022,76.71938 54.0942,131.79153c-2.8233,211.36529 12.4006,423.87675 -4.8915,634.61063c-64.5767,95.63579 -156.16311,172.17028 -232.451,258.89848c-193.9451,8.2332 -390.44241,4.4533 -585.36571,8.0965c-86.493,-80.3389 -165.775,-171.18698 -249.5072,-255.54938c-6.1415,-69.8655 -0.7825,-141.87839 -2.9138,-212.58179c-6.0382,-19.4912 9.9417,-62.65629 -10.6724,-71.7801c-15.4512,148.50789 0.2564,300.36938 -8.2692,449.19237c-81.7499,6.5509 -166.9151,-3.2739 -249.9388,-2.8312c0,154.46089 0,308.92187 0,463.38276c82.6522,1.2402 166.10471,-2.4371 248.26431,1.8299c8.6477,87.49669 1.0649,178.82489 3.6425,267.75458c61.6878,0 123.3754,0 185.0631,0c1.2333,-118.00859 -2.4355,-236.81508 1.8299,-354.33027c75.0002,-7.4892 154.57591,-3.3576 230.55211,-1.8989c9.7186,65.33959 2.8385,134.83539 6.434,201.70829c18.5786,74.26159 -77.82901,35.05169 -120.0787,44.58789c-76.3387,-25.266 -48.2915,52.6565 -51.8914,99.2993c31.8791,21.1014 102.8941,2.5957 149.5157,8.7931c68.551,14.9154 20.1704,-84.7374 32.8349,-124.5789c5.5015,-45.88639 -15.0872,-106.12729 6.9053,-143.16498c66.7518,13.736 95.5758,-10.4557 79.774,-79.27329c39.0894,-20.2912 100.54391,-5.1899 147.17,-7.2851c-4.3165,66.3359 6.47731,105.60259 82.91591,86.5584c19.6805,42.34429 5.7553,106.17089 7.2851,156.00889c-68.3456,8.6486 -140.5108,1.118 -210.3021,3.6426c-73.6959,-22.3432 -34.57721,68.1282 -44.19421,109.8639c124.53831,-0.9394 249.07671,-1.8787 373.61521,-2.8019c78.7456,25.1857 63.1579,-43.9435 62.5779,-98.06779c-4.0728,-43.58549 22.6791,-117.52329 -45.6443,-97.46889c-41.0445,8.7345 -43.9124,-40.2132 -35.7179,-67.5342c50.1019,-7.5498 105.0465,-3.4194 156.0434,-1.6919c6.805,86.4539 -2.8128,176.40899 -2.1061,264.16378c191.03051,-0.011 382.06091,-0.022 573.09142,-0.033c54.5528,1.3302 10.8661,-92.143 21.7616,-132.91769c-19.9655,-75.07139 79.362,-34.8099 121.8004,-44.7755c62.3471,-18.0314 82.2304,52.3411 117.8223,87.6805c99.5115,-0.0392 199.0271,0.8817 298.5362,0.068c16.3655,-6.0836 60.12881,9.5755 62.97561,-12.4454c-29.7548,-21.8599 -69.1412,-53.2999 -78.16841,-90.52909c75.5198,-85.15499 153.33321,-168.63069 236.66321,-246.19248c8.6601,-107.68009 4.3266,-217.59169 5.6106,-326.08738c12.7966,-40.0284 -29.2339,-129.86949 28.4173,-133.65669c36.448,7.6286 96.5348,-23.0235 120.3065,16.1795c14.0909,144.01359 0.5979,290.27987 2.0889,435.03636c75.2056,78.6733 151.85561,155.97879 225.22911,236.37458c31.2083,18.2029 10.5555,47.2611 -9.5754,63.8524c-11.5761,22.6036 -46.4135,29.71769 -52.0663,51.75549c58.1444,14.2622 128.3669,2.1822 190.6738,6.3529c-1.308,-57.6173 -8.3865,-115.96289 -6.2149,-173.13408c106.4972,-7.2761 217.59151,-3.6885 324.99981,-1.7437c5.7545,110.04829 0.0874,224.43368 -3.1246,335.30607c-83.2085,8.4818 -170.13181,1.2274 -254.77251,3.6426c-73.9585,23.6391 -64.501,-42.32429 -58.6954,-92.80779c-90.8743,0 -181.74851,0 -272.62291,0c-40.27,67.23229 -102.78051,118.68809 -158.33941,172.15008c-56.5794,-49.21349 -114.5276,-104.08919 -159.168,-165.93518c-111.17561,-9.4256 -226.362,-5.5977 -336.9806,3.021c10.3974,13.1322 59.3015,-2.83371 71.9537,18.38549c-7.7525,49.8491 7.8079,110.0946 -14.2251,153.57469c-109.0122,0 -218.0246,0 -327.03691,0c-72.5427,21.8947 -80.5822,-30.0315 -66.9472,-88.3883c-202.8559,0 -405.71171,0 -608.56761,0c-1.3683,27.8884 20.0355,96.078 -31.4883,88.3883c-51.4695,7.8602 -30.9708,-60.4083 -32.645,-88.3883c-63.7478,0 -127.49561,0 -191.24341,0c0.6463,31.7932 16.4775,97.94499 -37.32341,91.92729c-44.8765,0.0796 -19.0712,-66.437 -26.4302,-91.92729c-61.6877,0 -123.37541,0 -185.06311,0c0,65.0598 0,130.11959 0,195.17938c90.3394,-1.8221 180.67931,-5.83599 271.05321,-4.24649c68.115,-13.3293 115.6647,42.56959 151.1048,91.42639c3.7583,82.06549 3.0543,166.56158 0.2762,248.74758c-106.31731,7.2351 -217.2829,3.7737 -324.48201,1.6745c-6.8334,-67.62039 2.6205,-138.61028 1.9507,-207.51038c27.2813,-79.8206 -45.37741,-61.4871 -99.90291,-60.9346c-1.2326,118.28489 2.4358,237.36758 -1.8299,355.15887c-76.2796,7.3164 -157.22441,3.6652 -234.40171,1.709c-5.7675,-80.6192 0.0987,-165.57639 3.3318,-246.96948c53.6745,-8.0676 111.01641,0.289 166.05611,-1.6573c0,-124.19249 0,-248.38499 0,-372.57748c-145.65661,0 -291.3132,0 -436.96991,0c0,75.7803 0,151.56069 0,227.34098c17.8375,75.1223 -77.95381,32.788 -119.98831,41.1361c-41.3361,10.7931 -137.1523,-31.73099 -134.6864,21.9386c26.5682,71.8858 -39.4629,68.6816 -91.7,66.34179c-74.492,26.3212 -64.3505,-40.3106 -56.9661,-90.88469c-82.2082,-0.2222 -164.4162,-0.46 -246.62431,-0.7078c-21.9283,-37.63279 -2.4001,-97.47289 -8.9244,-143.23409c-11.5894,-43.6045 32.2981,-142.61659 -41.8471,-123.74359c-74.3458,-23.1855 -57.1426,35.9605 -56.81361,86.5584c-76.0199,7.4734 -156.56441,3.36 -233.57316,1.9335c-10.2884,-75.6146 -4.3122,-155.43048 -8.54901,-232.60828c16.8455,-40.9265 94.04447,-7.3312 134.45067,-18.1418c41.6158,8.0073 137.3809,-27.779 112.874,46.9729c-24.9975,67.65929 51.08861,40.4849 92.83601,45.5587c-0.6019,-88.4571 -6.4688,-177.68208 -3.8325,-265.66568c85.1321,-8.5242 174.00841,-1.187 260.573,-3.6426c-0.9556,-154.29409 -1.9108,-308.58807 -2.8657,-462.88216c-83.1527,-1.438 -167.1078,2.0041 -249.7661,-2.4341c-9.9623,-113.07089 1.9304,-229.99448 -6.819,-344.36927c-6.1706,-33.35209 -13.3327,21.9067 -9.5294,28.9334c22.9515,72.8354 -45.0946,59.8676 -93.5674,54.5349c-53.8547,-11.8644 -89.9274,-5.5944 -74.5777,55.81239c10.6833,48.0774 -81.15031,48.35489 -70.84871,0.3107c10.419,-52.8064 -11.4265,-71.9216 -65.34603,-59.0366c-76.02617,-24.2356 3.49249,88.91879 -48.67838,93.28709c-28.60972,7.7564 -62.68431,-5.7224 -54.05159,-40.6724c18.09901,-64.02899 -34.1706,-56.2849 -82.88344,-52.34049c-48.78506,-2.054 26.83691,115.38249 -48.6805,93.01289c-53.25265,7.7883 -32.50844,-63.32389 -36.44296,-92.80769c-60.30666,0 -120.61324,0 -180.9199,0c-72.54279,21.8946 -80.58224,-30.0316 -66.94727,-88.3884c-174.99285,0 -349.98561,0 -524.97846,0c0,123.55959 0,247.11908 0,370.67867c151.42259,0 302.84518,0 454.26777,0c73.97106,19.7728 75.39826,-24.7856 68.50097,-84.74579c132.04813,-7.317 268.56676,-3.5692 401.58009,-1.8817c8.89355,139.36039 6.92355,283.45657 6.64636,423.83237c-135.83751,7.1818 -276.34794,3.8626 -413.04291,1.6228c-6.81695,-57.07339 3.26047,-117.50029 2.64131,-175.80988c-173.03638,-0.012 -346.07266,-0.023 -519.10894,-0.035c1.2986,63.58659 -4.57949,127.67479 2.48593,191.00169c49.62564,27.2784 110.56605,51.4769 157.89059,88.18119c21.05941,55.5173 0.2512,119.85109 8.44179,178.48578c36.65456,38.7707 80.89602,77.82339 116.71629,120.04819c24.70958,17.3799 34.3981,54.53669 59.57702,67.43179c47.26488,-65.07359 110.85826,-123.70639 168.75006,-181.62558c21.92111,-55.4006 -23.83816,-134.68929 19.52402,-186.80888c45.5603,-31.6365 98.65474,-63.08669 150.07033,-76.7874c79.32103,83.46089 159.3886,166.24368 236.33525,251.92418c-6.76966,44.08129 -35.82362,85.6256 -53.86165,127.66239c-28.70394,71.0816 -115.47505,45.47819 -173.89373,44.14239c-29.37074,-9.5572 -33.6262,21.0853 -50.32267,37.5305c-44.93929,46.1403 -84.17885,106.50529 -142.16364,135.46549c24.58716,48.47379 78.32878,84.59069 115.2501,126.57489c46.97222,38.95509 71.59889,100.28859 52.32519,160.03119c392.36722,-1.5573 784.73433,-3.11089 1177.10154,-4.66109c60.2394,51.10729 113.61421,112.53249 171.30421,167.47178c6.2418,88.11719 0.8484,178.53618 2.6585,267.53008c-47.8681,60.2223 -104.86201,114.73329 -156.21601,172.77158c-137.51371,5.6007 -278.5269,3.4754 -416.54741,1.0531c-7.2215,-145.39479 1.5757,-294.41537 0.3971,-441.18216c-232.0022,-0.0929 -464.00429,-0.1858 -696.00647,-0.2788c-73.22037,-18.0588 -92.8007,17.5439 -79.54952,85.99129c-24.63958,54.40609 -81.30544,95.2985 -121.39583,141.97379c-10.99038,21.8956 -46.14287,27.6284 -50.78882,49.5286c58.82677,50.40909 120.39155,111.18519 166.41873,176.88028c58.72866,15.11 125.9024,-3.5506 183.54389,11.3592c22.02593,57.0722 60.78317,111.83559 72.79957,170.28569c-78.39649,81.26649 -152.79288,166.69079 -235.71379,243.43048c-44.94654,6.4407 -86.59186,-34.125 -126.3332,-52.1353c-73.82292,-41.27079 -31.41278,-136.97819 -39.65393,-202.91349c-40.27742,-36.92209 -84.43518,-79.7458 -121.42199,-123.15399c-25.0604,-14.253 -29.26291,-61.9023 -61.62126,-57.2825c-48.81768,58.76579 -101.18585,125.9402 -163.88103,174.58429c-15.28667,34.97039 3.07309,84.41199 -1.20835,124.12339c9.08711,72.49899 -68.89669,102.28629 -121.53337,127.63559c-15.40591,18.6562 -63.94332,1.1442 -55.26066,35.7448c20.48232,12.1623 59.31946,-10.8346 84.62496,-3.4699c7.30883,141.45229 3.60863,287.45118 1.81266,429.84007c-132.18442,7.3087 -268.98077,3.6139 -402.08072,1.7609c-7.07947,-128.95949 1.90132,-261.50918 0.88609,-391.82797c-9.41406,-63.22239 76.28516,-25.3337 114.88249,-34.2206c16.67013,-4.9377 68.75367,14.8603 56.74408,-19.1559c-44.80069,-16.3532 -94.09646,-37.80709 -136.05247,-64.54769c-69.39449,-42.7716 -26.70804,-135.64269 -36.59825,-200.30659c-41.57444,-35.31129 -83.89107,-79.3486 -120.98138,-122.25359c-25.11272,-14.397 -28.79701,-62.4189 -61.216,-57.9068c-49.88258,58.15609 -102.16703,125.1196 -164.39888,174.49799c-12.83284,56.11609 6.44572,119.40819 -7.02617,177.10468c-44.43644,37.09139 -98.34928,70.4755 -152.93606,89.3206c-85.69718,-76.25729 -164.31385,-162.05149 -240.28845,-248.28159c-1.1048,-61.19429 47.4689,-115.01929 68.052,-171.07968c56.06199,-13.3755 118.77327,1.6392 176.96665,-8.9597c35.0535,-39.18849 71.36546,-85.01859 111.22772,-122.44889c14.26995,-24.8901 53.54072,-35.6495 60.30092,-61.354c-43.68488,-35.76159 -88.81607,-81.98179 -127.82582,-126.26679c-53.43429,-33.53089 -46.26397,-91.8356 -44.35884,-146.73579c-69.05446,-0.6909 -138.10893,-1.3813 -207.16333,-2.0733c-75.6201,-24.5298 -62.2718,36.6586 -63.7332,89.6158c-137.2723,7.3674 -278.1423,-1.1395 -416.78901,0.1553c1.123,83.1432 2.2479,166.28649 3.3676,249.42968c-1.5786,47.7154 22.4676,130.90949 -55.55471,106.45429c-68.6682,-19.0571 -26.6648,71.2671 -37.2716,109.6222c92.534,-1.4902 185.06781,-2.9806 277.60161,-4.4776c66.0315,-19.6528 99.4642,45.9197 143.6932,81.1787c5.5116,84.15929 3.2409,171.61478 1.1048,256.29168c-103.9818,8.9332 -212.7659,7.0151 -317.78371,6.7499c-8.6437,-87.63569 -1.0692,-179.10009 -3.6425,-268.16878c-89.9766,0 -179.95311,0 -269.92971,0c1.1662,59.21259 8.1577,119.19019 5.7659,177.93328c-153.3132,6.9463 -310.17511,-1.8853 -464.85111,-0.982c-53.2336,-1.1238 -15.4805,-82.34559 -25.5544,-119.77549c-5.4941,-16.4968 12.336,-59.62969 -11.4746,-61.54339c-12.9356,94.76559 -0.434,194.74408 -2.9576,291.24497c-5.4762,51.48189 13.7758,116.02569 -7.1932,159.48369c-187.78861,-1.2244 -376.37241,2.4373 -563.66571,-1.8299c-8.5271,-201.04889 -1.1862,-405.84377 -3.6425,-608.32586c-11.9232,-61.81059 3.38551,-109.9289 75.4063,-88.66449c71.4437,-20.7888 87.2218,26.6598 75.4063,88.38829c84.6059,1.2671 170.042,-2.5079 254.1338,1.8817c6.8618,155.94259 -2.2278,315.45718 -1.4554,472.76046c-25.9494,79.61029 45.8655,61.60469 100.3226,60.93599c0,-122.94389 0,-245.88768 0,-368.83147c-18.4058,-69.5263 19.0023,-94.3471 83.6064,-74.6295c-0.6647,-58.8579 -6.8634,-118.4651 -4.1778,-176.86299c55.7659,-8.5294 115.2791,-1.1844 172.4782,-3.6425c0,-64.634 0,-129.26799 0,-193.90198c-62.1078,0 -124.21561,0 -186.32341,0c1.3079,57.6173 8.3865,115.9629 6.2148,173.13409c-110.58131,8.5838 -224.9339,1.1925 -336.96331,3.6426c-51.4145,-6.1187 -116.1347,12.2564 -159.3752,-9.2014c2.7756,-168.15789 0.8028,-337.12348 6.5255,-504.78026c158.58801,-7.2959 321.7323,-3.6299 481.25041,-1.7954c8.6076,56.53829 0.3935,116.9637 2.8139,174.92959c110.90701,1.2375 222.61301,-2.4344 333.02731,1.8299c8.588,116.97929 1.1163,237.74978 3.6426,356.16007c56.8579,1.3392 114.6413,-2.717 170.9244,2.0026c7.0169,52.00729 -2.8617,107.3705 -2.0359,160.61189c-0.3864,27.0992 127.73671,42.04999 100.14351,-17.8958c17.4342,-70.75259 -19.7502,-82.89259 -83.2266,-75.31999c-7.7397,-187.82748 0.4323,-379.33587 -1.2293,-568.56936c10.8558,-41.46029 -30.2153,-141.43139 43.2252,-122.29379c70.7694,24.2792 31.0299,-67.7404 41.2307,-107.20419c-82.6251,-1.182 -165.99221,2.3225 -248.16061,-1.7436c-8.8554,-110.48479 -7.1876,-225.83598 -6.6119,-337.30847c62.4388,-7.1434 128.2117,1.9296 191.9706,0.7482c16.2427,-6.1668 65.6606,14.6999 62.5947,-13.8338c-19.4024,-14.2498 -55.3606,-0.711 -79.0661,-5.8351c-19.6805,-42.34429 -5.7553,-106.17089 -7.2851,-156.00889c59.6027,-8.6326 123.00841,-1.1553 184.06181,-3.6425c42.6601,13.0174 135.4105,-28.96299 141.6976,26.7927c-13.0154,39.234 29.1598,131.06439 -27.3452,132.85869c-14.4419,7.1045 -65.5691,-14.1194 -58.5918,14.1041c80.547,14.4998 168.09971,-3.8682 250.23231,3.3664c7.2208,112.63899 3.7911,229.91818 1.6745,343.43707c-61.616,7.1013 -126.64301,-2.1507 -189.55501,-1.264c-81.0743,-27.48 -61.1057,48.7813 -61.8684,103.72199c119.6883,-1.6638 239.3768,-3.3247 359.0654,-4.9669c73.8082,-24.9314 65.45581,42.7738 62.26391,93.47609c78.8705,0 157.74094,0 236.61145,0c54.74837,16.0439 24.64374,-38.17029 29.84831,-70.14109c23.95138,-73.18669 96.92401,-117.9496 144.63241,-175.43009c5.70477,-9.8903 37.49832,-34.7495 24.98005,-41.3112c-63.36215,-43.6529 -116.5182,-105.46079 -161.42956,-167.85159c-51.01298,-18.6888 -122.75242,20.686 -174.30806,-14.0177c-40.8139,-45.08599 -65.1411,-107.11099 -76.9428,-166.14259c69.0566,-89.9202 156.35316,-167.56659 232.65819,-252.28648c54.87219,14.6617 108.23888,51.5264 157.73519,83.3647c20.42505,52.3763 2.43749,114.37949 5.67869,169.67018c25.47847,46.06489 79.31652,79.99909 114.85827,122.78749c25.19262,19.3289 39.68902,53.9381 61.50512,72.6966c55.76854,-58.41719 105.80509,-126.80709 169.31893,-179.31439c18.19713,-54.16759 -4.42119,-120.85819 9.08049,-179.02088c43.62265,-41.72959 104.30231,-66.6023 159.56509,-90.8224c14.57807,-61.3736 1.56616,-132.62409 5.50704,-197.00939c-61.08351,0.011 -122.16693,0.022 -183.25044,0.034c0.68139,58.4775 6.89633,117.70509 4.21224,175.72358c-110.35055,8.5864 -224.47361,1.1924 -336.27276,3.6426c-51.43787,-6.0741 -115.97559,12.1592 -159.37524,-9.115c1.26024,-169.77829 -2.50537,-340.38667 1.8817,-509.64866c160.13061,-5.716 324.68762,-0.4024 485.66985,3.0212c8.26944,56.579 -0.24934,116.93049 1.84714,174.89498c62.25739,0 124.5148,0 186.77218,0c-2.54108,-273.18678 5.86386,-546.74964 -6.80175,-819.69832c-54.20009,-50.97303 -106.69189,-106.97735 -158.61563,-161.30873c-6.81545,-132.85933 -6.91542,-267.82014 -4.86834,-401.51094c-7.8937,-36.69287 23.79193,-61.60525 58.54004,-53.68901zM2548.82923,655.67886c-51.7938,63.00207 -111.3422,123.16142 -168.0587,183.04328c2.384,180.97481 -5.6238,362.39888 5.2999,543.10497c51.333,54.3128 113.7453,107.9619 159.25441,170.71719c145.43001,10.8222 297.13571,9.4358 443.87521,1.1049c46.0597,-57.0338 96.8864,-115.0706 153.8856,-163.06959c20.3184,-39.72359 5.0322,-96.2872 10.2371,-141.55949c25.0906,-79.6496 -46.6285,-61.57509 -101.0942,-60.9569c-1.2711,59.46369 2.4871,119.75089 -1.8644,178.71019c-134.8319,7.4026 -273.27601,-1.1429 -409.49201,0.1629c-51.4322,-6.4228 -115.77871,10.9973 -159.30081,-10.2964c-0.3182,-168.21859 -5.6747,-337.22085 -2.8658,-504.95299c171.67681,-8.53342 347.10441,-1.17795 520.21382,-3.64257c79.0122,-23.15402 47.5857,68.51306 53.3092,114.90486c-25.0758,79.39786 46.63,62.01398 101.0942,61.87184c0,-63.90316 0,-127.80632 0,-191.70948c-54.7826,-56.37989 -112.7714,-110.45332 -162.0683,-171.684c-90.7331,-18.11733 -186.12611,-5.1802 -278.44061,-10.25443c-54.6014,0.69364 -109.6007,-1.21488 -163.9846,4.50573zM1708.72571,2253.97144c0,95.5699 0,191.13978 0,286.70968c117.66691,0 235.3339,0 353.00091,0c0,-95.5699 0,-191.13978 0,-286.70968c-58.8335,0 -117.66701,0 -176.5005,0c-58.8335,0 -117.66701,0 -176.5004,0zM-226.9792,2700.3325c0,58.7414 0,117.4829 0,176.22429c12.76318,40.0857 98.73411,6.96369 140.86892,17.67769c75.81856,20.0234 33.30456,-78.28579 44.19418,-123.19129c22.66666,-77.0807 -30.80432,-78.0238 -92.53156,-70.7107c-30.84382,0 -61.68773,0 -92.53155,0zM276.83439,2700.3325c0,58.7414 0,117.4829 0,176.22429c12.76319,40.0857 98.73412,6.96369 140.86894,17.67769c75.81855,20.0234 33.30455,-78.28579 44.19417,-123.19129c22.66666,-77.0807 -30.80431,-78.0238 -92.53155,-70.7107c-30.84382,0 -61.68774,0 -92.53156,0zM2928.48304,2787.4913c-73.264,-22.1473 -34.8269,66.3977 -44.1923,107.57179c48.3227,-3.599 128.221,24.6701 102.5616,-53.58539c6.8845,-60.6992 -2.451,-57.9192 -58.3693,-53.9864zM-226.9792,3053.88588c0,66.1072 0,132.21419 0,198.32139c52.84889,0 105.69771,0 158.5466,0c55.40765,4.0319 14.04049,-88.71099 26.51651,-127.61069c22.66666,-77.08079 -30.80432,-78.0239 -92.53156,-70.7107c-30.84382,0 -61.68773,0 -92.53155,0zM276.83439,3053.88588c0,66.1072 0,132.21419 0,198.32139c52.84889,0 105.6977,0 158.54661,0c55.40765,4.0319 14.04049,-88.71099 26.5165,-127.61069c22.66666,-77.08079 -30.80431,-78.0239 -92.53155,-70.7107c-30.84382,0 -61.68774,0 -92.53156,0zM-1818.24568,3500.24704c-58.8335,0 -117.66701,0 -176.5005,0c0,54.5809 0,109.16189 0,163.74279c11.0714,44.80429 -31.78789,143.53929 43.88341,123.74369c15.813,-7.2147 69.6219,15.99729 61.4921,-18.0919c-22.7712,-9.3652 -58.5281,10.6898 -84.6077,4.4366c-7.2966,-82.6873 -3.6776,-170.00818 -1.7263,-253.59858c104.1445,-5.7659 212.639,-0.0439 317.61101,3.1419c8.4712,65.53339 1.2354,134.77469 3.6426,201.73949c18.4833,69.0265 -64.5922,37.87209 -104.5988,43.84789c-18.6647,5.6106 -62.93121,-12.494 -67.68941,11.0841c56.6311,14.8722 124.6138,2.3242 184.99401,6.6637c0,-95.5699 0,-191.13978 0,-286.70968c-58.8335,0 -117.66691,0 -176.5004,0zM-1221.07197,3769.83142c-36.8375,1.4251 -10.9675,67.3026 -17.5913,97.77959c18.755,18.8325 67.5191,2.7519 95.8297,7.961c13.4827,-28.4563 30.6799,-135.7664 -43.5045,-105.7406c-11.578,0 -23.1559,0 -34.7339,0z"/></g></g></svg>