<svg version="1.1" xmlns="http://www.w3.org/2000/svg" xmlns:xlink="http://www.w3.org/1999/xlink" width="980.48048" height="630.63063" viewBox="0,0,980.48048,630.63063"><g transform="translate(145.24024,130.31528)"><g data-paper-data="{&quot;isPaintingLayer&quot;:true}" stroke-miterlimit="10" stroke-dasharray="" stroke-dashoffset="0" style="mix-blend-mode: normal"><path d="M-145.24024,500.31535v-630.63063h980.48048v630.63063z" fill="#000000" fill-rule="nonzero" stroke="#ff3838" stroke-width="0" stroke-linecap="butt" stroke-linejoin="miter"/><text transform="translate(304.71471,259.28905) scale(0.5,0.5)" font-size="40" xml:space="preserve" fill="#ffffff" fill-rule="nonzero" stroke="none" stroke-width="1" stroke-linecap="butt" stroke-linejoin="miter" stroke-miterlimit="10" stroke-dasharray="" stroke-dashoffset="0" font-family="Marker" font-weight="normal" text-anchor="start" style="mix-blend-mode: normal"><tspan x="0" dy="0">Loading</tspan></text><g><path d="M331.49286,176.43892c-0.25547,0.44977 -4.03757,0.51831 -5.33954,1.66441c-0.89905,0.84182 -1.93424,1.94309 -2.38895,3.51432c-1.07908,3.53995 -1.60921,2.6856 -3.7885,2.77783c-2.22221,0.11835 -3.68546,-0.75438 0.50356,-5.6594c1.4361,-1.69845 3.06654,-2.69168 4.42275,-3.45906c0.34325,-0.20908 3.48671,-1.71225 5.40514,-0.88073c1.91843,0.83149 1.42427,1.66197 1.18557,2.04271z" fill="#000000" fill-rule="evenodd" stroke="#001026" stroke-width="1.2" stroke-linecap="round" stroke-linejoin="round"/><path d="M331.1723,170.14846c1.04306,0.07054 2.59949,0.88722 1.93221,2.88209c-0.75113,2.34008 -3.69185,1.95489 -4.94205,1.83405c-1.2502,-0.12083 -1.91448,-0.2456 -4.33445,-0.06562c-0.96464,0.05819 -2.11767,0.28998 -2.7371,0.43202c-0.24064,0.08777 -0.4552,0.21846 -0.61744,0.43498c-0.28159,0.40685 4.56384,-0.99297 3.38273,-1.09703c-1.26109,-0.22304 -1.24597,0.9656 -0.89965,-0.98781c0.03977,-0.22442 -0.13302,0.37892 -0.11674,0.13796c0.15298,-2.26714 -1.13651,-0.96149 0.20167,-1.28439c2.80415,-0.70816 2.57339,-2.30439 2.47131,-0.83031c0.01877,0.22391 0.48853,0.80192 0.68627,0.74027l-1.90021,-1.63395c0.58849,-0.14445 -0.89365,-0.14391 -0.32272,-0.23954c0.63372,-0.10615 2.29612,-0.10856 2.88826,-0.16646c2.53941,-0.24831 3.5555,-0.18701 4.30794,-0.15624z" fill="#000000" fill-rule="evenodd" stroke="#001026" stroke-width="1.2" stroke-linecap="round" stroke-linejoin="round"/><path d="M343.14182,175.37818c-0.33735,1.08793 -1.9791,1.67627 -2.75385,0.50107c-0.67956,-1.11556 -0.48427,-2.8229 -0.38761,-3.82303c0.09666,-1.00014 0.95726,-4.9953 4.72803,-5.46872c1.63635,-0.1144 6.01764,0.51098 5.33557,2.8678c-0.68205,2.35684 -3.1696,1.46024 -4.74823,1.18656c-1.3286,-0.24955 -2.06394,4.43405 -2.17391,4.73639z" fill="#000000" fill-rule="evenodd" stroke="#001026" stroke-width="1.2" stroke-linecap="round" stroke-linejoin="round"/><g fill-rule="evenodd"><path d="M335.67956,170.51151c0.75011,0.07251 1.65706,0.40244 2.9447,0.97106c1.05438,0.47544 2.62216,1.69701 2.62216,1.69701c1.03958,0.8374 2.55163,2.74007 1.1096,3.55969c-0.97006,0.53214 -1.74977,1.1836 -3.07789,2.2868c-2.26069,2.08314 -2.52355,2.71388 -4.66786,1.60819c-2.41306,-1.35374 -6.28838,-1.05197 -4.81079,-6.83484c0,0 1.10918,-2.91118 2.12461,-6.94181c0.69688,-2.71883 1.93623,-6.76823 2.38352,-8.15845c0.10999,-0.30231 0.31513,-0.54495 0.54643,-0.74468c3.92663,-2.9215 7.27724,-4.37435 8.40114,-2.5294c1.88191,3.08922 -4.90707,5.75425 -4.90707,5.75425c0,0 -0.95429,2.87567 -1.35871,4.23976z" fill="#000000" stroke="#001026" stroke-width="1.2" stroke-linecap="round" stroke-linejoin="round"/><path d="M339.3186,172.23619c0,0 1.46866,0.57604 0.32941,2.85841c-1.17276,2.42045 -2.73857,1.49182 -4.13818,0.93256c-1.66838,-0.80735 -1.20233,-1.97366 -0.81471,-3.26873c0.29444,-1.06178 0.62434,-1.96872 0.62434,-1.96872c0,0 1.87897,0.09075 3.99908,1.44647z" fill="#a00000" stroke="none" stroke-width="1" stroke-linecap="butt" stroke-linejoin="miter"/></g><g fill-rule="evenodd"><path d="M356.44045,197.69119c-0.88227,0.77279 -1.85974,1.48591 -3.11337,2.13195c-2.06884,1.14267 -4.44396,1.58947 -4.44396,1.58947l-3.12673,6.55219c-0.11934,0.19036 -0.41231,0.19233 -0.47393,-0.00542l-3.77761,-8.22903c0.46652,0.18641 -7.89364,-2.72135 -7.82702,-9.46841c0.06661,-6.74704 5.21239,-12.88201 14.24577,-16.20838c9.03338,-3.32636 13.74411,0.15741 14.71908,2.91669c0.97499,2.75928 -1.52246,5.51608 -1.52246,5.51608c0,0 1.13329,1.9569 1.19788,5.15312c0.04733,1.9125 -1.47017,5.60189 -1.47017,5.60189l1.68118,5.27052c0.06163,0.19777 -0.12675,0.37136 -0.30776,0.36395z" fill="#000000" stroke="#001026" stroke-width="1.2" stroke-linecap="butt" stroke-linejoin="miter"/><path d="M360.88697,182.39311c-3.15035,3.03689 -5.1403,0.54296 -8.36019,2.21032c-3.76092,1.93811 -6.31655,8.84839 -11.98797,6.00866c-5.64529,-2.79679 -4.47495,-11.98108 7.21516,-16.16107c8.92144,-3.317 13.67307,-0.15231 14.64807,2.60699c0.97499,2.75927 -1.51505,5.33507 -1.51505,5.33507z" fill="#000000" stroke="none" stroke-width="1" stroke-linecap="butt" stroke-linejoin="miter"/><path d="M344.57489,186.03556c-1.40947,-2.02397 -2.69611,-5.00519 0.94691,-7.81276c4.34827,-3.00185 7.93902,-0.77716 9.03091,0.14605c0.21649,0.16225 0.17557,0.48136 -0.06511,0.56911c-0.72199,0.26336 -2.17339,0.97103 -4.4119,2.51117c-2.46976,1.7399 -4.36851,3.83782 -5.00076,4.63477c-0.14547,0.14746 -0.39551,0.12328 -0.50005,-0.04834z" fill="#000000" stroke="#001026" stroke-width="1.2" stroke-linecap="round" stroke-linejoin="round"/><path d="M362.36894,178.54887c0,0 3.11535,-1.83901 6.12516,-1.43704" fill="none" stroke="#001026" stroke-width="1.2" stroke-linecap="round" stroke-linejoin="round"/><path d="M360.99845,175.91288c0,0 1.1767,-1.83457 4.01046,-3.26674" fill="none" stroke="#001026" stroke-width="1.2" stroke-linecap="round" stroke-linejoin="round"/><path d="M350.72126,186.46809c-0.41821,-0.6865 0.73042,-2.85691 1.55498,-3.24158c0.71264,-0.37529 2.08806,0.434 2.4111,1.0608c0.14006,0.32648 -0.75159,0.98733 -1.65263,1.53623c-0.85812,0.52274 -2.0427,1.18556 -2.31345,0.64455z" fill="#001026" stroke="#000000" stroke-width="1.2" stroke-linecap="round" stroke-linejoin="round"/><path d="M337.76865,192.53496c-0.69145,2.2449 -3.64948,5.69409 -3.64948,5.69409" fill="none" stroke="#001026" stroke-width="1.2" stroke-linecap="round" stroke-linejoin="round"/><path d="M331.80572,193.75554c0,0 2.88751,-2.40615 5.1768,-2.80067" fill="none" stroke="#001026" stroke-width="1.2" stroke-linecap="round" stroke-linejoin="round"/><g fill="#a00000"><path d="M357.9481,192.53707c-1.67186,-0.04045 -2.96195,-2.2548 -2.89387,-4.94353c0.11099,-2.71488 1.53575,-4.81824 3.20758,-4.7778c1.67186,0.04045 2.96195,2.2548 2.89387,4.94353c-0.06809,2.68879 -1.50962,4.86116 -3.20758,4.7778z" stroke="#001026" stroke-width="1.2" stroke-linecap="round" stroke-linejoin="round"/><path d="M359.49422,185.41819c0.2875,0.47194 0.17951,1.06722 -0.24955,1.3286c-0.42907,0.2614 -1.00756,0.08431 -1.29507,-0.38764c-0.2875,-0.47194 -0.17951,-1.06722 0.24955,-1.3286c0.42907,-0.2614 1.00756,-0.08431 1.29507,0.38764" stroke="none" stroke-width="1" stroke-linecap="butt" stroke-linejoin="miter"/></g><g><path d="M349.7832,193.04002c-0.13711,2.67201 -1.52637,4.93019 -3.45762,4.75361c-1.90512,-0.13366 -3.30913,-2.63157 -3.12913,-5.32969c0.13711,-2.67201 1.65904,-4.42272 3.57154,-4.47005c1.65508,0.10949 3.15235,2.37412 3.01521,5.04611z" fill="#ffffff" stroke="#001026" stroke-width="1.2" stroke-linecap="round" stroke-linejoin="round"/><path d="M348.00978,190.70836c0.2875,0.47194 0.15336,1.02431 -0.24955,1.3286c-0.42907,0.2614 -1.00756,0.08431 -1.29507,-0.38764c-0.2875,-0.47194 -0.17951,-1.06722 0.24955,-1.3286c0.42907,-0.2614 1.00756,-0.08431 1.29507,0.38764" fill="#001026" stroke="none" stroke-width="1" stroke-linecap="butt" stroke-linejoin="miter"/></g></g><path d="M347.76855,189.12418c0,0 0.08101,-0.12924 0.2269,-0.22041c-0.08163,-0.15919 -0.19715,-0.32925 -0.37921,-0.53613c-0.41185,-0.67194 -0.82184,-1.34498 -1.23187,-2.01805l-0.34605,-0.35757c0,0 -0.42557,-0.46185 0.03627,-0.8874c0.46184,-0.42555 0.8874,0.03627 0.8874,0.03627l0.49504,0.55523c0.39204,0.64356 0.78428,1.28698 1.17432,1.93178c1.03337,1.21645 1.66984,3.31342 2.00569,4.73579c0.2713,1.1489 -0.52991,2.16991 -0.20672,3.40383c0.11962,0.45672 0.67203,0.6965 0.84755,1.13478c0.08995,0.22459 -0.0849,0.50347 0.01058,0.7258c0.50467,1.17517 0.88021,1.1842 0.71263,2.57628c0,0 -0.07993,0.62289 -0.70282,0.54298c-0.62289,-0.07993 -0.54298,-0.70282 -0.54298,-0.70282c0.2323,-1.67917 -1.08703,-2.47073 -1.53314,-3.9336c-0.30591,-1.00319 -0.09365,-2.09488 0.2053,-3.01407c0.01188,-0.03656 0.02091,-0.07044 0.02735,-0.10197c-0.13379,0.01386 -0.23915,-0.01172 -0.23915,-0.01172c-0.22304,-0.05417 -0.44603,-0.10835 -0.66905,-0.1625l-0.45143,-0.38747c0,0 -0.32673,-0.53631 0.20959,-0.86304c0.35852,-0.21841 0.62335,-0.05113 0.75958,0.08376c0.00676,0.00165 0.01353,0.00327 0.02025,0.00491c0.03685,-0.13015 0.07506,-0.26049 0.05334,-0.38929c-0.06031,-0.35701 -0.3812,-0.60812 -0.59468,-0.90869c-0.09278,0.16852 -0.24572,0.26167 -0.24572,0.26167l-0.96272,-0.80659c0.14456,-0.23059 0.28913,-0.46116 0.43371,-0.69174z" fill="#a00000" fill-rule="nonzero" stroke="none" stroke-width="0.5" stroke-linecap="butt" stroke-linejoin="miter"/><path d="M347.75563,183.65303c0.46184,-0.42555 0.8874,0.03627 0.8874,0.03627l0.3642,0.40239c0.20802,0.17673 0.41606,0.35348 0.62409,0.53021c0.46386,0.53976 1.32165,1.03118 1.61586,1.68676c0.25519,0.56859 0.23187,1.45878 0.37332,2.07402c0.39221,1.70576 0.8966,3.62511 1.51467,5.25233c0.54887,1.44506 2.0161,3.05378 2.83795,4.40286c0,0 0.32673,0.53631 -0.20959,0.86304c-0.53631,0.32673 -0.86304,-0.20959 -0.86304,-0.20959c-0.8768,-1.43931 -2.34202,-3.07097 -2.94216,-4.61749c-0.64866,-1.6716 -1.16242,-3.66317 -1.56292,-5.41434c-0.01295,-0.05666 -0.23541,-1.6946 -0.27897,-1.80413c-0.18031,-0.45333 -1.04798,-0.97115 -1.36857,-1.34073c-0.18384,-0.1546 -0.36768,-0.30922 -0.55155,-0.46383l-0.47688,-0.5104c0,0 -0.42557,-0.46185 0.03627,-0.8874z" fill="#a00000" fill-rule="nonzero" stroke="none" stroke-width="0.5" stroke-linecap="butt" stroke-linejoin="miter"/><path d="M353.61859,172.30156c0.61028,0.14822 0.46207,0.75849 0.46207,0.75849l-0.14636,0.47573c0.8933,1.97539 1.80635,4.01122 2.60645,6.03192c0.62908,1.58872 2.3358,2.5052 1.15615,4.27867c0,0 -0.37663,0.50254 -0.87917,0.12592c-0.50254,-0.37662 -0.12591,-0.87916 -0.12591,-0.87916c0.61326,-0.63633 -0.50663,-1.70305 -0.8892,-2.33849c-1.29929,-2.15798 -2.25402,-4.76488 -3.12107,-7.12871l0.17861,-0.86237c0,0 0.14821,-0.61024 0.75849,-0.46207z" fill="#a00000" fill-rule="nonzero" stroke="none" stroke-width="0.5" stroke-linecap="butt" stroke-linejoin="miter"/><path d="M355.18669,171.98602c0.53631,-0.32673 0.86304,0.20959 0.86304,0.20959l0.2997,0.50837c0.85704,2.13345 1.98561,4.08108 2.67085,6.2804c0.42742,1.37177 0.34464,2.93085 0.88582,4.23694c0,0 0.23411,0.58274 -0.34864,0.81684c-0.58274,0.23411 -0.81684,-0.34864 -0.81684,-0.34864c-0.54139,-1.38089 -0.48077,-2.92529 -0.92536,-4.35087c-0.67327,-2.15891 -1.78879,-4.0692 -2.63133,-6.16647l-0.20686,-0.32316c0,0 -0.32673,-0.53631 0.20959,-0.86304z" fill="#a00000" fill-rule="nonzero" stroke="none" stroke-width="0.5" stroke-linecap="butt" stroke-linejoin="miter"/><path d="M346.16754,194.59427c0.46921,-0.41739 0.88662,0.05183 0.88662,0.05183l0.06962,0.07826c1.17261,1.59095 1.12627,1.68133 -0.28137,2.90285c0,0 -0.47529,0.41046 -0.88576,-0.06488c-0.41046,-0.47529 0.06488,-0.88576 0.06488,-0.88576c0.25933,-0.2227 1.00242,-0.28777 0.83985,-0.58848c-0.13605,-0.2517 -0.45071,-0.35264 -0.67607,-0.52894l-0.06962,-0.07826c0,0 -0.41739,-0.46921 0.05183,-0.88662z" fill="#a00000" fill-rule="nonzero" stroke="none" stroke-width="0.5" stroke-linecap="butt" stroke-linejoin="miter"/><path d="M345.62427,192.51336c0.32673,0.53631 -0.20959,0.86304 -0.20959,0.86304l-0.10398,0.06332c-0.41579,0.25328 -0.83156,0.50657 -1.24734,0.75985c0,0 -0.53631,0.32673 -0.86304,-0.20959c-0.32673,-0.53631 0.20959,-0.86304 0.20959,-0.86304c0.41575,-0.25328 0.93551,-0.56989 1.35124,-0.82318c0,0 0.53631,-0.32673 0.86304,0.20959z" fill="#a00000" fill-rule="nonzero" stroke="none" stroke-width="0.5" stroke-linecap="butt" stroke-linejoin="miter"/><path d="M346.28482,190.20815c-0.14823,0.61027 -0.75849,0.46207 -0.75849,0.46207l-0.63118,-0.51053c-0.05735,-0.25011 -0.11471,-0.50021 -0.17203,-0.75029c0,0 -0.14034,-0.61212 0.47179,-0.75246c0.61212,-0.14036 0.75246,0.47176 0.75246,0.47176c0.03232,0.14089 0.06461,0.2818 0.09693,0.42269c0.1573,0.10432 0.32648,0.30282 0.24053,0.6568z" fill="#a00000" fill-rule="nonzero" stroke="none" stroke-width="0.5" stroke-linecap="butt" stroke-linejoin="miter"/><path d="M319.73665,175.34401c0.23305,-0.58316 0.81619,-0.35013 0.81619,-0.35013l0.09799,0.22623c0.34872,-0.13884 0.67583,-0.3039 1.00191,-0.47073c0.04614,-0.10685 0.10392,-0.17517 0.10392,-0.17517c0.15188,-0.17769 0.2804,-0.37837 0.45561,-0.53307c0.06674,-0.05891 0.30413,-0.0193 0.25115,-0.09082c-0.15773,-0.21281 -0.69853,-0.19106 -0.65355,-0.45212c0.08236,-0.47808 0.5781,-0.78445 0.92503,-1.12351c0.19488,-0.19045 0.94234,-0.10199 0.759,-0.30356c-0.14702,-0.1616 -0.55317,-0.1765 -0.5245,-0.39308c0.12121,-0.91596 1.2175,-1.96085 2.21682,-1.00812c0.2914,0.27784 -0.02972,0.80469 -0.0446,1.20708l-0.38749,0.45144c0,0 -0.10413,0.06343 -0.24856,0.08851c-0.07494,0.16886 -0.19231,0.35546 -0.36081,0.55447c-0.17329,0.20468 -0.43019,0.33462 -0.68198,0.42688c-0.12663,0.04636 -0.50414,-0.11893 -0.40353,-0.02915c0.15868,0.14156 0.57342,-0.00318 0.60331,0.2074c0.04138,0.29168 -0.04391,0.56903 -0.18617,0.82715c0.03462,0.04692 0.06606,0.10304 0.09288,0.16984c0.23411,0.58274 -0.34864,0.81684 -0.34864,0.81684c-0.73236,0.29157 -1.36941,0.69878 -2.10156,0.9952l-1.03226,-0.22539c0,0 -0.58316,-0.23305 -0.35013,-0.81619z" fill="#a00000" fill-rule="nonzero" stroke="none" stroke-width="0.5" stroke-linecap="butt" stroke-linejoin="miter"/><path d="M318.61879,171.5328c0.14823,-0.61027 0.75849,-0.46207 0.75849,-0.46207l0.64539,0.17602c0.20946,0.10991 0.41894,0.21983 0.62844,0.32976c0,0 0.55611,0.29182 0.2643,0.84789c-0.29182,0.55611 -0.84789,0.2643 -0.84789,0.2643c-0.20948,-0.10992 -0.41897,-0.21986 -0.62844,-0.32976l-0.35819,-0.0677c0,0 -0.61027,-0.14823 -0.46207,-0.75849z" fill="#a00000" fill-rule="nonzero" stroke="none" stroke-width="0.5" stroke-linecap="butt" stroke-linejoin="miter"/><path d="M319.0389,168.54057l0.48388,0.56034c0,0 0.41046,0.47529 -0.06488,0.88576c-0.47529,0.41046 -0.88576,-0.06488 -0.88576,-0.06488l-0.48388,-0.56034c0,0 -0.41046,-0.47529 0.06488,-0.88576c0.47529,-0.41046 0.88576,0.06488 0.88576,0.06488z" fill="#a00000" fill-rule="nonzero" stroke="none" stroke-width="0.5" stroke-linecap="butt" stroke-linejoin="miter"/><path d="M313.97957,173.26742c-0.0524,-0.62581 0.57343,-0.67821 0.57343,-0.67821l0.61538,0.04703c0.20948,0.10992 0.41897,0.21986 0.62844,0.32976c0,0 0.16876,0.08856 0.27156,0.26107c0.23353,-0.02415 0.47111,0.0842 0.60141,0.29804c0.18044,0.29623 0.08661,0.6826 -0.20959,0.86304c-0.29623,0.18044 -0.6826,0.08661 -0.86304,-0.20959c-0.00509,-0.00835 -0.00996,-0.01679 -0.01459,-0.02527c-0.20045,0.01348 -0.36932,-0.07512 -0.36932,-0.07512c-0.20948,-0.10992 -0.41897,-0.21986 -0.62844,-0.32976l0.07297,0.09242c0,0 -0.62581,0.05237 -0.67821,-0.57343z" fill="#a00000" fill-rule="nonzero" stroke="none" stroke-width="0.5" stroke-linecap="butt" stroke-linejoin="miter"/><path d="M324.12399,172.31211c0.61027,0.14823 0.46207,0.75849 0.46207,0.75849l-0.14837,0.39567c-0.00603,0.00804 -0.01205,0.01608 -0.0181,0.02412c0.14837,0.10271 0.41363,0.3579 0.21631,0.78184c-0.26501,0.56933 -0.83437,0.30434 -0.83437,0.30434l-0.28105,-0.14426c-0.45018,-0.11226 -0.83121,-0.14163 -1.04966,-0.32292c-0.09603,0.022 -0.19484,0.02066 -0.28844,-0.00204l-0.66906,-0.16251v0c-0.15619,-0.03793 -0.29789,-0.13542 -0.38814,-0.28354c-0.12794,-0.21002 -0.11798,-0.46539 0.00423,-0.66053l-0.35012,-0.2493c-0.07207,-0.0489 -0.13509,-0.11365 -0.18338,-0.1929c-0.18044,-0.29623 -0.08661,-0.6826 0.20959,-0.86304c0.09008,-0.0549 0.18851,-0.08436 0.28694,-0.09052l0.80103,-0.06705l0.00062,0.00738l0.02343,-0.00893c0.5217,-0.0008 1.04755,0.05481 1.55526,0.17481c0,0 0.48659,0.11817 0.48525,0.57797c0.05107,0.00128 0.10628,0.00852 0.16588,0.023zM323.22511,172.94021c0.00873,0.0049 0.01746,0.00976 0.0262,0.01465c0.00269,-0.00359 0.00537,-0.00719 0.00807,-0.01078c-0.01266,-0.00114 -0.02416,-0.0025 -0.03429,-0.00389z" fill="#ffffff" fill-rule="nonzero" stroke="none" stroke-width="0.5" stroke-linecap="butt" stroke-linejoin="miter"/><path d="M345.99505,185.17528c-0.06043,0.62509 -0.68549,0.56468 -0.68549,0.56468l-0.32494,-0.39402c0.0223,0.19143 0.03458,0.37022 0.03722,0.50185c0,0 0.00423,0.62797 -0.62376,0.63222c-0.62797,0.00422 -0.63222,-0.62376 -0.63222,-0.62376c0.01565,-1.31926 -1.24364,-2.91635 1.12923,-2.47234c0.22636,0.04234 0.40902,0.2106 0.61182,0.32088l0.61219,0.14869l-0.05961,0.24542l0.53899,0.38737c-0.18758,0.12196 -0.37618,0.24404 -0.56148,0.37066l0.03803,0.22616l-0.07594,0.01276c-0.00012,0.02544 -0.00145,0.0519 -0.00411,0.07947z" fill="#8da900" fill-rule="nonzero" stroke="none" stroke-width="0.5" stroke-linecap="butt" stroke-linejoin="miter"/><path d="M352.31122,179.98119c0,0 -0.14691,0.60487 -0.7504,0.46399c-0.00077,0.21106 -0.10787,0.41679 -0.30135,0.53464c-0.1481,0.0902 -0.31875,0.11188 -0.47493,0.07395v0l-0.33789,-0.08206c-0.13452,0.06377 -0.25713,0.14531 -0.35992,0.25259l-0.261,0.52413c0,0 -0.24541,0.46768 -0.71501,0.32021c-0.09127,0.14575 -0.28961,0.36172 -0.63685,0.28522c-0.19636,0.42257 -0.49048,0.97265 -0.57765,1.14006l-0.33333,0.30784c0,0 -0.14521,0.08844 -0.33053,0.09774c0.01869,0.06116 0.03451,0.1225 0.04485,0.18407c0,0 0.10416,0.6193 -0.51513,0.72345c-0.61931,0.10418 -0.72345,-0.51513 -0.72345,-0.51513c-0.01639,-0.0975 -0.05953,-0.34196 -0.10274,-0.6092c-0.13836,-0.04455 -0.26197,-0.1371 -0.34353,-0.27096c-0.06812,-0.11182 -0.09716,-0.23648 -0.09096,-0.35806c-0.13576,-0.19994 -0.091,-0.42703 -0.05036,-0.54829c-0.0038,-0.00031 -0.00758,-0.00063 -0.01138,-0.00101c-0.26561,0.07711 -0.56029,-0.02909 -0.71109,-0.27664c-0.18044,-0.29623 -0.08661,-0.6826 0.20959,-0.86304c0.12817,-0.07808 0.27325,-0.10482 0.41123,-0.086c0.12335,-0.04283 0.25038,-0.07862 0.37959,-0.10689c0.01966,-0.01448 0.04075,-0.02866 0.06341,-0.04245c0.25138,-0.15315 0.45674,-0.11666 0.60398,-0.03469c0.2176,-0.00283 0.43444,0.01653 0.64397,0.05993l0.07062,-0.03824c0,0 0.22435,-0.01879 0.41562,0.10048c0.18162,-0.02398 0.36231,-0.00732 0.53345,0.06244c0.08801,-0.66328 -0.55402,-1.38083 -0.10716,-1.97662c0.62293,-0.83057 1.87704,-0.25409 2.60095,0.1182c0.06405,-0.22186 0.12447,-0.44443 0.15758,-0.6725c0.05205,-0.3587 -0.19173,-0.85679 0.09099,-1.08356c0.34217,-0.27448 1.55411,0.08897 1.98767,0.19708l0.05863,0.0534l0.01149,-0.02193l0.61932,0.32497c0.10143,0.05101 0.19028,0.1301 0.25367,0.23418c0.18044,0.29623 0.08661,0.6826 -0.20959,0.86304c-0.02891,0.0176 -0.0587,0.03261 -0.08907,0.04507l-0.781,0.33504l-0.00585,-0.01365c-0.17642,0.12241 -0.35559,0.24066 -0.53869,0.35278l0.20229,-0.05358zM349.32014,180.25042c0.00928,-0.00896 0.01851,-0.01795 0.02776,-0.027c-0.01897,-0.00945 -0.03763,-0.01874 -0.05587,-0.02784c0.00975,0.01742 0.01911,0.03576 0.02808,0.05486z" fill="#8da900" fill-rule="nonzero" stroke="none" stroke-width="0.5" stroke-linecap="butt" stroke-linejoin="miter"/><path d="M348.15439,178.68132c-0.62322,1.20193 -0.87686,1.33758 -1.75904,1.35541c-0.15947,0.39328 -0.81867,0.55887 -1.42767,0.59255l-0.0116,0.33248c-0.4682,0.37239 -1.07871,0.61234 -1.67622,0.64133c0,0 -0.62797,0.00422 -0.63224,-0.62377c-0.00423,-0.628 0.62377,-0.63224 0.62377,-0.63224c0.02886,0.00206 0.05796,0.00272 0.08722,0.00204c-0.03371,-0.23784 0.07144,-0.48386 0.28679,-0.61962c0.08238,-0.22765 0.23868,-0.32601 0.38574,-0.36528l0.42015,-0.40077c0.18522,-0.03818 0.38994,-0.15076 0.58734,-0.23541c0.07201,-0.60317 0.6833,-0.54407 0.6833,-0.54407l0.21858,0.1473c0.43106,-0.26074 0.89254,-0.497 1.37218,-0.6723l-0.09557,-0.23788l0.67738,-0.27214c0.2819,-0.11911 0.61601,-0.01704 0.78001,0.25218c0.14698,0.24126 0.11197,0.54236 -0.06612,0.74325l-0.45405,0.53701z" fill="#8da900" fill-rule="nonzero" stroke="none" stroke-width="0.5" stroke-linecap="butt" stroke-linejoin="miter"/><path d="M343.2142,183.68847c0.07993,-0.62289 0.70282,-0.54298 0.70282,-0.54298l1.26083,0.45366c-0.15645,0.43124 -0.31294,0.86252 -0.46938,1.29375c0,0 -0.33361,0.53209 -0.86564,0.19848c-0.37672,-0.2362 -0.31947,-0.5719 -0.25395,-0.7478c-0.17811,-0.07229 -0.42696,-0.24738 -0.37466,-0.65513z" fill="#a00000" fill-rule="nonzero" stroke="none" stroke-width="0.5" stroke-linecap="butt" stroke-linejoin="miter"/><path d="M344.2088,182.54435c-0.32673,-0.53631 0.20959,-0.86304 0.20959,-0.86304l0.20789,-0.12663c0.26498,-0.1566 0.56413,-0.24454 0.87568,-0.28771l-0.02947,-0.1752l0.63194,-0.10631c0.25002,-0.04804 0.51468,0.05994 0.65491,0.29016c0.14027,0.23022 0.11479,0.51489 -0.04256,0.71504l-0.38432,0.51278l-0.03592,-0.02692l-0.04437,0.11517c-0.23972,0.15044 -0.47945,0.30094 -0.71917,0.45138c0,0 -0.52395,0.31918 -0.85158,-0.19124c-0.15727,-0.00756 -0.33386,-0.07966 -0.47264,-0.30747z" fill="#a00000" fill-rule="nonzero" stroke="none" stroke-width="0.5" stroke-linecap="butt" stroke-linejoin="miter"/><path d="M345.9311,179.69491c-0.14034,-0.61212 0.47179,-0.75246 0.47179,-0.75246l0.3487,-0.07933c0.1659,-0.03876 0.33519,-0.12389 0.50322,-0.19177c0.02753,-0.30233 0.313,-0.47626 0.313,-0.47626l0.83153,-0.50656c0.09061,-0.0552 0.18968,-0.08475 0.28868,-0.09064c0.01444,-0.01246 0.029,-0.02491 0.0436,-0.0373l0.19253,-0.17749c0,0 0.46184,-0.42555 0.8874,0.03628c0.10071,0.10932 0.15175,0.21658 0.17091,0.31667c0.06439,0.25756 -0.07983,0.46031 -0.17429,0.56036c0.10928,0.05045 0.20527,0.13279 0.2726,0.2433c0.14027,0.23022 0.11479,0.51489 -0.04256,0.71504l-0.38432,0.51278l-0.0191,-0.0143l-0.02433,0.06613c-0.47328,0.41013 -0.99018,0.77138 -1.52432,1.0983c0,0 -0.53631,0.32673 -0.86304,-0.20959c-0.02091,-0.03433 -0.03826,-0.06776 -0.05248,-0.10032c-0.07518,-0.02469 -0.15296,-0.06872 -0.23064,-0.13966c-0.1225,-0.04854 -0.23083,-0.13583 -0.30468,-0.25704c-0.00691,-0.01132 -0.0134,-0.02278 -0.01951,-0.03437c-0.16324,0.01595 -0.57313,0.00496 -0.68474,-0.48176z" fill="#a00000" fill-rule="nonzero" stroke="none" stroke-width="0.5" stroke-linecap="butt" stroke-linejoin="miter"/><path d="M350.94412,177.42088c0.29623,-0.18044 0.6826,-0.08661 0.86304,0.20959c0.18044,0.29623 0.08661,0.6826 -0.20959,0.86304c-0.29623,0.18044 -0.6826,0.08661 -0.86304,-0.20959c-0.18044,-0.29623 -0.08661,-0.6826 0.20959,-0.86304z" fill="#a00000" fill-rule="nonzero" stroke="none" stroke-width="0.5" stroke-linecap="butt" stroke-linejoin="miter"/><path d="M346.43329,181.04714c-0.16314,-0.2678 -0.11111,-0.48335 -0.01808,-0.63204c-0.00302,-0.0131 -0.00566,-0.02624 -0.00784,-0.03941c-0.08097,0.05543 -0.16922,0.10502 -0.26681,0.14664c-0.2104,0.08973 -0.44677,0.11358 -0.67614,0.15212c-0.58139,0.3595 -1.17131,0.7012 -1.73539,1.04487l-0.72761,0.44324c-0.29623,0.18044 -0.6826,0.08661 -0.86304,-0.20959c-0.16399,-0.26918 -0.10144,-0.6129 0.13369,-0.80877l0.42716,-0.36889c-0.14834,-0.33295 0.11477,-0.64413 0.11477,-0.64413c1.5196,-1.79724 3.04185,-2.46511 5.17139,-3.3206l0.67738,-0.27214c0.2819,-0.11911 0.61601,-0.01704 0.78001,0.25218c0.04902,0.08046 0.07778,0.16757 0.08777,0.2554c0.18143,-0.05938 0.50062,-0.09387 0.72289,0.27092c0.20561,0.33754 0.06943,0.59201 -0.05981,0.73433c-0.00015,0.00761 -0.0004,0.01531 -0.00082,0.02315c0.13566,0.12919 0.33554,0.40703 0.09855,0.785c-0.33361,0.53208 -0.86567,0.19849 -0.86567,0.19849c-0.10089,-0.09465 -0.23192,-0.17368 -0.35975,-0.25437c-0.02067,0.14278 -0.10019,0.29566 -0.30231,0.4188c-0.48783,0.29717 -0.80227,-0.11968 -0.85513,-0.1975c-0.11293,0.02475 -0.21247,0.06636 -0.30274,0.12049c-0.04349,0.03801 -0.08735,0.07571 -0.13158,0.11308c0.01588,0.09277 0.01046,0.18724 -0.01461,0.27631c0.09822,0.23388 0.21428,0.46063 0.34728,0.6757l-0.51058,1.04639c0,0 -0.53631,0.32673 -0.86304,-0.20959zM348.25117,179.00213c-0.09345,-0.00614 -0.17933,-0.00312 -0.25882,0.00781z" fill="#000000" fill-rule="nonzero" stroke="none" stroke-width="0.5" stroke-linecap="butt" stroke-linejoin="miter"/><path d="M348.42187,179.17546l-0.5286,0.4871" fill="none" fill-rule="nonzero" stroke="#001026" stroke-width="1.2" stroke-linecap="round" stroke-linejoin="miter"/><path d="M347.61855,180.16l1.59621,-1.71518" fill="none" fill-rule="nonzero" stroke="#a00000" stroke-width="1.2" stroke-linecap="round" stroke-linejoin="miter"/><path d="M347.74448,180.90864l-0.30442,-2.1255" fill="none" fill-rule="nonzero" stroke="#000000" stroke-width="1.2" stroke-linecap="round" stroke-linejoin="miter"/><path d="M348.05239,178.16252l2.47419,1.21636" fill="none" fill-rule="nonzero" stroke="#000000" stroke-width="1.2" stroke-linecap="round" stroke-linejoin="miter"/><path d="M337.76641,179.72288c0.26548,0.5691 -0.30364,0.83462 -0.30364,0.83462l-0.63985,0.29464c-0.02569,-0.01334 -0.05137,-0.02668 -0.07705,-0.04l0.01335,0.0582l-0.63765,0.14621c-0.19638,0.04989 -0.40605,0.00119 -0.56029,-0.12941c-0.79859,0.04986 -1.94935,-0.47838 -1.65316,-1.63091c0.29795,-1.1593 2.60625,-1.66227 3.26057,-0.51884c0.11813,0.20643 0.15188,0.41799 0.12296,0.62278c0.16581,0.01554 0.35246,0.10062 0.47472,0.3627z" fill="#a00000" fill-rule="nonzero" stroke="none" stroke-width="0.5" stroke-linecap="butt" stroke-linejoin="miter"/><path d="M335.50408,179.37659c0.29623,-0.18044 0.6826,-0.08661 0.86304,0.20959c0.18044,0.29623 0.08661,0.6826 -0.20959,0.86304c-0.29623,0.18044 -0.6826,0.08661 -0.86304,-0.20959c-0.18044,-0.29623 -0.08661,-0.6826 0.20959,-0.86304z" fill="#ffffff" fill-rule="nonzero" stroke="none" stroke-width="0.5" stroke-linecap="butt" stroke-linejoin="miter"/><path d="M347.44559,179.60513l1.42876,-1.44814l1.0081,0.70643" fill="none" fill-rule="nonzero" stroke="#000000" stroke-width="1.2" stroke-linecap="round" stroke-linejoin="miter"/><path d="M334.65384,174.85262c-0.18044,-0.29623 -0.08661,-0.6826 0.20959,-0.86304c0.03376,-0.02058 0.0687,-0.03756 0.10434,-0.05109c-0.15392,-0.03889 -0.29329,-0.13583 -0.38245,-0.28213c-0.18044,-0.29623 -0.08661,-0.6826 0.20959,-0.86304c0.09889,-0.06025 0.20783,-0.08994 0.31583,-0.09168c-0.06359,-0.25889 0.04358,-0.53994 0.28337,-0.68598c0.04654,-0.02835 0.09531,-0.04993 0.14511,-0.06503c-0.10596,-0.27749 -0.00242,-0.59963 0.26033,-0.75971c0.29623,-0.18044 0.6826,-0.08661 0.86304,0.20959c0.01402,0.02303 0.02639,0.04659 0.03712,0.07059c0.28805,-0.14058 0.64103,-0.04117 0.81111,0.23802c0.18044,0.29623 0.08661,0.6826 -0.20959,0.86304c-0.02303,0.01402 -0.0466,0.02639 -0.07058,0.03715c0.14058,0.28805 0.04117,0.64103 -0.23802,0.81111c-0.05145,0.03138 -0.10566,0.0544 -0.16104,0.0696c0.06831,0.26133 -0.03855,0.54718 -0.28109,0.69495c-0.07194,0.04383 -0.14917,0.07147 -0.22749,0.08396c0.08057,0.26722 -0.02535,0.56529 -0.27484,0.71727c-0.05863,0.03572 -0.1208,0.06067 -0.18421,0.07548c0.03598,0.24216 -0.07237,0.49346 -0.29461,0.62889c-0.29623,0.18044 -0.6826,0.08661 -0.86304,-0.20959c-0.11417,-0.18743 -0.11853,-0.41094 -0.03128,-0.59559c-0.00739,-0.01059 -0.01445,-0.02147 -0.02128,-0.03265zM335.44835,173.8659c-0.03376,0.02058 -0.0687,0.03756 -0.10434,0.05109c0.01051,0.00266 0.02094,0.00558 0.03128,0.00878c0.00639,-0.00421 0.01289,-0.00832 0.01944,-0.01232c0.07194,-0.04383 0.14917,-0.07147 0.22749,-0.08396c-0.00943,-0.03122 -0.01627,-0.06285 -0.02069,-0.09464c-0.04256,0.0504 -0.09382,0.09488 -0.15324,0.13109zM335.81326,173.1732c-0.02711,0.00404 -0.05435,0.00621 -0.08151,0.0067c0.00516,0.02101 0.00921,0.04218 0.01214,0.06342c0.02105,-0.02489 0.04416,-0.04834 0.06938,-0.07007zM336.40106,172.29189c-0.03045,0.01484 -0.0616,0.02705 -0.09319,0.0366c0.00404,0.0106 0.00778,0.02127 0.01124,0.03198c0.00661,-0.00435 0.0133,-0.00863 0.02011,-0.0128c0.02303,-0.01402 0.04659,-0.02639 0.07059,-0.03712c-0.00303,-0.00619 -0.00594,-0.01242 -0.00873,-0.01865z" fill="#e93e3e" fill-rule="nonzero" stroke="none" stroke-width="0.5" stroke-linecap="butt" stroke-linejoin="miter"/><path d="M327.20279,179.55672c-0.18044,-0.29623 -0.08661,-0.6826 0.20959,-0.86304c0.07838,-0.04775 0.16306,-0.07631 0.24861,-0.08696c0.04863,-0.12194 0.13573,-0.22974 0.25648,-0.30327c0.1237,-0.07538 0.26312,-0.10287 0.39673,-0.08779c0.03338,-0.16574 0.13321,-0.31758 0.28893,-0.41245c0.14605,-0.08899 0.31399,-0.11125 0.46837,-0.07549c-0.00747,-0.21924 0.10033,-0.43601 0.30101,-0.55827c0.15778,-0.0961 0.34115,-0.11442 0.50536,-0.06573c0.00933,-0.20154 0.11542,-0.39497 0.30071,-0.50784c0.23417,-0.14267 0.52473,-0.11388 0.72529,0.05079c0.0468,-0.1302 0.13676,-0.24583 0.26411,-0.3234c0.15758,-0.096 0.34068,-0.11436 0.50471,-0.06593c-0.0528,-0.25288 0.05498,-0.52264 0.2882,-0.66469c0.1237,-0.07538 0.26312,-0.10287 0.39673,-0.08779c0.0334,-0.16574 0.13321,-0.31758 0.28893,-0.41245c0.06337,-0.0386 0.13085,-0.06464 0.19955,-0.07884c0.04415,-0.05454 0.09823,-0.10258 0.16159,-0.14118c0.04885,-0.02975 0.10013,-0.05204 0.15254,-0.0672c0.05104,-0.09976 0.12941,-0.18709 0.23216,-0.24967c0.17337,-0.10561 0.37765,-0.11727 0.55346,-0.04934c0.05053,-0.10832 0.13247,-0.20342 0.24224,-0.2703c0.29623,-0.18044 0.6826,-0.08661 0.86304,0.20959c0.18044,0.29623 0.08661,0.6826 -0.20959,0.86304c-0.17337,0.10561 -0.37765,0.11727 -0.55346,0.04934c-0.05053,0.10832 -0.13247,0.20342 -0.24224,0.2703c-0.04885,0.02975 -0.10013,0.05204 -0.15254,0.0672c-0.05106,0.09977 -0.12941,0.18709 -0.23216,0.24967c-0.06337,0.0386 -0.13087,0.06467 -0.19956,0.07885c-0.04415,0.05454 -0.09823,0.10256 -0.16162,0.14116c-0.1237,0.07538 -0.26312,0.10287 -0.39673,0.08779c-0.03341,0.16573 -0.1332,0.31755 -0.28892,0.41244c-0.15758,0.096 -0.34068,0.11436 -0.50471,0.06593c0.05278,0.25289 -0.05498,0.52264 -0.2882,0.66469c-0.23418,0.14265 -0.52473,0.11388 -0.72529,-0.05079c-0.0468,0.1302 -0.13676,0.24583 -0.26411,0.3234c-0.15778,0.0961 -0.34115,0.11442 -0.50536,0.06573c-0.00933,0.20154 -0.11542,0.39497 -0.30071,0.50784c-0.14605,0.08899 -0.31399,0.11123 -0.46837,0.07549c0.00747,0.21922 -0.10033,0.43601 -0.30101,0.55827c-0.1237,0.07538 -0.26312,0.10287 -0.39673,0.08779c-0.03341,0.16573 -0.13321,0.31758 -0.28893,0.41245c-0.07838,0.04775 -0.16306,0.07631 -0.24861,0.08696c-0.04863,0.12194 -0.13573,0.22974 -0.25648,0.30327c-0.29623,0.18044 -0.6826,0.08661 -0.86304,-0.20959z" fill="#e93e3e" fill-rule="nonzero" stroke="none" stroke-width="0.5" stroke-linecap="butt" stroke-linejoin="miter"/><path d="M337.66628,171.95193c0.29623,-0.18044 0.6826,-0.08661 0.86304,0.20959c0.1701,0.27918 0.09649,0.63846 -0.16053,0.82993c0.01637,0.02056 0.03167,0.04234 0.04568,0.06537c0.18044,0.29623 0.08661,0.6826 -0.20959,0.86304c-0.11466,0.06982 -0.24282,0.09859 -0.36732,0.09041c0.00964,0.01333 0.01884,0.02717 0.02755,0.04149c0.18044,0.29623 0.08661,0.6826 -0.20959,0.86304c-0.10654,0.06491 -0.22475,0.09431 -0.34082,0.0916c0.03464,0.24126 -0.0737,0.49106 -0.29502,0.62589c-0.07839,0.04776 -0.1631,0.0763 -0.24868,0.08694c0.0476,0.24977 -0.06036,0.51399 -0.29033,0.65405c-0.29623,0.18044 -0.6826,0.08661 -0.86304,-0.20959c-0.18044,-0.29623 -0.08661,-0.6826 0.20959,-0.86304c0.07839,-0.04776 0.1631,-0.0763 0.24868,-0.08694c-0.0476,-0.24977 0.06036,-0.51399 0.29033,-0.65405c0.10653,-0.0649 0.22474,-0.09432 0.34082,-0.0916c-0.03464,-0.24126 0.07371,-0.49106 0.29502,-0.62589c0.11466,-0.06982 0.24282,-0.09859 0.36732,-0.09041c-0.00964,-0.01333 -0.01884,-0.02717 -0.02755,-0.04149c-0.1701,-0.27918 -0.09647,-0.63846 0.16055,-0.82993c-0.01638,-0.02057 -0.03166,-0.04234 -0.04568,-0.06538c-0.18044,-0.29623 -0.08661,-0.6826 0.20959,-0.86304z" fill="#e93e3e" fill-rule="nonzero" stroke="none" stroke-width="0.5" stroke-linecap="butt" stroke-linejoin="miter"/><path d="M325.20578,180.6262c0.05921,-0.0361 0.1365,-0.01733 0.17261,0.04191c0.0361,0.05921 0.01733,0.1365 -0.04191,0.17261c-0.05921,0.0361 -0.1365,0.01733 -0.17261,-0.04191c-0.0361,-0.05921 -0.01733,-0.1365 0.04191,-0.17261z" fill="#a00000" fill-rule="nonzero" stroke="none" stroke-width="0.5" stroke-linecap="butt" stroke-linejoin="miter"/><path d="M327.11266,182.33619c0.11387,0.053 0.06086,0.16686 0.06086,0.16686l-0.00247,0.00534c-0.07067,0.15182 -0.14134,0.30366 -0.21199,0.45546c0,0 -0.053,0.11387 -0.16686,0.06086c-0.11387,-0.053 -0.06086,-0.16686 -0.06086,-0.16686c0.07069,-0.15182 0.14381,-0.30896 0.21449,-0.46081c0,0 0.053,-0.11387 0.16686,-0.06086z" fill="#a00000" fill-rule="nonzero" stroke="none" stroke-width="0.5" stroke-linecap="butt" stroke-linejoin="miter"/><path d="M325.4682,182.59417c-0.06186,-0.10154 -0.07,-0.22075 -0.03247,-0.32446c-0.1088,0.016 -0.25172,-0.00651 -0.35775,-0.18061c-0.19604,-0.32182 0.12575,-0.51784 0.12575,-0.51784l0.07016,-0.03675c0.03291,-0.02799 0.0645,-0.05615 0.09503,-0.08446c-0.01072,-0.04297 -0.0136,-0.08698 -0.00909,-0.13006c-0.03468,0.01623 -0.08954,0.02628 -0.1417,-0.0303c-0.01698,-0.01844 -0.02691,-0.03656 -0.03188,-0.05381c-0.00683,-0.0073 -0.01346,-0.01593 -0.01965,-0.02615c-0.06535,-0.10729 0.04191,-0.17261 0.04191,-0.17261l0.06019,-0.03668c0.05466,-0.03059 0.11509,-0.05406 0.17778,-0.0693c0.06443,-0.04968 0.13256,-0.10127 0.19954,-0.15393c-0.00354,-0.00586 -0.00724,-0.01183 -0.01106,-0.01789l0.00875,-0.19186c0,0 0.0047,-0.01932 0.018,-0.04071c-0.0061,-0.00639 -0.01158,-0.01354 -0.01637,-0.02138c-0.0361,-0.05921 -0.01733,-0.1365 0.04191,-0.17261c0.02901,-0.01765 0.06235,-0.02218 0.09305,-0.01523c-0.00185,-0.0045 -0.00344,-0.00907 -0.00473,-0.0137c-0.01781,-0.01427 -0.03449,-0.03505 -0.04027,-0.06461c-0.00731,-0.00713 -0.01383,-0.01531 -0.0194,-0.02444c-0.0361,-0.05921 -0.01733,-0.1365 0.04191,-0.17261c0.04529,-0.02759 0.10109,-0.02312 0.14099,0.00696c0.00318,-0.00052 0.00638,-0.00095 0.00955,-0.00125c0.04627,-0.00429 0.09312,0.01738 0.11894,0.05974c0.00173,0.00282 0.00332,0.00568 0.00478,0.00857c0.05676,0.00924 0.11334,0.01634 0.16992,0.02329c0.03543,-0.0565 0.07087,-0.11303 0.10631,-0.16956c0,0 0.06672,-0.10643 0.17313,-0.03968c0.07041,0.04417 0.065,0.10569 0.05331,0.14228c0.01948,0.01285 0.03818,0.02617 0.05609,0.03992c0.05302,-0.03231 0.1061,-0.06465 0.15911,-0.09693l-0.04466,-0.0733c0,0 -0.02667,-0.04378 -0.01797,-0.09244c-0.0343,0.01313 -0.10447,0.02696 -0.15226,-0.05147c-0.06535,-0.10729 0.04191,-0.17261 0.04191,-0.17261l0.06019,-0.03668c0.06019,-0.03668 0.12036,-0.07333 0.18059,-0.11001c0,0 0.10729,-0.06535 0.17261,0.04191c0.06535,0.10729 -0.04191,0.17261 -0.04191,0.17261c-0.02544,0.01548 -0.06164,0.03756 -0.09951,0.06063c0.04531,0.01546 0.07084,0.05737 0.07084,0.05737l0.0328,0.05386l0.06016,-0.01122c0.00032,0.0002 0.00068,0.00043 0.00099,0.00063c0.04813,-0.02932 0.09624,-0.05861 0.14439,-0.08796c0,0 0.10729,-0.06535 0.17261,0.04191c0.06535,0.10729 -0.04191,0.17261 -0.04191,0.17261c-0.02657,0.01617 -0.05374,0.03275 -0.08145,0.04962c0.00249,0.0231 -0.00256,0.05 -0.02139,0.08006c-0.02926,0.0467 -0.0662,0.06007 -0.09841,0.06035c0.06633,0.0623 0.10125,0.12582 0.11619,0.18618c0.11441,0.01076 0.2225,0.07349 0.28685,0.17917c0.10827,0.17773 0.05196,0.40957 -0.12575,0.51784c-0.08917,0.0543 -0.19196,0.06721 -0.28597,0.04412c-0.00385,0.003 -0.00791,0.00582 -0.01218,0.00843c-0.05921,0.0361 -0.1365,0.01733 -0.17261,-0.04191c-0.00982,-0.01611 -0.01555,-0.03354 -0.01756,-0.05114c-0.05167,0.12186 -0.16346,0.18994 -0.16346,0.18994c-0.1437,0.08322 -0.2611,0.18343 -0.36887,0.29194c0.01463,-0.00293 0.02805,-0.0091 0.03966,-0.01942c0,0 0.07298,-0.04446 0.13521,0.00017c0.02733,-0.01667 0.05468,-0.03332 0.08204,-0.04998l-0.03318,-0.01924c0,0 0.02965,-0.12206 0.1517,-0.0924c0.12206,0.02965 0.0924,0.1517 0.0924,0.1517l-0.08023,0.17451c-0.10033,0.06111 -0.20066,0.12223 -0.30096,0.18336c0,0 -0.10729,0.06535 -0.17261,-0.04191c-0.01382,-0.02267 -0.0199,-0.04349 -0.02094,-0.06218c-0.02804,-0.00475 -0.0559,-0.0112 -0.08321,-0.01888c-0.09578,0.1081 -0.19201,0.21881 -0.30232,0.32485c0.10423,0.01741 0.20059,0.07833 0.25986,0.17565c0.10827,0.17773 0.05196,0.40957 -0.12575,0.51784c-0.17773,0.10827 -0.40957,0.05196 -0.51784,-0.12575zM325.96196,180.37715c-0.02901,0.01765 -0.06235,0.02218 -0.09305,0.01523c0.00717,0.01739 0.01014,0.03579 0.00926,0.05381c0.00585,0.00265 0.0115,0.00578 0.01691,0.00933l0.0662,0.04151c0.03826,-0.04213 0.07079,-0.08397 0.09528,-0.1252c-0.02452,-0.00328 -0.04912,-0.00675 -0.07372,-0.01056c-0.00628,0.0059 -0.01322,0.01124 -0.02091,0.01591z" fill="#a00000" fill-rule="nonzero" stroke="none" stroke-width="0.5" stroke-linecap="butt" stroke-linejoin="miter"/><path d="M325.00258,183.45559l-0.00572,-0.01666c-0.10563,-0.12823 -0.21128,-0.25645 -0.31689,-0.38469c0,0 -0.02147,-0.02605 -0.04375,-0.06901c-0.00849,-0.01101 -0.01648,-0.02258 -0.02388,-0.03476c-0.10827,-0.17773 -0.05196,-0.40957 0.12575,-0.51784c0.17773,-0.10827 0.40957,-0.05196 0.51784,0.12575c0.00584,0.00962 0.01127,0.01941 0.01616,0.02933c0.10215,0.12401 0.2043,0.24799 0.30645,0.37203l0.06763,0.10373c0,0 0.19604,0.32182 -0.12575,0.51784c-0.32182,0.19604 -0.51784,-0.12575 -0.51784,-0.12575z" fill="#a00000" fill-rule="nonzero" stroke="none" stroke-width="0.5" stroke-linecap="butt" stroke-linejoin="miter"/><path d="M318.36002,185.00203c0.87024,-0.31756 2.7133,0.46176 3.49468,-0.23598c0.01079,-0.11396 0.06831,-0.26707 0.28928,-0.31775c0.24346,-0.05583 0.36251,0.08675 0.41516,0.18921c0.0909,0.10238 0.09999,0.20854 0.08191,0.29505l0.00856,0.03776c0.31162,1.85769 0.82113,3.67659 0.97173,5.54772c0.03866,0.48021 0.65807,1.8318 -0.32876,1.95629c-0.39182,0.04944 -1.15728,-1.5323 -1.32392,-1.80584c-0.57442,-0.94293 -1.15735,-1.8812 -1.72346,-2.82915c-0.0895,-0.14985 -0.44282,-0.68104 -0.6647,-0.68431c-0.10813,-0.00159 -0.55892,0.71248 -0.63336,0.81182c-0.68064,0.90816 -1.76273,1.3141 -2.43893,2.22858c-0.47036,0.61944 -2.31342,1.735 -2.08333,0.02837c0.05506,-0.40837 0.73592,-1.09145 0.88455,-1.53001c0.57691,-1.70211 1.08313,-2.87529 2.25416,-4.26127c0,0 0.24329,-0.28774 0.531,-0.04445c0.28774,0.24329 0.04445,0.531 0.04445,0.531c-0.02532,0.02996 -0.05045,0.05977 -0.07528,0.08946c0.10136,-0.05135 0.20631,-0.04707 0.20631,-0.04707z" fill="#ffffff" fill-rule="nonzero" stroke="none" stroke-width="0.5" stroke-linecap="butt" stroke-linejoin="miter"/><path d="M315.18201,191.35751c-0.01001,-0.00083 -0.01997,-0.00178 -0.02989,-0.00288l0.03584,-0.16584c-0.00322,-0.00494 -0.00644,-0.01001 -0.00958,-0.0152c-0.04351,-0.07149 -0.06154,-0.13671 -0.0632,-0.19501c-0.09796,0.06921 -0.20189,0.13704 -0.31431,0.20592c0,0 -0.32182,0.19604 -0.51784,-0.12575c-0.19604,-0.32182 0.12575,-0.51784 0.12575,-0.51784c0.02136,-0.01291 0.04229,-0.02574 0.06278,-0.03847l0.31894,-0.41257c0.01878,-0.04673 0.04767,-0.09363 0.08569,-0.14023c-0.08662,-0.0049 -0.18223,-0.01138 -0.28856,-0.01886l0.43872,-0.755c0.10501,-0.02194 0.20997,-0.04389 0.31495,-0.06584c0.01501,-0.27734 0.10408,-0.50235 0.37407,-0.60282c0.30525,-0.11358 0.6507,0.03066 0.97607,0.04602l-0.18014,0.32593c0.09886,-0.00037 0.19769,-0.0007 0.29652,-0.00107l-0.19281,0.36121c0.07363,-0.01521 0.14725,-0.02832 0.22055,-0.0394l-0.25614,0.80652c-0.11035,0.08319 -0.23949,0.14406 -0.37589,0.18392c-0.02722,0.27701 -0.09442,0.55172 -0.20279,0.80439l0.0881,0.04284c-0.05216,0.06048 -0.11483,0.1124 -0.18447,0.15583c-0.04171,0.0764 -0.08758,0.14999 -0.13771,0.2202l-0.58465,-0.05603z" fill="#a00000" fill-rule="nonzero" stroke="none" stroke-width="0.5" stroke-linecap="butt" stroke-linejoin="miter"/><path d="M321.9582,190.92249c-0.19604,-0.32182 0.12575,-0.51784 0.12575,-0.51784l0.04967,-0.02797c0.01362,-0.11027 0.07571,-0.21348 0.17796,-0.27578c0.07071,-0.04309 0.15002,-0.06011 0.22669,-0.05378l0.45263,-0.50357c0.02515,-0.02931 0.05527,-0.05524 0.09007,-0.07644c0.17773,-0.10827 0.40957,-0.05196 0.51784,0.12575c0.08417,0.13812 0.06889,0.30892 -0.02553,0.42903l-0.13822,0.18446l0.11947,-0.00877c-0.04786,0.14194 -0.09733,0.26917 -0.14777,0.38124c0.05033,0.03036 0.09431,0.07293 0.12703,0.12661c0.08417,0.13812 0.06889,0.30892 -0.02553,0.42903l-0.10794,0.14402c0.10405,0.01751 0.20021,0.0784 0.25939,0.17556c0.02515,0.04132 0.04144,0.08558 0.04936,0.1305c0.09507,0.09652 0.13231,0.19837 0.03486,0.28066c0.0054,0.00754 0.01052,0.0153 0.01542,0.02332c0.10827,0.17773 0.05196,0.40957 -0.12575,0.51784c-0.02011,0.01223 -0.04091,0.02242 -0.06217,0.0305l-0.27537,0.1106l-0.00421,0.06378c-0.02375,-0.01138 -0.04691,-0.02276 -0.06952,-0.03414l-0.03638,0.0146c-0.16914,0.07144 -0.36959,0.01021 -0.46801,-0.1513c-0.04373,-0.0718 -0.06061,-0.15234 -0.0535,-0.23007c-0.17256,-0.16405 -0.22358,-0.31324 -0.17257,-0.43364c-0.11886,-0.20606 -0.06928,-0.46281 -0.05473,-0.709c-0.09151,0.04023 -0.32431,0.10845 -0.4789,-0.1453z" fill="#a00000" fill-rule="nonzero" stroke="none" stroke-width="0.5" stroke-linecap="butt" stroke-linejoin="miter"/><path d="M311.95747,187.3298c0.17773,-0.10827 0.40957,-0.05196 0.51784,0.12575c0.10827,0.17773 0.05196,0.40957 -0.12575,0.51784c-0.17773,0.10827 -0.40957,0.05196 -0.51784,-0.12575c-0.10827,-0.17773 -0.05196,-0.40957 0.12575,-0.51784z" fill="#a00000" fill-rule="nonzero" stroke="none" stroke-width="0.5" stroke-linecap="butt" stroke-linejoin="miter"/><path d="M309.36609,185.27325l0.22668,0.14542c0.40326,0.19055 0.77691,0.44291 1.13449,0.7095c0,0 0.30154,0.22598 0.07557,0.52749c-0.22598,0.30154 -0.52749,0.07557 -0.52749,0.07557c-0.31507,-0.2375 -0.64403,-0.4642 -1.00209,-0.63003l-0.30745,-0.18944c0,0 -0.31923,-0.20016 -0.11908,-0.51941c0.20016,-0.31923 0.51941,-0.11908 0.51941,-0.11908z" fill="#a00000" fill-rule="nonzero" stroke="none" stroke-width="0.5" stroke-linecap="butt" stroke-linejoin="miter"/><path d="M308.40945,184.62171c0.17773,-0.10827 0.40957,-0.05196 0.51784,0.12575c0.10827,0.17773 0.05196,0.40957 -0.12575,0.51784c-0.17773,0.10827 -0.40957,0.05196 -0.51784,-0.12575c-0.10827,-0.17773 -0.05196,-0.40957 0.12575,-0.51784z" fill="#a00000" fill-rule="nonzero" stroke="none" stroke-width="0.5" stroke-linecap="butt" stroke-linejoin="miter"/><path d="M307.57918,183.3943c0.17773,-0.10827 0.40957,-0.05196 0.51784,0.12575c0.10827,0.17773 0.05196,0.40957 -0.12575,0.51784c-0.17773,0.10827 -0.40957,0.05196 -0.51784,-0.12575c-0.10827,-0.17773 -0.05196,-0.40957 0.12575,-0.51784z" fill="#a00000" fill-rule="nonzero" stroke="none" stroke-width="0.5" stroke-linecap="butt" stroke-linejoin="miter"/><path d="M313.32673,187.81623c0.17773,-0.10827 0.40957,-0.05196 0.51784,0.12575c0.10827,0.17773 0.05196,0.40957 -0.12575,0.51784c-0.17773,0.10827 -0.40957,0.05196 -0.51784,-0.12575c-0.10827,-0.17773 -0.05196,-0.40957 0.12575,-0.51784z" fill="#a00000" fill-rule="nonzero" stroke="none" stroke-width="0.5" stroke-linecap="butt" stroke-linejoin="miter"/><path d="M320.16537,190.91319c0.17773,-0.10827 0.40957,-0.05196 0.51784,0.12575c0.10827,0.17773 0.05196,0.40957 -0.12575,0.51784c-0.17773,0.10827 -0.40957,0.05196 -0.51784,-0.12575c-0.10827,-0.17773 -0.05196,-0.40957 0.12575,-0.51784z" fill="#a00000" fill-rule="nonzero" stroke="none" stroke-width="0.5" stroke-linecap="butt" stroke-linejoin="miter"/><path d="M318.68886,190.65715c0.17773,-0.10827 0.40957,-0.05196 0.51784,0.12575c0.10827,0.17773 0.05196,0.40957 -0.12575,0.51784c-0.17773,0.10827 -0.40957,0.05196 -0.51784,-0.12575c-0.10827,-0.17773 -0.05196,-0.40957 0.12575,-0.51784z" fill="#a00000" fill-rule="nonzero" stroke="none" stroke-width="0.5" stroke-linecap="butt" stroke-linejoin="miter"/><path d="M317.28291,190.11056c0.17773,-0.10827 0.40957,-0.05196 0.51784,0.12575c0.10827,0.17773 0.05196,0.40957 -0.12575,0.51784c-0.17773,0.10827 -0.40957,0.05196 -0.51784,-0.12575c-0.10827,-0.17773 -0.05196,-0.40957 0.12575,-0.51784z" fill="#a00000" fill-rule="nonzero" stroke="none" stroke-width="0.5" stroke-linecap="butt" stroke-linejoin="miter"/><path d="M347.88083,204.39474c0.18101,0.29711 0.224,0.6396 0.14719,0.95274c0.2263,0.15771 0.4202,0.42255 0.47752,0.86466c0.09142,0.70516 -0.26813,1.06286 -0.59733,1.24052c0.13374,0.48815 -0.03977,1.02179 -0.45593,1.33457l-1.0764,0.83161l-0.11383,-0.14732l-0.27277,0.35011c-2.38003,-0.03483 -6.94804,-0.45061 -3.6225,-3.88292c0.11441,-0.1181 0.23299,-0.22001 0.35514,-0.3078c0.07111,-0.32275 0.26869,-0.61707 0.5732,-0.8026c0.54559,-0.33236 1.24418,-0.19944 1.63309,0.28642c0.20818,0.00547 0.41779,0.01684 0.62725,0.02803c-0.03402,-0.45545 0.18244,-0.91328 0.59926,-1.16724c0.59242,-0.36088 1.36519,-0.17321 1.7261,0.41921z" fill="#ffffff" fill-rule="nonzero" stroke="none" stroke-width="0.5" stroke-linecap="butt" stroke-linejoin="miter"/><path d="M341.20785,204.3214c0.55764,-0.3397 1.2751,-0.19335 1.65838,0.31907c0.08798,-0.10826 0.19563,-0.2036 0.32157,-0.28033c0.45018,-0.27423 1.00448,-0.23173 1.40304,0.06444c0.25043,-0.09001 0.5178,-0.09574 0.76451,-0.02627c0.0975,-0.24252 0.27125,-0.45679 0.51164,-0.60324c0.59242,-0.36088 1.36519,-0.17321 1.7261,0.41921c0.36088,0.59242 0.17321,1.36519 -0.41921,1.7261c-0.3103,0.18902 -0.67005,0.22756 -0.99422,0.13627c-0.0975,0.24252 -0.27125,0.45679 -0.51164,0.60324c-0.45018,0.27423 -1.00448,0.23173 -1.40304,-0.06444c-0.51278,0.18433 -1.09634,0.01522 -1.4287,-0.42907c-0.08798,0.10826 -0.19563,0.2036 -0.32157,0.28033c-0.59242,0.36088 -1.36519,0.17321 -1.7261,-0.41921c-0.36088,-0.59242 -0.17321,-1.36519 0.41921,-1.7261z" fill="#a00000" fill-rule="nonzero" stroke="none" stroke-width="0.5" stroke-linecap="butt" stroke-linejoin="miter"/></g></g></g></svg>