<svg version="1.1" xmlns="http://www.w3.org/2000/svg" xmlns:xlink="http://www.w3.org/1999/xlink" width="980.48048" height="630.63063" viewBox="0,0,980.48048,630.63063"><g transform="translate(145.24024,130.31528)"><g data-paper-data="{&quot;isPaintingLayer&quot;:true}" stroke-miterlimit="10" stroke-dasharray="" stroke-dashoffset="0" style="mix-blend-mode: normal"><path d="M-145.24024,500.31535v-630.63063h980.48048v630.63063z" fill="#000000" fill-rule="nonzero" stroke="#ff3838" stroke-width="0" stroke-linecap="butt" stroke-linejoin="miter"/><text transform="translate(304.71471,259.28905) scale(0.5,0.5)" font-size="40" xml:space="preserve" fill="#ffffff" fill-rule="nonzero" stroke="none" stroke-width="1" stroke-linecap="butt" stroke-linejoin="miter" stroke-miterlimit="10" stroke-dasharray="" stroke-dashoffset="0" font-family="Marker" font-weight="normal" text-anchor="start" style="mix-blend-mode: normal"><tspan x="0" dy="0">Loading</tspan></text><g><path d="M348.38106,178.19549c-0.27712,-0.43675 1.43845,-3.80808 1.03798,-5.49577c-0.32103,-1.18907 -0.80718,-2.62016 -1.98087,-3.75947c-2.61862,-2.61506 -1.61537,-2.6819 -0.67339,-4.64926c0.93907,-2.01752 2.39672,-2.89955 4.76009,3.10224c0.82513,2.06552 0.93639,3.9714 0.977,5.52913c0.02342,0.40124 -0.12566,3.88242 -1.76066,5.18568c-1.63501,1.30327 -2.13616,0.47698 -2.36021,0.08746z" fill="#000000" fill-rule="evenodd" stroke="#001026" stroke-width="1.2" stroke-linecap="round" stroke-linejoin="round"/><path d="M354.0853,180.86649c-0.55209,0.88777 -2.00403,1.87839 -3.4519,0.35248c-1.71328,-1.76205 0.00778,-4.17748 0.70154,-5.2245c0.69378,-1.04703 1.11588,-1.57491 2.0934,-3.79599c0.40162,-0.87898 0.73845,-2.00581 0.90393,-2.61939c0.03552,-0.25369 0.02088,-0.50449 -0.09407,-0.7494c-0.22696,-0.43967 -1.26651,4.49562 -0.61998,3.50171c0.78913,-1.00866 -0.2674,-1.55348 1.2946,-0.3304c0.17945,0.14049 -0.27207,-0.29536 -0.06697,-0.16786c1.92976,1.19971 1.38259,-0.55187 1.03925,0.78121c-0.69161,2.80829 0.82601,3.35413 -0.42748,2.57177c-0.20648,-0.08859 -0.93741,0.05472 -0.97585,0.25827l2.33491,-0.91035c-0.14884,0.58739 0.54672,-0.72141 0.36302,-0.17244c-0.2039,0.60935 -0.98241,2.07818 -1.20937,2.62815c-0.97328,2.3586 -1.50455,3.22689 -1.88507,3.87676z" fill="#000000" fill-rule="evenodd" stroke="#001026" stroke-width="1.2" stroke-linecap="round" stroke-linejoin="round"/><path d="M343.84721,188.97825c-0.80209,-0.80873 -0.55056,-2.53448 0.85084,-2.66661c1.30402,-0.07611 2.71969,0.89808 3.55729,1.45309c0.83762,0.55501 3.96071,3.19095 2.60792,6.7424c-0.66743,1.49841 -3.27702,5.0729 -5.03751,3.36394c-1.76051,-1.70895 0.19924,-3.48411 1.1822,-4.74932c0.84424,-1.0558 -2.94552,-3.90445 -3.16078,-4.14351z" fill="#000000" fill-rule="evenodd" stroke="#001026" stroke-width="1.2" stroke-linecap="round" stroke-linejoin="round"/><g fill-rule="evenodd"><path d="M351.64817,184.67537c-0.41628,0.62821 -1.13346,1.274 -2.24016,2.1438c-0.91488,0.70763 -2.72962,1.51813 -2.72962,1.51813c-1.22751,0.52458 -3.61739,0.96604 -3.66385,-0.69198c-0.01427,-1.10633 -0.22328,-2.10066 -0.57358,-3.79127c-0.77753,-2.97415 -1.21097,-3.50243 0.77218,-4.87635c2.32837,-1.49471 3.88179,-5.05787 8.29349,-1.03769c0,0 2.04935,2.34635 5.13106,5.13566c2.07314,1.89203 5.06627,4.88783 6.08362,5.93559c0.21525,0.23906 0.33313,0.53413 0.40085,0.83213c0.73538,4.83868 0.44464,8.47911 -1.71203,8.60499c-3.61116,0.2108 -2.77595,-7.03455 -2.77595,-7.03455c0,0 -2.09073,-2.19295 -3.10514,-3.19058z" fill="#000000" stroke="#001026" stroke-width="1.2" stroke-linecap="round" stroke-linejoin="round"/><path d="M348.41659,187.0783c0,0 -1.19826,1.02614 -2.67833,-1.05148c-1.58624,-2.17206 -0.03106,-3.11839 1.11997,-4.09144c1.49626,-1.09385 2.30712,-0.13467 3.26848,0.81571c0.79915,0.75857 1.44494,1.47574 1.44494,1.47574c0,0 -0.96249,1.61629 -3.15504,2.85143z" fill="#a00000" stroke="none" stroke-width="1" stroke-linecap="butt" stroke-linejoin="miter"/></g><g fill-rule="evenodd"><path d="M317.90247,190.2411c-0.26796,-1.14184 -0.43854,-2.33971 -0.42021,-3.74991c-0.0373,-2.36312 0.68359,-4.66989 0.68359,-4.66989l-4.31649,-5.83744c-0.11202,-0.19476 0.02381,-0.45432 0.22735,-0.41587l9.03921,0.5292c-0.38366,0.32435 6.10949,-5.69117 12.03502,-2.46393c5.92552,3.22723 8.9255,10.65132 7.6202,20.18876c-1.30532,9.53744 -6.59323,12.06046 -9.48718,11.62549c-2.89396,-0.43497 -4.15508,-3.93449 -4.15508,-3.93449c0,0 -2.25991,0.08159 -5.1121,-1.36233c-1.71073,-0.85632 -4.25539,-3.92864 -4.25539,-3.92864l-5.4427,-0.99077c-0.20355,-0.03846 -0.26834,-0.2863 -0.1768,-0.44262z" fill="#000000" stroke="#001026" stroke-width="1.2" stroke-linecap="butt" stroke-linejoin="miter"/><path d="M329.32072,201.35082c-1.2018,-4.20752 1.93454,-4.79323 1.97451,-8.41901c0.05501,-4.23058 -4.8458,-9.73196 0.32464,-13.40561c5.12027,-3.67072 12.67927,1.6755 10.88001,13.95937c-1.26102,9.43421 -6.28643,12.1432 -9.1804,11.70822c-2.89395,-0.43497 -3.99876,-3.84297 -3.99876,-3.84297z" fill="#000000" stroke="none" stroke-width="1" stroke-linecap="butt" stroke-linejoin="miter"/><path d="M333.76506,185.23875c2.44881,-0.29393 5.68507,-0.0299 6.45305,4.5049c0.60832,5.24868 -3.04203,7.37415 -4.36987,7.90461c-0.24491,0.11495 -0.50742,-0.07104 -0.47189,-0.32474c0.10654,-0.7611 0.16333,-2.37484 -0.14524,-5.07443c-0.37629,-2.99757 -1.33687,-5.6591 -1.74357,-6.59156c-0.06187,-0.19768 0.07689,-0.40709 0.27751,-0.41879z" fill="#000000" stroke="#001026" stroke-width="1.2" stroke-linecap="round" stroke-linejoin="round"/><path d="M332.01878,204.46449c0,0 0.16064,3.61408 -1.60765,6.08262" fill="none" stroke="#001026" stroke-width="1.2" stroke-linecap="round" stroke-linejoin="round"/><path d="M334.98962,204.49237c0,0 1.06713,1.9004 1.0008,5.07481" fill="none" stroke="#001026" stroke-width="1.2" stroke-linecap="round" stroke-linejoin="round"/><path d="M330.49684,190.46212c0.80248,-0.04684 2.1793,1.98648 2.1317,2.89512c-0.00332,0.80541 -1.36373,1.63969 -2.06882,1.63054c-0.35401,-0.02967 -0.51874,-1.12722 -0.58022,-2.18048c-0.05855,-1.0031 -0.08745,-2.3602 0.51733,-2.34518z" fill="#001026" stroke="#000000" stroke-width="1.2" stroke-linecap="round" stroke-linejoin="round"/><path d="M331.22309,176.17752c-1.65726,-1.66466 -3.31339,-5.896 -3.31339,-5.896" fill="none" stroke="#001026" stroke-width="1.2" stroke-linecap="round" stroke-linejoin="round"/><path d="M332.94568,170.33981c0,0 0.76836,3.67925 0.04162,5.88569" fill="none" stroke="#001026" stroke-width="1.2" stroke-linecap="round" stroke-linejoin="round"/><g fill="#a00000"><path d="M321.74493,193.99255c0.82081,-1.45705 3.38164,-1.55619 5.72351,-0.23344c2.34479,1.3729 3.53273,3.61854 2.71193,5.07557c-0.82081,1.45705 -3.38164,1.55619 -5.72351,0.23344c-2.34189,-1.32276 -3.58289,-3.61561 -2.71193,-5.07557z" stroke="#001026" stroke-width="1.2" stroke-linecap="round" stroke-linejoin="round"/><path d="M327.30397,198.70063c-0.55168,0.03221 -1.02652,-0.34268 -1.0558,-0.84424c-0.02928,-0.50156 0.3987,-0.92914 0.95041,-0.96134c0.55168,-0.03221 1.02652,0.34268 1.0558,0.84424c0.02928,0.50156 -0.3987,0.92914 -0.95041,0.96134" stroke="none" stroke-width="1" stroke-linecap="butt" stroke-linejoin="miter"/></g><g><path d="M325.13512,186.54773c-2.29468,-1.37582 -3.63597,-3.66283 -2.57316,-5.28496c1.01265,-1.61921 3.87732,-1.68578 6.17491,-0.2598c2.29468,1.37582 3.12564,3.54165 2.26931,5.25238c-0.8739,1.40981 -3.5764,1.66823 -5.87105,0.2924z" fill="#ffffff" stroke="#001026" stroke-width="1.2" stroke-linecap="round" stroke-linejoin="round"/><path d="M328.02652,186.07698c-0.55168,0.03221 -0.97636,-0.34562 -1.0558,-0.84424c-0.02928,-0.50156 0.3987,-0.92914 0.95041,-0.96134c0.55168,-0.03221 1.02652,0.34268 1.0558,0.84424c0.02928,0.50156 -0.3987,0.92914 -0.95041,0.96134" fill="#001026" stroke="none" stroke-width="1" stroke-linecap="butt" stroke-linejoin="miter"/></g></g><path d="M329.53842,186.60794c0,0 0.07606,0.13223 0.08805,0.30383c0.17888,0.00268 0.38329,-0.01944 0.65142,-0.08301c0.78665,-0.04807 1.57339,-0.09399 2.36018,-0.13991l0.4782,-0.13761c0,0 0.60758,-0.15884 0.76643,0.44875c0.15883,0.60758 -0.44875,0.76643 -0.44875,0.76643l-0.72268,0.17632c-0.7523,0.04391 -1.50456,0.08806 -2.25699,0.12961c-1.55925,0.3411 -3.70952,-0.08172 -5.12301,-0.45315c-1.14173,-0.30001 -1.66693,-1.48684 -2.90809,-1.78095c-0.4594,-0.10886 -0.93051,0.26624 -1.39988,0.21541c-0.24053,-0.02605 -0.40463,-0.31138 -0.64575,-0.3315c-1.27453,-0.10629 -1.45886,0.221 -2.60919,-0.58067c0,0 -0.5124,-0.36308 -0.14934,-0.87548c0.36308,-0.5124 0.87548,-0.14934 0.87548,-0.14934c1.37342,0.99364 2.69184,0.20054 4.19284,0.49366c1.02935,0.20102 1.89351,0.90107 2.56464,1.59667c0.0267,0.02766 0.05236,0.05154 0.07719,0.07203c0.05058,-0.12462 0.12264,-0.20562 0.12264,-0.20562c0.15256,-0.17147 0.30511,-0.34292 0.45765,-0.51438l0.55409,-0.2166c0,0 0.62693,-0.0366 0.66353,0.59034c0.02447,0.41909 -0.24758,0.57436 -0.43064,0.63129c-0.00463,0.00519 -0.00924,0.0104 -0.01385,0.01557c0.0976,0.09365 0.19473,0.1886 0.31866,0.22989c0.34353,0.1144 0.71592,-0.05096 1.08153,-0.0983c-0.1052,-0.16105 -0.11563,-0.33982 -0.11563,-0.33982l1.16422,-0.4712c0.1357,0.23591 0.27137,0.47184 0.40706,0.70775z" fill="#a00000" fill-rule="nonzero" stroke="none" stroke-width="0.5" stroke-linecap="butt" stroke-linejoin="miter"/><path d="M334.37486,189.16578c0.15883,0.60758 -0.44875,0.76643 -0.44875,0.76643l-0.52629,0.13258c-0.25372,0.10067 -0.50746,0.20134 -0.76118,0.30201c-0.69437,0.15606 -1.53106,0.6826 -2.24802,0.63451c-0.62184,-0.04171 -1.39681,-0.48033 -2.00642,-0.64436c-1.69017,-0.45477 -3.62158,-0.91077 -5.34847,-1.12924c-1.53357,-0.19403 -3.64287,0.3459 -5.2199,0.43798c0,0 -0.62693,0.0366 -0.66353,-0.59034c-0.0366,-0.62693 0.59034,-0.66353 0.59034,-0.66353c1.68248,-0.09821 3.81111,-0.6256 5.45833,-0.42919c1.78043,0.2123 3.78002,0.69394 5.51415,1.16271c0.0561,0.01517 1.60667,0.58794 1.72383,0.60092c0.48491,0.0537 1.34955,-0.46919 1.82638,-0.57867c0.22284,-0.08971 0.44568,-0.17941 0.66851,-0.26914l0.67456,-0.18134c0,0 0.60758,-0.15884 0.76643,0.44875z" fill="#a00000" fill-rule="nonzero" stroke="none" stroke-width="0.5" stroke-linecap="butt" stroke-linejoin="miter"/><path d="M341.64357,199.67274c-0.41745,0.46919 -0.88664,0.05176 -0.88664,0.05176l-0.35128,-0.35263c-2.16351,-0.13897 -4.38969,-0.28889 -6.54945,-0.53143c-1.69806,-0.19067 -3.30868,0.88579 -4.32049,-0.98854c0,0 -0.26681,-0.56851 0.30168,-0.83533c0.56851,-0.26682 0.83532,0.30169 0.83532,0.30169c0.27382,0.84027 1.74149,0.35247 2.48217,0.3131c2.51539,-0.13371 5.2653,0.24757 7.75945,0.59212l0.6775,0.56266c0,0 0.46919,0.41743 0.05176,0.88664z" fill="#a00000" fill-rule="nonzero" stroke="none" stroke-width="0.5" stroke-linecap="butt" stroke-linejoin="miter"/><path d="M341.18578,201.20536c0.0366,0.62693 -0.59034,0.66353 -0.59034,0.66353l-0.58958,0.02587c-2.28604,-0.24519 -4.53554,-0.16344 -6.79907,-0.59124c-1.41182,-0.26682 -2.74943,-1.07204 -4.15668,-1.20761c0,0 -0.62442,-0.06697 -0.55746,-0.6914c0.06697,-0.62442 0.6914,-0.55746 0.6914,-0.55746c1.47341,0.1705 2.80844,0.94926 4.27585,1.2262c2.22222,0.41941 4.43262,0.33162 6.67993,0.57264l0.38245,-0.03088c0,0 0.62693,-0.0366 0.66353,0.59034z" fill="#a00000" fill-rule="nonzero" stroke="none" stroke-width="0.5" stroke-linecap="butt" stroke-linejoin="miter"/><path d="M325.46084,182.62568c0.14815,0.61027 -0.46212,0.75844 -0.46212,0.75844l-0.1018,0.02472c-1.95528,0.28816 -2.0133,0.2048 -2.43073,-1.61159c0,0 -0.13918,-0.61238 0.47322,-0.75156c0.61238,-0.13918 0.75156,0.47322 0.75156,0.47322c0.07483,0.33353 -0.21667,1.02014 0.12516,1.01784c0.28611,-0.00191 0.52298,-0.23233 0.78447,-0.34849l0.1018,-0.02472c0,0 0.61027,-0.14815 0.75844,0.46212z" fill="#a00000" fill-rule="nonzero" stroke="none" stroke-width="0.5" stroke-linecap="butt" stroke-linejoin="miter"/><path d="M327.55316,183.12325c-0.62693,0.0366 -0.66353,-0.59034 -0.66353,-0.59034l-0.00709,-0.12152c-0.02836,-0.48602 -0.05674,-0.97204 -0.0851,-1.45807c0,0 -0.0366,-0.62693 0.59034,-0.66353c0.62693,-0.0366 0.66353,0.59034 0.66353,0.59034c0.02837,0.48602 0.06383,1.09355 0.09222,1.57955c0,0 0.0366,0.62693 -0.59034,0.66353z" fill="#a00000" fill-rule="nonzero" stroke="none" stroke-width="0.5" stroke-linecap="butt" stroke-linejoin="miter"/><path d="M329.27818,184.78896c-0.46918,-0.41745 -0.05176,-0.88664 -0.05176,-0.88664l0.74714,-0.31751c0.24774,0.06682 0.49549,0.13362 0.7432,0.20045c0,0 0.60634,0.16355 0.44279,0.76988c-0.16353,0.60633 -0.76986,0.4428 -0.76986,0.4428c-0.13956,-0.03763 -0.27913,-0.07529 -0.4187,-0.11291c-0.16597,0.08989 -0.42068,0.14604 -0.69284,-0.09607z" fill="#a00000" fill-rule="nonzero" stroke="none" stroke-width="0.5" stroke-linecap="butt" stroke-linejoin="miter"/><path d="M354.86847,168.33036c0.40542,0.4796 -0.07416,0.88503 -0.07416,0.88503l-0.24575,-0.01973c-0.04118,0.37308 -0.04907,0.73939 -0.0549,1.10562c0.07267,0.09091 0.10587,0.17401 0.10587,0.17401c0.08555,0.21753 0.20239,0.42524 0.25667,0.6526c0.02067,0.08659 -0.12578,0.27757 -0.03776,0.26438c0.26196,-0.03933 0.49672,-0.52699 0.70608,-0.36469c0.3834,0.29721 0.4211,0.87877 0.55753,1.34429c0.07662,0.26149 -0.35248,0.87987 -0.08842,0.81265c0.21172,-0.05391 0.41559,-0.40549 0.59334,-0.27847c0.75176,0.53715 1.15945,1.99572 -0.15098,2.43058c-0.38214,0.12681 -0.6965,-0.40414 -1.04476,-0.60622l-0.21661,-0.55411c0,0 -0.0071,-0.12173 0.03858,-0.26102c-0.1139,-0.14546 -0.22351,-0.33671 -0.32009,-0.57892c-0.09933,-0.24911 -0.09341,-0.53693 -0.05662,-0.80257c0.01852,-0.13357 0.34175,-0.38925 0.21523,-0.34258c-0.19949,0.07362 -0.26648,0.50775 -0.46641,0.43526c-0.27697,-0.10044 -0.48176,-0.30598 -0.64285,-0.5528c-0.05769,0.00854 -0.12198,0.00993 -0.19357,0.00225c-0.62442,-0.06697 -0.55746,-0.6914 -0.55746,-0.6914c0.0865,-0.78349 0.02614,-1.53717 0.10826,-2.32278l0.68373,-0.80552c0,0 0.4796,-0.40542 0.88503,0.07416z" fill="#a00000" fill-rule="nonzero" stroke="none" stroke-width="0.5" stroke-linecap="butt" stroke-linejoin="miter"/><path d="M358.75825,169.13318c0.46918,0.41745 0.05176,0.88664 0.05176,0.88664l-0.45848,0.48714c-0.19541,0.13333 -0.39082,0.26664 -0.58625,0.39998c0,0 -0.51877,0.35394 -0.8727,-0.16482c-0.35394,-0.51877 0.16482,-0.8727 0.16482,-0.8727c0.19542,-0.13333 0.39085,-0.26666 0.58625,-0.39998l0.22798,-0.28446c0,0 0.41745,-0.46918 0.88664,-0.05176z" fill="#a00000" fill-rule="nonzero" stroke="none" stroke-width="0.5" stroke-linecap="butt" stroke-linejoin="miter"/><path d="M361.20274,170.90924l-0.72194,0.16407c0,0 -0.61238,0.13918 -0.75156,-0.47322c-0.13918,-0.61238 0.47322,-0.75156 0.47322,-0.75156l0.72194,-0.16407c0,0 0.61238,-0.13918 0.75156,0.47322c0.13918,0.61238 -0.47322,0.75156 -0.47322,0.75156z" fill="#a00000" fill-rule="nonzero" stroke="none" stroke-width="0.5" stroke-linecap="butt" stroke-linejoin="miter"/><path d="M359.40538,164.22274c0.57711,0.24763 0.32948,0.82476 0.32948,0.82476l-0.3305,0.52122c-0.19542,0.13333 -0.39085,0.26666 -0.58625,0.39998c0,0 -0.15744,0.10741 -0.35802,0.11716c-0.08834,0.21752 -0.29558,0.37639 -0.54556,0.39101c-0.34626,0.02021 -0.64333,-0.24409 -0.66353,-0.59034c-0.02021,-0.34626 0.24409,-0.64333 0.59034,-0.66353c0.00977,-0.00056 0.01949,-0.00091 0.02918,-0.00103c0.08223,-0.18331 0.23975,-0.29078 0.23975,-0.29078c0.19542,-0.13333 0.39085,-0.26666 0.58625,-0.39998l-0.11586,0.02102c0,0 0.24765,-0.5771 0.82476,-0.32948z" fill="#a00000" fill-rule="nonzero" stroke="none" stroke-width="0.5" stroke-linecap="butt" stroke-linejoin="miter"/><path d="M355.48496,173.62763c-0.41745,0.46918 -0.88664,0.05176 -0.88664,0.05176l-0.27966,-0.3168c-0.00427,-0.00909 -0.00853,-0.01819 -0.0128,-0.02729c-0.16036,0.08276 -0.51023,0.19711 -0.79185,-0.17618c-0.37821,-0.50134 0.12313,-0.87957 0.12313,-0.87957l0.25935,-0.18039c0.31051,-0.34473 0.51538,-0.66736 0.77803,-0.77508c0.02567,-0.09512 0.07325,-0.18172 0.13726,-0.2537l0.45766,-0.51438v0c0.10684,-0.12008 0.25945,-0.19939 0.4326,-0.20952c0.2455,-0.01433 0.46628,0.11438 0.58119,0.31391l0.38451,-0.19204c0.07702,-0.04067 0.16378,-0.06591 0.25642,-0.07132c0.34626,-0.02021 0.64333,0.24409 0.66353,0.59034c0.00616,0.10531 -0.01403,0.20604 -0.05482,0.29583l-0.31697,0.7387l-0.0068,-0.00292l-0.00312,0.02488c-0.24429,0.46097 -0.54032,0.89914 -0.88469,1.29101c0,0 -0.33283,0.3741 -0.73814,0.157c-0.02512,0.04449 -0.05743,0.08982 -0.0982,0.13565zM355.35255,172.53909c-0.00841,0.00541 -0.01682,0.01083 -0.02524,0.01626c0.00191,0.00406 0.00381,0.00812 0.00572,0.01218c0.00696,-0.01063 0.01355,-0.02016 0.01952,-0.02845z" fill="#ffffff" fill-rule="nonzero" stroke="none" stroke-width="0.5" stroke-linecap="butt" stroke-linejoin="miter"/><path d="M333.85767,186.89656c-0.52351,-0.34689 -0.17663,-0.87038 -0.17663,-0.87038l0.50046,-0.10185c-0.17947,-0.07021 -0.3431,-0.14332 -0.46055,-0.20281c0,0 -0.55642,-0.29116 -0.26526,-0.84759c0.29117,-0.55642 0.84759,-0.26526 0.84759,-0.26526c1.15739,0.63334 3.15881,0.27154 1.65248,2.15799c-0.14369,0.17996 -0.37801,0.26223 -0.57061,0.38947l-0.41875,0.47067l-0.18867,-0.16787l-0.59509,0.29396c-0.01959,-0.22289 -0.03881,-0.44671 -0.06357,-0.66979l-0.21754,-0.07264l0.02439,-0.07304c-0.0224,-0.01204 -0.04514,-0.02566 -0.06824,-0.04095z" fill="#8da900" fill-rule="nonzero" stroke="none" stroke-width="0.5" stroke-linecap="butt" stroke-linejoin="miter"/><path d="M335.47734,194.91211c0,0 -0.46504,-0.41375 -0.05725,-0.88039c-0.18598,-0.0998 -0.31731,-0.29097 -0.3305,-0.51713c-0.0101,-0.17311 0.05092,-0.33394 0.15776,-0.45403v0l0.23112,-0.25978c0.00687,-0.14872 -0.00755,-0.29525 -0.05399,-0.43638l-0.34018,-0.47655c0,0 -0.29768,-0.4363 0.05306,-0.78164c-0.08581,-0.14904 -0.18335,-0.42557 0.04724,-0.69621c-0.28087,-0.37179 -0.6284,-0.8898 -0.73528,-1.04539l-0.11527,-0.43885c0,0 -0.0099,-0.16973 0.06891,-0.33772c-0.06277,-0.01223 -0.12434,-0.02706 -0.18358,-0.04684c0,0 -0.59568,-0.19887 -0.39682,-0.79453c0.19885,-0.59569 0.79453,-0.39682 0.79453,-0.39682c0.09378,0.03132 0.32987,0.10802 0.58611,0.19538c0.10431,-0.10123 0.24408,-0.16691 0.40056,-0.17605c0.13072,-0.00763 0.25441,0.02528 0.35885,0.08784c0.24028,-0.02596 0.41974,0.12019 0.50772,0.21301c0.00205,-0.00319 0.00411,-0.00639 0.00624,-0.00958c0.05665,-0.27073 0.2888,-0.48099 0.57818,-0.4979c0.34626,-0.02021 0.64333,0.24409 0.66353,0.59034c0.00875,0.14983 -0.03578,0.29047 -0.11719,0.40344c-0.0201,0.12902 -0.04817,0.25798 -0.08388,0.38534c0.00356,0.02416 0.00616,0.04944 0.00771,0.07593c0.01715,0.29387 -0.11148,0.45802 -0.253,0.54953c-0.09969,0.19344 -0.21861,0.37578 -0.35532,0.54042l0.0006,0.08031c0,0 -0.08876,0.20688 -0.28389,0.31975c-0.06411,0.17161 -0.16368,0.3233 -0.30565,0.44165c0.54425,0.38918 1.47927,0.15931 1.79545,0.83361c0.44075,0.94001 -0.65714,1.77652 -1.32576,2.24081c0.1658,0.16075 0.33392,0.3186 0.51972,0.45492c0.29225,0.21441 0.84648,0.23306 0.91392,0.58918c0.08163,0.43099 -0.80835,1.3303 -1.10741,1.66231l-0.07468,0.02669l0.01395,0.02044l-0.57773,0.39417c-0.09266,0.0656 -0.20421,0.10689 -0.32587,0.11399c-0.34626,0.02021 -0.64333,-0.24409 -0.66353,-0.59034c-0.00197,-0.0338 -0.00123,-0.06713 0.00203,-0.0998l0.07095,-0.84686l0.01481,0.00125c-0.02523,-0.21324 -0.04548,-0.42695 -0.05849,-0.64125l-0.04769,0.20375zM336.64424,192.14493c0.00355,0.0124 0.00715,0.02478 0.01081,0.03719c0.01726,-0.01231 0.03421,-0.02442 0.05082,-0.03626c-0.01995,0.00042 -0.04053,0.00008 -0.06161,-0.00096z" fill="#8da900" fill-rule="nonzero" stroke="none" stroke-width="0.5" stroke-linecap="butt" stroke-linejoin="miter"/><path d="M338.57703,191.85256c-0.76849,-1.11465 -0.76913,-1.40229 -0.37061,-2.18953c-0.27233,-0.32548 -0.10896,-0.98523 0.14728,-1.53873l-0.28809,-0.16636c-0.10892,-0.58824 -0.03406,-1.23992 0.22094,-1.78106c0,0 0.29117,-0.55642 0.84761,-0.26526c0.55642,0.29118 0.26526,0.84761 0.26526,0.84761c-0.01538,0.02452 -0.02962,0.04991 -0.04275,0.07605c0.22583,0.08193 0.39362,0.29029 0.41236,0.54418c0.1623,0.17964 0.17574,0.36383 0.14136,0.5121l0.15652,0.55914c-0.05327,0.18145 -0.05002,0.41506 -0.06797,0.62911c0.4987,0.34681 0.15948,0.85876 0.15948,0.85876l-0.23271,0.12381c0.02778,0.50301 0.01966,1.02139 -0.05082,1.52718l0.25491,0.02733l-0.07784,0.72586c-0.02724,0.30482 -0.27424,0.55186 -0.58894,0.57023c-0.28203,0.01647 -0.53142,-0.15583 -0.62515,-0.4074l-0.26089,-0.65304z" fill="#8da900" fill-rule="nonzero" stroke="none" stroke-width="0.5" stroke-linecap="butt" stroke-linejoin="miter"/><path d="M336.47624,185.13961c0.5124,0.36308 0.14934,0.87548 0.14934,0.87548l-0.99262,0.90012c-0.30727,-0.34064 -0.61453,-0.68131 -0.9218,-1.02195c0,0 -0.31311,-0.5444 0.23127,-0.85747c0.38544,-0.22169 0.65495,-0.01349 0.77947,0.12696c0.14749,-0.12331 0.4189,-0.26078 0.75434,-0.02314z" fill="#a00000" fill-rule="nonzero" stroke="none" stroke-width="0.5" stroke-linecap="butt" stroke-linejoin="miter"/><path d="M337.01927,186.55501c0.62693,-0.0366 0.66353,0.59034 0.66353,0.59034l0.01418,0.24302c0.01384,0.30748 -0.04903,0.6129 -0.15722,0.90823l0.16852,0.05626l-0.20291,0.60784c-0.075,0.2433 -0.29461,0.42625 -0.56371,0.44194c-0.26912,0.01572 -0.5085,-0.14043 -0.61131,-0.37336l-0.27225,-0.58011l0.04064,-0.01907l-0.08083,-0.09325c-0.02025,-0.2823 -0.04054,-0.56462 -0.06079,-0.84693c0,0 -0.03575,-0.61246 0.56876,-0.66202c0.08052,-0.13529 0.22712,-0.25735 0.49341,-0.27289z" fill="#a00000" fill-rule="nonzero" stroke="none" stroke-width="0.5" stroke-linecap="butt" stroke-linejoin="miter"/><path d="M338.7262,189.41369c0.60634,0.16355 0.44279,0.76988 0.44279,0.76988l-0.09371,0.34511c-0.04368,0.16467 -0.04802,0.35411 -0.06701,0.53434c0.254,0.16628 0.27348,0.49999 0.27348,0.49999l0.05675,0.97204c0.00619,0.10592 -0.01425,0.20725 -0.05554,0.29744c0.00422,0.01861 0.00837,0.03729 0.01245,0.05602l0.06629,0.25333c0,0 0.15883,0.60758 -0.44875,0.76644c-0.14381,0.03759 -0.26249,0.03226 -0.35984,0.00219c-0.25762,-0.0641 -0.3689,-0.28664 -0.4129,-0.41703c-0.09585,0.07279 -0.21362,0.11887 -0.34281,0.12642c-0.26912,0.01572 -0.5085,-0.14043 -0.61131,-0.37336l-0.27225,-0.58011l0.02159,-0.01014l-0.04696,-0.05252c-0.13985,-0.61044 -0.21605,-1.23644 -0.25385,-1.86155c0,0 -0.0366,-0.62693 0.59034,-0.66353c0.04011,-0.00234 0.0778,-0.00197 0.11321,0.00078c0.0571,-0.05479 0.1325,-0.10278 0.23162,-0.13805c0.10037,-0.08537 0.22831,-0.14 0.37001,-0.1483c0.01324,-0.00078 0.02642,-0.00114 0.0395,-0.00108c0.06259,-0.15161 0.26475,-0.50833 0.74688,-0.3783z" fill="#a00000" fill-rule="nonzero" stroke="none" stroke-width="0.5" stroke-linecap="butt" stroke-linejoin="miter"/><path d="M338.37978,194.90746c0.02021,0.34626 -0.24409,0.64333 -0.59034,0.66353c-0.34626,0.02021 -0.64333,-0.24409 -0.66353,-0.59034c-0.02021,-0.34626 0.24409,-0.64333 0.59034,-0.66353c0.34626,-0.02021 0.64333,0.24409 0.66353,0.59034z" fill="#a00000" fill-rule="nonzero" stroke="none" stroke-width="0.5" stroke-linecap="butt" stroke-linejoin="miter"/><path d="M337.29653,189.22204c0.31305,-0.01828 0.47891,0.12889 0.56651,0.28083c0.01299,0.00347 0.02582,0.00732 0.03848,0.01158c-0.01091,-0.09751 -0.01325,-0.19872 -0.00417,-0.30441c0.01957,-0.2279 0.10953,-0.44778 0.18322,-0.66838c-0.04437,-0.68211 -0.06903,-1.36341 -0.10755,-2.02282l-0.04965,-0.85054c-0.02021,-0.34626 0.24409,-0.64333 0.59034,-0.66353c0.31468,-0.01837 0.58873,0.19826 0.65127,0.49784l0.12508,0.55037c0.36362,0.0254 0.5148,0.40382 0.5148,0.40382c0.87313,2.18561 0.74792,3.84321 0.50318,6.12507l-0.07784,0.72586c-0.02724,0.30482 -0.27424,0.55186 -0.58894,0.57023c-0.09406,0.00548 -0.18448,-0.01001 -0.2667,-0.04245c-0.03277,0.18806 -0.15222,0.48608 -0.57866,0.51099c-0.39456,0.02303 -0.55527,-0.21672 -0.62024,-0.39764c-0.00666,-0.0037 -0.01333,-0.00755 -0.02006,-0.01159c-0.17777,0.05909 -0.51693,0.1051 -0.73934,-0.28163c-0.3131,-0.54439 0.23128,-0.8575 0.23128,-0.8575c0.13093,-0.04463 0.26226,-0.1232 0.39352,-0.19818c-0.11634,-0.08528 -0.214,-0.22729 -0.2278,-0.46358c-0.03329,-0.57026 0.48241,-0.65209 0.57594,-0.66222c0.03118,-0.11134 0.04118,-0.21875 0.03578,-0.32386c-0.01314,-0.05625 -0.02583,-0.11266 -0.03804,-0.16928c-0.08936,-0.02954 -0.17022,-0.07871 -0.2371,-0.14266c-0.2526,-0.02312 -0.50731,-0.02713 -0.75964,-0.0107l-0.68407,-0.94215c0,0 -0.0366,-0.62693 0.59034,-0.66353zM338.24833,191.78735c0.0493,-0.07963 0.08697,-0.15686 0.11466,-0.23218z" fill="#000000" fill-rule="nonzero" stroke="none" stroke-width="0.5" stroke-linecap="butt" stroke-linejoin="miter"/><path d="M337.83334,191.16123l0.18181,0.69543" fill="none" fill-rule="nonzero" stroke="#001026" stroke-width="1.2" stroke-linecap="round" stroke-linejoin="miter"/><path d="M337.52314,190.68511l0.76472,2.2147" fill="none" fill-rule="nonzero" stroke="#a00000" stroke-width="1.2" stroke-linecap="round" stroke-linejoin="miter"/><path d="M338.82256,191.17409l-2.01951,-0.72937" fill="none" fill-rule="nonzero" stroke="#000000" stroke-width="1.2" stroke-linecap="round" stroke-linejoin="miter"/><path d="M336.84716,193.61935l2.23579,-1.61321" fill="none" fill-rule="nonzero" stroke="#000000" stroke-width="1.2" stroke-linecap="round" stroke-linejoin="miter"/><path d="M342.53566,182.19214c-0.62713,-0.03286 -0.59427,-0.66002 -0.59427,-0.66002l0.04034,-0.70327c0.02384,-0.01641 0.04768,-0.03282 0.07151,-0.04924l-0.05766,-0.01555l0.17036,-0.63162c0.04817,-0.19681 0.18963,-0.35905 0.37735,-0.4339c0.331,-0.72848 1.33777,-1.49638 2.21621,-0.69366c0.8836,0.80745 0.24368,3.08161 -1.07309,3.12234c-0.23773,0.00735 -0.44038,-0.06219 -0.60759,-0.1839c-0.09158,0.1391 -0.25435,0.26392 -0.54316,0.24879z" fill="#a00000" fill-rule="nonzero" stroke="none" stroke-width="0.5" stroke-linecap="butt" stroke-linejoin="miter"/><path d="M343.90378,180.35737c0.02021,0.34626 -0.24409,0.64333 -0.59034,0.66353c-0.34626,0.02021 -0.64333,-0.24409 -0.66353,-0.59034c-0.02021,-0.34626 0.24409,-0.64333 0.59034,-0.66353c0.34626,-0.02021 0.64333,0.24409 0.66353,0.59034z" fill="#ffffff" fill-rule="nonzero" stroke="none" stroke-width="0.5" stroke-linecap="butt" stroke-linejoin="miter"/><path d="M338.09428,190.79296l0.60757,1.94146l-1.09709,0.55829" fill="none" fill-rule="nonzero" stroke="#000000" stroke-width="1.2" stroke-linecap="round" stroke-linejoin="miter"/><path d="M348.29719,181.73118c0.34626,-0.02021 0.64333,0.24409 0.66353,0.59034c0.00231,0.03946 0.0009,0.07828 -0.00388,0.11611c0.10662,-0.11763 0.25765,-0.19516 0.42869,-0.20516c0.34626,-0.02021 0.64333,0.24409 0.66353,0.59034c0.00676,0.11559 -0.0182,0.22573 -0.06737,0.32189c0.25844,0.06544 0.45622,0.29203 0.47259,0.57231c0.00318,0.05439 -0.00067,0.10759 -0.01075,0.15866c0.29475,0.03676 0.53055,0.27944 0.54849,0.5866c0.02021,0.34626 -0.24409,0.64333 -0.59034,0.66353c-0.02691,0.00157 -0.05352,0.00141 -0.07974,-0.00036c-0.01116,0.32031 -0.26468,0.58529 -0.59104,0.60434c-0.34626,0.02021 -0.64333,-0.24409 -0.66353,-0.59034c-0.00157,-0.02691 -0.00141,-0.05353 0.00034,-0.07975c-0.32031,-0.01116 -0.58529,-0.26468 -0.60434,-0.59104c-0.00352,-0.06016 0.00159,-0.11885 0.01418,-0.17486c-0.26281,-0.06241 -0.465,-0.291 -0.48154,-0.57451c-0.00491,-0.08409 0.00695,-0.16526 0.03271,-0.24029c-0.27376,-0.05436 -0.48717,-0.28783 -0.50419,-0.57946c-0.004,-0.06854 0.00316,-0.13515 0.01987,-0.19807c-0.23069,-0.08197 -0.4017,-0.29562 -0.41688,-0.55542c-0.02021,-0.34626 0.24409,-0.64333 0.59034,-0.66353c0.21908,-0.01278 0.41848,0.08833 0.54053,0.25206c0.01283,-0.00154 0.02575,-0.00269 0.03882,-0.00346zM348.79523,182.89601c-0.00231,-0.03946 -0.0009,-0.07828 0.00388,-0.11611c-0.00728,0.00803 -0.01476,0.01588 -0.02243,0.0235c0.00071,0.00762 0.00129,0.01528 0.00175,0.02297c0.00491,0.08409 -0.00695,0.16526 -0.03271,0.24029c0.03199,0.00634 0.06314,0.01515 0.09327,0.02619c-0.0245,-0.06124 -0.03971,-0.12738 -0.04377,-0.19686zM349.23543,183.54347c0.00917,-0.02584 0.02003,-0.05091 0.03237,-0.0751c-0.02098,-0.00531 -0.04156,-0.01168 -0.06168,-0.01906c0.0121,0.03027 0.02194,0.06169 0.02928,0.09417zM349.73749,184.47631c0.00118,-0.03386 0.00505,-0.06707 0.01145,-0.09947c-0.01125,-0.00141 -0.02243,-0.00312 -0.03351,-0.0051c0.00074,0.00788 0.00137,0.0158 0.00184,0.02377c0.00157,0.02691 0.00141,0.05352 -0.00036,0.07974c0.00689,0.00024 0.01375,0.00059 0.02056,0.00105z" fill="#e93e3e" fill-rule="nonzero" stroke="none" stroke-width="0.5" stroke-linecap="butt" stroke-linejoin="miter"/><path d="M347.64304,172.94377c0.34626,-0.02021 0.64333,0.24409 0.66353,0.59034c0.00535,0.09162 -0.00922,0.1798 -0.03997,0.26034c0.08482,0.10019 0.13908,0.22771 0.14729,0.36886c0.00845,0.14461 -0.03275,0.28062 -0.10878,0.39149c0.13065,0.10731 0.21782,0.26673 0.22845,0.44878c0.00997,0.17072 -0.04922,0.32945 -0.15329,0.44896c0.19707,0.09636 0.33784,0.29332 0.35153,0.52792c0.01075,0.18443 -0.05919,0.35493 -0.17928,0.47704c0.17355,0.10289 0.2945,0.2874 0.30715,0.50397c0.01599,0.27375 -0.14586,0.51675 -0.38544,0.6165c0.09296,0.10246 0.15281,0.23619 0.1615,0.38504c0.01075,0.1842 -0.05902,0.35448 -0.1788,0.47656c0.24805,0.07214 0.4356,0.29397 0.4515,0.56659c0.00845,0.14461 -0.03275,0.28062 -0.10878,0.39149c0.13064,0.10732 0.21782,0.26673 0.22845,0.44878c0.00433,0.07406 -0.00438,0.14588 -0.0241,0.21321c0.02742,0.06458 0.04443,0.13489 0.04875,0.20896c0.00333,0.0571 -0.00108,0.11285 -0.0123,0.16624c0.06411,0.09192 0.10441,0.20211 0.11141,0.32221c0.01182,0.20267 -0.07382,0.3885 -0.21634,0.51181c0.07191,0.09548 0.11738,0.21249 0.12488,0.34079c0.02021,0.34626 -0.24409,0.64333 -0.59034,0.66353c-0.34626,0.02021 -0.64333,-0.24409 -0.66353,-0.59034c-0.01182,-0.20267 0.07382,-0.3885 0.21634,-0.51181c-0.07191,-0.09548 -0.11738,-0.21249 -0.12488,-0.34079c-0.00333,-0.0571 0.00108,-0.11285 0.0123,-0.16624c-0.06411,-0.09193 -0.10441,-0.20211 -0.11141,-0.32221c-0.00433,-0.07406 0.00436,-0.14588 0.0241,-0.21322c-0.02742,-0.06458 -0.04442,-0.1349 -0.04874,-0.20898c-0.00845,-0.14461 0.03275,-0.28062 0.10878,-0.39149c-0.13063,-0.10732 -0.2178,-0.26672 -0.22845,-0.44876c-0.01075,-0.1842 0.05902,-0.35448 0.1788,-0.47656c-0.24805,-0.07215 -0.4356,-0.29397 -0.4515,-0.56659c-0.01597,-0.27374 0.14586,-0.51675 0.38544,-0.6165c-0.09296,-0.10246 -0.15281,-0.23619 -0.1615,-0.38504c-0.01075,-0.18443 0.05919,-0.35493 0.17928,-0.47704c-0.17355,-0.10289 -0.2945,-0.2874 -0.30715,-0.50397c-0.00997,-0.17072 0.04924,-0.32945 0.1533,-0.44897c-0.19706,-0.09635 -0.33784,-0.29332 -0.35153,-0.52792c-0.00845,-0.14461 0.03275,-0.28062 0.10878,-0.39149c-0.13063,-0.10732 -0.21782,-0.26673 -0.22845,-0.44878c-0.00535,-0.09162 0.00922,-0.1798 0.03997,-0.26034c-0.08482,-0.10019 -0.13908,-0.22771 -0.14729,-0.36886c-0.02021,-0.34626 0.24409,-0.64333 0.59034,-0.66353z" fill="#e93e3e" fill-rule="nonzero" stroke="none" stroke-width="0.5" stroke-linecap="butt" stroke-linejoin="miter"/><path d="M349.44348,185.75298c0.02021,0.34626 -0.24409,0.64333 -0.59034,0.66353c-0.32636,0.01906 -0.609,-0.21463 -0.65735,-0.53146c-0.02584,0.0048 -0.05225,0.00807 -0.07916,0.00964c-0.34626,0.02021 -0.64333,-0.24409 -0.66353,-0.59034c-0.00781,-0.13402 0.02699,-0.26067 0.09266,-0.36675c-0.0163,0.00224 -0.03283,0.00387 -0.04957,0.00484c-0.34626,0.02021 -0.64333,-0.24409 -0.66353,-0.59034c-0.00727,-0.12454 0.02227,-0.24272 0.07918,-0.34392c-0.22927,-0.08271 -0.39894,-0.29568 -0.41404,-0.55439c-0.00535,-0.09165 0.00922,-0.17983 0.04,-0.26038c-0.24286,-0.07526 -0.42543,-0.29467 -0.44111,-0.56346c-0.02021,-0.34626 0.24409,-0.64333 0.59034,-0.66353c0.34626,-0.02021 0.64333,0.24409 0.66353,0.59034c0.00535,0.09165 -0.00922,0.17983 -0.04,0.26038c0.24286,0.07526 0.42543,0.29467 0.44111,0.56346c0.00727,0.12453 -0.02227,0.24271 -0.07918,0.34392c0.22927,0.08271 0.39893,0.29569 0.41404,0.55439c0.00781,0.13402 -0.02699,0.26067 -0.09266,0.36675c0.0163,-0.00224 0.03283,-0.00387 0.04957,-0.00484c0.32636,-0.01906 0.60898,0.21465 0.65734,0.53147c0.02585,-0.00481 0.05226,-0.00806 0.07916,-0.00963c0.34626,-0.02021 0.64333,0.24409 0.66353,0.59034z" fill="#e93e3e" fill-rule="nonzero" stroke="none" stroke-width="0.5" stroke-linecap="butt" stroke-linejoin="miter"/><path d="M347.63663,170.67842c0.00406,0.06924 -0.04882,0.12865 -0.11806,0.13271c-0.06924,0.00406 -0.12865,-0.04882 -0.13271,-0.11806c-0.00406,-0.06924 0.04882,-0.12865 0.11806,-0.13271c0.06924,-0.00406 0.12865,0.04882 0.13271,0.11806z" fill="#a00000" fill-rule="nonzero" stroke="none" stroke-width="0.5" stroke-linecap="butt" stroke-linejoin="miter"/><path d="M345.23144,171.55895c-0.10027,0.07564 -0.1759,-0.02462 -0.1759,-0.02462l-0.00354,-0.00469c-0.10085,-0.13369 -0.20171,-0.26738 -0.30256,-0.40106c0,0 -0.07564,-0.10027 0.02462,-0.1759c0.10027,-0.07564 0.1759,0.02462 0.1759,0.02462c0.10085,0.1337 0.20525,0.27206 0.30611,0.40576c0,0 0.07564,0.10027 -0.02462,0.1759z" fill="#a00000" fill-rule="nonzero" stroke="none" stroke-width="0.5" stroke-linecap="butt" stroke-linejoin="miter"/><path d="M345.77591,169.98594c0.11869,-0.00693 0.22775,0.04187 0.30171,0.1237c0.03697,-0.10358 0.12395,-0.21917 0.32746,-0.23103c0.37618,-0.02195 0.39812,0.3542 0.39812,0.3542l-0.00051,0.0792c0.00927,0.04219 0.0193,0.08331 0.02994,0.12356c0.04297,0.01071 0.08317,0.02884 0.11909,0.05305c0.00194,-0.03824 0.01886,-0.09139 0.0933,-0.11087c0.02425,-0.00634 0.04491,-0.00658 0.06249,-0.00288c0.00965,-0.00261 0.02038,-0.0044 0.03231,-0.00507c0.1254,-0.00733 0.13271,0.11806 0.13271,0.11806l0.00411,0.07037c0.00134,0.06261 -0.00633,0.12699 -0.02231,0.1895c0.0136,0.08021 0.02716,0.16458 0.0422,0.24846c0.00685,-0.00037 0.01384,-0.00082 0.02099,-0.00135l0.16527,0.09781c0,0 0.01484,0.01321 0.02748,0.03501c0.00849,-0.00238 0.01739,-0.00388 0.02657,-0.00441c0.06924,-0.00406 0.12865,0.04882 0.13271,0.11806c0.00197,0.03391 -0.00969,0.06546 -0.03025,0.08931c0.00485,0.00049 0.00963,0.00122 0.01432,0.00226c0.02096,-0.00902 0.04714,-0.01399 0.07595,-0.00522c0.00974,-0.00309 0.02001,-0.00502 0.03069,-0.00565c0.06924,-0.00406 0.12865,0.04882 0.13271,0.11806c0.00309,0.05294 -0.02706,0.1001 -0.07236,0.1212c-0.00103,0.00305 -0.00215,0.00606 -0.00338,0.00902c-0.01795,0.04287 -0.05908,0.07405 -0.10859,0.07695c-0.0033,0.00019 -0.00657,0.00027 -0.00981,0.0002c-0.0348,0.04579 -0.06766,0.09239 -0.10038,0.13909c0.03325,0.05782 0.06652,0.11565 0.09978,0.17348c0,0 0.06263,0.10888 -0.04626,0.17149c-0.07206,0.04143 -0.12384,0.00776 -0.15065,-0.01975c-0.0205,0.01117 -0.04103,0.02142 -0.06159,0.03078c0.00363,0.06199 0.00724,0.12402 0.01086,0.18599l0.08569,-0.005c0,0 0.05117,-0.00299 0.09006,0.02754c0.00452,-0.03644 0.02525,-0.10489 0.11694,-0.11025c0.1254,-0.00733 0.13271,0.11806 0.13271,0.11806l0.00411,0.07037c0.00411,0.07037 0.00821,0.14071 0.01232,0.2111c0,0 0.00733,0.1254 -0.11806,0.13271c-0.1254,0.00733 -0.13271,-0.11806 -0.13271,-0.11806c-0.00173,-0.02975 -0.00422,-0.07206 -0.0068,-0.11632c-0.03494,0.03275 -0.08392,0.0356 -0.08392,0.0356l-0.06296,0.00367l-0.01835,0.05839c-0.00033,0.00019 -0.00069,0.0004 -0.00103,0.00059c0.00329,0.05626 0.00656,0.1125 0.00985,0.16879c0,0 0.00733,0.1254 -0.11806,0.13271c-0.1254,0.00733 -0.13271,-0.11806 -0.13271,-0.11806c-0.00181,-0.03105 -0.00367,-0.06284 -0.00557,-0.0952c-0.02157,-0.00866 -0.04293,-0.02574 -0.06063,-0.05647c-0.02748,-0.04778 -0.02194,-0.08665 -0.00707,-0.11523c-0.08614,0.02932 -0.15862,0.03032 -0.21892,0.01515c-0.06322,0.09596 -0.16936,0.16191 -0.2929,0.16911c-0.20776,0.01213 -0.386,-0.14646 -0.39812,-0.3542c-0.00607,-0.10425 0.03081,-0.20105 0.09533,-0.27318c-0.00084,-0.0048 -0.00142,-0.00971 -0.00172,-0.01471c-0.00406,-0.06924 0.04882,-0.12865 0.11806,-0.13271c0.01883,-0.0011 0.03693,0.00201 0.05339,0.00851c-0.08331,-0.10284 -0.09094,-0.23353 -0.09094,-0.23353c-0.006,-0.16594 -0.03935,-0.31667 -0.08452,-0.46275c-0.00428,0.01428 -0.00514,0.02904 -0.00148,0.04414c0,0 0.00498,0.08531 -0.06365,0.1193c0.00187,0.03196 0.00374,0.06393 0.00561,0.0959l0.03257,-0.02026c0,0 0.09384,0.0835 0.01035,0.17732c-0.0835,0.09384 -0.17732,0.01035 -0.17732,0.01035l-0.11638,-0.15278c-0.00684,-0.11728 -0.01368,-0.23456 -0.02055,-0.35182c0,0 -0.00733,-0.1254 0.11806,-0.13271c0.0265,-0.00155 0.04774,0.00284 0.06473,0.0107c0.01737,-0.02252 0.03615,-0.04411 0.05575,-0.0646c-0.05047,-0.13534 -0.10302,-0.27226 -0.14484,-0.41946c-0.06432,0.08384 -0.16335,0.14031 -0.27712,0.14695c-0.20776,0.01213 -0.386,-0.14646 -0.39812,-0.3542c-0.01213,-0.20776 0.14646,-0.386 0.3542,-0.39812zM347.50142,171.46298c-0.00197,-0.03391 0.00969,-0.06546 0.03025,-0.08931c-0.01873,-0.00185 -0.03635,-0.00785 -0.05185,-0.01709c-0.00509,0.00392 -0.01051,0.00744 -0.01617,0.01054l-0.06773,0.03895c0.01922,0.05357 0.0409,0.10194 0.06579,0.14291c0.01441,-0.02011 0.02902,-0.0402 0.04394,-0.06012c-0.00227,-0.00831 -0.00371,-0.01695 -0.00423,-0.02591z" fill="#a00000" fill-rule="nonzero" stroke="none" stroke-width="0.5" stroke-linecap="butt" stroke-linejoin="miter"/><path d="M345.23404,169.17034l0.01739,0.00277c0.16282,-0.03304 0.32563,-0.0661 0.48846,-0.09913c0,0 0.03309,-0.00672 0.08147,-0.00622c0.0137,-0.00233 0.02767,-0.00394 0.0419,-0.00477c0.20776,-0.01213 0.386,0.14646 0.39812,0.3542c0.01213,0.20776 -0.14646,0.386 -0.3542,0.39812c-0.01124,0.00065 -0.02242,0.00082 -0.03348,0.00049c-0.15745,0.03195 -0.31489,0.06391 -0.47236,0.09585l-0.12334,0.011c0,0 -0.37618,0.02195 -0.39812,-0.3542c-0.02195,-0.37618 0.3542,-0.39812 0.3542,-0.39812z" fill="#a00000" fill-rule="nonzero" stroke="none" stroke-width="0.5" stroke-linecap="butt" stroke-linejoin="miter"/><path d="M346.98808,162.57955c-0.1283,0.91745 -1.68184,2.17867 -1.43277,3.19618c0.09555,0.06304 0.20372,0.18574 0.14469,0.40462c-0.06504,0.24115 -0.24683,0.27933 -0.362,0.27768c-0.13308,0.03217 -0.23106,-0.00966 -0.29895,-0.06625l-0.03737,-0.01018c-1.78646,-0.59725 -3.6316,-1.00158 -5.35428,-1.7473c-0.44212,-0.19138 -1.92628,-0.27922 -1.57278,-1.20894c0.14035,-0.36915 1.89629,-0.30218 2.21605,-0.32084c1.10224,-0.06435 2.20436,-0.13839 3.30714,-0.19305c0.17432,-0.00865 0.80922,-0.07115 0.91631,-0.2655c0.05218,-0.09471 -0.36657,-0.82805 -0.41931,-0.94041c-0.48219,-1.0274 -0.33241,-2.17337 -0.82224,-3.19982c-0.326,-0.70617 -0.4454,-2.85722 0.95329,-1.85264c0.33468,0.24038 0.61801,1.16228 0.93542,1.49946c1.23184,1.30865 2.0299,2.30651 2.70361,3.99126c0,0 0.13978,0.34992 -0.21012,0.48969c-0.34992,0.13978 -0.48969,-0.21012 -0.48969,-0.21012c-0.01456,-0.03644 -0.02908,-0.07261 -0.04362,-0.10847c-0.00225,0.1136 -0.05532,0.20426 -0.05532,0.20426l-0.07808,0.06038z" fill="#ffffff" fill-rule="nonzero" stroke="none" stroke-width="0.5" stroke-linecap="butt" stroke-linejoin="miter"/><path d="M342.86936,156.78921c0.00543,-0.00844 0.01096,-0.01679 0.01657,-0.02503l0.12958,0.10952c0.00588,-0.00053 0.01187,-0.00099 0.01793,-0.00133c0.08354,-0.00486 0.1496,0.00986 0.20184,0.03579c-0.01509,-0.11899 -0.02619,-0.2426 -0.0342,-0.37418c0,0 -0.02195,-0.37618 0.3542,-0.39812c0.37618,-0.02195 0.39812,0.3542 0.39812,0.3542c0.00138,0.02491 0.00287,0.04941 0.00449,0.07349l0.21447,0.47533c0.03245,0.03853 0.06028,0.08606 0.08356,0.14152c0.045,-0.07418 0.09562,-0.15554 0.15216,-0.2459l0.46054,0.74189c-0.02993,0.103 -0.05985,0.20599 -0.08977,0.30897c0.2378,0.14349 0.39463,0.3278 0.35655,0.61336c-0.04306,0.32285 -0.33264,0.56009 -0.49898,0.84014l-0.20317,-0.31212c-0.0461,0.08745 -0.09221,0.17487 -0.1383,0.2623l-0.22835,-0.33986c-0.02115,0.07214 -0.04415,0.14332 -0.06879,0.21322l-0.59178,-0.60488c-0.02162,-0.13649 -0.01471,-0.27909 0.01414,-0.41824c-0.23177,-0.15412 -0.44276,-0.34244 -0.61495,-0.55677l-0.0792,0.05766c-0.02891,-0.07446 -0.04532,-0.15416 -0.05094,-0.23605c-0.04787,-0.07269 -0.0913,-0.14777 -0.12973,-0.225l0.32402,-0.48986z" fill="#a00000" fill-rule="nonzero" stroke="none" stroke-width="0.5" stroke-linecap="butt" stroke-linejoin="miter"/><path d="M340.07132,162.97606c0.37618,-0.02195 0.39812,0.3542 0.39812,0.3542l0.00137,0.05699c0.09095,0.06382 0.15291,0.16709 0.1599,0.28662c0.00483,0.08267 -0.01739,0.16069 -0.05897,0.22539l0.23203,0.63609c0.01407,0.03597 0.02281,0.07473 0.02518,0.1154c0.01213,0.20776 -0.14646,0.386 -0.3542,0.39812c-0.16147,0.00944 -0.3051,-0.08426 -0.36679,-0.22402l-0.09795,-0.20866l-0.04836,0.1096c-0.10285,-0.10892 -0.19194,-0.21234 -0.2672,-0.3095c-0.05044,0.03019 -0.10868,0.049 -0.17142,0.05269c-0.16147,0.00944 -0.3051,-0.08426 -0.36679,-0.22402l-0.07646,-0.16293c-0.06432,0.08363 -0.16322,0.13994 -0.27681,0.14656c-0.0483,0.00281 -0.09501,-0.0036 -0.13839,-0.01771c-0.12987,0.03862 -0.23726,0.02365 -0.26416,-0.10103c-0.00918,0.00122 -0.01846,0.0021 -0.02784,0.00266c-0.20776,0.01213 -0.386,-0.14646 -0.39812,-0.3542c-0.00137,-0.02351 -0.00056,-0.04664 0.00226,-0.06921l0.03166,-0.29507l-0.05432,-0.03367c0.02121,-0.01561 0.04213,-0.03073 0.06279,-0.04535l0.00418,-0.03898c0.01636,-0.18288 0.16455,-0.33111 0.35336,-0.34214c0.0839,-0.00489 0.16296,0.01804 0.22825,0.06081c0.22586,-0.07531 0.38154,-0.05031 0.46389,0.05127c0.23774,-0.00819 0.44114,0.15618 0.65167,0.28464c0.00748,-0.09968 0.05654,-0.33727 0.35318,-0.35458z" fill="#a00000" fill-rule="nonzero" stroke="none" stroke-width="0.5" stroke-linecap="butt" stroke-linejoin="miter"/><path d="M347.93958,155.83374c0.01213,0.20776 -0.14646,0.386 -0.3542,0.39812c-0.20776,0.01213 -0.386,-0.14646 -0.39812,-0.3542c-0.01213,-0.20776 0.14646,-0.386 0.3542,-0.39812c0.20776,-0.01213 0.386,0.14646 0.39812,0.3542z" fill="#a00000" fill-rule="nonzero" stroke="none" stroke-width="0.5" stroke-linecap="butt" stroke-linejoin="miter"/><path d="M350.97218,154.51162l-0.23485,0.13183c-0.35762,0.26653 -0.75587,0.47791 -1.15915,0.66843c0,0 -0.3411,0.1601 -0.50119,-0.18099c-0.1601,-0.3411 0.18099,-0.50119 0.18099,-0.50119c0.35765,-0.16663 0.71228,-0.35062 1.02681,-0.58884l0.31164,-0.18248c0,0 0.32663,-0.18786 0.51449,0.13878c0.18786,0.32663 -0.13878,0.51449 -0.13878,0.51449z" fill="#a00000" fill-rule="nonzero" stroke="none" stroke-width="0.5" stroke-linecap="butt" stroke-linejoin="miter"/><path d="M351.99664,153.97301c0.01213,0.20776 -0.14646,0.386 -0.3542,0.39812c-0.20776,0.01213 -0.386,-0.14646 -0.39812,-0.3542c-0.01213,-0.20776 0.14646,-0.386 0.3542,-0.39812c0.20776,-0.01213 0.386,0.14646 0.39812,0.3542z" fill="#a00000" fill-rule="nonzero" stroke="none" stroke-width="0.5" stroke-linecap="butt" stroke-linejoin="miter"/><path d="M353.4702,153.81638c0.01213,0.20776 -0.14646,0.386 -0.3542,0.39812c-0.20776,0.01213 -0.386,-0.14646 -0.39812,-0.3542c-0.01213,-0.20776 0.14646,-0.386 0.3542,-0.39812c0.20776,-0.01213 0.386,0.14646 0.39812,0.3542z" fill="#a00000" fill-rule="nonzero" stroke="none" stroke-width="0.5" stroke-linecap="butt" stroke-linejoin="miter"/><path d="M346.86713,156.81422c0.01213,0.20776 -0.14646,0.386 -0.3542,0.39812c-0.20776,0.01213 -0.386,-0.14646 -0.39812,-0.3542c-0.01213,-0.20776 0.14646,-0.386 0.3542,-0.39812c0.20776,-0.01213 0.386,0.14646 0.39812,0.3542z" fill="#a00000" fill-rule="nonzero" stroke="none" stroke-width="0.5" stroke-linecap="butt" stroke-linejoin="miter"/><path d="M340.92145,161.39756c0.01213,0.20776 -0.14646,0.386 -0.3542,0.39812c-0.20776,0.01213 -0.386,-0.14646 -0.39812,-0.3542c-0.01213,-0.20776 0.14646,-0.386 0.3542,-0.39812c0.20776,-0.01213 0.386,0.14646 0.39812,0.3542z" fill="#a00000" fill-rule="nonzero" stroke="none" stroke-width="0.5" stroke-linecap="butt" stroke-linejoin="miter"/><path d="M341.84087,160.21422c0.01213,0.20776 -0.14646,0.386 -0.3542,0.39812c-0.20776,0.01213 -0.386,-0.14646 -0.39812,-0.3542c-0.01213,-0.20776 0.14646,-0.386 0.3542,-0.39812c0.20776,-0.01213 0.386,0.14646 0.39812,0.3542z" fill="#a00000" fill-rule="nonzero" stroke="none" stroke-width="0.5" stroke-linecap="butt" stroke-linejoin="miter"/><path d="M342.98367,159.22964c0.01213,0.20776 -0.14646,0.386 -0.3542,0.39812c-0.20776,0.01213 -0.386,-0.14646 -0.39812,-0.3542c-0.01213,-0.20776 0.14646,-0.386 0.3542,-0.39812c0.20776,-0.01213 0.386,0.14646 0.39812,0.3542z" fill="#a00000" fill-rule="nonzero" stroke="none" stroke-width="0.5" stroke-linecap="butt" stroke-linejoin="miter"/><path d="M316.00366,179.53598c-0.34732,0.02028 -0.66989,-0.10259 -0.91027,-0.31746c-0.24551,0.12574 -0.57039,0.17255 -0.98762,0.01554c-0.6655,-0.25043 -0.81246,-0.73585 -0.81472,-1.10992c-0.49379,-0.11116 -0.88343,-0.51496 -0.96416,-1.02925l-0.22874,-1.34085l0.18353,-0.03131l-0.18102,-0.40523c1.14841,-2.08491 3.66063,-5.92267 5.12927,-1.3748c0.05054,0.15647 0.08482,0.30901 0.10498,0.45809c0.25155,0.21434 0.41862,0.52699 0.43942,0.88297c0.03723,0.63777 -0.40819,1.19212 -1.01977,1.30733c-0.1026,0.18122 -0.21106,0.36094 -0.31932,0.54062c0.41809,0.18384 0.72065,0.58996 0.74911,1.07722c0.04042,0.69249 -0.48818,1.28664 -1.18069,1.32708z" fill="#ffffff" fill-rule="nonzero" stroke="none" stroke-width="0.5" stroke-linecap="butt" stroke-linejoin="miter"/><path d="M319.20205,173.679c0.03806,0.65185 -0.42808,1.21655 -1.0605,1.31431c0.05426,0.12852 0.08789,0.26833 0.09649,0.41553c0.03072,0.52623 -0.26713,0.99565 -0.71578,1.20846c-0.03812,0.26338 -0.15862,0.5021 -0.33582,0.68729c0.16833,0.19996 0.27591,0.45399 0.29231,0.73499c0.04042,0.69249 -0.48818,1.28664 -1.18069,1.32708c-0.69249,0.04042 -1.28664,-0.48818 -1.32708,-1.18069c-0.02117,-0.36272 0.11376,-0.69844 0.34659,-0.94177c-0.16833,-0.19996 -0.27591,-0.45399 -0.29231,-0.73499c-0.03072,-0.52623 0.26713,-0.99565 0.71578,-1.20846c0.07806,-0.53928 0.5014,-0.97508 1.04973,-1.05985c-0.05426,-0.12852 -0.08789,-0.26833 -0.09649,-0.41553c-0.04042,-0.69249 0.48818,-1.28664 1.18069,-1.32708c0.69249,-0.04042 1.28664,0.48818 1.32708,1.18069z" fill="#a00000" fill-rule="nonzero" stroke="none" stroke-width="0.5" stroke-linecap="butt" stroke-linejoin="miter"/></g></g></g></svg>