<svg version="1.1" xmlns="http://www.w3.org/2000/svg" xmlns:xlink="http://www.w3.org/1999/xlink" width="109.99801" height="99.84079" viewBox="0,0,109.99801,99.84079"><g transform="translate(-277.50199,-130.50077)"><g data-paper-data="{&quot;isPaintingLayer&quot;:true}" stroke-miterlimit="10" stroke-dasharray="" stroke-dashoffset="0" style="mix-blend-mode: normal"><g fill-rule="evenodd"><path d="M324.7,201.1c0.8,0.4 2.5,1.3 0.1,4.7c-2.4,3.4 -9.3,4.1 -10.1,4.1c-3.1,0.1 -6.9,0.1 -11.1,-1.3c-12.2,-4 -12.3,-17.1 -8.4,-19.2c3.8,-2.1 5.5,6 11,10.9c2.4,2.2 5.3,3 7.7,3.5c3.4,0.6 9.9,-3.2 10.8,-2.7z" fill="#ffab19" stroke="#001026" stroke-width="1.2" stroke-linecap="round" stroke-linejoin="round"/><path d="M299.90001,193c1.6,2.7 4.7,6.5 4.7,6.5c0,0 -3.7,-0.9 -5.8,0.8c-1.7,1.3 -1.3,3.5 -1.1,4.2c-1.3,-1.3 -2.9,-3.1 -3.9,-6.6c-1,-3.5 0,-7.7 2,-8.3c2,-0.4 2.5,1.1 4.1,3.4z" fill="#ffffff" stroke="none" stroke-width="1" stroke-linecap="butt" stroke-linejoin="miter"/></g><path d="M329.7,211.5c-1.8,1.2 -8,5.6 -15.9,8.1l-0.4,0.1c-0.4,0.1 -0.6,0.6 -0.4,1c1.7,2.4 4.8,7.2 -0.7,8.9c-5.3,1.7 -15.2,-12.4 -11,-16.1c1.9,-1.4 3.6,-0.7 4.5,-0.3c0.5,0.2 1,0.2 1.5,0.1c1.2,-0.4 3.4,-1.2 5.1,-2.1c4.3,-2.2 5.3,-3.1 7.3,-4.6c2,-1.5 6.6,-5.2 10.3,-2c3.2,2.7 1.4,5.7 -0.3,6.9z" fill="#ffab19" fill-rule="evenodd" stroke="#001026" stroke-width="1.2" stroke-linecap="round" stroke-linejoin="round"/><path d="M345.60001,190.7c0.5,0.4 6.6,7.6 8.6,5.8c2.4,-2.1 5.7,-6.2 9.3,-2.9c3.6,3.3 -3.2,8.9 -6.1,10.4c-6.9,3.1 -12.5,-2.8 -13.7,-4.4c-1.2,-1.6 -3.3,-4.3 -3.3,-6.9c0.1,-2.8 3.5,-3.5 5.2,-2z" fill="#ffab19" fill-rule="evenodd" stroke="#001026" stroke-width="1.2" stroke-linecap="round" stroke-linejoin="round"/><g fill-rule="evenodd"><path d="M345.70001,214c2.1,1.9 6.7,5.8 6.7,5.8c0,0 14.3,-2.5 14.3,4.7c0,4.3 -7.2,5.3 -16.9,4.4c-0.6,-0.1 -1.2,-0.3 -1.7,-0.7c-2.2,-1.9 -8.5,-7.5 -12.5,-11.4c-5.9,-5.8 -10.8,-9.6 -10.8,-9.6c-8.5,-8.3 -1.6,-11.8 1.1,-16.6c2.5,-4.1 3.6,-3.3 9.6,-2.1c3.4,0.5 5.4,0.8 7.6,0.7c3.3,-0.1 2.7,4.7 1.8,7.2c0,0 -1.4,3.7 -2.7,5.6c-1.6,2.3 -2.8,3.8 -4,4.7z" fill="#ffab19" stroke="#001026" stroke-width="1.2" stroke-linecap="round" stroke-linejoin="round"/><path d="M337.30001,206.6c0,0 -1.5,-1.2 -3.1,-2.7c-2,-1.8 -4,-3.3 -2,-6.4c1.8,-2.4 3.5,-5.6 8,-2.7c4.3,2.7 2.4,5.2 2.4,5.2c-2.2,4.5 -5.3,6.6 -5.3,6.6z" fill="#ffffff" stroke="none" stroke-width="1" stroke-linecap="butt" stroke-linejoin="miter"/></g><path d="M322.2,198.4c2.2,2.8 5.6,6.3 1.3,9.2c-5.9,3.3 -10.8,-6.7 -11.8,-10.2c-0.9,-3.1 1.7,-5.1 3.9,-6.8c4.3,-3.1 7.9,-5.9 11.9,-4.4c5,1.8 1.4,5.8 -1.1,7.6c-1.5,1.1 -3,2.3 -4.1,3c-0.3,0.5 -0.4,1.1 -0.1,1.6z" fill="#ffab19" fill-rule="evenodd" stroke="#001026" stroke-width="1.2" stroke-linecap="round" stroke-linejoin="round"/><path d="M353.70001,131c0.3,-0.2 0.8,-0.1 0.9,0.3l2.6,10.7c0,0 6.4,4.7 8.3,8c3.2,5.5 3.3,10 3.3,10c0,0 7.1,2.1 8.3,7.8c1.2,5.7 -3.2,16.5 -22,20.2c-18.8,3.7 -33.9,-1.4 -41,-12.8c-7.1,-11.4 4.1,-25 3.5,-24.2l-2.1,-17.9c-0.1,-0.4 0.4,-0.7 0.8,-0.5l12.1,7.9c0,0 4.5,-1.7 9.2,-1.9c2.8,-0.2 5.2,0 7.5,0.4z" fill="#ffab19" fill-rule="evenodd" stroke="#001026" stroke-width="1.2" stroke-linecap="butt" stroke-linejoin="miter"/><path d="M368.50001,160.4c0,0 6.9,1.8 8.1,7.5c1.2,5.7 -3.6,16 -22.2,19.6c-24.2,5 -35.7,-9.4 -29,-20c6.7,-10.7 18.2,-1.6 26.6,-2.2c7.2,-0.5 8,-6.8 16.5,-4.9z" fill="#ffffff" fill-rule="evenodd" stroke="none" stroke-width="1" stroke-linecap="butt" stroke-linejoin="miter"/><path d="M361.90374,182.79063c0,0.4155 -0.4155,0.72713 -0.83101,0.62326c-1.97365,-0.72713 -7.58296,-2.38915 -13.81553,-2.80466c-5.60931,-0.31163 -8.93335,0 -10.4915,0.31163c-0.51938,0.10388 -0.93489,-0.4155 -0.72713,-0.93489c0.93489,-2.80466 4.88218,-10.59537 15.78918,-9.97211c9.45273,1.03876 10.38762,7.68684 10.07599,12.77677z" data-paper-data="{&quot;index&quot;:null}" fill="#ffffff" fill-rule="evenodd" stroke="#001026" stroke-width="1.2" stroke-linecap="round" stroke-linejoin="round"/><path d="M386.90001,161.5c-4.7,3.8 -11.9,3.9 -11.9,3.9" fill="none" fill-rule="evenodd" stroke="#001026" stroke-width="1.2" stroke-linecap="round" stroke-linejoin="round"/><path d="M385.60001,172.7c-6.3,0.5 -10.2,-1.4 -10.2,-1.4" fill="none" fill-rule="evenodd" stroke="#001026" stroke-width="1.2" stroke-linecap="round" stroke-linejoin="round"/><path d="M351.60001,162.7c2.1,0 4.3,0.2 4.4,0.9c0.1,1.4 -1.4,4.2 -3,4.3c-1.8,0.2 -6,-2.3 -6,-3.9c-0.1,-1.2 2.6,-1.3 4.6,-1.3z" fill="#001026" fill-rule="evenodd" stroke="#001026" stroke-width="1.2" stroke-linecap="round" stroke-linejoin="round"/><path d="M306.60001,161.2c0,0 8.6,2.8 12.1,5.9" fill="none" fill-rule="evenodd" stroke="#001026" stroke-width="1.2" stroke-linecap="round" stroke-linejoin="round"/><path d="M319.00001,170.6c-4.3,1.7 -11.7,0.6 -11.7,0.6" fill="none" fill-rule="evenodd" stroke="#001026" stroke-width="1.2" stroke-linecap="round" stroke-linejoin="round"/><g fill-rule="evenodd"><path d="M363.40001,151c2.9,4.5 3,9.6 0.2,11.4c-2.8,1.8 -7.4,-0.3 -10.4,-4.8c-2.9,-4.5 -3,-9.6 -0.2,-11.4c2.8,-1.9 7.5,0.3 10.4,4.8z" fill="#ffffff" stroke="#001026" stroke-width="1.2" stroke-linecap="round" stroke-linejoin="round"/><path d="M363.00001,156.7c0,1.1 -0.8,2 -1.8,2c-1,0 -1.8,-0.9 -1.8,-2c0,-1.1 0.8,-2 1.8,-2c1,0 1.8,0.9 1.8,2" fill="#001026" stroke="none" stroke-width="1" stroke-linecap="butt" stroke-linejoin="miter"/></g><g fill-rule="evenodd"><path d="M338.60001,153.8c3,4.4 2.8,9.8 0.1,11.7c-3.3,1.9 -7.7,0.5 -10.7,-3.9c-3.1,-4.4 -3.3,-10.1 -0.2,-12.3c3.1,-2.3 7.8,0.1 10.8,4.5z" fill="#ffffff" stroke="#001026" stroke-width="1.2" stroke-linecap="round" stroke-linejoin="round"/><path d="M338.00001,159.6c0,1.1 -0.8,2 -1.8,2c-1,0 -1.8,-0.9 -1.8,-2c0,-1.1 0.8,-2 1.8,-2c1,0.1 1.8,0.9 1.8,2" fill="#001026" stroke="none" stroke-width="1" stroke-linecap="butt" stroke-linejoin="miter"/></g><path d="M360.62364,183.00885c-0.75,0 -0.75,-0.75 -0.75,-0.75l0.03849,-0.00509c-0.64344,-1.99635 -2.82076,-3.5808 -4.97683,-4.12706c-0.05265,1.16533 -0.18238,2.33602 -0.59684,3.5255l0.00968,0.8489c0,0 0,0.75 -0.75,0.75c-0.75,0 -0.75,-0.75 -0.75,-0.75l0.00968,-1.08917c0.37893,-1.17849 0.513,-2.33725 0.57799,-3.49024c-0.02671,-0.00029 -0.05336,-0.00038 -0.07993,-0.00028c-2.39063,0 -4.79517,0.08383 -7.14564,-0.25194c-0.62518,-0.08931 -1.30348,-0.26778 -1.99074,-0.40241c-0.19938,0.71356 -0.31721,1.41377 -0.28848,2.08468v0.24226c0,0 0,0.75 -0.75,0.75c-0.75,0 -0.75,-0.75 -0.75,-0.75v-0.24226c0.02051,-0.75623 0.16294,-1.50795 0.3728,-2.25696c-0.30709,-0.0052 -0.6098,0.01729 -0.90404,0.0798c-1.84378,0.39168 -2.83076,2.52099 -4.53806,3.13094c0,0 -0.71151,0.23717 -0.94868,-0.47434c-0.23717,-0.71151 0.47434,-0.94868 0.47434,-0.94868c1.74567,-0.51708 2.70228,-2.71743 4.66777,-3.16779c0.56453,-0.12935 1.14605,-0.13649 1.72995,-0.08176c0.54737,-1.48738 1.2215,-2.96856 1.5909,-4.45764c0,0 0.1819,-0.72761 0.90951,-0.54571c0.72761,0.1819 0.54571,0.90951 0.54571,0.90951c-0.34278,1.36162 -1.06909,2.84473 -1.63425,4.31575c0.60011,0.11967 1.19007,0.25349 1.75355,0.33399c2.2683,0.32405 4.59608,0.23257 6.90537,0.23257c0.04653,0.00016 0.09315,0.00079 0.13986,0.00188c0.05847,-1.76412 0.13381,-3.5289 0.85959,-5.34463c0,0 0.27854,-0.69636 0.9749,-0.41781c0.69636,0.27854 0.41781,0.9749 0.41781,0.9749c-0.67338,1.68222 -0.73545,3.32556 -0.77062,4.96789c2.75259,0.59476 5.47385,2.5904 6.35773,5.17578l0.03849,0.47943c0,0 0,0.75 -0.75,0.75z" fill="#000000" fill-rule="nonzero" stroke="none" stroke-width="0.5" stroke-linecap="butt" stroke-linejoin="miter"/><path d="M282.10859,171.35721c0,-0.75 0.75,-0.75 0.75,-0.75l0.29349,0.02473c5.69596,-1.49404 11.9182,-0.38782 17.29824,-3.09492c0,0 0.67082,-0.33541 1.00623,0.33541c0.33541,0.67082 -0.33541,1.00623 -0.33541,1.00623c-5.53795,2.75307 -11.75904,1.66197 -17.58701,3.20381l-0.67554,0.02473c0,0 -0.75,0 -0.75,-0.75z" fill="#000000" fill-rule="nonzero" stroke="none" stroke-width="0.5" stroke-linecap="butt" stroke-linejoin="miter"/><path d="M278.20986,186.42306c-0.53033,-0.53033 0,-1.06066 0,-1.06066l0.34694,-0.32944c2.21698,-1.52816 4.70344,-3.03384 7.1442,-4.1852c3.56691,-1.68258 7.76878,-1.83889 11.00085,-4.27635c0,0 0.6,-0.45 1.05,0.15c0.45,0.6 -0.15,1.05 -0.15,1.05c-3.36861,2.51401 -7.59941,2.69252 -11.28695,4.44497c-2.35958,1.12136 -4.75893,2.57107 -6.9068,4.0516l-0.13758,0.15508c0,0 -0.53033,0.53033 -1.06066,0z" fill="#000000" fill-rule="nonzero" stroke="none" stroke-width="0.5" stroke-linecap="butt" stroke-linejoin="miter"/><path d="M277.51588,156.21387c0.1233,-0.7398 0.86309,-0.6165 0.86309,-0.6165l1.42651,0.23826c6.35372,0.58496 12.06414,1.77857 18.26401,3.41011c0,0 0.72531,0.19087 0.53444,0.91618c-0.19087,0.72531 -0.91618,0.53444 -0.91618,0.53444c-6.14499,-1.6171 -11.78142,-2.78812 -18.0748,-3.37313l-1.48059,-0.24626c0,0 -0.7398,-0.1233 -0.6165,-0.86309z" fill="#000000" fill-rule="nonzero" stroke="none" stroke-width="0.5" stroke-linecap="butt" stroke-linejoin="miter"/><text transform="translate(336.6108,146.9924) scale(0.22662,0.22662)" font-size="40" xml:space="preserve" fill="#000000" fill-rule="nonzero" stroke="none" stroke-width="1" stroke-linecap="butt" stroke-linejoin="miter" stroke-miterlimit="10" stroke-dasharray="" stroke-dashoffset="0" font-family="Sans Serif" font-weight="normal" text-anchor="start" style="mix-blend-mode: normal"><tspan x="0" dy="0">#</tspan></text><text transform="translate(333.64242,201.35209) scale(0.22662,0.22662)" font-size="40" xml:space="preserve" fill="#000000" fill-rule="nonzero" stroke="none" stroke-width="1" stroke-linecap="butt" stroke-linejoin="miter" stroke-miterlimit="10" stroke-dasharray="" stroke-dashoffset="0" font-family="Sans Serif" font-weight="normal" text-anchor="start" style="mix-blend-mode: normal"><tspan x="0" dy="0">#</tspan></text><text transform="translate(295.03767,198.8264) scale(0.22662,0.22662)" font-size="40" xml:space="preserve" fill="#000000" fill-rule="nonzero" stroke="none" stroke-width="1" stroke-linecap="butt" stroke-linejoin="miter" stroke-miterlimit="10" stroke-dasharray="" stroke-dashoffset="0" font-family="Sans Serif" font-weight="normal" text-anchor="start" style="mix-blend-mode: normal"><tspan x="0" dy="0">#</tspan></text></g></g></svg>