<svg version="1.1" xmlns="http://www.w3.org/2000/svg" xmlns:xlink="http://www.w3.org/1999/xlink" width="122.01624" height="190.71152" viewBox="0,0,122.01624,190.71152"><g transform="translate(-279.06599,-84.66313)"><g data-paper-data="{&quot;isPaintingLayer&quot;:true}" fill-opacity="0.55686" fill="#330f0f" fill-rule="nonzero" stroke="#ffffff" stroke-width="2" stroke-linecap="butt" stroke-linejoin="miter" stroke-miterlimit="10" stroke-dasharray="" stroke-dashoffset="0" style="mix-blend-mode: normal"><path d="M337.18391,273.32372l-2.49389,-18.0643l2.18473,-58.03009c0,0 -5.87057,5.92611 -9.37541,-0.88746c-1.3886,-2.69951 2.00179,-14.72422 -0.51466,-20.24653c-1.26937,-2.7856 -9.24164,2.38105 -10.78502,-0.80891c-2.84231,-5.87468 1.20282,-15.30699 -1.8944,-22.37542c-1.62515,-3.7089 -27.90432,-0.93714 -29.68703,-4.72052c-7.12089,-15.11242 -3.69733,-21.57724 -3.93407,-34.72701c-0.11715,-6.50737 33.29967,0.18381 32.34215,-6.37556c-1.01788,-6.97285 11.60759,-12.81655 11.60759,-12.81655c0,0 7.7543,-12.92415 17.93869,-7.10042c3.13651,1.79355 12.72727,3.43008 18.07596,9.46641c4.54343,5.12754 4.81052,13.85781 8.32677,13.56446c5.06533,-0.42259 13.00304,1.6515 17.0908,-0.63978c3.86062,-2.16397 13.86789,15.26591 13.86789,15.26591c0,0 -7.05678,12.72342 -7.02275,22.99915c0.00762,2.30086 -27.21221,0.352 -27.10379,3.84372c1.14625,36.91468 -2.43221,122.66605 -2.43221,122.66605z"/></g></g></svg>