<svg version="1.1" xmlns="http://www.w3.org/2000/svg" xmlns:xlink="http://www.w3.org/1999/xlink" width="980.48048" height="630.63063" viewBox="0,0,980.48048,630.63063"><g transform="translate(145.24024,130.31531)"><g data-paper-data="{&quot;isPaintingLayer&quot;:true}" stroke-miterlimit="10" stroke-dasharray="" stroke-dashoffset="0" style="mix-blend-mode: normal"><path d="M-145.24024,500.31533v-630.63063h980.48048v630.63063z" fill="#000000" fill-rule="nonzero" stroke="#ff3838" stroke-width="0" stroke-linecap="butt" stroke-linejoin="miter"/><text transform="translate(304.71471,259.28904) scale(0.5,0.5)" font-size="40" xml:space="preserve" fill="#ffffff" fill-rule="nonzero" stroke="none" stroke-width="1" stroke-linecap="butt" stroke-linejoin="miter" stroke-miterlimit="10" stroke-dasharray="" stroke-dashoffset="0" font-family="Marker" font-weight="normal" text-anchor="start" style="mix-blend-mode: normal"><tspan x="0" dy="0">Loading</tspan></text><g><path d="M345.65752,189.38174c0.36833,-0.36316 4.02605,0.60129 5.59101,-0.14676c1.09439,-0.56506 2.39043,-1.34262 3.256,-2.73054c2.00267,-3.11208 2.28,-2.1456 4.402,-1.6406c2.1704,0.49154 3.34052,1.7299 -2.02634,5.30814c-1.84452,1.24296 -3.68385,1.75443 -5.19783,2.12329c-0.38723,0.10767 -3.82131,0.69757 -5.44062,-0.62512c-1.61933,-1.32269 -0.9176,-1.98714 -0.58421,-2.28844z" fill="#000000" fill-rule="evenodd" stroke="#001026" stroke-width="1.2" stroke-linecap="round" stroke-linejoin="round"/><path d="M344.25218,195.52158c-0.98438,-0.35202 -2.25944,-1.56186 -1.07394,-3.29947c1.36023,-2.04693 4.0848,-0.87515 5.25477,-0.41829c1.16998,0.45686 1.77515,0.75789 4.15262,1.244c0.94401,0.20681 2.11656,0.29793 2.75125,0.33002c0.25548,-0.01889 0.4975,-0.08619 0.7126,-0.2503c0.3818,-0.31475 -4.66174,-0.28794 -3.55363,0.13397c1.15262,0.55816 1.46189,-0.58962 0.59651,1.19555c-0.09941,0.20508 0.2312,-0.32834 0.14992,-0.10094c-0.76484,2.1397 0.83156,1.23476 -0.54396,1.18086c-2.89102,-0.08257 -3.10385,1.51612 -2.60402,0.12561c0.04297,-0.22054 -0.25157,-0.90468 -0.45864,-0.89924l1.38318,2.08982c-0.60558,-0.02136 0.82065,0.38193 0.24525,0.31839c-0.63868,-0.07053 -2.23884,-0.52109 -2.82435,-0.6267c-2.511,-0.4529 -3.47195,-0.78871 -4.18755,-1.02331z" fill="#000000" fill-rule="evenodd" stroke="#001026" stroke-width="1.2" stroke-linecap="round" stroke-linejoin="round"/><path d="M334.1602,187.22876c0.62097,-0.95487 2.36091,-1.07368 2.78619,0.26816c0.34995,1.25849 -0.30311,2.84805 -0.66859,3.78403c-0.36548,0.93598 -2.28196,4.54555 -6.03907,3.97376c-1.6056,-0.33573 -5.65081,-2.13107 -4.35245,-4.21293c1.29836,-2.08188 3.44754,-0.54149 4.89188,0.15194c1.21035,0.60206 3.19387,-3.70405 3.38205,-3.96496z" fill="#000000" fill-rule="evenodd" stroke="#001026" stroke-width="1.2" stroke-linecap="round" stroke-linejoin="round"/><g fill-rule="evenodd"><path d="M340.01434,193.94433c-0.70198,-0.27412 -1.48473,-0.83866 -2.56876,-1.73658c-0.88498,-0.7447 -2.06064,-2.34719 -2.06064,-2.34719c-0.77212,-1.08895 -1.70862,-3.33157 -0.09784,-3.72734c1.07834,-0.24772 2.00604,-0.66212 3.58446,-1.36176c2.7427,-1.38843 3.16746,-1.92372 4.92941,-0.27567c1.95297,1.95996 5.76392,2.72536 2.76676,7.88695c0,0 -1.86031,2.49888 -3.93546,6.10041c-1.41123,2.42614 -3.70691,5.98471 -4.51605,7.2005c-0.18818,0.26091 -0.45168,0.43847 -0.72864,0.56764c-4.57402,1.74123 -8.19369,2.2263 -8.77246,0.14494c-0.96911,-3.48507 6.28912,-4.19973 6.28912,-4.19973c0,0 1.70164,-2.5069 2.46238,-3.70922z" fill="#000000" stroke="#001026" stroke-width="1.2" stroke-linecap="round" stroke-linejoin="round"/><path d="M336.98279,191.29349c0,0 -1.25617,-0.95436 0.46177,-2.84003c1.78783,-2.0094 3.04141,-0.6893 4.23571,0.23011c1.38533,1.23132 0.61915,2.22657 -0.10664,3.36704c-0.57256,0.94141 -1.1371,1.72415 -1.1371,1.72415c0,0 -1.78317,-0.59922 -3.45374,-2.48127z" fill="#a00000" stroke="none" stroke-width="1" stroke-linecap="butt" stroke-linejoin="miter"/></g><g fill-rule="evenodd"><path d="M327.44351,162.13673c1.05944,-0.50319 2.19421,-0.92304 3.57644,-1.2031c2.30189,-0.5358 4.70888,-0.31863 4.70888,-0.31863l4.79352,-5.45253c0.16669,-0.15064 0.44909,-0.07273 0.45453,0.13434l1.39283,8.94692c-0.3981,-0.30646 6.85365,4.76894 4.9514,11.2426c-1.90224,6.47367 -8.52477,10.97468 -18.12267,11.71419c-9.59791,0.73951 -13.18133,-3.89586 -13.3677,-6.81639c-0.18636,-2.92053 2.96764,-4.89265 2.96764,-4.89265c0,0 -0.55729,-2.19163 0.25134,-5.28454c0.4755,-1.85306 2.94073,-4.98946 2.94073,-4.98946l-0.1817,-5.52915c-0.00543,-0.20707 0.22313,-0.32278 0.39526,-0.26635z" fill="#000000" stroke="#001026" stroke-width="1.2" stroke-linecap="butt" stroke-linejoin="miter"/><path d="M318.99743,175.64472c3.85857,-2.06375 5.09378,0.878 8.64614,0.15091c4.14667,-0.8402 8.48825,-6.79282 13.17151,-2.51542c4.66979,4.22899 1.04158,12.747 -11.34511,13.58408c-9.48764,0.76099 -13.19738,-3.57851 -13.38374,-6.49904c-0.18636,-2.92052 2.91122,-4.72052 2.91122,-4.72052z" fill="#000000" stroke="none" stroke-width="1" stroke-linecap="butt" stroke-linejoin="miter"/><path d="M335.6848,176.58408c0.80474,2.3314 1.23053,5.55038 -3.0396,7.25925c-5.00162,1.70369 -7.85045,-1.41511 -8.64951,-2.60087c-0.16411,-0.2151 -0.03779,-0.51096 0.21769,-0.52985c0.76643,-0.05668 2.35573,-0.34219 4.92915,-1.21423c2.85038,-1.0012 5.24883,-2.50249 6.07428,-3.09705c0.18015,-0.10224 0.41415,-0.01086 0.46798,0.18275z" fill="#000000" stroke="#001026" stroke-width="1.2" stroke-linecap="round" stroke-linejoin="round"/><path d="M316.52419,178.9398c0,0 -3.49853,0.9207 -6.28498,-0.28603" fill="none" stroke="#001026" stroke-width="1.2" stroke-linecap="round" stroke-linejoin="round"/><path d="M317.1247,181.84945c0,0 -1.632,1.4446 -4.74874,2.05055" fill="none" stroke="#001026" stroke-width="1.2" stroke-linecap="round" stroke-linejoin="round"/><path d="M329.88878,174.4934c0.21536,0.77446 -1.48111,2.54986 -2.3793,2.69533c-0.78792,0.16695 -1.89084,-0.98646 -2.03088,-1.67757c-0.04581,-0.35229 0.99215,-0.74521 2.00863,-1.02787c0.96808,-0.26919 2.28843,-0.5842 2.40154,0.0101z" fill="#001026" stroke="#000000" stroke-width="1.2" stroke-linecap="round" stroke-linejoin="round"/><path d="M344.00429,172.18479c1.27687,-1.9716 5.06271,-4.48445 5.06271,-4.48445" fill="none" stroke="#001026" stroke-width="1.2" stroke-linecap="round" stroke-linejoin="round"/><path d="M350.07416,172.63492c0,0 -3.43381,1.52846 -5.74399,1.28438" fill="none" stroke="#001026" stroke-width="1.2" stroke-linecap="round" stroke-linejoin="round"/><g fill="#a00000"><path d="M324.58872,166.68513c1.59758,0.49439 2.23562,2.97644 1.4376,5.54494c-0.84642,2.58196 -2.79033,4.21759 -4.38791,3.7232c-1.59758,-0.49439 -2.23562,-2.97644 -1.4376,-5.54494c0.79802,-2.56851 2.77687,-4.266 4.38791,-3.7232z" stroke="#001026" stroke-width="1.2" stroke-linecap="round" stroke-linejoin="round"/><path d="M321.16162,173.1135c-0.14806,-0.53243 0.11804,-1.07575 0.60207,-1.21035c0.48405,-0.1346 0.99241,0.19336 1.14047,0.7258c0.14806,0.53243 -0.11804,1.07575 -0.60207,1.21035c-0.48405,0.1346 -0.99241,-0.19336 -1.14047,-0.7258" stroke="none" stroke-width="1" stroke-linecap="butt" stroke-linejoin="miter"/></g><g><path d="M332.5818,168.4256c0.85987,-2.53357 2.81181,-4.32786 4.6219,-3.63183c1.79663,0.64763 2.46703,3.43355 1.55874,5.98057c-0.85987,2.53357 -2.80121,3.80344 -4.65426,3.32795c-1.56264,-0.55626 -2.38628,-3.14313 -1.5264,-5.67669z" fill="#ffffff" stroke="#001026" stroke-width="1.2" stroke-linecap="round" stroke-linejoin="round"/><path d="M333.65289,171.15225c-0.14806,-0.53243 0.1315,-1.02735 0.60207,-1.21035c0.48405,-0.1346 0.99241,0.19336 1.14047,0.7258c0.14806,0.53243 -0.11804,1.07575 -0.60207,1.21035c-0.48405,0.1346 -0.99241,-0.19336 -1.14047,-0.7258" fill="#001026" stroke="none" stroke-width="1" stroke-linecap="butt" stroke-linejoin="miter"/></g></g><path d="M333.4534,172.7422c0,0 -0.11317,0.10228 -0.27837,0.15025c0.03517,0.17542 0.1,0.37052 0.21878,0.61917c0.21322,0.75873 0.42434,1.51801 0.63548,2.27732l0.23555,0.43832c0,0 0.28364,0.56029 -0.27666,0.84394c-0.5603,0.28364 -0.84394,-0.27666 -0.84394,-0.27666l-0.32505,-0.6691c-0.20189,-0.72603 -0.404,-1.45198 -0.60361,-2.17865c-0.66288,-1.45195 -0.70397,-3.64302 -0.63962,-5.10308c0.05198,-1.17934 1.10102,-1.94348 1.12622,-3.21876c0.00932,-0.47202 -0.45686,-0.85323 -0.50636,-1.32274c-0.02536,-0.24061 0.21885,-0.46129 0.18756,-0.70121c-0.16542,-1.2682 -0.52428,-1.37922 0.01621,-2.67297c0,0 0.24659,-0.57756 0.82416,-0.33097c0.57756,0.24659 0.33097,0.82416 0.33097,0.82416c-0.68099,1.55239 0.3728,2.67345 0.40347,4.20247c0.02104,1.04858 -0.4806,2.04116 -1.01868,2.84412c-0.02139,0.03194 -0.03931,0.06207 -0.05409,0.09067c0.1325,0.02311 0.22689,0.07643 0.22689,0.07643c0.19983,0.11287 0.39965,0.22575 0.59947,0.33862l0.3288,0.49581c0,0 0.16825,0.60504 -0.4368,0.7733c-0.40445,0.11247 -0.61372,-0.12062 -0.70803,-0.28753c-0.00605,-0.00342 -0.01211,-0.00683 -0.01815,-0.01026c-0.07091,0.11519 -0.1432,0.23019 -0.15737,0.36006c-0.03922,0.35994 0.20109,0.68898 0.32462,1.03634c0.13518,-0.13685 0.30772,-0.18483 0.30772,-0.18483l0.70657,1.03837c-0.20192,0.18248 -0.40384,0.36496 -0.60575,0.54743z" fill="#a00000" fill-rule="nonzero" stroke="none" stroke-width="0.5" stroke-linecap="butt" stroke-linejoin="miter"/><path d="M331.97531,178.00993c-0.5603,0.28364 -0.84394,-0.27666 -0.84394,-0.27666l-0.24079,-0.48639c-0.15201,-0.22672 -0.30402,-0.45345 -0.45603,-0.68017c-0.29926,-0.64571 -0.99071,-1.35224 -1.0952,-2.06319c-0.09063,-0.61661 0.17433,-1.46677 0.20584,-2.09727c0.08736,-1.7481 0.12492,-3.73226 -0.02644,-5.46632c-0.13441,-1.53994 -1.10787,-3.48752 -1.5311,-5.00948c0,0 -0.16825,-0.60504 0.4368,-0.7733c0.60504,-0.16825 0.7733,0.4368 0.7733,0.4368c0.45151,1.62373 1.4168,3.59286 1.5729,5.24438c0.16872,1.78509 0.12049,3.84129 0.02873,5.63533c-0.00297,0.05804 -0.23516,1.69463 -0.22308,1.81188c0.04997,0.48531 0.74377,1.21994 0.95154,1.66287c0.13477,0.19885 0.26954,0.3977 0.40432,0.59654l0.3198,0.62101c0,0 0.28364,0.56029 -0.27666,0.84394z" fill="#a00000" fill-rule="nonzero" stroke="none" stroke-width="0.5" stroke-linecap="butt" stroke-linejoin="miter"/><path d="M323.24154,187.33473c-0.54681,-0.30887 -0.23794,-0.85567 -0.23794,-0.85567l0.27044,-0.41787c-0.32134,-2.14403 -0.64521,-4.35162 -0.86453,-6.51386c-0.17244,-1.70001 -1.56494,-3.04679 0.05327,-4.43183c0,0 0.49929,-0.38092 0.88021,0.11836c0.38092,0.49928 -0.11837,0.88021 -0.11837,0.88021c-0.76345,0.4452 0.02348,1.77666 0.21848,2.49228c0.66222,2.43033 0.87063,5.19872 1.06089,7.70936l-0.40679,0.78109c0,0 -0.30886,0.54679 -0.85567,0.23794z" fill="#a00000" fill-rule="nonzero" stroke="none" stroke-width="0.5" stroke-linecap="butt" stroke-linejoin="miter"/><path d="M321.6468,187.21112c-0.60504,0.16825 -0.7733,-0.4368 -0.7733,-0.4368l-0.14986,-0.5708c-0.24342,-2.28623 -0.79866,-4.46767 -0.85882,-6.77048c-0.03753,-1.43633 0.46684,-2.91388 0.30199,-4.318c0,0 -0.06649,-0.62447 0.55798,-0.69097c0.62447,-0.06649 0.69097,0.55798 0.69097,0.55798c0.14469,1.47617 -0.33437,2.94561 -0.29499,4.4384c0.05963,2.26067 0.61252,4.4026 0.85182,6.65009l0.111,0.36729c0,0 0.16825,0.60504 -0.4368,0.7733z" fill="#a00000" fill-rule="nonzero" stroke="none" stroke-width="0.5" stroke-linecap="butt" stroke-linejoin="miter"/><path d="M336.48412,167.9152c-0.56519,0.27377 -0.83896,-0.29142 -0.83896,-0.29142l-0.04567,-0.09429c-0.69482,-1.85024 -0.6256,-1.92456 1.06155,-2.71638c0,0 0.56915,-0.26543 0.83458,0.30373c0.26543,0.56915 -0.30373,0.83458 -0.30373,0.83458c-0.3102,0.14362 -1.04288,0.00379 -0.96841,0.33741c0.06234,0.27925 0.33759,0.46208 0.50638,0.69312l0.04567,0.09429c0,0 0.27377,0.56519 -0.29142,0.83896z" fill="#a00000" fill-rule="nonzero" stroke="none" stroke-width="0.5" stroke-linecap="butt" stroke-linejoin="miter"/><path d="M336.43991,170.06543c-0.16825,-0.60504 0.4368,-0.7733 0.4368,-0.7733l0.11727,-0.03261c0.46906,-0.13043 0.93811,-0.26086 1.40716,-0.39129c0,0 0.60504,-0.16825 0.7733,0.4368c0.16825,0.60504 -0.4368,0.7733 -0.4368,0.7733c-0.46905,0.13043 -1.05536,0.29347 -1.5244,0.4239c0,0 -0.60504,0.16825 -0.7733,-0.4368z" fill="#a00000" fill-rule="nonzero" stroke="none" stroke-width="0.5" stroke-linecap="butt" stroke-linejoin="miter"/><path d="M335.17631,172.10348c0.30887,-0.5468 0.85567,-0.23794 0.85567,-0.23794l0.46821,0.66317c-0.01297,0.25626 -0.02591,0.51253 -0.03888,0.76878c0,0 -0.03172,0.6272 -0.65893,0.59548c-0.6272,-0.03171 -0.59548,-0.65892 -0.59548,-0.65892c0.0073,-0.14437 0.0146,-0.28874 0.0219,-0.4331c-0.12292,-0.14323 -0.23164,-0.38033 -0.05249,-0.69749z" fill="#a00000" fill-rule="nonzero" stroke="none" stroke-width="0.5" stroke-linecap="butt" stroke-linejoin="miter"/><path d="M356.67073,193.63806c-0.38309,0.49762 -0.88071,0.11454 -0.88071,0.11454l-0.03264,-0.24438c-0.37336,0.03858 -0.73306,0.10827 -1.09225,0.17996c-0.07351,0.09025 -0.14771,0.14025 -0.14771,0.14025c-0.19455,0.12959 -0.37287,0.28768 -0.58363,0.38876c-0.08026,0.03851 -0.29789,-0.06429 -0.26638,0.01896c0.0938,0.24774 0.62006,0.37415 0.50566,0.61308c-0.20949,0.43754 -0.76993,0.59729 -1.19613,0.82899c-0.23939,0.13014 -0.93449,-0.15859 -0.81299,0.0853c0.09743,0.19555 0.48416,0.32051 0.39756,0.5211c-0.36616,0.84828 -1.70565,1.55499 -2.4076,0.36603c-0.2047,-0.34672 0.24784,-0.76617 0.37177,-1.14926l0.49582,-0.3288c0,0 0.11748,-0.03266 0.26328,-0.01745c0.11812,-0.14207 0.28187,-0.28961 0.49821,-0.4352c0.2225,-0.14973 0.50506,-0.20476 0.77249,-0.22493c0.13447,-0.01014 0.45268,0.25178 0.38032,0.13798c-0.11411,-0.17944 -0.55259,-0.15318 -0.52398,-0.36389c0.03964,-0.29194 0.19727,-0.53553 0.40449,-0.74514c-0.02053,-0.05458 -0.03548,-0.11712 -0.04311,-0.18873c-0.06649,-0.62447 0.55798,-0.69097 0.55798,-0.69097c0.78407,-0.08101 1.50798,-0.29926 2.2932,-0.38502l0.9318,0.49807c0,0 0.49762,0.38309 0.11454,0.88071z" fill="#a00000" fill-rule="nonzero" stroke="none" stroke-width="0.5" stroke-linecap="butt" stroke-linejoin="miter"/><path d="M356.70798,197.60966c-0.30887,0.5468 -0.85567,0.23794 -0.85567,0.23794l-0.57301,-0.3452c-0.17161,-0.16283 -0.34322,-0.32566 -0.51483,-0.48849c0,0 -0.45557,-0.43226 -0.02331,-0.88783c0.43226,-0.45557 0.88783,-0.02331 0.88783,-0.02331c0.17161,0.16284 0.34322,0.32567 0.51483,0.48849l0.32621,0.16273c0,0 0.5468,0.30887 0.23794,0.85567z" fill="#a00000" fill-rule="nonzero" stroke="none" stroke-width="0.5" stroke-linecap="butt" stroke-linejoin="miter"/><path d="M355.48857,200.37424l-0.31291,-0.67097c0,0 -0.26543,-0.56915 0.30373,-0.83458c0.56915,-0.26543 0.83458,0.30373 0.83458,0.30373l0.31291,0.67097c0,0 0.26543,0.56915 -0.30373,0.83458c-0.56915,0.26543 -0.83458,-0.30373 -0.83458,-0.30373z" fill="#a00000" fill-rule="nonzero" stroke="none" stroke-width="0.5" stroke-linecap="butt" stroke-linejoin="miter"/><path d="M361.64429,197.20455c-0.1201,0.61641 -0.73651,0.49632 -0.73651,0.49632l-0.5793,-0.2129c-0.17161,-0.16284 -0.34322,-0.32567 -0.51483,-0.48849c0,0 -0.13825,-0.13119 -0.19017,-0.32518c-0.23127,-0.04037 -0.43036,-0.20938 -0.49745,-0.45062c-0.09292,-0.33416 0.10264,-0.68038 0.4368,-0.7733c0.33416,-0.09292 0.68038,0.10264 0.7733,0.4368c0.00262,0.00942 0.005,0.01886 0.00717,0.0283c0.19654,0.04163 0.33487,0.17289 0.33487,0.17289c0.17161,0.16284 0.34322,0.32567 0.51483,0.48849l-0.04502,-0.1088c0,0 0.6164,0.12011 0.49632,0.73651z" fill="#a00000" fill-rule="nonzero" stroke="none" stroke-width="0.5" stroke-linecap="butt" stroke-linejoin="miter"/><path d="M351.62334,195.36c-0.5468,-0.30887 -0.23794,-0.85567 -0.23794,-0.85567l0.25054,-0.34029c0.00798,-0.0061 0.01597,-0.01218 0.02396,-0.01828c-0.11478,-0.13925 -0.30047,-0.45706 0.00488,-0.8112c0.4101,-0.47561 0.88572,-0.06551 0.88572,-0.06551l0.23112,0.21538c0.40255,0.23066 0.7612,0.36273 0.92198,0.59668c0.0984,0.00498 0.1931,0.03319 0.27697,0.08056l0.59948,0.33862v0c0.13994,0.07905 0.24972,0.21147 0.29619,0.37856c0.06588,0.23693 -0.01328,0.47993 -0.18402,0.6344l0.26896,0.33525c0.05604,0.06669 0.09903,0.14616 0.12389,0.23556c0.09292,0.33416 -0.10264,0.68038 -0.4368,0.7733c-0.10162,0.02826 -0.20435,0.02983 -0.30074,0.00894l-0.789,-0.15372l0.00142,-0.00726l-0.02498,0.0022c-0.50217,-0.14137 -0.99301,-0.33813 -1.44881,-0.59191c0,0 -0.43598,-0.24626 -0.30944,-0.6883c-0.04879,-0.01515 -0.09993,-0.03715 -0.15333,-0.06732zM352.65933,195.00055c-0.00707,-0.00707 -0.01415,-0.01415 -0.02123,-0.02124c-0.00357,0.00273 -0.00714,0.00543 -0.01071,0.00816c0.01187,0.00456 0.02257,0.00899 0.03193,0.01307z" fill="#ffffff" fill-rule="nonzero" stroke="none" stroke-width="0.5" stroke-linecap="butt" stroke-linejoin="miter"/><path d="M334.08399,177.02491c0.22843,-0.58499 0.81341,-0.35656 0.81341,-0.35656l0.20529,0.46763c0.03069,-0.19026 0.06759,-0.36564 0.10091,-0.493c0,0 0.16701,-0.60538 0.7724,-0.43837c0.60539,0.16702 0.43837,0.7724 0.43837,0.7724c-0.37448,1.26508 0.40209,3.14486 -1.76007,2.07117c-0.20626,-0.10243 -0.33619,-0.31405 -0.50125,-0.47542l-0.54854,-0.30985l0.1242,-0.21988l-0.41307,-0.51954c0.21371,-0.06624 0.42843,-0.13234 0.64122,-0.20367l0.02502,-0.22798l0.07654,0.0084c0.00704,-0.02443 0.01554,-0.04954 0.02561,-0.07536z" fill="#8da900" fill-rule="nonzero" stroke="none" stroke-width="0.5" stroke-linecap="butt" stroke-linejoin="miter"/><path d="M326.59169,180.30176c0,0 0.30614,-0.54197 0.84841,-0.24198c0.05824,-0.20287 0.21736,-0.37162 0.43562,-0.43231c0.16707,-0.04645 0.33717,-0.02079 0.47711,0.05825v0l0.30274,0.171c0.14681,-0.02471 0.28698,-0.06977 0.41512,-0.14499l0.39391,-0.4332c0,0 0.36354,-0.38314 0.77519,-0.11331c0.12754,-0.11537 0.37723,-0.26914 0.69047,-0.10093c0.30405,-0.35308 0.73691,-0.80224 0.86642,-0.93957l0.40458,-0.20539c0,0 0.16381,-0.04555 0.34466,-0.00401c-0.00132,-0.06394 0.00017,-0.12726 0.00698,-0.18934c0,0 0.0685,-0.62426 0.69275,-0.55576c0.62426,0.06849 0.55576,0.69275 0.55576,0.69275c-0.01079,0.09829 -0.03589,0.34524 -0.06712,0.61416c0.12098,0.08057 0.21473,0.20329 0.25672,0.35432c0.03508,0.12615 0.02905,0.25401 -0.01003,0.36931c0.07614,0.22937 -0.02878,0.43566 -0.10091,0.54126c0.00356,0.00133 0.00712,0.00267 0.01068,0.00407c0.27659,-0.00183 0.53116,0.18064 0.60882,0.45991c0.09292,0.33416 -0.10264,0.68038 -0.4368,0.7733c-0.1446,0.04021 -0.29148,0.0264 -0.4191,-0.02929c-0.13036,0.00762 -0.26232,0.00744 -0.39436,-0.00056c-0.02286,0.00858 -0.04703,0.01647 -0.07259,0.02358c-0.28361,0.07886 -0.47124,-0.01217 -0.59057,-0.13116c-0.21013,-0.05657 -0.41349,-0.13426 -0.60329,-0.2331l-0.07837,0.01756c0,0 -0.22096,-0.04305 -0.37252,-0.20991c-0.18128,-0.02639 -0.35058,-0.09167 -0.49626,-0.20542c-0.26539,0.6142 0.15687,1.47954 -0.43539,1.93106c-0.82565,0.62943 -1.87526,-0.26692 -2.47036,-0.82233c-0.12208,0.19603 -0.24085,0.39369 -0.33483,0.60411c-0.14782,0.33095 -0.04892,0.87661 -0.38275,1.01778c-0.40402,0.17085 -1.47107,-0.50898 -1.85878,-0.73114l-0.04187,-0.06735l-0.01703,0.01795l-0.50734,-0.48139c-0.0837,-0.07669 -0.14763,-0.17701 -0.18027,-0.29442c-0.09292,-0.33416 0.10264,-0.68038 0.4368,-0.7733c0.03262,-0.00907 0.06535,-0.01539 0.09797,-0.0191l0.84273,-0.1096l0.00191,0.01474c0.20309,-0.06972 0.4077,-0.13467 0.6144,-0.19267l-0.20924,-0.00355zM329.54298,180.85758c-0.01137,0.00608 -0.02272,0.01223 -0.03407,0.01842c0.01568,0.01426 0.0311,0.02827 0.04618,0.042c-0.00462,-0.01941 -0.00865,-0.0396 -0.01209,-0.06041z" fill="#8da900" fill-rule="nonzero" stroke="none" stroke-width="0.5" stroke-linecap="butt" stroke-linejoin="miter"/><path d="M330.23715,182.68495c0.92709,-0.98666 1.2081,-1.04808 2.06178,-0.82491c0.26058,-0.33495 0.93996,-0.31468 1.5351,-0.18119l0.10173,-0.31674c0.55195,-0.23076 1.20472,-0.29531 1.78754,-0.16039c0,0 0.60539,0.16702 0.43837,0.77241c-0.16703,0.60538 -0.77241,0.43837 -0.77241,0.43837c-0.0272,-0.00986 -0.05504,-0.01841 -0.08337,-0.02572c-0.03236,0.23804 -0.20057,0.44607 -0.44476,0.51804c-0.1413,0.1966 -0.31848,0.24865 -0.47067,0.24639l-0.51344,0.27113c-0.1886,-0.01373 -0.41627,0.03882 -0.62927,0.0665c-0.23361,0.56073 -0.80567,0.33735 -0.80567,0.33735l-0.17019,-0.2013c-0.48577,0.13343 -0.99417,0.23504 -1.50344,0.27304l0.02715,0.25493l-0.72592,0.0773c-0.30369,0.03778 -0.59735,-0.15144 -0.6818,-0.45513c-0.07569,-0.27218 0.04002,-0.55235 0.26611,-0.69713l0.58316,-0.39298z" fill="#8da900" fill-rule="nonzero" stroke="none" stroke-width="0.5" stroke-linecap="butt" stroke-linejoin="miter"/><path d="M336.3546,179.2131c-0.24659,0.57756 -0.82416,0.33097 -0.82416,0.33097l-1.08955,-0.78001c0.26803,-0.37231 0.53607,-0.74462 0.80409,-1.11693c0,0 0.46594,-0.42108 0.88699,0.04485c0.29814,0.32989 0.15159,0.63731 0.04061,0.7887c0.15169,0.11809 0.34342,0.35434 0.18201,0.73241z" fill="#a00000" fill-rule="nonzero" stroke="none" stroke-width="0.5" stroke-linecap="butt" stroke-linejoin="miter"/><path d="M335.08592,180.04296c0.16825,0.60504 -0.4368,0.7733 -0.4368,0.7733l-0.23453,0.06521c-0.29761,0.0785 -0.60941,0.08158 -0.92094,0.03825l-0.01938,0.17661l-0.63699,-0.06989c-0.25365,-0.0219 -0.47887,-0.1979 -0.55108,-0.4576c-0.07222,-0.25971 0.02981,-0.5267 0.23575,-0.6764l0.50947,-0.38868l0.02722,0.03568l0.07407,-0.09871c0.27165,-0.07946 0.5433,-0.15893 0.81495,-0.23838c0,0 0.59108,-0.16436 0.76725,0.41603c0.14925,0.05012 0.29952,0.16761 0.37099,0.42461z" fill="#a00000" fill-rule="nonzero" stroke="none" stroke-width="0.5" stroke-linecap="butt" stroke-linejoin="miter"/><path d="M332.65247,182.3154c-0.03172,0.6272 -0.65893,0.59548 -0.65893,0.59548l-0.35712,-0.01866c-0.17018,-0.0079 -0.35626,0.02789 -0.53642,0.04743c-0.10885,0.2834 -0.43091,0.37296 -0.43091,0.37296l-0.9381,0.26086c-0.10222,0.02843 -0.20558,0.02986 -0.30246,0.00857c-0.0173,0.00806 -0.03467,0.01606 -0.05212,0.02401l-0.2336,0.11832c0,0 -0.5603,0.28364 -0.84395,-0.27666c-0.06713,-0.13262 -0.08699,-0.24973 -0.07818,-0.35125c0.00822,-0.26535 0.20222,-0.42113 0.32037,-0.4917c-0.0914,-0.0783 -0.16133,-0.18368 -0.19599,-0.30836c-0.07222,-0.25971 0.02981,-0.5267 0.23575,-0.6764l0.50947,-0.38868l0.01447,0.01896l0.0414,-0.057c0.56711,-0.26568 1.16287,-0.47245 1.76587,-0.64148c0,0 0.60504,-0.16825 0.7733,0.4368c0.01076,0.03871 0.01836,0.07562 0.02316,0.11082c0.06562,0.04423 0.12846,0.10779 0.18388,0.19722c0.10466,0.08006 0.18509,0.19358 0.22313,0.33032c0.00355,0.01277 0.00669,0.02558 0.0094,0.03837c0.16141,0.02915 0.5528,0.15136 0.52758,0.65008z" fill="#a00000" fill-rule="nonzero" stroke="none" stroke-width="0.5" stroke-linecap="butt" stroke-linejoin="miter"/><path d="M327.20955,183.13768c-0.33416,0.09292 -0.68038,-0.10264 -0.7733,-0.4368c-0.09292,-0.33416 0.10264,-0.68038 0.4368,-0.7733c0.33416,-0.09292 0.68038,0.10264 0.7733,0.4368c0.09292,0.33416 -0.10264,0.68038 -0.4368,0.7733z" fill="#a00000" fill-rule="nonzero" stroke="none" stroke-width="0.5" stroke-linecap="butt" stroke-linejoin="miter"/><path d="M332.53769,180.87752c0.08402,0.30212 -0.02478,0.49533 -0.15479,0.61307c-0.00064,0.01342 -0.0017,0.02679 -0.00319,0.04006c0.093,-0.03128 0.19143,-0.05494 0.29666,-0.0684c0.22687,-0.02902 0.46082,0.01244 0.69201,0.03785c0.65734,-0.18751 1.31804,-0.35557 1.95442,-0.53254l0.82084,-0.22826c0.33416,-0.09292 0.68038,0.10264 0.7733,0.4368c0.08445,0.30369 -0.06937,0.61734 -0.34897,0.74176l-0.51152,0.23855c0.05201,0.36078 -0.28592,0.58851 -0.28592,0.58851c-1.95177,1.31524 -3.59839,1.54314 -5.88044,1.78611l-0.72592,0.0773c-0.30369,0.03778 -0.59735,-0.15144 -0.6818,-0.45513c-0.02524,-0.09077 -0.0292,-0.18242 -0.01487,-0.26965c-0.19074,0.00771 -0.50727,-0.04607 -0.62172,-0.45762c-0.10588,-0.38077 0.09449,-0.58853 0.2576,-0.69026c0.00221,-0.00729 0.00458,-0.01463 0.00708,-0.02205c-0.09532,-0.16128 -0.21195,-0.48304 0.11904,-0.78216c0.46593,-0.42107 0.887,0.04486 0.887,0.04486c0.07128,0.11855 0.17583,0.2303 0.27685,0.34276c0.05876,-0.13173 0.17693,-0.2572 0.40499,-0.32061c0.55035,-0.15304 0.73931,0.33373 0.76897,0.42299c0.11542,0.00694 0.22252,-0.00597 0.32411,-0.03347c0.05219,-0.02473 0.10466,-0.04905 0.15741,-0.07295c0.01,-0.09358 0.04096,-0.183 0.08933,-0.26189c-0.03078,-0.25178 -0.08069,-0.50158 -0.15006,-0.74475l0.77633,-0.86771c0,0 0.60504,-0.16825 0.7733,0.4368zM330.23143,182.3499c0.08825,0.03136 0.1717,0.05186 0.25117,0.06302z" fill="#000000" fill-rule="nonzero" stroke="none" stroke-width="0.5" stroke-linecap="butt" stroke-linejoin="miter"/><path d="M330.11441,182.13662l0.64131,-0.32465" fill="none" fill-rule="nonzero" stroke="#001026" stroke-width="1.2" stroke-linecap="round" stroke-linejoin="miter"/><path d="M331.15555,181.40816l-2.00311,1.21544" fill="none" fill-rule="nonzero" stroke="#a00000" stroke-width="1.2" stroke-linecap="round" stroke-linejoin="miter"/><path d="M331.23834,180.65354l-0.28616,2.12803" fill="none" fill-rule="nonzero" stroke="#000000" stroke-width="1.2" stroke-linecap="round" stroke-linejoin="miter"/><path d="M330.19395,183.2119l-2.04923,-1.84442" fill="none" fill-rule="nonzero" stroke="#000000" stroke-width="1.2" stroke-linecap="round" stroke-linejoin="miter"/><path d="M340.51593,184.51286c-0.1004,-0.61993 0.51953,-0.72033 0.51953,-0.72033l0.69592,-0.10918c0.02108,0.01984 0.04216,0.03967 0.06324,0.0595l0.00302,-0.05964l0.65336,0.03305c0.20254,0.0055 0.39101,0.10948 0.50385,0.27715c0.78197,0.1696 1.74528,0.99135 1.1463,2.01959c-0.60249,1.03427 -2.96054,0.88935 -3.27859,-0.38908c-0.05741,-0.23081 -0.03226,-0.44358 0.05135,-0.63273c-0.15531,-0.06012 -0.31171,-0.19284 -0.35795,-0.47832z" fill="#a00000" fill-rule="nonzero" stroke="none" stroke-width="0.5" stroke-linecap="butt" stroke-linejoin="miter"/><path d="M342.59836,185.46238c-0.33416,0.09292 -0.68038,-0.10264 -0.7733,-0.4368c-0.09292,-0.33416 0.10264,-0.68038 0.4368,-0.7733c0.33416,-0.09292 0.68038,0.10264 0.7733,0.4368c0.09292,0.33416 -0.10264,0.68038 -0.4368,0.7733z" fill="#ffffff" fill-rule="nonzero" stroke="none" stroke-width="0.5" stroke-linecap="butt" stroke-linejoin="miter"/><path d="M331.17081,181.98919l-1.76924,1.0041l-0.7775,-0.95435" fill="none" fill-rule="nonzero" stroke="#000000" stroke-width="1.2" stroke-linecap="round" stroke-linejoin="miter"/><path d="M342.18393,190.04689c0.09292,0.33416 -0.10264,0.68038 -0.4368,0.7733c-0.03808,0.01059 -0.07631,0.01743 -0.11431,0.02075c0.13751,0.07936 0.2452,0.2106 0.2911,0.37565c0.09292,0.33416 -0.10264,0.68038 -0.4368,0.7733c-0.11156,0.03103 -0.22448,0.0299 -0.32885,0.00218c-0.00935,0.26643 -0.18903,0.50764 -0.45953,0.58285c-0.05249,0.0146 -0.10529,0.02208 -0.15735,0.02302c0.02635,0.29586 -0.16102,0.57763 -0.45746,0.66006c-0.33416,0.09292 -0.68038,-0.10264 -0.7733,-0.4368c-0.00722,-0.02598 -0.0127,-0.05202 -0.01651,-0.07801c-0.31543,0.05678 -0.628,-0.13504 -0.71559,-0.44999c-0.09292,-0.33416 0.10264,-0.68038 0.4368,-0.7733c0.02598,-0.00722 0.05203,-0.0127 0.07802,-0.01651c-0.05678,-0.31543 0.13504,-0.628 0.44999,-0.71559c0.05806,-0.01615 0.1165,-0.02357 0.1739,-0.02309c0.00546,-0.27006 0.18617,-0.51599 0.45978,-0.59207c0.08115,-0.02257 0.16301,-0.02812 0.24177,-0.01881c-0.00472,-0.27906 0.1784,-0.53699 0.45983,-0.61525c0.06614,-0.0184 0.13276,-0.02547 0.19779,-0.02243c0.03137,-0.24281 0.20406,-0.45511 0.45478,-0.52483c0.33416,-0.09292 0.68038,0.10264 0.7733,0.4368c0.05879,0.21144 0.00209,0.42771 -0.13215,0.58158c0.00421,0.0122 0.00807,0.0246 0.01159,0.03722zM341.15065,190.77981c0.03808,-0.01059 0.07631,-0.01743 0.11431,-0.02075c-0.00939,-0.00542 -0.01863,-0.01107 -0.02772,-0.01696c-0.00729,0.00231 -0.01466,0.0045 -0.02209,0.00657c-0.08115,0.02257 -0.16301,0.02812 -0.24177,0.01881c0.00055,0.03261 -0.00146,0.06492 -0.00589,0.09669c0.05468,-0.03689 0.11612,-0.06572 0.18317,-0.08437zM340.61084,191.34689c0.02719,0.00351 0.05399,0.00881 0.08025,0.01578c0.00076,-0.02163 0.00264,-0.04309 0.0056,-0.06431c-0.02702,0.01822 -0.05567,0.03448 -0.08585,0.04852zM339.80514,192.03472c0.03334,-0.006 0.06663,-0.00923 0.09965,-0.00983c-0.001,-0.0113 -0.0017,-0.02258 -0.00209,-0.03382c-0.00754,0.0024 -0.01516,0.00468 -0.02285,0.00682c-0.02598,0.00722 -0.05202,0.0127 -0.07801,0.01651c0.00122,0.00678 0.00233,0.01355 0.00331,0.02032z" fill="#e93e3e" fill-rule="nonzero" stroke="none" stroke-width="0.5" stroke-linecap="butt" stroke-linejoin="miter"/><path d="M350.6347,187.55065c0.09292,0.33416 -0.10264,0.68038 -0.4368,0.7733c-0.08843,0.02459 -0.17769,0.02898 -0.26289,0.01594c-0.08,0.10408 -0.19318,0.18405 -0.3294,0.22192c-0.13955,0.03881 -0.2812,0.02729 -0.40564,-0.0236c-0.07729,0.15037 -0.21468,0.26926 -0.39038,0.31812c-0.16475,0.04582 -0.33242,0.02151 -0.47122,-0.05496c-0.05254,0.21298 -0.21531,0.39219 -0.44172,0.45514c-0.178,0.04949 -0.35942,0.01714 -0.50415,-0.07442c-0.06389,0.19137 -0.21867,0.34858 -0.42768,0.40669c-0.26419,0.07347 -0.5359,-0.03339 -0.68403,-0.24647c-0.08051,0.1125 -0.19856,0.19926 -0.34222,0.23921c-0.17776,0.04943 -0.35895,0.01722 -0.50358,-0.07406c-0.0181,0.25769 -0.19529,0.48788 -0.45839,0.56104c-0.13955,0.03881 -0.2812,0.02729 -0.40564,-0.0236c-0.07729,0.15036 -0.21468,0.26926 -0.39038,0.31812c-0.07147,0.01988 -0.14351,0.02655 -0.2135,0.02149c-0.05732,0.04045 -0.12247,0.07193 -0.19394,0.09181c-0.0551,0.01532 -0.11052,0.0228 -0.16508,0.02311c-0.0763,0.08207 -0.1755,0.14476 -0.29139,0.17699c-0.1956,0.05439 -0.39532,0.00994 -0.54596,-0.10329c-0.07813,0.09045 -0.1829,0.15964 -0.30671,0.19407c-0.33416,0.09292 -0.68038,-0.10264 -0.7733,-0.4368c-0.09292,-0.33416 0.10264,-0.68038 0.4368,-0.7733c0.1956,-0.05439 0.39532,-0.00994 0.54596,0.10329c0.07813,-0.09045 0.1829,-0.15964 0.30671,-0.19407c0.0551,-0.01532 0.11052,-0.0228 0.16508,-0.02311c0.0763,-0.08208 0.1755,-0.14476 0.29139,-0.17699c0.07147,-0.01988 0.14351,-0.02656 0.2135,-0.0215c0.05732,-0.04045 0.12247,-0.07192 0.19396,-0.0918c0.13955,-0.03881 0.2812,-0.02729 0.40564,0.0236c0.07728,-0.15035 0.21467,-0.26925 0.39037,-0.31812c0.17776,-0.04943 0.35895,-0.01722 0.50358,0.07406c0.01811,-0.2577 0.19529,-0.48788 0.45839,-0.56104c0.26418,-0.07346 0.5359,0.03339 0.68403,0.24647c0.08051,-0.1125 0.19856,-0.19926 0.34222,-0.23921c0.178,-0.04949 0.35942,-0.01714 0.50415,0.07442c0.06389,-0.19137 0.21867,-0.34858 0.42768,-0.40669c0.16475,-0.04582 0.33242,-0.0215 0.47122,0.05497c0.05254,-0.21297 0.21531,-0.39219 0.44172,-0.45514c0.13955,-0.03881 0.2812,-0.02729 0.40564,0.0236c0.07728,-0.15035 0.21468,-0.26926 0.39038,-0.31812c0.08843,-0.02459 0.17769,-0.02898 0.26289,-0.01594c0.08,-0.10408 0.19318,-0.18405 0.3294,-0.22192c0.33416,-0.09292 0.68038,0.10264 0.7733,0.4368z" fill="#e93e3e" fill-rule="nonzero" stroke="none" stroke-width="0.5" stroke-linecap="butt" stroke-linejoin="miter"/><path d="M338.49517,192.01714c-0.33416,0.09292 -0.68038,-0.10264 -0.7733,-0.4368c-0.08758,-0.31496 0.08109,-0.64061 0.38056,-0.75481c-0.01016,-0.02423 -0.01892,-0.04937 -0.02614,-0.07534c-0.09292,-0.33416 0.10264,-0.68038 0.4368,-0.7733c0.12934,-0.03596 0.26049,-0.02871 0.37805,0.01307c-0.00563,-0.01546 -0.01071,-0.03127 -0.0152,-0.04741c-0.09292,-0.33416 0.10264,-0.68038 0.4368,-0.7733c0.12019,-0.03342 0.24194,-0.02952 0.35289,0.00472c0.03239,-0.24157 0.20469,-0.45241 0.45438,-0.52184c0.08845,-0.02459 0.17773,-0.02898 0.26295,-0.01593c0.02224,-0.25329 0.19812,-0.47808 0.45752,-0.55021c0.33416,-0.09292 0.68038,0.10264 0.7733,0.4368c0.09292,0.33416 -0.10264,0.68038 -0.4368,0.7733c-0.08845,0.02459 -0.17773,0.02898 -0.26295,0.01593c-0.02224,0.25329 -0.19812,0.47808 -0.45752,0.55021c-0.12018,0.03342 -0.24193,0.02952 -0.35289,-0.00472c-0.03239,0.24157 -0.2047,0.45241 -0.45438,0.52184c-0.12934,0.03596 -0.26049,0.02871 -0.37805,-0.01307c0.00563,0.01546 0.01071,0.03127 0.0152,0.04741c0.08758,0.31496 -0.08111,0.6406 -0.38056,0.7548c0.01016,0.02424 0.01892,0.04938 0.02614,0.07535c0.09292,0.33416 -0.10264,0.68038 -0.4368,0.7733z" fill="#e93e3e" fill-rule="nonzero" stroke="none" stroke-width="0.5" stroke-linecap="butt" stroke-linejoin="miter"/><path d="M352.84753,187.0657c-0.06683,0.01859 -0.13607,-0.02053 -0.15466,-0.08736c-0.01859,-0.06683 0.02053,-0.13607 0.08736,-0.15466c0.06683,-0.01859 0.13607,0.02053 0.15466,0.08736c0.01859,0.06683 -0.02053,0.13607 -0.08736,0.15466z" fill="#a00000" fill-rule="nonzero" stroke="none" stroke-width="0.5" stroke-linecap="butt" stroke-linejoin="miter"/><path d="M351.47865,184.90087c-0.09512,-0.08203 -0.0131,-0.17714 -0.0131,-0.17714l0.00384,-0.00444c0.10936,-0.12682 0.21872,-0.25366 0.32808,-0.38048c0,0 0.08203,-0.09512 0.17714,-0.0131c0.09512,0.08203 0.0131,0.17714 0.0131,0.17714c-0.10936,0.12683 -0.22255,0.25811 -0.33191,0.38494c0,0 -0.08203,0.09512 -0.17714,0.0131z" fill="#a00000" fill-rule="nonzero" stroke="none" stroke-width="0.5" stroke-linecap="butt" stroke-linejoin="miter"/><path d="M353.13119,185.10067c0.03185,0.11454 0.00721,0.23145 -0.05716,0.32103c0.10905,0.01425 0.2404,0.07483 0.29502,0.27126c0.10095,0.36303 -0.26208,0.46397 -0.26208,0.46397l-0.07751,0.01624c-0.03927,0.01797 -0.07735,0.03646 -0.11445,0.05536c-0.00139,0.04427 -0.01061,0.0874 -0.02668,0.1276c0.03779,-0.00619 0.09332,-0.00088 0.12807,0.06776c0.01132,0.02236 0.01591,0.04252 0.01603,0.06047c0.00459,0.00888 0.0086,0.01899 0.01179,0.03051c0.03365,0.12101 -0.08736,0.15466 -0.08736,0.15466l-0.06791,0.01888c-0.0609,0.01454 -0.12545,0.02064 -0.18994,0.01824c-0.07552,0.03024 -0.15512,0.06133 -0.23394,0.09375c0.00181,0.00662 0.00373,0.01335 0.00575,0.02024l-0.06068,0.18221c0,0 -0.00978,0.01729 -0.02842,0.03425c0.00412,0.0078 0.00746,0.01617 0.00993,0.02503c0.01859,0.06683 -0.02053,0.13607 -0.08736,0.15466c-0.03273,0.0091 -0.06603,0.00436 -0.09368,-0.01068c0.00056,0.00485 0.00084,0.00967 0.00082,0.01447c0.01325,0.01858 0.02363,0.04312 0.02115,0.07313c0.00508,0.00887 0.00913,0.0185 0.012,0.02879c0.01859,0.06683 -0.02053,0.13607 -0.08736,0.15466c-0.05109,0.0142 -0.10356,-0.0053 -0.13376,-0.04511c-0.0032,-0.00035 -0.00638,-0.00082 -0.00953,-0.00139c-0.04569,-0.00849 -0.08487,-0.0421 -0.09816,-0.08988c-0.00088,-0.00318 -0.00164,-0.00636 -0.00227,-0.00955c-0.05211,-0.02434 -0.1046,-0.0466 -0.15715,-0.06872c-0.04949,0.04473 -0.09899,0.08946 -0.14848,0.13419c0,0 -0.09319,0.08422 -0.17739,-0.00897c-0.05573,-0.06168 -0.03376,-0.11941 -0.01253,-0.15142c-0.01525,-0.01768 -0.02961,-0.03558 -0.04309,-0.05369c-0.05983,0.01664 -0.11968,0.03328 -0.1795,0.04991l0.023,0.08271c0,0 0.01374,0.0494 -0.0079,0.09384c0.03657,-0.00328 0.10786,0.00253 0.13246,0.091c0.03365,0.12101 -0.08736,0.15466 -0.08736,0.15466l-0.06791,0.01888c-0.06791,0.01888 -0.13581,0.03776 -0.20372,0.05665c0,0 -0.12101,0.03365 -0.15466,-0.08736c-0.03365,-0.12101 0.08736,-0.15466 0.08736,-0.15466c0.02871,-0.00798 0.06954,-0.01934 0.11225,-0.03122c-0.0394,-0.02723 -0.05254,-0.0745 -0.05254,-0.0745l-0.01689,-0.06076l-0.06095,-0.00561c-0.00026,-0.00029 -0.00053,-0.00059 -0.00079,-0.00088c-0.0543,0.0151 -0.10859,0.03019 -0.16289,0.0453c0,0 -0.12101,0.03365 -0.15466,-0.08736c-0.03365,-0.12101 0.08736,-0.15466 0.08736,-0.15466c0.02997,-0.00833 0.06064,-0.01687 0.09188,-0.02555c0.00391,-0.02291 0.01608,-0.04741 0.0424,-0.07119c0.0409,-0.03695 0.08006,-0.03975 0.11114,-0.03125c-0.04686,-0.07801 -0.06316,-0.14863 -0.06108,-0.21078c-0.10715,-0.04151 -0.19404,-0.13132 -0.22719,-0.25055c-0.05575,-0.2005 0.06158,-0.40822 0.26208,-0.46397c0.10061,-0.02797 0.20302,-0.01237 0.28716,0.03545c0.00452,-0.00184 0.00919,-0.00345 0.01401,-0.00479c0.06683,-0.01859 0.13607,0.02053 0.15466,0.08736c0.00505,0.01817 0.00584,0.03652 0.00297,0.05398c0.0829,-0.10316 0.20904,-0.13823 0.20904,-0.13823c0.16092,-0.04093 0.3012,-0.10537 0.43444,-0.18039c-0.01487,-0.00116 -0.02947,0.00111 -0.04345,0.00787c0,0 -0.08233,0.02289 -0.13005,-0.037c-0.03085,0.00858 -0.0617,0.01716 -0.09255,0.02574l0.02668,0.02755c0,0 -0.06178,0.10936 -0.17113,0.04758c-0.10936,-0.06178 -0.04758,-0.17113 -0.04758,-0.17113l0.12473,-0.14603c0.11319,-0.03147 0.22637,-0.06294 0.33954,-0.09442c0,0 0.12101,-0.03365 0.15466,0.08736c0.00711,0.02558 0.00731,0.04726 0.00321,0.06553c0.02569,0.01222 0.05075,0.02601 0.07492,0.04084c0.12162,-0.07793 0.24434,-0.15822 0.37938,-0.2302c-0.09554,-0.04515 -0.17166,-0.13001 -0.20219,-0.2398c-0.05575,-0.2005 0.06158,-0.40822 0.26208,-0.46397c0.2005,-0.05575 0.40822,0.06158 0.46397,0.26208zM352.05212,187.09932c0.03273,-0.0091 0.06603,-0.00436 0.09368,0.01068c-0.00215,-0.01869 -0.00001,-0.03718 0.00575,-0.05429c-0.0049,-0.00415 -0.00949,-0.00869 -0.01372,-0.01357l-0.05238,-0.05797c-0.04829,0.03011 -0.09099,0.06153 -0.12579,0.0945c0.02271,0.00983 0.04541,0.01986 0.06805,0.03025c0.00763,-0.00397 0.01579,-0.00721 0.02442,-0.0096z" fill="#a00000" fill-rule="nonzero" stroke="none" stroke-width="0.5" stroke-linecap="butt" stroke-linejoin="miter"/><path d="M353.81386,184.39868l0.00096,0.01758c0.0667,0.15216 0.1334,0.30432 0.2001,0.45648c0,0 0.01355,0.03091 0.02329,0.0783c0.00518,0.0129 0.0097,0.02622 0.01352,0.03994c0.05575,0.2005 -0.06158,0.40822 -0.26208,0.46397c-0.2005,0.05575 -0.40822,-0.06158 -0.46397,-0.26208c-0.00302,-0.01086 -0.00553,-0.02174 -0.00755,-0.03262c-0.0645,-0.14714 -0.129,-0.29428 -0.19351,-0.44144l-0.03681,-0.11824c0,0 -0.10095,-0.36303 0.26208,-0.46397c0.36303,-0.10095 0.46397,0.26208 0.46397,0.26208z" fill="#a00000" fill-rule="nonzero" stroke="none" stroke-width="0.5" stroke-linecap="butt" stroke-linejoin="miter"/><path d="M360.62649,184.72042c-0.92384,0.06848 -2.48485,-1.18349 -3.42676,-0.72504c-0.04142,0.1067 -0.1385,0.23837 -0.36491,0.22692c-0.24944,-0.01262 -0.32518,-0.18223 -0.3479,-0.29515c-0.05957,-0.12327 -0.03938,-0.22789 0.00158,-0.3062l0.00205,-0.03867c0.20628,-1.87233 0.21157,-3.76123 0.57644,-5.60261c0.09364,-0.47256 -0.13412,-1.94178 0.8493,-1.79274c0.39048,0.05918 0.69606,1.78963 0.78187,2.09822c0.2958,1.06376 0.60107,2.12535 0.88753,3.19168c0.04528,0.16856 0.24053,0.77592 0.45313,0.83952c0.1036,0.03099 0.73189,-0.53328 0.83057,-0.60856c0.90231,-0.6884 2.05406,-0.78415 2.95382,-1.47982c0.62133,-0.46785 2.69859,-1.0391 2.01225,0.54028c-0.16422,0.37791 -1.00543,0.84966 -1.26794,1.23115c-1.0188,1.48056 -1.8255,2.47145 -3.32984,3.48596c0,0 -0.31247,0.21057 -0.52304,-0.10191c-0.21057,-0.31247 0.10191,-0.52304 0.10191,-0.52304c0.03255,-0.02193 0.06483,-0.04377 0.09681,-0.06555c-0.11151,0.02181 -0.21134,-0.01091 -0.21134,-0.01091l-0.07552,-0.06356z" fill="#ffffff" fill-rule="nonzero" stroke="none" stroke-width="0.5" stroke-linecap="butt" stroke-linejoin="miter"/><path d="M365.41575,179.47116c0.0094,0.00353 0.01873,0.00716 0.02796,0.0109l-0.07967,0.1498c0.00176,0.00564 0.00347,0.01138 0.00509,0.01725c0.02241,0.08062 0.02196,0.14831 0.00767,0.20484c0.11311,-0.0399 0.23159,-0.07686 0.35851,-0.11249c0,0 0.36303,-0.10095 0.46397,0.26208c0.10095,0.36303 -0.26208,0.46397 -0.26208,0.46397c-0.02405,0.00662 -0.04768,0.01325 -0.07087,0.01992l-0.41928,0.31006c-0.0308,0.03986 -0.07138,0.0771 -0.12066,0.11158c0.08202,0.02831 0.17223,0.0606 0.27252,0.09677l-0.62783,0.60691c-0.10699,-0.00749 -0.21398,-0.01497 -0.32096,-0.02245c-0.09,0.26275 -0.23703,0.45499 -0.52417,0.4781c-0.32466,0.02614 -0.61774,-0.20678 -0.9266,-0.31018l0.26213,-0.26454c-0.09521,-0.02659 -0.1904,-0.05317 -0.2856,-0.07975l0.28394,-0.29501c-0.07498,-0.00542 -0.14941,-0.01288 -0.22294,-0.02219l0.46617,-0.70623c0.12883,-0.04997 0.26969,-0.07335 0.41178,-0.07456c0.10165,-0.25911 0.24115,-0.50512 0.41426,-0.71871l-0.07309,-0.06523c0.06667,-0.044 0.14111,-0.07687 0.21995,-0.09967c0.06092,-0.06215 0.12514,-0.12048 0.19252,-0.17434l0.54726,0.21319z" fill="#a00000" fill-rule="nonzero" stroke="none" stroke-width="0.5" stroke-linecap="butt" stroke-linejoin="miter"/><path d="M358.77735,178.04364c0.10095,0.36303 -0.26208,0.46397 -0.26208,0.46397l-0.05541,0.01337c-0.04316,0.10238 -0.131,0.18477 -0.24636,0.21685c-0.07979,0.02219 -0.16073,0.01696 -0.23277,-0.01001l-0.57271,0.3612c-0.03219,0.02135 -0.06823,0.03809 -0.10747,0.049c-0.2005,0.05575 -0.40822,-0.06158 -0.46397,-0.26208c-0.04334,-0.15583 0.01789,-0.31602 0.14145,-0.40585l0.18325,-0.13982l-0.11735,-0.02411c0.08473,-0.12356 0.16698,-0.23248 0.24604,-0.32657c-0.04017,-0.04291 -0.07087,-0.09587 -0.08772,-0.15642c-0.04334,-0.15583 0.01789,-0.31602 0.14145,-0.40585l0.14309,-0.10917c-0.09533,-0.0452 -0.17127,-0.12997 -0.20175,-0.2396c-0.01296,-0.04662 -0.01656,-0.09363 -0.01195,-0.13901c-0.06519,-0.11878 -0.07325,-0.22691 0.04294,-0.27954c-0.00313,-0.00871 -0.00595,-0.0176 -0.00847,-0.02666c-0.05575,-0.2005 0.06158,-0.40822 0.26208,-0.46397c0.02269,-0.00631 0.04547,-0.0104 0.06812,-0.01241l0.2951,-0.03142l0.02144,-0.06021c0.01973,0.01743 0.03893,0.03469 0.0576,0.05179l0.03898,-0.00415c0.18221,-0.02266 0.35841,0.09087 0.40908,0.27308c0.02251,0.08097 0.0168,0.1631 -0.01121,0.23594c0.12133,0.20484 0.1298,0.36229 0.04791,0.46425c0.05824,0.23065 -0.05943,0.46418 -0.14051,0.6971c0.09901,-0.01375 0.34159,-0.016 0.4212,0.27028z" fill="#a00000" fill-rule="nonzero" stroke="none" stroke-width="0.5" stroke-linecap="butt" stroke-linejoin="miter"/><path d="M367.42103,184.22499c-0.2005,0.05575 -0.40822,-0.06158 -0.46397,-0.26208c-0.05575,-0.2005 0.06158,-0.40822 0.26208,-0.46397c0.2005,-0.05575 0.40822,0.06158 0.46397,0.26208c0.05575,0.2005 -0.06158,0.40822 -0.26208,0.46397z" fill="#a00000" fill-rule="nonzero" stroke="none" stroke-width="0.5" stroke-linecap="butt" stroke-linejoin="miter"/><path d="M369.35412,186.90974l-0.17848,-0.20169c-0.33609,-0.29323 -0.62684,-0.63781 -0.89828,-0.99173c0,0 -0.22856,-0.29957 0.07101,-0.52813c0.29957,-0.22856 0.52813,0.07101 0.52813,0.07101c0.23845,0.31435 0.49321,0.62212 0.79252,0.8792l0.24421,0.26605c0,0 0.25264,0.27956 -0.02692,0.5322c-0.27956,0.25264 -0.5322,-0.02692 -0.5322,-0.02692z" fill="#a00000" fill-rule="nonzero" stroke="none" stroke-width="0.5" stroke-linecap="butt" stroke-linejoin="miter"/><path d="M370.09704,187.79725c-0.2005,0.05575 -0.40822,-0.06158 -0.46397,-0.26208c-0.05575,-0.2005 0.06158,-0.40822 0.26208,-0.46397c0.2005,-0.05575 0.40822,0.06158 0.46397,0.26208c0.05575,0.2005 -0.06158,0.40822 -0.26208,0.46397z" fill="#a00000" fill-rule="nonzero" stroke="none" stroke-width="0.5" stroke-linecap="butt" stroke-linejoin="miter"/><path d="M370.56151,189.20444c-0.2005,0.05575 -0.40822,-0.06158 -0.46397,-0.26208c-0.05575,-0.2005 0.06158,-0.40822 0.26208,-0.46397c0.2005,-0.05575 0.40822,0.06158 0.46397,0.26208c0.05575,0.2005 -0.06158,0.40822 -0.26208,0.46397z" fill="#a00000" fill-rule="nonzero" stroke="none" stroke-width="0.5" stroke-linecap="butt" stroke-linejoin="miter"/><path d="M366.23608,183.38394c-0.2005,0.05575 -0.40822,-0.06158 -0.46397,-0.26208c-0.05575,-0.2005 0.06158,-0.40822 0.26208,-0.46397c0.2005,-0.05575 0.40822,0.06158 0.46397,0.26208c0.05575,0.2005 -0.06158,0.40822 -0.26208,0.46397z" fill="#a00000" fill-rule="nonzero" stroke="none" stroke-width="0.5" stroke-linecap="butt" stroke-linejoin="miter"/><path d="M360.49985,178.54103c-0.2005,0.05575 -0.40822,-0.06158 -0.46397,-0.26208c-0.05575,-0.2005 0.06158,-0.40822 0.26208,-0.46397c0.2005,-0.05575 0.40822,0.06158 0.46397,0.26208c0.05575,0.2005 -0.06158,0.40822 -0.26208,0.46397z" fill="#a00000" fill-rule="nonzero" stroke="none" stroke-width="0.5" stroke-linecap="butt" stroke-linejoin="miter"/><path d="M361.85075,179.18962c-0.2005,0.05575 -0.40822,-0.06158 -0.46397,-0.26208c-0.05575,-0.2005 0.06158,-0.40822 0.26208,-0.46397c0.2005,-0.05575 0.40822,0.06158 0.46397,0.26208c0.05575,0.2005 -0.06158,0.40822 -0.26208,0.46397z" fill="#a00000" fill-rule="nonzero" stroke="none" stroke-width="0.5" stroke-linecap="butt" stroke-linejoin="miter"/><path d="M363.05458,180.09857c-0.2005,0.05575 -0.40822,-0.06158 -0.46397,-0.26208c-0.05575,-0.2005 0.06158,-0.40822 0.26208,-0.46397c0.2005,-0.05575 0.40822,0.06158 0.46397,0.26208c0.05575,0.2005 -0.06158,0.40822 -0.26208,0.46397z" fill="#a00000" fill-rule="nonzero" stroke="none" stroke-width="0.5" stroke-linecap="butt" stroke-linejoin="miter"/><path d="M337.50567,158.01871c-0.09321,-0.33519 -0.04128,-0.67644 0.11795,-0.9568c-0.17477,-0.2134 -0.28918,-0.52105 -0.22388,-0.96204c0.10415,-0.70339 0.54755,-0.94961 0.91269,-1.03086c0.0043,-0.50613 0.31666,-0.97229 0.80227,-1.15988l1.26224,-0.50691l0.06938,0.17276l0.35782,-0.26257c2.2805,0.68191 6.56245,2.32646 2.42762,4.72295c-0.14226,0.08246 -0.2841,0.1482 -0.42557,0.1994c-0.15634,0.29116 -0.42663,0.52054 -0.77017,0.61607c-0.6155,0.17115 -1.25145,-0.14707 -1.4933,-0.72049c-0.19881,-0.06198 -0.39738,-0.13002 -0.59588,-0.19786c-0.09134,0.4475 -0.42436,0.82905 -0.89459,0.95982c-0.66832,0.18584 -1.36074,-0.20528 -1.5466,-0.8736z" fill="#ffffff" fill-rule="nonzero" stroke="none" stroke-width="0.5" stroke-linecap="butt" stroke-linejoin="miter"/><path d="M343.90623,159.90723c-0.62909,0.17493 -1.27954,-0.16135 -1.50873,-0.75883c-0.11414,0.0802 -0.2437,0.1426 -0.38576,0.18211c-0.50784,0.14122 -1.0296,-0.05071 -1.33243,-0.44427c-0.2655,0.01839 -0.52429,-0.04894 -0.74273,-0.18301c-0.15987,0.20678 -0.38543,0.36562 -0.65662,0.44102c-0.66832,0.18584 -1.36074,-0.20528 -1.5466,-0.8736c-0.18584,-0.66832 0.20528,-1.36074 0.8736,-1.5466c0.35005,-0.09734 0.70671,-0.03639 0.99373,0.13976c0.15987,-0.20678 0.38543,-0.36562 0.65662,-0.44102c0.50784,-0.14122 1.0296,0.05071 1.33243,0.44427c0.5436,-0.03766 1.05901,0.28403 1.25774,0.80207c0.11414,-0.0802 0.2437,-0.1426 0.38576,-0.18211c0.66832,-0.18584 1.36074,0.20528 1.5466,0.8736c0.18584,0.66832 -0.20528,1.36074 -0.8736,1.5466z" fill="#a00000" fill-rule="nonzero" stroke="none" stroke-width="0.5" stroke-linecap="butt" stroke-linejoin="miter"/></g></g></g></svg>