<svg version="1.1" xmlns="http://www.w3.org/2000/svg" xmlns:xlink="http://www.w3.org/1999/xlink" width="35.91065" height="35.2174" viewBox="0,0,35.91065,35.2174"><g transform="translate(-221.8083,-160.09935)"><g data-paper-data="{&quot;isPaintingLayer&quot;:true}" fill-rule="nonzero" stroke="#009400" stroke-width="0" stroke-linecap="butt" stroke-linejoin="miter" stroke-miterlimit="10" stroke-dasharray="" stroke-dashoffset="0" style="mix-blend-mode: normal"><path d="M221.80831,188.14284c0,-6.71229 0,-16.27807 0,-20.21739c0,-3.40001 3.42701,-7.82609 6.30196,-7.82609c4.23445,0 16.38546,0 23.73913,0c3.46839,0 5.86957,3.2994 5.86957,7.69565c0,6.85619 0,16.38017 0,20.21739c0,3.22157 -2.34014,7.30435 -5.73913,7.30435c-7.37999,0 -19.75164,0 -24,0c-2.82667,0 -6.17152,-3.04785 -6.17152,-7.17391z" fill="#a00000"/><path d="M233.71896,185.40371c0,-3.29036 0,-13.34368 0,-15.26087c0,-0.61704 0.55092,-1.17391 0.99527,-1.17391c0.61807,0 2.31368,0 3.31758,0c0.45951,0 0.7741,0.62711 0.7741,1.30435c0,1.95929 0,11.6162 0,15c0,0.7349 -0.41161,1.17391 -0.7741,1.17391c-0.57805,0 -2.34352,0 -3.42817,0c-0.52084,0 -0.88469,-0.38723 -0.88469,-1.04348z" fill="#ffffff"/><path d="M241.06678,185.57762c0,-3.29036 0,-13.34367 0,-15.26087c0,-0.61704 0.55092,-1.17392 0.99527,-1.17392c0.61807,0 2.31368,0 3.31758,0c0.45951,0 0.7741,0.62711 0.7741,1.30435c0,1.95929 0,11.6162 0,15c0,0.7349 -0.41161,1.17392 -0.7741,1.17392c-0.57805,0 -2.34352,0 -3.42817,0c-0.52084,0 -0.88469,-0.38723 -0.88469,-1.04348z" fill="#ffffff"/></g></g></svg>