<svg version="1.1" xmlns="http://www.w3.org/2000/svg" xmlns:xlink="http://www.w3.org/1999/xlink" width="980.48048" height="630.63063" viewBox="0,0,980.48048,630.63063"><g transform="translate(145.24024,130.31528)"><g data-paper-data="{&quot;isPaintingLayer&quot;:true}" stroke-miterlimit="10" stroke-dasharray="" stroke-dashoffset="0" style="mix-blend-mode: normal"><path d="M-145.24024,500.31535v-630.63063h980.48048v630.63063z" fill="#000000" fill-rule="nonzero" stroke="#ff3838" stroke-width="0" stroke-linecap="butt" stroke-linejoin="miter"/><text transform="translate(304.71471,259.28905) scale(0.5,0.5)" font-size="40" xml:space="preserve" fill="#ffffff" fill-rule="nonzero" stroke="none" stroke-width="1" stroke-linecap="butt" stroke-linejoin="miter" stroke-miterlimit="10" stroke-dasharray="" stroke-dashoffset="0" font-family="Marker" font-weight="normal" text-anchor="start" style="mix-blend-mode: normal"><tspan x="0" dy="0">Loading</tspan></text><g><path d="M335.87637,191.99578c0.50311,0.12018 1.62165,3.73375 3.08486,4.66526c1.05878,0.62921 2.40468,1.31697 4.04038,1.31637c3.70042,0.05112 3.02738,0.79812 3.72256,2.86561c0.7322,2.10146 0.30124,3.74979 -5.57592,1.0916c-2.03104,-0.9066 -3.43885,-2.19615 -4.5534,-3.28517c-0.29635,-0.27149 -2.61509,-2.87233 -2.3504,-4.94639c0.26466,-2.07407 1.19986,-1.83058 1.63199,-1.70729z" fill="#000000" fill-rule="evenodd" stroke="#001026" stroke-width="1.2" stroke-linecap="round" stroke-linejoin="round"/><path d="M329.92371,194.05457c-0.22257,-1.02147 0.12861,-2.74371 2.2304,-2.65806c2.45667,0.07011 2.90524,3.00183 3.13715,4.23627c0.23194,1.23443 0.29699,1.90719 1.14343,4.18142c0.32439,0.91033 0.86794,1.95326 1.17679,2.50869c0.15129,0.20669 0.33653,0.37641 0.58965,0.47197c0.46916,0.15723 -2.22403,-4.1071 -1.99524,-2.9437c0.1368,1.27333 1.27424,0.92797 -0.69837,1.13904c-0.22662,0.02426 0.40098,0.02228 0.16499,0.07373c-2.22014,0.48411 -0.60716,1.35922 -1.28977,0.16381c-1.46069,-2.49622 -2.92961,-1.83027 -1.48536,-2.14254c0.20982,-0.08035 0.63425,-0.69243 0.51999,-0.86519l-1.04046,2.2799c-0.30254,-0.52502 0.11051,0.89838 -0.14024,0.37664c-0.27835,-0.57913 -0.74336,-2.17516 -0.96379,-2.72779c-0.94532,-2.36994 -1.16926,-3.36294 -1.34914,-4.09422z" fill="#000000" fill-rule="evenodd" stroke="#001026" stroke-width="1.2" stroke-linecap="round" stroke-linejoin="round"/><path d="M331.61516,181.10241c1.13884,0.0212 2.1609,1.43431 1.24777,2.50556c-0.88232,0.96321 -2.57654,1.25087 -3.56406,1.43638c-0.98752,0.18555 -5.06435,0.47097 -6.56862,-3.01901c-0.56536,-1.53984 -1.18417,-5.92206 1.26936,-5.92293c2.45355,-0.0009 2.28476,2.6379 2.4613,4.23031c0.13012,1.34555 4.8333,0.7482 5.1543,0.76968z" fill="#000000" fill-rule="evenodd" stroke="#001026" stroke-width="1.2" stroke-linecap="round" stroke-linejoin="round"/><g fill-rule="evenodd"><path d="M329.01786,189.62439c-0.13913,-0.74065 -0.07469,-1.70358 0.11306,-3.09861c0.16318,-1.14506 0.90009,-2.99089 0.90009,-2.99089c0.51495,-1.23157 1.92155,-3.21347 3.11016,-2.05656c0.78112,0.7836 1.62386,1.35117 3.05314,2.31975c2.63007,1.59154 3.30904,1.66844 2.84391,4.03577c-0.62859,2.69449 0.73992,6.33268 -5.22571,6.52309c0,0 -3.10487,-0.25505 -7.25884,-0.10846c-2.80536,0.08742 -7.03971,0.02416 -8.49947,-0.0185c-0.32099,-0.02149 -0.61113,-0.15099 -0.86735,-0.31756c-3.89898,-2.95829 -6.22704,-5.77211 -4.76783,-7.36512c2.44333,-2.6674 6.89269,3.1115 6.89269,3.1115c0,0 3.02767,0.11617 4.4504,0.12492z" fill="#000000" stroke="#001026" stroke-width="1.2" stroke-linecap="round" stroke-linejoin="round"/><path d="M329.66148,185.64909c0,0 0.14448,-1.57095 2.65377,-1.11201c2.65124,0.4527 2.19512,2.21511 2.04752,3.71507c-0.31107,1.82717 -1.561,1.70417 -2.91278,1.69233c-1.10177,0.01273 -2.0647,-0.05169 -2.0647,-0.05169c0,0 -0.43584,-1.82997 0.27621,-4.24366z" fill="#a00000" stroke="none" stroke-width="1" stroke-linecap="butt" stroke-linejoin="miter"/></g><g fill-rule="evenodd"><path d="M349.34485,162.11868c0.98782,0.63231 1.94484,1.37264 2.91428,2.39692c1.67337,1.66905 2.76359,3.82592 2.76359,3.82592l7.16356,1.17942c0.21604,0.06163 0.29949,0.34247 0.12672,0.45671l-6.85236,5.91881c0.04919,-0.49996 -0.41667,8.33918 -6.91565,10.15317c-6.49895,1.814 -13.82376,-1.42081 -19.53306,-9.17134c-5.70928,-7.75052 -3.67437,-13.24479 -1.2955,-14.94926c2.37885,-1.70449 5.72185,-0.07305 5.72185,-0.07305c0,0 1.56412,-1.63319 4.61605,-2.58487c1.82375,-0.57779 5.78972,-0.14716 5.78972,-0.14716l4.59429,-3.08175c0.17279,-0.11425 0.39197,0.01837 0.43523,0.1943z" fill="#000000" stroke="#001026" stroke-width="1.2" stroke-linecap="butt" stroke-linejoin="miter"/><path d="M333.41366,162.10597c3.79375,2.18056 1.95227,4.78604 4.44996,7.41459c2.90834,3.07283 10.25687,3.60407 9.10796,9.84178c-1.11495,6.20068 -10.26204,7.63294 -17.5307,-2.43173c-5.66912,-7.64563 -3.95206,-13.09035 -1.5732,-14.79485c2.37884,-1.70449 5.54594,-0.02979 5.54594,-0.02979z" fill="#000000" stroke="none" stroke-width="1" stroke-linecap="butt" stroke-linejoin="miter"/><path d="M341.45251,176.75957c-1.55167,1.91713 -4.05695,3.98272 -7.76758,1.26511c-4.09352,-3.3409 -2.95621,-7.40896 -2.37341,-8.71467c0.09558,-0.25309 0.41347,-0.30261 0.56475,-0.09587c0.45391,0.62016 1.5376,1.81723 3.63995,3.53859c2.35859,1.88787 4.90209,3.12765 5.84354,3.51309c0.18212,0.09867 0.2285,0.34556 0.09275,0.49374z" fill="#000000" stroke="#001026" stroke-width="1.2" stroke-linecap="round" stroke-linejoin="round"/><path d="M329.30884,161.75259c0,0 -2.63346,-2.48036 -3.08514,-5.48312" fill="none" stroke="#001026" stroke-width="1.2" stroke-linecap="round" stroke-linejoin="round"/><path d="M327.15849,163.80261c0,0 -2.0896,-0.61958 -4.25392,-2.94271" fill="none" stroke="#001026" stroke-width="1.2" stroke-linecap="round" stroke-linejoin="round"/><path d="M340.15713,170.73572c-0.54297,0.59276 -2.94731,0.09365 -3.54629,-0.59126c-0.55883,-0.58003 -0.16435,-2.12633 0.34777,-2.61109c0.27459,-0.22539 1.1575,0.44708 1.93553,1.15973c0.74093,0.67871 1.70729,1.63199 1.26301,2.04261z" fill="#001026" stroke="#000000" stroke-width="1.2" stroke-linecap="round" stroke-linejoin="round"/><path d="M349.5895,181.48781c2.34864,0.03927 6.48487,1.92037 6.48487,1.92037" fill="none" stroke="#001026" stroke-width="1.2" stroke-linecap="round" stroke-linejoin="round"/><path d="M352.42159,186.87536c0,0 -3.11478,-2.10368 -4.13091,-4.19268" fill="none" stroke="#001026" stroke-width="1.2" stroke-linecap="round" stroke-linejoin="round"/><g fill="#a00000"><path d="M343.97476,162.10523c0.4265,1.61706 -1.34126,3.47251 -3.94269,4.1555c-2.63849,0.64906 -5.0553,-0.13394 -5.4818,-1.75096c-0.4265,-1.61706 1.34126,-3.47251 3.94269,-4.1555c2.60149,-0.683 5.08925,0.09691 5.4818,1.75096z" stroke="#001026" stroke-width="1.2" stroke-linecap="round" stroke-linejoin="round"/><path d="M336.70684,162.60168c0.37327,-0.4075 0.97508,-0.46947 1.34555,-0.13012c0.3705,0.33937 0.36143,0.94428 -0.01185,1.35178c-0.37327,0.4075 -0.97508,0.46947 -1.34555,0.13012c-0.3705,-0.33937 -0.36143,-0.94428 0.01185,-1.35178" stroke="none" stroke-width="1" stroke-linecap="butt" stroke-linejoin="miter"/></g><g><path d="M346.73046,169.80747c2.60458,-0.61205 5.16022,0.09378 5.52817,1.99787c0.4019,1.86703 -1.6065,3.91082 -4.24811,4.48895c-2.60458,0.61205 -4.70973,-0.36246 -5.28751,-2.1862c-0.35551,-1.62014 1.40287,-3.68859 4.00745,-4.3006z" fill="#ffffff" stroke="#001026" stroke-width="1.2" stroke-linecap="round" stroke-linejoin="round"/><path d="M344.98455,172.15981c0.37327,-0.4075 0.94115,-0.43241 1.34555,-0.13012c0.3705,0.33937 0.36143,0.94428 -0.01185,1.35178c-0.37327,0.4075 -0.97508,0.46947 -1.34555,0.13012c-0.3705,-0.33937 -0.36143,-0.94428 0.01185,-1.35178" fill="#001026" stroke="none" stroke-width="1" stroke-linecap="butt" stroke-linejoin="miter"/></g></g><path d="M343.53015,172.83245c0,0 -0.14668,-0.04184 -0.27485,-0.15658c-0.13019,0.12271 -0.26136,0.28101 -0.40939,0.51345c-0.53073,0.58261 -1.06309,1.16373 -1.59541,1.7449l-0.24713,0.4319c0,0 -0.32514,0.5373 -0.86243,0.21216c-0.53728,-0.32515 -0.21216,-0.86243 -0.21216,-0.86243l0.39551,-0.63003c0.50901,-0.55567 1.01784,-1.11151 1.52857,-1.6656c0.88075,-1.33113 2.7177,-2.52611 3.99038,-3.24461c1.02798,-0.58037 2.23165,-0.09501 3.32687,-0.74887c0.4054,-0.24201 0.48192,-0.83932 0.85402,-1.1299c0.19068,-0.14891 0.50721,-0.05858 0.69416,-0.2122c0.98826,-0.81181 0.8924,-1.17504 2.27612,-1.40154c0,0 0.62052,-0.09661 0.71715,0.52392c0.09661,0.62052 -0.52392,0.71715 -0.52392,0.71715c-1.67746,0.24426 -2.07054,1.73178 -3.35142,2.56743c-0.87841,0.57306 -1.98604,0.67304 -2.9521,0.64174c-0.03842,-0.00123 -0.07347,-0.00048 -0.10554,0.00211c0.05054,0.12465 0.05531,0.23297 0.05531,0.23297c0.01006,0.2293 0.02007,0.45856 0.03015,0.68783l-0.24651,0.54143c0,0 -0.42418,0.46309 -0.88727,0.03892c-0.30957,-0.28355 -0.22261,-0.58448 -0.13097,-0.75287c-0.0003,-0.00695 -0.00062,-0.01391 -0.00092,-0.02082c-0.13526,0.00082 -0.27109,0.00043 -0.38876,0.05712c-0.32611,0.15729 -0.47798,0.5354 -0.70726,0.8241c0.18768,0.04222 0.31971,0.16317 0.31971,0.16317l-0.50675,1.14919c-0.26171,-0.07467 -0.52341,-0.14933 -0.78513,-0.22403z" fill="#a00000" fill-rule="nonzero" stroke="none" stroke-width="0.5" stroke-linecap="butt" stroke-linejoin="miter"/><path d="M338.27879,174.3677c-0.53728,-0.32515 -0.21216,-0.86243 -0.21216,-0.86243l0.28512,-0.46181c0.11185,-0.249 0.2237,-0.49799 0.33555,-0.74701c0.38932,-0.59576 0.62257,-1.55644 1.17034,-2.02149c0.47509,-0.40337 1.33658,-0.62875 1.88815,-0.93585c1.52919,-0.8515 3.23229,-1.87019 4.62317,-2.91675c1.23519,-0.9294 2.37194,-2.78642 3.43895,-3.95129c0,0 0.42418,-0.46309 0.88727,-0.03892c0.46309,0.42418 0.03892,0.88727 0.03892,0.88727c-1.13837,1.24277 -2.29773,3.10425 -3.61609,4.11113c-1.42498,1.0883 -3.19485,2.13611 -4.76537,3.00819c-0.05082,0.02821 -1.56211,0.69777 -1.6552,0.77011c-0.38522,0.29937 -0.64107,1.27688 -0.90681,1.68768c-0.09731,0.21961 -0.19466,0.4392 -0.29198,0.65885l-0.35749,0.6001c0,0 -0.32514,0.5373 -0.86243,0.21216z" fill="#a00000" fill-rule="nonzero" stroke="none" stroke-width="0.5" stroke-linecap="butt" stroke-linejoin="miter"/><path d="M325.744,171.89601c-0.0275,-0.62743 0.59989,-0.65492 0.59989,-0.65492l0.49768,0.00816c1.64868,-1.40782 3.34992,-2.85145 5.06807,-4.18239c1.35084,-1.04642 1.75605,-2.94079 3.78776,-2.30139c0,0 0.58752,0.22188 0.36564,0.80938c-0.22185,0.58751 -0.80937,0.36564 -0.80937,0.36564c-0.78188,-0.41191 -1.49475,0.96065 -1.99858,1.50496c-1.71105,1.8486 -3.9492,3.49121 -5.97828,4.98195l-0.878,0.06849c0,0 -0.62738,0.0275 -0.65492,-0.59989z" fill="#a00000" fill-rule="nonzero" stroke="none" stroke-width="0.5" stroke-linecap="butt" stroke-linejoin="miter"/><path d="M325.00446,170.47772c-0.46309,-0.42418 -0.03892,-0.88727 -0.03892,-0.88727l0.40486,-0.42935c1.81059,-1.417 3.36713,-3.04307 5.2888,-4.31339c1.1986,-0.79236 2.71911,-1.14679 3.82295,-2.03013c0,0 0.49455,-0.38706 0.88161,0.10751c0.38706,0.49455 -0.10751,0.88161 -0.10751,0.88161c-1.17562,0.90436 -2.67589,1.276 -3.92137,2.09983c-1.88619,1.24759 -3.4105,2.85073 -5.19037,4.24373l-0.25279,0.28863c0,0 -0.42418,0.46309 -0.88727,0.03892z" fill="#a00000" fill-rule="nonzero" stroke="none" stroke-width="0.5" stroke-linecap="butt" stroke-linejoin="miter"/><path d="M349.22968,172.84763c-0.53149,-0.3345 -0.19701,-0.866 -0.19701,-0.866l0.05579,-0.08865c1.2017,-1.5691 1.3014,-1.54974 2.86645,-0.53773c0,0 0.52654,0.34226 0.18422,0.86883c-0.34226,0.52654 -0.86883,0.18422 -0.86883,0.18422c-0.28608,-0.1871 -0.55542,-0.88271 -0.79899,-0.64285c-0.20388,0.20073 -0.21326,0.53105 -0.31985,0.79657l-0.05579,0.08865c0,0 -0.3345,0.53149 -0.866,0.19701z" fill="#a00000" fill-rule="nonzero" stroke="none" stroke-width="0.5" stroke-linecap="butt" stroke-linejoin="miter"/><path d="M347.38222,173.94863c0.42418,-0.46309 0.88727,-0.03892 0.88727,-0.03892l0.08976,0.08225c0.35899,0.32887 0.71801,0.6577 1.07701,0.98655c0,0 0.46309,0.42418 0.03892,0.88727c-0.42418,0.46309 -0.88727,0.03892 -0.88727,0.03892c-0.35898,-0.32881 -0.80777,-0.73991 -1.16676,-1.06873c0,0 -0.46309,-0.42418 -0.03892,-0.88727z" fill="#a00000" fill-rule="nonzero" stroke="none" stroke-width="0.5" stroke-linecap="butt" stroke-linejoin="miter"/><path d="M344.98426,173.95583c0.6274,-0.02748 0.65492,0.59989 0.65492,0.59989l-0.31467,0.74834c-0.22426,0.1247 -0.44851,0.2494 -0.67275,0.37407c0,0 -0.54887,0.30517 -0.85405,-0.24371c-0.30521,-0.54886 0.24368,-0.85403 0.24368,-0.85403c0.12631,-0.07027 0.25269,-0.1405 0.37899,-0.21074c0.05641,-0.18013 0.19996,-0.39787 0.56391,-0.41383z" fill="#a00000" fill-rule="nonzero" stroke="none" stroke-width="0.5" stroke-linecap="butt" stroke-linejoin="miter"/><path d="M338.09695,203.59218c-0.62497,-0.06153 -0.56347,-0.68648 -0.56347,-0.68648l0.19002,-0.15707c-0.23042,-0.29629 -0.47999,-0.56454 -0.731,-0.83129c-0.11547,-0.01458 -0.19717,-0.05106 -0.19717,-0.05106c-0.21294,-0.09641 -0.44146,-0.16401 -0.63882,-0.28922c-0.07515,-0.04769 -0.10319,-0.28674 -0.15713,-0.21596c-0.16052,0.21072 0.01093,0.72411 -0.25233,0.75357c-0.48211,0.05397 -0.91437,-0.3369 -1.33658,-0.57575c-0.23717,-0.13417 -0.36025,-0.87671 -0.50282,-0.64451c-0.11429,0.18619 -0.01555,0.58043 -0.23156,0.61317c-0.9135,0.13852 -2.22225,-0.62361 -1.58531,-1.84861c0.18575,-0.35722 0.78117,-0.19543 1.17179,-0.29315l0.54146,0.24652c0,0 0.08992,0.08236 0.1542,0.21411c0.18305,0.02498 0.39493,0.08576 0.63298,0.19222c0.24482,0.10948 0.44114,0.32004 0.59983,0.53621c0.07977,0.10872 0.02608,0.51732 0.08431,0.3957c0.09179,-0.19182 -0.16266,-0.54988 0.03128,-0.6372c0.26863,-0.12094 0.55877,-0.11621 0.84628,-0.05141c0.03543,-0.04631 0.0806,-0.09213 0.13727,-0.13648c0.49455,-0.38706 0.88161,0.10751 0.88161,0.10751c0.48389,0.62225 1.05233,1.12079 1.54082,1.74152l0.07084,1.05421c0,0 -0.06153,0.62497 -0.68648,0.56347z" fill="#a00000" fill-rule="nonzero" stroke="none" stroke-width="0.5" stroke-linecap="butt" stroke-linejoin="miter"/><path d="M334.74751,205.72669c-0.6274,0.02748 -0.65492,-0.59989 -0.65492,-0.59989l-0.01059,-0.66887c0.04727,-0.23177 0.09455,-0.46358 0.1418,-0.69539c0,0 0.12551,-0.61535 0.74082,-0.48986c0.61535,0.12551 0.48986,0.74082 0.48986,0.74082c-0.04727,0.23179 -0.09455,0.46361 -0.1418,0.69539l0.03468,0.36287c0,0 0.02748,0.6274 -0.59989,0.65492z" fill="#a00000" fill-rule="nonzero" stroke="none" stroke-width="0.5" stroke-linecap="butt" stroke-linejoin="miter"/><path d="M331.75659,206.15604l0.40351,-0.62072c0,0 0.34226,-0.52654 0.86883,-0.18422c0.52654,0.34226 0.18422,0.86883 0.18422,0.86883l-0.40351,0.62072c0,0 -0.34226,0.52654 -0.86883,0.18422c-0.52654,-0.34226 -0.18422,-0.86883 -0.18422,-0.86883z" fill="#a00000" fill-rule="nonzero" stroke="none" stroke-width="0.5" stroke-linecap="butt" stroke-linejoin="miter"/><path d="M337.70488,209.69976c-0.5865,0.22453 -0.81102,-0.36201 -0.81102,-0.36201l-0.12611,-0.60415c0.04727,-0.23179 0.09455,-0.46361 0.1418,-0.69539c0,0 0.0381,-0.18674 0.17517,-0.33348c-0.0882,-0.21757 -0.05026,-0.47593 0.11887,-0.66059c0.2343,-0.25575 0.63153,-0.27319 0.88727,-0.03892c0.25575,0.2343 0.27319,0.63153 0.03892,0.88727c-0.0066,0.00721 -0.01335,0.01424 -0.02021,0.02104c0.06873,0.18877 0.03065,0.37565 0.03065,0.37565c-0.04727,0.23179 -0.09455,0.46361 -0.1418,0.69539l0.06846,-0.0958c0,0 0.22448,0.58651 -0.36201,0.81102z" fill="#a00000" fill-rule="nonzero" stroke="none" stroke-width="0.5" stroke-linecap="butt" stroke-linejoin="miter"/><path d="M333.96371,200.22211c-0.02748,-0.6274 0.59989,-0.65492 0.59989,-0.65492l0.42132,0.03237c0.00941,0.00356 0.01881,0.00711 0.02821,0.01067c0.05735,-0.1711 0.22863,-0.4969 0.69073,-0.42539c0.62059,0.09606 0.52455,0.71669 0.52455,0.71669l-0.06033,0.3101c0.01747,0.46364 0.09532,0.83777 -0.018,1.09806c0.04786,0.08611 0.07407,0.18139 0.07834,0.27761l0.03014,0.68786v0c0.00704,0.16057 -0.04715,0.32382 -0.16431,0.45173c-0.1661,0.18135 -0.41417,0.24285 -0.6356,0.17979l-0.142,0.40568c-0.02691,0.08283 -0.07155,0.16138 -0.13424,0.22983c-0.2343,0.25575 -0.63153,0.27319 -0.88727,0.03892c-0.0778,-0.07124 -0.13349,-0.15759 -0.16681,-0.25041l-0.28735,-0.75072l0.00692,-0.00266l-0.0151,-0.02002c-0.14598,-0.50086 -0.23894,-1.02142 -0.26499,-1.54245c0,0 -0.02194,-0.50026 0.42007,-0.62695c-0.013,-0.04941 -0.0214,-0.10445 -0.02408,-0.16574zM334.81718,200.91066c0.00228,-0.00975 0.0045,-0.01948 0.00677,-0.02924c-0.00419,-0.00159 -0.0084,-0.00316 -0.0126,-0.00475c0.00243,0.01247 0.00431,0.02389 0.0058,0.03402z" fill="#ffffff" fill-rule="nonzero" stroke="none" stroke-width="0.5" stroke-linecap="butt" stroke-linejoin="miter"/><path d="M340.23091,175.635c0.61721,-0.11596 0.73316,0.50121 0.73316,0.50121l-0.28801,0.42177c0.17766,-0.07471 0.34597,-0.13625 0.47166,-0.17544c0,0 0.60197,-0.17886 0.78085,0.42314c0.17884,0.60197 -0.42314,0.78085 -0.42314,0.78085c-1.27147,0.35218 -2.45494,2.00624 -2.68895,-0.39645c-0.02235,-0.2292 0.08843,-0.45147 0.1379,-0.67696l-0.02758,-0.62938l0.25233,-0.01105l0.22204,-0.6255c0.16935,0.14622 0.33911,0.29339 0.5123,0.43612l0.20663,-0.09948l0.0334,0.06939c0.02447,-0.00696 0.05025,-0.01305 0.07749,-0.01816z" fill="#8da900" fill-rule="nonzero" stroke="none" stroke-width="0.5" stroke-linecap="butt" stroke-linejoin="miter"/><path d="M333.48402,171.01417c0,0 0.62185,-0.02726 0.65451,0.5916c0.20292,-0.05801 0.43036,-0.0124 0.5974,0.14062c0.12786,0.11715 0.19618,0.27502 0.20321,0.43558v0l0.01524,0.34737c0.0987,0.11146 0.21114,0.20651 0.34279,0.2754l0.57606,0.1048c0,0 0.5175,0.10555 0.50656,0.59763c0.1654,0.0471 0.42804,0.17748 0.45121,0.53228c0.46052,0.07098 1.07074,0.20036 1.25578,0.2375l0.38846,0.23448c0,0 0.12536,0.11486 0.18587,0.29025c0.05354,-0.03498 0.10806,-0.06724 0.1643,-0.09431c0,0 0.56583,-0.27242 0.83825,0.2934c0.27243,0.56583 -0.2934,0.83825 -0.2934,0.83825c-0.08908,0.04287 -0.31188,0.15236 -0.55653,0.26824c-0.00428,0.1453 -0.05877,0.28978 -0.16464,0.40537c-0.08844,0.09653 -0.20008,0.15914 -0.3186,0.18703c-0.15424,0.18605 -0.38483,0.20626 -0.5126,0.20097c0.00076,0.00374 0.00151,0.00745 0.00221,0.01121c0.14799,0.23365 0.12801,0.54625 -0.06779,0.76c-0.2343,0.25575 -0.63153,0.27319 -0.88727,0.03892c-0.11067,-0.10138 -0.17674,-0.23327 -0.19706,-0.37104c-0.07547,-0.10656 -0.1452,-0.2186 -0.20832,-0.33483c-0.01937,-0.01486 -0.03887,-0.03116 -0.05841,-0.04909c-0.21706,-0.19882 -0.23919,-0.40621 -0.20143,-0.57045c-0.06328,-0.2082 -0.10504,-0.42188 -0.12168,-0.63521l-0.05639,-0.05719c0,0 -0.08051,-0.21025 -0.01918,-0.42717c-0.07359,-0.16776 -0.10786,-0.34596 -0.08851,-0.52976c-0.66157,0.10009 -1.17206,0.91646 -1.86868,0.6531c-0.97113,-0.36713 -0.76651,-1.73214 -0.61042,-2.53107c-0.23092,0.00023 -0.46151,0.00414 -0.68979,0.03583c-0.35902,0.04985 -0.76957,0.42263 -1.06607,0.21421c-0.35888,-0.25225 -0.34711,-1.51746 -0.36396,-1.96398l0.03497,-0.07118l-0.02427,-0.00492l0.13975,-0.68528c0.02076,-0.11162 0.072,-0.21898 0.15432,-0.30883c0.2343,-0.25575 0.63153,-0.27319 0.88727,-0.03892c0.02495,0.02286 0.04767,0.0473 0.06807,0.07301l0.53918,0.65687l-0.01149,0.00942c0.16668,0.13538 0.33013,0.27456 0.48878,0.41922l-0.10777,-0.17939zM334.57518,173.81209c-0.01119,-0.00643 -0.02239,-0.01278 -0.03365,-0.01914c-0.0038,0.02084 -0.00752,0.04136 -0.01121,0.0614c0.01402,-0.01421 0.02902,-0.0283 0.04487,-0.04225z" fill="#8da900" fill-rule="nonzero" stroke="none" stroke-width="0.5" stroke-linecap="butt" stroke-linejoin="miter"/><path d="M333.39256,175.36854c1.32791,0.26405 1.5288,0.4699 1.79144,1.31225c0.42211,0.04371 0.76464,0.63077 0.96653,1.20631l0.32257,-0.0814c0.48799,0.34605 0.8884,0.86565 1.08255,1.43147c0,0 0.17884,0.60197 -0.42314,0.78088c-0.60201,0.17887 -0.78088,-0.42314 -0.78088,-0.42314c-0.00605,-0.02828 -0.01352,-0.05641 -0.02232,-0.08435c-0.21905,0.09858 -0.48463,0.06605 -0.67497,-0.10298c-0.24158,-0.01576 -0.37956,-0.13849 -0.45821,-0.26882l-0.50188,-0.292c-0.08823,-0.16729 -0.25334,-0.33256 -0.38958,-0.4986c-0.59939,0.09872 -0.71275,-0.50486 -0.71275,-0.50486l0.08064,-0.25094c-0.37041,-0.34146 -0.72579,-0.71893 -1.02767,-1.13081l-0.20189,0.15801l-0.44993,-0.57486c-0.19286,-0.2376 -0.18783,-0.58692 0.0251,-0.81937c0.19081,-0.20833 0.48976,-0.2585 0.73228,-0.14337l0.64217,0.28664z" fill="#8da900" fill-rule="nonzero" stroke="none" stroke-width="0.5" stroke-linecap="butt" stroke-linejoin="miter"/><path d="M339.57689,178.71979c-0.62052,0.09661 -0.71715,-0.52392 -0.71715,-0.52392l0.08479,-1.33727c0.45775,0.03023 0.91554,0.06049 1.37328,0.09072c0,0 0.60391,0.17231 0.43159,0.7762c-0.12201,0.42758 -0.46038,0.46603 -0.64756,0.45206c-0.01986,0.1912 -0.11877,0.47894 -0.52496,0.54221z" fill="#a00000" fill-rule="nonzero" stroke="none" stroke-width="0.5" stroke-linecap="butt" stroke-linejoin="miter"/><path d="M338.20115,178.08296c-0.42418,0.46309 -0.88727,0.03892 -0.88727,0.03892l-0.1795,-0.16442c-0.22416,-0.21091 -0.39188,-0.47379 -0.52009,-0.76099l-0.16008,0.07708l-0.278,-0.57738c-0.11573,-0.22678 -0.08569,-0.51102 0.09642,-0.70979c0.18207,-0.1988 0.46259,-0.25358 0.69862,-0.15814l0.5995,0.2264l-0.01585,0.042l0.12296,0.01056c0.21122,0.18837 0.42249,0.37675 0.63371,0.56511c0,0 0.4524,0.41441 0.05334,0.87115c0.03651,0.15317 0.01642,0.34284 -0.16376,0.53954z" fill="#a00000" fill-rule="nonzero" stroke="none" stroke-width="0.5" stroke-linecap="butt" stroke-linejoin="miter"/><path d="M334.98493,177.22184c-0.54887,0.30517 -0.85405,-0.24371 -0.85405,-0.24371l-0.17325,-0.31284c-0.08339,-0.14856 -0.2123,-0.28747 -0.32427,-0.42996c-0.29804,0.0577 -0.54456,-0.16807 -0.54456,-0.16807l-0.718,-0.65767c-0.07824,-0.07165 -0.13421,-0.1586 -0.16741,-0.25204c-0.01598,-0.01041 -0.03199,-0.02093 -0.04797,-0.03149l-0.22405,-0.13552c0,0 -0.53728,-0.32515 -0.21215,-0.86243c0.07695,-0.12715 0.16578,-0.20604 0.2566,-0.25231c0.22947,-0.13353 0.46434,-0.05144 0.58672,0.01143c0.01804,-0.119 0.0704,-0.23411 0.15781,-0.32956c0.18207,-0.1988 0.46259,-0.25358 0.69862,-0.15814l0.5995,0.2264l-0.00842,0.02232l0.07028,0.00495c0.52566,0.34041 1.01652,0.73634 1.47917,1.15837c0,0 0.46309,0.42418 0.03892,0.88727c-0.02716,0.02963 -0.05444,0.05561 -0.08174,0.07832c-0.00278,0.07908 -0.02343,0.16604 -0.06995,0.26039c-0.01253,0.13117 -0.06621,0.25951 -0.16208,0.36419c-0.00896,0.00979 -0.01815,0.01922 -0.02758,0.02831c0.06076,0.15235 0.16429,0.54909 -0.27213,0.79177z" fill="#a00000" fill-rule="nonzero" stroke="none" stroke-width="0.5" stroke-linecap="butt" stroke-linejoin="miter"/><path d="M331.40541,173.03989c-0.25575,-0.2343 -0.27319,-0.63153 -0.03892,-0.88727c0.2343,-0.25575 0.63153,-0.27319 0.88727,-0.03892c0.25575,0.2343 0.27319,0.63153 0.03892,0.88727c-0.2343,0.25575 -0.63153,0.27319 -0.88727,0.03892z" fill="#a00000" fill-rule="nonzero" stroke="none" stroke-width="0.5" stroke-linecap="butt" stroke-linejoin="miter"/><path d="M336.14394,176.36313c-0.21181,0.23123 -0.43331,0.24125 -0.60202,0.19329c-0.01176,0.00654 -0.02363,0.01273 -0.03567,0.01849c0.07577,0.06235 0.14797,0.13329 0.21512,0.21545c0.14474,0.17712 0.23345,0.39751 0.3343,0.60708c0.50711,0.45835 0.99952,0.92987 1.4866,1.37598l0.62826,0.57549c0.25575,0.2343 0.27319,0.63153 0.03892,0.88727c-0.21289,0.23243 -0.56043,0.26802 -0.81403,0.0967l-0.47321,-0.30759c-0.27851,0.23516 -0.65062,0.06905 -0.65062,0.06905c-2.14918,-0.9593 -3.21438,-2.2355 -4.62878,-4.04278l-0.44993,-0.57486c-0.19286,-0.2376 -0.18783,-0.58692 0.0251,-0.81937c0.06363,-0.06948 0.1393,-0.12135 0.22088,-0.15539c-0.10753,-0.15773 -0.2295,-0.4547 0.05899,-0.76973c0.26697,-0.29144 0.54928,-0.23146 0.72196,-0.14695c0.00737,-0.00197 0.01482,-0.00388 0.02246,-0.00565c0.08633,-0.16626 0.29754,-0.43556 0.72653,-0.31315c0.60391,0.17233 0.43159,0.77621 0.43159,0.77621c-0.06283,0.12325 -0.10227,0.27109 -0.14417,0.41635c0.1429,-0.01989 0.31186,0.01394 0.48641,0.17379c0.42122,0.38584 0.10836,0.80388 0.04832,0.8763c0.05521,0.10157 0.12286,0.1856 0.2,0.25725c0.04859,0.03121 0.09704,0.06282 0.14522,0.09491c0.08469,-0.04107 0.17693,-0.06216 0.26946,-0.06286c0.19731,-0.15944 0.3828,-0.33402 0.55233,-0.52165l1.14715,0.19915c0,0 0.46309,0.42418 0.03892,0.88727zM333.67375,175.18628c0.02012,0.09146 0.04693,0.17311 0.07954,0.24643z" fill="#000000" fill-rule="nonzero" stroke="none" stroke-width="0.5" stroke-linecap="butt" stroke-linejoin="miter"/><path d="M333.79272,174.97409l0.61499,0.37213" fill="none" fill-rule="nonzero" stroke="#001026" stroke-width="1.2" stroke-linecap="round" stroke-linejoin="miter"/><path d="M332.87026,174.41589l2.09169,1.05572" fill="none" fill-rule="nonzero" stroke="#a00000" stroke-width="1.2" stroke-linecap="round" stroke-linejoin="miter"/><path d="M335.64594,175.14229l-1.95676,0.88401" fill="none" fill-rule="nonzero" stroke="#000000" stroke-width="1.2" stroke-linecap="round" stroke-linejoin="miter"/><path d="M333.40229,172.89591l-0.47964,2.71499" fill="none" fill-rule="nonzero" stroke="#000000" stroke-width="1.2" stroke-linecap="round" stroke-linejoin="miter"/><path d="M337.28437,185.0561c0.47272,-0.4134 0.88617,0.05933 0.88617,0.05933l0.4611,0.53255c-0.00565,0.0284 -0.01131,0.05677 -0.01697,0.08512l0.05218,-0.02901l0.31791,0.57175c0.10259,0.17472 0.11416,0.38967 0.03166,0.57417c0.27018,0.75315 0.08313,2.00548 -1.10632,2.04177c-1.19642,0.03651 -2.32201,-2.04057 -1.40589,-2.9873c0.1654,-0.17092 0.3592,-0.26223 0.56395,-0.29146c-0.03123,-0.16359 -0.00146,-0.36654 0.21623,-0.55691z" fill="#a00000" fill-rule="nonzero" stroke="none" stroke-width="0.5" stroke-linecap="butt" stroke-linejoin="miter"/><path d="M337.58146,187.3254c-0.25575,-0.2343 -0.27319,-0.63153 -0.03892,-0.88727c0.2343,-0.25575 0.63153,-0.27319 0.88727,-0.03892c0.25575,0.2343 0.27319,0.63153 0.03892,0.88727c-0.2343,0.25575 -0.63153,0.27319 -0.88727,0.03892z" fill="#ffffff" fill-rule="nonzero" stroke="none" stroke-width="0.5" stroke-linecap="butt" stroke-linejoin="miter"/><path d="M334.47715,175.79218l-1.7886,-0.96922l0.39792,-1.16488" fill="none" fill-rule="nonzero" stroke="#000000" stroke-width="1.2" stroke-linecap="round" stroke-linejoin="miter"/><path d="M333.47292,189.40125c-0.2343,0.25575 -0.63153,0.27319 -0.88727,0.03892c-0.02916,-0.02669 -0.0552,-0.05553 -0.0781,-0.08599c0.00549,0.15866 -0.04883,0.31951 -0.16452,0.44588c-0.2343,0.25575 -0.63153,0.27319 -0.88727,0.03892c-0.08538,-0.07821 -0.14424,-0.17459 -0.17598,-0.27783c-0.23097,0.13314 -0.53073,0.10843 -0.73774,-0.08123c-0.04018,-0.03681 -0.07448,-0.07766 -0.10285,-0.12127c-0.23703,0.179 -0.57525,0.16923 -0.80214,-0.03859c-0.25575,-0.2343 -0.27319,-0.63153 -0.03892,-0.88727c0.01821,-0.01988 0.03741,-0.03831 0.05746,-0.05531c-0.2152,-0.23754 -0.21797,-0.60424 0.00286,-0.84531c0.2343,-0.25575 0.63153,-0.27319 0.88727,-0.03892c0.01988,0.01821 0.03833,0.03742 0.05533,0.05745c0.23754,-0.2152 0.60424,-0.21797 0.84531,0.00286c0.04445,0.04068 0.08166,0.08635 0.11168,0.13531c0.232,-0.13835 0.53628,-0.11529 0.74572,0.07654c0.06212,0.0569 0.11017,0.12339 0.14395,0.19514c0.23422,-0.15176 0.55,-0.13299 0.76543,0.06433c0.05063,0.04638 0.09191,0.09913 0.12377,0.15592c0.22258,-0.10196 0.49411,-0.06784 0.68604,0.10793c0.25575,0.2343 0.27319,0.63153 0.03892,0.88727c-0.14825,0.16182 -0.3617,0.22823 -0.56335,0.19583c-0.00811,0.01003 -0.0166,0.01986 -0.02544,0.02954zM332.30405,188.91281c0.02916,0.02669 0.0552,0.05553 0.0781,0.08599c-0.00038,-0.01084 -0.00047,-0.02166 -0.00028,-0.03249c-0.00581,-0.00497 -0.01157,-0.01006 -0.01725,-0.01525c-0.06212,-0.0569 -0.11017,-0.12339 -0.14395,-0.19514c-0.02736,0.01774 -0.05585,0.03313 -0.08513,0.04621c0.06027,0.02686 0.11725,0.06369 0.16856,0.1107zM331.53716,188.75512c0.01143,0.02491 0.0211,0.05047 0.02912,0.07642c0.01874,-0.01079 0.03794,-0.02059 0.05753,-0.02933c-0.02977,-0.01329 -0.05871,-0.02895 -0.08661,-0.04714zM330.52706,188.43583c0.02273,0.02511 0.04313,0.05165 0.06109,0.07931c0.00905,-0.00683 0.01826,-0.0134 0.02758,-0.01968c-0.00601,-0.00515 -0.012,-0.01037 -0.01789,-0.01575c-0.01988,-0.01821 -0.03831,-0.03741 -0.05531,-0.05746c-0.0051,0.00464 -0.01027,0.00916 -0.01548,0.01356z" fill="#e93e3e" fill-rule="nonzero" stroke="none" stroke-width="0.5" stroke-linecap="butt" stroke-linejoin="miter"/><path d="M340.06507,195.24851c-0.2343,0.25575 -0.63153,0.27319 -0.88727,0.03892c-0.06769,-0.06198 -0.11868,-0.13538 -0.15273,-0.21458c-0.13066,-0.01275 -0.25845,-0.06642 -0.36267,-0.16193c-0.10683,-0.09782 -0.17204,-0.22409 -0.19474,-0.35661c-0.16849,0.01408 -0.34212,-0.03953 -0.47657,-0.16271c-0.12613,-0.11551 -0.19424,-0.27062 -0.20287,-0.42886c-0.20849,0.0682 -0.4467,0.025 -0.61999,-0.13372c-0.13623,-0.1248 -0.20486,-0.29581 -0.2038,-0.4671c-0.19619,0.04714 -0.41149,-0.00092 -0.57147,-0.14748c-0.2022,-0.1852 -0.25543,-0.47231 -0.15309,-0.71077c-0.13808,-0.0087 -0.27419,-0.06293 -0.38414,-0.16365c-0.13607,-0.12464 -0.20466,-0.29539 -0.20381,-0.46641c-0.2282,0.12109 -0.51729,0.09266 -0.71864,-0.0918c-0.10683,-0.09782 -0.17204,-0.22409 -0.19474,-0.35661c-0.16848,0.01405 -0.34212,-0.03953 -0.47657,-0.16271c-0.05471,-0.05013 -0.09852,-0.1077 -0.13126,-0.16973c-0.06468,-0.02722 -0.12586,-0.06579 -0.18058,-0.1159c-0.04217,-0.03864 -0.07785,-0.0817 -0.107,-0.12781c-0.11002,-0.02125 -0.21572,-0.07222 -0.30443,-0.1535c-0.14969,-0.13713 -0.21776,-0.3301 -0.20144,-0.51786c-0.11812,-0.01838 -0.23225,-0.07061 -0.32705,-0.15742c-0.25575,-0.2343 -0.27319,-0.63153 -0.03892,-0.88727c0.2343,-0.25575 0.63153,-0.27319 0.88727,-0.03892c0.14969,0.13713 0.21776,0.3301 0.20144,0.51786c0.11812,0.01838 0.23225,0.07061 0.32705,0.15742c0.04217,0.03864 0.07785,0.0817 0.107,0.12781c0.11004,0.02127 0.21572,0.07222 0.30443,0.1535c0.05471,0.05013 0.09855,0.10769 0.13128,0.16972c0.06468,0.02722 0.12583,0.0658 0.18056,0.11595c0.10683,0.09782 0.17204,0.22409 0.19474,0.35661c0.16847,-0.01404 0.34207,0.03956 0.47656,0.1627c0.13607,0.12464 0.20466,0.29539 0.20381,0.46641c0.22822,-0.12109 0.51729,-0.09266 0.71864,0.0918c0.20219,0.18523 0.25543,0.47231 0.15309,0.71077c0.13808,0.0087 0.27419,0.06293 0.38414,0.16365c0.13623,0.1248 0.20486,0.29581 0.2038,0.4671c0.19619,-0.04714 0.41149,0.00092 0.57147,0.14748c0.12613,0.11551 0.19423,0.27062 0.20287,0.42886c0.20848,-0.06818 0.4467,-0.025 0.61999,0.13372c0.10683,0.09782 0.17204,0.22409 0.19474,0.35661c0.16847,-0.01404 0.34212,0.03953 0.47657,0.16271c0.06769,0.06198 0.11868,0.13538 0.15273,0.21458c0.13066,0.01275 0.25845,0.06642 0.36267,0.16193c0.25575,0.2343 0.27319,0.63153 0.03892,0.88727z" fill="#e93e3e" fill-rule="nonzero" stroke="none" stroke-width="0.5" stroke-linecap="butt" stroke-linejoin="miter"/><path d="M329.84838,187.31524c-0.25575,-0.2343 -0.27319,-0.63153 -0.03892,-0.88727c0.2208,-0.24108 0.58636,-0.2704 0.84182,-0.07681c0.01519,-0.02145 0.03186,-0.04219 0.05007,-0.06207c0.2343,-0.25575 0.63153,-0.27319 0.88727,-0.03892c0.09898,0.09069 0.16228,0.20578 0.18907,0.32764c0.01012,-0.01297 0.02085,-0.02566 0.03218,-0.03801c0.2343,-0.25575 0.63153,-0.27319 0.88727,-0.03892c0.092,0.08426 0.15314,0.18961 0.18285,0.30186c0.22209,-0.10042 0.49217,-0.0659 0.68328,0.10916c0.06769,0.06201 0.11868,0.13543 0.15272,0.21464c0.22664,-0.11524 0.51049,-0.08509 0.70902,0.09681c0.25575,0.2343 0.27319,0.63153 0.03892,0.88727c-0.2343,0.25575 -0.63153,0.27319 -0.88727,0.03892c-0.06769,-0.06201 -0.11868,-0.13543 -0.15272,-0.21464c-0.22664,0.11524 -0.51049,0.08509 -0.70902,-0.09681c-0.09199,-0.08426 -0.15314,-0.18961 -0.18285,-0.30186c-0.22209,0.10042 -0.49217,0.06588 -0.68328,-0.10916c-0.09898,-0.09069 -0.16228,-0.20578 -0.18907,-0.32764c-0.01012,0.01297 -0.02085,0.02566 -0.03218,0.03801c-0.2208,0.24108 -0.58637,0.27036 -0.84181,0.0768c-0.0152,0.02147 -0.03185,0.04219 -0.05008,0.06207c-0.2343,0.25575 -0.63153,0.27319 -0.88727,0.03892z" fill="#e93e3e" fill-rule="nonzero" stroke="none" stroke-width="0.5" stroke-linecap="butt" stroke-linejoin="miter"/><path d="M341.64813,196.86892c-0.05115,-0.04682 -0.05462,-0.12628 -0.00778,-0.17745c0.04682,-0.05115 0.12628,-0.05462 0.17745,-0.00778c0.05115,0.04682 0.05462,0.12628 0.00778,0.17745c-0.04682,0.05115 -0.12628,0.05462 -0.17745,0.00778z" fill="#a00000" fill-rule="nonzero" stroke="none" stroke-width="0.5" stroke-linecap="butt" stroke-linejoin="miter"/><path d="M342.75979,194.56144c0.01923,-0.12412 0.14332,-0.1049 0.14332,-0.1049l0.00581,0.00089c0.1655,0.02562 0.33099,0.05124 0.49646,0.07685c0,0 0.12412,0.01923 0.1049,0.14332c-0.01923,0.12412 -0.14332,0.1049 -0.14332,0.1049c-0.16548,-0.02562 -0.33678,-0.05212 -0.5023,-0.07775c0,0 -0.12412,-0.01923 -0.1049,-0.14332z" fill="#a00000" fill-rule="nonzero" stroke="none" stroke-width="0.5" stroke-linecap="butt" stroke-linejoin="miter"/><path d="M343.46529,196.06911c-0.08032,0.08768 -0.19253,0.12868 -0.3026,0.1215c0.04566,0.10005 0.06382,0.24358 -0.07389,0.39388c-0.25454,0.27787 -0.53238,0.02335 -0.53238,0.02335l-0.05482,-0.05715c-0.03605,-0.02383 -0.0719,-0.04633 -0.10757,-0.06779c-0.03828,0.02225 -0.07976,0.03727 -0.12238,0.04494c0.02524,0.0288 0.05016,0.07869 0.01033,0.14454c-0.01299,0.02145 -0.02762,0.03602 -0.04282,0.04559c-0.00511,0.00858 -0.01156,0.01737 -0.01966,0.02615c-0.08486,0.09262 -0.17745,0.00778 -0.17745,0.00778l-0.05198,-0.0476c-0.04459,-0.04399 -0.08396,-0.09549 -0.11604,-0.15148c-0.06565,-0.04806 -0.13418,-0.09913 -0.20338,-0.14881c-0.00466,0.00503 -0.00935,0.01026 -0.01412,0.01561l-0.18671,0.04501c0,0 -0.01986,0.00087 -0.04411,-0.00596c-0.00443,0.00763 -0.00978,0.01489 -0.01598,0.02169c-0.04682,0.05115 -0.12628,0.05462 -0.17745,0.00778c-0.02504,-0.02296 -0.03867,-0.05372 -0.04053,-0.08514c-0.00381,0.00303 -0.00775,0.00583 -0.01184,0.00836c-0.00875,0.02109 -0.02407,0.04288 -0.05084,0.05667c-0.00481,0.009 -0.01085,0.01755 -0.01807,0.02543c-0.04682,0.05115 -0.12628,0.05462 -0.17745,0.00778c-0.03911,-0.03582 -0.05033,-0.09066 -0.03256,-0.13736c-0.0014,-0.00292 -0.0027,-0.00587 -0.00385,-0.00883c-0.017,-0.04325 -0.00922,-0.09427 0.02428,-0.13087c0.00223,-0.00244 0.00452,-0.00478 0.00689,-0.00698c-0.00693,-0.05709 -0.01584,-0.11342 -0.02493,-0.1697c-0.06412,-0.0183 -0.1283,-0.03661 -0.19246,-0.0549c0,0 -0.12078,-0.03446 -0.08631,-0.15525c0.02283,-0.07992 0.08343,-0.09184 0.1218,-0.09081c0.00693,-0.02228 0.01451,-0.04395 0.02273,-0.06499c-0.0458,-0.04193 -0.09163,-0.08391 -0.13739,-0.12583l-0.05797,0.0633c0,0 -0.03464,0.0378 -0.08378,0.04299c0.02215,0.02929 0.05498,0.09283 -0.00706,0.16057c-0.08486,0.09262 -0.17745,0.00778 -0.17745,0.00778l-0.05198,-0.0476c-0.05198,-0.0476 -0.10393,-0.09519 -0.15592,-0.14282c0,0 -0.09262,-0.08486 -0.00778,-0.17745c0.08486,-0.09262 0.17745,-0.00778 0.17745,-0.00778c0.02195,0.02012 0.05322,0.04875 0.08593,0.0787c0.00223,-0.04782 0.03538,-0.08402 0.03538,-0.08402l0.0426,-0.0465l-0.02752,-0.05467c0.0001,-0.00036 0.00023,-0.00079 0.00032,-0.00113c-0.04156,-0.03807 -0.08307,-0.07612 -0.12468,-0.11421c0,0 -0.09262,-0.08486 -0.00778,-0.17745c0.08486,-0.09262 0.17745,-0.00778 0.17745,-0.00778c0.02293,0.02102 0.04642,0.04251 0.07033,0.06443c0.02149,-0.00881 0.04873,-0.01146 0.08286,-0.00174c0.05301,0.01511 0.07611,0.04686 0.08535,0.07772c0.04138,-0.08104 0.09266,-0.13229 0.14649,-0.16342c-0.02151,-0.11289 0.00865,-0.23417 0.09225,-0.32539c0.14057,-0.15347 0.37893,-0.16392 0.53238,-0.02335c0.07697,0.07053 0.11798,0.16567 0.12198,0.26238c0.00396,0.00287 0.0078,0.00598 0.01149,0.00935c0.05115,0.04682 0.05462,0.12628 0.00778,0.17745c-0.01275,0.01391 -0.02788,0.02426 -0.04424,0.03112c0.13143,0.01572 0.22792,0.10413 0.22792,0.10413c0.11992,0.11486 0.24886,0.19973 0.38307,0.27303c-0.00689,-0.01323 -0.01655,-0.02441 -0.0297,-0.03268c0,0 -0.06304,-0.05772 -0.03746,-0.12991c-0.02362,-0.02161 -0.04723,-0.04324 -0.07084,-0.06489l-0.00925,0.03722c0,0 -0.12549,0.0055 -0.13097,-0.11999c-0.0055,-0.12549 0.11999,-0.13097 0.11999,-0.13097l0.18994,0.0285c0.08663,0.07935 0.17325,0.15871 0.25988,0.23803c0,0 0.09262,0.08486 0.00778,0.17745c-0.01792,0.01958 -0.03624,0.03123 -0.0539,0.03743c0.00324,0.02824 0.0048,0.05679 0.00503,0.08518c0.13048,0.06192 0.2636,0.12352 0.39617,0.19996c-0.01229,-0.10496 0.01939,-0.21447 0.09638,-0.29849c0.14057,-0.15347 0.37893,-0.16392 0.53238,-0.02335c0.15347,0.14057 0.16392,0.37893 0.02335,0.53238zM341.19845,196.21195c0.02504,0.02296 0.03867,0.05372 0.04053,0.08514c0.0147,-0.01173 0.03155,-0.01969 0.04911,-0.02387c0.00092,-0.00635 0.00233,-0.01266 0.00425,-0.01883l0.02144,-0.07513c-0.05111,-0.02502 -0.10036,-0.04463 -0.14677,-0.05667c0.00368,0.02446 0.00719,0.04906 0.01037,0.07375c0.00741,0.00437 0.01448,0.00956 0.0211,0.01565z" fill="#a00000" fill-rule="nonzero" stroke="none" stroke-width="0.5" stroke-linecap="butt" stroke-linejoin="miter"/><path d="M344.42227,196.27654l-0.0144,0.01013c-0.09377,0.13714 -0.18749,0.27432 -0.28129,0.41144c0,0 -0.01904,0.02788 -0.05411,0.06123c-0.00823,0.01123 -0.01711,0.02213 -0.02674,0.03261c-0.14057,0.15347 -0.37893,0.16392 -0.53238,0.02335c-0.15347,-0.14057 -0.16392,-0.37893 -0.02335,-0.53238c0.0076,-0.00828 0.0155,-0.01623 0.02368,-0.02367c0.09067,-0.13262 0.18134,-0.26525 0.27203,-0.3979l0.08081,-0.09382c0,0 0.25454,-0.27787 0.53238,-0.02335c0.27787,0.25454 0.02335,0.53238 0.02335,0.53238z" fill="#a00000" fill-rule="nonzero" stroke="none" stroke-width="0.5" stroke-linecap="butt" stroke-linejoin="miter"/><path d="M347.75651,202.22618c-0.54723,-0.74747 -0.31171,-2.73462 -1.19937,-3.2909c-0.11246,0.02137 -0.27554,0.00873 -0.38572,-0.1894c-0.1214,-0.2183 -0.01757,-0.37232 0.06619,-0.45142c0.07304,-0.1158 0.17247,-0.15407 0.2606,-0.1608l0.03388,-0.01873c1.69754,-0.81637 3.30274,-1.81203 5.05801,-2.47749c0.45047,-0.17078 1.57625,-1.14194 1.97049,-0.22875c0.15654,0.36259 -1.14963,1.53806 -1.36598,1.77425c-0.74579,0.81417 -1.48473,1.63524 -2.23764,2.44283c-0.11901,0.12766 -0.53087,0.61488 -0.47225,0.8289c0.02859,0.1043 0.8399,0.33851 0.95604,0.38236c1.06172,0.40097 1.75281,1.3273 2.81937,1.72225c0.72587,0.27935 2.31036,1.73908 0.60713,1.99311c-0.40755,0.06078 -1.25316,-0.40304 -1.71575,-0.42373c-1.79542,-0.08034 -3.06315,-0.24001 -4.72031,-0.97899c0,0 -0.34408,-0.15358 -0.19049,-0.49765c0.15358,-0.34408 0.49765,-0.19049 0.49765,-0.19049c0.03582,0.01597 0.07145,0.03181 0.10689,0.0474c-0.07754,-0.08306 -0.10263,-0.18505 -0.10263,-0.18505z" fill="#ffffff" fill-rule="nonzero" stroke="none" stroke-width="0.5" stroke-linecap="butt" stroke-linejoin="miter"/><path d="M354.74539,203.5096c0.00199,0.00984 0.00384,0.01966 0.00554,0.02953l-0.16926,0.01174c-0.00384,0.00446 -0.00783,0.00898 -0.01193,0.01342c-0.05655,0.06168 -0.11418,0.09715 -0.16971,0.11498c0.09374,0.07481 0.1878,0.15576 0.28527,0.24457c0,0 0.27787,0.25454 0.02335,0.53238c-0.25454,0.27787 -0.53238,0.02335 -0.53238,0.02335c-0.01835,-0.01692 -0.0365,-0.03346 -0.05443,-0.04959l-0.48503,-0.1915c-0.0501,-0.00504 -0.1032,-0.01973 -0.15853,-0.04327c0.0194,0.08456 0.03978,0.1782 0.0622,0.28241l-0.84729,-0.21124c-0.05031,-0.09475 -0.1006,-0.18946 -0.1509,-0.28418c-0.27055,0.06278 -0.51146,0.03985 -0.68311,-0.19149c-0.19406,-0.26158 -0.15167,-0.63353 -0.22748,-0.9503l0.36319,0.0823c-0.02789,-0.09485 -0.0557,-0.18969 -0.08356,-0.2845l0.40061,0.08465c-0.03511,-0.06649 -0.06819,-0.13355 -0.09923,-0.20087l0.84594,0.02153c0.11062,0.08282 0.20503,0.18994 0.28127,0.30986c0.27364,-0.05096 0.55619,-0.06286 0.82904,-0.02911l0.01663,-0.09655c0.07262,0.03325 0.13992,0.079 0.20102,0.13381c0.08499,0.0188 0.16844,0.04237 0.24983,0.07098l0.10892,0.57714z" fill="#a00000" fill-rule="nonzero" stroke="none" stroke-width="0.5" stroke-linecap="butt" stroke-linejoin="miter"/><path d="M352.44147,197.12228c-0.25454,0.27787 -0.53238,0.02335 -0.53238,0.02335l-0.04068,-0.03992c-0.1097,0.01761 -0.2261,-0.01331 -0.31442,-0.09417c-0.06108,-0.05592 -0.09949,-0.12735 -0.11476,-0.20277l-0.60966,-0.29458c-0.03516,-0.016 -0.06845,-0.03772 -0.0985,-0.06524c-0.15347,-0.14057 -0.16392,-0.37893 -0.02335,-0.53238c0.10924,-0.11929 0.27754,-0.15216 0.41918,-0.09489l0.21564,0.08143l-0.04168,-0.11232c0.14965,0.00648 0.28564,0.01856 0.40731,0.03582c0.01516,-0.05679 0.04379,-0.11088 0.08625,-0.15727c0.10924,-0.11929 0.27754,-0.15216 0.41918,-0.09489l0.16838,0.06359c-0.01213,-0.10481 0.01957,-0.21412 0.09642,-0.298c0.03268,-0.03566 0.07066,-0.06363 0.1116,-0.08372c0.06624,-0.11818 0.15371,-0.1823 0.25987,-0.11159c0.00574,-0.00729 0.01175,-0.01436 0.0181,-0.0213c0.14057,-0.15347 0.37893,-0.16392 0.53238,-0.02335c0.01734,0.01591 0.03293,0.03305 0.0466,0.05122l0.18287,0.2337l0.06243,-0.0137c-0.00433,0.02597 -0.00881,0.05138 -0.01344,0.07627l0.02415,0.03088c0.1157,0.14256 0.11268,0.35214 -0.01504,0.49163c-0.05678,0.06199 -0.12945,0.10061 -0.20611,0.11541c-0.10954,0.21139 -0.23864,0.30194 -0.36847,0.28645c-0.16484,0.17153 -0.42525,0.19535 -0.66575,0.24992c0.06412,0.07669 0.19443,0.28131 -0.00626,0.50041z" fill="#a00000" fill-rule="nonzero" stroke="none" stroke-width="0.5" stroke-linecap="butt" stroke-linejoin="miter"/><path d="M351.77437,207.72779c-0.15347,-0.14057 -0.16392,-0.37893 -0.02335,-0.53238c0.14057,-0.15347 0.37893,-0.16392 0.53238,-0.02335c0.15347,0.14057 0.16392,0.37893 0.02335,0.53238c-0.14057,0.15347 -0.37893,0.16392 -0.53238,0.02335z" fill="#a00000" fill-rule="nonzero" stroke="none" stroke-width="0.5" stroke-linecap="butt" stroke-linejoin="miter"/><path d="M350.52038,210.78919l0.07657,-0.2582c0.07078,-0.44037 0.20918,-0.8695 0.36569,-1.28714c0,0 0.13311,-0.35252 0.48562,-0.21941c0.35252,0.13311 0.21941,0.48562 0.21941,0.48562c-0.14043,0.36873 -0.2666,0.7478 -0.32621,1.13785l-0.09637,0.34803c0,0 -0.10339,0.36233 -0.46573,0.25895c-0.36233,-0.10339 -0.25895,-0.46573 -0.25895,-0.46573z" fill="#a00000" fill-rule="nonzero" stroke="none" stroke-width="0.5" stroke-linecap="butt" stroke-linejoin="miter"/><path d="M350.16085,211.8894c-0.15347,-0.14057 -0.16392,-0.37893 -0.02335,-0.53238c0.14057,-0.15347 0.37893,-0.16392 0.53238,-0.02335c0.15347,0.14057 0.16392,0.37893 0.02335,0.53238c-0.14057,0.15347 -0.37893,0.16392 -0.53238,0.02335z" fill="#a00000" fill-rule="nonzero" stroke="none" stroke-width="0.5" stroke-linecap="butt" stroke-linejoin="miter"/><path d="M349.21306,213.02848c-0.15347,-0.14057 -0.16392,-0.37893 -0.02335,-0.53238c0.14057,-0.15347 0.37893,-0.16392 0.53238,-0.02335c0.15347,0.14057 0.16392,0.37893 0.02335,0.53238c-0.14057,0.15347 -0.37893,0.16392 -0.53238,0.02335z" fill="#a00000" fill-rule="nonzero" stroke="none" stroke-width="0.5" stroke-linecap="butt" stroke-linejoin="miter"/><path d="M351.86046,206.27724c-0.15347,-0.14057 -0.16392,-0.37893 -0.02335,-0.53238c0.14057,-0.15347 0.37893,-0.16392 0.53238,-0.02335c0.15347,0.14057 0.16392,0.37893 0.02335,0.53238c-0.14057,0.15347 -0.37893,0.16392 -0.53238,0.02335z" fill="#a00000" fill-rule="nonzero" stroke="none" stroke-width="0.5" stroke-linecap="butt" stroke-linejoin="miter"/><path d="M352.93156,198.84685c-0.15347,-0.14057 -0.16392,-0.37893 -0.02335,-0.53238c0.14057,-0.15347 0.37893,-0.16392 0.53238,-0.02335c0.15347,0.14057 0.16392,0.37893 0.02335,0.53238c-0.14057,0.15347 -0.37893,0.16392 -0.53238,0.02335z" fill="#a00000" fill-rule="nonzero" stroke="none" stroke-width="0.5" stroke-linecap="butt" stroke-linejoin="miter"/><path d="M353.0966,200.33628c-0.15347,-0.14057 -0.16392,-0.37893 -0.02335,-0.53238c0.14057,-0.15347 0.37893,-0.16392 0.53238,-0.02335c0.15347,0.14057 0.16392,0.37893 0.02335,0.53238c-0.14057,0.15347 -0.37893,0.16392 -0.53238,0.02335z" fill="#a00000" fill-rule="nonzero" stroke="none" stroke-width="0.5" stroke-linecap="butt" stroke-linejoin="miter"/><path d="M352.96296,201.83882c-0.15347,-0.14057 -0.16392,-0.37893 -0.02335,-0.53238c0.14057,-0.15347 0.37893,-0.16392 0.53238,-0.02335c0.15347,0.14057 0.16392,0.37893 0.02335,0.53238c-0.14057,0.15347 -0.37893,0.16392 -0.53238,0.02335z" fill="#a00000" fill-rule="nonzero" stroke="none" stroke-width="0.5" stroke-linecap="butt" stroke-linejoin="miter"/><path d="M358.16597,168.47417c0.23499,-0.25655 0.55199,-0.39317 0.87413,-0.40656c0.0885,-0.26124 0.28889,-0.5212 0.69757,-0.69933c0.65186,-0.28408 1.09548,-0.03831 1.35776,0.22844c0.43164,-0.26433 0.99248,-0.2462 1.40874,0.06645l1.09836,0.80239l-0.10981,0.15034l0.41219,0.16453c0.62901,2.29567 1.50112,6.7989 -2.72119,4.56013c-0.14527,-0.077 -0.27617,-0.16255 -0.39448,-0.25543c-0.3298,0.02155 -0.66748,-0.08632 -0.93043,-0.32716c-0.47109,-0.43152 -0.53787,-1.1395 -0.17947,-1.64827c-0.05269,-0.20148 -0.10012,-0.40598 -0.14768,-0.61027c-0.42798,0.15945 -0.92796,0.07899 -1.2879,-0.25069c-0.51152,-0.46857 -0.54636,-1.26303 -0.0778,-1.77457z" fill="#ffffff" fill-rule="nonzero" stroke="none" stroke-width="0.5" stroke-linecap="butt" stroke-linejoin="miter"/><path d="M359.95291,174.90387c-0.48149,-0.44104 -0.54064,-1.17089 -0.15513,-1.68166c-0.12846,-0.05436 -0.25001,-0.13122 -0.35877,-0.23083c-0.3887,-0.35606 -0.50217,-0.90028 -0.32863,-1.36553c-0.15615,-0.21548 -0.23609,-0.47069 -0.23803,-0.72699c-0.26008,-0.02615 -0.51424,-0.13341 -0.72182,-0.32352c-0.51152,-0.46857 -0.54636,-1.26303 -0.0778,-1.77457c0.46857,-0.51152 1.26303,-0.54636 1.77457,-0.0778c0.26792,0.24542 0.40506,0.58023 0.40762,0.917c0.26008,0.02615 0.51424,0.13341 0.72182,0.32352c0.3887,0.35606 0.50217,0.90028 0.32863,1.36553c0.31977,0.4412 0.31979,1.04878 -0.01444,1.49166c0.12846,0.05436 0.25001,0.13122 0.35877,0.23083c0.51152,0.46857 0.54636,1.26303 0.0778,1.77457c-0.46857,0.51152 -1.26303,0.54636 -1.77457,0.0778z" fill="#a00000" fill-rule="nonzero" stroke="none" stroke-width="0.5" stroke-linecap="butt" stroke-linejoin="miter"/></g></g></g></svg>