<svg version="1.1" xmlns="http://www.w3.org/2000/svg" xmlns:xlink="http://www.w3.org/1999/xlink" width="980.48048" height="630.63063" viewBox="0,0,980.48048,630.63063"><g transform="translate(145.24024,130.31528)"><g data-paper-data="{&quot;isPaintingLayer&quot;:true}" stroke-miterlimit="10" stroke-dasharray="" stroke-dashoffset="0" style="mix-blend-mode: normal"><path d="M-145.24024,500.31535v-630.63063h980.48048v630.63063z" fill="#000000" fill-rule="nonzero" stroke="#ff3838" stroke-width="0" stroke-linecap="butt" stroke-linejoin="miter"/><text transform="translate(304.71471,259.28905) scale(0.5,0.5)" font-size="40" xml:space="preserve" fill="#ffffff" fill-rule="nonzero" stroke="none" stroke-width="1" stroke-linecap="butt" stroke-linejoin="miter" stroke-miterlimit="10" stroke-dasharray="" stroke-dashoffset="0" font-family="Marker" font-weight="normal" text-anchor="start" style="mix-blend-mode: normal"><tspan x="0" dy="0">Loading</tspan></text><g><path d="M345.79155,174.01085c-0.44314,-0.26679 -0.41574,-4.04941 -1.52847,-5.38003c-0.81875,-0.92011 -1.8934,-1.98289 -3.45261,-2.47729c-3.51146,-1.1685 -2.64393,-1.6768 -2.68086,-3.85774c-0.06195,-2.2245 0.8476,-3.66514 5.64481,0.64692c1.6615,1.47873 2.61306,3.13381 3.34579,4.50905c0.20032,0.34844 1.62327,3.52901 0.74339,5.42574c-0.87988,1.89672 -1.69756,1.38166 -2.07212,1.13339z" fill="#000000" fill-rule="evenodd" stroke="#001026" stroke-width="1.2" stroke-linecap="round" stroke-linejoin="round"/><path d="M352.08811,173.84993c-0.09696,1.04093 -0.95286,2.57615 -2.93016,1.8585c-2.32027,-0.81022 -1.86063,-3.74024 -1.70813,-4.98696c0.1525,-1.24673 0.29408,-1.90763 0.17552,-4.3314c-0.03371,-0.9658 -0.23618,-2.12434 -0.36246,-2.74717c-0.08164,-0.2428 -0.20686,-0.4606 -0.41918,-0.62828c-0.39958,-0.29182 0.87691,4.58756 1.0109,3.40946c0.25495,-1.25504 -0.93369,-1.27005 1.01031,-0.87431c0.22333,0.04544 -0.37542,-0.14257 -0.13495,-0.12021c2.26252,0.21042 0.99001,-1.11175 1.27886,0.23418c0.63682,2.82121 2.23837,2.63101 0.76736,2.49156c-0.2243,0.01307 -0.81405,0.46803 -0.75744,0.66729l1.68161,-1.85816c0.12947,0.59197 0.16653,-0.88972 0.24764,-0.31654c0.09003,0.63622 0.0503,2.29813 0.09316,2.89155c0.18383,2.54489 0.09679,3.55909 0.04694,4.31051z" fill="#000000" fill-rule="evenodd" stroke="#001026" stroke-width="1.2" stroke-linecap="round" stroke-linejoin="round"/><path d="M346.55654,185.68298c-1.07902,-0.36483 -1.62554,-2.02097 -0.43106,-2.76567c1.13243,-0.65106 2.83427,-0.41253 3.83163,-0.29053c0.99738,0.122 4.96942,1.08364 5.34706,4.8652c0.07286,1.63872 -0.66342,6.00275 -3.00219,5.26113c-2.33879,-0.74161 -1.37939,-3.20563 -1.06576,-4.7768c0.28317,-1.32184 -4.3803,-2.17572 -4.67973,-2.29332z" fill="#000000" fill-rule="evenodd" stroke="#001026" stroke-width="1.2" stroke-linecap="round" stroke-linejoin="round"/><g fill-rule="evenodd"><path d="M351.61088,178.34653c-0.09151,0.74804 -0.44433,1.64632 -1.04542,2.91912c-0.50201,1.04198 -1.76296,2.57828 -1.76296,2.57828c-0.8635,1.01802 -2.80389,2.48132 -3.58668,1.01898c-0.50736,-0.98324 -1.13885,-1.77922 -2.208,-3.13488c-2.02513,-2.31279 -2.64902,-2.59156 -1.4893,-4.70713c1.41451,-2.37795 1.2111,-6.25968 6.95465,-4.63591c0,0 2.88211,1.18264 6.8857,2.29997c2.70028,0.7656 6.71696,2.10725 8.09539,2.58966c0.29942,0.11761 0.53677,0.32885 0.73058,0.56514c2.82099,3.99946 4.18841,7.38582 2.31553,8.46258c-3.13595,1.80297 -5.62796,-5.05141 -5.62796,-5.05141c0,0 -2.85055,-1.02692 -4.20394,-1.4658z" fill="#000000" stroke="#001026" stroke-width="1.2" stroke-linecap="round" stroke-linejoin="round"/><path d="M349.79448,181.94067c0,0 -0.6131,1.45358 -2.86585,0.25682c-2.38994,-1.23377 -1.42189,-2.77553 -0.82731,-4.1605c0.84939,-1.64737 2.00352,-1.15189 3.28834,-0.73155c1.05397,0.32128 1.95225,0.67408 1.95225,0.67408c0,0 -0.13837,1.87607 -1.54743,3.9611z" fill="#a00000" stroke="none" stroke-width="1" stroke-linecap="butt" stroke-linejoin="miter"/></g><g fill-rule="evenodd"><path d="M323.91345,198.41146c-0.75016,-0.90159 -1.43827,-1.89682 -2.05231,-3.16645c-1.08983,-2.09715 -1.47625,-4.48284 -1.47625,-4.48284l-6.4708,-3.29188c-0.18727,-0.12413 -0.18181,-0.41704 0.01744,-0.47363l8.3222,-3.56771c-0.19818,0.46165 2.92066,-7.82208 9.66385,-7.58438c6.74317,0.2377 12.74568,5.53741 15.84189,14.65223c3.0962,9.11483 -0.50592,13.7357 -3.28902,14.64039c-2.78312,0.9047 -5.47569,-1.66184 -5.47569,-1.66184c0,0 -1.98502,1.0833 -5.18184,1.06681c-1.91308,-0.00118 -5.5628,-1.61177 -5.5628,-1.61177l-5.31145,1.54697c-0.19927,0.05659 -0.36803,-0.13613 -0.35602,-0.31689z" fill="#000000" stroke="#001026" stroke-width="1.2" stroke-linecap="butt" stroke-linejoin="miter"/><path d="M339.09384,203.24451c-2.95603,-3.22636 -0.41242,-5.15242 -1.9976,-8.41356c-1.84212,-3.80886 -8.68536,-6.53891 -5.70272,-12.1365c2.93906,-5.57255 12.09071,-4.16966 15.97289,7.62268c3.08968,9.00269 -0.19449,13.67255 -2.97762,14.57724c-2.78311,0.90469 -5.29494,-1.64986 -5.29494,-1.64986z" fill="#000000" stroke="none" stroke-width="1" stroke-linecap="butt" stroke-linejoin="miter"/><path d="M335.86624,186.84531c2.05906,-1.35769 5.07195,-2.56831 7.78624,1.14474c2.89062,4.423 0.57558,7.95618 -0.37502,9.0243c-0.16768,0.21231 -0.48565,0.1633 -0.56728,-0.07952c-0.24496,-0.72844 -0.91559,-2.19732 -2.39849,-4.47417c-1.67669,-2.51311 -3.7258,-4.46442 -4.50646,-5.11669c-0.14372,-0.14916 -0.11321,-0.39852 0.06101,-0.49867z" fill="#000000" stroke="#001026" stroke-width="1.2" stroke-linecap="round" stroke-linejoin="round"/><path d="M342.89926,204.8235c0,0 1.75941,3.161 1.28125,6.15964" fill="none" stroke="#001026" stroke-width="1.2" stroke-linecap="round" stroke-linejoin="round"/><path d="M345.56915,203.5203c0,0 1.80415,1.22284 3.16397,4.09202" fill="none" stroke="#001026" stroke-width="1.2" stroke-linecap="round" stroke-linejoin="round"/><path d="M335.27797,192.97873c0.69688,-0.40066 2.83747,0.80263 3.2011,1.6367c0.3571,0.72193 -0.48682,2.07638 -1.12161,2.38342c-0.32993,0.13172 -0.96795,-0.77639 -1.49382,-1.69106c-0.50082,-0.8711 -1.13338,-2.07211 -0.58568,-2.32905z" fill="#001026" stroke="#000000" stroke-width="1.2" stroke-linecap="round" stroke-linejoin="round"/><path d="M329.54153,179.87642c-2.22663,-0.74815 -5.59971,-3.79271 -5.59971,-3.79271" fill="none" stroke="#001026" stroke-width="1.2" stroke-linecap="round" stroke-linejoin="round"/><path d="M328.47257,173.88447c0,0 2.33215,2.9476 2.66849,5.24617" fill="none" stroke="#001026" stroke-width="1.2" stroke-linecap="round" stroke-linejoin="round"/><g fill="#a00000"><path d="M329.02768,200.04934c0.08283,-1.67029 2.32918,-2.90381 5.01533,-2.76757c2.71119,0.17981 4.77774,1.65745 4.69492,3.32772c-0.08283,1.67029 -2.32918,2.90381 -5.01533,2.76757c-2.68619,-0.13625 -4.8213,-1.63241 -4.69492,-3.32772z" stroke="#001026" stroke-width="1.2" stroke-linecap="round" stroke-linejoin="round"/><path d="M336.10505,201.77551c-0.47908,0.27545 -1.07143,0.15239 -1.32184,-0.28317c-0.25042,-0.43556 -0.05874,-1.00936 0.42037,-1.28482c0.47908,-0.27545 1.07143,-0.15239 1.32184,0.28317c0.25042,0.43556 0.05874,1.00936 -0.42037,1.28482" stroke="none" stroke-width="1" stroke-linecap="butt" stroke-linejoin="miter"/></g><g><path d="M328.73193,191.87431c-2.66767,-0.20482 -4.8899,-1.65091 -4.6644,-3.57706c0.18193,-1.90111 2.71464,-3.24133 5.40733,-2.99295c2.66767,0.20482 4.37923,1.77067 4.37804,3.68375c-0.15143,1.65176 -2.4533,3.09111 -5.12095,2.88627z" fill="#ffffff" stroke="#001026" stroke-width="1.2" stroke-linecap="round" stroke-linejoin="round"/><path d="M331.10784,190.16059c-0.47908,0.27545 -1.02787,0.12734 -1.32184,-0.28317c-0.25042,-0.43556 -0.05874,-1.00936 0.42037,-1.28482c0.47908,-0.27545 1.07143,-0.15239 1.32184,0.28317c0.25042,0.43556 0.05874,1.00936 -0.42037,1.28482" fill="#001026" stroke="none" stroke-width="1" stroke-linecap="butt" stroke-linejoin="miter"/></g></g><path d="M332.69761,189.95962c0,0 0.12715,0.08427 0.21459,0.23242c0.16121,-0.07757 0.33416,-0.18874 0.54558,-0.36548c0.68217,-0.39468 1.36539,-0.78747 2.04864,-1.1803l0.36623,-0.33688c0,0 0.47248,-0.41371 0.88619,0.05876c0.4137,0.47248 -0.05876,0.88619 -0.05876,0.88619l-0.56761,0.4808c-0.6533,0.3756 -1.30646,0.7514 -1.96094,1.12495c-1.24226,1.00219 -3.35471,1.58528 -4.78513,1.88495c-1.15541,0.24207 -2.15578,-0.58477 -3.39749,-0.29297c-0.45961,0.108 -0.71331,0.65415 -1.1559,0.81851c-0.2268,0.08423 -0.50115,-0.09764 -0.72583,-0.00784c-1.18759,0.47471 -1.20615,0.84989 -2.59353,0.64706c0,0 -0.62067,-0.0957 -0.52497,-0.71635c0.0957,-0.62067 0.71635,-0.52497 0.71635,-0.52497c1.67274,0.27481 2.49751,-1.02403 3.97121,-1.43287c1.01062,-0.28037 2.09658,-0.0405 3.00789,0.28167c0.03625,0.0128 0.06988,0.02269 0.10125,0.02993c-0.01047,-0.13409 0.01778,-0.23876 0.01778,-0.23876c0.05981,-0.22159 0.11962,-0.44314 0.17941,-0.66471l0.3988,-0.44146c0,0 0.54443,-0.31301 0.85744,0.23142c0.20925,0.36394 0.03531,0.62445 -0.10299,0.75722c-0.00182,0.00672 -0.00361,0.01344 -0.00542,0.02012c0.12917,0.04014 0.2585,0.08164 0.38782,0.06318c0.35843,-0.05125 0.61761,-0.36564 0.92349,-0.57144c-0.16611,-0.09703 -0.25535,-0.25228 -0.25535,-0.25228l0.83075,-0.94197c0.22685,0.15036 0.45368,0.30074 0.68052,0.4511z" fill="#a00000" fill-rule="nonzero" stroke="none" stroke-width="0.5" stroke-linecap="butt" stroke-linejoin="miter"/><path d="M338.16734,190.08544c0.4137,0.47248 -0.05876,0.88619 -0.05876,0.88619l-0.4115,0.35388c-0.18195,0.20347 -0.36392,0.40696 -0.54586,0.61045c-0.55135,0.45003 -1.06437,1.29506 -1.7272,1.57257c-0.57489,0.24069 -1.46419,0.1948 -2.08282,0.32061c-1.71517,0.34882 -3.64669,0.80438 -5.28906,1.38098c-1.45853,0.51204 -3.10393,1.938 -4.47341,2.72538c0,0 -0.54443,0.31301 -0.85744,-0.23142c-0.31301,-0.54443 0.23142,-0.85744 0.23142,-0.85744c1.46108,-0.84002 3.12937,-2.26339 4.69062,-2.82412c1.68752,-0.60606 3.69147,-1.06916 5.45223,-1.42511c0.05696,-0.01151 1.70002,-0.19236 1.81062,-0.23313c0.45776,-0.16875 0.99742,-1.02302 1.37501,-1.33412c0.15922,-0.17987 0.31845,-0.35973 0.47766,-0.53961l0.52232,-0.46378c0,0 0.47248,-0.41371 0.88619,0.05876z" fill="#a00000" fill-rule="nonzero" stroke="none" stroke-width="0.5" stroke-linecap="butt" stroke-linejoin="miter"/><path d="M349.36647,196.2344c-0.16365,0.60632 -0.76996,0.44268 -0.76996,0.44268l-0.47187,-0.15839c-1.9974,0.84291 -4.05574,1.70404 -6.09609,2.45263c-1.60416,0.58858 -2.56363,2.27152 -4.30663,1.04727c0,0 -0.49282,-0.38926 -0.10359,-0.88208c0.38924,-0.49283 0.88207,-0.10358 0.88207,-0.10358c0.62058,0.62921 1.71535,-0.46326 2.36028,-0.82961c2.19024,-1.24414 4.82051,-2.13246 7.20557,-2.93929l0.85757,0.20042c0,0 0.6063,0.16364 0.44268,0.76996z" fill="#a00000" fill-rule="nonzero" stroke="none" stroke-width="0.5" stroke-linecap="butt" stroke-linejoin="miter"/><path d="M349.64215,197.80999c0.31301,0.54443 -0.23142,0.85744 -0.23142,0.85744l-0.51582,0.28671c-2.15449,0.80267 -4.13013,1.88147 -6.34611,2.51073c-1.38217,0.3925 -2.93864,0.27021 -4.25804,0.77808c0,0 -0.58849,0.21925 -0.80774,-0.36924c-0.21925,-0.58849 0.36924,-0.80774 0.36924,-0.80774c1.39419,-0.50619 2.93654,-0.40642 4.37295,-0.81472c2.17528,-0.6183 4.11325,-1.68501 6.23123,-2.4741l0.3283,-0.1986c0,0 0.54443,-0.31301 0.85744,0.23142z" fill="#a00000" fill-rule="nonzero" stroke="none" stroke-width="0.5" stroke-linecap="butt" stroke-linejoin="miter"/><path d="M327.26989,188.2204c0.40535,0.47966 -0.0743,0.88502 -0.0743,0.88502l-0.08001,0.06762c-1.62018,1.13189 -1.70935,1.08326 -2.89477,-0.35489c0,0 -0.39827,-0.48555 0.08731,-0.88383c0.48555,-0.39827 0.88383,0.08731 0.88383,0.08731c0.21605,0.26489 0.26225,1.00938 0.56699,0.85451c0.25507,-0.12962 0.36395,-0.44162 0.54592,-0.66243l0.08001,-0.06762c0,0 0.47966,-0.40535 0.88502,0.0743z" fill="#a00000" fill-rule="nonzero" stroke="none" stroke-width="0.5" stroke-linecap="butt" stroke-linejoin="miter"/><path d="M329.36392,187.73008c-0.54443,0.31301 -0.85744,-0.23142 -0.85744,-0.23142l-0.06067,-0.10554c-0.24265,-0.42207 -0.48532,-0.84413 -0.72797,-1.2662c0,0 -0.31301,-0.54443 0.23142,-0.85744c0.54443,-0.31301 0.85744,0.23142 0.85744,0.23142c0.24266,0.42206 0.54598,0.94965 0.78864,1.37168c0,0 0.31301,0.54443 -0.23142,0.85744z" fill="#a00000" fill-rule="nonzero" stroke="none" stroke-width="0.5" stroke-linecap="butt" stroke-linejoin="miter"/><path d="M331.65163,188.44888c-0.60631,-0.16366 -0.44268,-0.76996 -0.44268,-0.76996l0.52637,-0.61804c0.25148,-0.05099 0.50296,-0.10199 0.75441,-0.15295c0,0 0.61549,-0.12477 0.74026,0.49071c0.12479,0.61548 -0.49069,0.74026 -0.49069,0.74026c-0.14166,0.02874 -0.28334,0.05744 -0.42501,0.08618c-0.10827,0.15461 -0.31101,0.3187 -0.66269,0.22381z" fill="#a00000" fill-rule="nonzero" stroke="none" stroke-width="0.5" stroke-linecap="butt" stroke-linejoin="miter"/><path d="M347.18425,162.28619c0.57706,0.24776 0.32933,0.82481 0.32933,0.82481l-0.22865,0.09221c0.12995,0.35213 0.28666,0.68332 0.44517,1.01352c0.10564,0.04883 0.17249,0.10833 0.17249,0.10833c0.17378,0.15633 0.37114,0.2899 0.52134,0.469c0.0572,0.06821 0.01158,0.30452 0.08441,0.25337c0.21674,-0.15229 0.20872,-0.69346 0.46855,-0.64188c0.47583,0.09445 0.76954,0.59781 1.09969,0.95322c0.18544,0.19965 0.07806,0.94463 0.28421,0.76645c0.16528,-0.14287 0.19047,-0.54851 0.40625,-0.51435c0.91259,0.1444 1.92934,1.26683 0.95157,2.24166c-0.28514,0.28427 -0.80369,-0.05013 -1.20556,-0.0752l-0.44148,-0.39881c0,0 -0.06077,-0.10571 -0.08218,-0.25073c-0.16691,-0.0792 -0.35047,-0.20127 -0.54514,-0.37474c-0.20022,-0.17843 -0.32359,-0.43853 -0.40945,-0.69259c-0.04314,-0.12776 0.13168,-0.50097 0.03937,-0.40266c-0.14553,0.15504 -0.01137,0.57332 -0.22262,0.59786c-0.29265,0.03398 -0.56773,-0.05832 -0.82217,-0.20709c-0.04778,0.03343 -0.10467,0.06342 -0.17215,0.08855c-0.58849,0.21925 -0.80774,-0.36924 -0.80774,-0.36924c-0.27289,-0.73951 -0.66383,-1.38668 -0.94158,-2.12613l0.25149,-1.02621c0,0 0.24776,-0.57706 0.82481,-0.32933z" fill="#a00000" fill-rule="nonzero" stroke="none" stroke-width="0.5" stroke-linecap="butt" stroke-linejoin="miter"/><path d="M351.02258,161.26535c0.60631,0.16366 0.44268,0.76996 0.44268,0.76996l-0.19233,0.64072c-0.11519,0.20662 -0.23039,0.41323 -0.34558,0.61987c0,0 -0.30581,0.54852 -0.85432,0.24272c-0.54852,-0.30581 -0.24272,-0.85432 -0.24272,-0.85432c0.1152,-0.20663 0.2304,-0.41326 0.34558,-0.61987l0.07676,-0.35637c0,0 0.16366,-0.60631 0.76996,-0.44268z" fill="#a00000" fill-rule="nonzero" stroke="none" stroke-width="0.5" stroke-linecap="butt" stroke-linejoin="miter"/><path d="M354.00319,161.76121l-0.57243,0.46951c0,0 -0.48555,0.39827 -0.88383,-0.08731c-0.39827,-0.48555 0.08731,-0.88383 0.08731,-0.88383l0.57243,-0.46951c0,0 0.48555,-0.39827 0.88383,0.08731c0.39827,0.48555 -0.08731,0.88383 -0.08731,0.88383z" fill="#a00000" fill-rule="nonzero" stroke="none" stroke-width="0.5" stroke-linecap="butt" stroke-linejoin="miter"/><path d="M349.40618,156.58364c0.62694,-0.0365 0.66344,0.59045 0.66344,0.59045l-0.06262,0.61399c-0.1152,0.20663 -0.2304,0.41326 -0.34558,0.61987c0,0 -0.09281,0.16646 -0.26787,0.26486c0.01823,0.23407 -0.09613,0.46883 -0.3132,0.59365c-0.3007,0.17288 -0.68458,0.06927 -0.85744,-0.23142c-0.17288,-0.3007 -0.06927,-0.68458 0.23142,-0.85744c0.00848,-0.00487 0.01703,-0.00953 0.02564,-0.01396c-0.00839,-0.20073 0.08446,-0.36729 0.08446,-0.36729c0.1152,-0.20663 0.2304,-0.41326 0.34558,-0.61987l-0.09424,0.0706c0,0 -0.03648,-0.62693 0.59045,-0.66344z" fill="#a00000" fill-rule="nonzero" stroke="none" stroke-width="0.5" stroke-linecap="butt" stroke-linejoin="miter"/><path d="M350.10391,166.74901c-0.16366,0.60631 -0.76996,0.44268 -0.76996,0.44268l-0.39179,-0.15836c-0.00788,-0.00622 -0.01576,-0.01245 -0.02365,-0.01869c-0.10644,0.14572 -0.36828,0.40442 -0.78708,0.19641c-0.56244,-0.27936 -0.28308,-0.84182 -0.28308,-0.84182l0.15135,-0.2773c0.12364,-0.44718 0.16266,-0.82736 0.34944,-1.04114c-0.01956,-0.09656 -0.01572,-0.1953 0.00936,-0.2883l0.17942,-0.66472v0c0.04188,-0.15518 0.14294,-0.29435 0.2933,-0.38082c0.2132,-0.12257 0.46822,-0.10614 0.66022,0.02097l0.2581,-0.34368c0.05071,-0.07081 0.11704,-0.13217 0.19748,-0.17843c0.3007,-0.17288 0.68458,-0.06927 0.85744,0.23142c0.05259,0.09145 0.07956,0.19058 0.08321,0.28913l0.04671,0.80248l-0.00739,0.00043l0.00833,0.02365c-0.01244,0.52155 -0.08135,1.04584 -0.2142,1.55032c0,0 -0.13047,0.48343 -0.59008,0.47043c-0.00258,0.05102 -0.01122,0.10602 -0.0272,0.16524zM349.49881,165.8345c-0.00511,0.0086 -0.0102,0.01721 -0.01531,0.02582c0.00352,0.00278 0.00704,0.00556 0.01056,0.00834c0.00147,-0.01262 0.00311,-0.02409 0.00474,-0.03417z" fill="#ffffff" fill-rule="nonzero" stroke="none" stroke-width="0.5" stroke-linecap="butt" stroke-linejoin="miter"/><path d="M336.69022,188.28683c-0.62336,-0.07625 -0.54711,-0.69959 -0.54711,-0.69959l0.40213,-0.31484c-0.19193,0.01743 -0.37098,0.02519 -0.50264,0.02448c0,0 -0.62788,-0.01169 -0.6162,-0.63959c0.0117,-0.62788 0.63959,-0.6162 0.63959,-0.6162c1.31843,0.0491 2.94696,-1.16929 2.4429,1.19157c-0.04807,0.22521 -0.2209,0.40356 -0.3363,0.60348l-0.16416,0.60822l-0.24382,-0.06582l-0.4009,0.52899c-0.11717,-0.19062 -0.23442,-0.38224 -0.3563,-0.57071l-0.22707,0.03228l-0.01083,-0.07624c-0.02542,-0.00075 -0.05185,-0.00278 -0.07934,-0.00613z" fill="#8da900" fill-rule="nonzero" stroke="none" stroke-width="0.5" stroke-linecap="butt" stroke-linejoin="miter"/><path d="M341.72246,194.73268c0,0 -0.60095,-0.1622 -0.4448,-0.76192c-0.21097,-0.00613 -0.41392,-0.11842 -0.52682,-0.31482c-0.08642,-0.15034 -0.10375,-0.32147 -0.06187,-0.47666v0l0.0906,-0.3357c-0.06034,-0.1361 -0.13874,-0.26073 -0.24338,-0.3662l-0.51734,-0.2742c0,0 -0.46132,-0.25719 -0.30198,-0.7229c-0.14339,-0.09495 -0.35426,-0.2987 -0.26899,-0.64388c-0.41745,-0.207 -0.9599,-0.515 -1.12506,-0.60639l-0.2993,-0.34102c0,0 -0.08474,-0.1474 -0.08934,-0.3329c-0.06162,0.01713 -0.12332,0.03139 -0.18515,0.04017c0,0 -0.62174,0.08842 -0.71016,-0.53331c-0.08844,-0.62175 0.53331,-0.71016 0.53331,-0.71016c0.09788,-0.01391 0.34336,-0.05084 0.61162,-0.08726c0.04805,-0.13719 0.14371,-0.25842 0.27959,-0.33655c0.11352,-0.06526 0.23887,-0.09112 0.36026,-0.08185c0.20332,-0.13064 0.4292,-0.08014 0.54939,-0.03644c0.0004,-0.00377 0.00082,-0.00755 0.0013,-0.01136c-0.07036,-0.26749 0.0433,-0.55936 0.29459,-0.70385c0.3007,-0.17288 0.68458,-0.06927 0.85744,0.23142c0.07481,0.13011 0.09786,0.27582 0.07554,0.41327c0.0397,0.1244 0.07224,0.2523 0.09724,0.38218c0.01398,0.02002 0.02762,0.04147 0.04084,0.06447c0.14672,0.2552 0.10504,0.45954 0.01936,0.60467c-0.00269,0.2176 -0.02755,0.43387 -0.07623,0.64225l0.03644,0.07157c0,0 0.01309,0.22474 -0.11099,0.41294c0.01937,0.18216 -0.00188,0.36237 -0.07596,0.5317c0.66082,0.10481 1.39443,-0.51882 1.97871,-0.05701c0.8145,0.6438 0.2064,1.88289 -0.18412,2.59711c0.22017,0.06967 0.44113,0.13571 0.66827,0.17458c0.35727,0.06113 0.86137,-0.16995 1.0809,0.11844c0.2657,0.34903 -0.12835,1.55134 -0.24742,1.98203l-0.05487,0.05726l0.02162,0.01205l-0.34056,0.61087c-0.05356,0.1001 -0.13488,0.18691 -0.24053,0.24765c-0.3007,0.17288 -0.68458,0.06927 -0.85744,-0.23142c-0.01687,-0.02935 -0.03111,-0.0595 -0.0428,-0.09018l-0.31513,-0.78924l0.0138,-0.00551c-0.1179,-0.17947 -0.23156,-0.36158 -0.339,-0.54746l0.04843,0.20357zM341.52916,191.73575c0.00872,0.00951 0.01747,0.01897 0.02629,0.02843c0.00993,-0.01873 0.01968,-0.03714 0.02925,-0.05516c-0.01766,0.0093 -0.03622,0.01819 -0.05554,0.02668z" fill="#8da900" fill-rule="nonzero" stroke="none" stroke-width="0.5" stroke-linecap="butt" stroke-linejoin="miter"/><path d="M343.12734,190.61015c-1.18573,-0.6535 -1.3149,-0.9105 -1.31037,-1.79285c-0.38911,-0.1694 -0.53793,-0.83258 -0.55616,-1.44224l-0.33207,-0.02002c-0.3604,-0.47749 -0.58478,-1.09389 -0.59861,-1.69193c0,0 0.0117,-0.62788 0.63961,-0.61621c0.6279,0.0117 0.61621,0.63961 0.61621,0.63961c-0.00279,0.02881 -0.00419,0.05788 -0.00424,0.08714c0.23863,-0.02767 0.48188,0.08369 0.61214,0.30242c0.22549,0.08813 0.31985,0.24688 0.35538,0.39488l0.38998,0.43018c0.03347,0.18612 0.14081,0.39363 0.22045,0.59312c0.60114,0.08727 0.52657,0.69687 0.52657,0.69687l-0.1528,0.21478c0.24972,0.43753 0.47421,0.90485 0.63729,1.38879l0.24024,-0.08951l0.25487,0.68408c0.11191,0.28484 0.0014,0.61624 -0.27189,0.77337c-0.24491,0.14082 -0.54503,0.09818 -0.74133,-0.08494l-0.52532,-0.46752z" fill="#8da900" fill-rule="nonzero" stroke="none" stroke-width="0.5" stroke-linecap="butt" stroke-linejoin="miter"/><path d="M338.24708,185.54457c0.62067,0.0957 0.52497,0.71635 0.52497,0.71635l-0.48549,1.24892c-0.42714,-0.16734 -0.85429,-0.3347 -1.28143,-0.50204c0,0 -0.52346,-0.34699 -0.17647,-0.8704c0.24567,-0.37061 0.57982,-0.30487 0.754,-0.23491c0.0768,-0.17624 0.25812,-0.42054 0.66442,-0.35793z" fill="#a00000" fill-rule="nonzero" stroke="none" stroke-width="0.5" stroke-linecap="butt" stroke-linejoin="miter"/><path d="M339.3656,186.56788c0.54443,-0.31301 0.85744,0.23142 0.85744,0.23142l0.12132,0.21104c0.14984,0.26886 0.23015,0.57016 0.2654,0.8827l0.17589,-0.02501l0.09024,0.63443c0.04168,0.25116 -0.07297,0.513 -0.30667,0.64733c-0.2337,0.13438 -0.51764,0.10171 -0.71373,-0.06068l-0.50287,-0.3972l0.02783,-0.03522l-0.11399,-0.04728c-0.14432,-0.24346 -0.28868,-0.48693 -0.433,-0.7304c0,0 -0.30579,-0.53187 0.21279,-0.84645c0.01154,-0.15702 0.08811,-0.33173 0.31936,-0.46468z" fill="#a00000" fill-rule="nonzero" stroke="none" stroke-width="0.5" stroke-linecap="butt" stroke-linejoin="miter"/><path d="M342.17045,188.36188c0.61549,-0.12477 0.74026,0.49071 0.74026,0.49071l0.07046,0.3506c0.03454,0.16683 0.11535,0.33822 0.17894,0.50792c0.30154,0.03518 0.46816,0.32498 0.46816,0.32498l0.48532,0.84412c0.05289,0.09198 0.07991,0.19176 0.08329,0.29089c0.01209,0.01476 0.02416,0.02961 0.03618,0.04454l0.17255,0.19697c0,0 0.4137,0.47248 -0.05876,0.8862c-0.11184,0.09791 -0.22037,0.14621 -0.3209,0.16283c-0.2591,0.05783 -0.45813,-0.09148 -0.55577,-0.18844c-0.0532,0.10796 -0.13795,0.20183 -0.25013,0.26634c-0.2337,0.13438 -0.51764,0.10171 -0.71373,-0.06068l-0.50287,-0.3972l0.01478,-0.01873l-0.06549,-0.02599c-0.398,-0.48352 -0.74602,-1.00942 -1.05929,-1.55168c0,0 -0.31301,-0.54443 0.23142,-0.85744c0.03484,-0.02003 0.06871,-0.03654 0.10161,-0.04992c0.02658,-0.07453 0.07257,-0.15117 0.14547,-0.22703c0.05162,-0.12123 0.14164,-0.2273 0.26468,-0.29807c0.01149,-0.00662 0.02312,-0.01283 0.03485,-0.01863c-0.01179,-0.1636 0.00957,-0.57306 0.49897,-0.67229z" fill="#a00000" fill-rule="nonzero" stroke="none" stroke-width="0.5" stroke-linecap="butt" stroke-linejoin="miter"/><path d="M344.31663,193.43095c0.17288,0.3007 0.06927,0.68458 -0.23142,0.85744c-0.3007,0.17288 -0.68458,0.06927 -0.85744,-0.23142c-0.17288,-0.3007 -0.06927,-0.68458 0.23142,-0.85744c0.3007,-0.17288 0.68458,-0.06927 0.85744,0.23142z" fill="#a00000" fill-rule="nonzero" stroke="none" stroke-width="0.5" stroke-linecap="butt" stroke-linejoin="miter"/><path d="M340.80593,188.8296c0.27185,-0.1563 0.486,-0.09881 0.63229,-0.00206c0.01317,-0.0027 0.02637,-0.00499 0.0396,-0.00684c-0.05335,-0.08235 -0.10069,-0.17183 -0.13982,-0.27044c-0.08438,-0.21261 -0.10221,-0.4495 -0.13492,-0.67978c-0.34463,-0.59032 -0.67127,-1.18871 -1.00053,-1.76133l-0.42465,-0.73861c-0.17288,-0.3007 -0.06927,-0.68458 0.23142,-0.85744c0.27327,-0.15711 0.61526,-0.08586 0.80512,0.15417l0.35794,0.43638c0.33661,-0.13984 0.64102,0.13107 0.64102,0.13107c1.75812,1.56469 2.38717,3.1034 3.18837,5.25394l0.25487,0.68408c0.11191,0.28484 0.0014,0.61624 -0.27189,0.77337c-0.08169,0.04696 -0.16949,0.07352 -0.25754,0.08126c0.05477,0.18287 0.08115,0.50285 -0.28917,0.71578c-0.34264,0.19699 -0.59358,0.05439 -0.73258,-0.0784c-0.00761,-0.00033 -0.0153,-0.00079 -0.02313,-0.0014c-0.1326,0.13233 -0.41541,0.32511 -0.78725,0.07861c-0.52344,-0.34699 -0.17648,-0.87043 -0.17648,-0.87043c0.09717,-0.09845 0.17951,-0.22744 0.26341,-0.3532c-0.1422,-0.02428 -0.29303,-0.10764 -0.41101,-0.31283c-0.28471,-0.49521 0.13999,-0.79897 0.21913,-0.84984c-0.02188,-0.11353 -0.06095,-0.21408 -0.11278,-0.30569c-0.0369,-0.04444 -0.07347,-0.08923 -0.10971,-0.13442c-0.09314,0.01352 -0.18745,0.0057 -0.27586,-0.02161c-0.23629,0.09225 -0.46592,0.20253 -0.68428,0.33004l-1.0331,-0.53694c0,0 -0.31301,-0.54443 0.23142,-0.85744zM342.80417,190.69877c0.0085,-0.09327 0.00766,-0.17919 -0.00124,-0.25894z" fill="#000000" fill-rule="nonzero" stroke="none" stroke-width="0.5" stroke-linecap="butt" stroke-linejoin="miter"/><path d="M342.62658,190.86501l-0.47353,-0.54078" fill="none" fill-rule="nonzero" stroke="#001026" stroke-width="1.2" stroke-linecap="round" stroke-linejoin="miter"/><path d="M343.33687,191.6762l-1.67415,-1.63919" fill="none" fill-rule="nonzero" stroke="#a00000" stroke-width="1.2" stroke-linecap="round" stroke-linejoin="miter"/><path d="M340.91113,190.1439l2.13253,-0.25042" fill="none" fill-rule="nonzero" stroke="#000000" stroke-width="1.2" stroke-linecap="round" stroke-linejoin="miter"/><path d="M343.64855,190.52135l-1.27872,2.44255" fill="none" fill-rule="nonzero" stroke="#000000" stroke-width="1.2" stroke-linecap="round" stroke-linejoin="miter"/><path d="M342.34956,180.19911c-0.57566,0.25097 -0.82665,-0.32472 -0.82665,-0.32472l-0.27832,-0.64711c0.01399,-0.02534 0.02798,-0.05068 0.04195,-0.07601l-0.05853,0.01187l-0.12999,-0.64115c-0.0449,-0.19758 0.00911,-0.40595 0.14356,-0.55683c-0.02959,-0.7996 0.52767,-1.93658 1.6723,-1.61126c1.15137,0.32725 1.59564,2.64757 0.436,3.27268c-0.20936,0.11286 -0.42172,0.14124 -0.6257,0.10713c-0.01973,0.16537 -0.10953,0.34979 -0.37463,0.46537z" fill="#a00000" fill-rule="nonzero" stroke="none" stroke-width="0.5" stroke-linecap="butt" stroke-linejoin="miter"/><path d="M342.75309,177.94628c0.17288,0.3007 0.06927,0.68458 -0.23142,0.85744c-0.3007,0.17288 -0.68458,0.06927 -0.85744,-0.23142c-0.17288,-0.3007 -0.06927,-0.68458 0.23142,-0.85744c0.3007,-0.17288 0.68458,-0.06927 0.85744,0.23142z" fill="#ffffff" fill-rule="nonzero" stroke="none" stroke-width="0.5" stroke-linecap="butt" stroke-linejoin="miter"/><path d="M342.22181,189.87815l1.41143,1.46502l-0.73177,0.98985" fill="none" fill-rule="nonzero" stroke="#000000" stroke-width="1.2" stroke-linecap="round" stroke-linejoin="miter"/><path d="M347.29719,177.21104c0.3007,-0.17288 0.68458,-0.06927 0.85744,0.23142c0.01971,0.03427 0.0358,0.06962 0.04843,0.1056c0.04278,-0.15289 0.14323,-0.28975 0.29175,-0.37517c0.3007,-0.17288 0.68458,-0.06927 0.85744,0.23142c0.05773,0.10038 0.08464,0.21005 0.08364,0.31805c0.26043,-0.057 0.53865,0.05726 0.67859,0.30066c0.02716,0.04723 0.04749,0.09654 0.06132,0.14672c0.28009,-0.09889 0.59951,0.01278 0.75287,0.27951c0.17288,0.3007 0.06927,0.68458 -0.23142,0.85744c-0.02337,0.01343 -0.04724,0.02519 -0.07149,0.03532c0.13322,0.29151 0.0249,0.64187 -0.25851,0.80482c-0.3007,0.17288 -0.68458,0.06927 -0.85744,-0.23142c-0.01343,-0.02337 -0.02519,-0.04725 -0.03535,-0.07149c-0.29151,0.13322 -0.64187,0.0249 -0.80482,-0.25851c-0.03005,-0.05224 -0.05171,-0.10702 -0.06549,-0.16275c-0.26298,0.06166 -0.54603,-0.05241 -0.68758,-0.29863c-0.04199,-0.07303 -0.06767,-0.15093 -0.07817,-0.22956c-0.26918,0.07376 -0.56446,-0.03967 -0.71006,-0.29293c-0.03421,-0.05952 -0.05759,-0.1223 -0.07078,-0.18606c-0.243,0.02981 -0.49148,-0.08485 -0.62121,-0.31045c-0.17288,-0.3007 -0.06927,-0.68458 0.23142,-0.85744c0.19026,-0.10937 0.41382,-0.10807 0.59619,-0.01618c0.01079,-0.00711 0.02183,-0.01391 0.03318,-0.02045zM348.26344,178.03033c-0.01971,-0.03427 -0.0358,-0.06962 -0.04843,-0.1056c-0.00292,0.01044 -0.00611,0.0208 -0.00956,0.03104c0.00404,0.0065 0.00799,0.01309 0.01183,0.01976c0.04199,0.07303 0.06767,0.15093 0.07817,0.22956c0.03145,-0.00863 0.06325,-0.01468 0.09514,-0.01827c-0.0493,-0.04382 -0.09247,-0.09619 -0.12716,-0.15652zM348.94665,178.41269c-0.00335,-0.02721 -0.00484,-0.05449 -0.00462,-0.08165c-0.02114,0.00463 -0.0424,0.00813 -0.0637,0.01053c0.02435,0.02167 0.04721,0.04537 0.06829,0.07115zM349.81279,179.02266c-0.01408,-0.03081 -0.02547,-0.06226 -0.03423,-0.0941c-0.0107,0.00377 -0.02146,0.00724 -0.03225,0.01042c0.00419,0.00672 0.00829,0.01352 0.01227,0.02043c0.01343,0.02337 0.02519,0.04724 0.03532,0.07149c0.00627,-0.00287 0.01257,-0.00562 0.01886,-0.00825z" fill="#e93e3e" fill-rule="nonzero" stroke="none" stroke-width="0.5" stroke-linecap="butt" stroke-linejoin="miter"/><path d="M342.78355,169.64311c0.3007,-0.17288 0.68458,-0.06927 0.85744,0.23142c0.04575,0.07957 0.07214,0.16495 0.08064,0.25074c0.12067,0.0517 0.22621,0.14151 0.29666,0.2641c0.07221,0.12558 0.09616,0.26565 0.07771,0.39882c0.16484,0.03758 0.31409,0.14121 0.40498,0.2993c0.08525,0.14826 0.10325,0.3167 0.06359,0.47013c0.21936,-0.0019 0.43333,0.11134 0.55045,0.31507c0.09207,0.16017 0.10573,0.34395 0.05289,0.50686c0.20124,0.01445 0.39192,0.12542 0.50005,0.31349c0.13668,0.23772 0.10054,0.52744 -0.06917,0.72378c0.12896,0.05009 0.24228,0.14296 0.3166,0.27222c0.09197,0.15996 0.10568,0.34347 0.05311,0.50622c0.25414,-0.04636 0.52107,0.06822 0.65717,0.30497c0.07221,0.12558 0.09616,0.26565 0.07771,0.39882c0.16483,0.03759 0.31409,0.14121 0.40498,0.2993c0.03699,0.06431 0.0613,0.13245 0.07376,0.20149c0.0534,0.04551 0.10005,0.10079 0.13703,0.16512c0.02851,0.04959 0.04949,0.10142 0.06332,0.1542c0.09844,0.05356 0.18375,0.13411 0.2437,0.23841c0.10118,0.17601 0.10766,0.38051 0.0353,0.55453c0.10701,0.05326 0.19999,0.13759 0.26406,0.24901c0.17288,0.3007 0.06927,0.68458 -0.23142,0.85744c-0.3007,0.17288 -0.68458,0.06927 -0.85744,-0.23142c-0.10118,-0.17601 -0.10766,-0.38051 -0.0353,-0.55453c-0.10701,-0.05326 -0.19999,-0.13759 -0.26406,-0.24901c-0.02851,-0.04959 -0.04949,-0.10142 -0.06332,-0.1542c-0.09844,-0.05357 -0.18375,-0.13411 -0.2437,-0.23841c-0.03699,-0.06431 -0.06132,-0.13244 -0.07376,-0.2015c-0.0534,-0.04551 -0.10004,-0.10081 -0.13702,-0.16515c-0.07221,-0.12558 -0.09616,-0.26565 -0.07771,-0.39882c-0.16483,-0.0376 -0.31406,-0.14121 -0.40497,-0.29928c-0.09197,-0.15996 -0.10568,-0.34347 -0.05311,-0.50622c-0.25414,0.04635 -0.52107,-0.06822 -0.65717,-0.30497c-0.13666,-0.23772 -0.10054,-0.52744 0.06917,-0.72378c-0.12896,-0.05009 -0.24228,-0.14296 -0.3166,-0.27222c-0.09207,-0.16017 -0.10573,-0.34395 -0.05289,-0.50686c-0.20124,-0.01445 -0.39192,-0.12542 -0.50005,-0.31349c-0.08525,-0.14826 -0.10324,-0.31671 -0.06359,-0.47013c-0.21934,0.00191 -0.43333,-0.11134 -0.55045,-0.31507c-0.07221,-0.12558 -0.09616,-0.26565 -0.07771,-0.39882c-0.16483,-0.0376 -0.31409,-0.14121 -0.40498,-0.2993c-0.04575,-0.07957 -0.07214,-0.16495 -0.08064,-0.25074c-0.12067,-0.0517 -0.22621,-0.14151 -0.29666,-0.2641c-0.17288,-0.3007 -0.06927,-0.68458 0.23142,-0.85744z" fill="#e93e3e" fill-rule="nonzero" stroke="none" stroke-width="0.5" stroke-linecap="butt" stroke-linejoin="miter"/><path d="M350.12054,180.29609c0.17288,0.3007 0.06927,0.68458 -0.23142,0.85744c-0.28341,0.16296 -0.6407,0.08028 -0.82559,-0.18152c-0.02097,0.01585 -0.04313,0.03058 -0.06649,0.04401c-0.3007,0.17288 -0.68458,0.06927 -0.85744,-0.23142c-0.0669,-0.11639 -0.0924,-0.24524 -0.08107,-0.36949c-0.01358,0.00929 -0.02764,0.01814 -0.04218,0.02649c-0.3007,0.17288 -0.68458,0.06927 -0.85744,-0.23142c-0.06218,-0.10815 -0.08859,-0.22707 -0.08293,-0.34304c-0.24206,0.02852 -0.48904,-0.08613 -0.6182,-0.3108c-0.04576,-0.07959 -0.07214,-0.16498 -0.08062,-0.2508c-0.25089,0.04125 -0.51229,-0.07339 -0.64648,-0.30681c-0.17288,-0.3007 -0.06927,-0.68458 0.23142,-0.85744c0.3007,-0.17288 0.68458,-0.06927 0.85744,0.23142c0.04576,0.07959 0.07214,0.16498 0.08062,0.2508c0.25089,-0.04125 0.51229,0.07339 0.64648,0.30681c0.06217,0.10814 0.08858,0.22706 0.08293,0.34304c0.24206,-0.02852 0.48904,0.08615 0.6182,0.3108c0.0669,0.11639 0.0924,0.24524 0.08107,0.36949c0.01358,-0.00929 0.02764,-0.01814 0.04218,-0.02649c0.28341,-0.16296 0.6407,-0.08025 0.82559,0.18153c0.02097,-0.01586 0.04314,-0.03057 0.06651,-0.04401c0.3007,-0.17288 0.68458,-0.06927 0.85744,0.23142z" fill="#e93e3e" fill-rule="nonzero" stroke="none" stroke-width="0.5" stroke-linecap="butt" stroke-linejoin="miter"/><path d="M341.76506,167.61961c0.03459,0.06012 0.01385,0.1369 -0.04628,0.17149c-0.06012,0.03459 -0.1369,0.01385 -0.17149,-0.04628c-0.03459,-0.06012 -0.01385,-0.1369 0.04628,-0.17149c0.06012,-0.03459 0.1369,-0.01385 0.17149,0.04628z" fill="#a00000" fill-rule="nonzero" stroke="none" stroke-width="0.5" stroke-linecap="butt" stroke-linejoin="miter"/><path d="M340.00726,169.48251c-0.05587,0.11249 -0.16835,0.05661 -0.16835,0.05661l-0.00527,-0.00261c-0.14998,-0.0745 -0.29996,-0.14899 -0.44994,-0.22348c0,0 -0.11249,-0.05587 -0.05661,-0.16835c0.05587,-0.11249 0.16835,-0.05661 0.16835,-0.05661c0.14998,0.07451 0.30522,0.1516 0.45522,0.2261c0,0 0.11249,0.05587 0.05661,0.16835z" fill="#a00000" fill-rule="nonzero" stroke="none" stroke-width="0.5" stroke-linecap="butt" stroke-linejoin="miter"/><path d="M339.79107,167.83204c0.10307,-0.05926 0.22245,-0.06437 0.32518,-0.02423c-0.01324,-0.10918 0.01289,-0.25146 0.18963,-0.35305c0.32668,-0.18781 0.51447,0.13885 0.51447,0.13885l0.03495,0.07107c0.02716,0.0336 0.0545,0.06589 0.08202,0.09715c0.04322,-0.00963 0.08729,-0.01139 0.13024,-0.00578c-0.01536,-0.03508 -0.02399,-0.09018 0.03389,-0.14088c0.01886,-0.01651 0.03723,-0.02597 0.05461,-0.03051c0.00747,-0.00665 0.01626,-0.01305 0.02664,-0.01898c0.1089,-0.06261 0.17149,0.04628 0.17149,0.04628l0.03514,0.06111c0.02919,0.0554 0.05111,0.11642 0.06477,0.17948c0.04802,0.06567 0.09787,0.13508 0.14882,0.20338c0.00596,-0.00339 0.01201,-0.00692 0.01817,-0.01059l0.19157,0.01361c0,0 0.01918,0.00518 0.04024,0.01903c0.00653,-0.00593 0.01382,-0.01124 0.02179,-0.01582c0.06012,-0.03459 0.1369,-0.01385 0.17149,0.04628c0.01692,0.02945 0.02059,0.06289 0.01287,0.09341c0.00455,-0.00173 0.00916,-0.00322 0.01382,-0.00439c0.01472,-0.01744 0.03591,-0.03359 0.0656,-0.03862c0.00733,-0.00712 0.01565,-0.01344 0.02493,-0.01877c0.06012,-0.03459 0.1369,-0.01385 0.17149,0.04628c0.02643,0.04597 0.02055,0.10164 -0.01054,0.14077c0.00044,0.00319 0.00079,0.00639 0.00101,0.00958c0.00311,0.04637 -0.01974,0.09265 -0.06273,0.11738c-0.00287,0.00165 -0.00576,0.00318 -0.00869,0.00456c-0.01066,0.05651 -0.01921,0.11289 -0.0276,0.16929c0.05559,0.03685 0.1112,0.07371 0.16681,0.11058c0,0 0.1047,0.06939 0.03529,0.17408c-0.04594,0.06927 -0.1073,0.06231 -0.14359,0.04969c-0.01335,0.01915 -0.02713,0.0375 -0.04133,0.05507c0.03096,0.05383 0.06193,0.1077 0.09286,0.16151l0.07441,-0.04278c0,0 0.04443,-0.02555 0.09287,-0.01562c-0.01225,-0.03462 -0.0243,-0.10511 0.05532,-0.1509c0.1089,-0.06261 0.17149,0.04628 0.17149,0.04628l0.03514,0.06111c0.03514,0.06111 0.07025,0.12219 0.1054,0.18332c0,0 0.06261,0.1089 -0.04628,0.17149c-0.1089,0.06261 -0.17149,-0.04628 -0.17149,-0.04628c-0.01484,-0.02583 -0.03599,-0.06257 -0.05808,-0.10101c-0.01661,0.04491 -0.05915,0.06936 -0.05915,0.06936l-0.05468,0.03143l0.00969,0.06043c-0.00021,0.00032 -0.00044,0.00067 -0.00066,0.00098c0.02809,0.04886 0.05616,0.0977 0.08427,0.14658c0,0 0.06261,0.1089 -0.04628,0.17149c-0.1089,0.06261 -0.17149,-0.04628 -0.17149,-0.04628c-0.0155,-0.02697 -0.03138,-0.05457 -0.04754,-0.08267c-0.02317,0.0019 -0.04991,-0.00383 -0.07948,-0.02341c-0.04595,-0.03045 -0.05837,-0.0677 -0.05783,-0.09991c-0.06395,0.06473 -0.12833,0.09803 -0.18906,0.11143c-0.01365,0.1141 -0.07911,0.22055 -0.1864,0.28221c-0.18042,0.10373 -0.41075,0.04156 -0.51447,-0.13885c-0.05203,-0.09053 -0.06232,-0.19361 -0.03685,-0.28698c-0.0029,-0.00392 -0.00562,-0.00805 -0.00812,-0.01239c-0.03459,-0.06012 -0.01385,-0.1369 0.04628,-0.17149c0.01635,-0.0094 0.03393,-0.01471 0.05157,-0.01625c-0.1205,-0.05475 -0.18574,-0.16823 -0.18574,-0.16823c-0.07955,-0.14576 -0.17677,-0.26567 -0.28248,-0.37615c0.00255,0.01469 0.00839,0.02827 0.01841,0.04015c0,0 0.04259,0.07409 -0.0036,0.13517c0.01597,0.02776 0.03192,0.05551 0.04789,0.08328l0.02007,-0.03268c0,0 0.12127,0.03274 0.08853,0.15399c-0.03274,0.12127 -0.15399,0.08853 -0.15399,0.08853l-0.1724,-0.08463c-0.05855,-0.10185 -0.1171,-0.2037 -0.17567,-0.30551c0,0 -0.06261,-0.1089 0.04628,-0.17149c0.02301,-0.01324 0.04397,-0.0188 0.06268,-0.01936c0.00547,-0.02791 0.01262,-0.05561 0.02099,-0.08271c-0.10565,-0.09849 -0.21387,-0.19748 -0.31708,-0.31045c-0.02005,0.10375 -0.08339,0.19854 -0.18219,0.25533c-0.18042,0.10373 -0.41075,0.04156 -0.51447,-0.13885c-0.10373,-0.18042 -0.04156,-0.41075 0.13885,-0.51447zM341.99486,168.38185c-0.01692,-0.02945 -0.02059,-0.06289 -0.01287,-0.09341c-0.01758,0.00672 -0.03603,0.00923 -0.05402,0.00789c-0.0028,0.00578 -0.00607,0.01135 -0.00975,0.01666l-0.04317,0.06512c0.04114,0.03932 0.08216,0.0729 0.12274,0.09842c0.0039,-0.02443 0.00799,-0.04893 0.01242,-0.07342c-0.00574,-0.00642 -0.01089,-0.0135 -0.01537,-0.02129z" fill="#a00000" fill-rule="nonzero" stroke="none" stroke-width="0.5" stroke-linecap="butt" stroke-linejoin="miter"/><path d="M338.94174,167.34473l0.01679,-0.00529c0.13087,-0.10234 0.26173,-0.20471 0.39261,-0.30704c0,0 0.02659,-0.0208 0.07009,-0.04199c0.01122,-0.00821 0.02299,-0.0159 0.03535,-0.023c0.18042,-0.10373 0.41075,-0.04156 0.51447,0.13885c0.10373,0.18042 0.04156,0.41075 -0.13885,0.51447c-0.00976,0.0056 -0.01969,0.01076 -0.02973,0.01541c-0.12656,0.09897 -0.2531,0.19794 -0.37968,0.29692l-0.10541,0.06498c0,0 -0.32668,0.18781 -0.51447,-0.13885c-0.18781,-0.32668 0.13885,-0.51447 0.13885,-0.51447z" fill="#a00000" fill-rule="nonzero" stroke="none" stroke-width="0.5" stroke-linecap="butt" stroke-linejoin="miter"/><path d="M337.56425,160.66508c0.29539,0.87802 -0.53042,2.70072 0.14727,3.49953c0.11365,0.01367 0.26526,0.07507 0.31031,0.29724c0.04963,0.24479 -0.09591,0.36021 -0.19967,0.41022c-0.10466,0.08827 -0.211,0.09466 -0.29703,0.07439l-0.03797,0.0076c-1.865,0.26441 -3.69624,0.72763 -5.57057,0.83072c-0.48104,0.02647 -1.84789,0.6114 -1.94733,-0.37827c-0.03949,-0.39295 1.56115,-1.11806 1.83883,-1.2777c0.95719,-0.55032 1.90994,-1.10927 2.87194,-1.65117c0.15206,-0.08567 0.69204,-0.42541 0.70095,-0.64714c0.00433,-0.10804 -0.69808,-0.57681 -0.7955,-0.65374c-0.89063,-0.70345 -1.26897,-1.79548 -2.16601,-2.49466c-0.60731,-0.48593 -1.67576,-2.35667 0.02448,-2.08337c0.40683,0.0654 1.07243,0.76337 1.50709,0.92308c1.68693,0.61988 2.8469,1.1557 4.20273,2.36151c0,0 0.28147,0.25051 0.03097,0.53196c-0.25051,0.28147 -0.53196,0.03097 -0.53196,0.03097c-0.02931,-0.02608 -0.05847,-0.05195 -0.08751,-0.07753c0.04877,0.10262 0.04183,0.20744 0.04183,0.20744l-0.04285,0.08892z" fill="#ffffff" fill-rule="nonzero" stroke="none" stroke-width="0.5" stroke-linecap="butt" stroke-linejoin="miter"/><path d="M331.29141,157.32692c0.00109,-0.00998 0.00229,-0.01992 0.00363,-0.0298l0.16487,0.04004c0.00503,-0.0031 0.01018,-0.00619 0.01544,-0.0092c0.07256,-0.04169 0.13823,-0.05806 0.19655,-0.05823c-0.0667,-0.09969 -0.13188,-0.2053 -0.19787,-0.31942c0,0 -0.18781,-0.32668 0.13885,-0.51447c0.32668,-0.18781 0.51447,0.13885 0.51447,0.13885c0.01237,0.02167 0.02466,0.04292 0.03687,0.06373l0.40435,0.32931c0.04625,0.01996 0.0924,0.05003 0.13801,0.08923c0.00709,-0.08647 0.016,-0.18188 0.02618,-0.28799l0.74363,0.45773c0.01927,0.10552 0.03855,0.21101 0.05783,0.31651c0.27686,0.02204 0.49954,0.11679 0.59314,0.38925c0.10581,0.30804 -0.04715,0.64972 -0.07075,0.97459l-0.32127,-0.18836c-0.00214,0.09884 -0.00431,0.19765 -0.00644,0.29645l-0.3562,-0.20192c0.01333,0.07398 0.02458,0.14793 0.03379,0.22148l-0.79977,-0.27651c-0.08036,-0.11242 -0.13793,-0.24307 -0.17433,-0.38043c-0.27622,-0.03425 -0.54915,-0.10838 -0.79899,-0.22312l-0.04507,0.08699c-0.05914,-0.05368 -0.10946,-0.11764 -0.15109,-0.18837c-0.07532,-0.04363 -0.14773,-0.09136 -0.21663,-0.14326l0.07084,-0.58304z" fill="#a00000" fill-rule="nonzero" stroke="none" stroke-width="0.5" stroke-linecap="butt" stroke-linejoin="miter"/><path d="M331.55445,164.11197c0.32668,-0.18781 0.51447,0.13885 0.51447,0.13885l0.0267,0.05036c0.10989,0.01642 0.21148,0.0811 0.27117,0.1849c0.04128,0.07179 0.05628,0.15151 0.04801,0.22798l0.49192,0.46525c0.02867,0.02589 0.05382,0.05665 0.07412,0.09197c0.10373,0.18042 0.04156,0.41075 -0.13885,0.51447c-0.14021,0.08063 -0.31058,0.06103 -0.42825,-0.03641l-0.1809,-0.14286l0.00574,0.11966c-0.1407,-0.05145 -0.26662,-0.10413 -0.37737,-0.15739c-0.03162,0.04955 -0.07531,0.09242 -0.12979,0.12377c-0.14021,0.08063 -0.31058,0.06103 -0.42825,-0.03641l-0.14123,-0.11156c-0.02015,0.10357 -0.08344,0.19815 -0.18209,0.25485c-0.04194,0.0241 -0.0866,0.03926 -0.1317,0.04603c-0.0989,0.0926 -0.20165,0.12723 -0.28146,0.02773c-0.00767,0.0052 -0.01557,0.01013 -0.02371,0.01482c-0.18042,0.10373 -0.41075,0.04156 -0.51447,-0.13885c-0.01173,-0.02042 -0.02136,-0.04146 -0.02891,-0.06292l-0.10359,-0.27809l-0.06365,-0.00583c0.01199,-0.02344 0.02394,-0.04632 0.03589,-0.06864l-0.01368,-0.03674c-0.06712,-0.1709 -0.00083,-0.36974 0.16312,-0.46402c0.07287,-0.04189 0.15384,-0.05672 0.23136,-0.04765c0.16837,-0.16834 0.3188,-0.21557 0.43787,-0.16152c0.209,-0.11361 0.46442,-0.05752 0.71017,-0.03672c-0.03788,-0.09251 -0.1002,-0.32696 0.1574,-0.47506z" fill="#a00000" fill-rule="nonzero" stroke="none" stroke-width="0.5" stroke-linecap="butt" stroke-linejoin="miter"/><path d="M335.39959,154.20555c0.10373,0.18042 0.04156,0.41075 -0.13885,0.51447c-0.18042,0.10373 -0.41075,0.04156 -0.51447,-0.13885c-0.10373,-0.18042 -0.04156,-0.41075 0.13885,-0.51447c0.18042,-0.10373 0.41075,-0.04156 0.51447,0.13885z" fill="#a00000" fill-rule="nonzero" stroke="none" stroke-width="0.5" stroke-linecap="butt" stroke-linejoin="miter"/><path d="M337.52119,151.66716l-0.15113,0.22291c-0.20073,0.39829 -0.46247,0.76542 -0.73804,1.11613c0,0 -0.23355,0.2957 -0.52923,0.06216c-0.2957,-0.23355 -0.06216,-0.52923 -0.06216,-0.52923c0.24543,-0.30895 0.48039,-0.63206 0.65524,-0.98577l0.19718,-0.30255c0,0 0.20819,-0.31406 0.52226,-0.10587c0.31406,0.20819 0.10587,0.52226 0.10587,0.52226z" fill="#a00000" fill-rule="nonzero" stroke="none" stroke-width="0.5" stroke-linecap="butt" stroke-linejoin="miter"/><path d="M338.19679,150.72737c0.10373,0.18042 0.04156,0.41075 -0.13885,0.51447c-0.18042,0.10373 -0.41075,0.04156 -0.51447,-0.13885c-0.10373,-0.18042 -0.04156,-0.41075 0.13885,-0.51447c0.18042,-0.10373 0.41075,-0.04156 0.51447,0.13885z" fill="#a00000" fill-rule="nonzero" stroke="none" stroke-width="0.5" stroke-linecap="butt" stroke-linejoin="miter"/><path d="M339.44486,149.92849c0.10373,0.18042 0.04156,0.41075 -0.13885,0.51447c-0.18042,0.10373 -0.41075,0.04156 -0.51447,-0.13885c-0.10373,-0.18042 -0.04156,-0.41075 0.13885,-0.51447c0.18042,-0.10373 0.41075,-0.04156 0.51447,0.13885z" fill="#a00000" fill-rule="nonzero" stroke="none" stroke-width="0.5" stroke-linecap="butt" stroke-linejoin="miter"/><path d="M334.87861,155.56204c0.10373,0.18042 0.04156,0.41075 -0.13885,0.51447c-0.18042,0.10373 -0.41075,0.04156 -0.51447,-0.13885c-0.10373,-0.18042 -0.04156,-0.41075 0.13885,-0.51447c0.18042,-0.10373 0.41075,-0.04156 0.51447,0.13885z" fill="#a00000" fill-rule="nonzero" stroke="none" stroke-width="0.5" stroke-linecap="butt" stroke-linejoin="miter"/><path d="M331.60921,162.31994c0.10373,0.18042 0.04156,0.41075 -0.13885,0.51447c-0.18042,0.10373 -0.41075,0.04156 -0.51447,-0.13885c-0.10373,-0.18042 -0.04156,-0.41075 0.13885,-0.51447c0.18042,-0.10373 0.41075,-0.04156 0.51447,0.13885z" fill="#a00000" fill-rule="nonzero" stroke="none" stroke-width="0.5" stroke-linecap="butt" stroke-linejoin="miter"/><path d="M331.90261,160.8504c0.10373,0.18042 0.04156,0.41075 -0.13885,0.51447c-0.18042,0.10373 -0.41075,0.04156 -0.51447,-0.13885c-0.10373,-0.18042 -0.04156,-0.41075 0.13885,-0.51447c0.18042,-0.10373 0.41075,-0.04156 0.51447,0.13885z" fill="#a00000" fill-rule="nonzero" stroke="none" stroke-width="0.5" stroke-linecap="butt" stroke-linejoin="miter"/><path d="M332.48468,159.45878c0.10373,0.18042 0.04156,0.41075 -0.13885,0.51447c-0.18042,0.10373 -0.41075,0.04156 -0.51447,-0.13885c-0.10373,-0.18042 -0.04156,-0.41075 0.13885,-0.51447c0.18042,-0.10373 0.41075,-0.04156 0.51447,0.13885z" fill="#a00000" fill-rule="nonzero" stroke="none" stroke-width="0.5" stroke-linecap="butt" stroke-linejoin="miter"/><path d="M317.42912,189.68458c-0.30161,0.17342 -0.64508,0.20771 -0.95616,0.12298c-0.16339,0.22223 -0.43308,0.40935 -0.87649,0.45543c-0.70725,0.07351 -1.05571,-0.295 -1.22497,-0.62859c-0.49139,0.12132 -1.02045,-0.06568 -1.32258,-0.48963l-0.80405,-1.09714l0.15017,-0.11006l-0.34309,-0.28156c0.09517,-2.37837 0.62666,-6.93437 3.97353,-3.52286c0.11516,0.11737 0.21402,0.23849 0.2987,0.36283c0.32084,0.07927 0.61005,0.28424 0.78781,0.59337c0.31842,0.55384 0.16782,1.24885 -0.32773,1.62531c-0.01075,0.20797 -0.02743,0.41722 -0.04394,0.62634c0.45617,-0.02246 0.90837,0.20555 1.15167,0.62868c0.34574,0.60137 0.13853,1.36915 -0.46284,1.71492z" fill="#ffffff" fill-rule="nonzero" stroke="none" stroke-width="0.5" stroke-linecap="butt" stroke-linejoin="miter"/><path d="M317.67167,183.01561c0.32546,0.56607 0.16095,1.27959 -0.36104,1.64976c0.10599,0.0907 0.19857,0.20073 0.27208,0.32856c0.26273,0.45698 0.20617,1.01004 -0.10001,1.40097c0.08364,0.25263 0.08258,0.52005 0.00686,0.76492c0.23997,0.10361 0.44976,0.28275 0.59006,0.52677c0.34574,0.60137 0.13853,1.36915 -0.46284,1.71492c-0.60137,0.34574 -1.36915,0.13853 -1.71492,-0.46284c-0.18109,-0.31499 -0.21049,-0.67561 -0.111,-0.99736c-0.23997,-0.10361 -0.44976,-0.28275 -0.59006,-0.52677c-0.26273,-0.45698 -0.20617,-1.01004 0.10001,-1.40097c-0.17126,-0.51728 0.01258,-1.09637 0.46517,-1.41734c-0.10599,-0.0907 -0.19857,-0.20073 -0.27208,-0.32856c-0.34574,-0.60137 -0.13853,-1.36915 0.46284,-1.71492c0.60137,-0.34574 1.36915,-0.13853 1.71492,0.46284z" fill="#a00000" fill-rule="nonzero" stroke="none" stroke-width="0.5" stroke-linecap="butt" stroke-linejoin="miter"/></g></g></g></svg>