<svg version="1.1" xmlns="http://www.w3.org/2000/svg" xmlns:xlink="http://www.w3.org/1999/xlink" width="980.48048" height="630.63063" viewBox="0,0,980.48048,630.63063"><g transform="translate(145.24024,130.31528)"><g data-paper-data="{&quot;isPaintingLayer&quot;:true}" stroke-miterlimit="10" stroke-dasharray="" stroke-dashoffset="0" style="mix-blend-mode: normal"><path d="M-145.24024,500.31535v-630.63063h980.48048v630.63063z" fill="#000000" fill-rule="nonzero" stroke="#ff3838" stroke-width="0" stroke-linecap="butt" stroke-linejoin="miter"/><text transform="translate(304.71471,259.28905) scale(0.5,0.5)" font-size="40" xml:space="preserve" fill="#ffffff" fill-rule="nonzero" stroke="none" stroke-width="1" stroke-linecap="butt" stroke-linejoin="miter" stroke-miterlimit="10" stroke-dasharray="" stroke-dashoffset="0" font-family="Marker" font-weight="normal" text-anchor="start" style="mix-blend-mode: normal"><tspan x="0" dy="0">Loading</tspan></text><g><path d="M347.34592,176.05802c-0.36261,-0.36887 0.60725,-4.02515 -0.13849,-5.59122c-0.56342,-1.09522 -1.33908,-2.39242 -2.72573,-3.26004c-3.10911,-2.00728 -2.14223,-2.28317 -1.6341,-4.40441c0.49476,-2.16967 1.73484,-3.33796 5.30513,2.0342c1.24023,1.84636 1.74898,3.68645 2.1156,5.20097c0.1071,0.38739 0.69191,3.82233 -0.63318,5.4397c-1.32509,1.61737 -1.98849,0.91466 -2.2893,0.58083z" fill="#000000" fill-rule="evenodd" stroke="#001026" stroke-width="1.2" stroke-linecap="round" stroke-linejoin="round"/><path d="M353.48367,177.47244c-0.35349,0.98386 -1.5652,2.25713 -3.30106,1.06905c-2.04491,-1.36326 -0.86909,-4.08608 -0.4105,-5.25538c0.4586,-1.16931 0.76052,-1.77402 1.25015,-4.15078c0.20821,-0.94369 0.30106,-2.11612 0.33409,-2.75076c-0.01851,-0.25549 -0.08546,-0.49764 -0.24925,-0.71297c-0.31418,-0.38225 -0.29485,4.6613 0.1287,3.55384c0.55988,-1.15181 -0.58746,-1.46277 1.19643,-0.59473c0.20494,0.0997 -0.328,-0.23169 -0.10071,-0.15007c2.13856,0.76801 1.23598,-0.82973 1.18005,0.54571c-0.08686,2.89089 1.51152,3.10609 0.12176,2.60421c-0.22047,-0.04328 -0.90505,0.25023 -0.89992,0.45731l2.09187,-1.38009c-0.02225,0.60555 0.38315,-0.82008 0.31875,-0.24478c-0.07148,0.63857 -0.5244,2.23807 -0.63089,2.82342c-0.45663,2.51033 -0.79384,3.47078 -1.02951,4.18603z" fill="#000000" fill-rule="evenodd" stroke="#001026" stroke-width="1.2" stroke-linecap="round" stroke-linejoin="round"/><path d="M345.17592,187.55214c-0.95395,-0.62239 -1.07019,-2.3625 0.27227,-2.78579c1.25901,-0.34808 2.8476,0.30732 3.78302,0.67419c0.93544,0.36687 4.54217,2.28869 3.96482,6.04495c-0.33811,1.60511 -2.13944,5.64765 -4.21937,4.34621c-2.07995,-1.30143 -0.53638,-3.44834 0.15917,-4.89166c0.60387,-1.20946 -3.69932,-3.19935 -3.95996,-3.38791z" fill="#000000" fill-rule="evenodd" stroke="#001026" stroke-width="1.2" stroke-linecap="round" stroke-linejoin="round"/><g fill-rule="evenodd"><path d="M351.90015,181.70796c-0.27517,0.70158 -0.84086,1.4835 -1.74037,2.56618c-0.746,0.88387 -2.35024,2.05717 -2.35024,2.05717c-1.09009,0.77051 -3.3341,1.70368 -3.72748,0.09233c-0.24613,-1.0787 -0.65916,-2.00702 -1.35645,-3.58647c-1.38438,-2.74475 -1.91903,-3.1703 -0.26837,-4.92981c1.96284,-1.95006 2.73389,-5.75988 7.89103,-2.75507c0,0 2.49612,1.86402 6.09457,3.94448c2.42404,1.41482 5.97922,3.71577 7.1938,4.52669c0.26063,0.18856 0.4378,0.45232 0.56656,0.72948c1.73446,4.5766 2.21418,8.19698 0.13195,8.77266c-3.4865,0.96395 -4.19041,-6.29533 -4.19041,-6.29533c0,0 -2.50439,-1.70535 -3.70557,-2.46788z" fill="#000000" stroke="#001026" stroke-width="1.2" stroke-linecap="round" stroke-linejoin="round"/><path d="M349.24482,184.73556c0,0 -0.95623,1.25476 -2.83935,-0.46599c-2.00675,-1.7908 -0.6848,-3.04243 0.23639,-4.23537c1.23338,-1.3835 2.22748,-0.61585 3.36688,0.11162c0.94055,0.57397 1.72246,1.13964 1.72246,1.13964c0,0 -0.60186,1.78229 -2.48637,3.45005z" fill="#a00000" stroke="none" stroke-width="1" stroke-linecap="butt" stroke-linejoin="miter"/></g><g fill-rule="evenodd"><path d="M320.07397,194.23167c-0.50162,-1.06018 -0.91979,-2.19557 -1.19781,-3.57822c-0.5324,-2.30267 -0.31166,-4.70936 -0.31166,-4.70936l-5.44542,-4.80158c-0.1504,-0.16691 -0.07206,-0.4492 0.13501,-0.45432l8.94898,-1.37957c-0.30705,0.39764 4.77908,-6.84658 11.24993,-4.93475c6.47084,1.91182 10.96204,8.54101 11.68735,18.13999c0.72529,9.59899 -3.91538,13.17555 -6.83617,13.3576c-2.9208,0.18205 -4.88825,-2.97488 -4.88825,-2.97488c0,0 -2.19246,0.55404 -5.28416,-0.25916c-1.85234,-0.47823 -4.9851,-2.94811 -4.9851,-2.94811l-5.52942,0.17351c-0.20709,0.00511 -0.32245,-0.22361 -0.26575,-0.39566z" fill="#000000" stroke="#001026" stroke-width="1.2" stroke-linecap="butt" stroke-linejoin="miter"/><path d="M333.56945,202.69774c-2.05803,-3.86161 0.88554,-5.09248 0.16371,-8.6459c-0.83405,-4.14791 -6.78025,-8.49829 -2.49591,-13.17521c4.2359,-4.66353 12.74854,-1.0227 13.56726,11.36521c0.74694,9.48876 -3.59805,13.19206 -6.51886,13.3741c-2.92079,0.18205 -4.7162,-2.9182 -4.7162,-2.9182z" fill="#000000" stroke="none" stroke-width="1" stroke-linecap="butt" stroke-linejoin="miter"/><path d="M334.53351,186.01177c2.33259,-0.8013 5.55219,-1.22231 7.25475,3.05033c1.69627,5.00413 -1.42674,7.84834 -2.61368,8.64565c-0.21533,0.16379 -0.51103,0.03703 -0.52953,-0.21848c-0.05556,-0.76651 -0.33869,-2.35623 -1.20693,-4.93095c-0.99699,-2.85185 -2.49473,-5.25252 -3.08806,-6.07886c-0.10198,-0.18029 -0.01025,-0.41416 0.18344,-0.4677z" fill="#000000" stroke="#001026" stroke-width="1.2" stroke-linecap="round" stroke-linejoin="round"/><path d="M336.86087,205.17585c0,0 0.91552,3.49989 -0.29534,6.28455" fill="none" stroke="#001026" stroke-width="1.2" stroke-linecap="round" stroke-linejoin="round"/><path d="M339.7714,204.57965c0,0 1.44219,1.63413 2.04352,4.75177" fill="none" stroke="#001026" stroke-width="1.2" stroke-linecap="round" stroke-linejoin="round"/><path d="M332.43426,191.8047c0.77478,-0.21421 2.54766,1.48489 2.6918,2.38329c0.16578,0.78817 -0.98925,1.88937 -1.68056,2.0284c-0.35235,0.04528 -0.74375,-0.99325 -1.0249,-2.01016c-0.26776,-0.96847 -0.58082,-2.28929 0.01365,-2.40152z" fill="#001026" stroke="#000000" stroke-width="1.2" stroke-linecap="round" stroke-linejoin="round"/><path d="M330.14655,177.68579c-1.9697,-1.27979 -4.47695,-5.06935 -4.47695,-5.06935" fill="none" stroke="#001026" stroke-width="1.2" stroke-linecap="round" stroke-linejoin="round"/><path d="M330.60566,171.61657c0,0 1.52338,3.43607 1.27587,5.74589" fill="none" stroke="#001026" stroke-width="1.2" stroke-linecap="round" stroke-linejoin="round"/><g fill="#a00000"><path d="M324.61815,197.0932c0.49675,-1.59686 2.97975,-2.23121 5.54706,-1.42939c2.58069,0.85025 4.21345,2.79657 3.71671,4.39341c-0.49675,1.59686 -2.97975,2.23121 -5.54706,1.42939c-2.56734,-0.80183 -4.26188,-2.78318 -3.71671,-4.39341z" stroke="#001026" stroke-width="1.2" stroke-linecap="round" stroke-linejoin="round"/><path d="M331.04144,200.52981c-0.53264,0.14727 -1.07558,-0.11962 -1.20946,-0.60387c-0.13389,-0.48425 0.19483,-0.99212 0.7275,-1.13939c0.53264,-0.14727 1.07558,0.11962 1.20946,0.60387c0.13389,0.48425 -0.19483,0.99212 -0.7275,1.13939" stroke="none" stroke-width="1" stroke-linecap="butt" stroke-linejoin="miter"/></g><g><path d="M326.37046,189.1027c-2.53231,-0.86362 -4.32369,-2.81821 -3.62497,-4.62726c0.65029,-1.79567 3.4372,-2.46194 5.98288,-1.54989c2.53231,0.86362 3.79929,2.80683 3.32105,4.65917c-0.55857,1.56181 -3.14666,2.38163 -5.67894,1.518z" fill="#ffffff" stroke="#001026" stroke-width="1.2" stroke-linecap="round" stroke-linejoin="round"/><path d="M329.09868,188.03564c-0.53264,0.14727 -1.02715,-0.13302 -1.20946,-0.60387c-0.13389,-0.48425 0.19483,-0.99212 0.7275,-1.13939c0.53264,-0.14727 1.07558,0.11962 1.20946,0.60387c0.13389,0.48425 -0.19483,0.99212 -0.7275,1.13939" fill="#001026" stroke="none" stroke-width="1" stroke-linecap="butt" stroke-linejoin="miter"/></g></g><path d="M330.68834,188.23748c0,0 0.10212,0.11332 0.14985,0.27859c0.17546,-0.03492 0.37067,-0.09944 0.61949,-0.21787c0.75904,-0.21209 1.51863,-0.42209 2.27826,-0.63211l0.43867,-0.2349c0,0 0.56072,-0.28281 0.84354,0.27791c0.2828,0.56072 -0.27791,0.84354 -0.27791,0.84354l-0.66958,0.32406c-0.72633,0.20081 -1.45257,0.40185 -2.17953,0.60038c-1.45294,0.66073 -3.64406,0.69859 -5.10402,0.63206c-1.17927,-0.05372 -1.94184,-1.10391 -3.21708,-1.13099c-0.47202,-0.01003 -0.85391,0.45559 -1.3235,0.50439c-0.24064,0.02501 -0.46097,-0.21953 -0.70094,-0.1886c-1.26845,0.16355 -1.37999,0.52224 -2.67295,-0.02017c0,0 -0.57719,-0.24746 -0.32974,-0.82464c0.24746,-0.57719 0.82464,-0.32974 0.82464,-0.32974c1.55136,0.68328 2.67398,-0.36884 4.20307,-0.39725c1.04861,-0.01948 2.04044,0.48363 2.84261,1.02289c0.03191,0.02144 0.06201,0.0394 0.09059,0.05423c0.0233,-0.13246 0.07676,-0.22678 0.07676,-0.22678c0.11318,-0.19967 0.22635,-0.39931 0.33951,-0.59897l0.49629,-0.32806c0,0 0.60529,-0.16735 0.77264,0.43794c0.11188,0.40462 -0.12153,0.61353 -0.28857,0.70761c-0.00344,0.00605 -0.00685,0.01211 -0.01027,0.01813c0.11508,0.07108 0.22997,0.14353 0.35981,0.1579c0.35989,0.03976 0.68928,-0.20007 1.03682,-0.32308c-0.13666,-0.13539 -0.18437,-0.30799 -0.18437,-0.30799l1.03941,-0.70503c0.18219,0.20218 0.36435,0.40438 0.54652,0.60656z" fill="#a00000" fill-rule="nonzero" stroke="none" stroke-width="0.5" stroke-linecap="butt" stroke-linejoin="miter"/><path d="M335.95387,189.72338c0.2828,0.56072 -0.27791,0.84354 -0.27791,0.84354l-0.48675,0.24008c-0.22694,0.15167 -0.45391,0.30335 -0.68085,0.45503c-0.64616,0.29831 -1.35371,0.98871 -2.0648,1.09215c-0.61675,0.08972 -1.46651,-0.1765 -2.09697,-0.20894c-1.74797,-0.08994 -3.73207,-0.13046 -5.46635,0.01835c-1.54014,0.13213 -3.48916,1.1027 -5.01174,1.52368c0,0 -0.60529,0.16735 -0.77264,-0.43794c-0.16735,-0.60529 0.43794,-0.77264 0.43794,-0.77264c1.6244,-0.44911 3.59495,-1.41147 5.24671,-1.56513c1.78534,-0.16607 3.84147,-0.11479 5.63536,-0.02039c0.05803,0.00306 1.69428,0.23767 1.81155,0.22577c0.48538,-0.04926 1.22103,-0.74196 1.66427,-0.94907c0.19905,-0.13448 0.3981,-0.26895 0.59714,-0.40344l0.62148,-0.31887c0,0 0.56072,-0.28281 0.84354,0.27791z" fill="#a00000" fill-rule="nonzero" stroke="none" stroke-width="0.5" stroke-linecap="butt" stroke-linejoin="miter"/><path d="M345.26572,198.47094c-0.30969,0.54635 -0.85603,0.23668 -0.85603,0.23668l-0.41746,-0.27106c-2.1445,0.31816 -4.35256,0.63877 -6.51513,0.85488c-1.70026,0.16993 -3.04911,1.56043 -4.43173,-0.05982c0,0 -0.38018,-0.49986 0.11966,-0.88004c0.49985,-0.38019 0.88003,0.11967 0.88003,0.11967c0.44406,0.76409 1.77668,-0.02085 2.4926,-0.21478c2.43131,-0.65862 5.2,-0.86293 7.71092,-1.04948l0.78049,0.40795c0,0 0.54634,0.30967 0.23668,0.85603z" fill="#a00000" fill-rule="nonzero" stroke="none" stroke-width="0.5" stroke-linecap="butt" stroke-linejoin="miter"/><path d="M345.13976,200.0655c0.16735,0.60529 -0.43794,0.77264 -0.43794,0.77264l-0.57102,0.14902c-2.28659,0.24002 -4.46884,0.79204 -6.77174,0.84879c-1.43638,0.03541 -2.91318,-0.47117 -4.31755,-0.30839c0,0 -0.62457,0.06556 -0.69014,-0.55901c-0.06556,-0.62457 0.55901,-0.69014 0.55901,-0.69014c1.47638,-0.14251 2.94511,0.33874 4.43796,0.30156c2.26075,-0.05629 4.4035,-0.606 6.65135,-0.84197l0.36745,-0.11045c0,0 0.60529,-0.16735 0.77264,0.43794z" fill="#a00000" fill-rule="nonzero" stroke="none" stroke-width="0.5" stroke-linecap="butt" stroke-linejoin="miter"/><path d="M325.86584,185.19963c0.27292,0.56559 -0.29266,0.83853 -0.29266,0.83853l-0.09435,0.04553c-1.85126,0.69208 -1.92549,0.62275 -2.71481,-1.06558c0,0 -0.2646,-0.56953 0.30496,-0.83413c0.56953,-0.2646 0.83413,0.30496 0.83413,0.30496c0.14316,0.3104 0.00224,1.04289 0.33598,0.96891c0.27934,-0.06191 0.46258,-0.33691 0.69387,-0.50536l0.09435,-0.04553c0,0 0.56559,-0.27292 0.83853,0.29266z" fill="#a00000" fill-rule="nonzero" stroke="none" stroke-width="0.5" stroke-linecap="butt" stroke-linejoin="miter"/><path d="M328.01598,185.24702c-0.60529,0.16735 -0.77264,-0.43794 -0.77264,-0.43794l-0.03243,-0.11733c-0.12973,-0.46925 -0.25947,-0.93849 -0.3892,-1.40774c0,0 -0.16735,-0.60529 0.43794,-0.77264c0.60529,-0.16735 0.77264,0.43794 0.77264,0.43794c0.12974,0.46924 0.2919,1.0558 0.42165,1.52502c0,0 0.16735,0.60529 -0.43794,0.77264z" fill="#a00000" fill-rule="nonzero" stroke="none" stroke-width="0.5" stroke-linecap="butt" stroke-linejoin="miter"/><path d="M330.05216,186.51362c-0.54634,-0.30969 -0.23668,-0.85603 -0.23668,-0.85603l0.66387,-0.46724c0.25625,0.01334 0.5125,0.02666 0.76872,0.04002c0,0 0.62716,0.03266 0.5945,0.65981c-0.03264,0.62715 -0.65979,0.5945 -0.65979,0.5945c-0.14435,-0.0075 -0.28871,-0.01503 -0.43307,-0.02253c-0.14341,0.12272 -0.38066,0.23107 -0.69757,0.05147z" fill="#a00000" fill-rule="nonzero" stroke="none" stroke-width="0.5" stroke-linecap="butt" stroke-linejoin="miter"/><path d="M351.61855,165.05112c0.49704,0.38384 0.11323,0.88088 0.11323,0.88088l-0.24442,0.03228c0.03803,0.37341 0.10719,0.73322 0.17835,1.09252c0.09013,0.07363 0.14003,0.14792 0.14003,0.14792c0.1293,0.19473 0.28712,0.3733 0.38791,0.5842c0.03838,0.08032 -0.06473,0.29779 0.01856,0.26642c0.24787,-0.09343 0.37506,-0.6195 0.61382,-0.50475c0.43724,0.21013 0.59614,0.77083 0.82723,1.19735c0.12979,0.23959 -0.15998,0.93425 0.08409,0.81311c0.19569,-0.09714 0.32124,-0.48368 0.52169,-0.39679c0.84775,0.36742 1.55246,1.70795 0.36247,2.40814c-0.34702,0.20418 -0.7658,-0.24897 -1.14872,-0.37347l-0.32807,-0.49631c0,0 -0.03249,-0.11753 -0.01706,-0.2633c-0.14189,-0.11832 -0.2892,-0.28231 -0.43446,-0.49885c-0.1494,-0.22272 -0.20401,-0.50537 -0.22379,-0.77282c-0.00992,-0.13448 0.25245,-0.4523 0.13854,-0.38012c-0.1796,0.11385 -0.15399,0.55237 -0.36468,0.52345c-0.29188,-0.04008 -0.53525,-0.19806 -0.74455,-0.40558c-0.05461,0.02046 -0.11718,0.03531 -0.18879,0.04282c-0.62457,0.06556 -0.69014,-0.55901 -0.69014,-0.55901c-0.07985,-0.7842 -0.29704,-1.50842 -0.38161,-2.29377l0.49946,-0.93107c0,0 0.38384,-0.49704 0.88088,-0.11323z" fill="#a00000" fill-rule="nonzero" stroke="none" stroke-width="0.5" stroke-linecap="butt" stroke-linejoin="miter"/><path d="M355.59019,165.01974c0.54634,0.30969 0.23668,0.85603 0.23668,0.85603l-0.34604,0.57251c-0.16308,0.17137 -0.32616,0.34272 -0.48925,0.5141c0,0 -0.43294,0.45493 -0.88786,0.022c-0.45493,-0.43294 -0.022,-0.88786 -0.022,-0.88786c0.16309,-0.17137 0.32618,-0.34275 0.48925,-0.5141l0.16321,-0.32597c0,0 0.30969,-0.54634 0.85603,-0.23668z" fill="#a00000" fill-rule="nonzero" stroke="none" stroke-width="0.5" stroke-linecap="butt" stroke-linejoin="miter"/><path d="M358.35297,166.24325l-0.67143,0.31192c0,0 -0.56953,0.2646 -0.83413,-0.30496c-0.2646,-0.56953 0.30496,-0.83413 0.30496,-0.83413l0.67143,-0.31192c0,0 0.56953,-0.2646 0.83413,0.30496c0.2646,0.56953 -0.30496,0.83413 -0.30496,0.83413z" fill="#a00000" fill-rule="nonzero" stroke="none" stroke-width="0.5" stroke-linecap="butt" stroke-linejoin="miter"/><path d="M355.1924,160.08285c0.61623,0.121 0.49523,0.73725 0.49523,0.73725l-0.21376,0.57897c-0.16309,0.17137 -0.32618,0.34275 -0.48925,0.5141c0,0 -0.13139,0.13806 -0.32546,0.18969c-0.04072,0.23122 -0.21001,0.43004 -0.45135,0.49679c-0.33431,0.09243 -0.68023,-0.10364 -0.77264,-0.43794c-0.09243,-0.33431 0.10364,-0.68023 0.43794,-0.77264c0.00943,-0.0026 0.01887,-0.00498 0.02831,-0.00713c0.04193,-0.19648 0.17339,-0.33462 0.17339,-0.33462c0.16309,-0.17137 0.32618,-0.34275 0.48925,-0.5141l-0.10887,0.04487c0,0 0.12102,-0.61622 0.73725,-0.49523z" fill="#a00000" fill-rule="nonzero" stroke="none" stroke-width="0.5" stroke-linecap="butt" stroke-linejoin="miter"/><path d="M353.33301,170.10105c-0.30969,0.54634 -0.85603,0.23668 -0.85603,0.23668l-0.33992,-0.25106c-0.00608,-0.00799 -0.01216,-0.01599 -0.01824,-0.024c-0.13942,0.11457 -0.4575,0.2998 -0.81119,-0.00608c-0.475,-0.4108 -0.0642,-0.88582 -0.0642,-0.88582l0.21572,-0.2308c0.23125,-0.40222 0.36385,-0.76066 0.59804,-0.9211c0.00514,-0.09839 0.03348,-0.19305 0.08096,-0.27686l0.33952,-0.59897v0c0.07926,-0.13983 0.21183,-0.2494 0.379,-0.29564c0.23703,-0.06553 0.4799,0.01398 0.63413,0.18495l0.33565,-0.26846c0.06677,-0.05593 0.1463,-0.09881 0.23574,-0.12354c0.33431,-0.09243 0.68023,0.10364 0.77264,0.43794c0.02812,0.10167 0.02952,0.2044 0.00848,0.30075l-0.15489,0.78877l-0.00726,-0.00143l0.00217,0.02498c-0.14211,0.50197 -0.33959,0.99251 -0.59406,1.44792c0,0 -0.24691,0.43562 -0.68875,0.30841c-0.01522,0.04877 -0.0373,0.09987 -0.06755,0.15324zM352.9751,169.06453c-0.00709,0.00705 -0.01417,0.01412 -0.02127,0.02119c0.00272,0.00357 0.00543,0.00714 0.00815,0.01071c0.00457,-0.01185 0.00902,-0.02255 0.01311,-0.03191z" fill="#ffffff" fill-rule="nonzero" stroke="none" stroke-width="0.5" stroke-linecap="butt" stroke-linejoin="miter"/><path d="M334.97197,187.61323c-0.58465,-0.2293 -0.35536,-0.81393 -0.35536,-0.81393l0.46794,-0.20461c-0.19021,-0.03098 -0.36554,-0.06812 -0.49286,-0.10164c0,0 -0.60513,-0.1679 -0.43723,-0.77305c0.16791,-0.60513 0.77305,-0.43723 0.77305,-0.43723c1.26453,0.37634 3.14545,-0.39742 2.06856,1.76314c-0.10272,0.20611 -0.31456,0.33572 -0.47617,0.50055l-0.31065,0.54807l-0.2197,-0.12454l-0.52015,0.4123c-0.06593,-0.21382 -0.13169,-0.42862 -0.20272,-0.64153l-0.22794,-0.02537l0.00852,-0.07653c-0.02443,-0.00707 -0.04952,-0.01562 -0.07531,-0.02572z" fill="#8da900" fill-rule="nonzero" stroke="none" stroke-width="0.5" stroke-linecap="butt" stroke-linejoin="miter"/><path d="M338.23773,195.11038c0,0 -0.54151,-0.30694 -0.24074,-0.84877c-0.20278,-0.05855 -0.37131,-0.2179 -0.43167,-0.43625c-0.0462,-0.16714 -0.0203,-0.33719 0.05896,-0.47703v0l0.17146,-0.3025c-0.02449,-0.14685 -0.06934,-0.28709 -0.14437,-0.41533l-0.43261,-0.39455c0,0 -0.38261,-0.36411 -0.11216,-0.77537c-0.11518,-0.12771 -0.26858,-0.37761 -0.09992,-0.69062c-0.35264,-0.30457 -0.80114,-0.73811 -0.93829,-0.8678l-0.2048,-0.40489c0,0 -0.0453,-0.16387 -0.0035,-0.34466c-0.06394,0.00122 -0.12725,-0.00036 -0.18932,-0.00727c0,0 -0.62415,-0.06943 -0.55472,-0.69356c0.06941,-0.62416 0.69356,-0.55472 0.69356,-0.55472c0.09826,0.01094 0.34519,0.03639 0.61406,0.06803c0.08074,-0.12087 0.20362,-0.21442 0.35469,-0.25619c0.12621,-0.03489 0.25405,-0.02867 0.36929,0.01058c0.22948,-0.07581 0.43562,0.02943 0.54112,0.10172c0.00133,-0.00355 0.00268,-0.00711 0.00409,-0.01068c-0.00143,-0.27659 0.18143,-0.53089 0.46081,-0.60815c0.33431,-0.09243 0.68023,0.10364 0.77264,0.43794c0.04,0.14466 0.02598,0.29151 -0.02991,0.41905c0.00742,0.13037 0.00704,0.26234 -0.00114,0.39436c0.00855,0.02287 0.0164,0.04705 0.02347,0.07262c0.07844,0.28373 -0.01288,0.47122 -0.13204,0.59039c-0.05687,0.21005 -0.13488,0.41329 -0.23399,0.60295l0.01744,0.0784c0,0 -0.04337,0.2209 -0.21046,0.37221c-0.02667,0.18124 -0.09219,0.35045 -0.20616,0.49596c0.6138,0.2663 1.47976,-0.15468 1.93041,0.43825c0.62821,0.82658 -0.26968,1.87487 -0.82598,2.46914c0.19584,0.12238 0.39335,0.24143 0.60362,0.33572c0.33074,0.1483 0.87654,0.05023 1.01721,0.38426c0.17026,0.40426 -0.51117,1.47032 -0.73389,1.8577l-0.06742,0.04177l0.01793,0.01706l-0.48214,0.50664c-0.07683,0.08358 -0.17723,0.14737 -0.29469,0.17984c-0.33431,0.09243 -0.68023,-0.10364 -0.77264,-0.43794c-0.00902,-0.03263 -0.01529,-0.06538 -0.01896,-0.098l-0.10835,-0.84289l0.01474,-0.00189c-0.06942,-0.2032 -0.13407,-0.4079 -0.19176,-0.6147l-0.00387,0.20922zM338.79792,192.15993c0.00607,0.01138 0.01219,0.02273 0.01837,0.03409c0.01429,-0.01566 0.02832,-0.03106 0.04208,-0.04612c-0.01942,0.0046 -0.03961,0.00858 -0.06044,0.01199z" fill="#8da900" fill-rule="nonzero" stroke="none" stroke-width="0.5" stroke-linecap="butt" stroke-linejoin="miter"/><path d="M340.62631,191.46845c-0.9853,-0.92855 -1.04629,-1.20965 -0.82186,-2.06299c-0.33457,-0.26108 -0.3133,-0.94042 -0.17892,-1.53537l-0.31659,-0.1022c-0.22994,-0.55228 -0.29351,-1.20516 -0.15776,-1.78776c0,0 0.16791,-0.60513 0.77307,-0.43723c0.60514,0.16792 0.43723,0.77307 0.43723,0.77307c-0.00989,0.0272 -0.01849,0.05501 -0.02584,0.08333c0.23799,0.03271 0.44578,0.20122 0.51738,0.44552c0.19639,0.14158 0.24818,0.31885 0.24568,0.47103l0.27038,0.51384c-0.014,0.18859 0.0382,0.41631 0.06557,0.62936c0.56038,0.23443 0.33615,0.80617 0.33615,0.80617l-0.20154,0.16989c0.13272,0.48598 0.23357,0.99452 0.27081,1.50384l0.25497,-0.02677l0.07622,0.72603c0.03734,0.30375 -0.15232,0.59712 -0.45616,0.68113c-0.27229,0.07529 -0.55229,-0.04084 -0.69673,-0.26713l-0.39213,-0.58375z" fill="#8da900" fill-rule="nonzero" stroke="none" stroke-width="0.5" stroke-linecap="butt" stroke-linejoin="miter"/><path d="M337.16351,185.34587c0.57719,0.24746 0.32974,0.82464 0.32974,0.82464l-0.78161,1.08839c-0.37191,-0.26857 -0.74383,-0.53717 -1.11574,-0.80574c0,0 -0.42039,-0.46657 0.04617,-0.88691c0.33033,-0.29764 0.63753,-0.15064 0.78876,-0.03945c0.11833,-0.15152 0.35484,-0.34288 0.73269,-0.18093z" fill="#a00000" fill-rule="nonzero" stroke="none" stroke-width="0.5" stroke-linecap="butt" stroke-linejoin="miter"/><path d="M337.99149,186.61579c0.60529,-0.16735 0.77264,0.43794 0.77264,0.43794l0.06486,0.23463c0.07806,0.29773 0.08069,0.60954 0.03688,0.921l0.17657,0.01964l-0.07083,0.63689c-0.02227,0.25362 -0.1986,0.47859 -0.45841,0.5504c-0.25983,0.07185 -0.52665,-0.03059 -0.67605,-0.23676l-0.38793,-0.51006l0.03573,-0.02717l-0.0986,-0.07421c-0.07904,-0.27176 -0.15813,-0.54354 -0.23717,-0.81531c0,0 -0.16349,-0.59132 0.41716,-0.76664c0.05033,-0.14918 0.16805,-0.29928 0.42515,-0.37036z" fill="#a00000" fill-rule="nonzero" stroke="none" stroke-width="0.5" stroke-linecap="butt" stroke-linejoin="miter"/><path d="M340.26033,189.05259c0.62716,0.03266 0.5945,0.65981 0.5945,0.65981l-0.0192,0.35709c-0.00815,0.17017 0.02736,0.3563 0.04662,0.5365c0.28324,0.10927 0.37232,0.43146 0.37232,0.43146l0.25948,0.93848c0.02828,0.10226 0.02956,0.20563 0.00812,0.30247c0.00803,0.01731 0.01601,0.0347 0.02393,0.05216l0.11798,0.23378c0,0 0.2828,0.56072 -0.27791,0.84355c-0.13272,0.06693 -0.24987,0.08663 -0.35137,0.07766c-0.26534,-0.00861 -0.42084,-0.20284 -0.49122,-0.32109c-0.07844,0.09128 -0.18392,0.16105 -0.30865,0.19555c-0.25983,0.07185 -0.52665,-0.03059 -0.67605,-0.23676l-0.38793,-0.51006l0.01898,-0.01445l-0.05694,-0.0415c-0.26484,-0.5675 -0.47072,-1.16357 -0.63886,-1.76682c0,0 -0.16735,-0.60529 0.43794,-0.77264c0.03873,-0.01071 0.07565,-0.01825 0.11085,-0.023c0.04433,-0.06555 0.10798,-0.1283 0.19749,-0.18358c0.08022,-0.10453 0.19385,-0.1848 0.33065,-0.22265c0.01278,-0.00354 0.02559,-0.00666 0.03839,-0.00935c0.02938,-0.16137 0.15218,-0.55257 0.65086,-0.52662z" fill="#a00000" fill-rule="nonzero" stroke="none" stroke-width="0.5" stroke-linecap="butt" stroke-linejoin="miter"/><path d="M341.07456,194.49672c0.09243,0.33431 -0.10364,0.68023 -0.43794,0.77264c-0.33431,0.09243 -0.68023,-0.10364 -0.77264,-0.43794c-0.09243,-0.33431 0.10364,-0.68023 0.43794,-0.77264c0.33431,-0.09243 0.68023,0.10364 0.77264,0.43794z" fill="#a00000" fill-rule="nonzero" stroke="none" stroke-width="0.5" stroke-linecap="butt" stroke-linejoin="miter"/><path d="M338.82228,189.16524c0.30224,-0.08357 0.49529,0.02551 0.61283,0.15569c0.01343,0.00067 0.02678,0.00174 0.04005,0.00325c-0.03113,-0.09305 -0.05466,-0.19151 -0.06796,-0.29676c-0.02869,-0.22693 0.01312,-0.46079 0.03887,-0.69195c-0.18653,-0.65761 -0.35362,-1.31856 -0.52967,-1.9552l-0.22704,-0.82118c-0.09243,-0.33431 0.10364,-0.68023 0.43794,-0.77264c0.30382,-0.084 0.61723,0.07029 0.74124,0.35008l0.2378,0.51186c0.36085,-0.05148 0.58808,0.28679 0.58808,0.28679c1.31236,1.9537 1.53781,3.60067 1.77739,5.88307l0.07622,0.72603c0.03734,0.30375 -0.15232,0.59712 -0.45616,0.68113c-0.09082,0.0251 -0.18247,0.02893 -0.26967,0.01447c0.00743,0.19075 -0.04682,0.5072 -0.45854,0.62105c-0.38094,0.10532 -0.58839,-0.09536 -0.68988,-0.25862c-0.00729,-0.00222 -0.01462,-0.00458 -0.02205,-0.00712c-0.16141,0.09508 -0.48336,0.21124 -0.78198,-0.1202c-0.42037,-0.46656 0.04617,-0.88694 0.04617,-0.88694c0.11865,-0.07111 0.23056,-0.17549 0.34317,-0.27635c-0.13165,-0.05897 -0.25693,-0.17732 -0.32001,-0.40545c-0.15222,-0.55057 0.33482,-0.73881 0.42414,-0.76834c0.00712,-0.1154 -0.00564,-0.22252 -0.03298,-0.32416c-0.02465,-0.05224 -0.0489,-0.10473 -0.07272,-0.15753c-0.09357,-0.01013 -0.18295,-0.04123 -0.26176,-0.08972c-0.25183,0.03041 -0.50171,0.07994 -0.74497,0.14896l-0.86656,-0.77761c0,0 -0.16735,-0.60529 0.43794,-0.77264zM340.29125,191.47368c0.03149,-0.0882 0.05211,-0.17162 0.06338,-0.25107z" fill="#000000" fill-rule="nonzero" stroke="none" stroke-width="0.5" stroke-linecap="butt" stroke-linejoin="miter"/><path d="M339.7541,190.94859l0.32371,0.64179" fill="none" fill-rule="nonzero" stroke="#001026" stroke-width="1.2" stroke-linecap="round" stroke-linejoin="miter"/><path d="M340.56336,192.55307l-1.21247,-2.0049" fill="none" fill-rule="nonzero" stroke="#a00000" stroke-width="1.2" stroke-linecap="round" stroke-linejoin="miter"/><path d="M340.72399,190.75356l-2.1276,-0.28931" fill="none" fill-rule="nonzero" stroke="#000000" stroke-width="1.2" stroke-linecap="round" stroke-linejoin="miter"/><path d="M341.1532,191.51244l-1.84745,2.04649" fill="none" fill-rule="nonzero" stroke="#000000" stroke-width="1.2" stroke-linecap="round" stroke-linejoin="miter"/><path d="M342.46944,181.19239c-0.62006,0.09948 -0.71955,-0.52061 -0.71955,-0.52061l-0.10815,-0.69607c0.01987,-0.02105 0.03973,-0.0421 0.05958,-0.06315l-0.05964,-0.0031l0.03401,-0.65331c0.00579,-0.20254 0.11006,-0.39085 0.27789,-0.50343c0.17075,-0.78172 0.99395,-1.7438 2.02128,-1.14331c1.03338,0.60404 0.88497,2.96185 -0.39393,3.27801c-0.23089,0.05708 -0.44362,0.03161 -0.63265,-0.05229c-0.06035,0.15522 -0.1933,0.31142 -0.47885,0.35724z" fill="#a00000" fill-rule="nonzero" stroke="none" stroke-width="0.5" stroke-linecap="butt" stroke-linejoin="miter"/><path d="M343.42204,179.11137c0.09243,0.33431 -0.10364,0.68023 -0.43794,0.77264c-0.33431,0.09243 -0.68023,-0.10364 -0.77264,-0.43794c-0.09243,-0.33431 0.10364,-0.68023 0.43794,-0.77264c0.33431,-0.09243 0.68023,0.10364 0.77264,0.43794z" fill="#ffffff" fill-rule="nonzero" stroke="none" stroke-width="0.5" stroke-linecap="butt" stroke-linejoin="miter"/><path d="M339.93194,190.53376l1.00148,1.77072l-0.9555,0.77609" fill="none" fill-rule="nonzero" stroke="#000000" stroke-width="1.2" stroke-linecap="round" stroke-linejoin="miter"/><path d="M348.00592,179.53258c0.33431,-0.09243 0.68023,0.10364 0.77264,0.43794c0.01054,0.0381 0.01731,0.07635 0.02057,0.11434c0.07956,-0.13739 0.21096,-0.24488 0.37609,-0.29056c0.33431,-0.09243 0.68023,0.10364 0.77264,0.43794c0.03087,0.1116 0.02958,0.22452 0.00168,0.32886c0.26642,0.00975 0.50735,0.18978 0.58217,0.46039c0.01452,0.05251 0.02192,0.10533 0.02279,0.15738c0.2959,-0.02592 0.57738,0.16188 0.65938,0.45843c0.09243,0.33431 -0.10364,0.68023 -0.43794,0.77264c-0.02598,0.00718 -0.05203,0.01261 -0.07804,0.01638c0.05631,0.31552 -0.13596,0.6278 -0.45105,0.71492c-0.33431,0.09243 -0.68023,-0.10364 -0.77264,-0.43794c-0.00718,-0.02598 -0.01261,-0.05204 -0.0164,-0.07805c-0.31552,0.05631 -0.6278,-0.13596 -0.71492,-0.45105c-0.01607,-0.05808 -0.02339,-0.11654 -0.02283,-0.17394c-0.27005,-0.00587 -0.51571,-0.18693 -0.59138,-0.46066c-0.02245,-0.08119 -0.02789,-0.16304 -0.01845,-0.2418c-0.27907,0.0043 -0.53673,-0.17918 -0.61457,-0.46075c-0.01829,-0.06617 -0.02527,-0.1328 -0.02214,-0.19783c-0.24276,-0.03173 -0.45479,-0.20474 -0.52416,-0.45556c-0.09243,-0.33431 0.10364,-0.68023 0.43794,-0.77264c0.21152,-0.05847 0.4277,-0.00146 0.58139,0.13301c0.01222,-0.0042 0.02461,-0.00803 0.03723,-0.01153zM348.73733,180.56695c-0.01054,-0.0381 -0.01731,-0.07635 -0.02057,-0.11434c-0.00543,0.00938 -0.0111,0.01862 -0.017,0.02768c0.00229,0.0073 0.00447,0.01467 0.00653,0.02209c0.02245,0.08119 0.02789,0.16304 0.01845,0.2418c0.03261,-0.00051 0.06491,0.00156 0.09669,0.00603c-0.03681,-0.05473 -0.06556,-0.11621 -0.08411,-0.18329zM349.3036,181.10761c0.00354,-0.02719 0.0089,-0.05398 0.01589,-0.08022c-0.02163,-0.00079 -0.04309,-0.0027 -0.06431,-0.00569c0.01818,0.02706 0.0344,0.05571 0.04839,0.08593zM349.99025,181.91431c-0.00595,-0.03335 -0.00914,-0.06664 -0.00968,-0.09966c-0.0113,0.00098 -0.02259,0.00166 -0.03383,0.00205c0.00238,0.00755 0.00466,0.01516 0.00679,0.02285c0.00718,0.02598 0.01261,0.05203 0.01638,0.07804c0.00679,-0.00121 0.01357,-0.00231 0.02032,-0.00329z" fill="#e93e3e" fill-rule="nonzero" stroke="none" stroke-width="0.5" stroke-linecap="butt" stroke-linejoin="miter"/><path d="M345.5222,171.07813c0.33431,-0.09243 0.68023,0.10364 0.77264,0.43794c0.02446,0.08846 0.02872,0.17773 0.01556,0.26293c0.10396,0.08016 0.18377,0.19345 0.22142,0.32974c0.03861,0.13962 0.02687,0.28124 -0.0242,0.4056c0.15026,0.0775 0.26895,0.21508 0.31754,0.39084c0.04558,0.16483 0.02101,0.33244 -0.05566,0.47113c0.2129,0.05286 0.39187,0.21589 0.45449,0.44239c0.04922,0.17807 0.01661,0.35945 -0.07518,0.50404c0.19128,0.06418 0.34826,0.2192 0.40607,0.42829c0.07308,0.2643 -0.03417,0.53585 -0.24748,0.68366c0.11239,0.08067 0.19897,0.19886 0.23871,0.34257c0.04917,0.17784 0.01669,0.35897 -0.07481,0.50347c0.25767,0.01848 0.48759,0.19601 0.56035,0.45922c0.03861,0.13962 0.02687,0.28124 -0.0242,0.4056c0.15025,0.07751 0.26895,0.21508 0.31754,0.39084c0.01978,0.0715 0.02633,0.14355 0.02118,0.21352c0.04036,0.05739 0.07175,0.12256 0.09152,0.19408c0.01524,0.05513 0.02263,0.11056 0.02286,0.16512c0.08197,0.07642 0.1445,0.1757 0.17655,0.29165c0.05409,0.19568 0.00936,0.39534 -0.10411,0.54581c0.09035,0.07826 0.15936,0.18312 0.19362,0.30699c0.09243,0.33431 -0.10364,0.68023 -0.43794,0.77264c-0.33431,0.09243 -0.68023,-0.10364 -0.77264,-0.43794c-0.05409,-0.19568 -0.00936,-0.39534 0.10411,-0.54581c-0.09035,-0.07826 -0.15936,-0.18312 -0.19362,-0.30699c-0.01524,-0.05513 -0.02263,-0.11056 -0.02286,-0.16512c-0.08197,-0.07643 -0.1445,-0.1757 -0.17655,-0.29165c-0.01978,-0.0715 -0.02635,-0.14355 -0.02118,-0.21353c-0.04036,-0.05739 -0.07174,-0.12257 -0.09151,-0.1941c-0.03861,-0.13962 -0.02687,-0.28124 0.0242,-0.4056c-0.15024,-0.07752 -0.26892,-0.21507 -0.31754,-0.39082c-0.04917,-0.17784 -0.01669,-0.35897 0.07481,-0.50347c-0.25767,-0.01849 -0.48759,-0.19601 -0.56035,-0.45922c-0.07306,-0.26429 0.03417,-0.53585 0.24748,-0.68366c-0.11239,-0.08067 -0.19897,-0.19886 -0.23871,-0.34257c-0.04922,-0.17807 -0.01661,-0.35945 0.07518,-0.50404c-0.19128,-0.06418 -0.34826,-0.2192 -0.40607,-0.42829c-0.04558,-0.16483 -0.021,-0.33245 0.05566,-0.47114c-0.21289,-0.05285 -0.39187,-0.21589 -0.45449,-0.44239c-0.03861,-0.13962 -0.02687,-0.28124 0.0242,-0.4056c-0.15024,-0.07752 -0.26895,-0.21508 -0.31754,-0.39084c-0.02446,-0.08846 -0.02872,-0.17773 -0.01556,-0.26293c-0.10396,-0.08016 -0.18377,-0.19345 -0.22142,-0.32974c-0.09243,-0.33431 0.10364,-0.68023 0.43794,-0.77264z" fill="#e93e3e" fill-rule="nonzero" stroke="none" stroke-width="0.5" stroke-linecap="butt" stroke-linejoin="miter"/><path d="M349.97071,183.22425c0.09243,0.33431 -0.10364,0.68023 -0.43794,0.77264c-0.31509,0.08713 -0.64048,-0.08204 -0.75424,-0.38167c-0.02426,0.01012 -0.04939,0.01886 -0.07537,0.02604c-0.33431,0.09243 -0.68023,-0.10364 -0.77264,-0.43794c-0.03576,-0.1294 -0.02832,-0.26053 0.01363,-0.37803c-0.01547,0.00561 -0.03129,0.01067 -0.04745,0.01514c-0.33431,0.09243 -0.68023,-0.10364 -0.77264,-0.43794c-0.03324,-0.12024 -0.02916,-0.24199 0.00524,-0.35288c-0.24152,-0.03275 -0.45211,-0.20537 -0.52116,-0.45515c-0.02446,-0.08849 -0.02872,-0.17776 -0.01553,-0.26298c-0.25325,-0.02262 -0.4778,-0.19883 -0.54954,-0.45834c-0.09243,-0.33431 0.10364,-0.68023 0.43794,-0.77264c0.33431,-0.09243 0.68023,0.10364 0.77264,0.43794c0.02446,0.08849 0.02872,0.17776 0.01553,0.26298c0.25325,0.02262 0.4778,0.19883 0.54954,0.45834c0.03324,0.12023 0.02916,0.24198 -0.00524,0.35288c0.24152,0.03275 0.4521,0.20539 0.52116,0.45515c0.03576,0.1294 0.02832,0.26053 -0.01363,0.37803c0.01547,-0.00561 0.03129,-0.01067 0.04745,-0.01514c0.31509,-0.08713 0.64047,0.08207 0.75424,0.38168c0.02426,-0.01013 0.0494,-0.01885 0.07538,-0.02603c0.33431,-0.09243 0.68023,0.10364 0.77264,0.43794z" fill="#e93e3e" fill-rule="nonzero" stroke="none" stroke-width="0.5" stroke-linecap="butt" stroke-linejoin="miter"/><path d="M345.04052,168.86457c0.0185,0.06685 -0.02073,0.13603 -0.08758,0.15453c-0.06685,0.0185 -0.13603,-0.02073 -0.15453,-0.08758c-0.0185,-0.06685 0.02073,-0.13603 0.08758,-0.15453c0.06685,-0.0185 0.13603,0.02073 0.15453,0.08758z" fill="#a00000" fill-rule="nonzero" stroke="none" stroke-width="0.5" stroke-linecap="butt" stroke-linejoin="miter"/><path d="M342.87368,170.23025c-0.08216,0.095 -0.17715,0.01284 -0.17715,0.01284l-0.00445,-0.00384c-0.12666,-0.10955 -0.25333,-0.21909 -0.37999,-0.32863c0,0 -0.095,-0.08216 -0.01284,-0.17715c0.08216,-0.095 0.17715,-0.01284 0.17715,-0.01284c0.12666,0.10956 0.25777,0.22293 0.38445,0.33248c0,0 0.095,0.08216 0.01284,0.17715z" fill="#a00000" fill-rule="nonzero" stroke="none" stroke-width="0.5" stroke-linecap="butt" stroke-linejoin="miter"/><path d="M343.07592,168.57801c0.11459,-0.03168 0.23147,-0.00686 0.32095,0.05763c0.01441,-0.10903 0.07519,-0.2403 0.27168,-0.29461c0.3632,-0.10041 0.46359,0.26276 0.46359,0.26276l0.01612,0.07754c0.01792,0.03931 0.03635,0.0774 0.0552,0.11453c0.04426,0.00145 0.08737,0.01074 0.12757,0.02688c-0.00613,-0.0378 -0.00074,-0.09331 0.06795,-0.12798c0.02238,-0.01129 0.04253,-0.01586 0.06049,-0.01593c0.00889,-0.00458 0.019,-0.00858 0.03053,-0.01174c0.12107,-0.03348 0.15453,0.08758 0.15453,0.08758l0.01879,0.06794c0.01445,0.06093 0.02046,0.12549 0.01796,0.18996c0.03013,0.07557 0.06109,0.15522 0.0934,0.23407c0.00662,-0.0018 0.01336,-0.00371 0.02024,-0.00572l0.18212,0.06095c0,0 0.01728,0.0098 0.03422,0.02846c0.0078,-0.00411 0.01619,-0.00744 0.02505,-0.00989c0.06685,-0.0185 0.13603,0.02073 0.15453,0.08758c0.00904,0.03274 0.00426,0.06604 -0.01083,0.09367c0.00484,-0.00054 0.00967,-0.00083 0.01448,-0.0008c0.0186,-0.01322 0.04315,-0.02357 0.07316,-0.02104c0.00887,-0.00507 0.01851,-0.00911 0.02882,-0.01196c0.06685,-0.0185 0.13603,0.02073 0.15453,0.08758c0.01413,0.05111 -0.00545,0.10355 -0.04531,0.13369c-0.00037,0.0032 -0.00083,0.00638 -0.00141,0.00953c-0.00855,0.04568 -0.04222,0.0848 -0.09002,0.09803c-0.00319,0.00088 -0.00637,0.00164 -0.00955,0.00225c-0.02442,0.05207 -0.04676,0.10453 -0.06895,0.15706c0.04464,0.04955 0.08931,0.09911 0.13396,0.14868c0,0 0.08409,0.09331 -0.00924,0.17738c-0.06176,0.05563 -0.11945,0.03358 -0.15144,0.01231c-0.0177,0.01522 -0.03562,0.02955 -0.05376,0.04302c0.01656,0.05985 0.03311,0.11974 0.04965,0.17957l0.08273,-0.02287c0,0 0.0494,-0.01366 0.09383,0.00803c-0.00323,-0.03658 0.00268,-0.10785 0.0912,-0.13234c0.12107,-0.03348 0.15453,0.08758 0.15453,0.08758l0.01879,0.06794c0.01879,0.06794 0.03756,0.13585 0.05635,0.20381c0,0 0.03348,0.12107 -0.08758,0.15453c-0.12107,0.03348 -0.15453,-0.08758 -0.15453,-0.08758c-0.00793,-0.02872 -0.01925,-0.06957 -0.03106,-0.1123c-0.02729,0.03935 -0.07458,0.05242 -0.07458,0.05242l-0.06079,0.0168l-0.00569,0.06094c-0.00028,0.00026 -0.00059,0.00054 -0.00088,0.00079c0.01502,0.05432 0.03002,0.10862 0.04505,0.16296c0,0 0.03348,0.12107 -0.08758,0.15453c-0.12107,0.03348 -0.15453,-0.08758 -0.15453,-0.08758c-0.00829,-0.02998 -0.01678,-0.06067 -0.02542,-0.09191c-0.02291,-0.00394 -0.04738,-0.01616 -0.07113,-0.04249c-0.0369,-0.04095 -0.03964,-0.08012 -0.03109,-0.11118c-0.07807,0.04674 -0.14872,0.06293 -0.21087,0.06076c-0.04167,0.10709 -0.13161,0.19385 -0.25089,0.22681c-0.20059,0.05546 -0.40814,-0.06219 -0.46359,-0.26276c-0.02781,-0.10065 -0.01207,-0.20304 0.03588,-0.2871c-0.00183,-0.00452 -0.00343,-0.0092 -0.00477,-0.01402c-0.0185,-0.06685 0.02073,-0.13603 0.08758,-0.15453c0.01818,-0.00503 0.03653,-0.00578 0.05399,-0.00288c-0.10304,-0.08307 -0.13792,-0.20924 -0.13792,-0.20924c-0.04069,-0.16099 -0.10493,-0.30136 -0.17975,-0.43471c-0.00119,0.01486 0.00107,0.02947 0.00782,0.04347c0,0 0.02277,0.08237 -0.0372,0.13c0.00854,0.03086 0.01707,0.06172 0.02561,0.09259l0.02759,-0.02664c0,0 0.10927,0.06195 0.04733,0.1712c-0.06195,0.10927 -0.1712,0.04733 -0.1712,0.04733l-0.14585,-0.12495c-0.0313,-0.11323 -0.0626,-0.22647 -0.09393,-0.33967c0,0 -0.03348,-0.12107 0.08758,-0.15453c0.02558,-0.00708 0.04727,-0.00724 0.06553,-0.00312c0.01226,-0.02566 0.02609,-0.05071 0.04095,-0.07486c-0.07775,-0.12173 -0.15786,-0.24458 -0.22964,-0.37972c-0.04529,0.09547 -0.13027,0.17147 -0.24011,0.20183c-0.20059,0.05546 -0.40814,-0.06219 -0.46359,-0.26276c-0.05546,-0.20059 0.06219,-0.40814 0.26276,-0.46359zM345.07297,169.66004c-0.00904,-0.03274 -0.00426,-0.06604 0.01083,-0.09367c-0.0187,0.00212 -0.03719,-0.00005 -0.05428,-0.00583c-0.00415,0.0049 -0.00871,0.00948 -0.0136,0.0137l-0.05805,0.0523c0.03003,0.04834 0.06138,0.09109 0.09432,0.12592c0.00987,-0.02269 0.01994,-0.04539 0.03034,-0.068c-0.00396,-0.00765 -0.00718,-0.01579 -0.00957,-0.02445z" fill="#a00000" fill-rule="nonzero" stroke="none" stroke-width="0.5" stroke-linecap="butt" stroke-linejoin="miter"/><path d="M342.37495,167.89429l0.01758,-0.00094c0.15226,-0.06647 0.30451,-0.13297 0.45678,-0.19943c0,0 0.03094,-0.01351 0.07835,-0.02318c0.01291,-0.00515 0.02623,-0.00966 0.03997,-0.01346c0.20059,-0.05546 0.40814,0.06219 0.46359,0.26276c0.05546,0.20059 -0.06219,0.40814 -0.26276,0.46359c-0.01085,0.00299 -0.02175,0.00551 -0.03263,0.00751c-0.14724,0.06428 -0.29447,0.12857 -0.44173,0.19285l-0.11828,0.03664c0,0 -0.3632,0.10041 -0.46359,-0.26276c-0.10041,-0.3632 0.26276,-0.46359 0.26276,-0.46359z" fill="#a00000" fill-rule="nonzero" stroke="none" stroke-width="0.5" stroke-linecap="butt" stroke-linejoin="miter"/><path d="M342.70677,161.08216c0.06709,0.92394 -1.18717,2.48311 -0.73011,3.42569c0.10665,0.04158 0.23816,0.13885 0.22638,0.36524c-0.01298,0.24943 -0.18271,0.32491 -0.29566,0.34747c-0.12337,0.05938 -0.22794,0.03905 -0.3062,-0.00204l-0.03867,-0.00211c-1.87202,-0.20904 -3.76092,-0.21714 -5.60174,-0.58473c-0.47244,-0.09433 -1.94198,0.13125 -1.79147,-0.85195c0.05975,-0.39038 1.79065,-0.69341 2.09937,-0.77876c1.06419,-0.29423 2.12623,-0.59792 3.19298,-0.88279c0.16862,-0.04504 0.77627,-0.23939 0.84019,-0.45189c0.03114,-0.10355 -0.53218,-0.73268 -0.60733,-0.83147c-0.68706,-0.90333 -0.78111,-2.05521 -1.47545,-2.95601c-0.46694,-0.62203 -1.0351,-2.70012 0.54326,-2.01144c0.37767,0.16479 0.84817,1.0067 1.22927,1.26976c1.47904,1.02099 2.46874,1.82915 3.48102,3.33499c0,0 0.2101,0.31279 -0.10267,0.52288c-0.31279,0.2101 -0.52288,-0.10267 -0.52288,-0.10267c-0.02188,-0.03257 -0.04367,-0.06489 -0.06541,-0.0969c0.02164,0.11154 -0.01122,0.21132 -0.01122,0.21132l-0.06367,0.07542z" fill="#ffffff" fill-rule="nonzero" stroke="none" stroke-width="0.5" stroke-linecap="butt" stroke-linejoin="miter"/><path d="M337.4646,156.28513c0.00354,-0.00939 0.00719,-0.01872 0.01095,-0.02795l0.14968,0.07989c0.00564,-0.00175 0.0114,-0.00346 0.01725,-0.00506c0.08066,-0.02228 0.14834,-0.02175 0.20486,-0.00737c-0.03973,-0.11317 -0.07652,-0.2317 -0.11196,-0.35867c0,0 -0.10041,-0.3632 0.26276,-0.46359c0.3632,-0.10041 0.46359,0.26276 0.46359,0.26276c0.00658,0.02407 0.01318,0.04771 0.01981,0.07091l0.30945,0.41974c0.03981,0.03086 0.077,0.07149 0.1114,0.12083c0.02843,-0.08197 0.06085,-0.17214 0.09717,-0.27236l0.60598,0.62872c-0.00765,0.10699 -0.01529,0.21396 -0.02293,0.32093c0.26262,0.09039 0.45463,0.23768 0.47733,0.52487c0.02565,0.3247 -0.20769,0.61743 -0.31156,0.92615l-0.26415,-0.26253c-0.02672,0.09518 -0.05346,0.19033 -0.08017,0.28548l-0.29459,-0.28437c-0.00554,0.07497 -0.01309,0.14939 -0.02251,0.22291l-0.70554,-0.46722c-0.04978,-0.12891 -0.07295,-0.26979 -0.07395,-0.41189c-0.25895,-0.10205 -0.50477,-0.2419 -0.7181,-0.41532l-0.06534,0.073c-0.04389,-0.06673 -0.07666,-0.14122 -0.09934,-0.2201c-0.06206,-0.06103 -0.12028,-0.12532 -0.17406,-0.19276l0.214,-0.54695z" fill="#a00000" fill-rule="nonzero" stroke="none" stroke-width="0.5" stroke-linecap="butt" stroke-linejoin="miter"/><path d="M336.02726,162.92141c0.3632,-0.10041 0.46359,0.26276 0.46359,0.26276l0.0133,0.05543c0.10232,0.04331 0.18457,0.13128 0.21649,0.24668c0.02207,0.07982 0.01672,0.16076 -0.01036,0.23275l0.36035,0.57323c0.02131,0.03222 0.03799,0.06828 0.04884,0.10755c0.05546,0.20059 -0.06219,0.40814 -0.26276,0.46359c-0.15589,0.04312 -0.31599,-0.01835 -0.40564,-0.14206l-0.13956,-0.18346l-0.02428,0.11731c-0.12342,-0.08491 -0.23223,-0.16733 -0.3262,-0.24653c-0.04298,0.0401 -0.09598,0.07072 -0.15655,0.08749c-0.15589,0.04312 -0.31599,-0.01835 -0.40564,-0.14206l-0.10895,-0.14326c-0.04534,0.09527 -0.13022,0.17108 -0.23989,0.20139c-0.04663,0.01288 -0.09365,0.01642 -0.13902,0.01173c-0.11887,0.06501 -0.22701,0.07292 -0.27948,-0.04334c-0.00872,0.00312 -0.01761,0.00593 -0.02666,0.00844c-0.20059,0.05546 -0.40814,-0.06219 -0.46359,-0.26276c-0.00627,-0.0227 -0.01034,-0.04548 -0.01231,-0.06814l-0.03097,-0.29514l-0.06018,-0.02152c0.01746,-0.01971 0.03474,-0.03889 0.05187,-0.05752l-0.00409,-0.03899c-0.02238,-0.18224 0.0914,-0.35827 0.27369,-0.40868c0.08101,-0.02239 0.16312,-0.01656 0.23593,0.01155c0.20503,-0.12103 0.36249,-0.12926 0.46432,-0.04722c0.23073,-0.0579 0.46409,0.06012 0.69689,0.14154c-0.01361,-0.09903 -0.0155,-0.34162 0.2709,-0.4208z" fill="#a00000" fill-rule="nonzero" stroke="none" stroke-width="0.5" stroke-linecap="butt" stroke-linejoin="miter"/><path d="M342.2214,154.28689c0.05546,0.20059 -0.06219,0.40814 -0.26276,0.46359c-0.20059,0.05546 -0.40814,-0.06219 -0.46359,-0.26276c-0.05546,-0.20059 0.06219,-0.40814 0.26276,-0.46359c0.20059,-0.05546 0.40814,0.06219 0.46359,0.26276z" fill="#a00000" fill-rule="nonzero" stroke="none" stroke-width="0.5" stroke-linecap="butt" stroke-linejoin="miter"/><path d="M344.909,152.35779l-0.20195,0.17818c-0.29372,0.33565 -0.63874,0.6259 -0.99306,0.89681c0,0 -0.29991,0.22812 -0.52801,-0.07178c-0.22812,-0.29991 0.07178,-0.52801 0.07178,-0.52801c0.31472,-0.23798 0.62284,-0.49229 0.88037,-0.79122l0.2664,-0.24382c0,0 0.27993,-0.25222 0.53216,0.02772c0.25222,0.27993 -0.02772,0.53216 -0.02772,0.53216z" fill="#a00000" fill-rule="nonzero" stroke="none" stroke-width="0.5" stroke-linecap="butt" stroke-linejoin="miter"/><path d="M345.79762,151.61618c0.05546,0.20059 -0.06219,0.40814 -0.26276,0.46359c-0.20059,0.05546 -0.40814,-0.06219 -0.46359,-0.26276c-0.05546,-0.20059 0.06219,-0.40814 0.26276,-0.46359c0.20059,-0.05546 0.40814,0.06219 0.46359,0.26276z" fill="#a00000" fill-rule="nonzero" stroke="none" stroke-width="0.5" stroke-linecap="butt" stroke-linejoin="miter"/><path d="M347.20549,151.15379c0.05546,0.20059 -0.06219,0.40814 -0.26276,0.46359c-0.20059,0.05546 -0.40814,-0.06219 -0.46359,-0.26276c-0.05546,-0.20059 0.06219,-0.40814 0.26276,-0.46359c0.20059,-0.05546 0.40814,0.06219 0.46359,0.26276z" fill="#a00000" fill-rule="nonzero" stroke="none" stroke-width="0.5" stroke-linecap="butt" stroke-linejoin="miter"/><path d="M341.3786,155.4706c0.05546,0.20059 -0.06219,0.40814 -0.26276,0.46359c-0.20059,0.05546 -0.40814,-0.06219 -0.46359,-0.26276c-0.05546,-0.20059 0.06219,-0.40814 0.26276,-0.46359c0.20059,-0.05546 0.40814,0.06219 0.46359,0.26276z" fill="#a00000" fill-rule="nonzero" stroke="none" stroke-width="0.5" stroke-linecap="butt" stroke-linejoin="miter"/><path d="M336.52719,161.19965c0.05546,0.20059 -0.06219,0.40814 -0.26276,0.46359c-0.20059,0.05546 -0.40814,-0.06219 -0.46359,-0.26276c-0.05546,-0.20059 0.06219,-0.40814 0.26276,-0.46359c0.20059,-0.05546 0.40814,0.06219 0.46359,0.26276z" fill="#a00000" fill-rule="nonzero" stroke="none" stroke-width="0.5" stroke-linecap="butt" stroke-linejoin="miter"/><path d="M337.1778,159.84971c0.05546,0.20059 -0.06219,0.40814 -0.26276,0.46359c-0.20059,0.05546 -0.40814,-0.06219 -0.46359,-0.26276c-0.05546,-0.20059 0.06219,-0.40814 0.26276,-0.46359c0.20059,-0.05546 0.40814,0.06219 0.46359,0.26276z" fill="#a00000" fill-rule="nonzero" stroke="none" stroke-width="0.5" stroke-linecap="butt" stroke-linejoin="miter"/><path d="M338.08852,158.64722c0.05546,0.20059 -0.06219,0.40814 -0.26276,0.46359c-0.20059,0.05546 -0.40814,-0.06219 -0.46359,-0.26276c-0.05546,-0.20059 0.06219,-0.40814 0.26276,-0.46359c0.20059,-0.05546 0.40814,0.06219 0.46359,0.26276z" fill="#a00000" fill-rule="nonzero" stroke="none" stroke-width="0.5" stroke-linecap="butt" stroke-linejoin="miter"/><path d="M315.97085,184.16343c-0.33533,0.09272 -0.6765,0.04028 -0.95662,-0.11936c-0.21365,0.17446 -0.52148,0.28841 -0.96237,0.22246c-0.70324,-0.10519 -0.94879,-0.54896 -1.02951,-0.91422c-0.50612,-0.00506 -0.97183,-0.31809 -1.15869,-0.80399l-0.50504,-1.26299l0.17287,-0.06913l-0.26203,-0.35822c0.68529,-2.27949 2.33617,-6.559 4.72653,-2.42062c0.08225,0.14238 0.14778,0.28433 0.19878,0.42586c0.29093,0.15678 0.51989,0.4274 0.61494,0.77109c0.17024,0.61575 -0.14892,1.25124 -0.7227,1.49223c-0.06228,0.19872 -0.13061,0.3972 -0.19875,0.59559c0.44736,0.09201 0.82841,0.42559 0.9585,0.89602c0.18485,0.66859 -0.20729,1.36044 -0.87589,1.54531z" fill="#ffffff" fill-rule="nonzero" stroke="none" stroke-width="0.5" stroke-linecap="butt" stroke-linejoin="miter"/><path d="M317.86886,177.76566c0.17401,0.62935 -0.16324,1.2793 -0.76106,1.5076c0.08002,0.11427 0.14224,0.24391 0.18155,0.38603c0.14047,0.50806 -0.05223,1.02954 -0.44623,1.33176c0.018,0.26551 -0.04972,0.52421 -0.18411,0.74246c0.20655,0.16018 0.36504,0.38598 0.44005,0.65728c0.18485,0.66859 -0.20729,1.36044 -0.87589,1.54531c-0.66859,0.18485 -1.36044,-0.20729 -1.54531,-0.87589c-0.09682,-0.3502 -0.03535,-0.70676 0.14123,-0.99353c-0.20655,-0.16018 -0.36504,-0.38598 -0.44005,-0.65728c-0.14047,-0.50806 0.05223,-1.02954 0.44623,-1.33176c-0.03685,-0.54365 0.2856,-1.05859 0.80393,-1.25655c-0.08002,-0.11427 -0.14224,-0.24391 -0.18155,-0.38603c-0.18485,-0.66859 0.20729,-1.36044 0.87589,-1.54531c0.66859,-0.18485 1.36044,0.20729 1.54531,0.87589z" fill="#a00000" fill-rule="nonzero" stroke="none" stroke-width="0.5" stroke-linecap="butt" stroke-linejoin="miter"/></g></g></g></svg>